<svg width="48" height="48" xmlns="http://www.w3.org/2000/svg"><g transform="matrix(-1 0 0 1 45 2)" fill="none" fill-rule="evenodd"><path d="M19.753 37.867c-3.454-.757-5.767-3.876-5.377-7.252.39-3.375 3.358-5.934 6.9-5.948a7.6 7.6 0 014.168 1.3" stroke="#E30613" stroke-width="2"/><path d="M10 40H5s-1 0-1.217.23C3.567 40.46 3 41 3 41.978V44h9M11.37 12.306a7.151 7.151 0 01-5.233.672c-1.768-.451-3.276-1.558-4.19-3.076a6.088 6.088 0 01-.897-4.035" stroke="#005AA0" stroke-width="2"/><ellipse stroke="#005AA0" cx="1.241" cy="4.033" rx=".741" ry=".733"/><path d="M17.514 8.365v2.257c0 1.829 1.443 3.311 3.224 3.311 1.781 0 3.225-1.482 3.225-3.31V9.116c-.342-4.088-3.088-7.543-6.92-8.707C13.21-.754 9.453.761 7 4H3" stroke="#005AA0" stroke-width="2"/><path d="M8 16v22" stroke="#005AA0" stroke-width="2" fill="#000"/><path d="M41 28.6c-.013 4.45-3.653 8.054-8.148 8.067M16 40.004h-1.885a1.985 1.985 0 00-1.426.572c-.377.374-.586.696-.578 1.224V44h18.686C34.649 32.98 30.424 22.428 20 17" stroke="#005AA0" stroke-width="2"/></g></svg>