<?xml version="1.0" encoding="utf-8"?><svg xmlns="http://www.w3.org/2000/svg" xmlns:xlink="http://www.w3.org/1999/xlink"><symbol viewBox="0 0 32 32" id="about_LF-32" xmlns="http://www.w3.org/2000/svg"><g fill="currentColor" fill-rule="evenodd"><path d="M19.5 5h-6.995A8.505 8.505 0 004 13.505v1C4 19.201 7.806 23 12.504 23h1.081L19 28.414v-7.416h-2v2.588L14.414 21h-1.91A6.496 6.496 0 016 14.505v-1A6.505 6.505 0 0112.505 7H19.5a6.5 6.5 0 016.5 6.505v1a6.491 6.491 0 01-5.94 6.471l.015 2.005A8.492 8.492 0 0028 14.505v-1C28 8.807 24.196 5 19.5 5"/><path fill-rule="nonzero" d="M18 12h-3v-2h5v8h-2z"/><path fill-rule="nonzero" d="M14 16h3v2h-5v-8h2z"/><path d="M15 13h2v2h-2z"/></g></symbol><symbol viewBox="0 0 32 32" id="accont-32" xmlns="http://www.w3.org/2000/svg"><path d="M28 15h-1v-5H9.067v2H25v3h-3v2h4v2h-4v2h3v3H8.898C7.852 24 7 23.177 7 22.165V9.835C7 8.823 7.852 8 8.898 8H25V6H8.898C6.749 6 5 7.721 5 9.835v12.33C5 24.279 6.749 26 8.898 26H27v-5h1v-6z" fill="currentColor" fill-rule="evenodd"/></symbol><symbol viewBox="0 0 32 32" id="apply_job-32" xmlns="http://www.w3.org/2000/svg"><g fill="currentColor"><path d="M18.539 12.98c-2.71 0-4.716-.767-6.083-2.068-.853-.812-1.293-1.645-1.456-2.258l1.933-.515c.01.043.059.169.155.35.172.328.418.66.747.975.986.938 2.497 1.515 4.704 1.515h8.388l.245.645.173.457c.432 1.25.655 2.57.655 3.919 0 6.627-5.373 12-12 12S4 22.627 4 16C4 9.372 9.372 4 16 4c3.541 0 6.834 1.544 9.1 4.177L23.584 9.48A9.975 9.975 0 0016 6C10.477 6 6 10.477 6 16s4.477 10 10 10 10-4.478 10-10c0-1.046-.16-2.07-.463-3.02h-6.998z"/><path d="M11.941 16.262h-2a2.262 2.262 0 114.524 0h-2a.262.262 0 10-.524 0zm7.594 0h-2a2.262 2.262 0 114.523 0h-2a.261.261 0 10-.523 0zm-.438 3.867l1.415 1.414A6.363 6.363 0 0116 23.409a6.363 6.363 0 01-4.512-1.866l1.414-1.414A4.364 4.364 0 0016 21.409a4.363 4.363 0 003.097-1.28z"/></g></symbol><symbol viewBox="0 0 32 16" id="arrow_large_left" xmlns="http://www.w3.org/2000/svg"><g fill="currentColor"><path d="M32 7H3v2h29z"/><path d="M9.278 2.35L7.864.936.793 8.006l7.071 7.072 1.414-1.414-5.657-5.657z"/></g></symbol><symbol viewBox="0 0 32 16" id="arrow_large_right" xmlns="http://www.w3.org/2000/svg"><g fill="currentColor"><path d="M0 9h29V7H0z"/><path d="M22.743 13.664l1.414 1.414 7.07-7.071-7.07-7.071-1.414 1.414 5.656 5.657z"/></g></symbol><symbol viewBox="0 0 21 12" id="arrow_small_left" xmlns="http://www.w3.org/2000/svg"><g fill="currentColor"><path d="M21 5H3v2h18z"/><path d="M7.279 1.76L5.865.346.208 6.003l5.657 5.657 1.414-1.415-4.243-4.242z"/></g></symbol><symbol viewBox="0 0 21 12" id="arrow_small_right" xmlns="http://www.w3.org/2000/svg"><g fill="currentColor"><path d="M0 7h18V5H0z"/><path d="M13.728 10.245l1.415 1.415L20.8 6.003 15.143.346 13.728 1.76l4.243 4.243z"/></g></symbol><symbol viewBox="0 0 28 16" id="arrow_standard_left" xmlns="http://www.w3.org/2000/svg"><g fill="currentColor"><path d="M28 7H3v2h25z"/><path d="M9.028 2.7L7.614 1.286.896 8.003l6.718 6.718 1.414-1.414-5.303-5.304z"/></g></symbol><symbol viewBox="0 0 28 16" id="arrow_standard_right" xmlns="http://www.w3.org/2000/svg"><g fill="currentColor"><path d="M0 9h25V7H0z"/><path d="M18.99 13.307l1.413 1.414 6.718-6.718-6.718-6.717L18.99 2.7l5.303 5.303z"/></g></symbol><symbol viewBox="0 0 32 32" id="bank-32" xmlns="http://www.w3.org/2000/svg"><path d="M2 27v-2h28v2zm2-3v-2h24v2zm23-3h-2V10h2zm-5 0h-2V10h2zm-5 0h-2V10h2zm-5 0h-2V10h2zm-5 0H5V10h2zm9-15.899L7.553 9H3V7h4.114L16 2.899 24.886 7H29v2h-4.553z" fill="currentColor"/></symbol><symbol viewBox="0 0 26 26" id="calendar-26" xmlns="http://www.w3.org/2000/svg"><path d="M20.2 22H5.244C4.574 22 4 21.44 4 20.767V12h18v8.767c0 .717-.556 1.233-1.227 1.233M5.176 5H8v2h2V5h6v2h2V5h2.793C21.47 5.025 22 5.57 22 6.24V10H4V6.24c0-.67.53-1.215 1.176-1.24M18 3V1h-2v2h-6V1H8v2H4.999C3.318 3.064 2 4.487 2 6.24V21c0 1.827 1.3 3 3 3h15.97c1.7 0 3.031-1.173 3.031-3V6.24C24 4.487 22.682 3.064 20.97 3H18z" fill="currentColor" fill-rule="evenodd"/></symbol><symbol viewBox="0 0 32 32" id="card_payment-32" xmlns="http://www.w3.org/2000/svg"><g fill="currentColor"><path d="M5 22V9c0-.448.552-1 1-1h20c.448 0 1 .552 1 1v13c0 .448-.552 1-1 1H6c-.448 0-1-.552-1-1zm21 3c1.552 0 3-1.448 3-3V9c0-1.552-1.448-3-3-3H6C4.448 6 3 7.448 3 9v13c0 1.552 1.448 3 3 3h20z"/><path d="M5 10v2h22v-2zm8 7v-2H7v2z"/></g></symbol><symbol viewBox="0 0 32 32" id="contact-32" xmlns="http://www.w3.org/2000/svg"><g fill="currentColor" fill-rule="evenodd"><path d="M10 7.319C10 6.628 10.625 6 11.308 6h9.384C21.375 6 22 6.628 22 7.319V24.68c0 .691-.624 1.319-1.308 1.319h-9.384A1.31 1.31 0 0110 24.681V7.32zM11.308 28h9.384C22.482 28 24 26.474 24 24.681V7.32C24 5.525 22.482 4 20.692 4h-9.384C9.518 4 8 5.525 8 7.319V24.68A3.31 3.31 0 0011.308 28z" fill-rule="nonzero"/><path fill-rule="nonzero" d="M23 11V9H9v2zm0 10v-2H9v2z"/><path d="M16 22a1.5 1.5 0 110 3 1.5 1.5 0 010-3"/></g></symbol><symbol viewBox="0 0 32 32" id="digital_services-32" xmlns="http://www.w3.org/2000/svg"><g fill="currentColor" fill-rule="evenodd"><path d="M19 17H5.5a.507.507 0 01-.5-.5v-10c0-.271.229-.5.5-.5h15c.271 0 .5.229.5.5V14h2V6.5C23 5.122 21.878 4 20.5 4h-15A2.503 2.503 0 003 6.5v10C3 17.878 4.122 19 5.5 19H12v1H9v2h8v-2h-3v-1h5v-2z"/><path d="M20 16.319c0-.691.625-1.319 1.308-1.319h4.384c.683 0 1.308.628 1.308 1.319v8.362c0 .691-.624 1.319-1.308 1.319h-4.384A1.31 1.31 0 0120 24.681V16.32zM21.308 28h4.384C27.482 28 29 26.474 29 24.681V16.32c0-1.795-1.518-3.32-3.308-3.32h-4.384C19.518 13 18 14.525 18 16.319v8.362A3.31 3.31 0 0021.308 28z" fill-rule="nonzero"/><path d="M25 23.499a1.5 1.5 0 11-3 .001 1.5 1.5 0 013-.001z" fill-rule="nonzero"/></g></symbol><symbol viewBox="0 0 32 32" id="economy-32" xmlns="http://www.w3.org/2000/svg"><g fill="currentColor"><path d="M25.791 3.46l-13.72 2.667.382 1.964 11.836-2.263.984 4.35 1.95-.444z"/><path d="M6.336 16.135l1.987-8.796L26.214 11l-1.91 8.786s-8.45-1.908-9.459-2.112l-.396 1.96c.99.2 11.342 2.55 11.342 2.55l2.79-12.71-21.79-4.492-2.873 12.674 5.268 1.141.423-1.954-3.273-.708zM18.5 25a3.25 3.25 0 10-6.5 0 3.25 3.25 0 006.5 0zM14 25a1.25 1.25 0 112.5 0 1.25 1.25 0 01-2.5 0z"/><path d="M15.5 17.25a3.75 3.75 0 10-7.5 0 3.75 3.75 0 007.5 0zm-5.5 0a1.75 1.75 0 113.5 0 1.75 1.75 0 01-3.5 0z"/></g></symbol><symbol viewBox="0 0 56 56" id="facebook-56" xmlns="http://www.w3.org/2000/svg"><g fill="currentColor" fill-rule="evenodd"><path d="M0 56h56V0H0v56zm2.887-2.887h50.226V2.887H2.887v50.226z"/><path d="M25.242 41.803V28.736h-4.397v-5.093h4.397v-3.756c0-4.358 2.662-6.73 6.55-6.73 1.862 0 3.463.137 3.93.2v4.554l-2.697.001c-2.115 0-2.524 1.005-2.524 2.48v3.251h5.043l-.657 5.093h-4.386v13.067h-5.259z"/></g></symbol><symbol viewBox="0 0 32 32" id="finance-32" xmlns="http://www.w3.org/2000/svg"><path d="M6.25 25A1.252 1.252 0 015 23.75V15h8v3h6v-3h8v8.75c0 .688-.562 1.25-1.25 1.25H6.25zM15 16h2v-1h-2v1zm10.75-6c.688 0 1.25.56 1.25 1.249v1.75H5v-1.75c0-.688.56-1.25 1.25-1.25h19.5zM12 8h8V6h-8v2zm10 0V4H10v4H6.25A3.253 3.253 0 003 11.249V23.75A3.254 3.254 0 006.25 27h19.5A3.254 3.254 0 0029 23.75V11.249a3.254 3.254 0 00-3.25-3.25H22z" fill="currentColor" fill-rule="evenodd"/></symbol><symbol viewBox="0 0 32 32" id="forms-32" xmlns="http://www.w3.org/2000/svg"><g fill="currentColor" fill-rule="evenodd"><path d="M7 4v24h18l-.007-18.914L19.915 4H7zm2 2h10.085l3.908 3.915L23 26H9V6z"/><path d="M12 13h8v-2h-8zm0 4h8v-2h-8zm0 4h8v-2h-8z"/></g></symbol><symbol viewBox="0 0 56 56" id="instagram-56" xmlns="http://www.w3.org/2000/svg"><g fill="currentColor" fill-rule="evenodd"><path d="M0 56h56V0H0v56zm2.887-2.887h50.226V2.887H2.887v50.226z"/><path d="M23.33 27.995a4.665 4.665 0 109.33.002 4.665 4.665 0 00-9.33-.002z"/><path d="M33.75 20.501a1.75 1.75 0 113.5-.001 1.75 1.75 0 01-3.5.001zM20.81 28c0-3.97 3.22-7.19 7.19-7.19A7.19 7.19 0 1120.81 28zm20.454-9.17a6.842 6.842 0 00-1.614-2.48 6.86 6.86 0 00-2.48-1.615c-.89-.346-1.908-.583-3.398-.65-1.493-.069-1.97-.085-5.773-.085-3.801 0-4.278.016-5.771.084-1.49.068-2.508.305-3.399.65a6.86 6.86 0 00-2.48 1.616 6.856 6.856 0 00-1.614 2.48c-.346.89-.583 1.907-.651 3.398C14.016 23.721 14 24.198 14 28c0 3.802.016 4.278.084 5.772.068 1.49.305 2.508.65 3.399.36.92.837 1.7 1.616 2.48a6.87 6.87 0 002.48 1.613c.89.347 1.908.583 3.398.651 1.493.068 1.97.084 5.771.084 3.803 0 4.28-.016 5.773-.084 1.49-.068 2.508-.304 3.398-.65a6.87 6.87 0 002.48-1.615 6.857 6.857 0 001.614-2.48c.346-.89.584-1.908.652-3.398.068-1.494.084-1.97.084-5.772 0-3.802-.016-4.279-.084-5.772-.068-1.49-.306-2.508-.652-3.398z"/></g></symbol><symbol viewBox="0 0 32 32" id="insurance-32" xmlns="http://www.w3.org/2000/svg"><g fill="currentColor" fill-rule="evenodd"><path d="M21.077 13.077c-1.853 0-3.752.855-5.068 2.216-1.305-1.39-3.134-2.216-5.027-2.216-1.364 0-2.598.313-3.632.9C8.407 10.686 11.703 8 15.154 8h1.693c3.356 0 6.662 2.687 7.767 5.91-.998-.547-2.191-.833-3.537-.833M16.847 6h-1.693C9.707 6 5 11.077 5 16.154v1.292h1.693c.869-1.71 2.543-2.369 4.289-2.369 1.746 0 3.299.97 4.172 2.37h1.693c.873-1.4 2.634-2.37 4.23-2.37 1.896 0 3.42.681 4.23 2.37H27v-1.293C27 11.077 22.24 6 16.847 6"/><path fill-rule="nonzero" d="M15 16v9h2v-9zm2-9V4h-2v3zm-7 18h2a1.5 1.5 0 003 0h2a3.5 3.5 0 01-7 0z"/></g></symbol><symbol viewBox="0 0 32 32" id="insurance_animal-32" xmlns="http://www.w3.org/2000/svg"><g fill="currentColor"><path d="M17.308 23.281l-.458 1.947c-1.88-.442-3.24-2.102-3.24-4.06A4.17 4.17 0 0117.779 17c.876 0 1.731.29 2.46.795l-1.137 1.645a2.353 2.353 0 00-1.323-.44 2.17 2.17 0 00-2.169 2.169c0 1.015.708 1.88 1.698 2.112zM12.97 27v2H7v-3.7c0-1.302.937-2.3 2.192-2.3H13v2H9.192c-.121 0-.192.076-.192.3V27h3.97zM7.156 7.016l-.134.685a2.82 2.82 0 00.396 1.808c.806 1.42 2.622 1.898 4.074 1.074l.987 1.74c-2.404 1.363-5.444.563-6.788-1.805a4.83 4.83 0 01-.642-3.14l.459-2.362H8.98a6.752 6.752 0 015.025-2.227c3.541 0 6.687 2.744 6.995 6.281v1.092c0 1.588-1.485 2.864-3.084 2.864-1.59 0-2.916-1.277-2.916-2.864V9h2v1.162c0 .465.414.864.916.864.556 0 1.084-.453 1.084-.864v-.363l.004-.64c-.211-2.397-2.474-4.37-4.999-4.37-1.5 0-2.884.692-3.765 1.836l-.3.39H7.156z"/><path d="M10 14h2v10.91h-2zm17.332 4.719h2a5.619 5.619 0 01-5.608 5.609v-2a3.619 3.619 0 003.608-3.61z"/><path d="M22.723 23.327c0-4.088-1.945-7.9-5.164-10.357l1.213-1.59c3.708 2.829 5.951 7.226 5.951 11.947 0 1.774-.278 3.453-.834 5.01l-.237.663H12.866v-2h9.355c.334-1.149.502-2.376.502-3.673z"/></g></symbol><symbol viewBox="0 0 32 32" id="insurance_boat-32" xmlns="http://www.w3.org/2000/svg"><g fill="currentColor"><path d="M22.79 6.652c.246.16.438.346.583.56.057.085.103.168.146.256a4.396 4.396 0 01.087.197l1.826 4.698-1.864.724c-.71-1.827-.71-1.827-1.795-4.628l-.015-.03c-.06-.133-.024-.078-.056-.1-.475-.307-1.96-.54-4.84-.54h-1.716c-2.874.004-4.36.238-4.839.546-.035.023 0-.028-.056.093l-1.819 4.677-1.864-.725c.712-1.83.712-1.83 1.864-4.783.015-.034.037-.084.058-.127a1.95 1.95 0 01.148-.257c.146-.214.34-.4.587-.56.804-.517 2.305-.795 4.92-.853V4.425c0-1.047.815-1.925 1.858-1.925 1.044 0 1.86.878 1.86 1.925v1.373c2.621.054 4.125.333 4.927.854zM1.456 27.483l1.088-1.678a3.446 3.446 0 003.763.03 6.983 6.983 0 017.7-.028l-1.086 1.68c-1.705-1.104-3.816-1.096-5.529.03a5.452 5.452 0 01-5.936-.034zm11.443 0l1.088-1.678a3.446 3.446 0 003.764.03 6.983 6.983 0 017.7-.028l-1.087 1.68c-1.705-1.104-3.816-1.096-5.529.03a5.452 5.452 0 01-5.936-.034zm11.437 0l1.089-1.678a3.452 3.452 0 003.777.022l1.07 1.69a5.452 5.452 0 01-5.936-.034zM27.7 14.836c.347.573.396 1.292.114 1.949L24.27 24.18l-1.804-.864 3.526-7.356a.115.115 0 00-.006-.093l-.092-.006-9.898-1.352-9.837 1.344-.181.008c.02.026.018.068.015.063l3.524 7.364-1.805.863-3.539-7.398A2.112 2.112 0 014.3 14.83c.36-.593.983-.962 1.662-.969l10.034-1.37 10.108 1.38a1.932 1.932 0 011.596.965z"/><path d="M15 16h2v6.608h-2z"/></g></symbol><symbol viewBox="0 0 32 32" id="insurance_car-32" xmlns="http://www.w3.org/2000/svg"><g fill="currentColor"><path d="M7 16.5c0-.827.673-1.5 1.5-1.5s1.5.673 1.5 1.5S9.327 18 8.5 18 7 17.327 7 16.5zm15 0c0-.827.673-1.5 1.5-1.5s1.5.673 1.5 1.5-.673 1.5-1.5 1.5-1.5-.673-1.5-1.5zM9 11.027v2h14.658l-2.655-5.246-1.784.903 1.185 2.343z"/><path d="M29 14c0 .025-.333.033-.778.033C27.333 14.033 26 14 26 14l1.044 4L27 19h-6v2h6v2h-1v3h-2v-3H8v3H6v-3H5v-2h6v-2H5v-1l1-4s-1.333.033-2.222.033C3.333 14.033 3 14.025 3 14v-1c0-.968 4-1 4-1l2-3.531s.687-1.997 7-2c6.406 0 7 2 7 2L25 12s4 .032 4 1v1zm-4.336-6.531c-.57-.813-2.039-3-8.664-3-6.625.004-8.38 2.343-8.768 3l-1.315 2.55C3.75 10.089 1 10.661 1 13v1c0 .672.45 1.961 2.147 2.025.08.003.176.005.284.006l-.37 1.484-.06.239V23c0 .746.407 1.396 1.012 1.74L4 26a2 2 0 002 2h2a2 2 0 002-2v-1h12v1a2 2 0 002 2h2a2 2 0 002-2l.016-1.276A2 2 0 0029 23v-2c0-.04-.01-.078-.012-.118L29 19.013v-1.264l-.05-.254-.38-1.464c.107-.001.203-.003.283-.006C30.551 15.961 31 14.672 31 14v-1c0-2.339-2.684-2.91-4.917-2.981l-1.419-2.55z"/><path d="M13 21h6v-2h-6z"/></g></symbol><symbol viewBox="0 0 32 32" id="insurance_home-32" xmlns="http://www.w3.org/2000/svg"><g fill="currentColor"><path d="M29.392 16.265l1.216-1.588L16.004 3.74 1.393 14.676l1.214 1.59L16.004 6.258z"/><path d="M18.392 13.088l1.216-1.588L16 8.74l-3.607 2.76 1.214 1.589 2.394-1.83zM14 19h4v8h2V17h-8v10h2zm-9-6v14h2V13zm20 0v14h2V13z"/></g></symbol><symbol viewBox="0 0 32 32" id="insurance_truck-32" xmlns="http://www.w3.org/2000/svg"><g fill="currentColor"><path d="M12.911 24v-2h8v2zM20 10h-6.96V8H22v11H3v-4.647h2V17h15z"/><path d="M8.193 7.2l2.97-2.855.658 5.462-1.986.24-.178-1.48-1.277 1.23-1.475-1.059.144 1.914-1.691.588 1.114.733-1.099 1.671-4.502-2.959L4.94 9.268l-.348-4.653zM23 14v-2h3.897L30 18.624V23h-4.452v-2H28v-1.93L25.625 14zM7.439 21v2H5.312l-.955-4.16 1.95-.448L6.904 21z"/><path d="M21.75 23.5a1.75 1.75 0 103.5 0 1.75 1.75 0 00-3.5 0zm-1.75 0a3.5 3.5 0 117 0 3.5 3.5 0 01-7 0zm-11.75 0a1.75 1.75 0 103.5 0 1.75 1.75 0 00-3.5 0zm-1.75 0a3.5 3.5 0 117 0 3.5 3.5 0 01-7 0z"/></g></symbol><symbol viewBox="0 0 32 32" id="insurance_vehicle-32" xmlns="http://www.w3.org/2000/svg"><g fill="currentColor"><path d="M5 21a5 5 0 1110 0 5 5 0 01-10 0zm2 0a3 3 0 106 0 3 3 0 00-6 0z"/><path d="M17.938 20h4.067v2H16v-1a6 6 0 00-10.654-3.787 6.375 6.375 0 00-1.153 2.123l-1.91-.593a8.372 8.372 0 011.513-2.794A8.002 8.002 0 0117.938 20z"/><path d="M21 22a4 4 0 118 0 4 4 0 01-8 0zm2 0a2 2 0 104 0 2 2 0 00-4 0z"/><path d="M20.072 13H27v6.798h-2V15h-6.222l-3.146-7H7v7.703H5V6h11.926z"/><path d="M20.3 7V5a2.702 2.702 0 012.701 2.701v7.173h-2V7.7A.702.702 0 0020.3 7zM10 7.64h2V12h-2z"/></g></symbol><symbol viewBox="0 0 32 32" id="investment-32" xmlns="http://www.w3.org/2000/svg"><g fill="currentColor" fill-rule="evenodd"><path d="M21.017 6v2h3.586l-7.586 7.586-4-4.001-8.707 8.708 1.414 1.414 7.293-7.293 4 4 9-9V13h2V6zM7 23l2-2v5H7z"/><path d="M11 19l2-2v9h-2zm4 0l2 2v5h-2zm4 0l2-2v9h-2zm4-4l2-2v13h-2z"/></g></symbol><symbol viewBox="0 0 26 26" id="kontakta_oss-26" xmlns="http://www.w3.org/2000/svg"><g fill="currentColor"><path d="M13.018 24.982c-1.633 0-2.951-1.338-2.951-2.983 0-1.646 1.318-2.984 2.95-2.984 1.633 0 2.952 1.338 2.952 2.984 0 1.645-1.319 2.983-2.951 2.983zm0-1.5c.8 0 1.451-.662 1.451-1.483 0-.822-.652-1.484-1.451-1.484-.8 0-1.451.662-1.451 1.484 0 .821.652 1.483 1.45 1.483zm0-21.049c2.953 0 5.717 1.321 7.616 3.559l-1.143.97c-1.619-1.907-3.967-3.03-6.473-3.03-3.525 0-6.651 2.197-7.919 5.428l-.123.434a8.694 8.694 0 00-.454 2.825 8.99 8.99 0 00.711 3.504l.44 1.042H4.377C1.98 17.165.05 15.208.05 12.786c0-2.247 1.66-4.094 3.816-4.35 1.613-3.619 5.163-6.003 9.152-6.003zM1.55 12.786c0 1.257.78 2.318 1.875 2.713a10.472 10.472 0 01-.403-2.88c0-.864.102-1.72.295-2.505a2.871 2.871 0 00-1.767 2.672z"/><path d="M20.937 9.36l1.443-.406.097.347c.354 1.019.537 2.161.537 3.318 0 3.784-2.076 7.255-5.289 8.977a9.24 9.24 0 01-2.456.912l-.319-1.466a7.751 7.751 0 002.061-.765c2.73-1.464 4.503-4.426 4.503-7.658 0-.993-.156-1.969-.467-2.868l-.11-.39z"/><path d="M8.881 6.28l1.449-.389c.012.045.056.162.143.326.153.291.368.586.657.864.855.823 2.154 1.326 4.034 1.326h6.495v1.5h-6.495c-2.26 0-3.934-.648-5.074-1.745-.707-.68-1.073-1.375-1.209-1.881zm6.739 8.715l1.07 1.053a5.217 5.217 0 01-3.727 1.564c-1.39 0-2.727-.55-3.726-1.564l1.068-1.053a3.717 3.717 0 002.658 1.117c.991 0 1.943-.391 2.658-1.117z"/><path d="M21.659 9.907v-1.5c2.397 0 4.327 1.957 4.327 4.379 0 2.422-1.93 4.38-4.327 4.38v-1.5c1.564 0 2.827-1.282 2.827-2.88 0-1.598-1.263-2.88-2.827-2.88z"/></g></symbol><symbol viewBox="0 0 56 56" id="linkedin-56" xmlns="http://www.w3.org/2000/svg"><g fill="currentColor" fill-rule="evenodd"><path d="M0 56h56V0H0v56zm2.887-2.887h50.226V2.887H2.887v50.226z"/><path d="M18.799 15.43a2.888 2.888 0 00-2.888 2.889 2.888 2.888 0 105.777 0 2.891 2.891 0 00-2.89-2.89zm5.619 7.971v16.035H29.4v-7.932c0-2.092.396-4.117 2.989-4.117 2.554 0 2.59 2.391 2.59 4.251v7.798h4.979v-8.795c0-4.319-.932-7.64-5.975-7.64-2.424 0-4.05 1.33-4.716 2.591h-.068v-2.19h-4.781zm-8.112 16.035h4.986V23.401h-4.986z"/></g></symbol><symbol viewBox="0 0 32 32" id="loan-32" xmlns="http://www.w3.org/2000/svg"><g fill="currentColor"><path d="M26.125 13.521L23.753 2.725 4.918 6.893l2.457 10.794 8.23-1.962-.425-1.954-6.269 1.559-1.594-6.903L22.215 5.13l1.577 6.836-3.266.685.41 1.957z"/><path d="M22.5 14.25a3.75 3.75 0 10-7.5 0 3.75 3.75 0 007.5 0zm-5.5 0a1.75 1.75 0 113.5 0 1.75 1.75 0 01-3.5 0zm10.5 6a3.25 3.25 0 10-6.5 0 3.25 3.25 0 006.5 0zm-4.5 0a1.25 1.25 0 112.5 0 1.25 1.25 0 01-2.5 0zm-3 2.938l-7-5.456-7 5.456V29h2v-4.73l5-3.997 5 3.997V29h2z"/><path d="M12 29h2v-4h-2z"/></g></symbol><symbol viewBox="0 0 84 50" id="multicolor-adult_children-50" xmlns="http://www.w3.org/2000/svg"><g stroke-width="2" fill="none" fill-rule="evenodd"><path d="M35.413 43.47v6.993M20.5 43.736v6.727M25.04 3.64s.743 2.786 5.11 2.786h5.985l.127.333c.302.875.466 1.815.466 2.793a8.552 8.552 0 11-2.067-5.576" stroke="#005AA0"/><path d="M31.097 13.166a4.119 4.119 0 01-2.92 1.208 4.112 4.112 0 01-2.92-1.208m-3.483 11.836v16.84a2.387 2.387 0 01-4.774 0V25.33c0-4.26 3.3-7.75 7.484-8.05h.297m9.799 7.722v16.84a2.387 2.387 0 104.773 0V25.33a8.072 8.072 0 00-7.484-8.05h-.297m-1.785 33.183v-3.16m-3.221 3.16V45.81a2.238 2.238 0 012.238-2.238M66.509 51l-2.035-7.623m-18.255 0L44.186 51m8.029-47.064s.741 2.781 5.103 2.781h5.977l.126.333a8.54 8.54 0 11-1.599-2.779" stroke="#005AA0"/><path d="M58.264 13.449a4.113 4.113 0 01-2.917 1.206 4.112 4.112 0 01-2.917-1.206m-3.611 11.627V41.42a2.316 2.316 0 01-4.634 0V25.394a7.835 7.835 0 017.264-7.814h.288m10.138 7.496V41.42a2.316 2.316 0 004.634 0V25.394a7.835 7.835 0 00-7.265-7.814h-.288" stroke="#005AA0"/><path d="M28.95 27.686h-4.517M56.53 47.037h5.397" stroke="#E30613"/></g></symbol><symbol viewBox="0 0 84 50" id="multicolor-alone-50" xmlns="http://www.w3.org/2000/svg"><g stroke-width="2" fill="none" fill-rule="evenodd"><path d="M34.745 17.794s1.335 5.01 9.194 5.01h10.769l.227.6c.544 1.576.84 3.266.84 5.026 0 8.498-6.89 15.386-15.387 15.386C31.89 43.816 25 36.928 25 28.43s6.89-15.388 15.388-15.388c4.665 0 8.846 2.076 11.668 5.356m-18.745 9.53a1.765 1.765 0 013.53 0m7.092 0a1.765 1.765 0 013.53 0m1.193-18.183l.217-4.7" stroke="#005AA0"/><path d="M54.308 11.82l2.674-3.87" stroke="#E30613"/><path d="M58.003 16.573l4.318-1.865M45.71 35.194a7.503 7.503 0 01-5.323 2.2 7.502 7.502 0 01-5.322-2.2" stroke="#005AA0"/></g></symbol><symbol viewBox="0 0 84 50" id="multicolor-apart-50" xmlns="http://www.w3.org/2000/svg"><defs><path id="bga" d="M17 24v7h-7v-7z"/><path id="bgb" d="M17 24v7h-7v-7z"/></defs><g fill="none" fill-rule="evenodd"><g fill-rule="nonzero" stroke="#E30613" stroke-width="2"><path d="M45 8.795l.905-.822a3.77 3.77 0 015.069 0h0a3.108 3.108 0 010 4.603L45 18l-5.974-5.424a3.108 3.108 0 010-4.603h0a3.77 3.77 0 015.07 0l.904.822z"/><path d="M38.33 10.838L36 13l-5.964-5.429c-1.345-1.225-1.386-3.25-.09-4.521l.09-.086c1.413-1.285 3.648-1.285 5.06 0l.904.823.903-.823c1.413-1.285 3.648-1.285 5.06 0 .977.89 1.266 2.2.856 3.338"/></g><path d="M0 10h40v40H0z"/><path d="M5 48V25m30 0v23m-14-2V34h10v12" stroke="#005AA0" stroke-width="2"/><path stroke="#0059A0" stroke-width="2" d="M26 24l-6-5-6 5"/><path stroke="#005AA0" stroke-width="2" d="M38 28L20 13 2 28m16 19h20M2 47h11"/><g transform="translate(0 10)"><use stroke="#979797" xlink:href="#bga"/><use stroke="#005AA0" stroke-width="2" xlink:href="#bga"/></g><path d="M44 10h40v40H44z"/><path d="M49 48V25m30 0v23m-14-2V34h10v12" stroke="#005AA0" stroke-width="2"/><path stroke="#0059A0" stroke-width="2" d="M70 24l-6-5-6 5"/><path stroke="#005AA0" stroke-width="2" d="M82 28L64 13 46 28m16 19h20m-36 0h11"/><g transform="translate(44 10)"><use stroke="#979797" xlink:href="#bgb"/><use stroke="#005AA0" stroke-width="2" xlink:href="#bgb"/></g></g></symbol><symbol viewBox="0 0 48 48" id="multicolor-bike-48" xmlns="http://www.w3.org/2000/svg"><g fill="none"><path d="M12.5 35.956a7.5 7.5 0 110-15 7.5 7.5 0 010 15zm0-2a5.5 5.5 0 100-11 5.5 5.5 0 000 11zm23 2a7.5 7.5 0 110-15 7.5 7.5 0 010 15zm0-2a5.5 5.5 0 100-11 5.5 5.5 0 000 11z" fill="#005C9C"/><path d="M25.203 28.676a1.095 1.095 0 01-.586-.298l-9.157-8.942 1.398-1.431 8.198 8.006 2.551-6.29h-7.595v-2h9.578l8.49 11.218-2.045-.027a17857.294 17857.294 0 01-10.117-.136l-.437-.007-.094-.002c-.045-.002-.045-.002-.182-.02l-.002-.07zM26.9 26.79l.988.013 6.129.082-4.66-6.157A6772.87 6772.87 0 0126.9 26.79z" fill="#005C9C"/><path d="M27.5 16.456a1 1 0 010-2h4.506a1 1 0 010 2H27.5z" fill="#E30613"/><path fill="#005C9C" d="M18.736 15l-5.81 14.346-1.854-.75L17.388 13h4.976v2z"/></g></symbol><symbol viewBox="0 0 48 48" id="multicolor-car-48" xmlns="http://www.w3.org/2000/svg"><g fill="none" fill-rule="evenodd"><path d="M12 24.5c0 .826.674 1.5 1.5 1.5s1.5-.674 1.5-1.5-.674-1.5-1.5-1.5-1.5.674-1.5 1.5zm21 0c0 .826.674 1.5 1.5 1.5s1.5-.674 1.5-1.5-.674-1.5-1.5-1.5-1.5.674-1.5 1.5z" stroke="#005AA0" stroke-width="2"/><path fill="#005AA0" fill-rule="nonzero" d="M15 18.027v2h19.858l-3.555-5.556-1.684 1.078 1.585 2.478z"/><path d="M41 22c0 .025-.333.033-.778.033C39.333 22.033 38 22 38 22l1.044 4L39 29h-4v2h4v2h-1v3h-3v-3H13v3h-3v-3H9v-2h17v-2H9v-3l1-4s-1.333.033-2.222.033C7.333 22.033 7 22.025 7 22v-1c0-.968 4-1 4-1l4-6s1-1.995 9-2c8.02 0 9 2 9 2l4 6s4 .032 4 1v1zm-6.336-9c-.81-1.208-2.997-3-10.664-3-6.625.004-9.875 1.688-10.768 3a538.732 538.732 0 00-3.315 5.019C7.75 18.089 5 18.661 5 21v1c0 .672.45 1.961 2.147 2.025.08.003.176.005.284.006l-.37 1.484-.06.239V33c0 .755.381 1.412.999 1.753V36a2 2 0 002 2h3a2 2 0 002-2v-1h18v1a2 2 0 002 2h3a2 2 0 002-2v-1.285c.582-.35 1-.986 1-1.715v-2c0-.04-.01-.078-.012-.118L41 29.013v-3.264l-.05-.254-.38-1.464c.107-.001.203-.003.283-.006C42.551 23.961 43 22.672 43 22v-1c0-2.339-2.684-2.91-4.917-2.981L34.664 13z" fill="#005AA0"/><path fill="#E30613" fill-rule="nonzero" d="M28 31h5v-2h-5z"/></g></symbol><symbol viewBox="0 0 48 48" id="multicolor-car-damaged-48" xmlns="http://www.w3.org/2000/svg"><g fill="none"><path fill="#E30613" d="M36.36 19.833h-23.1v-1.666h21.93z"/><path fill="#E30613" d="M30.654 12.722l-4.546-.17-.53-.749-1.345.97 1.003 1.414 3.062.115-1.2 3.214 5.276-.614 1.716 2.577 1.371-.93-2.276-3.419-3.586.418z"/><path d="M13.674 24a1.243 1.243 0 000 2.488 1.243 1.243 0 000-2.488m0 4.155c-1.594 0-2.891-1.306-2.891-2.911s1.297-2.91 2.89-2.91a2.904 2.904 0 012.892 2.91c0 1.605-1.297 2.91-2.891 2.91m21.891-2.904a1.243 1.243 0 01-1.239 1.238 1.243 1.243 0 010-2.488v-1.667c-1.594 0-2.891 1.306-2.891 2.911s1.297 2.911 2.891 2.911c1.592 0 2.888-1.302 2.89-2.905h-1.651z" fill="#005AA0"/><path d="M41.348 20.667c0 .02-.275.027-.643.027-.734 0-1.835-.027-1.835-.027L39.732 24l-.036 5.833V34h-.826v3.333h-3.305V34h-23.13v3.333H9.13V34h-.827v-2.5h19v-1.667h-19V24l.827-3.333s-1.102.027-1.836.027c-.368 0-.643-.006-.643-.027V19c0-.807 4.13-.833 4.13-.833l3.305-5s.804-2.495 9.5-2.5c8.699 0 10.326 2.5 10.326 2.5l3.304 5s4.13.026 4.13.833v1.667zm-6.06-8.425C34.94 11.71 32.716 9 23.614 9c-8.267.005-10.425 2.175-10.987 3.373l-2.739 4.143C7.25 16.6 5 17.05 5 19v1.667c0 .56.371 1.634 1.774 1.687.066.003.145.004.234.005l-.306 1.237-.05.199V34c0 .617.333 1.156.827 1.444v1.89c0 .92.739 1.666 1.652 1.666h3.304c.913 0 1.652-.746 1.652-1.667v-1.666h19.826v1.666c0 .921.74 1.667 1.652 1.667h3.305a1.66 1.66 0 001.652-1.667l-.002-1.888c.495-.288.828-.827.828-1.445v-2.5c0-.033-.008-.065-.01-.098l.01-1.558v-6.053l-.041-.212-.315-1.22c.09 0 .168-.002.234-.005C42.63 22.301 43 21.227 43 20.667V19c0-1.95-2.25-2.4-4.888-2.484l-2.824-4.273z" fill="#005AA0"/><path fill="#E30613" d="M37.361 33.196l1.155-1.192-2.201-2.17H29.37V31.5h6.272z"/></g></symbol><symbol viewBox="0 0 64 64" id="multicolor-chat-heart-64" xmlns="http://www.w3.org/2000/svg"><g fill="none" fill-rule="evenodd"><path d="M26.127 25.015c-.809 0-1.618.3-2.22.902a3.115 3.115 0 00-.907 2.22c0 .848.322 1.636.907 2.22L30 36.452l6.093-6.093a3.112 3.112 0 00.907-2.22c0-.847-.322-1.636-.907-2.221-1.204-1.204-3.238-1.203-4.441 0L30 27.572l-1.652-1.654a3.135 3.135 0 00-2.221-.902zM30 39.279l-7.507-7.507A5.097 5.097 0 0121 28.138a5.1 5.1 0 011.493-3.635 5.147 5.147 0 017.269 0l.238.239.238-.24a5.146 5.146 0 017.269 0A5.1 5.1 0 0139 28.139c0 1.38-.53 2.672-1.493 3.634L30 39.279z" fill="#E30613"/><path d="M38.222 15H21.86C12.45 15 5.043 21.637 5 30.125c.043 8.615 6.754 14.913 16 14.913h5.997L38 55.954V43.019h-2v8.072l-8-8.072h-7c-7.337 0-13.964-6.09-14-12.894.036-6.707 6.32-13.252 15-13.125h16.313C42.1 17 46.258 18.54 49 21.217c2.742 2.677 4.057 5.794 4 8.93.059 3.101-1.733 7.007-4.006 9.183-2.353 2.254-4.63 3.689-8.037 3.689L41 45.038c4.359 0 6.521-1.462 9.542-4.353 2.948-2.826 4.53-6.589 4.455-10.538.074-3.942-1.483-7.643-4.385-10.422C47.475 16.722 42.959 15 38.222 15z" fill="#005AA0"/><path d="M44.424 8.466l.576 4.64m5 2.384L53.593 11M59 16l-4 2.698" stroke="#005AA0" stroke-width="2"/></g></symbol><symbol viewBox="0 0 48 48" id="multicolor-dog-left-48" xmlns="http://www.w3.org/2000/svg"><g transform="translate(4 2)" fill="none" fill-rule="evenodd"><path d="M19.753 37.867c-3.454-.757-5.767-3.876-5.377-7.252.39-3.375 3.358-5.934 6.9-5.948a7.6 7.6 0 014.168 1.3" stroke="#E30613" stroke-width="2"/><path d="M10 40H5s-1 0-1.217.23C3.567 40.46 3 41 3 41.978V44h9m-.63-31.694a7.151 7.151 0 01-5.233.672c-1.768-.451-3.276-1.558-4.19-3.076a6.088 6.088 0 01-.897-4.035" stroke="#005AA0" stroke-width="2"/><ellipse stroke="#005AA0" cx="1.241" cy="4.033" rx=".741" ry=".733"/><path d="M17.514 8.365v2.257c0 1.829 1.443 3.311 3.224 3.311 1.781 0 3.225-1.482 3.225-3.31V9.116c-.342-4.088-3.088-7.543-6.92-8.707C13.21-.754 9.453.761 7 4H3" stroke="#005AA0" stroke-width="2"/><path d="M8 16v22" stroke="#005AA0" stroke-width="2" fill="#000"/><path d="M41 28.6c-.013 4.45-3.653 8.054-8.148 8.067M16 40.004h-1.885a1.985 1.985 0 00-1.426.572c-.377.374-.586.696-.578 1.224V44h18.686C34.649 32.98 30.424 22.428 20 17" stroke="#005AA0" stroke-width="2"/></g></symbol><symbol viewBox="0 0 64 64" id="multicolor-dog-left-64" xmlns="http://www.w3.org/2000/svg"><g transform="translate(5 2)" stroke-width="2" fill="none" fill-rule="evenodd"><path d="M25.316 53c-4.662-1.032-7.784-5.285-7.258-9.888.526-4.603 4.533-8.093 9.315-8.112A10.19 10.19 0 0133 36.773" stroke="#E30613"/><path d="M13 54H5.625c-.7-.012-1.373.298-1.867.86-.495.56-.768 1.325-.758 2.118V60h12m-1-43.219a9.569 9.569 0 01-7.065.916c-2.387-.615-4.422-2.124-5.655-4.194A8.37 8.37 0 01.068 8" stroke="#005AA0"/><circle stroke="#005AA0" cx=".5" cy="5.5" r=".5"/><path d="M22.293 11.406v3.079c0 2.494 1.95 4.515 4.354 4.515S31 16.979 31 14.485v-2.052C30.538 6.858 26.83 2.147 21.658.559 16.485-1.028 10.903.833 7.59 5.25H3" stroke="#005AA0"/><path d="M11 22v30" stroke="#005AA0" fill="#000"/><path d="M54 39c-.017 6.068-4.932 10.983-11 11m-22.323 4.55h-2.972a2.67 2.67 0 00-1.924.78c-.51.51-.791.95-.78 1.67v3h25.224c5.202-15.026-1.354-30.599-15.426-38" stroke="#005AA0"/></g></symbol><symbol viewBox="0 0 48 48" id="multicolor-dog-right-48" xmlns="http://www.w3.org/2000/svg"><g transform="matrix(-1 0 0 1 45 2)" fill="none" fill-rule="evenodd"><path d="M19.753 37.867c-3.454-.757-5.767-3.876-5.377-7.252.39-3.375 3.358-5.934 6.9-5.948a7.6 7.6 0 014.168 1.3" stroke="#E30613" stroke-width="2"/><path d="M10 40H5s-1 0-1.217.23C3.567 40.46 3 41 3 41.978V44h9m-.63-31.694a7.151 7.151 0 01-5.233.672c-1.768-.451-3.276-1.558-4.19-3.076a6.088 6.088 0 01-.897-4.035" stroke="#005AA0" stroke-width="2"/><ellipse stroke="#005AA0" cx="1.241" cy="4.033" rx=".741" ry=".733"/><path d="M17.514 8.365v2.257c0 1.829 1.443 3.311 3.224 3.311 1.781 0 3.225-1.482 3.225-3.31V9.116c-.342-4.088-3.088-7.543-6.92-8.707C13.21-.754 9.453.761 7 4H3" stroke="#005AA0" stroke-width="2"/><path d="M8 16v22" stroke="#005AA0" stroke-width="2" fill="#000"/><path d="M41 28.6c-.013 4.45-3.653 8.054-8.148 8.067M16 40.004h-1.885a1.985 1.985 0 00-1.426.572c-.377.374-.586.696-.578 1.224V44h18.686C34.649 32.98 30.424 22.428 20 17" stroke="#005AA0" stroke-width="2"/></g></symbol><symbol viewBox="0 0 64 64" id="multicolor-dog-right-64" xmlns="http://www.w3.org/2000/svg"><g transform="matrix(-1 0 0 1 59 2)" stroke-width="2" fill="none" fill-rule="evenodd"><path d="M25.316 53c-4.662-1.032-7.784-5.285-7.258-9.888.526-4.603 4.533-8.093 9.315-8.112A10.19 10.19 0 0133 36.773" stroke="#E30613"/><path d="M13 54H5.625c-.7-.012-1.373.298-1.867.86-.495.56-.768 1.325-.758 2.118V60h12m-1-43.219a9.569 9.569 0 01-7.065.916c-2.387-.615-4.422-2.124-5.655-4.194A8.37 8.37 0 01.068 8" stroke="#005AA0"/><circle stroke="#005AA0" cx=".5" cy="5.5" r=".5"/><path d="M22.293 11.406v3.079c0 2.494 1.95 4.515 4.354 4.515S31 16.979 31 14.485v-2.052C30.538 6.858 26.83 2.147 21.658.559 16.485-1.028 10.903.833 7.59 5.25H3" stroke="#005AA0"/><path d="M11 22v30" stroke="#005AA0" fill="#000"/><path d="M54 39c-.017 6.068-4.932 10.983-11 11m-22.323 4.55h-2.972a2.67 2.67 0 00-1.924.78c-.51.51-.791.95-.78 1.67v3h25.224c5.202-15.026-1.354-30.599-15.426-38" stroke="#005AA0"/></g></symbol><symbol viewBox="0 0 64 64" id="multicolor-happy-accepted-64" xmlns="http://www.w3.org/2000/svg"><defs><path id="bpa" d="M34.503.25h-3.33v6.907h3.33z"/></defs><g transform="translate(8 1)" fill="none" fill-rule="evenodd"><path d="M23 54.985c-12.682 0-23-10.317-23-23s10.318-23 23-23c6.694 0 13.07 2.927 17.493 8.03l-1.512 1.31c-4.042-4.665-9.867-7.34-15.981-7.34-11.58 0-21 9.421-21 21 0 11.58 9.42 21 21 21s21-9.42 21-21c0-2.337-.372-4.639-1.106-6.84l-.06-.16H28.158c-11.896 0-14.039-7.579-14.125-7.9l1.932-.519c.073.262 1.906 6.42 12.193 6.42h16.061l.56 1.491A23.634 23.634 0 0146 31.985c0 12.683-10.318 23-23 23" fill="#005AA0" fill-rule="nonzero"/><path d="M19.275 31.388h-2c0-.833-.73-1.563-1.56-1.563-.83 0-1.557.73-1.557 1.563h-2c0-1.932 1.63-3.563 3.558-3.563 1.93 0 3.559 1.63 3.559 3.563m14.855 0h-2c0-.833-.73-1.563-1.56-1.563-.83 0-1.558.73-1.558 1.563h-2c0-1.932 1.63-3.563 3.558-3.563 1.93 0 3.56 1.63 3.56 3.563M23.804 44.934c-3.155 0-6.132-1.242-8.383-3.497l1.415-1.412c1.874 1.876 4.348 2.909 6.968 2.909s5.095-1.033 6.968-2.91l1.415 1.413c-2.25 2.255-5.228 3.497-8.383 3.497" fill="#005AA0" fill-rule="nonzero"/><path fill="#E30613" fill-rule="nonzero" d="M41.291 11.05l-1.6-1.201 3.99-5.312 1.6 1.2zm4.774 7.142l-.94-1.767 5.857-3.115.939 1.766z"/><mask id="bpb" fill="#fff"><use xlink:href="#bpa"/></mask><path fill="#E30613" fill-rule="nonzero" mask="url(#bpb)" d="M33.13 7.157l-1.958-.414L32.546.25l1.957.414z"/></g></symbol><symbol viewBox="0 0 48 48" id="multicolor-house-48" xmlns="http://www.w3.org/2000/svg"><g fill="none"><path fill="#005AA0" d="M24.005 10.259l17.387 13.3 1.216-1.588L24.005 7.74 5.393 21.971l1.214 1.588z"/><path fill="#E30613" d="M24 15.259l2.992 2.288 1.216-1.588L24 12.74l-4.208 3.218 1.214 1.588z"/><path fill="#005AA0" d="M31 25v11h2V23h-8v13h2V25zm-10 4v-4h-4v4h4zm-6-6h8v8h-8v-8zm-5-4v18h2V19zm26 0v18h2V19z"/><path fill="#005AA0" d="M5 38h12v-2H5zm17 0h21v-2H22z"/></g></symbol><symbol viewBox="0 0 84 50" id="multicolor-married-50" xmlns="http://www.w3.org/2000/svg"><defs><path id="bra" d="M17 24v7h-7v-7z"/></defs><g fill="none" fill-rule="evenodd"><path d="M0 0h84v50H0z"/><path d="M21 10h40v40H21z"/><path d="M26 48V25m30 0v23m-14-2V34h10v12" stroke="#005AA0" stroke-width="2"/><path stroke="#0059A0" stroke-width="2" d="M47 24l-6-5-6 5"/><path stroke="#005AA0" stroke-width="2" d="M59 28L41 13 23 28m16 19h20m-36 0h11"/><g transform="translate(21 10)"><use stroke="#979797" xlink:href="#bra"/><use stroke="#005AA0" stroke-width="2" xlink:href="#bra"/></g><g fill-rule="nonzero" stroke="#E30613" stroke-width="2"><path d="M70 8.795l.905-.822a3.77 3.77 0 015.069 0h0a3.108 3.108 0 010 4.603L70 18l-5.974-5.424a3.108 3.108 0 010-4.603h0a3.77 3.77 0 015.07 0l.904.822z"/><path d="M63.33 10.838L61 13l-5.964-5.429c-1.345-1.225-1.386-3.25-.09-4.521l.09-.086c1.413-1.285 3.648-1.285 5.06 0l.904.823.903-.823c1.413-1.285 3.648-1.285 5.06 0 .977.89 1.266 2.2.856 3.338"/></g></g></symbol><symbol viewBox="0 0 48 48" id="multicolor-moose-48" xmlns="http://www.w3.org/2000/svg"><g fill="none"><path d="M9.426 23.386l-.28-.081c-1.324-.375-2.229-.338-3.08.47a2.352 2.352 0 00-.431.466c-.66.924-.66 2.129.32 3.356 2.452 2.668 7.49 2.308 11.625-.713l-1.024-1.41c-3.498 2.557-7.57 2.848-9.282.986-.442-.555-.442-.9-.225-1.204a.765.765 0 01.1-.118l.092-.078c.297-.29.627-.305 1.432-.077.072.02.137.039.26.076 1.09.322 1.568.401 2.237.218 1.581-.435 1.68-1.724.736-3.047-.53-.743-1.082-1.3-2.868-2.984l-.231-.218c-1.49-1.41-2.23-2.21-2.565-2.838-.198-.372-.237-.369.33-.453l.057.04c.17.124.399.328.685.608.453.442.406.392 2.003 2.11l.23.247c2.335 2.5 3.213 3.271 4.22 3.06 1.203-.253 1.869-.976 1.874-2.024.003-.632-.148-1.09-.647-2.283l-.076-.182-.073-.18-1.612.656.08.193.077.187c.391.936.513 1.305.512 1.6 0 .179-.052.234-.492.326.117-.024.107-.027.03-.072a4.84 4.84 0 01-.68-.52c-.497-.438-1.083-1.031-1.944-1.953l-.227-.244-.54-.583-.53-.567a33.96 33.96 0 00-.99-1.02c-.921-.9-1.397-1.248-2.026-1.152-1.915.295-2.597 1.519-1.795 3.026.46.865 1.26 1.729 2.905 3.286l.233.22c1.676 1.58 2.212 2.12 2.645 2.728.104.146.175.266.22.351-.235.064-.525.016-1.285-.209z" fill="#005AA0"/><path d="M21.035 19.348c-1.435-.943-2.467-2.013-3.187-3.216-.86-1.439-1.089-2.343-1.506-5.058-.198-1.288-.366-1.894-.805-2.424-1.617-1.958-3.748-1.385-4.515.659-.512 1.366-.429 1.648 1.821 7.635l1.628-.615c-1.941-5.164-2.093-5.68-1.821-6.407.326-.87.846-1.01 1.548-.16.159.192.278.62.425 1.578.452 2.94.716 3.989 1.734 5.69.856 1.43 2.072 2.69 3.725 3.776l.953-1.458z" fill="#E30613"/><path d="M38.952 22.438l-.326.089c-.784.217-1.083.263-1.327.196-.152-.042-.118-.01-.107.075-.004-.029.063-.212.25-.496.405-.619.954-1.203 2.534-2.77l.153-.152c1.539-1.529 2.264-2.333 2.736-3.16.804-1.41.426-2.677-1.23-3.091-1.21-.304-2.46.521-4.193 2.277-.317.32-.646.67-1.026 1.085-.27.296-1.14 1.263-1.204 1.333-.37.408-.647.704-.882.94.096-.78.364-2.017.809-3.722l.092-.352c.927-3.529 1.112-4.394.936-5.25-.311-1.514-2.12-2.568-3.952-1.44-.775.478-.997 1.243-1.276 3.24l-.11.8a46.53 46.53 0 01-.122.838c-.1.641-.207 1.194-.336 1.717-.52 2.108-1.39 3.585-2.842 4.486a6.002 6.002 0 00-.405-.183c-1.62-.663-3.461-.663-5.307.437l.888 1.499c1.331-.793 2.61-.793 3.761-.322.28.116.473.225.556.284l.43.305.468-.241c2.214-1.137 3.463-3.106 4.14-5.846.142-.577.258-1.178.365-1.866a53.8 53.8 0 00.127-.868c.013-.095.088-.647.11-.799.107-.766.187-1.213.287-1.557.085-.294.163-.43.176-.438.705-.434 1.252-.116 1.338.305.09.437-.135 1.49-.914 4.455l-.093.355c-.905 3.467-1.149 4.918-.654 5.882.342.667 1.023.743 1.619.437.297-.152.61-.407.999-.785.294-.286.62-.633 1.078-1.138.068-.075.935-1.037 1.2-1.327.365-.4.68-.734.98-1.037 1.265-1.282 2.197-1.898 2.536-1.813.433.109.416.052.14.534-.361.635-1.036 1.384-2.45 2.787l-.151.151c-1.691 1.677-2.261 2.285-2.764 3.052-.886 1.35-.722 2.629.85 3.06.666.184 1.145.11 2.25-.197l.303-.082c.793-.208 1.147-.189 1.448.085l.07.057c.004.003.05.046.1.117.217.304.217.649-.264 1.25-2.3 2.453-6.409 1.65-9.04-1.734l-1.371 1.072c3.224 4.148 8.555 5.189 11.724 1.804 1.025-1.278 1.025-2.483.365-3.407a2.339 2.339 0 00-.444-.477c-.844-.75-1.737-.792-3.028-.454zM23.54 26.82c0-1.076-.87-1.948-1.944-1.948a1.946 1.946 0 00-1.944 1.948h1.74a.205.205 0 11.408 0h1.74zm6.086 0c0-1.076-.87-1.948-1.943-1.948a1.946 1.946 0 00-1.944 1.948h1.74a.205.205 0 11.408 0h1.74z" fill="#005AA0"/><path d="M31.829 31.588c.114-.28.255-.676.396-1.16.343-1.182.523-2.38.45-3.525-.073-1.134-.396-2.147-1.018-2.987l-1.396 1.04c.405.546.625 1.24.678 2.059.059.914-.093 1.922-.384 2.925a11.11 11.11 0 01-.39 1.115l-.075.17v6.288l.004.092c.004.078-.07.294-.373.567-.724.65-2.261 1.084-4.851 1.084V41c2.98 0 4.92-.547 6.012-1.53.724-.652.977-1.38.947-1.985v-5.897zm-13.924 5.897c-.03.604.223 1.333.947 1.984 1.093.984 3.032 1.531 6.012 1.531v-1.744c-2.59 0-4.127-.433-4.85-1.084-.304-.273-.378-.489-.372-.599l.002-.06v-6.288l-.075-.17a11.11 11.11 0 01-.657-2.254l-1.712.303c.079.45.184.892.309 1.323.14.485.282.881.396 1.16v5.898z" fill="#005AA0"/></g></symbol><symbol viewBox="0 0 64 64" id="multicolor-sad-declined-64" xmlns="http://www.w3.org/2000/svg"><defs><path id="bta" d="M34.503.25h-3.33v6.907h3.33z"/></defs><g transform="translate(8 1)" fill="none" fill-rule="evenodd"><path d="M23 54.985c-12.682 0-23-10.317-23-23s10.318-23 23-23c6.694 0 13.07 2.927 17.493 8.03l-1.512 1.31c-4.042-4.665-9.867-7.34-15.981-7.34-11.58 0-21 9.421-21 21 0 11.58 9.42 21 21 21s21-9.42 21-21c0-2.337-.372-4.639-1.106-6.84l-.06-.16H28.158c-11.896 0-14.039-7.579-14.125-7.9l1.932-.519c.073.262 1.906 6.42 12.193 6.42h16.061l.56 1.491A23.634 23.634 0 0146 31.985c0 12.683-10.318 23-23 23" fill="#005AA0" fill-rule="nonzero"/><path d="M23 47c-3.325 0-6-2.676-6-6s2.675-6 6-6a5.986 5.986 0 015.998 6c.081 3.243-2.675 6-5.999 6zm-.002-10C20.818 37 19 38.818 19 41s1.817 4 3.998 4 3.999-1.818 3.999-4c.09-2.182-1.727-4-3.999-4z" fill="#005AA0" fill-rule="nonzero"/><circle fill="#005AA0" fill-rule="nonzero" cx="14.25" cy="29.25" r="1.25"/><circle fill="#005AA0" fill-rule="nonzero" cx="31.25" cy="29.25" r="1.25"/><path fill="#E30613" fill-rule="nonzero" d="M41.291 11.05l-1.6-1.201 3.99-5.312 1.6 1.2zm4.774 7.142l-.94-1.767 5.857-3.115.939 1.766z"/><mask id="btb" fill="#fff"><use xlink:href="#bta"/></mask><path fill="#E30613" fill-rule="nonzero" mask="url(#btb)" d="M33.13 7.157l-1.958-.414L32.546.25l1.957.414z"/></g></symbol><symbol viewBox="0 0 84 50" id="multicolor-single-50" xmlns="http://www.w3.org/2000/svg"><defs><path id="bua" d="M17 24v7h-7v-7z"/></defs><g fill="none" fill-rule="evenodd"><path d="M0 0h84v50H0z"/><path d="M21 10h40v40H21z"/><path d="M26 48V25m30 0v23m-14-2V34h10v12" stroke="#005AA0" stroke-width="2"/><path stroke="#0059A0" stroke-width="2" d="M47 24l-6-5-6 5"/><path stroke="#005AA0" stroke-width="2" d="M59 28L41 13 23 28m16 19h20m-36 0h11"/><g transform="translate(21 10)"><use stroke="#979797" xlink:href="#bua"/><use stroke="#005AA0" stroke-width="2" xlink:href="#bua"/></g><path d="M61 3.795l.905-.822a3.77 3.77 0 015.069 0h0a3.108 3.108 0 010 4.603L61 13l-5.974-5.424a3.108 3.108 0 010-4.603h0a3.77 3.77 0 015.07 0l.904.822z" stroke="#E30613" stroke-width="2"/></g></symbol><symbol viewBox="0 0 84 50" id="multicolor-small_children-50" xmlns="http://www.w3.org/2000/svg"><g stroke-width="2" fill="none" fill-rule="evenodd"><path d="M56.49 50V37.072m6.774 2.216l-2.417-5.445c-.963-2.913-3.314-4.174-6.01-4.543M44.599 47.39V50m1.283-14.932v10.385a2.128 2.128 0 11-4.255 0V34.686a5.386 5.386 0 015.385-5.386m-3.11-5.114a7.221 7.221 0 11.899 2.636" stroke="#005AA0"/><path d="M62.285 37.072l1.907 4.19a2.153 2.153 0 01-3.92 1.782l-1.613-3.618m5.377 1.263v-19.6M73.05 9.786c0 4.978-8.786 11-8.786 11s-8.786-6.022-8.786-11m0 0A8.786 8.786 0 0164.264 1a8.785 8.785 0 018.786 8.786M54.102 25.208a3.638 3.638 0 01-5.1.674m-7.122-.075a2.346 2.346 0 002.009-2.642" stroke="#005AA0"/><path d="M59.478 9.584A4.583 4.583 0 0164.06 5" stroke="#E30613"/><path d="M21.192 50v-3m11.973 0v3M32.13 35.068v10.385a2.127 2.127 0 104.255 0V34.686A5.386 5.386 0 0031 29.3m3.11-5.114a7.221 7.221 0 10-.899 2.636m-9.301-1.614a3.64 3.64 0 005.101.674" stroke="#005AA0"/><path d="M22.255 35.068v10.385a2.127 2.127 0 11-4.255 0V34.686a5.386 5.386 0 015.385-5.386" stroke="#005AA0"/></g></symbol><symbol viewBox="0 0 48 48" id="multicolor-things-48" xmlns="http://www.w3.org/2000/svg"><g fill="none" fill-rule="evenodd"><path d="M22.082 33.018h13.854M17 21.286V14a2 2 0 012-2h20a2 2 0 012 2v13a2 2 0 01-2 2H21.488L17 21.286z" stroke="#005C9C" stroke-width="2"/><path d="M11.633 25l.583-1.963h5.038L17.807 25H18a2 2 0 012 2v6a2 2 0 01-2 2H8a2 2 0 01-2-2v-6a2 2 0 012-2h3.633z" stroke="#005C9C" stroke-width="2"/><circle stroke="#E30613" stroke-width="2" cx="14.7" cy="30" r="2"/><circle fill="#005C9C" cx="9" cy="28" r="1"/><path d="M29.036 29.043v3.997" stroke="#005C9C" stroke-width="2"/></g></symbol><symbol viewBox="0 0 48 48" id="multicolor-travel-48" xmlns="http://www.w3.org/2000/svg"><g fill="none"><path d="M17.5 4c-3.112 0-5.707 2.188-6.175 5.066C8.319 9.494 6 11.978 6 15c0 3.325 2.808 6 6.25 6H15v-2h-2.75C9.892 19 8 17.198 8 15s1.892-4 4.25-4h1v-1c0-2.198 1.892-4 4.25-4s4.25 1.802 4.25 4v1h1c2.358 0 4.25 1.802 4.25 4 0 1.065-.444 2.064-1.228 2.811l1.38 1.448C28.325 18.141 29 16.622 29 15c0-3.02-2.32-5.505-5.325-5.933C23.207 6.188 20.612 4 17.501 4z" fill="#075BA0"/><path d="M23 20a2 2 0 10-4 0 2 2 0 004 0zm2 0a4 4 0 11-8 0 4 4 0 018 0z" fill="#E30613"/><path fill="#005AA0" d="M23.015 30.388l5.586 1.208.423-1.955-6.082-1.315-6.24 1.824 3.553 3.335 1.369-1.459-1-.939z"/><path d="M20.934 39.226l-9.636-1.096-5.002-4.698 6.516-1.835 3.352 1.805 2.515-.735 17.749-5.187 5.941 1.278.167.572a3.488 3.488 0 01-2.37 4.326l-7.76 2.269-5.346 5.696-6.26 1.829 1.144-4.503-1.01.279zm1.576-2.511l.203-.802 1.939.492-1.051 4.143 2.374-.694 5.346-5.696.261-.076 8.024-2.346a1.488 1.488 0 001.065-1.298l-4.168-.896-17.263 5.044-3.302.965-3.362-1.81-2.33.657 1.937 1.82 8.592.977 1.735-.48zm-.566 2.232l.566-2.232-.566 2.232zm6.045-14.917a1.001 1.001 0 00-.755.352.968.968 0 00-.234.644.993.993 0 001.012.974.992.992 0 00.988-.996.993.993 0 00-1.011-.974zm.046 3.97A2.993 2.993 0 0125 25.05a2.968 2.968 0 01.713-1.967 3 3 0 012.253-1.052A2.993 2.993 0 0131 24.98c.019 1.65-1.31 3-2.965 3.019z" fill="#005AA0"/></g></symbol><symbol viewBox="0 0 32 32" id="offer-32" xmlns="http://www.w3.org/2000/svg"><g fill="currentColor"><path d="M5 24.009V13h10v-2H3v15.009h17v-6.954h-2v4.954z"/><path d="M10 11.009V10h3V8H8v5.009h5v-2zm12.915-1.256l-1.183-2.654-1.158 2.657-2.882-.31 1.722 2.336-1.705 2.348 2.887-.317 1.183 2.654 1.158-2.657 2.882.31-1.722-2.337 1.705-2.347-2.887.317zm7.163-2.8l-3.503 4.822 3.552 4.82-5.944-.64-2.384 5.47-2.436-5.465-5.93.652 3.503-4.821-3.552-4.821 5.944.64 2.384-5.47 2.436 5.465 5.93-.651z"/></g></symbol><symbol viewBox="0 0 32 32" id="other_vehicles-32" xmlns="http://www.w3.org/2000/svg"><g fill="currentColor"><path d="M29 21.584c0-1.745-1.351-3.146-3-3.146s-3 1.4-3 3.146c0 1.745 1.351 3.146 3 3.146s3-1.4 3-3.146zm2 0c0 2.834-2.23 5.146-5 5.146s-5-2.312-5-5.146 2.23-5.146 5-5.146 5 2.312 5 5.146zm-22 0c0-1.745-1.351-3.146-3-3.146s-3 1.4-3 3.146c0 1.745 1.351 3.146 3 3.146s3-1.4 3-3.146zm2 0c0 2.834-2.23 5.146-5 5.146s-5-2.312-5-5.146 2.23-5.146 5-5.146 5 2.312 5 5.146z"/><path d="M19.8 22.244h-2c0-4.905 3.675-8.916 8.253-8.916 1.313 0 2.582.332 3.727.958l-.96 1.755a5.735 5.735 0 00-2.767-.713c-3.433 0-6.253 3.078-6.253 6.916z"/><path d="M24.27 18.35l-1.44 1.388-2.55-2.642 1.44-1.389zM9.139 19.771l-1.44-1.389 1.581-1.638 1.44 1.388z"/><path d="M19 19.547v2h-5.148l-5.719-5.77 1.42-1.408 5.133 5.178zm-5.556-6.06l-.888-1.792 7.63-3.784 2.361 2.657h3.358l1.952 3.245-1.714 1.03-1.369-2.275h-3.125l-1.943-2.187z"/><path d="M16.085 6.145l-1.896.572-.578-1.915 3.138-.947 4.907 5.673-1.512 1.309zM3 13.328h3.983v2H1V9.182h11.071l2.174 3.841-1.74.985-1.6-2.826H3z"/></g></symbol><symbol viewBox="0 0 32 32" id="pension_mega-32" xmlns="http://www.w3.org/2000/svg"><path d="M16.002 4l-5.192 9h10.385l-5.193-9zm0 4.002L17.732 11h-3.46l1.73-2.998zM10.233 18l1.153-2h9.228l1.154 2H10.233zm11.538-4h-11.54L6.77 20h18.462l-3.461-6zM6.193 21L2.73 27.003h26.542L25.809 21H6.193zm1.154 2.001h17.305l1.157 2.002H6.192l1.155-2.002z" fill="currentColor" fill-rule="evenodd"/></symbol><symbol viewBox="0 0 10 10" id="plus-10" xmlns="http://www.w3.org/2000/svg"><path d="M4 0v4H0v2h4v4h2.001V6H10V4H6.001V0z" fill="currentColor" fill-rule="evenodd"/></symbol><symbol viewBox="0 0 32 32" id="press_Media-32" xmlns="http://www.w3.org/2000/svg"><g fill="currentColor" fill-rule="evenodd"><path fill-rule="nonzero" d="M12 23v-2h12v2zm0-3v-2h12v2z"/><path d="M12 17h8v-7h-8v7zm2.037-2H18v-2.962h-3.963V15z"/><path d="M25.806 25c.74 0 1.194-.546 1.194-1.5V7.135c-.271.084-.565.214-.959.408-1.11.546-1.748.748-2.841.748-1.098 0-1.73-.205-2.805-.755C19.576 7.117 19.215 7 18.5 7c-.717 0-1.088.119-1.927.54-1.092.548-1.728.751-2.823.751-1.094 0-1.748-.206-2.845-.749A7.158 7.158 0 0010 7.147V23.5c0 .56-.087 1.063-.253 1.5h16.059zM6.5 27C4.366 27 3 25.659 3 23.5v-12C3 10.08 4.044 9 5.5 9H7v2H5.5c-.336 0-.5.17-.5.5v12c0 1.046.463 1.5 1.5 1.5 1.066 0 1.5-.419 1.5-1.5V5h1c1.048 0 1.684.202 2.749.728.888.44 1.28.563 2.001.563.717 0 1.088-.119 1.927-.54C16.769 5.205 17.405 5 18.5 5c1.098 0 1.73.205 2.805.755.819.419 1.18.536 1.895.536.72 0 1.1-.12 1.959-.543C26.269 5.202 26.907 5 28 5h1v18.5c0 1.985-1.258 3.5-3.194 3.5H7c-.161-.008-.328 0-.5 0z" fill-rule="nonzero"/></g></symbol><symbol viewBox="0 0 32 32" id="prevent-32" xmlns="http://www.w3.org/2000/svg"><g fill="currentColor" fill-rule="evenodd"><path d="M24 17.242c0 3.41-5.227 6.981-7.988 8.5C13.246 24.183 8 20.554 8 17.241v-6.88A6.075 6.075 0 0011.362 7h9.307A6.393 6.393 0 0024 10.331v6.911zM22.25 5H9.75c0 1.912-1.798 3.75-3.75 3.75v8.492C6 23.048 16 28 16 28s10-4.797 10-10.758V8.75c-1.837 0-3.75-1.876-3.75-3.75z"/><path fill-rule="nonzero" d="M19.907 12.6l-4.64 4.614-2.343-2.295-1.424 1.405 3.753 3.723 6.063-6.029z"/></g></symbol><symbol viewBox="0 0 70 50" id="report-building-50" xmlns="http://www.w3.org/2000/svg"><g fill="none" fill-rule="evenodd"><path fill="#005AA0" d="M54.508 33.163l1.142-1.642-20.61-14.337L14.428 31.52l1.142 1.642L35.04 19.62z"/><path fill="#005AA0" d="M19 28.697v16.749h2v-16.75zm30 0v16.749h2v-16.75zM43 34v11.01h2V32h-8v13.01h2V34zm-18 7v-9h9v9h-9zm7-2v-5h-5v5h5z"/><path fill="#005AA0" d="M16 47h11v-2H16zm17 0h22v-2H33zM21.37 5.04c2.035 1.543 3.287 3.59 3.427 6.257l1.999-.077c-.011-.845.238-2.104.99-3.336a6.17 6.17 0 011.442-1.632c.25 1.648.744 2.863 1.492 3.958.193.282.77 1.043.823 1.118.344.484.481.816.507 1.298.068 1.31-.245 2.084-1.142 2.931l1.372 1.455c1.323-1.249 1.866-2.593 1.767-4.49-.048-.906-.327-1.584-.873-2.353-.082-.115-.644-.856-.803-1.088-.768-1.123-1.193-2.403-1.307-4.577l-.079-1.507-1.357.66c-1.566.762-2.737 1.855-3.548 3.184-.093.151-.18.304-.261.458-.732-1.51-1.841-2.792-3.24-3.852a13.873 13.873 0 00-2.843-1.655 10.556 10.556 0 00-1.333-.492L17.068.934l.072 1.383c.184 3.505-.691 5.594-3.068 8.744-.021.028-.646.852-.826 1.093-1.985 2.66-2.793 4.539-2.651 7.247.145 2.76 1.107 4.873 2.625 6.386 1.01 1.008 2.032 1.556 2.764 1.78l.585-1.913a3.577 3.577 0 01-.554-.251 5.938 5.938 0 01-1.383-1.032c-1.171-1.168-1.921-2.815-2.04-5.074-.112-2.145.525-3.626 2.257-5.947.174-.233.794-1.05.82-1.084 2.29-3.037 3.382-5.325 3.487-8.543.757.347 1.51.784 2.214 1.318z"/><path d="M20 15.672l1.244 1.566c3.343-2.657 2.868-6.323.33-9.305l-1.15-1.352-.56 1.685c-.42 1.262-.979 2.209-2.038 3.604-.145.191-.681.887-.671.874-2.242 2.922-2.97 4.26-2.867 6.213.152 2.905 2.427 5.117 4.144 5.7l.642-1.894c-1.021-.347-2.687-1.967-2.789-3.911-.067-1.287.518-2.364 2.457-4.89l.677-.883c.687-.905 1.199-1.663 1.605-2.436.943 1.798.765 3.607-1.025 5.03z" fill="#E30613"/></g></symbol><symbol viewBox="0 0 70 50" id="report-indemnity-50" xmlns="http://www.w3.org/2000/svg"><g fill="none" fill-rule="evenodd"><g fill="#005AA0"><path d="M36.322 15.641l-9.447 12.91 1.614 1.182 10.628-14.525-11.791-8.627-10.628 14.524 1.614 1.18 9.447-12.91z"/><path d="M25.941 31.802L15.497 24.16l1.285-1.757 2.296 1.672 1.177-1.617-3.908-2.847-3.645 4.982 13.672 10.004 3.647-4.983-7.347-5.376-1.18 1.614 5.732 4.195zm7.571-23.39l-2.159-1.58-2.07-1.514L28 7.073l10.444 7.643 1.285-1.755-6.216-4.549zm1.18-1.614l7.83 5.73-3.646 4.983L25.204 7.506l3.646-4.983.807.59 2.877 2.106 2.159 1.58zm25.671 37.035L31.967 23.055l-1.181 1.614 30.01 21.96 3.61-4.933-30.011-21.96-1.181 1.614L61.61 42.13z"/></g><path fill="#005AA0" d="M14 41v-2h-4v4.475h2V41zm16 2.475h2V39h-8v2h6z"/><path fill="#E30613" d="M16 41h6v-2h-6z"/><path d="M8 44v1h26v-1H8zm28-2v5H6v-5h30z" fill="#005AA0"/></g></symbol><symbol viewBox="0 0 70 50" id="report-legal-50" xmlns="http://www.w3.org/2000/svg"><g fill="none" fill-rule="evenodd"><path d="M35 13a4 4 0 100-8 4 4 0 000 8zm0 2a6 6 0 110-12 6 6 0 010 12z" fill="#005AA0"/><path fill="#005AA0" d="M30.877 8H17v2h13.877zM14 31v1.088C14 33.694 15.321 35 16.957 35h6.086C24.68 35 26 33.694 26 32.088V31H14zm9.043 6h-6.086C14.222 37 12 34.804 12 32.088V29h16v3.088C28 34.804 25.778 37 23.043 37z"/><path fill="#005AA0" d="M26.054 30.187l1.892-.646-7-20.51h-1.892l-7 20.51 1.892.646L20 12.45zM44 32.088C44 33.694 45.321 35 46.957 35h6.086C54.68 35 56 33.694 56 32.088V31H44v1.088zM53.043 37h-6.086C44.222 37 42 34.804 42 32.088V29h16v3.088C58 34.804 55.778 37 53.043 37z"/><path fill="#005AA0" d="M56.054 30.187l1.892-.646-7-20.51h-1.892l-7 20.51 1.892.646L50 12.45z"/><path fill="#005AA0" d="M39.481 10H53V8H39.481zM47 45H24v-1h10V15.632h2V44h2V13.632h-6V42H22v5h27v-5h-9v2h7z"/><path d="M37.5 9a2.5 2.5 0 10-2.5 2.5v-2a.5.5 0 11.5-.5h2z" fill="#E30613"/></g></symbol><symbol viewBox="0 0 70 50" id="report-other-50" xmlns="http://www.w3.org/2000/svg"><g fill="none" fill-rule="evenodd"><path fill="#005AA0" d="M52 5H18v40h7v2h-9V3h38v44H35.059v-2H52z"/><path d="M21 42h28V8H21v34zM19 6h32v38H19V6z" fill="#005AA0"/><path fill="#005AA0" d="M31.877 30.018l-1.898 5.453 5.66 2.237v4.706h2v-6.066l-5.14-2.031 1.838-5.281-5.347-2.754-3.415 1.289H20v2h5.94l2.925-1.104zm11.316-14.416l-6.804-.002-1.755-3.041-3.473-.897L31 7.025l-1.998.07.214 6.13 4.106 1.06 1.912 3.315 5.96.002.002 5.208 7.808 5.354 1.17-1.622-6.978-4.756z"/><path fill="#E30613" d="M27 47h6v-2h-6z"/></g></symbol><symbol viewBox="0 0 70 50" id="report-person-50" xmlns="http://www.w3.org/2000/svg"><g fill="none" fill-rule="evenodd"><path d="M47.256 33c0 7.18-5.82 13-13 13s-13-5.82-13-13 5.82-13 13-13c3.838 0 7.402 1.672 9.858 4.525l1.516-1.304A14.966 14.966 0 0034.256 18c-8.284 0-15 6.716-15 15 0 8.285 6.715 15 15 15 8.284 0 15-6.715 15-15a14.98 14.98 0 00-.818-4.898l-.218-.574-.244-.645h-10.49c-2.876 0-4.867-.76-6.173-2.004a5.109 5.109 0 01-1.005-1.31c-.132-.25-.2-.43-.22-.503l-1.932.515c.196.735.732 1.75 1.778 2.746 1.687 1.606 4.173 2.556 7.553 2.556h9.104c.435 1.296.665 2.69.665 4.117z" fill="#005AA0"/><path d="M36 38.192c-.39 0-.532-.056-.946-.332-.711-.473-1.195-.667-2.054-.667-.859 0-1.342.194-2.054.667-.413.276-.555.332-.946.332-.391 0-.533-.056-.946-.332-.711-.473-1.195-.667-2.054-.667v2c.39 0 .532.057.946.332.711.474 1.195.667 2.054.667.859 0 1.343-.193 2.054-.667.414-.275.555-.332.946-.332.391 0 .533.057.946.332.711.474 1.195.667 2.054.667v-2zm0 1.997c.859 0 1.342-.194 2.054-.667.413-.276.555-.332.946-.332.39 0 .532.057.945.332.712.473 1.196.667 2.055.667v-2c-.391 0-.533-.057-.946-.332-.712-.474-1.195-.667-2.054-.667-.86 0-1.343.193-2.054.667-.414.275-.555.332-.946.332v2zM27 30a2.612 2.612 0 005.223 0h-2A.611.611 0 0129 30h-2zm9 0a2.611 2.611 0 105.223 0h-2A.611.611 0 0138 30h-2z" fill="#005AA0"/><path d="M28.996 2.846c.5.415.5 1.181 0 1.596a3.037 3.037 0 000 4.674c.5.415.5 1.181 0 1.596a3.038 3.038 0 00-.002 4.675l1.278-1.539c-.5-.414-.499-1.18.003-1.597a3.037 3.037 0 00-.002-4.674c-.5-.414-.499-1.18.001-1.596a3.038 3.038 0 000-4.673l-1.278 1.538z" fill="#E30613"/><path d="M33.664 2.846c.5.415.5 1.181 0 1.596a3.037 3.037 0 000 4.674c.5.415.5 1.181 0 1.596a3.038 3.038 0 00-.002 4.675l1.278-1.539c-.5-.414-.499-1.18.003-1.597a3.037 3.037 0 00-.002-4.674c-.5-.414-.499-1.18.001-1.596a3.038 3.038 0 000-4.673l-1.278 1.538zm4.669 0a1.038 1.038 0 010 1.596 3.037 3.037 0 00-.001 4.674c.5.415.5 1.181 0 1.596a3.038 3.038 0 00-.002 4.675l1.278-1.539c-.5-.414-.499-1.18.003-1.597a3.037 3.037 0 00-.002-4.674 1.037 1.037 0 01.001-1.596 3.038 3.038 0 000-4.673l-1.277 1.538z" fill="#005AA0"/></g></symbol><symbol viewBox="0 0 70 50" id="report-transportation-50" xmlns="http://www.w3.org/2000/svg"><g fill="none"><path fill="#005AA0" d="M50 18v17h2V18zm16 14.832V40h-5v2h7v-9.632L60.956 18H53v2h6.709zm-49.232 1.906l-1.911.587L16.907 42H20v-2h-1.615z"/><path d="M53 31V21h5.869l4.707 10H53zm2-2h5.424L57.6 23H55v6zM26 46a3 3 0 100-6 3 3 0 000 6zm0 2a5 5 0 110-10 5 5 0 010 10zm29-2a3 3 0 100-6 3 3 0 000 6zm0 2a5 5 0 110-10 5 5 0 010 10zm-23-6h17v-2H32zm15-8H14v-5h-2v7h37V14H31v2h16z" fill="#005AA0"/><path fill="#005AA0" d="M22.375 9.807l-2.543 5.197-7.422-4.755 1.413 8.259-5.784.017 2.528 4.221-3.72 2.77 7.014 1.325.371-1.965-2.533-.478 1.513-1.128-1.65-2.755 4.631-.014-1.048-6.124 5.497 3.521 1.97-4.026 1.832 2.847 1.858-.823-.557 2.094 1.933.514 1.63-6.128-4.109 1.82zM5.476 19.318l-4.203-.692-.325 1.973 4.203.693zM23.01 7.931l.694-4.202-1.974-.326-.692 4.203zM8.859 11.317L5.284 8.976l-1.096 1.673 3.575 2.341z"/><path fill="#E30613" d="M15.127 7.686l-1.391-4.04-1.891.65 1.39 4.04z"/></g></symbol><symbol viewBox="0 0 32 32" id="report_damage-32" xmlns="http://www.w3.org/2000/svg"><g fill="currentColor"><path d="M25 6H7v20h2.01v2H5V4h22v24h-9.97v-2H25z"/><path d="M15.087 18.947L13.66 22.6 18 24.127V27h2v-4.29l-3.725-1.31 1.362-3.484-4.38-2.009L10.67 17H5.826v2h5.25l2.148-.907zM22 10h-4.4l-1.033-1.983-2-.523-.089-2.546-1.998.07.14 4.034 2.583.676L16.388 12H20v2.8l5.33 4.002 1.202-1.6L22 13.8zM11 28h4v-2h-4z"/></g></symbol><symbol viewBox="0 0 32 32" id="save_profile-32" xmlns="http://www.w3.org/2000/svg"><g fill="currentColor"><path d="M3.753 10.845c-.476-.476-.476-1.33.002-1.809L2.339 7.624c-1.256 1.26-1.256 3.377 0 4.636 1.261 1.257 3.137 1.116 4.394-.142l-1.44-1.272c-.477.477-1.061.477-1.54 0z"/><path d="M22 21.37V25h-2v-3h-8.01v3H10v-3.63C7.901 20.366 6 17.843 6 15c0-3.16 2.859-6.03 5.99-6h6.499c.035-.078.063-.987 1.012-2C20.45 5.987 20.973 5.862 22 5.862v3.762c2 .625 2.906 2.157 3.154 4.376H28v2h-2.932C25 19.78 23.399 20.683 22 21.37zM29 18h1v-6h-3.233c-.289-1.558-1.444-3-2.767-3.563V4c-2.76 0-3.82 0-5.021 1-1.083.901-1.386 1.479-1.618 2H12c-.909.013-1.96.2-2.789.528C6.24 8.708 4 11.708 4 15c0 3.593 1.768 6.573 4 7.535V27h6v-3h4v3h6v-4.465c2-.963 3.06-3.018 3.062-4.535H29z"/><path d="M12 11v2h6v-2z"/></g></symbol><symbol viewBox="0 0 50 40" id="shortcut-bankid-50" xmlns="http://www.w3.org/2000/svg"><g fill="none" fill-rule="evenodd"><path d="M34.458 17.893c-.012.423-.075.84-.148 1.256-.106.6-.27 1.181-.492 1.745a8.359 8.359 0 01-1.178 2.079 7.897 7.897 0 01-2.389 2.056 8.21 8.21 0 01-1.997.791c-.334.084-.67.153-1.012.188-.182.017-.363.041-.546.051a17.89 17.89 0 01-.709.018c-.268.003-.536 0-.804 0h-.101l.673-4.463c.097-.005.19-.01.282-.017a4.114 4.114 0 001.147-.233c.47-.171.886-.436 1.225-.82a2.99 2.99 0 00.596-1.054c.122-.369.181-.75.208-1.138.022-.338 0-.669-.087-.994a1.79 1.79 0 00-.882-1.149 2.674 2.674 0 00-.821-.284 4.765 4.765 0 00-.873-.074h-1.236c-.174 0-.341-.031-.5-.103a.877.877 0 01-.302-.223c-.15-.17-.143-.407-.017-.611a1.28 1.28 0 01.34-.35c.143-.107.276-.224.39-.364.137-.168.232-.357.236-.58a.81.81 0 00-.214-.576c-.168-.184-.381-.276-.613-.331a2.128 2.128 0 00-.704-.05c-.43.04-.816.194-1.125.52a.894.894 0 00-.264.557c-.009.13.02.251.072.367.078.175.202.309.348.424a.667.667 0 01.21.249c.086.192.036.366-.07.531a1.052 1.052 0 01-.371.34 1.408 1.408 0 01-.594.187 4.132 4.132 0 01-.277.013c-.232.002-.463 0-.694 0h-.103c.009-.072.014-.136.023-.198l.235-1.538.323-2.137c.036-.241.075-.481.112-.72.003-.027.003-.054.005-.08h5.824c.022.004.044.01.066.01.29.006.578.03.866.06.325.033.648.08.968.143.67.133 1.322.33 1.944.63a5.453 5.453 0 011.753 1.308c.335.383.601.812.807 1.283.154.351.269.716.346 1.093.064.312.118.627.124.948.001.058.01.116.017.174v.883c-.007.061-.016.122-.017.183zm-18.665-1.665h.91c.29-.002.572-.053.837-.177a1.45 1.45 0 00.687-.613c.211-.377.159-.77-.126-1.073-.054-.056-.116-.104-.171-.156-.045-.041-.09-.081-.13-.127-.158-.195-.157-.402.003-.597a1.2 1.2 0 01.587-.38c.343-.108.69-.098 1.034-.01a.78.78 0 01.31.156.466.466 0 01.098.58 1.346 1.346 0 01-.402.423 1.73 1.73 0 00-.403.398.972.972 0 00-.192.632.8.8 0 00.195.478 1.303 1.303 0 00.973.454c.294.002.587 0 .88 0h.101a8.602 8.602 0 01-.04.296l-.146.956-.185 1.208-.191 1.27c-.059.387-.12.775-.178 1.163-.042.273-.092.544-.12.818-.058.557-.16 1.107-.24 1.66-.077.537-.159 1.073-.239 1.61-.04.271-.08.544-.122.816-.003.02-.01.04-.015.06h-5.197l1.482-9.845m-.709 13.39c.129.016.447.013.545-.01a.546.546 0 00.456-.495c.033-.232-.076-.4-.298-.44-.102-.02-.208-.018-.311-.022-.081-.003-.163 0-.248 0l-.144.967m-.24 1.629c.018.004.028.008.04.008.154 0 .31.003.464-.003.07-.003.14-.02.206-.043a.535.535 0 00.296-.235.749.749 0 00.093-.299c.02-.161-.054-.315-.176-.379a.597.597 0 00-.275-.073h-.423c-.025 0-.049.005-.076.008l-.15 1.016m-1.379.516c.01-.03.025-.058.03-.089.06-.397.117-.794.177-1.19.043-.293.088-.586.132-.878.049-.33.1-.66.148-.99.027-.18.052-.36.079-.548.025-.002.05-.006.074-.006.724 0 1.45-.004 2.174.002.241.002.477.052.68.202.16.119.253.28.27.486a.906.906 0 01-.403.862c-.056.04-.117.07-.176.105l-.082.048.164.085a.84.84 0 01.38.376c.067.14.084.289.07.445a1.288 1.288 0 01-.149.518 1.217 1.217 0 01-.822.621 1.47 1.47 0 01-.334.037c-.804.004-1.608.002-2.412.002v-.088m5.61-.491c-.16.102-.337.184-.544.18-.137-.002-.265-.116-.244-.3a.36.36 0 01.203-.294c.085-.043.176-.076.266-.11.066-.024.134-.041.201-.065.066-.024.13-.052.205-.082l-.087.671m1.21-.197c-.078-.019-.116-.068-.116-.15 0-.059 0-.118.009-.176.045-.319.1-.636.137-.956a.744.744 0 00-.155-.577.864.864 0 00-.376-.258c-.254-.098-.52-.103-.784-.086-.437.028-.823.204-1.178.462-.029.021-.037.047-.042.08-.03.213-.063.424-.095.635l-.023.183c.028-.016.045-.025.061-.036.064-.043.127-.087.192-.129.22-.14.446-.263.703-.31.138-.027.278-.038.418-.008.135.028.204.104.215.243.005.058-.008.104-.067.126-.127.049-.251.103-.38.144-.236.074-.477.137-.713.21a.947.947 0 00-.587.473.709.709 0 00-.068.487c.057.259.242.374.471.435.044.011.087.024.13.037h.355c.193-.038.386-.074.565-.16.074-.036.146-.075.222-.115a.478.478 0 00.248.209c.071.024.146.038.22.056l.032.01h.407c.04-.008.065-.031.081-.075.075-.19.154-.379.23-.568l.062-.157c-.064-.01-.12-.016-.174-.03m12.409-.592a.83.83 0 01-.597.432c-.198.041-.398.024-.611.025.094-.658.194-1.307.29-1.97.222-.002.437-.022.645.043.262.083.409.277.445.553.043.324-.021.632-.172.917m1.363-1.404a1.385 1.385 0 00-.775-.86 1.84 1.84 0 00-.757-.154c-.604-.002-1.208 0-1.811 0h-.084a18279 18279 0 01-.562 3.786h2.02c.175 0 .349-.015.52-.055.349-.083.653-.253.909-.513.22-.223.38-.487.49-.783.173-.467.213-.942.05-1.421m-10.352 2.769c.006-.021.012-.04.015-.06a1293.018 1293.018 0 01.27-1.826 1.47 1.47 0 00.005-.506.671.671 0 00-.356-.496c-.209-.109-.431-.107-.653-.08a1.177 1.177 0 00-.583.26 8.92 8.92 0 01-.172.132l.046-.358H21.16c-.144.978-.29 1.953-.435 2.933h1.115l.015-.071.127-.852c.034-.236.068-.47.104-.705.005-.034.009-.073.027-.1.105-.148.234-.265.415-.293.158-.023.318.048.31.27a2.405 2.405 0 01-.028.262c-.048.333-.099.667-.148 1l-.072.49h1.113m1.134-3.781c-.006.028-.012.05-.015.072l-.16 1.078-.229 1.538c-.043.29-.089.579-.129.869-.01.072-.037.146-.02.224h1.105c.066-.441.133-.882.2-1.338.019.023.028.033.035.045.256.411.512.822.767 1.235.027.044.055.063.108.063.42-.002.84-.001 1.26-.001.02 0 .038-.002.075-.004l-1.09-1.68 1.365-1.253c-.048-.003-.075-.005-.102-.005-.37 0-.739.007-1.108-.004a.392.392 0 00-.312.13c-.238.237-.482.466-.726.698a4.61 4.61 0 01-.162.149c.07-.609.167-1.208.25-1.815h-1.112m3.904.001l-.56 3.778h1.281l.561-3.778h-1.282z" fill="#005AA0"/><path fill="#005AA0" d="M7 3v35h36V10h-2v26H9V5h28V3z"/><path fill="#E30613" d="M44.45.843l-1.414 1.414 1.414 1.415 1.414-1.415zm-.707 3.536l-1.415-1.415-4.95 4.95 1.415 1.414zm-8.486 7.071l2.829-1.414-1.414-1.415z"/></g></symbol><symbol viewBox="0 0 50 40" id="shortcut-change-company-50" xmlns="http://www.w3.org/2000/svg"><g stroke-width="2" fill="none" fill-rule="evenodd"><path d="M33 16v8.048" stroke="#E30613"/><path d="M17 17v8m1 2h-5l8 9 8-9h-4V14h-4l8-10 8 10h-5" stroke="#005AA0"/></g></symbol><symbol viewBox="0 0 50 40" id="shortcut-documents-50" xmlns="http://www.w3.org/2000/svg"><g stroke-width="2" fill="none" fill-rule="evenodd"><path stroke="#005AA0" d="M35 18v12h4l-7 8-7-8h4v-3"/><path stroke="#005AA0" d="M27 37H10V3h15l10 10v5"/><path d="M15 12h7m-7 4h14" stroke="#E30613"/><path d="M15 20h14m-14 4.044h14M35 13H25V3" stroke="#005AA0"/></g></symbol><symbol viewBox="0 0 50 40" id="shortcut-fund-assortment-50" xmlns="http://www.w3.org/2000/svg"><g stroke-width="2" fill="none" fill-rule="evenodd"><path stroke="#E30613" d="M7 22l11-11 4 4 16-7"/><path stroke="#005AA0" d="M7 28l8 2 10-6 13 3"/><path stroke="#005AA0" d="M4 4v33h41"/></g></symbol><symbol viewBox="0 0 50 40" id="shortcut-messages-50" xmlns="http://www.w3.org/2000/svg"><g stroke-width="2" fill="none" fill-rule="evenodd"><path d="M23 13h14" stroke="#E30613"/><path stroke="#005AA0" d="M42 10h-7V3"/><path d="M23 9h9" stroke="#E30613"/><path d="M28 28l8 9M18 15V3.043h18L42 9v28h-4m-22-9l-8 9" stroke="#005AA0"/><path stroke="#005AA0" d="M33 20L22 30 11 20"/><path stroke="#005AA0" d="M8 17h28v20H8z"/></g></symbol><symbol viewBox="0 0 50 40" id="shortcut-payment-50" xmlns="http://www.w3.org/2000/svg"><g transform="translate(6 3)" fill="none" fill-rule="evenodd"><path d="M30.44 11.93L28.113.29l-14.01 2.95-1.028.22m-3.245.656L2.853 5.591l2.163 10.766.054.163" stroke="#005AA0" stroke-width="2"/><path d="M22 12l-.6 3" stroke="#0058A0" stroke-width="1.5"/><ellipse stroke="#0058A0" stroke-width="1.5" cx="24.697" cy="14.262" rx="1.028" ry="1.039"/><ellipse stroke="#0058A0" stroke-width="1.5" cx="28.163" cy="14.961" rx="1.028" ry="1.039"/><path d="M18.919 4.06l.594 3.006" stroke="#E30613" stroke-width="1.5"/><ellipse stroke="#E30613" stroke-width="1.5" cx="21.838" cy="4.99" rx="1.028" ry="1.039"/><ellipse stroke="#E30613" stroke-width="1.5" cx="25.302" cy="4.279" rx="1.028" ry="1.039"/><path stroke="#005AA0" stroke-width="2" d="M7.756 22.133L4 21.34 7.005 7.426 32 12.663l-3.004 13.913-12.283-2.592M6 30.902c0 1.622-1.28 2.95-2.845 2.95a2.832 2.832 0 01-2.18-1.034 2.984 2.984 0 01-.427-.738 3.013 3.013 0 01-.237-1.13c0-1.623 1.28-2.95 2.844-2.95C4.72 28 6 29.278 6 30.902h0z"/><circle stroke="#005AA0" stroke-width="2" cx="11.5" cy="26.5" r="3.5"/><path stroke="#005AA0" stroke-width="2" d="M26 29l5 5 10-10"/></g></symbol><symbol viewBox="0 0 50 40" id="shortcut-report-damage-50" xmlns="http://www.w3.org/2000/svg"><g stroke-width="2" fill="none" fill-rule="evenodd"><path d="M36 8h9c1.2 0 2 .8 2 2v25c0 1.2-.8 2-2 2H6c-1.2 0-2-.8-2-2V10c0-1.2.8-2 2-2h28M24 3c-2.44 0-5 2.56-5 5h13c.08-2.44-1.951-5-4.393-5H24z" stroke="#005AA0"/><path stroke="#E30613" d="M33 24.036h-5V19h-4v5.036h-5V28h5v5h4v-5h5z"/><path d="M7 15h37" stroke="#005AA0"/></g></symbol><symbol viewBox="0 0 50 40" id="shortcut-transfer-50" xmlns="http://www.w3.org/2000/svg"><g stroke-width="2" fill="none" fill-rule="evenodd"><path d="M19 10h11" stroke="#E30613"/><path d="M21 30h11m2-1v6l12-10-12-10v5H17v5L4 15 17 5v6" stroke="#005AA0"/></g></symbol><symbol viewBox="0 0 32 32" id="subsidiaries-32" xmlns="http://www.w3.org/2000/svg"><g fill="currentColor"><path d="M12 7v6h8V7h-8zm-2-2h12v10H10V5zm5 18v2h2v-2h-2zm-2-2h6v6h-6v-6zm11 2v2h2v-2h-2zm-2-2h6v6h-6v-6zM6 23v2h2v-2H6zm-2-2h6v6H4v-6z"/><path d="M8 19v3H6v-5h20v5h-2v-3z"/><path d="M15 13.5h2V22h-2z"/></g></symbol><symbol viewBox="0 0 32 32" id="travel_plane-32" xmlns="http://www.w3.org/2000/svg"><g fill="currentColor"><path d="M14.52 22.31l-1.45 1.38-2.886-3.035 5.183-1.696 5.365 1.369-.495 1.938-4.8-1.225-1.621.53z"/><path d="M11.391 26.766l5.287-1.532-.85 3.319 1.288-.373 4-4.223.261-.076 6.005-1.739a.853.853 0 00.563-.514l-2.808-.598-12.86 3.723-2.567.743-2.548-1.359-2.076.445.998.928 5.307 1.256zm.052 2.068l-6.334-1.5L.914 23.43l6.544-1.402 2.476 1.321 1.787-.517 13.342-3.862 4.652.99.169.572a2.842 2.842 0 01-1.946 3.531l-5.743 1.664-4.001 4.223-5.173 1.497.85-3.317-2.428.704zM20 16.494a.5.5 0 10-1 .012.5.5 0 001-.012zm2-.023a2.5 2.5 0 11-5 .058 2.5 2.5 0 015-.058zM15.903 5.743C18.22 6.138 20 8.027 20 10.333a4.4 4.4 0 01-.528 2.09l-1.762-.946c.19-.355.29-.742.29-1.144 0-1.452-1.325-2.666-3-2.666h-1v-1C14 5.214 12.676 4 11 4 9.325 4 8 5.214 8 6.667v1H7c-1.676 0-3 1.214-3 2.666C4 11.786 5.324 13 7 13h1.8v2H7c-2.743 0-5-2.07-5-4.667 0-2.306 1.779-4.195 4.097-4.59C6.557 3.595 8.592 2 11 2c2.409 0 4.443 1.595 4.903 3.743z"/><path d="M15 13.5a1.5 1.5 0 10-3 0 1.5 1.5 0 003 0zm2 0a3.5 3.5 0 11-7 0 3.5 3.5 0 017 0z"/></g></symbol><symbol viewBox="0 0 56 56" id="twitter-56" xmlns="http://www.w3.org/2000/svg"><g fill="currentColor" fill-rule="evenodd"><path d="M0 56h56V0H0v56zm2.887-2.887h50.226V2.887H2.887v50.226z"/><path d="M23.328 40.31c11.05 0 17.093-9.154 17.093-17.092 0-.167-.002-.333-.007-.498a.536.536 0 01.21-.443c.898-.68 1.7-1.484 2.377-2.384.12-.158-.042-.375-.228-.305a12.06 12.06 0 01-2.631.664c-.044.006-.066-.054-.03-.077a6.044 6.044 0 002.234-2.583.244.244 0 00-.335-.315c-.92.479-1.909.843-2.948 1.074a.53.53 0 01-.48-.139 6.009 6.009 0 00-10.117 5.305.298.298 0 01-.315.35A17.047 17.047 0 0116.51 18.03a.368.368 0 00-.61.081 5.98 5.98 0 00-.555 2.522c0 2.015.99 3.8 2.514 4.89.045.032.021.104-.035.101a5.956 5.956 0 01-2.17-.56.244.244 0 00-.346.238c.012.205.032.41.06.59a6.015 6.015 0 004.536 4.91c.053.012.052.088-.001.1a6.014 6.014 0 01-2.171.102.2.2 0 00-.216.269 6.018 6.018 0 004.978 3.818c.177.018.24.247.096.35a12.054 12.054 0 01-7.037 2.254h-.123c-.33 0-.441.44-.15.597a16.987 16.987 0 008.05 2.018"/></g></symbol><symbol viewBox="0 0 56 56" id="youtube-56" xmlns="http://www.w3.org/2000/svg"><g fill="currentColor" fill-rule="evenodd"><path d="M0 56h56V0H0v56zm2.887-2.887h50.226V2.887H2.887v50.226z"/><path d="M24.769 31.776l-.001-8.794 8.456 4.412-8.455 4.382zM43.336 21.46s-.306-2.157-1.244-3.107c-1.19-1.246-2.524-1.252-3.136-1.325-4.38-.317-10.95-.317-10.95-.317h-.013s-6.57 0-10.95.317c-.611.073-1.944.08-3.135 1.325-.938.95-1.244 3.107-1.244 3.107s-.313 2.533-.313 5.065V28.9c0 2.532.313 5.065.313 5.065s.306 2.157 1.244 3.107c1.19 1.246 2.755 1.207 3.45 1.337 2.505.24 10.642.315 10.642.315s6.576-.01 10.956-.327c.612-.073 1.946-.079 3.136-1.325.938-.95 1.244-3.107 1.244-3.107s.313-2.533.313-5.065v-2.375c0-2.532-.313-5.065-.313-5.065z"/></g></symbol></svg>