<?xml version="1.0" encoding="utf-8"?><svg xmlns="http://www.w3.org/2000/svg" xmlns:xlink="http://www.w3.org/1999/xlink"><symbol viewBox="0 0 64 64" id="icon-multicolor-chat-heart-64" xmlns="http://www.w3.org/2000/svg"><g fill="none" fill-rule="evenodd"><path d="M26.127 25.015c-.809 0-1.618.3-2.22.902a3.115 3.115 0 00-.907 2.22c0 .848.322 1.636.907 2.22L30 36.452l6.093-6.093a3.112 3.112 0 00.907-2.22c0-.847-.322-1.636-.907-2.221-1.204-1.204-3.238-1.203-4.441 0L30 27.572l-1.652-1.654a3.135 3.135 0 00-2.221-.902zM30 39.279l-7.507-7.507A5.097 5.097 0 0121 28.138a5.1 5.1 0 011.493-3.635 5.147 5.147 0 017.269 0l.238.239.238-.24a5.146 5.146 0 017.269 0A5.1 5.1 0 0139 28.139c0 1.38-.53 2.672-1.493 3.634L30 39.279z" fill="#E30613"/><path d="M38.222 15H21.86C12.45 15 5.043 21.637 5 30.125c.043 8.615 6.754 14.913 16 14.913h5.997L38 55.954V43.019h-2v8.072l-8-8.072h-7c-7.337 0-13.964-6.09-14-12.894.036-6.707 6.32-13.252 15-13.125h16.313C42.1 17 46.258 18.54 49 21.217c2.742 2.677 4.057 5.794 4 8.93.059 3.101-1.733 7.007-4.006 9.183-2.353 2.254-4.63 3.689-8.037 3.689L41 45.038c4.359 0 6.521-1.462 9.542-4.353 2.948-2.826 4.53-6.589 4.455-10.538.074-3.942-1.483-7.643-4.385-10.422C47.475 16.722 42.959 15 38.222 15z" fill="#005AA0"/><path d="M44.424 8.466l.576 4.64m5 2.384L53.593 11M59 16l-4 2.698" stroke="#005AA0" stroke-width="2"/></g></symbol><symbol viewBox="0 0 64 64" id="icon-multicolor-dog-left-64" xmlns="http://www.w3.org/2000/svg"><g transform="translate(5 2)" stroke-width="2" fill="none" fill-rule="evenodd"><path d="M25.316 53c-4.662-1.032-7.784-5.285-7.258-9.888.526-4.603 4.533-8.093 9.315-8.112A10.19 10.19 0 0133 36.773" stroke="#E30613"/><path d="M13 54H5.625c-.7-.012-1.373.298-1.867.86-.495.56-.768 1.325-.758 2.118V60h12m-1-43.219a9.569 9.569 0 01-7.065.916c-2.387-.615-4.422-2.124-5.655-4.194A8.37 8.37 0 01.068 8" stroke="#005AA0"/><circle stroke="#005AA0" cx=".5" cy="5.5" r=".5"/><path d="M22.293 11.406v3.079c0 2.494 1.95 4.515 4.354 4.515S31 16.979 31 14.485v-2.052C30.538 6.858 26.83 2.147 21.658.559 16.485-1.028 10.903.833 7.59 5.25H3" stroke="#005AA0"/><path d="M11 22v30" stroke="#005AA0" fill="#000"/><path d="M54 39c-.017 6.068-4.932 10.983-11 11m-22.323 4.55h-2.972a2.67 2.67 0 00-1.924.78c-.51.51-.791.95-.78 1.67v3h25.224c5.202-15.026-1.354-30.599-15.426-38" stroke="#005AA0"/></g></symbol><symbol viewBox="0 0 64 64" id="icon-multicolor-dog-right-64" xmlns="http://www.w3.org/2000/svg"><g transform="matrix(-1 0 0 1 59 2)" stroke-width="2" fill="none" fill-rule="evenodd"><path d="M25.316 53c-4.662-1.032-7.784-5.285-7.258-9.888.526-4.603 4.533-8.093 9.315-8.112A10.19 10.19 0 0133 36.773" stroke="#E30613"/><path d="M13 54H5.625c-.7-.012-1.373.298-1.867.86-.495.56-.768 1.325-.758 2.118V60h12m-1-43.219a9.569 9.569 0 01-7.065.916c-2.387-.615-4.422-2.124-5.655-4.194A8.37 8.37 0 01.068 8" stroke="#005AA0"/><circle stroke="#005AA0" cx=".5" cy="5.5" r=".5"/><path d="M22.293 11.406v3.079c0 2.494 1.95 4.515 4.354 4.515S31 16.979 31 14.485v-2.052C30.538 6.858 26.83 2.147 21.658.559 16.485-1.028 10.903.833 7.59 5.25H3" stroke="#005AA0"/><path d="M11 22v30" stroke="#005AA0" fill="#000"/><path d="M54 39c-.017 6.068-4.932 10.983-11 11m-22.323 4.55h-2.972a2.67 2.67 0 00-1.924.78c-.51.51-.791.95-.78 1.67v3h25.224c5.202-15.026-1.354-30.599-15.426-38" stroke="#005AA0"/></g></symbol><symbol viewBox="0 0 64 64" id="icon-multicolor-happy-accepted-64" xmlns="http://www.w3.org/2000/svg"><defs><path id="da" d="M34.503.25h-3.33v6.907h3.33z"/></defs><g transform="translate(8 1)" fill="none" fill-rule="evenodd"><path d="M23 54.985c-12.682 0-23-10.317-23-23s10.318-23 23-23c6.694 0 13.07 2.927 17.493 8.03l-1.512 1.31c-4.042-4.665-9.867-7.34-15.981-7.34-11.58 0-21 9.421-21 21 0 11.58 9.42 21 21 21s21-9.42 21-21c0-2.337-.372-4.639-1.106-6.84l-.06-.16H28.158c-11.896 0-14.039-7.579-14.125-7.9l1.932-.519c.073.262 1.906 6.42 12.193 6.42h16.061l.56 1.491A23.634 23.634 0 0146 31.985c0 12.683-10.318 23-23 23" fill="#005AA0" fill-rule="nonzero"/><path d="M19.275 31.388h-2c0-.833-.73-1.563-1.56-1.563-.83 0-1.557.73-1.557 1.563h-2c0-1.932 1.63-3.563 3.558-3.563 1.93 0 3.559 1.63 3.559 3.563m14.855 0h-2c0-.833-.73-1.563-1.56-1.563-.83 0-1.558.73-1.558 1.563h-2c0-1.932 1.63-3.563 3.558-3.563 1.93 0 3.56 1.63 3.56 3.563M23.804 44.934c-3.155 0-6.132-1.242-8.383-3.497l1.415-1.412c1.874 1.876 4.348 2.909 6.968 2.909s5.095-1.033 6.968-2.91l1.415 1.413c-2.25 2.255-5.228 3.497-8.383 3.497" fill="#005AA0" fill-rule="nonzero"/><path fill="#E30613" fill-rule="nonzero" d="M41.291 11.05l-1.6-1.201 3.99-5.312 1.6 1.2zm4.774 7.142l-.94-1.767 5.857-3.115.939 1.766z"/><mask id="db" fill="#fff"><use xlink:href="#da"/></mask><path fill="#E30613" fill-rule="nonzero" mask="url(#db)" d="M33.13 7.157l-1.958-.414L32.546.25l1.957.414z"/></g></symbol><symbol viewBox="0 0 64 64" id="icon-multicolor-sad-declined-64" xmlns="http://www.w3.org/2000/svg"><defs><path id="ea" d="M34.503.25h-3.33v6.907h3.33z"/></defs><g transform="translate(8 1)" fill="none" fill-rule="evenodd"><path d="M23 54.985c-12.682 0-23-10.317-23-23s10.318-23 23-23c6.694 0 13.07 2.927 17.493 8.03l-1.512 1.31c-4.042-4.665-9.867-7.34-15.981-7.34-11.58 0-21 9.421-21 21 0 11.58 9.42 21 21 21s21-9.42 21-21c0-2.337-.372-4.639-1.106-6.84l-.06-.16H28.158c-11.896 0-14.039-7.579-14.125-7.9l1.932-.519c.073.262 1.906 6.42 12.193 6.42h16.061l.56 1.491A23.634 23.634 0 0146 31.985c0 12.683-10.318 23-23 23" fill="#005AA0" fill-rule="nonzero"/><path d="M23 47c-3.325 0-6-2.676-6-6s2.675-6 6-6a5.986 5.986 0 015.998 6c.081 3.243-2.675 6-5.999 6zm-.002-10C20.818 37 19 38.818 19 41s1.817 4 3.998 4 3.999-1.818 3.999-4c.09-2.182-1.727-4-3.999-4z" fill="#005AA0" fill-rule="nonzero"/><circle fill="#005AA0" fill-rule="nonzero" cx="14.25" cy="29.25" r="1.25"/><circle fill="#005AA0" fill-rule="nonzero" cx="31.25" cy="29.25" r="1.25"/><path fill="#E30613" fill-rule="nonzero" d="M41.291 11.05l-1.6-1.201 3.99-5.312 1.6 1.2zm4.774 7.142l-.94-1.767 5.857-3.115.939 1.766z"/><mask id="eb" fill="#fff"><use xlink:href="#ea"/></mask><path fill="#E30613" fill-rule="nonzero" mask="url(#eb)" d="M33.13 7.157l-1.958-.414L32.546.25l1.957.414z"/></g></symbol></svg>