<?xml version="1.0" encoding="utf-8"?><svg xmlns="http://www.w3.org/2000/svg" xmlns:xlink="http://www.w3.org/1999/xlink"><symbol viewBox="0 0 40 40" id="apartment-40" xmlns="http://www.w3.org/2000/svg"><g fill="none" fill-rule="evenodd"><path d="M0 0h40v40H0z"/><path d="M36 2v34h2v2H13v-2h3V26h8v10h10V4H6v32h4v2H2v-2h2V2h32zM22 28h-4v8h4v-8zm10-2v6h-6v-6h6zm-18 0v6H8v-6h6zm16 2h-2v2h2v-2zm-18 0h-2v2h2v-2zm20-12v6h-6v-6h6zm-9 0v6h-6v-6h6zm-9 0v6H8v-6h6zm16 2h-2v2h2v-2zm-9 0h-2v2h2v-2zm-9 0h-2v2h2v-2zM32 6v6h-6V6h6zm-9 0v6h-6V6h6zm-9 0v6H8V6h6zm16 2h-2v2h2V8zm-9 0h-2v2h2V8zm-9 0h-2v2h2V8z" fill="currentColor" fill-rule="nonzero"/></g></symbol><symbol viewBox="0 0 40 40" id="arrows-apart-40" xmlns="http://www.w3.org/2000/svg"><g fill="none" fill-rule="evenodd"><path d="M0 0h40v40H0z"/><path d="M15 4.755V11h6v2h-8V9.244L5.494 16 13 22.755V19h12v-6.245L37.495 24 25 35.245V29h-6v-2h8v3.754l7.505-6.755L27 17.245V21H15v6.245L2.505 16z" fill="currentColor" fill-rule="nonzero"/></g></symbol><symbol viewBox="0 0 40 40" id="atv-40" xmlns="http://www.w3.org/2000/svg"><g fill="none" fill-rule="evenodd"><path d="M0 0h40v40H0z"/><path d="M21.331 6.835L26.47 13h4.066l2.157 3.232a9.425 9.425 0 013.072.807l.33.157-.897 1.788a7.444 7.444 0 00-3.347-.789 7.45 7.45 0 00-4.136 1.247l1.22 1.4a6 6 0 11-1.525 1.295l-1.2-1.375a7.449 7.449 0 00-1.835 4.67l-.004.243h-2c0-.572.05-1.132.148-1.675h-5.932l-2.524-2.524-1.12 1.122c.628.909 1.01 2 1.054 3.177L14 26a6 6 0 11-2.451-4.838l1.099-1.1-2.355-2.355 1.414-1.414 5.707 5.706h5.695a9.493 9.493 0 017.232-5.684L29.464 15h-3.932l-1.538-1.846-7.308 4.177L14.464 14H4v2h5v2H2v-6h13.535l1.779 2.668 5.379-3.074-2.025-2.43-2.352.785-.632-1.898 3.647-1.216zM8 22a4 4 0 103.492 2.049l-2.535 2.533-1.414-1.414 2.566-2.567A3.981 3.981 0 008 22zm24 0c-.615 0-1.197.139-1.717.386l2.47 2.831-1.506 1.316-2.499-2.863A4 4 0 1032 22z" fill="currentColor" fill-rule="nonzero"/></g></symbol><symbol viewBox="0 0 40 40" id="baby-40" xmlns="http://www.w3.org/2000/svg"><g fill="none" fill-rule="evenodd"><path d="M0 0h40v40H0z"/><path d="M24.74 2.365l.174.045.157.049a4.013 4.013 0 012.6 4.706l-.052.2a4.013 4.013 0 01-4.484 2.853l-.008.03a12.684 12.684 0 00-3.303-.436c-6.996 0-12.668 5.672-12.668 12.668 0 6.996 5.672 12.668 12.668 12.668 6.996 0 12.667-5.672 12.667-12.668 0-4.01-1.875-7.703-4.995-10.08l-.287-.213 1.167-1.624A14.647 14.647 0 0134.49 22.48c0 8.1-6.567 14.668-14.667 14.668S5.156 30.58 5.156 22.48 11.723 7.812 19.824 7.812c1.14 0 2.265.131 3.357.387l.02.004.004-.014a2.013 2.013 0 001.258-3.824l-.107-.035-.09-.019c-.37-.056-.735.107-.846.302l-.026.059c-.127.443.059.722.814.595l.148-.029.423 1.955c-2.47.535-3.833-1.244-3.307-3.075.378-1.31 1.875-2.049 3.268-1.753zm-3.76 26.5l1.413 1.415a6.262 6.262 0 01-4.438 1.836 6.258 6.258 0 01-4.224-1.632l-.215-.204 1.415-1.414a4.258 4.258 0 003.024 1.25 4.262 4.262 0 002.846-1.082l.178-.169zm-4.353-6.69l.013.172-1.998.093a.916.916 0 00-1.829-.021v.107l-1.999.093a2.916 2.916 0 015.813-.443zm8.215-.306l.013.17-1.998.093a.916.916 0 00-1.828-.021l-.002.107-1.997.094a2.915 2.915 0 015.812-.443z" fill="currentColor" fill-rule="nonzero"/></g></symbol><symbol viewBox="0 0 40 40" id="bank-40" xmlns="http://www.w3.org/2000/svg"><g fill="none" fill-rule="evenodd"><path d="M0 0h40v40H0z"/><path d="M33 18v15h5v5H2v-5h5V18H5v-3.874H2V9h6.418L20 2.869 31.582 9H38v5.126h-3V18h-2zm3 17H4v1h32v-1zm-9-17h-4v15h4V18zm-10 0h-4v15h4V18zm-6 0H9v15h2V18zm10 0h-2v15h2V18zm10 0h-2v15h2V18zM20 5.131L8.915 11H4v1.126h6.696l9.325-4.693 8.523 4.693H36V11h-4.915L20 5.131zm13 8.995h-4.97l-8.05-4.433-8.81 4.433H7V16h26v-1.874z" fill="currentColor" fill-rule="nonzero"/></g></symbol><symbol viewBox="0 0 40 40" id="bankid-40" xmlns="http://www.w3.org/2000/svg"><g fill="none" fill-rule="evenodd"><path d="M0 0h40v40H0z"/><g fill="currentColor" fill-rule="nonzero"><path d="M13.367 21.094l1.447-9.685h-1.546c-.723 0-1.655-.43-1.93-1.222-.087-.268-.295-1.187.9-2.084.427-.314.701-.663.756-.931.055-.28-.01-.524-.197-.71-.263-.268-.779-.42-1.436-.42-1.107 0-1.886.676-1.962 1.165-.055.36.208.652.438.838.69.547.855 1.339.428 2.084-.439.768-1.392 1.269-2.412 1.28H6.275c-.132.943-2.28 15.4-2.444 16.542h8.56c.077-.513.471-3.248 1.009-6.857h-.033zM25.17 3h-9.138l-1.218 7.81h1.551c.851 0 1.656-.394 2-.963a.938.938 0 00.161-.5c0-.324-.218-.568-.436-.73-.598-.453-.725-.929-.725-1.265 0-.07 0-.128.012-.186.126-.824 1.23-1.717 2.69-1.717.873 0 1.54.209 1.942.591.357.337.495.813.391 1.312-.126.592-.713 1.08-1.046 1.323-.885.626-.77 1.172-.713 1.334.184.488.886.801 1.426.801h2.356v.012c3.219.023 4.943 1.52 4.403 5.001-.506 3.238-2.966 4.63-5.897 4.654l-1.161 7.474h1.713c7.23 0 13.138-4.689 14.3-12.093C39.216 6.668 33.446 3 25.17 3z"/><path d="M25.17 3h-9.138l-1.218 7.81h1.551c.851 0 1.656-.394 2-.963a.938.938 0 00.161-.5c0-.324-.218-.568-.436-.73-.598-.453-.725-.929-.725-1.265 0-.07 0-.128.012-.186.126-.824 1.23-1.717 2.69-1.717.873 0 1.54.209 1.942.591.357.337.495.813.391 1.312-.126.592-.713 1.08-1.046 1.323-.885.626-.77 1.172-.713 1.334.184.488.886.801 1.426.801h2.356v.012c3.219.023 4.943 1.52 4.403 5.001-.506 3.238-2.966 4.63-5.897 4.654l-1.161 7.474h1.713c7.23 0 13.138-4.689 14.3-12.093C39.216 6.668 33.446 3 25.17 3zM2.99 30.409h3.627c1.546 0 1.922.825 1.808 1.578-.091.61-.49 1.064-1.171 1.362.864.347 1.205.885 1.08 1.734-.16 1.064-1.035 1.853-2.183 1.853H2.023l.966-6.527zm2.399 2.701c.705 0 1.034-.394 1.103-.86.068-.502-.148-.85-.853-.85h-.626l-.25 1.71h.626zm-.387 2.821c.728 0 1.149-.31 1.25-.944.08-.55-.215-.873-.92-.873h-.717l-.273 1.83h.66v-.013zm8.415 1.052c-.944.072-1.399-.036-1.626-.466-.5.323-1.058.49-1.65.49-1.068 0-1.443-.586-1.34-1.231.045-.31.215-.61.488-.86.591-.539 2.047-.61 2.615-1.017.046-.454-.125-.621-.66-.621-.625 0-1.148.215-2.046.86l.216-1.482c.773-.586 1.524-.86 2.388-.86 1.103 0 2.081.478 1.9 1.745l-.217 1.434c-.08.502-.057.658.478.67l-.546 1.338zm-1.638-2.247c-.5.335-1.432.275-1.535.968-.045.323.148.562.455.562.296 0 .66-.131.955-.347-.022-.12-.011-.239.023-.466l.102-.717zm3.401-2.856h1.887l-.102.657c.602-.538 1.057-.742 1.649-.742 1.057 0 1.546.682 1.375 1.793l-.489 3.336h-1.887l.41-2.762c.079-.502-.069-.74-.433-.74-.296 0-.568.166-.83.537l-.432 2.953H14.44l.74-5.033zm6.276-1.471h1.888l-.478 3.203 1.808-1.733h2.332l-2.32 2.152 1.865 2.893h-2.377l-1.433-2.331h-.022l-.342 2.33H20.49zM28.582 30.41h2.049l-.901 6.632h-2.05zm3.047 0h2.929c2.263 0 2.918 1.861 2.703 3.407-.204 1.51-1.255 3.225-3.24 3.225h-3.304l.912-6.633zm1.899 5.05c.997 0 1.545-.56 1.705-1.74.118-.877-.118-1.74-1.223-1.74h-.547l-.472 3.48h.537z"/></g></g></symbol><symbol viewBox="0 0 40 40" id="bike-40" xmlns="http://www.w3.org/2000/svg"><g fill="none" fill-rule="evenodd"><path d="M0 0h40v40H0z"/><g fill="currentColor" fill-rule="nonzero"><path d="M9 17a8 8 0 105.467 2.16L13.1 20.62A6 6 0 119 19v-2zm14.07 10.865C24.283 30.937 27.327 33 30.763 33 35.305 33 39 29.426 39 25s-3.695-8-8.237-8a8.45 8.45 0 00-.916.049l.214 1.988c.232-.024.466-.037.702-.037C34.215 19 37 21.694 37 25s-2.785 6-6.237 6c-2.616 0-4.922-1.563-5.833-3.87l-1.86.735z"/><path d="M24.024 14l5.312 10h-7.319l-7.149-12.497-1.736.994L20.858 26h11.806l-7.438-14H18.25v2z"/><path d="M16.263 8H20V6h-5.136L8.06 24.657l1.878.686zm7.343 2.5h5.227a1 1 0 100-2h-5.227a1 1 0 100 2zm-.636 14.743l3-12-1.94-.486-3 12z"/></g></g></symbol><symbol viewBox="0 0 40 40" id="bills-coins-40" xmlns="http://www.w3.org/2000/svg"><g fill="none" fill-rule="evenodd"><path d="M0 0h40v40H0z"/><g fill="currentColor" fill-rule="nonzero"><path d="M33.006 4.898l1.213 6.456 1.965-.37-1.59-8.466-18.286 3.859.413 1.957zM20 22.5a5.5 5.5 0 10-11 0 5.5 5.5 0 0011 0zm-9 0a3.5 3.5 0 117 0 3.5 3.5 0 01-7 0zm13 11a4.5 4.5 0 10-9 0 4.5 4.5 0 009 0zm-7 0a2.5 2.5 0 115 0 2.5 2.5 0 01-5 0z"/><path d="M4.946 20.05L7.867 6.424 35.24 12.18l-2.92 13.625-13.45-2.828-.412 1.957 15.398 3.238 3.76-17.536L6.329 4.058 2.57 21.593l6.979 1.468.411-1.958z"/></g></g></symbol><symbol viewBox="0 0 40 40" id="bird-40" xmlns="http://www.w3.org/2000/svg"><g fill="none" fill-rule="evenodd"><path d="M0 0h40v40H0z"/><path d="M34.795 10.049l.285.022.29.029 1.626.197-3.353 4.947.01 1.428-.009.695c-.033 1.433-.17 2.434-.524 3.597-.645 2.115-1.93 3.883-4.022 5.262a8.344 8.344 0 01-.31.195l-.352 5.791-1.996-.12.29-4.767c-.71.217-1.458.364-2.23.448l.726 4.722-1.977.304-.761-4.947c-2.843-.067-5.86-.848-8.498-2.013-2.955 2.126-6.64 3.896-11.068 5.324l-.626.198-.592-1.91c5.815-1.805 10.276-4.18 13.44-7.13l.674-.648.374-.371.283-.292.367-.4.287-.328.426-.509.652-.807 1.048-1.32c.167-.212.326-.41.478-.598l.442-.534a20.53 20.53 0 011.676-1.778c.246-.231.499-.457.762-.68l.402-.33 1.25 1.562a17.182 17.182 0 00-1.625 1.477l-.375.399c-.126.137-.252.28-.381.43l-.4.472-.43.53-1.716 2.156-.585.71-.404.465-.287.315-.32.337-.345.346-.529.515c-.342.333-.699.66-1.07.98l.05.019c4.168 1.585 9.173 2.08 12.15.117 1.694-1.117 2.697-2.497 3.209-4.175.34-1.117.442-2.097.445-3.754l-.009-1.258.003-.451.004-.298 1.777-2.622h-.226c-.993.005-2.02.089-3.017.279l-.494.104c-.262.06-.515.127-.76.201l-.221.071.041.15.092.362c.207.845.35 1.685.4 2.483a7.865 7.865 0 01-.043 1.56c-.274 2.293-1.74 3.937-3.967 5.012-1.28.619-2.655.985-3.917 1.172l-.417.055-.237-1.985c1.172-.14 2.51-.468 3.701-1.043 1.668-.805 2.67-1.928 2.854-3.467.048-.345.057-.742.03-1.179a12.438 12.438 0 00-.346-2.134c-.054-.22-.11-.43-.167-.628l-.115-.381-.08-.243-.31-.873.848-.375c.669-.297 1.393-.53 2.166-.708 1.86-.427 3.805-.504 5.553-.382z" fill="currentColor" fill-rule="nonzero"/></g></symbol><symbol viewBox="0 0 40 40" id="block-card-40" xmlns="http://www.w3.org/2000/svg"><g fill="currentColor"><path d="M21 30l.002-2H5.863c-.99 0-1.855-.813-1.855-1.685v-15.63C4.008 9.813 4.873 9 5.863 9h25.32c1.05 0 1.881.79 1.822 1.613l-.003 7.372h2v-7.3C35.147 8.715 33.34 7 31.182 7H5.864c-2.068 0-3.855 1.68-3.855 3.685v15.63C2.008 28.32 3.795 30 5.863 30h15.139v-2L21 30z"/><path d="M33.731 13H3.281v2h30.45zM7 20h12v-2H7zm0 3h6v-2H7zm23.5 9a5.5 5.5 0 100-11 5.5 5.5 0 000 11zm0 2a7.5 7.5 0 110-15 7.5 7.5 0 010 15z"/><path d="M25.086 22.5l9.765 9.765 1.414-1.414-9.765-9.765z"/></g></symbol><symbol viewBox="0 0 40 40" id="boat-40" xmlns="http://www.w3.org/2000/svg"><g fill="none" fill-rule="evenodd"><path d="M0 0h40v40H0z"/><g fill="currentColor"><path d="M1.681 33.922l2.107.708a6 6 0 004.156-.123l3.003-1.211a4 4 0 012.77-.082l4.372 1.469a6 6 0 003.822 0l4.371-1.47a4 4 0 012.77.083l3.004 1.21a6 6 0 004.156.124l2.107-.708-.638-1.896-2.106.708a4 4 0 01-2.77-.082L29.8 31.441a6 6 0 00-4.156-.123l-4.37 1.469a4 4 0 01-2.55 0l-4.37-1.47a6 6 0 00-4.156.124l-3.003 1.211a4 4 0 01-2.77.082l-2.107-.708-.638 1.896zM20 17.005l13.075 1.26-4.756 11.348 1.845.774 4.756-11.349a2 2 0 00-1.653-2.764l-13.17-1.27h-.193l-13.17 1.27a2 2 0 00-1.653 2.764l4.756 11.349 1.844-.774-4.756-11.348L20 17.005z" fill-rule="nonzero"/><path fill-rule="nonzero" d="M19 19v10h2V19zm-8.058-3.664l2.026-5.672A1 1 0 0113.909 9h12.182a1 1 0 01.941.664l2.026 5.672 1.884-.672-2.026-5.673A3 3 0 0026.09 7H13.909a3 3 0 00-2.825 1.991l-2.026 5.673 1.884.672z"/><path d="M19 4h2a1 1 0 011 1v2h-4V5a1 1 0 011-1z"/></g></g></symbol><symbol viewBox="0 0 40 40" id="briefcase-40" xmlns="http://www.w3.org/2000/svg"><g fill="none" fill-rule="evenodd"><path d="M0 0h40v40H0z"/><path d="M28 5v5h7.5a2.5 2.5 0 012.5 2.5v20a2.5 2.5 0 01-2.5 2.5h-31A2.5 2.5 0 012 32.5v-20A2.5 2.5 0 014.5 10H12V5h16zm8 10.134L31.362 19H8.638L4 15.135V32.5a.5.5 0 00.5.5h31a.5.5 0 00.5-.5V15.134zM30 21v10h-2V21h2zm-18 0v10h-2V21h2zm7-2v2h2v-2h2v4h-6v-4h2zm16.5-7h-31a.5.5 0 00-.5.5v.031L9.362 17h21.276L36 12.53v-.03a.5.5 0 00-.5-.5zM26 7H14v3h12V7z" fill="currentColor" fill-rule="nonzero"/></g></symbol><symbol viewBox="0 0 40 40" id="briefcase-first-aid-40" xmlns="http://www.w3.org/2000/svg"><g fill="currentColor"><path d="M34.183 32c1.111 0 1.884-.753 1.819-1.688l.003-18.696c.06-.826-.773-1.616-1.822-1.616H5.863c-.99 0-1.855.814-1.855 1.688v18.624c0 .874.865 1.688 1.855 1.688h28.32zM2.008 30.312V11.688C2.008 9.682 3.794 8 5.863 8h28.32c2.157 0 3.964 1.716 3.819 3.688l-.003 18.552c.15 2.07-1.587 3.76-3.816 3.76H5.863c-2.069 0-3.855-1.682-3.855-3.688z"/><path d="M7 9.5v24h2v-24zm24 0v24h2v-24zm-15.992-.188V6.688c0-.874.865-1.688 1.855-1.688h6.32c1.049 0 1.881.79 1.822 1.616l-.003 2.696h2V6.688C27.147 4.716 25.34 3 23.182 3h-6.319c-2.069 0-3.855 1.682-3.855 3.688v2.624h2zM25 20v2h-4v2h6v-6h-6v2zm-10 2v-2h4v-2h-6v6h6v-2z"/><path d="M21 16v4h2v-6h-6v6h2v-4zm0 10h-2v-4h-2v6h6v-6h-2z"/></g></symbol><symbol viewBox="0 0 40 40" id="car-40" xmlns="http://www.w3.org/2000/svg"><g fill="none" fill-rule="evenodd"><path d="M0 0h40v40H0z"/><path d="M20 5c6.02 0 9.086.873 10.78 2.642l.634.65c.295.312.56.62.833.971.565.73 1.118 1.607 1.686 2.706l.176.348 3.197.85c.938.196 1.615 1.003 1.688 1.954l.006.169v1.377c0 1.187-.938 2.166-2.118 2.166l.1-.004.07.289c.377 1.615.625 3.636.694 5.452l.015.539.004.443v3.781c0 .775-.4 1.46-1.004 1.844l-.114.066v1.59c0 1.136-.858 2.081-1.965 2.162l-.153.005h-3.47c-1.18 0-2.118-.98-2.117-2.199l.025-.801H10.968l-.033.994c-.076 1.063-.905 1.924-1.96 2l-.15.006H5.47c-1.18 0-2.118-.98-2.118-2.167l-.001-1.59-.113-.066a2.177 2.177 0 01-.998-1.69l-.006-.154v-3.781c0-2.038.267-4.52.712-6.434l.07-.289-.052-.001c-1.056-.077-1.886-.942-1.96-2.008L1 16.667V15.29c0-1.023.701-1.916 1.642-2.11l3.248-.863.177-.348c.505-.977.998-1.778 1.498-2.457l.188-.249c.272-.352.538-.659.833-.97l.76-.78C11.065 5.832 14.126 5 20 5zm0 2l-.41.001c-5.246.036-7.718.763-8.927 2.024-1.537 1.605-1.978 2.142-2.896 4.004l-.476.986-4.188 1.11c-.052.01-.103.075-.103.165v1.377c0 .101.063.166.118.166h2.604l-.56 1.751c-.559 1.753-.927 4.684-.927 6.968V26H13v2H4.235v1.333c0 .081.04.14.085.16l.033.007h1v3.333c0 .102.062.167.118.167h3.353c.055 0 .117-.065.118-.199L9.032 30h22l-.09 2.833c0 .102.062.167.117.167h3.47c.056 0 .118-.065.118-.167V29.5h1c.055 0 .118-.065.118-.167L35.764 28H27v-2h8.764v-.448c0-2.15-.325-4.873-.83-6.647l-.097-.32-.559-1.752h2.604c.055 0 .118-.065.118-.166V15.29c0-.09-.05-.155-.155-.178l-4.136-1.097-.341-.711c-.875-1.804-1.298-2.43-2.435-3.65l-.596-.629C28.097 7.731 25.528 7 20 7zm5 19v2H15v-2h10zm5-8a3 3 0 110 6 3 3 0 010-6zm-20 0a3 3 0 110 6 3 3 0 010-6zm20 2a1 1 0 100 2 1 1 0 000-2zm-20 0a1 1 0 100 2 1 1 0 000-2zm18.622-9.49L31.71 16H12v-2h16.29l-1.412-2.51 1.744-.98z" fill="currentColor" fill-rule="nonzero"/></g></symbol><symbol viewBox="0 0 40 40" id="car-damage-40" xmlns="http://www.w3.org/2000/svg"><g fill="none" fill-rule="evenodd"><path d="M0 0h40v40H0z"/><path d="M20 5c6.02 0 9.086.873 10.78 2.642l.634.65c.295.312.56.62.833.971.565.73 1.118 1.607 1.686 2.706l.176.348 3.197.85c.938.196 1.615 1.003 1.688 1.954l.006.169v1.377c0 1.187-.938 2.166-2.118 2.166l.1-.004.07.289c.377 1.615.625 3.636.694 5.452l.015.539.004.443v3.781c0 .775-.4 1.46-1.004 1.844l-.114.066v1.59c0 1.136-.858 2.081-1.965 2.162l-.153.005h-3.47c-1.18 0-2.118-.98-2.117-2.199l.025-.801H10.968l-.033.994c-.076 1.063-.905 1.924-1.96 2l-.15.006H5.47c-1.18 0-2.118-.98-2.118-2.167l-.001-1.59-.113-.066a2.177 2.177 0 01-.998-1.69l-.006-.154v-3.781c0-2.038.267-4.52.712-6.434l.07-.289-.052-.001c-1.056-.077-1.886-.942-1.96-2.008L1 16.667V15.29c0-1.023.701-1.916 1.642-2.11l3.248-.863.177-.348c.505-.977.998-1.778 1.498-2.457l.188-.249c.272-.352.538-.659.833-.97l.76-.78C11.065 5.832 14.126 5 20 5zm0 2l-.41.001c-5.246.036-7.718.763-8.927 2.024-1.537 1.605-1.978 2.142-2.896 4.004l-.476.986-4.188 1.11c-.052.01-.103.075-.103.165v1.377c0 .101.063.166.118.166h2.604l-.56 1.751c-.559 1.753-.927 4.684-.927 6.968V26h18.986v2H4.235v1.333c0 .081.04.14.085.16l.033.007h1v3.333c0 .102.062.167.118.167h3.353c.055 0 .117-.065.118-.199L9.032 30h22l-.09 2.833c0 .102.062.167.117.167h3.47c.056 0 .118-.065.118-.167V29.5h1c.055 0 .118-.065.118-.167v-3.781c0-2.284-.368-5.215-.928-6.968l-.559-1.75h2.604c.055 0 .118-.066.118-.167V15.29c0-.09-.05-.155-.155-.178l-4.136-1.097-.341-.711c-.875-1.804-1.298-2.43-2.435-3.65l-.596-.629C28.097 7.731 25.528 7 20 7zm12.368 19l2.122 1.808-1.297 1.523L31.632 28H25.37v-2h6.998zM30 18v2a1 1 0 10.993 1.117L31 21h2a3 3 0 11-3.176-2.995L30 18zm-20 0a3 3 0 110 6 3 3 0 010-6zm0 2a1 1 0 100 2 1 1 0 000-2zM21.494 7.56l.865.812H26.6l-.544 2.604 2.927-.408L32.976 16H9v-2l20.023-.001-.946-1.285-4.558.637.621-2.979h-2.571L20.126 9.02l1.368-1.46z" fill="currentColor" fill-rule="nonzero"/></g></symbol><symbol viewBox="0 0 40 40" id="caravan-40" xmlns="http://www.w3.org/2000/svg"><g fill="none" fill-rule="evenodd"><path d="M0 0h40v40H0z"/><path d="M19 24a4 4 0 110 8 4 4 0 010-8zm0 2a2 2 0 100 4 2 2 0 000-4zM32.72 9l4.334 13-1.667 5H38v2H24v-2h9.279l1.667-5-3.667-11H5.973l-1.78 10H6v2H4.387l1.333 4H14v2H4.28l-2.31-6.925L4.299 9H32.72zM14 13v13h-2V15H9v11H7V13h7zm9 7v2h-6v-2h6zm5-7v6H17v-6h11zm-2 2h-7v2h7v-2z" fill="currentColor" fill-rule="nonzero"/></g></symbol><symbol viewBox="0 0 40 40" id="card-40" xmlns="http://www.w3.org/2000/svg"><g fill="currentColor"><path d="M34.183 30c1.111 0 1.884-.753 1.819-1.688l.003-16.696c.06-.826-.773-1.616-1.822-1.616H5.863c-.99 0-1.855.814-1.855 1.688v16.624c0 .874.865 1.688 1.855 1.688h28.32zM2.008 28.312V11.688C2.008 9.682 3.794 8 5.863 8h28.32c2.157 0 3.964 1.716 3.819 3.688l-.003 16.552c.15 2.07-1.587 3.76-3.816 3.76H5.863c-2.069 0-3.855-1.682-3.855-3.688z"/><path d="M36.731 14H3.281v2h33.45zM30 19h-2v5h5v-2h-3zM7 22h12v-2H7zm0 3h6v-2H7z"/></g></symbol><symbol viewBox="0 0 40 40" id="chat-40" xmlns="http://www.w3.org/2000/svg"><g fill="none" fill-rule="evenodd"><path d="M0 0h40v40H0z"/><path d="M20.133 32.188l-4.191-5.148H14.02C8.486 27.04 4 22.554 4 17.02S8.486 7 14.02 7h11.96C31.514 7 36 11.486 36 17.02s-4.486 10.02-10.02 10.02h-1.447v2h1.447c6.638 0 12.02-5.382 12.02-12.02S32.618 5 25.98 5H14.02C7.382 5 2 10.382 2 17.02s5.382 12.02 12.02 12.02h.971l7.142 8.772V26.88h-2v5.308z" fill="currentColor" fill-rule="nonzero"/></g></symbol><symbol viewBox="0 0 40 40" id="check-40" xmlns="http://www.w3.org/2000/svg"><path d="M34.49 8.8L16.481 26.768l-8.557-8.615L6.5 19.557l9.967 10.045 19.432-19.384z" fill="currentColor" fill-rule="evenodd"/></symbol><symbol viewBox="0 0 40 40" id="circle-40" xmlns="http://www.w3.org/2000/svg"><path d="M20 38c-9.941 0-18-8.059-18-18S10.059 2 20 2s18 8.059 18 18-8.059 18-18 18zm0-2c8.837 0 16-7.163 16-16S28.837 4 20 4 4 11.163 4 20s7.163 16 16 16z" fill="currentColor"/></symbol><symbol viewBox="0 0 40 40" id="circlediagram-40" xmlns="http://www.w3.org/2000/svg"><g fill="currentColor"><path d="M22 6c8.837 0 16 7.163 16 16s-7.163 16-16 16S6 30.837 6 22h2c0 7.732 6.268 14 14 14s14-6.268 14-14S29.732 8 22 8V6z"/><path d="M2 17.97L1.97 19H19V1.964L17.964 2C9.254 2.31 2.26 9.3 2 17.97zM17 4.073V17H4.067C4.755 10.21 10.17 4.798 17 4.073z"/><path d="M21 6h2v17H6v-2h15z"/></g></symbol><symbol viewBox="0 0 40 40" id="clipboard-40" xmlns="http://www.w3.org/2000/svg"><g fill="currentColor"><path d="M25.055 8h4.258C30.2 8 31 8.8 31 9.688v23.624C31 34.2 30.2 35 29.313 35H10.659c-.943 0-1.713-.777-1.656-1.62l.003-23.692C8.944 8.74 9.658 8 10.659 8h4.333V6h-4.333C8.516 6 6.87 7.704 7.01 9.756l-.003 23.556C6.87 35.27 8.584 37 10.659 37h18.654C31.305 37 33 35.304 33 33.312V9.688C33 7.696 31.305 6 29.313 6h-4.258v2z"/><path d="M19 4v3h-3v2h8V7h-3V4h-2zm-2-2h6v3h3v6H14V5h3V2zM8 15h25v-2H8zm5 6h14v-2H13zm0 4h14v-2H13zm0 4h9v-2h-9z"/></g></symbol><symbol viewBox="0 0 40 40" id="clock-40" xmlns="http://www.w3.org/2000/svg"><g fill="none" fill-rule="evenodd"><path d="M0 0h40v40H0z"/><path d="M20 2c9.941 0 18 8.059 18 18s-8.059 18-18 18S2 29.941 2 20 10.059 2 20 2zm0 2C11.163 4 4 11.163 4 20s7.163 16 16 16 16-7.163 16-16S28.837 4 20 4zm1 7v9.052l6.734 7.268-1.468 1.36L19 20.836V11h2z" fill="currentColor" fill-rule="nonzero"/></g></symbol><symbol viewBox="0 0 40 40" id="coins-40" xmlns="http://www.w3.org/2000/svg"><g fill="none" fill-rule="evenodd"><path d="M0 0h40v40H0z"/><path d="M21 36v2H4v-2h17zm7.5-17a9.5 9.5 0 110 19 9.5 9.5 0 010-19zm0 2a7.5 7.5 0 100 15 7.5 7.5 0 000-15zM17.846 33v2H4v-2h13.846zM35 29a6 6 0 01-6 6v-2a4 4 0 004-4h2zm-18 1v2H4v-2h13zm0-3v2H4v-2h13zm.846-3v2H4v-2h13.846zM19 21v2H4v-2h15zm2-3v2H4v-2h17zm2-3v2H6v-2h17zm0-3v2H6v-2h17zm-4-3v2H2V9h17zm0-3v2H2V6h17z" fill="currentColor" fill-rule="nonzero"/></g></symbol><symbol viewBox="0 0 40 40" id="common-camera-40" xmlns="http://www.w3.org/2000/svg"><g fill="none" fill-rule="evenodd"><path d="M0 0h40v40H0z"/><g fill="currentColor" fill-rule="nonzero"><path d="M29.987 10.8H35.5a2.5 2.5 0 012.5 2.5v20.2a2.5 2.5 0 01-2.5 2.5h-31A2.5 2.5 0 012 33.5V13.3a2.5 2.5 0 012.5-2.5h5.513l3.039-4.664A2.5 2.5 0 0115.146 5h9.708a2.5 2.5 0 012.094 1.136l3.039 4.664zM4.5 12.8a.5.5 0 00-.5.5v20.2a.5.5 0 00.5.5h31a.5.5 0 00.5-.5V13.3a.5.5 0 00-.5-.5h-6.598l-3.63-5.573A.5.5 0 0024.855 7h-9.708a.5.5 0 00-.419.227l-3.63 5.573H4.5z"/><path d="M29 22a9 9 0 10-18 0 9 9 0 0018 0zm-16 0a7 7 0 1114 0 7 7 0 01-14 0z"/></g></g></symbol><symbol viewBox="0 0 40 40" id="computer-40" xmlns="http://www.w3.org/2000/svg"><g fill="currentColor"><path d="M2 22V3h28v19H2zm26-2V5H4v15h24zM9 28h14v-2H9z"/><path d="M13 21.342V26h2v-4.658zm4 0V26h2v-4.658zM12.788 6.803l-6.495 6.49 1.414 1.414 6.495-6.49zm-4.363-1L5.403 8.824l1.415 1.414 3.02-3.02zM30 34v-2c0-2.204 1.793-4 4-4s4 1.796 4 4v2c0 2.204-1.793 4-4 4s-4-1.795-4-4zm2 0c0 1.1.898 2 2 2 1.102 0 2-.9 2-2v-2c0-1.1-.898-2-2-2-1.102 0-2 .9-2 2v2z"/><path d="M33 31v2h2v-2zm-9-9.583v.231C24 24.07 25.961 26 28.39 26h2.23A2.38 2.38 0 0133 28.39h2A4.38 4.38 0 0030.62 24h-2.23C27.059 24 26 22.958 26 21.648v-.231h-2z"/></g></symbol><symbol viewBox="0 0 40 40" id="contract-40" xmlns="http://www.w3.org/2000/svg"><g fill="none" fill-rule="evenodd"><path d="M0 0h40v40H0z"/><path d="M29 2v8h-2V4H4v32h23v-5h2v7H2V2h27zM11.524 25.492c1.562.886 1.6 2.326.822 4.339-.078.2-.159.398-.274.67-.352.836-.483 1.16-.546 1.41.203-.15.538-.492 1.024-1.116.084-.11.133-.172.316-.413 1.373-1.796 2.012-2.403 3.192-2.403 1.411 0 1.792.783 2.047 2.481l.004.028c.061.408.101.618.147.75H23v2h-4.873c-1.387 0-1.741-.753-1.996-2.453l-.004-.028c-.062-.413-.105-.628-.154-.763-.26.085-.707.541-1.517 1.602l-.328.427c-1.256 1.614-2.107 2.276-3.386 1.892-1.012-.305-1.395-1.153-1.226-2.16.09-.526.189-.788.713-2.03.108-.257.183-.438.251-.615.459-1.186.446-1.658.057-1.879-1.181-.67-2.008.366-2.546 4.315l-1.982-.27c.7-5.13 2.56-7.46 5.515-5.784zM32.599 9.574l5.8 6.013L25.097 29H19.04l-.042-5.85L32.599 9.574zm-2.811 5.629l-8.785 8.77.022 3.027h3.24l8.623-8.697-3.1-3.1zM16 15v2H7v-2h9zm16.571-2.574l-1.366 1.364 3.092 3.092 1.304-1.314-3.03-3.142zM22 11v2H7v-2h15zm0-4v2H7V7h15z" fill="currentColor" fill-rule="nonzero"/></g></symbol><symbol viewBox="0 0 40 40" id="cross-40" xmlns="http://www.w3.org/2000/svg"><path d="M29.546 9l-9.54 9.541L10.465 9l-1.454 1.454 9.542 9.542L9 29.549l1.454 1.454 9.552-9.553 9.54 9.542L31 29.538l-9.541-9.542L31 10.454z" fill="currentColor" fill-rule="evenodd"/></symbol><symbol viewBox="0 0 40 40" id="cup-40" xmlns="http://www.w3.org/2000/svg"><g fill="currentColor"><path d="M11 5v11c0 4.937 4.048 9 9 9s9-4.063 9-9V5H11zm20 11c0 6.04-4.942 11-11 11S9 22.04 9 16V3h22v13z"/><path d="M9.594 8H19.5V6H9.594zM21 26v5.222a5.775 5.775 0 005.775 5.775v-2A3.775 3.775 0 0123 31.222V26h-2zm-1.995 0v5.222a5.775 5.775 0 01-5.775 5.775v-2a3.775 3.775 0 003.775-3.775V26h2z"/><path d="M10 37h20v-2H10zM30.406 8c2.287 0 4.131 1.797 4.131 4 0 2.203-1.844 4-4.131 4v2c3.38 0 6.131-2.68 6.131-6s-2.75-6-6.131-6v2zM9.594 6c-3.38 0-6.131 2.68-6.131 6s2.75 6 6.131 6v-2c-2.287 0-4.131-1.797-4.131-4 0-2.203 1.844-4 4.131-4V6z"/></g></symbol><symbol viewBox="0 0 40 40" id="damage-40" xmlns="http://www.w3.org/2000/svg"><g fill="currentColor"><path d="M21 36v2h-9v-2h9zM7 36h3v2H5V2h30v36H23v-2h10V4H7v32z"/><path d="M19.45 10.25l1.476 2.893h5.15v4.915l7.307 5.729 1.234-1.574-6.54-5.128v-5.942H22.15l-1.294-2.537L17 7.346V4h-2v4.797zm2.089 14.148l-1.46 4.598L26 32.104V36h2v-5.104l-5.508-2.892 1.398-4.402-5.336-3.735L15.802 21H7v2h9.198l2.105-.867 3.236 2.265z"/></g></symbol><symbol viewBox="0 0 40 40" id="digital-services-40" xmlns="http://www.w3.org/2000/svg"><g fill="none" fill-rule="evenodd"><path d="M0 0h40v40H0z"/><path d="M34 21h-5c-.764 0-1 .254-1 1.154v9.692c0 .9.236 1.154 1 1.154h5c.764 0 1-.254 1-1.154v-9.692c0-.9-.236-1.154-1-1.154zm-17 6H7.111c-2.544 0-4.02-1.383-4.107-3.843L3 22.923V9.077C3 6.55 4.398 5.09 6.876 5.004L7.11 5h21.78c2.544 0 4.02 1.383 4.107 3.843l.004.234V19h1c1.835 0 2.92 1.099 2.996 2.946l.004.208v9.692C37 33.818 35.903 35 34 35h-5c-1.903 0-3-1.182-3-3.154V27h-7v4h4v2H13v-2h4v-4zm14.5 2a1.5 1.5 0 110 3 1.5 1.5 0 010-3zM28.889 7H7.11c-1.463 0-2.063.535-2.108 1.902L5 9.077v13.846c0 1.437.54 2.03 1.933 2.074L7.11 25H26v-2.846c0-1.902 1.02-3.069 2.8-3.15L29 19h2V9.077c0-1.437-.54-2.03-1.933-2.074L28.89 7z" fill="currentColor" fill-rule="nonzero"/></g></symbol><symbol viewBox="0 0 40 40" id="document-40" xmlns="http://www.w3.org/2000/svg"><g fill="none" fill-rule="evenodd"><path d="M0 0h40v40H0z"/><path d="M25.77 2L34 10.09V38H7V2h18.77zM9 4v32h23l-.001-24H24V4H9zm17 16v2H12v-2h14zm0-5v2H12v-2h14zm-6-5v2h-8v-2h8zm11.055 0L26 5.031V10h5.055z" fill="currentColor" fill-rule="nonzero"/></g></symbol><symbol viewBox="0 0 40 40" id="dog-40" xmlns="http://www.w3.org/2000/svg"><g fill="none" fill-rule="evenodd"><path d="M0 0h40v40H0z"/><g fill="currentColor" fill-rule="nonzero"><path d="M11 17v14h2V17z"/><path d="M8 36v-3a1 1 0 011-1h6v-2H9a3 3 0 00-3 3v5h22.346l.228-.684C29.522 34.473 30 32.08 30 30.125c0-5.361-2.646-10.73-7.873-16.096l-1.433 1.396c4.892 5.022 7.306 9.92 7.306 14.7 0 1.562-.365 3.524-1.102 5.875H8z"/><path d="M29 31c5.238 0 8-2.155 8-7h-2c0 3.617-1.773 5-6 5v2zm-4.42-7.123A4.674 4.674 0 0021.858 23C19.16 23 17 25.302 17 28.11c0 2.187 1.32 4.12 3.266 4.83l.685-1.88C19.803 30.642 19 29.465 19 28.11c0-1.73 1.294-3.11 2.858-3.11.563 0 1.1.176 1.562.506l1.16-1.63zM11.568 7l.29-.488c1.358-2.276 3.608-2.999 7.018-2.15 2.216.551 3.61 1.875 4.401 3.793.543 1.319.723 2.647.723 4.001C24 13.345 23.451 14 22.143 14c-1.378 0-1.857-.764-1.857-3.265h-2c0 3.467 1.13 5.265 3.857 5.265C24.642 16 26 14.379 26 12.156c0-1.592-.211-3.155-.874-4.763-1.02-2.477-2.898-4.258-5.767-4.972-3.98-.99-7.023-.136-8.904 2.579H4v4.196c0 4.7 5.145 7.701 9.666 5.546l-.861-1.806C9.579 14.475 6 12.387 6 9.196V7h5.568z"/></g></g></symbol><symbol viewBox="0 0 40 40" id="dog-risk-40" xmlns="http://www.w3.org/2000/svg"><g fill="none" fill-rule="evenodd"><path d="M0 0h40v40H0z"/><path d="M10.338 4.011c.383.044 1.106.363 1.882.802l.428.25c1.144.693 2.294 1.577 2.574 2.17l.037.097.01.018.008.06.006.027.097 1.081.115 1.335.039.402.063.536c.021.17.044.33.067.48l.072.42.063.297.106.415c.002.016 0 .021-.008.013l1.03 1.012 1.2 1.198c1.48 1.487 2.945 3 4.316 4.467l.787.85.953 1.048.544.61.514.586.485.563.454.539.216.26.41.506.378.481c.181.236.351.462.51.68l.3.426c.808 1.174 1.236 2.08 1.26 2.736.01.216.005.436-.016.66-.08.84-.372 1.7-.807 2.556-.112.22-.224.424-.331.606l-.079.13.16.225c.08.106.16.212.243.316l.253.306c.468.542.915.93 1.264 1.086a.754.754 0 00.185.06l.042.004h3.108c1.65 0 2.379-.945 2.629-2.934l.02-.17.032-.339.021-.352.008-.188.01-.415L36 29h2l-.002.737-.007.487c-.004.151-.01.293-.016.43l-.025.397a12.86 12.86 0 01-.061.589c-.35 2.79-1.677 4.578-4.364 4.68l-.249.005h-3.108c-.354 0-.703-.085-1.047-.24-.672-.301-1.316-.86-1.958-1.604a13.307 13.307 0 01-.857-1.113l-.238-.354-.103-.164-.35-.576.457-.616.132-.199a8.78 8.78 0 00.444-.772c.33-.651.546-1.286.599-1.84.012-.13.015-.252.008-.384a.943.943 0 00-.076-.295l-.087-.196a4.137 4.137 0 00-.056-.109l-.135-.241-.166-.27-.196-.298-.225-.324-.254-.35-.281-.375-.309-.399-.334-.42-.549-.671-.396-.473-.638-.743-.687-.781-.735-.816-.757-.824-.392-.421a188.263 188.263 0 00-3.396-3.536l-1.144-1.154-1.334-1.325-.609-.597c-.332-.324-.542-.833-.7-1.608-1.78.225-3.364-.417-4.2-1.795-.569-.877-.533-1.853-.078-2.893a7.83 7.83 0 01.598-1.09l.235-.354-.037-.02-.133-.062a.342.342 0 00-.065-.024h-.036l-.125.01-.302.044-.267.047-.31.06-.342.072-.414.093-.487.116-.893.226-.232.062-.236-.05c-.15-.032-.307-.069-.476-.11L5.33 6.4l-.995-.26-.172-.042-.019.092a7.757 7.757 0 00-.088.617l-.021.23-.013.182-.017.358-.003.174v.327l.009.293.014.246.02.188a.95.95 0 00.021.118l.01.023.151.095.173.096.215.108.267.124 1.292.566c1.293.582 2.106 1.086 2.657 1.81.32.438.5.907.59 1.673l.033.323.012.174.019.377.011.419.004.712-.014 1.128-.036 1.717c-.003.233-.006.455-.006.667l.003.61.006.283.02.531c.029.592.082 1.09.164 1.53l.037.185c.335 1.678 1.099 2.515 3.233 3.88l.79.497.522.338.304.206.581.401-.436 1.628-.516 1.955-.19.686-.17.577-.054.177c-.281.89-.546 1.529-.862 2.009l-.133.197-.306.434-.345.467c-.174.23-.355.467-.54.703l-.65.815-1.548-1.266.355-.442c.268-.337.536-.681.784-1.012l.29-.392.331-.468.092-.137c.19-.289.394-.78.624-1.51l.103-.336.166-.578.704-2.65-.696-.439c-2.764-1.733-3.908-2.91-4.391-5.335-.17-.795-.25-1.69-.268-2.855l-.004-.663c0-.116 0-.234.002-.354l.04-2.128.008-.606.001-.705-.007-.474-.014-.411-.022-.351-.029-.295c-.043-.358-.107-.577-.194-.696-.253-.331-.784-.674-1.652-1.08l-.402-.181-.945-.412-.215-.096-.37-.175a6.213 6.213 0 01-.448-.242c-.347-.209-.607-.424-.813-.738-.813-1.354-.433-6.011 1.24-6.011l.124.001.176.01.19.024.072.013.256.054.216.051 1.753.453.256.062.194-.05.502-.126.51-.12.438-.1.495-.103.225-.044.406-.068c.377-.057.671-.075.9-.05zm10.576 21.957l1.643 1.141a21.04 21.04 0 00-.475.714l-.296.475-.275.467a21.66 21.66 0 00-.13.228l-.238.441c-.337.643-.577 1.195-.673 1.546l-.031.131.032.044.059.076.15.177.092.098c.333.354.812.788 1.361 1.235l.387.308.386.293c.063.048.127.094.19.14l.37.263.35.237.324.206.287.17c.134.074.251.134.348.175l.09.035-.327 1.945H17.36v-2l3.769-.001-.261-.215-.41-.354c-1.067-.95-1.926-1.947-2.023-2.582l-.01-.114c0-1.028.98-3.054 2.314-5.023l.176-.256zM9.237 28l1.885.667-.322.894-.305.81-.192.487-.182.445-.173.399a15.68 15.68 0 01-.083.181l-.156.327c-.126.251-.24.45-.34.589-.13.181-.283.383-.455.601l-.353.44c-.268.328-.554.667-.84 1l-.383.439-1.496-1.327.364-.419c.184-.212.367-.428.545-.641l.425-.52.255-.322.218-.288.096-.13a1.43 1.43 0 00.078-.126l.096-.181.112-.235.127-.284.214-.51.24-.602.258-.682.273-.749.094-.263zM12.1 7.085l-.165.248-.215.336c-.161.26-.277.475-.368.682-.21.482-.222.778-.06 1.028.406.669 1.21 1.004 2.232.879l-.078-.855-.12-1.466-.11-.09-.098-.076-.157-.115-.366-.253-.42-.273-.075-.045z" fill="currentColor" fill-rule="nonzero"/></g></symbol><symbol viewBox="0 0 40 40" id="e-invoice-40" xmlns="http://www.w3.org/2000/svg"><g fill="none" fill-rule="evenodd"><path d="M0 0h40v40H0z"/><path d="M37 3v34.592l-9.629-4.638L20 37.151l-7.372-4.197L3 37.592V3h34zm-2 2H5v29.409l7.705-3.711L20 34.849l7.295-4.151L35 34.409V5zm-6 20v2h-6v-2h6zm0-4v2H11v-2h18zM19.924 8c2.74 0 3.87 2.114 3.278 5.232h-4.82c.126 1.254.825 1.791 1.954 1.791.842 0 1.791-.25 2.544-.573l.25 1.774c-.877.483-1.88.77-2.884.77-2.454 0-4.246-1.72-4.246-4.604C16 9.38 18.007 8 19.924 8zm.018 1.81c-.896 0-1.541.734-1.577 1.88h2.92c.072-1.164-.376-1.88-1.343-1.88z" fill="currentColor" fill-rule="nonzero"/></g></symbol><symbol viewBox="0 0 40 40" id="envelope-40" xmlns="http://www.w3.org/2000/svg"><g fill="none" fill-rule="evenodd"><path d="M0 0h40v40H0z"/><g fill="currentColor" fill-rule="nonzero"><path d="M2 7h36v26H2V7zm2 2v22h32V9H4z"/><path d="M20 20.705L3.636 7.228 2.364 8.772 20 23.295 37.636 8.772l-1.272-1.544zm17.669 10.552l-10-9-1.338 1.486 10 9zm-34 1.486l10-9-1.338-1.486-10 9z"/></g></g></symbol><symbol viewBox="0 0 40 40" id="facebook-40" xmlns="http://www.w3.org/2000/svg"><g fill="currentColor" fill-rule="evenodd"><path d="M5 5v30h30V5H5zM3 3h34v34H3V3z" fill-rule="nonzero"/><path d="M18.012 27.984V19.97H16v-2.91h2.012v-2.146c0-2.49 1.521-3.846 3.743-3.846 1.063 0 1.978.079 2.245.114v2.603h-1.54c-1.21 0-1.443.575-1.443 1.417v1.858h2.881l-.375 2.91h-2.506v8.015h-3.005z"/></g></symbol><symbol viewBox="0 0 40 40" id="family-40" xmlns="http://www.w3.org/2000/svg"><g fill="none" fill-rule="evenodd"><path d="M0 0h40v40H0z"/><g fill="currentColor" fill-rule="nonzero"><path d="M23.942 12.815c0 4.314-3.528 7.815-7.884 7.815-4.357 0-7.885-3.501-7.885-7.815S11.701 5 16.058 5a7.892 7.892 0 015.987 2.73l1.513-1.309A9.892 9.892 0 0016.058 3C10.6 3 6.173 7.392 6.173 12.815c0 5.422 4.427 9.815 9.885 9.815 5.457 0 9.884-4.393 9.884-9.815 0-.631-.06-1.255-.178-1.866l-.157-.81h-7.749c-1.307 0-2.788-1.073-3.523-2.597l-1.801.869c1.049 2.174 3.192 3.728 5.324 3.728h6.055c.02.224.03.45.03.676zm8.428 16.39C34.585 29.948 36 31.77 36 34v4h2v-4c0-3.12-1.991-5.684-4.993-6.691l-.636 1.896zM20 38v-4c0-2.155 1.557-4.02 3.856-4.794l-.638-1.895C20.154 28.34 18 30.922 18 34v4h2z"/><path d="M28.115 31.444c3.705 0 6.712-2.983 6.712-6.666 0-3.684-3.007-6.667-6.712-6.667-3.705 0-6.711 2.983-6.711 6.667 0 3.683 3.006 6.666 6.711 6.666zm0-2c-2.603 0-4.711-2.09-4.711-4.666 0-2.576 2.108-4.667 4.711-4.667 2.604 0 4.712 2.091 4.712 4.667 0 2.575-2.108 4.666-4.712 4.666zM4 38V26c0-2.296 1.744-4.33 5.432-6.098l-.864-1.804C4.256 20.165 2 22.798 2 26v12h2z"/></g></g></symbol><symbol viewBox="0 0 40 40" id="farm-40" xmlns="http://www.w3.org/2000/svg"><g fill="none" fill-rule="evenodd"><path d="M0 0h40v40H0z"/><path d="M23 2.677l15.655 13.567-1.31 1.512L36 16.588V34h2v2H2v-2h3.999v-2.806a5.51 5.51 0 01-2.62-1.22l-.207-.184a5.478 5.478 0 01-1.747-4.015c0-3.039 2.472-5.5 5.52-5.5a5.52 5.52 0 013.055.918v-4.604l-1.344 1.167-1.31-1.512L23 2.677zm-13 27.68a5.51 5.51 0 01-2 .817L7.999 34h2zM23 5.323l-11.001 9.534L12 34h3.999L16 22h14l-.001 12H34l-.001-15H14v-2h19.999v-2.145L23 5.322zm2.499 26.279L24.5 34h1.999l-1-2.4zm-5 0L19.5 34h1.999l-1-2.4zm-2.5-6.002v6.8l1.417-3.4-1.417-3.4zm5.001 0L21.583 29l1.416 3.399 1.417-3.4L23 25.6zm4.999.003L26.583 29l1.416 3.398v-6.795zM6.945 22.275c-1.945 0-3.52 1.568-3.52 3.5 0 .98.406 1.894 1.111 2.552a3.537 3.537 0 005.141-.344L10 27.62v-3.366l-.443-.823-.082-.089a3.513 3.513 0 00-2.307-1.06zM26.5 24h-2l.999 2.399 1-2.4zm-5 0h-2l.999 2.399 1-2.4zM23 9a5 5 0 015 5v1H18v-1a5 5 0 015-5zm0 2c-1.302 0-2.41.83-2.825 1.988L20.17 13h5.659l-.076-.193a3.002 3.002 0 00-2.577-1.802z" fill="currentColor" fill-rule="nonzero"/></g></symbol><symbol viewBox="0 0 40 40" id="fish-40" xmlns="http://www.w3.org/2000/svg"><g fill="none" fill-rule="evenodd"><path d="M0 0h40v40H0z"/><path d="M28.661 2.442l1.092.867.263.223c.287.248.604.538.945.868.97.94 1.94 2.014 2.845 3.21 3.722 4.915 5.295 10.306 3.41 15.83-1.15 3.361-3.008 6.155-5.457 8.36l-.354.311-.1.076c-.458.303-1.167.648-2.045 1.011l-.61.245c-.315.123-.649.248-.995.373l-.712.252a58.92 58.92 0 01-.367.125l-.757.25-.78.248-.797.244-.81.238-.409.116-.82.227-.818.216-.813.206-.801.192-.785.178-.385.083-.75.153a39.56 39.56 0 01-1.065.195l-.665.104c-.969.14-1.79.205-2.381.168l-.004.037a16.183 16.183 0 01-3.812-.993 4.917 4.917 0 01-.376-.085l-.19-.055.027-.088a13.641 13.641 0 01-3.171-1.975c-1.45-1.209-2.346-2.43-2.795-3.33l-.08-.166-.618-1.35 2.548-.113-.081-.028a7.161 7.161 0 00-1.058-.26l-.237-.031-1.48-.16.707-1.31c1.58-2.925 4.43-4.327 9.206-4.438l.205-.003.167-.245c1.017-1.462 2.439-2.75 3.63-3.254l.197-.077.243-.087.255.042c1.433.234 2.717.557 4.202 1.026l.888.292 2.089.7c.828.265 1.474.434 2.084.538 1.2.203 2.274.143 3.442-.237 2.824-1.328 4.061-3.528 3.118-6.43l-.076-.222 1.882-.675c1.479 4.118-.257 7.268-3.917 9.057l.012.033-.335.118c-.94.427-1.997.767-3.15 1.017-2.482.536-5.241.64-8.553.466l-.628-.036.123-1.996c1.753.107 3.34.14 4.795.076l-1.833-.618c-1.46-.48-2.672-.811-3.973-1.05l-.212-.038-.092.046c-.867.46-2.033 1.6-2.793 2.82l-.138.23-.29.504-.581-.003c-3.683-.019-5.936.675-7.335 2.17l-.082.09.311.101c1.107.377 2.273.968 3.253 1.723l.288.232 1.98 1.66-5.448.225.045.058c.315.38.674.759 1.081 1.125l.315.272a11.689 11.689 0 002.967 1.799c2.379.284 5.037-2.437 4.773-6.204l-.02-.238 1.99-.203c.336 3.308-1.117 6.13-3.192 7.594.507.05 1.43-.057 2.588-.272l.617-.12.652-.138.684-.154.71-.169.73-.18.744-.194.754-.202.76-.212.757-.218 1.122-.336.732-.229.711-.23.687-.23.656-.23c.106-.037.211-.075.314-.113l.6-.223.557-.219c.71-.287 1.288-.556 1.678-.79l.084-.055.285-.25c2.081-1.877 3.685-4.23 4.729-7.056l.16-.45c1.634-4.79.248-9.54-3.112-13.976a26.036 26.036 0 00-2.256-2.6l-.386-.38-.139-.134-.04.123c-.375 1.2-.578 2.408-.528 3.524l.023.332c.09.968.381 1.805.9 2.496l.161.203 1.208 1.42-1.85.221c-2.312.276-3.724.912-5.237 3.05l-.173.249.11.03c1.494.387 3.03.53 4.453.302l.354-.065a6.425 6.425 0 002.14-.844l.27-.18 1.158 1.63a8.33 8.33 0 01-3.162 1.353c-1.866.387-3.825.23-5.715-.26l-.433-.12-.197-.058-.353-.113-.297-.104a7.505 7.505 0 01-.125-.048l-1.166-.483.575-.988c1.78-3.056 3.449-4.393 5.756-5.005l.274-.069-.052-.11a7.145 7.145 0 01-.556-2.013l-.034-.309c-.14-1.508.102-3.087.588-4.638l.078-.243.154-.445c.05-.14.1-.269.147-.388l.136-.328.063-.139.6-1.245z" fill="currentColor" fill-rule="nonzero"/></g></symbol><symbol viewBox="0 0 40 40" id="fund-assortment-40" xmlns="http://www.w3.org/2000/svg"><g fill="none" fill-rule="evenodd"><path d="M0 0h40v40H0z"/><path d="M4 2v34h34v2H2V2h2zm21.907 21.928l10.38 3.114-.574 1.916-9.62-2.887-10 5-10.38-3.113.574-1.916 9.619 2.886 10.001-5zm9.386-18.635l1.414 1.414L26.285 17.13l-10.149-3.045-9.622 5.773-1.028-1.714 10.378-6.228 9.85 2.955 9.579-9.577z" fill="currentColor" fill-rule="nonzero"/></g></symbol><symbol viewBox="0 0 40 40" id="gear-40" xmlns="http://www.w3.org/2000/svg"><g fill="none" fill-rule="evenodd"><path d="M0 0h40v40H0z"/><path d="M25.59 3l6.82 3.925-2.384 4.116.137.146.135.148.133.15.13.152.128.154.126.156.124.157.122.16.119.16.117.164.115.165.112.166.11.168.107.17.105.172.103.173.1.175.098.176.095.178.092.18.09.18.088.183.085.184.082.185.08.187.076.188.074.19.071.19.069.193.065.193.063.195.06.196H38v7.85h-4.762l-.06.196-.064.195-.065.193-.069.193-.07.19-.075.19-.077.188-.08.187-.081.185-.085.184-.088.183-.09.18-.092.18-.095.178-.098.176-.1.175-.103.173-.105.172-.107.17-.11.168-.112.166-.115.165-.117.163-.12.161-.12.16-.125.157-.126.156-.128.154-.13.152-.133.15-.135.148-.137.146 2.384 4.116L25.59 38l-2.382-4.11-.193.043-.195.042-.195.04-.197.036-.197.033-.2.03-.198.029-.2.025-.202.022-.202.02-.203.016-.203.013-.205.01-.205.008-.206.005-.207.001-.207-.001-.206-.005-.205-.007-.205-.01-.203-.014-.203-.017-.202-.019-.201-.022-.2-.025-.2-.028-.199-.03-.197-.034-.197-.036-.195-.04-.195-.042-.193-.044L14.41 38l-6.82-3.925 2.384-4.116-.137-.146-.135-.148-.133-.15-.13-.152-.128-.154-.126-.156-.124-.157-.122-.16-.119-.16-.117-.164-.115-.165-.112-.166-.11-.168-.107-.17-.105-.172-.103-.173-.1-.175-.098-.176-.095-.178-.092-.18-.09-.18-.088-.183-.085-.184-.082-.185-.08-.187-.076-.188-.074-.19-.071-.19-.069-.193-.065-.193-.063-.195-.06-.196H2v-7.85h4.762l.06-.196.064-.195.065-.193.069-.193.07-.19.075-.19.077-.188.08-.187.081-.185.085-.184.088-.183.09-.18.092-.18.095-.178.098-.176.1-.175.103-.173.105-.172.107-.17.11-.168.112-.166.115-.165.117-.163.12-.161.12-.16.125-.157.126-.156.128-.154.13-.152.133-.15.135-.148.137-.146L7.59 6.925 14.41 3l2.382 4.11.193-.043.195-.042.195-.04.197-.036.197-.033.2-.03.198-.029.2-.025.202-.022.202-.02.203-.016.203-.013.205-.01.205-.008.206-.005.207-.001.207.001.206.005.205.007.205.01.203.014.203.017.202.019.201.022.2.025.2.028.199.03.197.034.197.036.195.04.195.042.193.044L25.59 3zm.773 2.891l-2.105 3.635-1.52-.347-.168-.038-.166-.036-.164-.034-.165-.03-.165-.029-.173-.026-.167-.024-.169-.021-.17-.02-.176-.016-.166-.014-.173-.012-.18-.009-.169-.007-.175-.004-.177-.001h-.176l-.17.004-.18.007-.174.009-.168.01-.176.015-.171.016-.17.018-.168.02-.173.025-.166.025-.166.028-.165.03-.168.034-.168.036-1.714.39-2.105-3.634-3.148 1.812 2.108 3.64-1.08 1.151-.115.122-.113.123-.113.128-.111.13-.11.13-.105.13-.108.137-.1.13-.104.14-.097.136-.098.14-.096.142-.093.143-.09.141-.088.143-.089.15-.084.146-.083.15-.08.147-.08.157-.075.15-.074.155-.072.154-.07.156-.066.157-.067.163-.061.155-.061.163-.057.16-.057.168-.053.162-.52 1.694h-4.21v3.608h4.21l.46 1.498.05.164.054.168.054.162.059.164.058.156.064.165.064.158.067.157.069.157.072.156.072.151.079.159.076.148.08.152.082.147.086.151.086.145.087.144.091.144.094.143.096.143.094.136.103.143.096.131.106.139.103.132.108.133.109.131.11.13.111.125.112.124 1.218 1.297-2.108 3.64 3.148 1.812 2.105-3.635 1.52.347.168.038.166.036.164.034.165.03.165.029.173.026.167.024.169.021.17.02.176.016.166.014.173.012.18.009.169.007.175.004.177.001h.176l.17-.004.18-.007.174-.009.168-.01.176-.015.171-.016.17-.018.168-.02.173-.025.166-.025.166-.028.165-.03.168-.034.168-.036 1.714-.39 2.105 3.634 3.148-1.812-2.108-3.64 1.08-1.151.115-.122.113-.123.113-.128.111-.13.11-.13.105-.13.108-.137.1-.13.104-.14.097-.136.098-.14.096-.142.093-.143.09-.141.088-.143.089-.15.084-.146.083-.15.08-.147.08-.157.075-.15.074-.155.072-.154.07-.156.066-.157.067-.163.061-.155.061-.163.057-.16.057-.168.053-.162.52-1.694h4.21v-3.608h-4.21l-.46-1.498-.05-.164-.054-.168-.054-.162-.059-.164-.058-.156-.064-.165-.064-.158-.067-.157-.069-.157-.072-.156-.072-.151-.079-.159-.076-.148-.08-.152-.082-.147-.086-.151-.086-.145-.087-.144-.091-.144-.094-.143-.096-.143-.094-.136-.103-.143-.096-.131-.106-.139-.103-.132-.108-.133-.109-.131-.11-.13-.111-.125-.112-.124-1.218-1.297 2.108-3.64-3.148-1.812zM20 14a6 6 0 110 12 6 6 0 010-12zm0 2a4 4 0 100 8 4 4 0 000-8z" fill="currentColor" fill-rule="nonzero"/></g></symbol><symbol viewBox="0 0 40 40" id="glasses-40" xmlns="http://www.w3.org/2000/svg"><g fill="none" fill-rule="evenodd"><path d="M0 0h40v40H0z"/><g fill="currentColor" fill-rule="nonzero"><path d="M18 23.5a7.5 7.5 0 11-15 0 7.5 7.5 0 0115-.002zm-2 0a5.5 5.5 0 10-11 .002 5.5 5.5 0 0011-.003zm21 0a7.5 7.5 0 11-15 .001 7.5 7.5 0 0115-.002zm-2 0a5.5 5.5 0 10-11 .002 5.5 5.5 0 0011-.003z"/><path d="M17.508 22.083a4.9 4.9 0 012.493-.662c.907 0 1.767.234 2.49.661a1 1 0 001.018-1.721A6.888 6.888 0 0020 19.42a6.9 6.9 0 00-3.509.94 1 1 0 001.016 1.722zm16.817-11.57c.263 1.261.53 2.89.794 4.798a214.02 214.02 0 01.905 7.783l1.99-.188c-.011-.124-.034-.355-.066-.678-.054-.538-.116-1.137-.187-1.782-.2-1.843-.423-3.686-.661-5.409-.632-4.564-1.205-7.309-1.936-8.185a1.427 1.427 0 00-.467-.377c-.617-.304-1.44-.44-2.453-.47-.663-.018-1.364.01-2.053.07-.325.027-.576.056-.723.075l.264 1.983c.118-.016.338-.04.63-.066a16.18 16.18 0 011.823-.062c.65.019 1.173.093 1.494.208.15.287.4 1.123.646 2.3zM7.835 8.005a16.18 16.18 0 011.822.062c.292.025.512.05.63.066l.264-1.983a16.61 16.61 0 00-.723-.076 18.104 18.104 0 00-2.051-.068c-1.014.03-1.836.165-2.453.468a1.434 1.434 0 00-.477.39c-.725.883-1.298 3.629-1.927 8.173a190.192 190.192 0 00-.662 5.41 216.03 216.03 0 00-.254 2.46l1.992.187c.01-.12.033-.348.065-.666a194.538 194.538 0 01.84-7.117c.515-3.722 1.074-6.458 1.438-7.097.32-.115.844-.19 1.496-.209zm4.458 12.288l-5 5 1.414 1.414 5-5zm-4.586 3.414l3-3-1.414-1.414-3 3zm23.586-3.414l-5 5 1.414 1.414 5-5zm-4.586 3.414l3-3-1.414-1.414-3 3z"/></g></g></symbol><symbol viewBox="0 0 40 40" id="gravestones-40" xmlns="http://www.w3.org/2000/svg"><g fill="none" fill-rule="evenodd"><path d="M0 0h40v40H0z"/><path d="M27.655 1.92l.376.162C34.601 4.928 38 8.608 38 13.142V25h-7v13H11l-.001-8H2V17c0-4.469 3.267-8.103 9.582-10.914l.407-.18.407.18c5.264 2.343 8.75 5.415 9.467 8.208 5.075 2.342 8.085 5.242 8.906 8.706H36v-9.858c0-3.503-2.725-6.528-8.386-9.058-3.118 1.271-5.505 3.105-6.823 4.81L19.21 7.671c1.591-2.06 4.415-4.196 8.065-5.604l.381-.147zM21 16.097c-5.401 2.487-8 5.458-8 8.903v11h16V25c0-3.445-2.599-6.416-8-8.903zm-9.011-8C6.595 10.585 4 13.555 4 17v11h6.999L11 25c0-4.284 3.005-7.8 8.821-10.56-.708-1.904-3.51-4.348-7.832-6.342z" fill="currentColor" fill-rule="nonzero"/></g></symbol><symbol viewBox="0 0 40 40" id="growth-arrow-40" xmlns="http://www.w3.org/2000/svg"><g fill="none" fill-rule="evenodd"><path d="M0 0h40v40H0z"/><path d="M37.999 8L38 18h-2l-.001-6.636-14.217 13.799-6.6-6.231L2.685 30.727l-1.372-1.454L15.18 16.18l6.581 6.213L34.534 10H28V8h9.999z" fill="currentColor" fill-rule="nonzero"/></g></symbol><symbol viewBox="0 0 40 40" id="guide-40" xmlns="http://www.w3.org/2000/svg"><g fill="none" fill-rule="evenodd"><path d="M0 0h40v40H0z"/><path d="M14 38h12v-2H14zm7-2V2h-2v34zM4.44 14.467l2.49-2.4H19v-2H6.122l-4.563 4.4 4.563 4.4H17v-2H6.93zm28.63-6.934l2.49 2.4-2.49 2.4H23v2h10.878l4.563-4.4-4.563-4.4H21v2z" fill="currentColor" fill-rule="nonzero"/></g></symbol><symbol viewBox="0 0 40 40" id="heart-40" xmlns="http://www.w3.org/2000/svg"><path d="M32.893 19.402c2.81-2.81 2.81-7.485 0-10.295-2.81-2.81-7.486-2.81-10.295 0L20 11.705l-2.598-2.598c-2.81-2.81-7.485-2.81-10.295 0-2.81 2.81-2.81 7.486 0 10.295L20 32.295l12.893-12.893zm-11.71-11.71c3.591-3.59 9.534-3.59 13.124 0 3.59 3.591 3.59 9.534 0 13.124L20 35.123 5.693 20.816c-3.59-3.59-3.59-9.533 0-13.123s9.533-3.59 13.123 0L20 8.877l1.184-1.184z" fill="currentColor"/></symbol><symbol viewBox="0 0 40 40" id="heartbeat-40" xmlns="http://www.w3.org/2000/svg"><g fill="none" fill-rule="evenodd"><path d="M0 0h40v40H0z"/><path d="M29.017 19.124l5.941 9.626H38v2h-4.158l-4.86-7.874L19.905 37l-3.627-7.051-2.95 4.302H2v-2h10.273l4.25-6.198 3.573 6.949 8.921-13.877zM20.374 5.607a5.357 5.357 0 010 7.717L12 21.388l-8.374-8.064a5.357 5.357 0 010-7.717 5.698 5.698 0 017.904 0l.47.452.47-.452a5.698 5.698 0 017.904 0zm-6.517 1.44L12 8.837l-1.857-1.788a3.698 3.698 0 00-5.22.089 3.357 3.357 0 00.09 4.746L12 18.612l6.987-6.729a3.357 3.357 0 000-4.835 3.698 3.698 0 00-5.13 0z" fill="currentColor" fill-rule="nonzero"/></g></symbol><symbol viewBox="0 0 40 40" id="house-40" xmlns="http://www.w3.org/2000/svg"><g fill="none" fill-rule="evenodd"><path d="M0 0h40v40H0z"/><g fill="currentColor" fill-rule="nonzero"><path d="M6 38V15H4v23zm28-23v23h2V15zM22 25h8v11h2V23H20v13h2zm3.36-10.232l1.28-1.536L20 7.698l-6.64 5.534 1.28 1.536L20 10.302z"/><path d="M20 4.302l17.36 14.466 1.28-1.536L20 1.698 1.36 17.232l1.28 1.536zM18 38h20v-2H18zM2 38h11v-2H2zm16-15v9H9v-9h9zm-7 2v5h5v-5h-5z"/></g></g></symbol><symbol viewBox="0 0 40 40" id="house-sun-40" xmlns="http://www.w3.org/2000/svg"><g fill="none" fill-rule="evenodd"><path d="M0 0h40v40H0z"/><g fill="currentColor" fill-rule="nonzero"><path d="M27 2c0 6.075 4.925 11 11 11v-2a9 9 0 01-9-9h-2zm-2 0h-5v2h5zm11 13v5h2v-5zM7 38V25H5v13zm20-13v13h2V25zm-12 6h4v7h2v-9h-8v9h2z"/><path d="M30.382 27.786l1.236-1.572L17 14.728 2.382 26.214l1.236 1.572L17 17.272zm-3.089-16.493l-4 4 1.414 1.414 4-4z"/></g></g></symbol><symbol viewBox="0 0 40 40" id="id-sign-40" xmlns="http://www.w3.org/2000/svg"><g fill="currentColor" fill-rule="evenodd"><path d="M29 32v1.681c0 .691-.624 1.32-1.308 1.32H12.308A1.31 1.31 0 0111 33.68V6.318C11 5.628 11.625 5 12.308 5h15.384C28.375 5 29 5.627 29 6.318V22h2V6.318C31 4.525 29.482 3 27.692 3H12.308C10.518 3 9 4.525 9 6.318v27.363a3.31 3.31 0 003.308 3.32h15.384C29.483 37 31 35.473 31 33.68V32h-2z"/><path d="M24.598 20.553C23.592 20.83 22.088 21 20 21c-2.089 0-3.592-.17-4.598-.447a7.346 7.346 0 01-.308-.09c.021-.117.046-.243.074-.378.169-.803.412-1.605.738-2.345.614-1.39 1.442-2.374 2.487-2.82l-.786-1.84c-1.583.677-2.73 2.04-3.53 3.853a13.83 13.83 0 00-.866 2.741c-.118.56-.181 1.001-.207 1.268l-.046.49.36.335c.256.24.749.494 1.556.715 1.192.327 2.87.518 5.126.518 2.256 0 3.934-.19 5.126-.518.807-.22 1.3-.476 1.556-.715l.36-.335-.046-.49a12.073 12.073 0 00-.207-1.268 13.874 13.874 0 00-.865-2.741c-.8-1.813-1.948-3.176-3.53-3.852l-.787 1.838c1.045.447 1.873 1.43 2.487 2.821.326.74.57 1.542.738 2.345.028.135.053.261.074.377-.087.028-.19.059-.308.091z" fill-rule="nonzero"/><path d="M20 16a4 4 0 110-8 4 4 0 010 8zm0-2a2 2 0 100-4 2 2 0 000 4z" fill-rule="nonzero"/><path d="M35.49 19.8l-10.009 9.968-4.557-4.615-1.424 1.404 5.967 6.045 11.432-11.384z"/></g></symbol><symbol viewBox="0 0 40 40" id="letter-40" xmlns="http://www.w3.org/2000/svg"><g fill="currentColor"><path d="M4 32h32V8H4v24zM38 6v28H2V6h36z"/><path d="M3.682 6.688L2.318 8.15l17.737 16.54 17.63-16.54-1.37-1.46-16.263 15.26zM37.646 31.94l-9.915-10.622-1.462 1.364 9.915 10.622zM13.293 21.293l-10 10 1.414 1.414 10-10z"/></g></symbol><symbol viewBox="0 0 40 40" id="mc-40" xmlns="http://www.w3.org/2000/svg"><g fill="none" fill-rule="evenodd"><path d="M0 0h40v40H0z"/><path d="M25.797 8.396l7.25 9.57h-2.013a6.007 6.007 0 00-3.552 1.156l1.013 1.005a5.994 5.994 0 11-1.407 1.422l-1.006-.998a6.003 6.003 0 00-1.078 3.223L25 24v.494l-3.525 2.695-7.35.08L10.31 23.1l-2.607 2.587-1.408-1.42 2.663-2.643L6.558 19H4v-2h3.44l7.556 8.258 5.793-.062 2.227-1.703.018-.238a8.04 8.04 0 016.058-7.053l.093-.022-4.982-6.576 1.594-1.208zM5.56 19.385l.812 1.828a3.995 3.995 0 105.227 5.375l.096-.22 1.854.75a5.95 5.95 0 01-1.317 1.984 5.994 5.994 0 11-6.954-9.583l.282-.134zM31.994 21c-.75 0-1.45.206-2.05.565l2.214 2.195-1.408 1.42-2.21-2.192A3.994 3.994 0 1031.994 21zM22 21v2h-4v-2h4zm-11.764-8l5.979 2.989 6.897-.318c1.278-.13 1.834-.513 1.884-1.516L25 14h2c0 2.259-1.344 3.357-3.513 3.639l-.228.026-7.473.346L9.764 15H3v-2h7.236zM24 12v2h-3v-2h3z" fill="currentColor" fill-rule="nonzero"/></g></symbol><symbol viewBox="0 0 40 40" id="mobile-phone-40" xmlns="http://www.w3.org/2000/svg"><g fill="none" fill-rule="evenodd"><path d="M0 0h40v40H0z"/><g transform="translate(10 3)" fill="currentColor"><path d="M2-1h16a3 3 0 013 3v30a3 3 0 01-3 3H2a3 3 0 01-3-3V2a3 3 0 013-3zm0 2a1 1 0 00-1 1v30a1 1 0 001 1h16a1 1 0 001-1V2a1 1 0 00-1-1H2z" fill-rule="nonzero"/><circle cx="10" cy="30.5" r="1.5"/><path fill-rule="nonzero" d="M0 28h19v-2H0zM0 5h19V3H0z"/></g></g></symbol><symbol viewBox="0 0 40 40" id="mobile-phone-broken-40" xmlns="http://www.w3.org/2000/svg"><g fill="none" fill-rule="evenodd"><path d="M0 0h40v40H0z"/><g transform="translate(7 3)" fill="currentColor"><path d="M2-1h16a3 3 0 013 3v30a3 3 0 01-3 3H2a3 3 0 01-3-3V2a3 3 0 013-3zm0 2a1 1 0 00-1 1v30a1 1 0 001 1h16a1 1 0 001-1V2a1 1 0 00-1-1H2z" fill-rule="nonzero"/><circle cx="10.5" cy="30.5" r="1.5"/><path fill-rule="nonzero" d="M1 28h18v-2H1zM8.27 8.086l-3.704 6.2h8.411l-2.184 4.063 8.746 4.539.922-1.776-6.946-3.604 2.808-5.222H8.091l2.953-4.943-7.557-4.216-.974 1.746zm20.283 1.02l-4 2 .894 1.788 4-2zM24.4 21.8l4 3 1.2-1.6-4-3zM31 16h-5v2h5z"/></g></g></symbol><symbol viewBox="0 0 40 40" id="moped-40" xmlns="http://www.w3.org/2000/svg"><g fill="none" fill-rule="evenodd"><path d="M0 0h40v40H0z"/><path d="M33 22a5 5 0 110 10 5 5 0 010-10zm-29.265.255l1.334 1.49a3.205 3.205 0 104.546 4.505l.124-.152 1.58 1.227a5.205 5.205 0 11-7.773-6.893l.189-.177zM33 24a3 3 0 100 6 3 3 0 000-6zM25.578 9l5.841 10.141c.43-.078.872-.124 1.323-.137L33 19c.732 0 1.687.15 2.886.448l.333.084-.504 1.936C34.509 21.154 33.595 21 33 21c-3.257 0-5.849 2.257-5.97 4.83l-.005.19v3.01H12.604L2 19.111v-6.04l16-.077V14c0 2.94-2.103 5.39-4.923 6.444a5.62 5.62 0 005.383 4.01c3.045 0 5.422-2.26 5.536-5.23L24 19v-4h2v4c0 4.193-3.322 7.454-7.54 7.454a7.618 7.618 0 01-7.326-5.528 8.773 8.773 0 01-.886.07L10 21v-2c2.742 0 5.192-1.665 5.836-3.862l.034-.133L4 15.062v3.181l9.393 8.786h11.632v-1.01c0-2.705 1.809-5.11 4.433-6.276l-5.037-8.744L22 11V9h3.578zM10 16v2H5v-2h5zm20.868-3.497l1.827 3.189-1.735.994-1.828-3.189 1.736-.994z" fill="currentColor" fill-rule="nonzero"/></g></symbol><symbol viewBox="0 0 40 40" id="mortgage-40" xmlns="http://www.w3.org/2000/svg"><g fill="none" fill-rule="evenodd"><path d="M0 0h40v40H0z"/><path d="M16 23.712l9 7.312V38h-2v-6.024l-7-5.688-7 5.688V38H7v-6.976l9-7.312zM19 33v5h-2v-3h-2v3h-2v-5h6zm12-10a4 4 0 110 8 4 4 0 010-8zm0 2a2 2 0 100 4 2 2 0 000-4zm-.883-22.49l3.162 14.624-5.285 1.115a5 5 0 01-9.463 1.995L7.883 22.49 4.721 7.866 30.117 2.51zM23 15a3 3 0 100 6 3 3 0 000-6zm5.583-10.122L7.1 9.408l2.316 10.714 8.593-1.811a5 5 0 019.682-2.043l3.207-.676-2.316-10.714z" fill="currentColor" fill-rule="nonzero"/></g></symbol><symbol viewBox="0 0 40 40" id="notification-swish-40" xmlns="http://www.w3.org/2000/svg"><defs><path d="M10 32.83l.747-.897c5.076 1.392 10.663-.412 14.07-4.472 4.56-5.46 3.778-13.714-1.953-18.287l-1.042-.762L26.56 3l.959.702C31.6 6.862 34 11.657 34 16.922 34 26.395 26.2 34 16.48 34c-2.16 0-4.32-.35-6.48-1.17zm-3.56-2.528C2.342 27.038 0 22.143 0 17.015 0 7.576 7.61 0 17.092 0c2.46 0 4.8.466 6.908 1.514l-.771.847C17.913.715 12.285 2.216 8.83 6.513c-4.448 5.568-3.557 13.54 2.034 18.221l1.017.76L7.258 31l-.818-.698z" id="cfa"/></defs><g fill="none" fill-rule="evenodd"><path d="M0 0h40v40H0z"/><use fill="currentColor" fill-rule="nonzero" xlink:href="#cfa" transform="translate(3 3)"/></g></symbol><symbol viewBox="0 0 40 40" id="padlock-40" xmlns="http://www.w3.org/2000/svg"><g fill="currentColor"><path d="M7 37V17h26v20H7zm24-2V19H9v16h22z"/><path d="M30 17.226v-5.445C30 6.373 25.518 2 20 2c-5.517 0-10 4.373-10 9.78v5.446h2v-5.445C12 7.489 15.576 4 20 4c4.424 0 8 3.489 8 7.78v5.446h2z"/><path d="M26 17.678v-5.8C26 8.626 23.308 6 20 6s-6 2.626-6 5.878v5.8h2v-5.8C16 9.742 17.786 8 20 8c2.215 0 4 1.742 4 3.878v5.8h2zm-3.728 12.347l-1.277-3.86c.526-.315.879-.88.879-1.527 0-.99-.823-1.793-1.838-1.793-1.015 0-1.838.803-1.838 1.793 0 .647.353 1.212.88 1.528l-1.278 3.86h4.472zm-6.074-5.387c0-2.106 1.73-3.793 3.838-3.793 2.109 0 3.838 1.687 3.838 3.793 0 .742-.218 1.445-.603 2.04l1.77 5.347h-10.01l1.77-5.347a3.745 3.745 0 01-.603-2.04z"/></g></symbol><symbol viewBox="0 0 40 40" id="payment-40" xmlns="http://www.w3.org/2000/svg"><g fill="none" fill-rule="evenodd"><path d="M0 0h40v40H0z"/><path d="M13.5 28a4.5 4.5 0 110 9 4.5 4.5 0 010-9zm23.794-4.708l1.412 1.416-11.835 11.8-5.546-5.08 1.35-1.474 4.138 3.788 10.48-10.45zM13.5 30a2.5 2.5 0 100 5 2.5 2.5 0 000-5zM29.395 1.43l2.177 7.477.953.204-3.702 17.628-12.834-3.06a5.502 5.502 0 01-9.812-1.787L1.48 20.89 5.177 3.285l8.25 1.757L29.394 1.43zM6.722 5.66L3.848 19.348l2.194.468a5.501 5.501 0 1110.797 2.008l10.449 2.492 2.87-13.665-16.72-3.562-.283.065-.03-.132L6.721 5.66zM11.5 17a3.5 3.5 0 100 7 3.5 3.5 0 000-7zM28.001 3.796l-9.906 2.24 11.256 2.398-1.35-4.638z" fill="currentColor" fill-rule="nonzero"/></g></symbol><symbol viewBox="0 0 40 40" id="pension-40" xmlns="http://www.w3.org/2000/svg"><g fill="currentColor"><path d="M25 9h-3v2h3zm13 0h-3v2h3zm-7-4V2h-2v3zm0 13v-3h-2v3zm3.243-10.828l2.121-2.122-1.414-1.414-2.122 2.121zm-9.193 9.192l2.122-2.121-1.415-1.415-2.121 2.122zm7.778-2.121l2.122 2.121 1.414-1.414-2.121-2.122zM23.636 5.05l2.121 2.122 1.415-1.415-2.122-2.121zM32 10a2 2 0 10-4 0 2 2 0 004 0zm2 0a4 4 0 11-8 0 4 4 0 018 0zm-17 9.789l2-.002c0 .353.738 1.214 1.229 1.213l2.539.008c.1 0 .238-.149.238-.307v-1.117L14 14.5l-9 5.084v1.222c0 .141.052.194.17.194h2.58c.501-.001 1.244-.85 1.25-1.208l2 .015c0 .341.745 1.194 1.238 1.193h3.512c.49-.002 1.25-.874 1.25-1.211zM15.754 23H12.24c-.832.002-1.642-.449-2.244-1.074-.602.623-1.41 1.072-2.244 1.074h-2.58c-1.237.003-2.171-.96-2.173-2.192v-2.392l11-6.212 11.004 6.212v.583l.002 1.7c.001 1.23-.994 2.306-2.239 2.309L20.228 23c-.833.002-1.639-.451-2.237-1.08-.604.625-1.412 1.078-2.237 1.08z"/><path d="M13 23v11h2V23z"/><path d="M37 35c-2.16 0-3.183-.387-5.175-1.646-2.283-1.441-3.638-1.954-6.243-1.954-2.606 0-3.963.512-6.253 1.954-2 1.258-3.027 1.646-5.188 1.646H3v2h11.141c2.606 0 3.963-.512 6.253-1.953 2-1.26 3.027-1.647 5.188-1.647 2.159 0 3.182.387 5.175 1.645C33.04 36.487 34.395 37 37 37v-2z"/></g></symbol><symbol viewBox="0 0 40 40" id="pension-occupational-40" xmlns="http://www.w3.org/2000/svg"><g fill="none" fill-rule="evenodd"><path d="M0 0h40v40H0z"/><path d="M33 27.015l5.119 9H1.849l5.151-9h26zm-1.163 2H8.16l-2.861 5H34.68l-2.843-5zM27.37 17.02l5.093 8.978H7.476l5.209-8.978H27.37zM20 3.202l6.961 12.82H13.137L20 3.202zm.013 4.214l-3.537 6.606H23.6l-3.587-6.606z" fill="currentColor" fill-rule="nonzero"/></g></symbol><symbol viewBox="0 0 40 40" id="pension-private-40" xmlns="http://www.w3.org/2000/svg"><g fill="none" fill-rule="evenodd"><path d="M0 0h40v40H0z"/><path d="M33 27.01l5.119 9H1.849l5.151-9h26zm-1.163 2H8.16l-2.861 5H34.68l-2.843-5zM27.37 17.014l5.093 8.98H7.476l5.209-8.98H27.37zm-1.165 2H13.837l-2.888 4.98h18.08l-2.824-4.98zM20 3.197l6.961 12.82H13.137L20 3.197z" fill="currentColor" fill-rule="nonzero"/></g></symbol><symbol viewBox="0 0 40 40" id="pension-state-40" xmlns="http://www.w3.org/2000/svg"><g fill="none" fill-rule="evenodd"><path d="M0 0h40v40H0z"/><path d="M33 26.998l5.119 9H1.849l5.151-9h26zm-5.63-9.995l5.093 8.98H7.476l5.209-8.98H27.37zm-1.165 2H13.837l-2.888 4.98h18.08l-2.824-4.98zM20 3.186l6.961 12.82H13.137L20 3.186zm.013 4.214l-3.537 6.606H23.6L20.013 7.4z" fill="currentColor" fill-rule="nonzero"/></g></symbol><symbol viewBox="0 0 40 40" id="percent-40" xmlns="http://www.w3.org/2000/svg"><g fill="none" fill-rule="evenodd"><path d="M0 0h40v40H0z"/><path d="M30.164 2.45l1.672 1.1-23 35-1.672-1.1 23-35zM28 24a7 7 0 110 14 7 7 0 010-14zm0 2a5 5 0 100 10 5 5 0 000-10zM11 2a7 7 0 110 14 7 7 0 010-14zm0 2a5 5 0 100 10 5 5 0 000-10z" fill="currentColor" fill-rule="nonzero"/></g></symbol><symbol viewBox="0 0 40 40" id="phone-40" xmlns="http://www.w3.org/2000/svg"><g fill="currentColor" fill-rule="evenodd"><path d="M11 6.319C11 5.628 11.625 5 12.308 5h15.384C28.375 5 29 5.628 29 6.319V33.68c0 .691-.624 1.319-1.308 1.319H12.308A1.31 1.31 0 0111 33.681V6.32zM12.308 37h15.384C29.482 37 31 35.474 31 33.681V6.32C31 4.525 29.482 3 27.692 3H12.308C10.518 3 9 4.525 9 6.319V33.68A3.31 3.31 0 0012.308 37z" fill-rule="nonzero"/><path fill-rule="nonzero" d="M29 12v-2H11v2zm0 18v-2H11v2z"/><path d="M21.5 32.499a1.5 1.5 0 11-3 .001 1.5 1.5 0 013-.001z"/></g></symbol><symbol viewBox="0 0 40 40" id="phone-landscape-40" xmlns="http://www.w3.org/2000/svg"><g fill="none" fill-rule="evenodd"><path d="M0 0h40v40H0z"/><path d="M34.67 25.339c0 5.808-3.227 8.7-9.245 8.426l2.09 2.089-1.415 1.414-4.384-4.384L26.1 28.5l1.414 1.414-1.859 1.86c4.72.192 6.926-1.789 7.012-6.166l.002-.27h2zM21.83 6.252a3.6 3.6 0 015.092 0l6.576 6.576a3.6 3.6 0 010 5.091L17.376 34.041a3.6 3.6 0 01-5.091 0l-6.576-6.576a3.6 3.6 0 010-5.091zm3.678 1.414a1.6 1.6 0 00-2.263 0L7.123 23.788a1.6 1.6 0 000 2.263l6.576 6.576a1.6 1.6 0 002.263 0l16.122-16.122a1.6 1.6 0 000-2.263zM11.439 26.439a1.5 1.5 0 112.122 2.122 1.5 1.5 0 01-2.122-2.122zM12.833 3l4.46 4.307-4.307 4.46-1.439-1.39 2.143-2.22c-4.29.079-6.27 2.109-6.28 6.29l.002.269-2 .035c-.093-5.387 2.632-8.313 7.833-8.574L11.444 4.44 12.833 3z" fill="currentColor" fill-rule="nonzero"/></g></symbol><symbol viewBox="0 0 40 40" id="pin-40" xmlns="http://www.w3.org/2000/svg"><g fill="currentColor"><path d="M8 37h24v-2H8z"/><path d="M20 2c7.68 0 14 6.192 14 13.737 0 3.622-1.491 7.052-4.097 9.732L20 35.172l-.7-.685-9.22-9.035C7.49 22.789 6 19.359 6 15.737 6 8.192 12.32 2 20 2zm8.486 22.058C30.723 21.756 32 18.82 32 15.738 32 9.305 26.585 4 20 4S8 9.306 8 15.737c0 3.083 1.277 6.02 3.496 8.304L20 32.372l8.486-8.314z"/><path d="M20 19.503c-1.972 0-3.5-1.529-3.5-3.502 0-1.973 1.528-3.501 3.5-3.501s3.5 1.528 3.5 3.501h2c0-3.077-2.423-5.501-5.5-5.501s-5.5 2.424-5.5 5.501c0 3.078 2.423 5.502 5.5 5.502v-2z"/></g></symbol><symbol viewBox="0 0 40 40" id="pregnant-40" xmlns="http://www.w3.org/2000/svg"><g fill="none" fill-rule="evenodd"><path d="M0 0h40v40H0z"/><path d="M20.032 2c1.63 0 3.177.55 4.424 1.538l.23.19-1.306 1.515a5.13 5.13 0 101.66 2.762l-.03-.117h-3.563c-1.513 0-2.645-.366-3.418-1.018l-.15-.135c-.469-.446-.711-.919-.804-1.315l-.025-.13 1.975-.314c.003.018.062.148.233.31.352.335.967.568 1.954.6l.235.003h4.98l.345.912a7.12 7.12 0 01.39 2.328c0 1.61-.534 3.095-1.434 4.288 1.907.747 3.177 2.295 3.267 4.348L29 18v9c0 1.988-1.834 3.882-3.814 3.995L25 31h-7c-1.566 0-3.03-1.452-3-3.018.027-1.482 1.364-2.879 2.836-2.977L18 25h4.999L23 19.258h2V27h-7c-.434 0-.992.561-1 1.019-.008.404.466.904.9.973L18 29h7c.902 0 1.904-.96 1.994-1.87L27 27v-9c0-1.537-1.093-2.628-2.873-2.97l-.075-.012a7.096 7.096 0 01-4.02 1.24 7.098 7.098 0 01-3.267-.791 3.553 3.553 0 00-1.704 2.842l-.006.197v1.72a8.509 8.509 0 011.688-.222L17 20v2c-3.715 0-7 3.264-7 6.83 0 1.579.62 3.067 1.728 4.225 1.123 1.173 2.934 1.873 4.952 1.94L17 35v2c-.683 0-1.353-.06-2-.176V38h-2v-1.753c-1.05-.43-1.978-1.038-2.717-1.81C8.825 32.915 8 30.934 8 28.83c0-3.318 2.109-6.375 5.055-7.87v-2.454c0-1.694.764-3.241 2.002-4.272A7.13 7.13 0 0120.032 2zM27 32v6h-2v-6h2zm-5.176-21.676l1.414 1.415a4.192 4.192 0 01-2.972 1.23 4.193 4.193 0 01-2.798-1.065l-.175-.165 1.414-1.415c.419.419.976.644 1.559.644.518 0 1.016-.178 1.414-.511l.144-.133z" fill="currentColor" fill-rule="nonzero"/></g></symbol><symbol viewBox="0 0 40 40" id="radio-enclosed-40" xmlns="http://www.w3.org/2000/svg"><g fill="currentColor" fill-rule="evenodd"><path d="M20 38c-9.941 0-18-8.059-18-18S10.059 2 20 2s18 8.059 18 18-8.059 18-18 18zm0-2c8.837 0 16-7.163 16-16S28.837 4 20 4 4 11.163 4 20s7.163 16 16 16z" fill-rule="nonzero"/><path d="M20.06 22c-1.09 0-2.06-.875-2.06-2s.848-2 2.06-2c1.213 0 1.94.875 1.94 2s-.848 2-1.94 2z"/></g></symbol><symbol viewBox="0 0 37 37" id="retro-phone-40" xmlns="http://www.w3.org/2000/svg"><g fill="none" fill-rule="evenodd"><path d="M-1-1h40v40H-1z"/><path d="M31.647 33.566c.02-.022.02-.022.039-.04l.09-.093.293-.298.873-.887c.697-.708 1.079-1.096 1.208-1.232.453-.47.662-.95.662-1.408 0-.45-.205-.906-.661-1.358l-4.436-4.45-.026-.026c-.421-.439-.855-.638-1.289-.638-.441 0-.895.204-1.352.66l-2.563 2.554c-1.653 1.626-5.273-.64-8.805-3.703-2.772-2.403-5.756-7.108-4.544-9.036l.144-.23.2-.182c.218-.199.599-.57 1.092-1.061l.049-.049c.43-.43 1.44-1.448 1.348-1.356.915-.915.915-1.845-.007-2.767-2.593-2.619-4.096-4.12-4.462-4.46-.421-.417-.86-.61-1.3-.61-.451 0-.916.202-1.334.603L4.102 6.285A3.901 3.901 0 002.928 8.79c-.132 1.612.208 3.223.917 5.133 1.23 3.317 3.074 6.394 5.839 9.716 3.36 4.012 7.394 7.17 11.985 9.387 2.434 1.153 4.352 1.781 6.35 1.91.211.01.32.014.413.014 1.31 0 2.338-.439 3.18-1.346.043-.06.04-.053.035-.038zm-.516-11.178l4.436 4.45c.816.808 1.245 1.769 1.245 2.77 0 .994-.42 1.963-1.22 2.795-.348.363-2.49 2.528-2.497 2.544-1.228 1.332-2.796 2.003-4.663 2.003-.161 0-.339-.008-.509-.017-2.771-.177-5.252-1.22-7.11-2.1-4.865-2.35-9.123-5.685-12.662-9.909-2.917-3.505-4.873-6.776-6.182-10.305C1.436 13.18.741 10.984.935 8.626A5.907 5.907 0 012.69 4.87l2.763-2.786C6.26 1.31 7.213.897 8.199.897s1.923.412 2.707 1.187c.35.323 1.843 1.815 4.477 4.474 1.697 1.696 1.697 3.893 0 5.59-.227.225-1.891 1.921-2.554 2.527-.404.643 2.077 4.655 4.16 6.461 2.085 1.807 5.748 4.128 6.094 3.788l2.554-2.544c.816-.816 1.77-1.244 2.763-1.244 1.002 0 1.947.436 2.731 1.252z" fill="currentColor" fill-rule="nonzero"/></g></symbol><symbol viewBox="0 0 40 40" id="rv-40" xmlns="http://www.w3.org/2000/svg"><g fill="none" fill-rule="evenodd"><path d="M0 0h40v40H0z"/><path d="M14 24a3 3 0 110 6 3 3 0 010-6zm15 0a3 3 0 110 6 3 3 0 010-6zm5.744-14l3.305 11.016L35.72 28H33v-2h1.279l1.672-5.017L33.256 12H5.819l-1.6 8H7v2H4.386l1.334 4H10v2H4.28l-2.313-6.936L4.18 10h30.564zM14 26a1 1 0 100 2 1 1 0 000-2zm15 0a1 1 0 100 2 1 1 0 000-2zm-4 0v2h-7v-2h7zm0-12v11h-2v-9h-3v9h-2V14h7zm7.244 0l2.1 7H27v-7h5.244zm-1.488 2H29v3h2.656l-.9-3zM15 14v5H7v-5h8zm-2 2H9v1h4v-1z" fill="currentColor" fill-rule="nonzero"/></g></symbol><symbol viewBox="0 0 40 40" id="save-40" xmlns="http://www.w3.org/2000/svg"><g fill="currentColor"><path d="M7.019 13.697a1.675 1.675 0 01-2.481 0c-.723-.764-.723-2.025 0-2.789L3.083 9.534c-1.451 1.535-1.451 4.002 0 5.537a3.675 3.675 0 005.388 0L7.02 13.697z"/><path d="M27 27.721l.698-.221c2.646-.838 4.41-2.692 5.264-5.767l.203-.733H36v-3h-3l-.249-.637c-.985-2.527-2.723-4.246-5.107-5.156L27 11.962V7.47a5.668 5.668 0 00-3.062 1.465 6.062 6.062 0 00-.918 1.062 3.71 3.71 0 00-.258.429l-.27.574h-6.635C11.115 11 7 15.105 7 19.853c0 3.416 1.508 5.673 4.508 7.44l.492.29V32h3v-4h9v4h3v-4.279zm2 1.438V34h-7v-4h-5v4h-7v-5.285c-3.254-2.075-5-4.875-5-8.862C5 14 10.012 9 15.857 9h5.416a7.927 7.927 0 011.311-1.537c1.4-1.288 3.206-2.066 5.416-2.066h1v5.21c2.388 1.078 4.214 2.898 5.346 5.393H38v7h-3.336c-1.03 3.047-2.958 5.096-5.664 6.16z"/><path d="M23 13h-7v2h7z"/></g></symbol><symbol viewBox="0 0 40 40" id="shield-40" xmlns="http://www.w3.org/2000/svg"><g fill="none" fill-rule="evenodd"><path d="M0 0h40v40H0z"/><path d="M29.545 2c0 2.88 2.728 5.76 5.455 5.76v12.96C35 27.44 30 33.2 20 38 10 33.2 5 27.44 5 20.72V7.76c2.727 0 5.455-2.88 5.455-5.76h19.09zm-1.7 2h-15.69C11.417 6.479 9.39 8.624 7 9.425V20.72c0 5.625 4.21 10.651 13 15.053 8.79-4.402 13-9.428 13-15.053V9.425C30.611 8.624 28.584 6.479 27.844 4zm-3.865 9.293l1.415 1.414-3.793 3.793 3.793 3.793-1.415 1.414-3.793-3.793-3.792 3.793-1.415-1.414 3.793-3.793-3.793-3.793 1.415-1.414 3.792 3.792 3.793-3.792z" fill="currentColor" fill-rule="nonzero"/></g></symbol><symbol viewBox="0 0 40 40" id="smalltruck-40" xmlns="http://www.w3.org/2000/svg"><g fill="none" fill-rule="evenodd"><path d="M0 0h40v40H0z"/><path d="M11.071 25.071a4 4 0 110 8 4 4 0 010-8zM30 25a4 4 0 110 8 4 4 0 010-8zm-18.93 2.071a2 2 0 100 4 2 2 0 000-4zM30 27a2 2 0 100 4 2 2 0 000-4zm3.677-14L38 23.807V30h-3v-2h1v-3.806L32.323 15H30v-2h3.677zM29 6v18H4.387l1.333 4H6v2H4.28l-2.001-6H2V6h27zm-4 22v2h-9v-2h9zm2-20H4v14h23V8zm-5 11v2h-2v-2h2zm-7 0v2h-2v-2h2zm-6 0v2H7v-2h2z" fill="currentColor" fill-rule="nonzero"/></g></symbol><symbol viewBox="0 0 40 40" id="snailmail-40" xmlns="http://www.w3.org/2000/svg"><g fill="none" fill-rule="evenodd"><path d="M0 0h40v40H0z"/><g fill="currentColor" fill-rule="nonzero"><path d="M2 34h36v-2H2zM28 4V2h-5v13.98h2V4z"/><path d="M25 8H9.783v2H25zm-6 25v5h2v-5z"/><path d="M16.263 32.091v-17.96a6.131 6.131 0 00-12.263 0V30h2V14.131a4.131 4.131 0 018.263 0v17.96h2zm21.717 0v-17.96A6.131 6.131 0 0031.849 8H27v2h4.849a4.131 4.131 0 014.131 4.131v17.96h2z"/><path d="M10 18h5v-2H8v14h6.868v-2H10z"/></g></g></symbol><symbol viewBox="0 0 40 40" id="snowmobile-40" xmlns="http://www.w3.org/2000/svg"><g fill="none" fill-rule="evenodd"><path d="M0 0h40v40H0z"/><path d="M19.787 23C21.591 23 23 24.592 23 26.5S21.59 30 19.787 30H5.213C3.41 30 2 28.408 2 26.5S3.41 23 5.213 23zm2.92-12.707L34.425 22.01l-2.904 2.818-.141.136 2.648 2.648.012-.007c.205-.143.439-.35.764-.677l.73-.769 1.745-1.853 1.442 1.386-2.167 2.304c-.651.683-1.071 1.065-1.528 1.355-.748.475-1.453.628-2.74.646L32 30h-7v-2h6.585l-1.81-1.81a6.54 6.54 0 01-1.069.493 5.076 5.076 0 01-1.48.308l-.2.009c-.046 0-.184.002-.406.002L23.998 27l.004-2h2.971a3.153 3.153 0 001.065-.202c.603-.214 1.226-.59 1.865-1.186l1.671-1.623L26 16.415 22.414 20H8c-.623 0-1.319.422-1.494 1.036l-.293 1.05-1.927-.536.296-1.063c.428-1.498 1.846-2.409 3.237-2.482L8 18h13.584v-.001L20.585 17H18v-2h3.414L23 16.584l1.585-1.585-3.291-3.292 1.414-1.414zM19.787 25H5.213C4.573 25 4 25.646 4 26.5S4.572 28 5.213 28h14.574c.641 0 1.213-.646 1.213-1.5s-.572-1.5-1.213-1.5z" fill="currentColor" fill-rule="nonzero"/></g></symbol><symbol viewBox="0 0 40 40" id="star-40" xmlns="http://www.w3.org/2000/svg"><g fill="none" fill-rule="evenodd"><path d="M0 .833h40v39.024H0z"/><path d="M30.104 34.406l-5.402-11.698.692-.479 8.483-5.86H23.219l-.23-.681-3.147-9.352-3.211 10.033H5.99l9.19 6.285-.372.774-5.256 10.926 10.233-6.352 10.318 6.404zm-2.88-11.01l5.929 12.842a1.11 1.11 0 01-.036 1.06 1.104 1.104 0 01-1.534.38l-11.797-7.322L8 37.671c-.338.21-.764.221-1.114.029-.53-.292-.724-.953-.461-1.456l6.21-12.91-10.209-6.982a1.11 1.11 0 01.68-1.983H15.17L18.768 3.13a1.105 1.105 0 012.1-.017l3.788 11.255h12.08c.349 0 .676.166.884.444.359.48.271 1.162-.252 1.573l-10.145 7.01z" fill="currentColor" fill-rule="nonzero"/></g></symbol><symbol viewBox="0 0 40 40" id="sustainability-40" xmlns="http://www.w3.org/2000/svg"><path d="M35.576 4.72l-.5.033.5-.04-.015-.183c-.035-.432-.064-.79-.082-1.058L35.376 2l-2.263.998C29.936 4.38 22.497 7.616 19.967 9.932a9.557 9.557 0 00-2.531 10.333l.17.47 1.947-.704-.17-.47a7.49 7.49 0 011.98-8.101c2.18-1.995 8.89-4.96 12.165-6.385.277 3.454.87 11.063.13 13.92a7.431 7.431 0 01-3.469 4.58 7.508 7.508 0 01-5.742.787 7.97 7.97 0 01-1.331-.504L24.77 21.2l6.127-1.496-.49-2.011-4.07.994 3.157-5.067-1.756-1.094-3.262 5.23-1.003-4.114-2.01.49 1.482 6.083-5.926 9.507-3.027-4.161a4.64 4.64 0 00.315-.353 6.005 6.005 0 001.27-4.4c-.165-1.45-.859-2.73-1.957-3.6-1.359-1.08-4.786-2.198-7.13-2.963-.449-.146-.81-.263-1.032-.343L4.071 13.4l.001 1.476c0 .233-.01.602-.023 1.06-.083 3.023-.12 6.104.395 7.642.687 2.047 2.685 3.48 5.091 3.65l.5.035.144-2.066-.499-.036c-1.285-.09-2.795-.818-3.273-2.242-.418-1.247-.345-4.81-.297-6.62 1.803.589 5.192 1.713 6.224 2.532.663.527 1.084 1.312 1.186 2.21a3.918 3.918 0 01-.78 2.799l-2.256-3.102-1.674 1.217 7.028 9.663-3.56 5.712 1.757 1.094 7.98-12.801a10.09 10.09 0 001.904.74c2.455.65 5.113.29 7.316-1a9.493 9.493 0 004.426-5.846c.843-3.248.215-11.05-.086-14.797" fill="currentColor" fill-rule="evenodd"/></symbol><symbol viewBox="0 0 40 40" id="tablet-40" xmlns="http://www.w3.org/2000/svg"><g fill="none" fill-rule="evenodd"><path d="M0 0h40v40H0z"/><g transform="translate(6 3)" fill="currentColor"><path d="M2-1h24a3 3 0 013 3v30a3 3 0 01-3 3H2a3 3 0 01-3-3V2a3 3 0 013-3zm0 2a1 1 0 00-1 1v30a1 1 0 001 1h24a1 1 0 001-1V2a1 1 0 00-1-1H2z" fill-rule="nonzero"/><circle cx="14" cy="30.5" r="1.5"/><path fill-rule="nonzero" d="M9.293 3.293l-6 6 1.414 1.414 6-6zM3.707 6.707l3-3-1.414-1.414-3 3z"/></g></g></symbol><symbol viewBox="0 0 40 40" id="tag-40" xmlns="http://www.w3.org/2000/svg"><g fill="currentColor"><path d="M22.514 5.015L5.46 22.07l12.488 12.488 17.054-17.055.005-7.39-5.097-5.096-7.396-.002zm14.493 4.271l-.005 9.046-19.054 19.054L2.63 22.07 21.686 3.015l9.053.002 6.268 6.27z"/><path d="M26 16c1.093 0 2-.907 2-2s-.907-2-2-2-2 .907-2 2c0 .431.018.574.088.714l.054.131c.042.124.144.285.295.44.41.478.916.715 1.563.715zm-4-2c0-2.197 1.803-4 4-4s4 1.803 4 4-1.803 4-4 4c-1.237 0-2.296-.496-3.03-1.357a3.118 3.118 0 01-.7-1.095C22.042 15.073 22 14.7 22 14z"/></g></symbol><symbol viewBox="0 0 40 40" id="thumbup-40" xmlns="http://www.w3.org/2000/svg"><g fill="none" fill-rule="evenodd"><path d="M0 0h40v40H0z"/><path d="M22.231 2.36a1 1 0 011.355-.17c.86.622 1.454 1.86 1.898 3.731a1 1 0 01-.009.497L23.113 15h13.91a1 1 0 011 1v6a1 1 0 01-.073.373l-6.022 15A1 1 0 0131 38H15a1 1 0 01-.555-.168l-3-2A1 1 0 0111 35V16.222a1 1 0 01.231-.64zm.733 2.247L13 16.584v17.88L15.303 36h15.02l5.7-14.193V17H21.8a1 1 0 01-.964-1.265l2.642-9.597a9.146 9.146 0 00-.514-1.53zM9.022 17v19h-7V17h7zm-2 2h-3v15h3V19z" fill="currentColor" fill-rule="nonzero"/></g></symbol><symbol viewBox="0 0 40 40" id="tractor-40" xmlns="http://www.w3.org/2000/svg"><g fill="none" fill-rule="evenodd"><path d="M0 0h40v40H0z"/><path d="M12.163 22.479a6.44 6.44 0 110 12.88 6.44 6.44 0 010-12.88zm9.301-17.33l4.177 13.249h3.108v-7.143c0-.138-.022-.299-.062-.451a1.721 1.721 0 00-1.519-1.28l-.146-.005v-2a3.721 3.721 0 013.6 2.781c.061.233.102.477.118.716l.009.239v7.143h4.165l.068 7.413a5.08 5.08 0 11-7.487 4.108h-6.812v-1a8.52 8.52 0 00-8.52-8.52 8.524 8.524 0 00-8.125 5.947l-.076.252-1.924-.543a10.504 10.504 0 013.685-5.456V5.15h15.741zm-9.301 19.33a4.44 4.44 0 100 8.88 4.44 4.44 0 000-8.88zm20.4 2.72a3.08 3.08 0 100 6.16 3.08 3.08 0 000-6.16zM12.423 7.147l-4.701.001.001 12.232a10.495 10.495 0 014.44-.981c5.429 0 9.897 4.112 10.46 9.392l.012.127h5.428a5.08 5.08 0 014.914-2.703l-.046-4.817h-8.756l-4.177-13.25h-5.575v8.926h-2V7.147z" fill="currentColor" fill-rule="nonzero"/></g></symbol><symbol viewBox="0 0 40 40" id="trailer-40" xmlns="http://www.w3.org/2000/svg"><g fill="none" fill-rule="evenodd"><path d="M0 0h40v40H0z"/><path d="M11 19a4 4 0 110 8 4 4 0 010-8zm0 2a2 2 0 100 4 2 2 0 000-4zm27-6v3h-2v-1h-7v7H16v-2l11-.001V17h-2v-.001H5v5L6 22v2H3v-6H2v-3h36z" fill="currentColor" fill-rule="nonzero"/></g></symbol><symbol viewBox="0 0 40 40" id="travel-40" xmlns="http://www.w3.org/2000/svg"><g fill="currentColor"><path d="M19.102 26.996l5.253 1.136.422-1.955-5.748-1.243-5.994 1.752 3.424 3.213 1.368-1.459-.87-.817z"/><path d="M17.142 35.328l-9.115-1.036-4.804-4.513 6.264-1.763 3.16 1.701 2.348-.686 16.75-4.894 5.648 1.214.167.572a3.346 3.346 0 01-2.273 4.15l-7.302 2.135-5.04 5.37-6.013 1.758 1.078-4.248-.868.24zm1.618-3.195l1.939.492-.967 3.809 2.127-.622 5.04-5.37.263-.077 7.564-2.211c.531-.155.894-.609.959-1.124l-3.866-.831-16.263 4.752-3.135.916-3.17-1.707-2.078.585 1.74 1.634 8.07.918 1.594-.44.183-.724zM23.989 21a.995.995 0 00-.752.354 1 1 0 10.752-.354zm.046 4a3 3 0 11-.07-6 3 3 0 01.07 6zM19.92 6.733C19.448 4.037 16.966 2 14.001 2c-2.966 0-5.448 2.037-5.92 4.733C5.214 7.15 3 9.485 3 12.333 3 15.479 5.7 18 9 18h1.965v-2H9c-2.224 0-4-1.658-4-3.667s1.776-3.666 4-3.666h1v-1C10 5.657 11.776 4 14.001 4c2.224 0 4 1.658 4 3.667v1h1c2.224 0 4 1.657 4 3.666 0 .971-.414 1.884-1.147 2.57l1.364 1.46c1.131-1.055 1.783-2.492 1.783-4.03 0-2.847-2.214-5.183-5.08-5.6z"/><path d="M19 17a2 2 0 10-4 0 2 2 0 004 0zm2 0a4 4 0 11-8 0 4 4 0 018 0z"/></g></symbol><symbol viewBox="0 0 40 40" id="twitter-40" xmlns="http://www.w3.org/2000/svg"><g fill="currentColor" fill-rule="evenodd"><path d="M5 5v30h30V5H5zM3 3h34v34H3V3z" fill-rule="nonzero"/><path d="M16.764 26.797c6.407 0 9.91-5.307 9.91-9.91l-.003-.288a.31.31 0 01.121-.257c.52-.394.986-.86 1.378-1.382.07-.092-.024-.218-.132-.177a6.992 6.992 0 01-1.526.385c-.025.003-.038-.031-.016-.045a3.504 3.504 0 001.295-1.497.141.141 0 00-.195-.183 6.996 6.996 0 01-1.709.623.307.307 0 01-.279-.08 3.484 3.484 0 00-5.866 3.076.173.173 0 01-.181.201 9.884 9.884 0 01-6.75-3.383.213.213 0 00-.354.047 3.478 3.478 0 001.136 4.297c.026.019.012.06-.02.059a3.453 3.453 0 01-1.26-.325.141.141 0 00-.2.138 3.487 3.487 0 002.664 3.188.03.03 0 010 .058 3.487 3.487 0 01-1.258.06.116.116 0 00-.125.156 3.49 3.49 0 002.886 2.214c.103.01.14.142.055.203a6.988 6.988 0 01-4.079 1.306h-.071c-.192 0-.256.256-.088.346a9.849 9.849 0 004.667 1.17"/></g></symbol><symbol viewBox="0 0 40 40" id="umbrella-40" xmlns="http://www.w3.org/2000/svg"><g fill="currentColor"><path d="M27.5 16.478c2.3 0 4.44.804 6.125 2.194-1.477-6.124-7.136-10.769-13.724-10.769-6.609 0-12.145 4.606-13.554 10.812 1.705-1.408 3.88-2.237 6.153-2.237a9.603 9.603 0 017.503 3.588c1.806-2.214 4.572-3.588 7.497-3.588zm0 2c-2.723 0-5.292 1.519-6.634 3.847h-1.732c-1.362-2.362-3.849-3.847-6.634-3.847-2.723 0-5.292 1.519-6.634 3.847L4 21.826c0-8.82 7.125-15.923 15.901-15.923C28.678 5.903 36 13.104 36 21.826l-1.866.5c-1.362-2.363-3.849-3.848-6.634-3.848zM19.004 33.43c0 1.227-.978 2.215-2.182 2.215s-2.182-.988-2.182-2.216h-2c0 2.327 1.869 4.216 4.182 4.216 2.313 0 4.182-1.889 4.182-4.216h-2z"/><path d="M19 21.336v12.34h2v-12.34zM21 6.95V2h-2v4.95z"/></g></symbol><symbol viewBox="0 0 40 40" id="user-40" xmlns="http://www.w3.org/2000/svg"><g fill="currentColor"><path d="M31 23c0 7.194-5.825 13-13 13-7.151 0-13-5.849-13-13 0-7.194 5.825-13 13-13 3.83 0 7.405 1.671 9.895 4.545l1.511-1.31C26.54 9.928 22.417 8 18 8 9.722 8 3 14.7 3 23c0 8.256 6.744 15 15 15 8.278 0 15-6.7 15-15a15.43 15.43 0 00-.788-4.871l-.173-.472-.24-.655H21.282c-2.885 0-4.879-.76-6.185-2.002a5.08 5.08 0 01-1.003-1.307 2.776 2.776 0 01-.218-.502l-1.934.512c.195.735.73 1.751 1.777 2.746 1.687 1.604 4.177 2.553 7.563 2.553h9.111C30.788 20.262 31 21.62 31 23z"/><path d="M13 22.61c0-.335.256-.61.5-.61s.5.275.5.61h2C16 21.2 14.881 20 13.5 20S11 21.2 11 22.61h2zm9 0c0-.335.256-.61.5-.61s.5.275.5.61h2C25 21.2 23.881 20 22.5 20S20 21.2 20 22.61h2zm.305 5.284A6.176 6.176 0 0118 29.626a6.176 6.176 0 01-4.305-1.732l-1.39 1.439A8.175 8.175 0 0018 31.626a8.175 8.175 0 005.695-2.293l-1.39-1.439zm3.058-21.416l.87-4.062-1.956-.418-.87 4.062zm5.118 2.59l2.532-3.32-1.591-1.213-2.531 3.321zm2.914 4.575l3.719-1.946-.928-1.772-3.718 1.946z"/></g></symbol><symbol viewBox="0 0 40 40" id="user-happy-40" xmlns="http://www.w3.org/2000/svg"><g fill="none" fill-rule="evenodd"><path d="M0 0h40v40H0z"/><path d="M20 2c5.099 0 9.858 2.133 13.244 5.81l-1.471 1.355A15.952 15.952 0 0020 4C11.163 4 4 11.163 4 20s7.163 16 16 16 16-7.163 16-16c0-1.836-.31-3.629-.906-5.321h-12.26c-4.293 0-8.908-2.485-10.154-5.885l1.878-.688c.92 2.512 4.749 4.573 8.275 4.573h13.63l.251.628A17.953 17.953 0 0138 20c0 9.941-8.059 18-18 18S2 29.941 2 20 10.059 2 20 2zm6.28 25.305l1.44 1.39C25.69 30.795 22.934 32 19.993 32c-2.934 0-5.685-1.2-7.712-3.293l1.436-1.391C15.374 29.025 17.61 30 19.994 30c2.39 0 4.63-.98 6.287-2.695zM26 17a3 3 0 013 3h-2a1 1 0 00-2 0h-2a3 3 0 013-3zm-12 0a3 3 0 013 3h-2a1 1 0 00-2 0h-2a3 3 0 013-3z" fill="currentColor" fill-rule="nonzero"/></g></symbol><symbol viewBox="0 0 40 40" id="wallet-40" xmlns="http://www.w3.org/2000/svg"><g fill="none" fill-rule="evenodd"><path d="M0 0h40v40H0z"/><path d="M33.857 5v2H5a1 1 0 00-1 1v25a1 1 0 001 1h29v-5.96h2V36H5a3 3 0 01-3-3V8a3 3 0 013-3h28.857zM36 9v8h2v11h-8v-2h6v-7h-6v-2h4v-6H6V9h30z" fill="currentColor" fill-rule="nonzero"/></g></symbol><symbol viewBox="0 0 40 40" id="world-40" xmlns="http://www.w3.org/2000/svg"><g fill="none" fill-rule="evenodd"><path d="M0 0h40v40H0z"/><g fill="currentColor"><path d="M20 38c9.941 0 18-8.059 18-18S29.941 2 20 2 2 10.059 2 20s8.059 18 18 18zm0-2c-8.837 0-16-7.163-16-16S11.163 4 20 4s16 7.163 16 16-7.163 16-16 16z" fill-rule="nonzero"/><path fill-rule="nonzero" d="M18.102 4.927l-4.287 1.8-1.97 3.247 1.827 3.311 3.241-1.435H20v-2h-3.51l-1.952.865-.383-.693 1.033-1.701 4.914-2.065V3h-2zM12.737 16.18l.126-.112-.068.05-.058.062zm-1.908 1.417l2.058 6.352H16.5l.646-.163v.612l1.365 1.692-.687 1.94 2.189 6.25 4.493-1.6.666-2.25 2.127-1.96v-3.14l3.347-4.04-3.605-1.436-1.992-4.358-3.476-1.64-1.223.808-1.895-.615-.618 1.902 2.811.913 1.09-.72 1.796.849 2.022 4.422 1.796.716-2.053 2.478v2.984l-1.888 1.74-.534 1.804-1.641.584-1.291-3.687.824-2.33-1.623-2.012V21.22l-2.894.73H14.34l-1.17-3.612.894-.672.126-.112 1.764-1.867-1.454-1.374-1.706 1.806-1.966 1.478zm17.215-.074l3.52-1.515.442-1.225.344-.137 3.86 4.968 1.58-1.228-4.782-6.154-2.577 1.026-.454 1.256-.915.394-1.604-3.57-3.972-2.212-.972 1.748 3.392 1.888z"/><path d="M28 31.157l.56-1.866L30 27v2.712L29 32z"/><path fill-rule="nonzero" d="M11 27.34v-3.184l-2.93-1.444-2.866-1.82-2.545.923.682 1.88 1.62-.587 2.083 1.322.094.052L9 25.4v1.536l-1.15 2.731V33h2v-2.929zM6.943 12.368l-1.613 4.01-2.575.653.49 1.938 3.562-.9 2.25-5.597L7.96 8.719l-1.92.562z"/></g></g></symbol><symbol viewBox="0 0 40 40" id="wristwatch-40" xmlns="http://www.w3.org/2000/svg"><g fill="none" fill-rule="evenodd"><path d="M0 0h40v40H0z"/><path d="M12.067 10.996L13.567 2h12.917l1.45 8.998A11.971 11.971 0 0132 20c0 3.582-1.57 6.797-4.057 8.996l-1.495 8.96H13.53l-1.44-8.93A11.972 11.972 0 018 20c0-3.586 1.573-6.805 4.067-9.004zm2.293-1.59A11.947 11.947 0 0120 8c2.044 0 3.969.511 5.654 1.413L24.78 4h-9.52l-.9 5.405zm.011 21.195l.864 5.355h9.519l.895-5.366C23.965 31.49 22.042 32 20 32a11.94 11.94 0 01-5.629-1.4zM20 30c5.523 0 10-4.477 10-10s-4.477-10-10-10-10 4.477-10 10 4.477 10 10 10zm5.724-7.1l-1.172 1.622L19 20.512V11.5h2v7.989l4.724 3.412z" fill="currentColor" fill-rule="nonzero"/></g></symbol></svg>