<?xml version="1.0" encoding="utf-8"?><svg xmlns="http://www.w3.org/2000/svg" xmlns:xlink="http://www.w3.org/1999/xlink"><symbol viewBox="0 0 70 70" id="bankid-mc-70" xmlns="http://www.w3.org/2000/svg"><g fill="none" fill-rule="evenodd"><path d="M0 0h70v70H0z"/><g fill-rule="nonzero"><path d="M24.368 37.202l2.338-15.63h-2.498c-1.169 0-2.674-.696-3.117-1.973-.142-.432-.478-1.916 1.452-3.363.691-.507 1.134-1.07 1.222-1.503.089-.45-.017-.845-.318-1.146-.425-.432-1.258-.676-2.32-.676-1.79 0-3.047 1.09-3.171 1.878-.089.583.336 1.052.708 1.353 1.116.883 1.382 2.16.691 3.363-.708 1.24-2.25 2.048-3.897 2.067h-2.55c-.213 1.521-3.684 24.855-3.95 26.696h13.833c.124-.827.762-5.242 1.63-11.066h-.053z" fill="#479CBE"/><path d="M43.442 8H28.675l-1.97 12.605h2.508c1.375 0 2.675-.637 3.232-1.555.186-.3.26-.562.26-.805 0-.525-.353-.918-.706-1.18-.965-.73-1.17-1.498-1.17-2.042 0-.112 0-.206.019-.3.204-1.329 1.987-2.771 4.346-2.771 1.412 0 2.49.337 3.14.955.575.543.798 1.311.631 2.116-.204.956-1.152 1.742-1.69 2.136-1.43 1.011-1.245 1.891-1.152 2.153.297.787 1.43 1.293 2.303 1.293h3.808v.019c5.201.037 7.987 2.453 7.114 8.072-.817 5.225-4.792 7.473-9.529 7.51l-1.876 12.062h2.768c11.684 0 21.23-7.567 23.107-19.516C66.14 13.918 56.815 8 43.442 8z" fill="#00A5C3"/><path d="M43.442 8H28.675l-1.97 12.605h2.508c1.375 0 2.675-.637 3.232-1.555.186-.3.26-.562.26-.805 0-.525-.353-.918-.706-1.18-.965-.73-1.17-1.498-1.17-2.042 0-.112 0-.206.019-.3.204-1.329 1.987-2.771 4.346-2.771 1.412 0 2.49.337 3.14.955.575.543.798 1.311.631 2.116-.204.956-1.152 1.742-1.69 2.136-1.43 1.011-1.245 1.891-1.152 2.153.297.787 1.43 1.293 2.303 1.293h3.808v.019c5.201.037 7.987 2.453 7.114 8.072-.817 5.225-4.792 7.473-9.529 7.51l-1.876 12.062h2.768c11.684 0 21.23-7.567 23.107-19.516C66.14 13.918 56.815 8 43.442 8zM7.599 52.235h5.861c2.5 0 3.106 1.331 2.922 2.547-.147.983-.79 1.717-1.893 2.199 1.397.56 1.948 1.427 1.746 2.797-.257 1.717-1.672 2.99-3.528 2.99h-6.67l1.562-10.533zm3.877 4.36c1.14 0 1.672-.637 1.782-1.389.11-.81-.239-1.37-1.378-1.37h-1.01l-.405 2.759h1.01zm-.625 4.553c1.176 0 1.856-.502 2.021-1.524.129-.888-.349-1.408-1.488-1.408h-1.158l-.44 2.951h1.065v-.019zm13.598 1.698c-1.525.115-2.26-.058-2.628-.753a4.86 4.86 0 01-2.664.791c-1.728 0-2.334-.945-2.169-1.987.074-.501.35-.984.79-1.389.956-.868 3.308-.984 4.227-1.64.073-.733-.202-1.003-1.066-1.003-1.01 0-1.856.347-3.308 1.39l.35-2.393c1.25-.945 2.462-1.39 3.858-1.39 1.783 0 3.363.773 3.069 2.818l-.35 2.315c-.128.81-.091 1.06.773 1.08l-.882 2.16zm-2.646-3.627c-.809.54-2.316.443-2.481 1.562-.074.521.239.907.735.907.478 0 1.066-.212 1.544-.56-.037-.192-.019-.385.036-.752l.166-1.157zm5.494-4.611h3.05l-.165 1.061c.974-.868 1.709-1.196 2.664-1.196 1.709 0 2.5 1.1 2.224 2.894l-.79 5.382h-3.05l.66-4.456c.13-.81-.11-1.196-.698-1.196-.477 0-.918.27-1.341.868l-.698 4.765h-3.05l1.194-8.122zm10.143-2.373h3.05l-.772 5.17 2.922-2.797h3.767l-3.749 3.473 3.014 4.668h-3.84l-2.316-3.762h-.036l-.552 3.762h-3.05z" fill="#235971"/><path d="M48.954 52.236h3.311L50.81 62.94h-3.311zm4.924 0h4.732c3.658 0 4.716 3.005 4.37 5.5-.33 2.435-2.03 5.205-5.236 5.205h-5.34l1.474-10.705zm3.068 8.152c1.612 0 2.497-.904 2.757-2.81.19-1.414-.191-2.808-1.977-2.808h-.884l-.763 5.618h.867z" fill="#479CBE"/></g></g></symbol><symbol viewBox="0 0 70 70" id="pension-capital-mc-70" xmlns="http://www.w3.org/2000/svg"><g fill="none" fill-rule="evenodd"><path d="M0 0h70v70H0z"/><g stroke-width="2"><path d="M23.95 32l-7.121 13h36.574l-7.341-13H23.95zm11.053-20.784L25.863 28h18.34l-9.2-16.784z" stroke="#E30613"/><path d="M14.734 49L8.69 60H61.3l-6.121-11H14.734z" stroke="#005AA0"/></g></g></symbol><symbol viewBox="0 0 70 70" id="pension-occupational-in-mc-70" xmlns="http://www.w3.org/2000/svg"><g fill="none" fill-rule="evenodd"><path d="M0 0h70v70H0z"/><path d="M22.753 36h-2.28l2.737-5H46.5l8.475 15H15l2.737-5h2.28l-1.642 3h33.173l-6.214-11H24.395l-1.642 3z" fill="#E30613" fill-rule="nonzero"/><path fill="#E30613" fill-rule="nonzero" d="M25.322 36.136l1.435 1.388H15v1.988h11.757l-1.435 1.444 1.435 1.386 3.761-3.824-3.761-3.768z"/><path d="M35.003 11.096L25.857 28h18.351l-9.205-16.904zM14.734 49L8.69 60H61.3l-6.121-11H14.734z" stroke="#005AA0" stroke-width="2"/></g></symbol><symbol viewBox="0 0 70 70" id="pension-occupational-mc-70" xmlns="http://www.w3.org/2000/svg"><g fill="none" fill-rule="evenodd"><path d="M0 0h70v70H0z"/><g stroke-width="2"><path d="M23.95 32l-7.121 13h36.574l-7.341-13H23.95z" stroke="#E30613"/><path d="M35.003 11.216L25.863 28h18.34l-9.2-16.784zM14.734 49L8.69 60H61.3l-6.121-11H14.734z" stroke="#005AA0"/></g></g></symbol><symbol viewBox="0 0 70 70" id="pension-occupational-out-mc-70" xmlns="http://www.w3.org/2000/svg"><g fill="none" fill-rule="evenodd"><path d="M0 0h70v70H0z"/><path d="M14.734 49L8.69 60H61.3l-6.121-11H14.734z" stroke="#005AA0" stroke-width="2"/><path d="M47.222 36h2.28l-2.737-5H23.474L15 46h39.975l-2.737-5h-2.28l1.642 3H18.427l6.214-11H45.58l1.642 3z" fill="#E30613" fill-rule="nonzero"/><path d="M35.003 11.096L25.857 28h18.351l-9.205-16.904z" stroke="#005AA0" stroke-width="2"/><path fill="#E30613" fill-rule="nonzero" d="M54.322 36.136l1.435 1.388H44v1.988h11.757l-1.435 1.444 1.435 1.386 3.761-3.824-3.761-3.768z"/></g></symbol><symbol viewBox="0 0 70 70" id="pension-private-in-mc-70" xmlns="http://www.w3.org/2000/svg"><g fill="none" fill-rule="evenodd"><path d="M0 0h70v70H0z"/><path d="M29.634 19l.296-.544L35 9l10.891 20H24.18l2.512-4.588.224-.412h2.277l-1.65 3.032h14.975l-7.511-13.725L31.91 19h-2.276z" fill="#E30613" fill-rule="nonzero"/><path d="M14.142 48L7 60.894h56L55.767 48H14.142zm40.453 2l4.99 8.894h-49.19L15.32 50h39.274z" fill="#005AA0" fill-rule="nonzero"/><path d="M23.809 32l-7.121 13h36.574L45.92 32H23.809z" stroke="#005AA0" stroke-width="2"/><path fill="#E30613" fill-rule="nonzero" d="M33.322 19.136l1.435 1.388H23v1.988h11.757l-1.435 1.444 1.435 1.386 3.761-3.824-3.761-3.768z"/></g></symbol><symbol viewBox="0 0 70 70" id="pension-private-mc-70" xmlns="http://www.w3.org/2000/svg"><g fill="none" fill-rule="evenodd"><path d="M0 0h70v70H0z"/><g stroke-width="2"><path d="M23.95 32l-7.121 13h36.574l-7.341-13H23.95z" stroke="#005AA0"/><path d="M35.003 11.216L25.863 28h18.34l-9.2-16.784z" stroke="#E30613"/><path d="M14.734 49L8.69 60H61.3l-6.121-11H14.734z" stroke="#005AA0"/></g></g></symbol><symbol viewBox="0 0 70 70" id="pension-private-out-mc-70" xmlns="http://www.w3.org/2000/svg"><g fill="none" fill-rule="evenodd"><path d="M0 0h70v70H0z"/><path d="M14.142 48L7 60.894h56L55.767 48H14.142zm40.453 2l4.99 8.894h-49.19L15.32 50h39.274z" fill="#005AA0" fill-rule="nonzero"/><path d="M23.809 32l-7.121 13h36.574L45.92 32H23.809z" stroke="#005AA0" stroke-width="2"/><path d="M43.25 24L46 29H24l2.545-4.618 1.675-3.06 1.607-2.936L35 9l5.5 10h-2.337l-3.193-5.796-7.56 13.816h15.17L40.918 24h2.332z" fill="#E30613" fill-rule="nonzero"/><path fill="#E30613" fill-rule="nonzero" d="M45.143 19.005l1.435 1.389H34.821v1.986h11.757l-1.435 1.444 1.435 1.386 3.761-3.824-3.76-3.768z"/></g></symbol><symbol viewBox="0 0 70 70" id="tab-bank-70" xmlns="http://www.w3.org/2000/svg"><g fill="none"><path d="M9 18.998v32.004c0 .547.45.998.991.998h50.018a.997.997 0 00.991-.998V18.998c0-.547-.45-.998-.991-.998H9.991a.997.997 0 00-.991.998zm-2 0A2.997 2.997 0 019.991 16h50.018A3.001 3.001 0 0163 18.998v32.004A2.997 2.997 0 0160.009 54H9.991A3.001 3.001 0 017 51.002V18.998z" fill="#005AA0"/><path fill="#005AA0" d="M63 23H7.144v2H63zm-.944 7H8.146v2h53.91zM32 41H13v2h19z"/><path fill="#E30613" d="M52 35h-2v7h7v-2h-5zM24 46H13v2h11z"/></g></symbol><symbol viewBox="0 0 70 70" id="tab-car-70" xmlns="http://www.w3.org/2000/svg"><g fill="none"><path d="M47.093 25.963a42.929 42.929 0 00-2.728-1.937c-1.792-1.163-3.598-2.105-5.481-2.8-4.474-1.651-10.065-1.584-17.25-.133a33.977 33.977 0 00-3.892 1.072c-2.026.678-4.164 1.558-6.362 2.59a86.794 86.794 0 00-6.994 3.693c-.283.167-.482.288-.589.353l-.348.215L.9 39.412l3.894 4.183 1.464-1.363L3.1 38.84l2.095-8.546.208-.124a84.815 84.815 0 016.827-3.605c2.133-1.001 4.2-1.852 6.147-2.504a31.999 31.999 0 013.657-1.008c6.85-1.384 12.104-1.447 16.157.05 1.733.639 3.41 1.513 5.085 2.6a40.99 40.99 0 012.603 1.85c.308.235 1.603 1.246 1.888 1.458.313.237 7.05 1.266 8.955 1.64 3.253.64 5.667 1.324 6.971 2.043 2.586 1.387 3.86 3.24 3.86 5.53v5.205L63 43v2h6.553v-6.777c0-3.08-1.717-5.576-4.904-7.286-1.533-.845-4.092-1.57-7.541-2.248-1.756-.345-3.41-.62-5.801-.985l-1.091-.166a75.75 75.75 0 01-.849-.135 13.7 13.7 0 01-.538-.097c-.428-.327-1.451-1.125-1.736-1.343z" fill="#005AA0"/><path fill="#005AA0" d="M46 43H23v2h23zm-39-.5c0-4.178 3.28-7.5 7.455-7.5C18.642 35 22 38.335 22 42.5S18.642 50 14.455 50c-2.876 0-5.429-1.613-6.746-4.237C7.253 44.63 7 43.55 7 42.5zm2 0c0 .764.196 1.603.53 2.44.947 1.88 2.813 3.06 4.925 3.06C17.54 48 20 45.557 20 42.5S17.54 37 14.455 37C11.39 37 9 39.42 9 42.5z"/><path d="M14.5 39c1.923 0 3.5 1.577 3.5 3.5S16.423 46 14.5 46a3.513 3.513 0 01-3.5-3.5c0-1.026.454-2.022 1.238-2.619A3.257 3.257 0 0114.5 39zM13 42.5c0 .819.681 1.5 1.5 1.5s1.5-.681 1.5-1.5-.681-1.5-1.5-1.5c-.367 0-.682.128-.906.352l-.126.107c-.276.197-.468.607-.468 1.041zm34 0c0-4.178 3.28-7.5 7.455-7.5C58.642 35 62 38.335 62 42.5S58.642 50 54.455 50c-2.876 0-5.429-1.613-6.746-4.237C47.253 44.63 47 43.55 47 42.5zm2 0c0 .764.196 1.603.53 2.44.947 1.88 2.813 3.06 4.925 3.06C57.54 48 60 45.557 60 42.5S57.54 37 54.455 37C51.39 37 49 39.42 49 42.5z" fill="#005AA0"/><path d="M54.5 39c1.923 0 3.5 1.577 3.5 3.5S56.423 46 54.5 46a3.513 3.513 0 01-3.5-3.5c0-1.026.454-2.022 1.238-2.619A3.257 3.257 0 0154.5 39zM53 42.5c0 .819.681 1.5 1.5 1.5s1.5-.681 1.5-1.5-.681-1.5-1.5-1.5c-.367 0-.682.128-.906.352l-.126.107c-.276.197-.468.607-.468 1.041zM45 28H21v2h24z" fill="#005AA0"/><path fill="#005AA0" d="M31 24v5h2v-5z"/><path fill="#E30613" d="M27.013 34H32v-2h-4.987z"/></g></symbol><symbol viewBox="0 0 70 70" id="tab-damage-70" xmlns="http://www.w3.org/2000/svg"><g fill="none"><path fill="#005AA0" d="M56 12H14v45h9v2H12V10h46v49H34.059v-2H56z"/><path d="M18 53h34V16H18v37zm-2-39h38v41H16V14z" fill="#005AA0"/><path fill="#005AA0" d="M29.877 42.018l-1.898 5.453 5.66 2.237v4.706h2v-6.066l-5.14-2.031 1.838-5.281-5.347-2.754-3.415 1.289H17v2h6.94l2.925-1.104zm15.316-18.416l-6.804-.002-1.755-3.041-3.473-.897L33 15.025l-1.998.07.214 6.13 4.106 1.06 1.912 3.315 5.96.002.002 5.208 8.808 6.354 1.17-1.622-7.978-5.756z"/><path fill="#E30613" d="M25 59h7v-2h-7z"/></g></symbol><symbol viewBox="0 0 70 70" id="tab-house-70" xmlns="http://www.w3.org/2000/svg"><g fill="none"><path fill="#005AA0" d="M65.1 33.493l1.137-1.646-31.96-22.063L2.432 31.848l1.138 1.644 30.71-21.276z"/><path fill="#E30613" d="M38.037 21.073l1.105-1.666-4.87-3.232-4.756 3.238 1.126 1.654 3.644-2.482z"/><path fill="#005AA0" d="M10 27.06v26.07h2V27.06zm47 0v26.07h2V27.06zM48 35v18h2V33H38v20h2V35zm-28 0v8h10v-8H20zm12-2v12H18V33h14z"/><path fill="#005AA0" d="M5 54h17.01v-2H5zm27 0h32v-2H32z"/></g></symbol><symbol viewBox="0 0 70 70" id="tab-loan-70" xmlns="http://www.w3.org/2000/svg"><g fill="none"><path fill="#005AA0" d="M56.545 26.132l1.96-.397-4.03-19.919-24.059 5.005-1.694.356.41 1.957 1.694-.355 22.088-4.595zm-43.367-9.734l10.52-2.197-.41-1.958-12.466 2.604 3.762 18.486.031.117.09.267 1.896-.634-.07-.209z"/><path fill="#005AA0" d="M36.856 13.419l.98 4.889 1.96-.393-.98-4.89zm6.64 3.81a2.69 2.69 0 01-3.18-2.091 2.69 2.69 0 012.096-3.177 2.69 2.69 0 013.18 2.09 2.69 2.69 0 01-2.096 3.178zm-.403-1.96a.69.69 0 00.54-.814.69.69 0 00-.818-.535.69.69 0 00-.54.814.69.69 0 00.818.536z"/><path d="M49.287 16.073a2.69 2.69 0 01-3.18-2.091 2.69 2.69 0 012.096-3.177 2.69 2.69 0 013.18 2.091 2.69 2.69 0 01-2.096 3.177zm-.403-1.959a.69.69 0 00.54-.814.69.69 0 00-.818-.536.69.69 0 00-.54.815.69.69 0 00.818.535z" fill="#E30613"/><path fill="#005AA0" d="M19.54 18.852l39.56 8.385-4.571 21.42-19.424-4.146-.417 1.956 21.38 4.564 5.406-25.335-43.473-9.215-5.406 25.332 7.214 1.543.418-1.956-5.259-1.124z"/><path fill="#005AA0" d="M42.291 25.467l-.98 4.8 1.96.4.98-4.8zm7.756 4.096a2.69 2.69 0 01-3.19 2.074 2.69 2.69 0 01-2.07-3.193 2.69 2.69 0 013.19-2.074 2.69 2.69 0 012.07 3.193zm-1.956-.416a.69.69 0 00-.53-.821.69.69 0 00-.818.534.69.69 0 00.53.82.69.69 0 00.818-.533zm4.557 3.823a2.69 2.69 0 01-2.07-3.193 2.69 2.69 0 013.19-2.074 2.69 2.69 0 012.07 3.193 2.69 2.69 0 01-3.19 2.074zm.704-3.31a.69.69 0 00-.818.533.69.69 0 00.53.821.69.69 0 00.818-.534.69.69 0 00-.53-.82z"/><path d="M44 56.958C44 54.756 42.217 53 40 53c-2.196 0-4 1.82-4 4.042 0 .495.12 1.032.346 1.564.13.325.33.661.587.987C37.669 60.47 38.81 61 40 61c2.196 0 4-1.82 4-4.042zm2 0C46 60.282 43.304 63 40 63c-1.78 0-3.482-.79-4.617-2.143a5.975 5.975 0 01-.887-1.491A6 6 0 0134 57.042C34 53.718 36.696 51 40 51c3.315 0 6 2.645 6 5.958z" fill="#E30613"/><path d="M24.5 54a7.5 7.5 0 110-15 7.5 7.5 0 010 15zm0-2a5.5 5.5 0 100-11 5.5 5.5 0 000 11z" fill="#005AA0"/></g></symbol><symbol viewBox="0 0 70 70" id="tab-offer-70" xmlns="http://www.w3.org/2000/svg"><g fill="none"><path fill="#005AA0" d="M17 38v12h2V38z"/><path fill="#E30613" d="M38 38v12h2V38z"/><path fill="#005AA0" d="M9 52V26h28v-2H7v30h43V40.005h-2V52z"/><path d="M21 26v-8h15v8H21zm13-2v-4H23v4h11zM16.176 34l-4.254-6.683-1.687 1.074L15.078 36h27.738l2.7-3.801-1.631-1.158L41.784 34z" fill="#005AA0"/><path d="M54.55 12.584l-3.764 5.33-6.23-1.963 2.748 5.908-4.819 4.393 6.505.582 1.41 6.363 3.764-5.33 6.23 1.964-2.747-5.908 4.819-4.393-6.506-.583-1.41-6.363zm.974-4.846l2.072 9.348 9.578.857-7.094 6.468 4.042 8.69-9.166-2.887-5.53 7.83-2.072-9.348-9.578-.858 7.095-6.468-4.043-8.69 9.167 2.887 5.529-7.83z" fill="#005AA0"/></g></symbol><symbol viewBox="0 0 70 70" id="tab-save-70" xmlns="http://www.w3.org/2000/svg"><g fill="none"><path d="M29.344 17.508a6.733 6.733 0 011.425-7.52c2.674-2.651 7.013-2.651 9.687 0a6.733 6.733 0 011.502 7.34l1.85.757a8.733 8.733 0 00-1.944-9.516c-3.454-3.425-9.05-3.425-12.504 0a8.733 8.733 0 00-1.844 9.75l1.828-.811z" fill="#005AA0"/><path fill="#E30613" d="M31 11.5v5.802h2V11.5zm5 4.914V13.86c0-.473.515-.859 1-.859s1 .386 1 .859v2.555h2V13.86c0-1.582-1.414-2.86-3-2.86s-3 1.278-3 2.859v2.555h2zm-3.31 21.113v1.855h2v-1.855zm3.71 0v1.855h2v-1.855z"/><path d="M20.262 26.72a17.272 17.272 0 012.704-3.74l-1.45-1.377a19.272 19.272 0 00-3.017 4.173l1.763.944zm32.675-.537a19.258 19.258 0 00-3.228-4.58l-1.45 1.377a17.258 17.258 0 012.893 4.104l1.785-.9z" fill="#005AA0"/><path d="M54.977 34.775a19.05 19.05 0 01-5.105 12.99l1.555 11.225h-9.18l-2.113-5.536a19.488 19.488 0 01-9.043 0l-2.113 5.536h-9.18l1.555-11.224a19.052 19.052 0 01-5.106-12.991c0-3.442.916-6.753 2.625-9.662l-.453-9.827 8.938 2.11a19.41 19.41 0 018.255-1.832 19.4 19.4 0 018.256 1.833l8.938-2.11-.454 9.826a19.004 19.004 0 012.625 9.662zm-7.22 12.303l.342-.35c3.11-3.191 4.878-7.433 4.878-11.953 0-3.177-.87-6.226-2.491-8.886l-.16-.262.36-7.785-7.051 1.665-.322-.158a17.409 17.409 0 00-7.7-1.785c-2.707 0-5.324.617-7.701 1.785l-.322.158-7.051-1.665.359 7.785-.16.261a17.01 17.01 0 00-2.49 8.887c0 4.52 1.767 8.762 4.878 11.953l.341.35-1.373 9.912h5.507l2.27-5.947.883.254a17.512 17.512 0 009.717 0l.883-.254 2.27 5.947h5.507l-1.373-9.912z" fill="#005AA0"/><path d="M40 38.5a4.5 4.5 0 10-9 0 4.5 4.5 0 009 0zm2 0a6.5 6.5 0 11-13 0 6.5 6.5 0 0113 0zm-13-9.021c0-.815.67-1.479 1.5-1.479s1.5.664 1.5 1.479h2C34 27.556 32.431 26 30.5 26S27 27.556 27 29.479h2zm10 0c0-.815.67-1.479 1.5-1.479s1.5.664 1.5 1.479h2C44 27.556 42.431 26 40.5 26S37 27.556 37 29.479h2z" fill="#005AA0"/></g></symbol><symbol viewBox="0 0 70 70" id="tab-travel-70" xmlns="http://www.w3.org/2000/svg"><g fill="none" fill-rule="evenodd"><path d="M0 0h70v70H0z"/><g fill-rule="nonzero"><path d="M25.077 8.538c-4.836 0-8.813 3.677-9.288 8.388a8.28 8.28 0 00-7.34 8.23 8.293 8.293 0 008.293 8.294h8.335v-2h-8.335a6.293 6.293 0 01-6.294-6.293 6.278 6.278 0 016.291-6.284l1.003.003v-1.003a7.335 7.335 0 0114.67 0v1h2.042a6.293 6.293 0 015.321 9.656l1.69 1.07a8.293 8.293 0 00-7.01-12.725h-.096c-.499-4.686-4.464-8.336-9.282-8.336z" fill="#005AA0"/><path d="M32.696 34.751a5.35 5.35 0 100-10.7 5.35 5.35 0 000 10.7zm0-2a3.35 3.35 0 110-6.7 3.35 3.35 0 010 6.7z" fill="#E30613"/><path d="M40.639 40.596a3.564 3.564 0 100-7.13 3.564 3.564 0 000 7.13zm0-2a1.564 1.564 0 110-3.13 1.564 1.564 0 010 3.13zm-9.764 23.09l8.57-2.688 7.46-7.945L58.62 47.76l.129-.084c2.06-1.345 2.942-3.222 2.527-5.465l-.128-.693-7.468-1.209-29.052 8.439-6.187-3.383L9.265 48l7.43 6.273 13.725 1.5 2.124-.66-1.669 6.572zm-.651-7.945L17.52 52.35l-4.102-3.462 4.784-1.374 6.19 3.385 29.412-8.543 5.57.902c.002 1.056-.51 1.915-1.597 2.662l-11.948 3.357-7.484 7.968-4.65 1.46 1.664-6.554-1.938-.492-.3 1.182-2.897.899z" fill="#005AA0"/><path fill="#005AA0" d="M33.019 42.973l8.538 2.687.6-1.908-9.12-2.87-8.308 2.45 6.638 4.953 1.196-1.603-3.434-2.562z"/></g></g></symbol></svg>