<svg width="32" height="32" xmlns="http://www.w3.org/2000/svg"><g fill="none" fill-rule="evenodd"><path d="M0 0h32v32H0z"/><g fill-rule="nonzero"><path d="M10.861 16.841l1.128-7.408h-1.205c-.564 0-1.29-.33-1.504-.935-.068-.205-.23-.909.701-1.594.333-.24.547-.508.59-.713a.568.568 0 00-.154-.543c-.205-.205-.607-.32-1.12-.32-.863 0-1.47.516-1.53.89-.042.276.163.499.343.641.538.419.666 1.024.333 1.594-.342.588-1.085.97-1.88.98h-1.23c-.103.72-1.778 11.78-1.906 12.653h6.674c.06-.392.367-2.484.786-5.245h-.026z" fill="#479CBE"/><path d="M20.063 3h-7.124l-.95 5.974h1.21c.663 0 1.29-.301 1.559-.736a.708.708 0 00.125-.382c0-.249-.17-.435-.34-.56-.466-.346-.565-.71-.565-.967 0-.053 0-.098.01-.142.098-.63.958-1.314 2.096-1.314.681 0 1.201.16 1.515.453.277.257.385.621.304 1.003-.098.453-.555.826-.815 1.012-.69.48-.6.897-.556 1.02.144.374.69.613 1.111.613h1.837v.01c2.51.017 3.854 1.162 3.433 3.825-.395 2.477-2.312 3.542-4.597 3.56l-.906 5.717h1.336c5.636 0 10.242-3.586 11.147-9.25C31.013 5.806 26.515 3 20.063 3z" fill="#00A5C3"/><path d="M20.063 3h-7.124l-.95 5.974h1.21c.663 0 1.29-.301 1.559-.736a.708.708 0 00.125-.382c0-.249-.17-.435-.34-.56-.466-.346-.565-.71-.565-.967 0-.053 0-.098.01-.142.098-.63.958-1.314 2.096-1.314.681 0 1.201.16 1.515.453.277.257.385.621.304 1.003-.098.453-.555.826-.815 1.012-.69.48-.6.897-.556 1.02.144.374.69.613 1.111.613h1.837v.01c2.51.017 3.854 1.162 3.433 3.825-.395 2.477-2.312 3.542-4.597 3.56l-.906 5.717h1.336c5.636 0 10.242-3.586 11.147-9.25C31.013 5.806 26.515 3 20.063 3z" fill="#235971"/><g fill="#235971"><path d="M2.771 23.967H5.6c1.206 0 1.498.63 1.41 1.207-.071.466-.382.813-.913 1.042.673.265.94.677.842 1.326-.124.814-.807 1.417-1.702 1.417H2.018l.753-4.992zm1.87 2.066c.55 0 .807-.302.86-.658.054-.384-.115-.65-.664-.65h-.488l-.195 1.308h.488zm-.3 2.158c.567 0 .895-.238.974-.722.062-.42-.168-.668-.718-.668H4.04l-.213 1.4h.514v-.01zM10.9 28.996c-.736.055-1.09-.028-1.267-.357-.39.247-.825.375-1.286.375-.833 0-1.126-.448-1.046-.942.036-.237.169-.466.381-.658.461-.412 1.596-.466 2.04-.777.035-.348-.098-.476-.515-.476-.488 0-.895.165-1.596.659l.169-1.134c.603-.448 1.188-.659 1.861-.659.86 0 1.623.366 1.48 1.335l-.168 1.098c-.062.384-.044.503.373.512l-.426 1.024zm-1.276-1.72c-.39.257-1.117.211-1.197.741-.036.247.115.43.355.43.23 0 .514-.1.744-.265-.018-.091-.009-.183.018-.357l.08-.548zM12.274 25.091h1.472l-.08.503c.47-.411.824-.567 1.285-.567.825 0 1.206.521 1.073 1.372l-.381 2.551H14.17l.32-2.112c.061-.384-.054-.567-.337-.567-.23 0-.444.128-.648.411l-.336 2.259h-1.472l.576-3.85zM17.168 23.967h1.471l-.372 2.45 1.41-1.326h1.817l-1.809 1.646 1.454 2.213h-1.853l-1.117-1.783h-.017l-.266 1.783h-1.472z"/></g><g fill="#479CBE"><path d="M22.722 23.967h1.598l-.703 5.074H22.02zM25.098 23.967h2.283c1.765 0 2.275 1.424 2.107 2.607-.158 1.154-.978 2.467-2.525 2.467h-2.576l.71-5.074zm1.48 3.864c.778 0 1.204-.429 1.33-1.332.092-.67-.092-1.331-.954-1.331h-.426l-.368 2.663h.418z"/></g></g></g></svg>