<svg width="32" height="32" xmlns="http://www.w3.org/2000/svg"><g fill-rule="nonzero" fill="none"><path d="M6 16.5c0-.827.673-1.5 1.5-1.5s1.5.673 1.5 1.5S8.327 18 7.5 18 6 17.327 6 16.5zM23 16.5c0-.827.673-1.5 1.5-1.5s1.5.673 1.5 1.5-.673 1.5-1.5 1.5-1.5-.673-1.5-1.5z" fill="#005AA0"/><path d="M30 14c0 .025-.333.033-.778.033C28.333 14.033 27 14 27 14l1.044 4L28 23h-1v3h-2v-3H7v3H5v-3H4v-2h14v-2H4v-1l1-4s-1.333.033-2.222.033C2.333 14.033 2 14.025 2 14v-1c0-.968 4-1 4-1l2-4s1.687-1.996 8-2c6.406 0 8 2 8 2l2 4s4 .032 4 1v1zm-4.336-7c-.57-.813-3.039-3-9.664-3-6.625.004-9.38 2.344-9.768 3l-1.315 3.019C2.75 10.089 0 10.661 0 13v1c0 .672.45 1.961 2.147 2.025.08.003.176.005.284.006l-.37 1.484-.06.239V23c0 .746.407 1.396 1.012 1.74L3 26a2 2 0 002 2h2a2 2 0 002-2v-1h14v1a2 2 0 002 2h2a2 2 0 002-2l.016-1.276c.589-.348.984-.99.984-1.724v-2c0-.04-.01-.078-.012-.118L30 19.013v-1.264l-.05-.254-.38-1.464c.107-.001.203-.003.283-.006C31.551 15.961 32 14.672 32 14v-1c0-2.339-2.684-2.91-4.917-2.981L25.664 7z" fill="#005AA0"/><path fill="#E30613" d="M22.025 7.664L24.59 13H9v-2h12.41l-.56-1.164-3.312.437-1.622-2.249 1.623-1.17.923 1.28zM20 21v-2h4.414l2.266 2.258-1.414 1.414L23.586 21z"/></g></svg>