<svg width="32" height="32" xmlns="http://www.w3.org/2000/svg"><g fill="none" fill-rule="evenodd"><path d="M28.807 14.207l-.023-.02a2.612 2.612 0 00-1.736-.635c-.11 0-.22.005-.335.018.189-.191.412-.415.682-.68l.11-.11c1.075-1.066 1.694-1.733 2.09-2.428l.043-.073c.15-.259.609-1.047.198-2.006-.271-.634-.79-1.046-1.54-1.225l-.052-.013-.24-.059-.295-.006c-.65 0-1.54.226-3.196 1.9-.123.124-.25.255-.385.398l.052-.197c.684-2.595.84-3.34.682-4.106C24.622 3.809 23.614 3 22.407 3c-.517 0-1.04.154-1.514.446-.62.38-.86.978-1 1.456-.113.391-.187.826-.267 1.4l-.055.403-.024.174c-.031.226-.057.408-.086.588-.071.455-.144.826-.228 1.168-.351 1.412-.883 2.13-1.401 2.545a4.945 4.945 0 00-1.812-.35c-.484 0-.96.094-1.428.24l.503 1.923c.315-.107.624-.164.925-.164.39 0 .769.083 1.13.231.202.083.34.161.4.203l.31.22.337-.174c1.59-.816 2.49-2.228 2.976-4.194.104-.414.187-.846.264-1.34.03-.19.058-.382.09-.622l.08-.573c.077-.55.135-.87.207-1.118.06-.21.117-.308.126-.314A.904.904 0 0122.407 5c.268 0 .455.168.496.368.064.314-.098 1.07-.658 3.196l-.067.255c-.65 2.488-.826 3.53-.471 4.221.158.304.413.437.688.437.157 0 .32-.044.477-.124.213-.109.44-.292.719-.563.21-.206.446-.454.776-.816.048-.054.672-.745.863-.953.263-.287.489-.526.704-.744.855-.864 1.499-1.306 1.775-1.306.019 0 .035.002.049.006.312.078.3.037.102.382-.26.456-.745.994-1.762 2l-.11.11c-1.216 1.203-1.626 1.639-1.988 2.188-.637.97-.52 1.886.612 2.196.174.048.33.072.496.072.292 0 .615-.072 1.123-.213l.217-.059c.255-.066.447-.1.6-.1.19 0 .322.052.442.16l.049.042a.512.512 0 01.073.085c.156.217.156.464-.19.896-.65.692-1.5 1.022-2.408 1.022-1.403 0-2.945-.791-4.094-2.266l-.028.022-.008-.01-1.004.746c.29.392.449.889.488 1.478.042.655-.067 1.378-.277 2.098a7.627 7.627 0 01-.28.8l-.055.122v4.51l.004.066c.003.058-.051.212-.268.407-.521.468-1.627.779-3.49.779-1.863 0-2.97-.311-3.49-.779-.218-.195-.271-.35-.268-.407l.002-.066v-4.51l-.053-.122a7.611 7.611 0 01-.281-.8c-.21-.72-.318-1.443-.276-2.098.038-.59.196-1.086.487-1.478l-1.003-.746c-.003.002-.005.006-.008.01l-.03-.022c-1.147 1.475-2.69 2.266-4.093 2.266-.908 0-1.758-.33-2.408-1.022-.345-.431-.345-.678-.19-.896a.572.572 0 01.073-.085l.05-.041a.602.602 0 01.44-.161c.155 0 .347.034.6.1.062.016.115.03.219.06.507.14.83.212 1.123.212.166 0 .322-.023.496-.071 1.13-.31 1.249-1.227.61-2.196-.36-.55-.77-.986-1.987-2.19l-.11-.108c-1.016-1.006-1.501-1.544-1.762-2-.197-.345-.21-.304.102-.382a.188.188 0 01.049-.006c.277 0 .92.443 1.776 1.306.215.218.44.457.704.744.19.208.814.899.863.953.329.362.565.61.775.816.28.27.506.454.719.563.156.08.32.124.479.124.274 0 .529-.133.686-.437.355-.69.18-1.728-.466-4.2l-1.955.429c-.134-.143-.26-.274-.384-.398-1.657-1.674-2.545-1.9-3.197-1.9h-.246l-.287.065-.055.013c-.75.179-1.267.59-1.54 1.225-.41.959.049 1.747.2 2.006l.042.072c.397.695 1.015 1.363 2.09 2.428l.11.11c.27.266.494.489.682.68a3.204 3.204 0 00-.335-.018c-.655 0-1.253.219-1.736.636l-.023.019a2.535 2.535 0 00-.432.469c-.264.368-1.031 1.704.257 3.31l.05.061.053.057c1 1.067 2.374 1.653 3.865 1.653.918 0 1.845-.223 2.722-.637a9.878 9.878 0 00.528 2.005c.003.008.006.015.007.022v4.072c-.032.73.299 1.434.93 2 .967.868 2.546 1.29 4.826 1.29s3.858-.422 4.826-1.29c.63-.567.96-1.271.93-1.983l-.002-.03v-4.06a10.048 10.048 0 00.535-2.027c.878.415 1.806.638 2.723.638 1.49 0 2.864-.586 3.865-1.652l.054-.057.05-.062c1.288-1.606.52-2.941.255-3.312a2.429 2.429 0 00-.431-.467" fill="#005AA0"/><path d="M13 17a1.001 1.001 0 012 0 1.001 1.001 0 01-2 0zM17 17a1.001 1.001 0 012 0 1.001 1.001 0 01-2 0z" fill="#005AA0" fill-rule="nonzero"/><path d="M9.496 7.553c-.345-1.36-.448-1.928-.396-2.186.042-.199.228-.367.497-.367.136 0 .295.044.465.15.01.005.067.102.127.313.073.247.13.568.207 1.117l.08.573c.033.24.06.432.09.623.077.494.16.925.264 1.34.392 1.583 1.06 2.802 2.135 3.645l1.1-1.675c-.484-.426-.967-1.135-1.294-2.45a13.356 13.356 0 01-.229-1.17c-.028-.18-.055-.36-.086-.587l-.022-.16-.057-.416c-.08-.574-.152-1.008-.267-1.399-.14-.48-.38-1.08-1.005-1.462A2.893 2.893 0 009.597 3C8.39 3 7.38 3.807 7.142 4.964c-.133.647-.04 1.29.402 3.027l1.952-.438z" fill="#E30613"/></g></svg>