<svg xmlns="http://www.w3.org/2000/svg" xmlns:xlink="http://www.w3.org/1999/xlink"><symbol id="apartment-24" viewBox="0 0 24 24"><g fill="none" fill-rule="evenodd"><path d="M0 0h24v24H0z"/><path d="M20 0v20H0V0h20zm-2 2H2v16h5v-6h6v6h5V2zm-7 12H9v4h2v-4zm0-6v2H9V8h2zm5 0v2h-2V8h2zM6 8v2H4V8h2zm5-4v2H9V4h2zm5 0v2h-2V4h2zM6 4v2H4V4h2z" transform="translate(2 2)" fill="currentColor" fill-rule="nonzero"/></g></symbol><symbol id="arrow-enclosed-24" viewBox="0 0 24 24"><g fill="currentColor" fill-rule="nonzero"><path d="M9 16c-3.86 0-7-3.14-7-7s3.14-7 7-7 7 3.14 7 7-3.14 7-7 7M9 0C4.038 0 0 4.038 0 9s4.038 9 9 9 9-4.038 9-9-4.038-9-9-9" transform="translate(3 3)"/><path d="M11 9.022v-.043l.021.02-.021.023zM8.783 6.697L10.049 8H4v2h6.049l-1.266 1.304 1.434 1.393L13.81 9l-3.593-3.696-1.434 1.393z" transform="translate(3 3)"/></g></symbol><symbol id="arrows-apart-24" viewBox="0 0 24 24"><path d="M9.071.83L.48 8.461 9.071 16.3V12h7.933v-1.799l3.487 3.301-3.487 3.32v-1.796h-6.001v2h4.001v4.247l8.512-7.784-8.512-7.69V10H7.07v1.855L3.527 8.488 7.07 5.17V7h5.934V5H9.071z" transform="translate(0 1)" fill="currentColor" fill-rule="nonzero"/></symbol><symbol id="attach_24" viewBox="0 0 24 24"><g fill="none" fill-rule="evenodd"><path d="M0 0h24v24H0z"/><path d="M6.67 13.812c1.311 2.45 2.842 3.061 4.965 2.07 2.124-.99 2.64-2.555 1.628-5.083l-2.981-6.392 1.813-.845 3.002 6.443c1.411 3.519.519 6.228-2.616 7.69-3.136 1.462-5.785.404-7.599-2.988L.647 5.625l-.04-.102C-.124 3.366.673 1.62 2.807.624c2.13-.993 3.985-.49 5.19 1.44l.058.107 4.235 9.082.044.112c.498 1.522.098 2.789-1.219 3.403-1.315.613-2.543.107-3.392-1.252l-.058-.107-2.98-6.392 1.812-.845 2.954 6.334c.334.522.518.59.82.45.3-.141.366-.325.18-.915L6.27 3.074c-.652-1.012-1.405-1.203-2.618-.637C2.442 3 2.113 3.69 2.485 4.832l4.185 8.98z" transform="translate(4 3)" fill="currentColor" fill-rule="nonzero"/></g></symbol><symbol id="atv-24" viewBox="0 0 24 24"><g fill="none" fill-rule="evenodd"><path d="M0 0h24v24H0z"/><path d="M12.3.732L15.5 5h2.118l1.233 2.466c.64.067 1.263.225 1.852.468l.3.132-.853 1.81a4.692 4.692 0 00-2.007-.447c-.733 0-1.476.244-2.16.657l1.115 1.206a3.5 3.5 0 11-1.529 1.293l-1.106-1.196c-.833.976-1.4 2.202-1.458 3.408L13 15h-2a6.4 6.4 0 01.08-1H9.586l-2.282-2.282-.859.89a3.48 3.48 0 01.55 1.7L7 14.5a3.5 3.5 0 11-2.074-3.197l.964-.999-.597-.597 1.414-1.414L10.415 12h1.29c.98-2.084 2.874-3.813 4.988-4.377L16.381 7H14.5l-.54-.72-4.054 3.04L7.585 7H2v1h2v2H0V5h8.414l1.68 1.679 2.666-2-1.06-1.412-1.253.627-.894-1.788L12.299.732zM18.5 13a1.5 1.5 0 100 3 1.5 1.5 0 000-3zm-15 0a1.5 1.5 0 100 3 1.5 1.5 0 000-3z" transform="translate(1 2)" fill="currentColor" fill-rule="nonzero"/></g></symbol><symbol id="baby-24" viewBox="0 0 24 24"><g fill="none" fill-rule="evenodd"><path d="M0 0h24v24H0z"/><path d="M11.744.209l.181.042.143.045a2.722 2.722 0 011.74 3.15l-.042.167a2.722 2.722 0 01-3.087 1.928l-.004.014a6.81 6.81 0 102.411 1.205l-.217-.162 1.167-1.624A8.81 8.81 0 11.09 12.132a8.81 8.81 0 0110.733-8.6l.125.03.003-.009a.722.722 0 00.577-1.31l-.033-.018-.237.19a2.91 2.91 0 01-.27.192l-.136.078L9.93.91l.046-.032.157-.125c.246-.2.397-.307.622-.409.311-.141.645-.193.99-.135zM5.717 14.302a2.015 2.015 0 002.708.263l.139-.114L9.9 15.938c-.8.72-1.84 1.08-2.896 1.024a4.004 4.004 0 01-2.616-1.155l-.158-.167 1.486-1.338zm1.458-3.278l.013.149-1.998.093a.095.095 0 00-.184-.028L5 11.275l-1.998.093a2.095 2.095 0 014.173-.344zm4.695-.176l.012.15-1.998.092a.095.095 0 00-.184-.028l-.005.037-1.998.094a2.094 2.094 0 014.173-.345z" transform="translate(3 1)" fill="currentColor" fill-rule="nonzero"/></g></symbol><symbol id="bank-24" viewBox="0 0 24 24"><path d="M2 16h2V8H2zm-2 3h18v-2H0zM9 .848L2.721 5H0v2h3.252L9 3.2 14.789 7H18V5.022h-2.693zM6 16h2V8H6zm4 0h2V8h-2zm4 0h2V8h-2z" transform="translate(3 2)" fill="currentColor" fill-rule="nonzero"/></symbol><symbol id="bankid-24" viewBox="0 0 24 24"><path d="M14.627 13.852h1.533c1.183 0 1.533.876 1.417 1.6-.1.706-.667 1.514-1.7 1.514H14.16l.467-3.114zm1 2.374c.517 0 .817-.253.9-.808.067-.404-.067-.808-.633-.808h-.3l-.25 1.633.283-.017zm-2.6-2.374h1.083l-.483 3.098h-1.083zm-3.3 0h.934l-.234 1.532.9-.825h1.15l-1.15 1.027.917 1.38H11.06l-.717-1.11h-.017l-.166 1.11h-.933zm-3.116.708h.933l-.05.32c.3-.253.517-.354.817-.354.517 0 .767.32.683.858l-.25 1.582h-.933l.2-1.313c.033-.235-.033-.353-.217-.353-.15 0-.283.084-.416.252L7.16 16.95h-.933l.383-2.39zm-.883 2.423c-.467.034-.7-.017-.8-.219A1.54 1.54 0 014.11 17c-.533 0-.716-.27-.666-.59.016-.15.1-.285.25-.403.283-.253 1.016-.286 1.3-.488.016-.219-.067-.303-.334-.303-.316 0-.566.1-1.016.404l.1-.707c.383-.286.75-.404 1.183-.404.55 0 1.033.219.933.825l-.1.69c-.033.235-.033.32.233.32l-.266.64zm-.8-1.06c-.25.151-.717.134-.767.454-.016.152.067.27.217.27s.333-.068.467-.169c-.017-.05 0-.118.016-.219l.067-.336zm-4.35-2.071h1.8c.767 0 .95.388.9.758-.05.286-.233.505-.583.64.433.168.6.42.533.824-.083.505-.517.876-1.083.876H.095l.483-3.098zm1.183 1.297c.35 0 .517-.186.55-.404.034-.236-.066-.404-.416-.404h-.317l-.133.808h.316zm-.2 1.346c.367 0 .567-.151.617-.454.033-.253-.1-.421-.45-.421h-.35l-.133.875h.317zM11.594 0H7.128l-.6 3.82h.766c.417 0 .817-.184.984-.47a.505.505 0 00.083-.236c0-.152-.1-.286-.217-.354-.3-.218-.35-.454-.35-.622v-.085c.067-.403.6-.841 1.317-.841.433 0 .75.1.95.286.166.168.25.404.2.64-.067.286-.35.521-.517.64-.433.302-.383.572-.35.656.083.235.433.387.7.387h1.167c1.583.017 2.433.74 2.15 2.457-.25 1.582-1.45 2.272-2.884 2.29l-.6 3.652h.834c3.55 0 6.432-2.306 7.016-5.925C18.493 1.801 15.66 0 11.594 0zm-5.15 4.14h-.8c-.366 0-.85-.201-1-.589-.05-.134-.15-.589.467-1.026.217-.152.367-.32.383-.455a.353.353 0 00-.1-.353c-.116-.118-.383-.202-.716-.202-.567 0-.967.336-1 .572-.033.185.117.32.233.404.35.27.434.657.217 1.027-.233.37-.717.623-1.233.623h-.817c-.067.454-1.166 7.523-1.25 8.079h4.4c.017-.236.217-1.582.483-3.35l.733-4.73z" transform="translate(3 3.5)" fill="currentColor" fill-rule="nonzero"/></symbol><symbol id="bills-coins-24" viewBox="0 0 24 24"><g fill="none" fill-rule="evenodd"><path d="M0 0h24v24H0z"/><g fill="currentColor" fill-rule="nonzero"><path d="M15.296 1.474l.808 3.648 1.952-.432-1.22-5.511-11.195 1.93.34 1.97zM9 12.5a3.5 3.5 0 10-7 0 3.5 3.5 0 007 0zm-5 0a1.5 1.5 0 113 0 1.5 1.5 0 01-3 0zm4.842 8.508a2.75 2.75 0 100-5.5 2.75 2.75 0 000 5.5zm0-2a.75.75 0 110-1.5.75.75 0 010 1.5z" transform="translate(3 2)"/><path d="M1.424 9.566l1.517-6.85 13.32 2.718-1.517 6.85-6.468-1.32-.4 1.96 8.395 1.714L18.652 3.88 1.413.362-.967 11.12l4.133.844.4-1.96z" transform="translate(3 2)"/></g></g></symbol><symbol id="boat-24" viewBox="0 0 24 24"><defs><path d="M17.477 16.52a3.807 3.807 0 002.866.09l.31-.114.694 1.876-.31.114a5.807 5.807 0 01-4.371-.138 3.807 3.807 0 00-2.866-.091l-.718.265a6 6 0 01-4.164 0l-.718-.265a3.807 3.807 0 00-2.866.09 5.807 5.807 0 01-4.37.14l-.311-.115.694-1.876.31.115c.93.344 1.959.311 2.866-.091a5.807 5.807 0 014.37-.14l.72.267a4 4 0 002.775 0l.718-.266a5.807 5.807 0 014.371.139zM11 5.974l6.52 1.484a2 2 0 011.393 2.742l-2.24 5.196-1.837-.792 2.24-5.196L11 8.026 4.924 9.408l2.24 5.196-1.836.792-2.24-5.196A2 2 0 014.48 7.458L11 5.974zM12 10v4h-2v-4h2zm-2-9a1 1 0 012 0v1h1.417a3 3 0 012.769 1.846l.737 1.77-1.846.769-.737-1.77A1 1 0 0013.417 4H8.583a1 1 0 00-.923.615l-.737 1.77-1.846-.77.737-1.769A3 3 0 018.584 2H10V1z" id="a"/></defs><g fill="none" fill-rule="evenodd"><path d="M0 0h24v24H0z"/><use fill="currentColor" fill-rule="nonzero" xmlns:xlink="http://www.w3.org/1999/xlink" xlink:href="#a" transform="translate(1 2)"/></g></symbol><symbol id="breifcase-first-aid-24" viewBox="0 0 24 24"><g fill="currentColor" fill-rule="nonzero"><path d="M11 7.5H9v2H7v2h2v2h2v-2h2v-2h-2z" transform="translate(2 2.5)"/><path d="M18 15c0 .271-.229.5-.5.5H17v-10h.5c.271 0 .5.229.5.5v9zm-3 .5H5v-10h10v10zm-12 0h-.5A.507.507 0 012 15V6c0-.271.229-.5.5-.5H3v10zm5-12v-1h4v1H8zm6 0v-3H6v3H2.5A2.503 2.503 0 000 6v9c0 1.378 1.121 2.5 2.5 2.5h15c1.379 0 2.5-1.122 2.5-2.5V6c0-1.378-1.121-2.5-2.5-2.5H14z" transform="translate(2 2.5)"/></g></symbol><symbol id="briefcase-24" viewBox="0 0 24 24"><g fill="none" fill-rule="evenodd"><path d="M0 0h24v24H0z"/><path d="M16 3v3h3.5A2.5 2.5 0 0122 8.5v9a2.5 2.5 0 01-2.5 2.5h-15A2.5 2.5 0 012 17.5v-9A2.5 2.5 0 014.5 6H8V3h8zm4 7.999L17.333 13H17v5h2.5a.5.5 0 00.5-.5v-6.501zm-16 .002V17.5a.5.5 0 00.5.5H7v-5h-.333L4 11.001zM9 18h6v-5H9v5zM19.5 8h-15a.5.5 0 00-.5.5v.001L7.333 11h9.334L20 8.5a.5.5 0 00-.5-.5zM14 5h-4v1h4V5z" fill="currentColor" fill-rule="nonzero"/></g></symbol><symbol id="calendar-24" viewBox="0 0 24 24"><path d="M16 5H2V3.33c0-.181.161-.326.345-.33H5v1h2V3h4v1h2V3h2.634c.205.004.366.149.366.33V5zm0 11.662a.331.331 0 01-.346.338H2.345A.33.33 0 012 16.662V7h14v9.662zM13 1V0h-2v1H7V0H5v1H2.325C1.021 1.026 0 2.05 0 3.33v13.332A2.317 2.317 0 002.345 19h13.309A2.317 2.317 0 0018 16.662V3.33c0-1.28-1.021-2.304-2.346-2.33H13z" transform="translate(3 2)" fill="currentColor" fill-rule="nonzero"/></symbol><symbol id="calendar-check-24" viewBox="0 0 24 24"><g fill="currentColor" fill-rule="nonzero"><path d="M16 5H2V3.33c0-.181.161-.326.346-.33H5v1h2V3h4v1h2V3h2.634c.205.004.366.149.366.33V5zm0 11.662a.331.331 0 01-.346.338H2.346A.331.331 0 012 16.662V7h14v9.662zM13 1V0h-2v1H7V0H5v1H2.325C1.021 1.026 0 2.05 0 3.33v13.332A2.317 2.317 0 002.346 19h13.308A2.317 2.317 0 0018 16.662V3.33c0-1.28-1.021-2.304-2.346-2.33H13z" transform="translate(3 2)"/><path d="M13.484 9.709l-1.41-1.418-3.914 3.892-1.448-1.48-1.424 1.405 2.858 2.908z" transform="translate(3 2)"/></g></symbol><symbol id="calendar-cross-24" viewBox="0 0 24 24"><g fill="currentColor" fill-rule="nonzero"><path d="M16 5H2V3.33c0-.181.161-.326.346-.33H5v1h2V3h4v1h2V3h2.634c.205.004.366.149.366.33V5zm0 11.662a.331.331 0 01-.346.338H2.346A.331.331 0 012 16.662V7h14v9.662zM13 1V0h-2v1H7V0H5v1H2.325C1.021 1.026 0 2.05 0 3.33v13.332A2.317 2.317 0 002.346 19h13.308A2.317 2.317 0 0018 16.662V3.33c0-1.28-1.021-2.304-2.346-2.33H13z" transform="translate(3 2)"/><path d="M6.965 15.45L9 13.415l2.035 2.035 1.414-1.414L10.414 12l2-2.001L11 8.586l-2 2-2-2L5.586 10l2 2-2.035 2.036z" transform="translate(3 2)"/></g></symbol><symbol id="car-24" viewBox="0 0 24 24"><g fill="none" fill-rule="evenodd"><path d="M0 0h24v24H0z"/><path d="M11.998 0c2.418-.001 4.13.212 5.294.605.939.318 1.59.785 1.935 1.384L21.733 6H23a1 1 0 010 2h-.673l.721 2.758-.004.271L23 16.5c0 1.666-1.392 3-3 3-1.439 0-2.707-1.095-2.956-2.499l-10.086.004A3.009 3.009 0 014 19.5c-1.632 0-3-1.14-3-3v-5.746L1.688 8H1a1 1 0 010-2h1.265l2.509-4.012c.346-.6 1-1.067 1.944-1.384C7.881.214 9.588 0 11.998 0zM12 2c-5.063.003-5.5 1-5.5 1L4 7l-1 4v1h12v2H3v2.5c0 .75.5 1 1 1s1-.406 1-1V15h14v1.5c0 .531.5 1 1 1s1-.438 1-1l.02-2.5H16v-2h5.036l.008-1L20 7l-2.5-4s-.438-1.003-5.5-1zM6.5 8a1.5 1.5 0 110 3 1.5 1.5 0 010-3zm11 0a1.5 1.5 0 110 3 1.5 1.5 0 010-3zm-1.227-4.957L18.29 7H7V5h8.026l-.535-1.049 1.782-.908z" transform="translate(0 2)" fill="currentColor" fill-rule="nonzero"/></g></symbol><symbol id="car-damage-24" viewBox="0 0 24 24"><g fill="none" fill-rule="evenodd"><path d="M0 0h24v24H0z"/><path d="M11.998 0c2.418-.001 4.13.212 5.294.605.939.318 1.59.785 1.935 1.384L21.733 6H23a1 1 0 010 2h-.673l.721 2.758-.004.271L23 16.5c0 1.666-1.392 3-3 3-1.439 0-2.707-1.095-2.956-2.499l-10.086.004A3.009 3.009 0 014 19.5c-1.632 0-3-1.14-3-3v-5.746L1.687 8H1a1 1 0 110-2h1.265l2.509-4.012c.346-.6 1-1.067 1.944-1.384C7.881.214 9.588 0 11.998 0zM12 2c-5.063.003-5.5 1-5.5 1L4 7l-1 4-.001 1H15v2H2.999L3 16.5c0 .75.5 1 1 1s1-.406 1-1V15h14v1.5c0 .531.5 1 1 1s1-.438 1-1l.044-5.5L20 7l-2.5-4s-.438-1.003-5.5-1zm8 10v2h-4v-2h4zM6.5 8a1.5 1.5 0 110 3 1.5 1.5 0 010-3zm11 0a1.5 1.5 0 110 3 1.5 1.5 0 010-3zM14 2.6l2.414 2.414H18v2h-2.414L14 5.428l-1.586 1.586H6v-2h5.586L14 2.6z" transform="translate(0 2)" fill="currentColor" fill-rule="nonzero"/></g></symbol><symbol id="caravan-24" viewBox="0 0 24 24"><g fill="none" fill-rule="evenodd"><path d="M0 0h24v24H0z"/><path d="M19.693 0l3.396 9.057L21.617 12H23v2l-9.171.001a3 3 0 01-5.658 0L3.382 14 .94 9.116 3.22 0h16.473zM11 12a1 1 0 100 2 1 1 0 000-2zm7.306-10H4.781L3.06 8.883 4.618 12h3.553a3.001 3.001 0 015.658 0h5.552l1.529-3.058L18.306 2zM10 3v6H8V5H7v5H5V3h5zm6 0v3h-2V5h-2V3h4z" transform="translate(0 5)" fill="currentColor" fill-rule="nonzero"/></g></symbol><symbol id="card-24" viewBox="0 0 24 24"><g fill="currentColor" fill-rule="nonzero"><path d="M17.697 12H2.317C2.156 12 2 11.846 2 11.727V6h15.997v5.76a.205.205 0 01-.062.15.32.32 0 01-.238.09zm0-10c.083 0 .17.038.233.103a.22.22 0 01.067.17V4H2V2.272C2 2.153 2.155 2 2.318 2h15.379zm2.299.305a2.175 2.175 0 00-.628-1.592A2.342 2.342 0 0017.697 0H2.317C1.063 0 0 1.04 0 2.272v9.455C0 12.96 1.062 14 2.318 14h15.379a2.31 2.31 0 001.675-.7 2.171 2.171 0 00.625-1.573l-.001-9.422z" transform="translate(2 5)"/><path d="M3.996 9h4V7h-4z" transform="translate(2 5)"/></g></symbol><symbol id="card-block-24" viewBox="0 0 24 24"><g fill="currentColor" fill-rule="nonzero"><path d="M11.508 11.5H2.492c.012 0 .008-8.991.008-8.991 0-.007 13.006-.009 13.006-.009-.007 0-.006 6.063-.006 6.063h2V2.505A2 2 0 0015.506.5H2.494A2.003 2.003 0 00.5 2.509v8.982c0 1.11.9 2.009 1.992 2.009h9.016v-2zm0 0H2.492c.012 0 .008-8.991.008-8.991 0-.007 13.006-.009 13.006-.009-.007 0-.006 6.063-.006 6.063h2V2.505A2 2 0 0015.506.5H2.494A2.003 2.003 0 00.5 2.509v8.982c0 1.11.9 2.009 1.992 2.009h9.016v-2z" transform="translate(1.5 3.5)"/><path d="M16 16.5a3.5 3.5 0 100-7 3.5 3.5 0 000 7zm0 2a5.5 5.5 0 110-11 5.5 5.5 0 010 11z" transform="translate(1.5 3.5)"/><path d="M12.086 10.5l6.414 6.414 1.414-1.414L13.5 9.086zM1.5 6.5h15v-2h-15z" transform="translate(1.5 3.5)"/></g></symbol><symbol id="chat-24" viewBox="0 0 24 24"><path d="M6.498 0A6.505 6.505 0 000 6.498a6.505 6.505 0 006.498 6.498h.804L12 17.15V11h-2v1.7l-1.876-1.704H6.498A4.503 4.503 0 012 6.498 4.503 4.503 0 016.498 2h7a4.503 4.503 0 014.498 4.498 4.503 4.503 0 01-4.498 4.498v2a6.505 6.505 0 006.498-6.498A6.505 6.505 0 0013.498 0h-7z" transform="translate(2 4)" fill="currentColor" fill-rule="nonzero"/></symbol><symbol id="check-24" viewBox="0 0 24 24"><path d="M11.907.1l-6.64 6.614-2.943-2.98L.9 5.137l4.353 4.41 8.063-8.03z" transform="translate(5 6.5)" fill="currentColor" fill-rule="nonzero"/></symbol><symbol id="check-enclosed-24" viewBox="0 0 24 24"><g fill="currentColor" fill-rule="nonzero"><path d="M9 2C5.141 2 2 5.14 2 9s3.141 7 7 7 7-3.14 7-7-3.141-7-7-7m0 16c-4.963 0-9-4.038-9-9s4.037-9 9-9 9 4.038 9 9-4.037 9-9 9" transform="translate(3 3)"/><path d="M7.76 13.147L4.2 9.542l1.424-1.405 2.15 2.177L12.411 5.7l1.41 1.418z" transform="translate(3 3)"/></g></symbol><symbol id="chevron-24" viewBox="0 0 24 24"><path d="M2.014.6L.6 2.014l4 4-4 4 1.414 1.414 4.001-4 1.413-1.415L6.015 4.6z" transform="translate(8 6)" fill="currentColor" fill-rule="nonzero"/></symbol><symbol id="chevron-down-24" viewBox="0 0 24 24"><path d="M1.414 0L0 1.414l4 4-4 4 1.414 1.414 4.001-4 1.413-1.415L5.415 4z" transform="rotate(90 4.5 13.1)" fill="currentColor" fill-rule="nonzero"/></symbol><symbol id="chevron-left-24" viewBox="0 0 24 24"><path d="M1.414 0L0 1.414l4 4-4 4 1.414 1.414 4.001-4 1.413-1.415L5.415 4z" transform="rotate(180 7.8 8.8)" fill="currentColor" fill-rule="nonzero"/></symbol><symbol id="chevron-right-24" viewBox="0 0 24 24"><path d="M2.014.6L.6 2.014l4 4-4 4 1.414 1.414 4.001-4 1.413-1.415L6.015 4.6z" transform="translate(8 6)" fill="currentColor" fill-rule="nonzero"/></symbol><symbol id="chevron-up-24" viewBox="0 0 24 24"><path d="M1.414 0L0 1.414l4 4-4 4 1.414 1.414 4.001-4 1.413-1.415L5.415 4z" transform="rotate(-90 11.1 4.5)" fill="currentColor" fill-rule="nonzero"/></symbol><symbol id="circle-24" viewBox="0 0 24 24"><path d="M9-1C3.477-1-1 3.477-1 9S3.477 19 9 19s10-4.477 10-10S14.523-1 9-1zm0 2a8 8 0 110 16A8 8 0 019 1z" transform="translate(3 3)" fill="currentColor" fill-rule="nonzero"/></symbol><symbol id="circlediagram-24" viewBox="0 0 24 24"><g fill="none" fill-rule="evenodd"><path d="M0 0h24v24H0z"/><path d="M11 2a9 9 0 11-9 9v-1h8V2h1zm1 2.07V12H4.07A7.002 7.002 0 0018 11a7.002 7.002 0 00-6-6.93zM9 0v9H0V8a8 8 0 018-8h1zM7 2.083A6.005 6.005 0 002.083 7H7V2.083z" transform="translate(2 2)" fill="currentColor" fill-rule="nonzero"/></g></symbol><symbol id="clipboard-24" viewBox="0 0 24 24"><g fill="currentColor" fill-rule="nonzero"><path d="M16 17.662a.331.331 0 01-.346.338H2.346A.331.331 0 012 17.662V4.33c0-.181.161-.326.346-.33H4v4h10V4h1.634c.205.004.366.149.366.33v13.332zM6 4h2V2h2v2h2v2H6V4zm6-2V0H6v2H2.325C1.021 2.027 0 3.05 0 4.33v13.332A2.317 2.317 0 002.346 20h13.308A2.317 2.317 0 0018 17.662V4.33c0-1.28-1.021-2.303-2.346-2.33H12z" transform="translate(3 1)"/><path d="M5 12h8v-2H5zm0 4h8v-2H5z" transform="translate(3 1)"/></g></symbol><symbol id="clock-24" viewBox="0 0 24 24"><g fill="currentColor" fill-rule="nonzero"><path d="M9 0C4.039 0 0 4.039 0 9s4.039 9 9 9 9-4.039 9-9-4.039-9-9-9zm0 2c3.873 0 7 3.127 7 7s-3.127 7-7 7a6.99 6.99 0 01-7-7c0-3.873 3.127-7 7-7z" transform="translate(3 3)"/><path d="M10 8.465l3.305 2.203-1.11 1.664L8 9.535V4h2z" transform="translate(3 3)"/></g></symbol><symbol id="coins-24" viewBox="0 0 24 24"><g fill="none" fill-rule="evenodd"><path d="M0 0h24v24H0z"/><path d="M9 18v2H0v-2h9zm11 0v2h-9v-2h9zM9 15v2H0v-2h9zm11 0v2h-9v-2h9zm-4.5-9a4.5 4.5 0 110 9 4.5 4.5 0 010-9zM9 12v2H0v-2h9zm6.5-4a2.5 2.5 0 100 5 2.5 2.5 0 000-5zM9 9v2H0V9h9zm0-3v2H0V6h9zm2-3v2H2V3h9zM9 0v2H0V0h9z" transform="translate(2 2)" fill="currentColor" fill-rule="nonzero"/></g></symbol><symbol id="common-camera-24" viewBox="0 0 24 24"><g fill="currentColor" fill-rule="nonzero"><path d="M7.704 2L6.378 4H2.744A.76.76 0 002 4.75v8.513c0 .4.338.737.744.737h14.512a.749.749 0 00.744-.737V4.75a.76.76 0 00-.744-.75h-3.634l-1.326-2H7.704zM6.399.35A.635.635 0 016.901 0a.644.644 0 01.066 0h6.066c.24 0 .46.136.568.35L14.696 2h2.56A2.76 2.76 0 0120 4.75v8.513A2.748 2.748 0 0117.256 16H2.744A2.748 2.748 0 010 13.263V4.75A2.76 2.76 0 012.744 2h2.56L6.4.35z" transform="translate(2 4)"/><path d="M10 11a2.5 2.5 0 100-5 2.5 2.5 0 000 5zm0 2a4.5 4.5 0 110-9 4.5 4.5 0 010 9z" transform="translate(2 4)"/></g></symbol><symbol id="computer-24" viewBox="0 0 24 24"><g fill="none" fill-rule="evenodd"><path d="M0 0h24v24H0z"/><path d="M18 17h-2v1a1 1 0 002 0v-1zm-1-2a1 1 0 00-1 1h2a1 1 0 00-1-1zm-7-3v2H4v-2h6zm3.954.424h1.303c.614 0 1.06.222 1.354.602A3 3 0 0120 16v2a3 3 0 01-6 0v-2c0-1.085.576-2.036 1.44-2.562a1.11 1.11 0 00-.183-.014h-1.303c-1.66 0-2.454-.713-2.454-2.424H7.999L8 12H6l-.001-1H0V0h14v11h-1.5c0 1.134.323 1.424 1.454 1.424zM12 2H2v7h10V2zm-4.3.868l.707.707-4.832 4.832-.707-.707L7.7 2.868zm-2.216.19l.696.717L3.69 6.19l-.696-.718 2.49-2.416z" transform="translate(2 2)" fill="currentColor" fill-rule="nonzero"/></g></symbol><symbol id="contact-header-24" viewBox="0 0 24 24"><g fill="currentColor" fill-rule="nonzero"><path d="M12.7 21.283c-1.535 0-2.775-1.258-2.775-2.804 0-1.547 1.24-2.805 2.776-2.805 1.535 0 2.775 1.258 2.775 2.805 0 1.546-1.24 2.804-2.775 2.804zm0-1.5c.702 0 1.276-.581 1.276-1.304 0-.723-.574-1.305-1.275-1.305-.702 0-1.276.582-1.276 1.305s.574 1.304 1.276 1.304zm0-19.365c2.735 0 5.295 1.224 7.053 3.295l-1.143.971c-1.478-1.74-3.622-2.766-5.91-2.766-3.218 0-6.071 2.005-7.227 4.95l-.115.402a7.939 7.939 0 00-.414 2.58c0 1.106.223 2.19.65 3.2l.44 1.042H4.751c-2.24 0-4.041-1.828-4.041-4.089 0-2.086 1.534-3.803 3.53-4.056C5.74 2.613 9.018.418 12.7.418zM2.21 10.003c0 1.088.65 2.012 1.575 2.397a9.82 9.82 0 01-.096-4.751 2.585 2.585 0 00-1.479 2.354z" transform="translate(-.7 1)"/><path d="M19.928 6.868l1.444-.407.087.316c.329.944.498 2.001.498 3.072 0 3.504-1.922 6.718-4.897 8.312a8.56 8.56 0 01-2.276.845l-.319-1.466a7.072 7.072 0 001.881-.698c2.493-1.336 4.11-4.042 4.11-6.993 0-.907-.142-1.798-.427-2.622l-.101-.36z" transform="translate(-.7 1)"/><path d="M8.837 4.034l1.449-.39c.062.232.278.642.72 1.067.775.746 1.955 1.203 3.67 1.203h5.974v1.5h-5.975c-2.095 0-3.65-.602-4.71-1.622-.66-.634-1-1.283-1.128-1.758zm6.215 7.96l1.069 1.053a4.86 4.86 0 01-3.471 1.456 4.86 4.86 0 01-3.471-1.456l1.068-1.053a3.36 3.36 0 002.403 1.009 3.36 3.36 0 002.402-1.01zm5.598-4.58v-1.5c2.24 0 4.041 1.828 4.041 4.09 0 2.26-1.802 4.088-4.041 4.088v-1.5c1.406 0 2.541-1.151 2.541-2.589 0-1.437-1.135-2.589-2.541-2.589z" transform="translate(-.7 1)"/></g></symbol><symbol id="contract-24" viewBox="0 0 24 24"><defs><path d="M16.016 0v4.011h-2V2H2v15.982h12.016V15.98h2v4.002H0V0h16.016zm.962 3.895l3.71 3.816-7.463 7.464h-3.85l-.027-3.727 7.63-7.553zm-1.732 4.527l-3.892 3.854.007.9h1.035l3.801-3.803-.951-.951zm1.705-1.686l-.638.631.945.945.622-.62-.93-.956zM5.67 12.78c.93.546.966 1.4.547 2.555.687-.914 1.042-1.222 1.734-1.222.509 0 .892.278 1.095.711.109.233.149.42.207.826.017.116.03.193.04.252h2.333v1.5h-2.58c-.505 0-.88-.282-1.077-.714-.103-.227-.14-.402-.198-.808a14.157 14.157 0 00-.01-.071c-.11.128-.269.323-.475.602a30.7 30.7 0 01-.174.236c-.726.967-1.226 1.37-2.045 1.115-.655-.204-.9-.767-.796-1.404.05-.31.103-.455.388-1.155.057-.14.095-.237.13-.332.214-.572.21-.746.12-.798-.413-.244-.74.18-1.009 2.223L2.414 16.1c.387-2.941 1.482-4.364 3.258-3.32zM11 6v2H3V6h8zm0-3v2H3V3h8z" id="a"/></defs><g fill="none" fill-rule="evenodd"><path d="M0 0h24v24H0z"/><use fill="currentColor" fill-rule="nonzero" xlink:href="#a" transform="translate(2 2)"/></g></symbol><symbol id="cross-24" viewBox="0 0 24 24"><path d="M10.014.6l-4 4-4-4L.6 2.014l3.999 4-3.999 4 1.414 1.414 4-4 4 4 1.414-1.414-4-4 4-4z" transform="translate(6 6)" fill="currentColor" fill-rule="nonzero"/></symbol><symbol id="cross-enclosed-24" viewBox="0 0 24 24"><g fill="currentColor" fill-rule="nonzero"><path d="M9 2C5.141 2 2 5.14 2 9s3.141 7 7 7 7-3.14 7-7-3.141-7-7-7m0 16c-4.963 0-9-4.038-9-9s4.037-9 9-9 9 4.038 9 9-4.037 9-9 9" transform="translate(3 3)"/><path d="M13.425 12.01L10.414 9l3-3L12 4.586l-3 3-3-3L4.586 6l3 3-3.011 3.01 1.414 1.415 3.01-3.011 3.012 3.01z" transform="translate(3 3)"/></g></symbol><symbol id="cup-24" viewBox="0 0 24 24"><g fill="none" fill-rule="evenodd"><path d="M0 0h24v24H0z"/><path d="M15 20H5v-2h1.2c.432 0 .8-.383.8-.875v-2.928a6.019 6.019 0 01-2.664-3.212A4 4 0 114 3V0h12v3a4 4 0 11-.337 7.986A6.013 6.013 0 0113 14.196v2.93c0 .492.368.875.8.875H15v2zm-5-5a6.04 6.04 0 01-1-.083v2.208c0 .305-.046.6-.133.876h2.266a2.943 2.943 0 01-.133-.876v-2.208A6.04 6.04 0 0110 15zm4-13H6v1h4v2H6v4a4 4 0 108 0V2zm2 3v4a2 2 0 100-4zM4 5a2 2 0 100 4V5z" transform="translate(2 2)" fill="currentColor" fill-rule="nonzero"/></g></symbol><symbol id="damage-24" viewBox="0 0 24 24"><defs><path d="M2 18h2v2H0V0h18v20h-7v-2h5V2H2v16zm7 0v2H6v-2h3zM7.925 9.865l3.717 2.312-.823 2.302L14 15.963V18h-2v-.763L8.323 15.52l.893-2.498-1.427-.888-1.424.665H2v-2h3.921l2.004-.935zM7 2v.854l2.252.76.754 1.529h3.763v3.952l2.224 1.79.004 2.542-4.228-3.379V7.143H8.763l-.988-1.914L5 4.289V2h2z" id="a"/></defs><g fill="none" fill-rule="evenodd"><path d="M0 0h24v24H0z"/><use fill="currentColor" fill-rule="nonzero" xlink:href="#a" transform="translate(3 2)"/></g></symbol><symbol id="digital-services-24" viewBox="0 0 24 24"><g fill="none" fill-rule="evenodd"><path d="M0 0h24v24H0z"/><path d="M13.222 0c1.682 0 2.7.993 2.774 2.652l.004.194V9h1.222c1.663 0 2.7.928 2.774 2.507l.004.185v5.616C20 19 18.949 20 17.222 20h-2.444C13.05 20 12 19 12 17.308V13H9v2h2v2H5v-2h2v-2H2.778c-1.682 0-2.7-.993-2.774-2.652L0 10.154V2.846C0 1.137.957.08 2.587.004L2.777 0h10.445zm4 11l-2.566.002c-.54.017-.656.163-.656.69l.002 5.723c.018.474.175.585.776.585h2.444c.644 0 .778-.128.778-.692v-5.616c0-.564-.134-.692-.778-.692zM16 15a1 1 0 110 2 1 1 0 010-2zM13.34 2.002L13.223 2H2.778c-.583 0-.755.139-.776.716L2 2.846v7.308c0 .64.134.822.66.844l.118.002h9.287c.206-1.03.893-1.706 1.934-1.924L14 2.846c0-.64-.134-.822-.66-.844z" transform="translate(2 2)" fill="currentColor" fill-rule="nonzero"/></g></symbol><symbol id="document-24" viewBox="0 0 24 24"><defs><path d="M18 20V6.742L15.552 4H6v16h12zM16.448 2L20 5.979V22H4V2h12.448zM16 13H8v2h8v-2zm0-3H8v2h8v-2zm-2-3H8v2h6V7z" id="a"/></defs><g fill="none" fill-rule="evenodd"><path d="M0 0h24v24H0z"/><use fill="currentColor" fill-rule="nonzero" xlink:href="#a"/></g></symbol><symbol id="dog-24" viewBox="0 0 24 24"><defs><path d="M8.228.822c2.83.708 3.942 2.999 3.942 5.263 0 .716-.236 1.346-.68 1.788 2.025 2.12 3.205 4.291 3.508 6.508.64-.243.983-.804.983-1.758h2c0 2.165-1.202 3.481-2.96 3.819-.102.886-.344 1.897-.723 3.035l-.228.683H1.453v-1.905c0-1.372.921-2.53 2.179-2.887V8.991h2v6.263h.453v2H4.453a1 1 0 00-.996.906h9.158c.309-1.052.46-1.932.46-2.632 0-2.287-1.235-4.624-3.779-7.017-1.42-.181-2.032-1.318-2.032-3.152h2c0 1.042.086 1.179.453 1.179.371 0 .453-.098.453-.453 0-.483-.123-1.133-.402-1.71-.392-.806-1.03-1.364-2.025-1.612-1.556-.39-2.606-.06-3.365.999l-.299.417H2v.718c0 1.209 1.532 2.02 2.898 1.365l.864 1.804C3.136 9.324 0 7.663 0 4.896V2.18h3.083C4.333.747 6.104.291 8.228.822zm1.489 10.074c.636 0 1.247.189 1.766.535l-1.112 1.663a1.18 1.18 0 10-1.036 2.098l-.647 1.892a3.18 3.18 0 011.029-6.188z" id="a"/></defs><g fill="none" fill-rule="evenodd"><path d="M0 0h24v24H0z"/><use fill="currentColor" fill-rule="nonzero" xlink:href="#a" transform="translate(3 1.813)"/></g></symbol><symbol id="e-invoice-24" viewBox="0 0 24 24"><g fill="none" fill-rule="evenodd"><path d="M0 0h24v24H0z"/><path d="M20 0v19.553l-5.838-2.655L10 19.135l-4.163-2.237L0 19.553V0h20zm-2 2H2v14.446l3.912-1.779 4.087 2.197 4.089-2.197L18 16.446V2zM9.924 4c2.74 0 3.87 2.114 3.278 5.232h-4.82c.126 1.254.825 1.791 1.954 1.791.842 0 1.791-.25 2.544-.573l.25 1.774c-.877.483-1.88.77-2.884.77C7.792 12.994 6 11.274 6 8.39 6 5.38 8.007 4 9.924 4zm.018 1.81c-.896 0-1.541.734-1.577 1.88h2.92c.072-1.164-.376-1.88-1.343-1.88z" transform="translate(2 2)" fill="currentColor" fill-rule="nonzero"/></g></symbol><symbol id="ellipsis-enclosed-24" viewBox="0 0 24 24"><g fill="currentColor" fill-rule="nonzero"><path d="M11.75 15.436v.004h-.009C10.899 15.8 9.972 16 9 16c-.972 0-1.899-.2-2.741-.56H6.16v-.047a7.042 7.042 0 01-3.6-3.652A6.954 6.954 0 012 9c0-.972.2-1.898.56-2.74a7.034 7.034 0 013.6-3.652V2.56h.099a6.98 6.98 0 015.482 0h.009v.005a7.038 7.038 0 013.69 3.695c.36.842.56 1.768.56 2.74 0 .973-.2 1.899-.56 2.74a7.038 7.038 0 01-3.69 3.696m3.69-12.71a8.967 8.967 0 00-12.88 0 8.963 8.963 0 000 12.548c.055.056.11.112.166.166A8.962 8.962 0 009 18a8.962 8.962 0 006.274-2.56c.056-.054.111-.11.166-.166a8.965 8.965 0 000-12.547" transform="translate(3 3)"/><path d="M6.16 7.801a1.497 1.497 0 00-.85-.24c-.9 0-1.53.63-1.53 1.44 0 .81.72 1.44 1.53 1.44.322 0 .613-.104.85-.275.359-.259.59-.679.59-1.166 0-.507-.211-.943-.59-1.199M9 7.56c-.81 0-1.44.63-1.44 1.44 0 .81.63 1.44 1.44 1.44.81 0 1.44-.63 1.44-1.44 0-.81-.63-1.44-1.44-1.44m3.69 0c-.368 0-.687.109-.94.289a1.39 1.39 0 00-.59 1.15c0 .463.238.86.59 1.123.265.197.592.318.94.318.81 0 1.53-.63 1.53-1.44 0-.81-.72-1.44-1.53-1.44" transform="translate(3 3)"/></g></symbol><symbol id="envelope-24" viewBox="0 0 24 24"><g fill="currentColor" fill-rule="nonzero"><path d="M1.75 14.5h16.5v-12H1.75v12zM20 .5v16H0V.5h20z" transform="translate(2 3.5)"/><path d="M10.038 8.175L2.37 1.558 1.015 3.03l9.028 7.867 8.94-7.867-1.358-1.467zm9.028 5.769l-4.3-4.57-1.442 1.386 4.3 4.57zM2.465 15.279l4.328-4.519L5.35 9.374l-4.327 4.519z" transform="translate(2 3.5)"/></g></symbol><symbol id="external-link-24" viewBox="0 0 24 24"><g fill="currentColor" fill-rule="nonzero"><path d="M12 0v2h2.586L9.293 7.295l1.414 1.414L16 3.415V6h2V0z" transform="translate(3 3)"/><path d="M0 1v17h17.001l-.007-9.001-2 .002.005 7H2V3h7V1z" transform="translate(3 3)"/></g></symbol><symbol id="family-24" viewBox="0 0 24 24"><g fill="none" fill-rule="evenodd"><path d="M0 0h24v24H0z"/><g fill="currentColor" fill-rule="nonzero"><path d="M6 9a4 4 0 113.036-6.604l1.518-1.303a6 6 0 101.338 2.767l-.156-.81H7.013c-.553 0-1.241-.503-1.587-1.226l-1.804.863C4.28 4.062 5.63 5.05 7.013 5.05H10A4 4 0 016 9z" transform="translate(3 3)"/><path d="M13 16a4 4 0 100-8 4 4 0 000 8zm0-2a2 2 0 110-4 2 2 0 010 4zM1 19v-6.55c0-.994.724-1.826 2.389-2.529L2.61 8.08C.276 9.064-1 10.532-1 12.449V19h2z" transform="translate(3 3)"/><path d="M9 19v-1.138c0-1.712.704-2.577 2.2-2.882l-.4-1.96C8.37 13.516 7 15.2 7 17.862V19h2zm7.248 0v-1.138c0-1.546-.888-2.546-2.248-2.893l.495-1.938c2.198.562 3.753 2.312 3.753 4.831V19h-2z" transform="translate(3 3)"/></g></g></symbol><symbol id="farm-24" viewBox="0 0 24 24"><g fill="none" fill-rule="evenodd"><path d="M0 0h24v24H0z"/><path d="M1 21v-2h.999v-7.555l-.33.298-1.338-1.486L11 .655l10.669 9.602-1.338 1.486-.332-.3V19H21v2H1zM11 3.345l-7.001 6.3L4 19h2.999L7 11.11h8L14.999 19H18l-.001-9.356L11 3.345zM12.999 15l-3 4h3v-4zm-1.083-1.89L9 13.112 8.999 17l2.917-3.89zM11 6a2 2 0 012 2v1H9V8a2 2 0 012-2z" transform="translate(1 1)" fill="currentColor" fill-rule="nonzero"/></g></symbol><symbol id="flag-24" viewBox="0 0 24 24"><path d="M12 10.588c-1.655.159-2.846-.291-4.195-.804C6.273 9.202 4.547 8.56 2 8.74v-5.9c2.12-.338 3.55.233 5.052.847C8.428 4.25 9.966 4.875 12 4.727v5.86zm.795-7.991c-2.067.43-3.42-.12-4.986-.76C6.253 1.2 4.501.499 2 .82V0H0v18.033h2v-7.287c2.184-.186 3.605.343 5.094.908 1.26.478 2.55.969 4.223.969.577 0 1.199-.058 1.88-.195l.803-.162V2.344l-1.205.253z" transform="translate(5 2.5)" fill="currentColor" fill-rule="nonzero"/></symbol><symbol id="fund-assortment-24" viewBox="0 0 24 24"><g fill="none" fill-rule="evenodd"><path d="M0 0h24v24H0z"/><path d="M2 0v18h18v2H0V0h2zm12.044 10.86l5.47 3.283-1.028 1.714-4.53-2.717-5.91 2.955-5.417-2.167.742-1.856 4.583 1.832 6.09-3.044zm4.249-9.567l1.414 1.414-5.437 5.437L8.2 6.12 3.625 9.78l-1.25-1.56L7.8 3.88l5.929 1.975 4.564-4.562z" transform="translate(2 2)" fill="currentColor" fill-rule="nonzero"/></g></symbol><symbol id="gear-24" viewBox="0 0 24 24"><g fill="currentColor" fill-rule="nonzero"><path d="M9.001 11.31a1.088 1.088 0 111.087-1.087c0 .599-.487 1.087-1.087 1.087m0-4.174a3.09 3.09 0 00-3.087 3.087 3.09 3.09 0 003.087 3.087 3.09 3.09 0 003.087-3.087 3.09 3.09 0 00-3.087-3.087" transform="translate(2.5 2)"/><path d="M14.123 10.861l-.244.649a6.495 6.495 0 01-1.119 1.892l-.455.538.947 1.636-1.503.879-.958-1.654-.715.159c-.808.179-1.515.158-2.124.006l-.731-.183-.968 1.672-1.503-.879.964-1.665-.501-.542c-.541-.586-.881-1.155-1.067-1.79l-.211-.718H2V9.134h1.879l.244-.649a6.508 6.508 0 011.119-1.892l.455-.537-.948-1.636 1.504-.88.958 1.654.715-.159a4.688 4.688 0 012.124-.006l.731.183.968-1.672 1.504.88-.964 1.664.5.542c.542.587.881 1.155 1.067 1.79l.212.718h1.934v1.727h-1.879zm3.879 2V7.134h-2.49a6.358 6.358 0 00-.772-1.293l1.241-2.143L11.024.8 9.778 2.953a6.77 6.77 0 00-1.552.002L6.978.8 2.021 3.698l1.255 2.168a8.648 8.648 0 00-.749 1.268H0v5.727h2.49c.198.447.454.876.772 1.293L2.02 16.297l4.958 2.898 1.247-2.153c.507.058 1.037.06 1.552-.002l1.247 2.155 4.958-2.898-1.256-2.168c.287-.403.539-.83.749-1.268h2.527z" transform="translate(2.5 2)"/></g></symbol><symbol id="gravestones-24" viewBox="0 0 24 24"><g fill="none" fill-rule="evenodd"><path d="M0 0h24v24H0z"/><g fill="currentColor" fill-rule="nonzero"><path d="M9.6 5.083l.4-.174.4.174C14.059 6.68 16 8.798 16 11.455V19H4v-7.545C4 8.798 5.941 6.68 9.6 5.083zM6 11.455V17h8v-5.545c0-1.63-1.269-3.088-4-4.358-2.731 1.27-4 2.728-4 4.358z" transform="translate(3 3)"/><path d="M1 13V7.455c0-1.63 1.269-3.088 4.002-4.359 2.71 1.242 4.01 2.47 4.01 3.452h2c0-2.084-1.964-3.873-5.612-5.465L5 .91l-.4.174C.941 2.68-1 4.798-1 7.455V15h6.002v-2H1zM13.154 1.074C15.741 1.992 17 3.608 17 5.5V10h-2.27v2H19V5.5c0-2.898-1.981-5.312-5.605-6.454l-.357-.112-.344.15C11.364-.336 10.13.54 9.28 1.423l1.44 1.387c.602-.624 1.48-1.268 2.434-1.736z" transform="translate(3 3)"/></g></g></symbol><symbol id="growth-arrow-24" viewBox="0 0 24 24"><defs><path d="M22 5v6h-2l-.001-2.605-6.82 6.743-3.4-3.269-6.086 5.852-1.386-1.442 7.472-7.184 3.38 3.25L18.565 7H16V5h6z" id="a"/></defs><g fill="none" fill-rule="evenodd"><path d="M0 0h24v24H0z"/><use fill="currentColor" fill-rule="nonzero" xlink:href="#a"/></g></symbol><symbol id="guide-24" viewBox="0 0 24 24"><g fill="currentColor" fill-rule="evenodd"><path d="M9 20.001h2V0H9z" transform="translate(2 2)"/><path d="M10 2v2.001h6.172l1 1-1 1H12V8h5l3-2.999L17 2zM3 5L0 8l3 3h5V9.001H3.829L2.828 8l1.001-1H10V5zm3 13h8v2H6z" transform="translate(2 2)"/></g></symbol><symbol id="heart-24" viewBox="0 0 24 24"><path d="M5.127 2.015c-.809 0-1.618.3-2.22.902A3.115 3.115 0 002 5.137c0 .848.322 1.636.907 2.22L9 13.452l6.093-6.093A3.112 3.112 0 0016 5.138c0-.847-.322-1.636-.907-2.221-1.204-1.204-3.238-1.203-4.441 0L9 4.572 7.348 2.917a3.135 3.135 0 00-2.221-.902zM9 16.279L1.493 8.772A5.097 5.097 0 010 5.138a5.1 5.1 0 011.493-3.635 5.147 5.147 0 017.269 0L9 1.742l.238-.24a5.146 5.146 0 017.269 0A5.1 5.1 0 0118 5.139c0 1.38-.53 2.672-1.493 3.634L9 16.279z" transform="translate(3 4.5)" fill="currentColor" fill-rule="nonzero"/></symbol><symbol id="heartbeat-24" viewBox="0 0 24 24"><path d="M2.394 2.392c.245-.252.575-.392.93-.392.353 0 .683.14.929.392L5.5 3.676l1.248-1.284c.49-.504 1.368-.504 1.858 0 .526.54.526 1.453.001 1.993L5.5 7.58 2.394 4.385a1.458 1.458 0 010-1.993zM5.5 10.45l4.54-4.672c1.28-1.318 1.28-3.463 0-4.782C8.85-.227 6.764-.3 5.5.82A3.263 3.263 0 003.324 0C2.423 0 1.585.354.96.998-.32 2.316-.32 4.46.96 5.778l4.54 4.673zm13.07 2.065L15.02 6.6l-4.92 7.874-1.988-3.97-2.598 4.011H.004v2H6.6l1.288-1.989 2.018 4.03 5.079-8.126 2.45 4.085h2.568v-2z" transform="translate(2 2.5)" fill="currentColor" fill-rule="nonzero"/></symbol><symbol id="house-24" viewBox="0 0 24 24"><g fill="currentColor" fill-rule="nonzero"><path d="M8.002.75L0 6.867V16.5h2V7.855l6.002-4.588L14 7.855V16.5h2V6.867z" transform="translate(4 3.5)"/><path d="M5 9.5v7h2v-5h2v5h2v-7z" transform="translate(4 3.5)"/></g></symbol><symbol id="house-sun-24" viewBox="0 0 24 24"><g fill="currentColor" fill-rule="nonzero"><path d="M16 0h-2c0 2.757 2.243 5 5 5V3c-1.682 0-3-1.318-3-3zm-4.327 5.913l1.414 1.414 2.12-2.12-1.414-1.414zM10 2h3V0h-3zm7 7h2V6h-2zM7.002 4.741L0 10.094V19h2v-7.918L7.002 7.26 12 11.082V19h2v-8.906z" transform="translate(3 2)"/><path d="M4 19h2v-5h2v5h2v-7H4z" transform="translate(3 2)"/></g></symbol><symbol id="id-card-24" viewBox="0 0 24 24"><g fill="currentColor" fill-rule="nonzero"><path d="M18 11.2c0 .394-.344.8-.8.8-9.05.02-13.85.02-14.4 0-.347 0-.8-.39-.8-.8V2.8c0-.441.359-.8.8-.8h14.4c.441 0 .8.359.8.8v8.4zM2.8 0A2.794 2.794 0 00.128 2.008 2.77 2.77 0 000 2.8v8.4C0 12.813 1.313 14 2.8 14h14.4c1.613 0 2.8-1.25 2.8-2.8V2.8C20 1.256 18.744 0 17.2 0H2.8z" transform="translate(2 5)"/><path d="M7.5 4v1c-.55 0-1 .45-1 1 0 .551.45 1 1 1s1-.449 1-1c0-.55-.45-1-1-1V4zm0 0V3c1.655 0 3 1.345 3 3 0 1.656-1.345 3-3 3s-3-1.344-3-3c0-1.655 1.345-3 3-3v1z" transform="translate(2 5)"/><path d="M12.5 12h-2a3 3 0 00-6 0h-2a5 5 0 1110 0zM12 6h4V4h-4zm0 3h4V7h-4z" transform="translate(2 5)"/></g></symbol><symbol id="id-sign-24" viewBox="0 0 24 24"><g fill="none" fill-rule="evenodd"><path d="M0 0h24v24H0z"/><path d="M20.305 11.28l1.39 1.44-7.943 7.668-4.445-4.267 1.386-1.442 3.055 2.932 6.557-6.33zM7.5 0a3.75 3.75 0 013.392 5.352 8.501 8.501 0 011.813 2.027c.6.951 1.006 2.266 1.24 3.954l.048.368.078.651-.566.331c-1.548.906-3.302 1.234-6.001 1.234-2.57 0-4.282-.295-5.775-1.102l-.234-.132-.566-.331.078-.651c.225-1.866.645-3.303 1.288-4.322A8.535 8.535 0 014.108 5.35 3.75 3.75 0 017.5 0zm2.086 6.866l-.087.057A3.732 3.732 0 017.5 7.5a3.733 3.733 0 01-2.085-.632 6.526 6.526 0 00-1.429 1.578c-.36.573-.649 1.417-.85 2.527l-.047.281.203.085c.972.384 2.16.554 3.843.575l.369.003c1.876 0 3.163-.167 4.204-.578l.202-.085-.047-.281c-.182-1.01-.436-1.799-.753-2.364l-.096-.163a6.57 6.57 0 00-1.428-1.58zM7.5 2a1.75 1.75 0 100 3.5 1.75 1.75 0 000-3.5z" transform="translate(1 2)" fill="currentColor" fill-rule="nonzero"/></g></symbol><symbol id="image-doc-24" viewBox="0 0 24 24"><g fill="none" fill-rule="evenodd"><path d="M0 0h24v24H0z"/><path d="M20 0v20H0V0h20zM5.957 11.457L2 15.414V18h9.773l-5.816-6.543zM13 13.415l-1.391 1.39L14.449 18h3.136L13 13.415zM18 2H2v10.584l4.043-4.041 4.234 4.764L13 10.586l5 4.999V2zm-8 1a3 3 0 110 6 3 3 0 010-6zm0 2a1 1 0 100 2 1 1 0 000-2z" transform="translate(2 2)" fill="currentColor" fill-rule="nonzero"/></g></symbol><symbol id="info-enclosed-24" viewBox="0 0 24 24"><g fill="currentColor" fill-rule="nonzero"><path d="M9 16c-3.859 0-7-3.14-7-7 0-1.128.274-2.19.75-3.135C3.903 3.577 6.268 2 9 2s5.097 1.577 6.25 3.865C15.726 6.81 16 7.872 16 9c0 3.86-3.141 7-7 7m6.25-13.462a8.96 8.96 0 00-12.5 0A8.97 8.97 0 000 9c0 4.962 4.037 9 9 9s9-4.038 9-9a8.97 8.97 0 00-2.75-6.462" transform="translate(3 3)"/><path d="M8 7.8V14h2V7.8zm1-4.05a1.25 1.25 0 100 2.5 1.25 1.25 0 000-2.5" transform="translate(3 3)"/></g></symbol><symbol id="list-24" viewBox="0 0 24 24"><g transform="translate(3 4)" fill="currentColor" fill-rule="evenodd"><path fill-rule="nonzero" d="M6 3h12V1H6zm0 6h12V7H6zm0 6h12v-2H6z"/><circle cx="2" cy="2" r="1.5"/><circle cx="2" cy="8" r="1.5"/><circle cx="2" cy="14" r="1.5"/></g></symbol><symbol id="logout-24" viewBox="0 0 24 24"><g fill="currentColor" fill-rule="nonzero"><path d="M13.782 5.697L15.047 7h-6.05v2h6.05l-1.265 1.303 1.434 1.394L18.808 8l-3.592-3.696z" transform="translate(2.5 4)"/><path d="M7.907 14a5.83 5.83 0 01-4.176-1.75c-2.313-2.344-2.313-6.157 0-8.5A5.83 5.83 0 017.909 2a5.83 5.83 0 014.176 1.75l1.424-1.405A7.818 7.818 0 007.908 0a7.818 7.818 0 00-5.6 2.345c-3.077 3.118-3.077 8.191 0 11.31A7.818 7.818 0 007.907 16a7.818 7.818 0 005.6-2.345l-1.424-1.405A5.83 5.83 0 017.908 14" transform="translate(2.5 4)"/></g></symbol><symbol id="mc-24" viewBox="0 0 24 24"><g fill="none" fill-rule="evenodd"><path d="M0 0h24v24H0z"/><path d="M14.814.42l5.05 7.08h-1.94c-.621 0-1.525.267-2.333.676l.707.708a3.938 3.938 0 11-1.507 1.322l-.793-.795c-.56.708-.933 1.622-.99 2.388L13 12v.414L11.414 14H8.278L6 11.721l-1.216 1.217-1.414-1.414 1.215-1.217-1.692-1.692H1v-2h2.722L9.106 12h1.479l.437-.437.003-.042c.15-1.463.955-3.094 2.153-4.138l.204-.168c.717-.564 1.635-1.036 2.542-1.34l.263-.085-3.001-4.208L14.814.419zM2.34 8.731l.811 1.828a1.938 1.938 0 102.502 2.675l.081-.174 1.854.752a3.938 3.938 0 11-5.464-4.976l.216-.105zm15.716 1.739c-.055 0-.109.002-.162.006l.814.816-1.414 1.414-1.032-1.032a1.938 1.938 0 101.794-1.205zM5.303 4l3 2h2.627l.083-.013c.458-.098.911-.491.979-.888L12 5h2c0 1.552-1.331 2.753-2.736 2.974l-.162.02L11 8H7.697l-3-2H1V4h4.303z" transform="translate(1 3)" fill="currentColor" fill-rule="nonzero"/></g></symbol><symbol id="menu-24" viewBox="0 0 24 24"><path d="M0 2h14V0H0zm0 5h14V5H0zm0 5h14v-2H0z" transform="translate(5 6)" fill="currentColor" fill-rule="nonzero"/></symbol><symbol id="mobile-phone-24" viewBox="0 0 24 24"><defs><path d="M14 17a3 3 0 01-3 3H3a3 3 0 01-3-3V3a3 3 0 013-3h8a3 3 0 013 3v14zm-2-3.5H2V17a1 1 0 001 1h8a1 1 0 001-1v-3.5zM7 14a1.5 1.5 0 110 3 1.5 1.5 0 010-3zm5-9.5H2v8h10v-8zM11 2H3a1 1 0 00-1 1v.5h10V3a1 1 0 00-1-1z" id="a"/></defs><g fill="none" fill-rule="evenodd"><path d="M0 0h24v24H0z"/><use fill="currentColor" fill-rule="nonzero" xlink:href="#a" transform="translate(5 2)"/></g></symbol><symbol id="moped-24" viewBox="0 0 24 24"><g fill="none" fill-rule="evenodd"><path d="M0 0h24v24H0z"/><path d="M1.388 10.234l1.077 1.685-.121.078-.04.04a1.24 1.24 0 00-.297.694L2 12.863c0 .678.518 1.214 1.14 1.214.306 0 .593-.129.806-.355l.042-.05.12-.236 1.784.904-.168.332-.092.148a3.111 3.111 0 01-2.492 1.257C1.398 16.077 0 14.63 0 12.863c0-.847.324-1.645.888-2.24l.146-.144.14-.108.214-.137zM18 10a3 3 0 110 6 3 3 0 010-6zm0 2a1 1 0 100 2 1 1 0 000-2zM14.66 0l3.003 7.008.099-.004L18 7h2v2h-2c-2.235 0-3.887 1.352-3.994 2.845L14 12v2H6.648L0 8.66V4h10v1c0 1.749-1.032 2.981-2.588 3.583.257.532.762.879 1.318.879.753 0 1.214-.454 1.265-1.299L10 8h2c0 2.017-1.325 3.462-3.27 3.462-1.525 0-2.832-1.026-3.308-2.474l-.183.008L5 9V7c1.249 0 2.186-.357 2.659-.971L7.678 6H2v1.701L7.352 12H12c0-2.05 1.49-3.84 3.652-4.605L13.34 2H12V0h2.66z" transform="translate(2 4)" fill="currentColor" fill-rule="nonzero"/></g></symbol><symbol id="mortgage-24" viewBox="0 0 24 24"><defs><path d="M6.5 12.733l5.5 4.278V21h-2v-3.01l-3.5-2.723L3 17.989V21H1v-3.99l5.5-4.277zM7.5 18v3h-2v-3h2zm7-5a2.5 2.5 0 110 5 2.5 2.5 0 010-5zm0 1.886a.614.614 0 100 1.228.614.614 0 000-1.228zM14.9.539l1.872 8.803-2.773.589L14 10a3 3 0 01-5.768 1.158L2.099 12.46.23 3.658 14.9.539zM11 9a1 1 0 100 2 1 1 0 000-2zm2.36-6.089L2.6 5.198l1.04 4.89 4.487-.954a3.001 3.001 0 015.145-1.093L14.4 7.8l-1.04-4.89z" id="a"/></defs><g fill="none" fill-rule="evenodd"><path d="M0 0h24v24H0z"/><use fill="currentColor" fill-rule="nonzero" xlink:href="#a" transform="translate(3 1)"/></g></symbol><symbol id="notification-swish-24" viewBox="0 0 24 24"><defs><path d="M5.041 15.452l.341-.42c2.318.652 4.869-.193 6.425-2.095 2.082-2.558 1.725-6.424-.892-8.566l-.476-.357 2.164-2.535.438.329C14.904 3.288 16 5.534 16 8c0 4.438-3.562 8-8 8a8.063 8.063 0 01-2.959-.548zm-2.027-1.205A8.002 8.002 0 010 8c0-4.438 3.562-8 8-8 1.151 0 2.246.219 3.233.712l-.361.398C8.384.336 5.75 1.042 4.133 3.062c-2.082 2.618-1.665 6.366.952 8.567l.476.357-2.164 2.589-.383-.328z" id="a"/></defs><g fill="none" fill-rule="evenodd"><path d="M0 0h24v24H0z"/><use fill="currentColor" fill-rule="nonzero" xlink:href="#a" transform="translate(4 4)"/></g></symbol><symbol id="padlock-24" viewBox="0 0 24 24"><defs><path d="M12.456 6.948a4 4 0 10-8 0v2h-2v-2a6 6 0 1112 0v2h2v11.974h-16V8.948h12v-2zm2 4h-12v7.974h12v-7.974zm-6 1a1.5 1.5 0 011.157 2.456L11 18H6l1.307-3.588a1.5 1.5 0 011.15-2.464z" id="a"/></defs><g fill="none" fill-rule="evenodd"><path d="M0 0h24v24H0z"/><use fill="currentColor" fill-rule="nonzero" xlink:href="#a" transform="translate(3.544 1.052)"/></g></symbol><symbol id="paper-24" viewBox="0 0 24 24"><path d="M0 0v18h14l-.005-12.414L8.414 0H0zm2 2h4v6h5.996L12 16H2V2zm6 .415L11.581 6H8V2.415z" transform="translate(5 3)" fill="currentColor" fill-rule="nonzero"/></symbol><symbol id="parasol-24" viewBox="0 0 24 24"><g fill="none" fill-rule="evenodd"><path d="M0 0h24v24H0z"/><path d="M0 0h24v24H0z"/><path d="M20.059 16v2c-1.538 0-2.811.253-3.829.748l-.25.129c-1.282.703-2.834 1.072-4.647 1.118l-.392.005H0v-2h10.941c1.538 0 2.811-.253 3.829-.748l.25-.129c1.282-.703 2.834-1.072 4.647-1.118l.392-.005zM7.48 5.145a1 1 0 011.038 0l6.176 3.75a1 1 0 01.42.511l.824 2.25A1 1 0 0115 13H9.273a1 1 0 01-.274-.038L9 17H7v-4.038a1 1 0 01-.14.03L6.728 13H1a1 1 0 01-.94-1.344l.824-2.25a1 1 0 01.42-.51zM8 7.17l-5.358 3.253L2.43 11h3.95l1.002-.786a1 1 0 011.123-.077l.113.077L9.619 11h3.95l-.212-.578L8 7.169zM20 5v3h-2V5h2zm-4.54-1.817l1.414 1.414-2.122 2.121-1.414-1.414 2.121-2.121zM18 0a2 2 0 001.85 1.995L20 2v2A4 4 0 0116.005.2L16 0h2zm-3 0v2h-3V0h3z" transform="translate(2 2)" fill="currentColor" fill-rule="nonzero"/></g></symbol><symbol id="payment-24" viewBox="0 0 24 24"><defs><path d="M8.828 16.014a2.982 2.982 0 110 5.964 2.982 2.982 0 010-5.964zm12.827-2.88l1.406 1.422-7.129 7.046-3.44-3.525 1.432-1.396 2.034 2.083 5.697-5.63zm-12.827 4.88a.982.982 0 100 1.964.982.982 0 000-1.964zM17.469.503l1.25 4.332 1.064.227-2.23 10.485-7.903-1.68a3.38 3.38 0 01-6.133-1.303L.866 12 3.094 1.514 8.04 2.565 17.47.503zM6.846 10.605a1.378 1.378 0 100 2.756 1.378 1.378 0 000-2.756zM4.634 3.886L3.237 10.46l.537.115a3.379 3.379 0 016.45 1.37l5.79 1.23 1.396-6.573L4.634 3.886zm11.433-1.029l-3.28.717 3.715.79-.435-1.507z" id="a"/></defs><g fill="none" fill-rule="evenodd"><path d="M0 0h24v24H0z"/><use fill="currentColor" fill-rule="nonzero" xlink:href="#a" transform="translate(0 1)"/></g></symbol><symbol id="pdf-doc-24" viewBox="0 0 24 24"><g fill="none" fill-rule="evenodd"><path d="M0 0h24v24H0z"/><path d="M16.414 2L20 5.586V8h-2V6.414L15.586 4H6v16h11.998l-.005-3.998 2-.004.01 6.002H4V2h12.414zm-1.767 7.05c1.504 0 2.507 1.181 2.507 2.958 0 1.794-1.003 2.992-2.507 2.992h-1.904V9.05zm6.494 0v1.114h-1.93v1.606h1.718v1.114h-1.717V15h-1.199V9.05h3.128zm-11.11 0c1.173 0 1.981.867 1.981 2.159 0 1.258-.79 2.1-1.93 2.1h-.875v1.683H8V9.05zm4.599 1.147h-.689v3.655h.689c.799 0 1.326-.73 1.326-1.835 0-1.088-.527-1.82-1.326-1.82zm-4.548-.042h-.9v2.066h.9c.451 0 .774-.417.774-1.046 0-.612-.323-1.02-.774-1.02z" fill="currentColor" fill-rule="nonzero"/></g></symbol><symbol id="pencil-24" viewBox="0 0 24 24"><g fill="currentColor" fill-rule="nonzero"><path d="M0 .5v18h14.001l-.007-5.001-2 .002.005 3H2v-14h10V.5z" transform="translate(4 2.5)"/><path d="M15.778 5.467l-.739-.739-6.032 6.033v.739h.739l6.032-6.033zM10.574 13.5H7.007V9.933L15.039 1.9l3.568 3.567-8.033 8.033z" transform="translate(4 2.5)"/></g></symbol><symbol id="pension-24" viewBox="0 0 24 24"><defs><path d="M17.686 16.4H4.314L3.416 18h15.168l-.898-1.6zm1.171-2L22 20H0l3.143-5.6h15.714zM15.374 8l3.143 5.6H3.496L6.639 8h8.735zm-1.171 2H7.809l-.897 1.6H15.1l-.898-1.6zM11.016.002L15.058 7.2H6.954L11.016.002zm-.006 3.027L9.596 5.61h2.82L11.01 3.03z" id="a"/></defs><g fill="none" fill-rule="evenodd"><path d="M0 0h24v24H0z"/><use fill="currentColor" fill-rule="nonzero" xlink:href="#a" transform="translate(1 2)"/></g></symbol><symbol id="pension-occupational-24" viewBox="0 0 24 24"><defs><path d="M17.686 16.4H4.314L3.416 18h15.168l-.898-1.6zm1.171-2L22 20H0l3.143-5.6h15.714zM15.374 8l3.143 5.6H3.496L6.639 8h8.735zM10.999.002L14.957 7.2H7.022L11 .002zm.004 3.532L9.91 5.51h2.176l-1.082-1.975z" id="a"/></defs><g fill="none" fill-rule="evenodd"><path d="M0 0h24v24H0z"/><use fill="currentColor" fill-rule="nonzero" xlink:href="#a" transform="translate(1 2)"/></g></symbol><symbol id="pension-private-24" viewBox="0 0 24 24"><defs><path d="M17.686 16.4H4.314L3.416 18h15.168l-.898-1.6zm1.171-2L22 20H0l3.143-5.6h15.714zM15.374 8l3.143 5.6H3.496L6.639 8h8.735zm-1.171 2H7.809l-.897 1.6H15.1l-.898-1.6zM10.999.002L14.957 7.2H7.022L11 .002z" id="a"/></defs><g fill="none" fill-rule="evenodd"><path d="M0 0h24v24H0z"/><use fill="currentColor" fill-rule="nonzero" xlink:href="#a" transform="translate(1 2)"/></g></symbol><symbol id="pension-state-24" viewBox="0 0 24 24"><defs><path d="M18.857 14.4L22 20H0l3.143-5.6h15.714zM15.374 8l3.143 5.6H3.496L6.639 8h8.735zm-1.171 2H7.809l-.897 1.6H15.1l-.898-1.6zM10.999.002L14.957 7.2H7.022L11 .002zm-.02 3.017L9.341 5.857h3.273l-1.637-2.838z" id="a"/></defs><g fill="none" fill-rule="evenodd"><path d="M0 0h24v24H0z"/><use fill="currentColor" fill-rule="nonzero" xlink:href="#a" transform="translate(1 2)"/></g></symbol><symbol id="percent-24" viewBox="0 0 24 24"><path d="M12.5 16a3.5 3.5 0 100-7 3.5 3.5 0 000 7zm0-2a1.5 1.5 0 110-3 1.5 1.5 0 010 3zm-9-7a3.5 3.5 0 100-7 3.5 3.5 0 000 7zm0-2a1.5 1.5 0 110-3 1.5 1.5 0 010 3zM12.714.382l-11 14 1.572 1.236 11-14z" transform="translate(4 4)" fill="currentColor" fill-rule="nonzero"/></symbol><symbol id="phone-24" viewBox="0 0 24 24"><path d="M4.151 15.616a.388.388 0 00.263.097.39.39 0 00.263-.097l2.47-2.442a.33.33 0 00.102-.245.334.334 0 00-.102-.245l-1.876-1.853.334-1.051c.233-.734.789-1.56 1.748-2.507.961-.95 1.768-1.481 2.474-1.728l1.06-.37.798.79 1.117 1.103c.09.09.432.09.523 0l2.47-2.442a.33.33 0 00.104-.245.327.327 0 00-.104-.245l-1.441-1.424c-.241-.238-.748-.412-1.448-.412-1.787 0-4.164.965-6.9 3.668-2.013 1.99-3.096 3.844-3.519 5.463-.347 1.329-.187 2.354.226 2.762l1.438 1.423zm-1.266 1.279l-1.438-1.423c-.935-.923-1.196-2.603-.701-4.496.375-1.437 1.373-3.696 3.995-6.288C8.566.908 11.725.5 12.906.5c1.143 0 2.105.331 2.713.932l1.441 1.424c.411.403.639.946.639 1.525 0 .578-.228 1.12-.641 1.527l-2.468 2.44c-.789.782-2.261.784-3.054 0L10.42 7.245c-.238.083-.835.352-1.802 1.308-.925.913-1.21 1.495-1.298 1.772l1.092 1.078c.411.408.637.95.637 1.526a2.13 2.13 0 01-.635 1.524l-2.472 2.443a2.186 2.186 0 01-1.528.617 2.184 2.184 0 01-1.529-.618z" transform="rotate(-73 12.527 8.473)" fill="currentColor" fill-rule="nonzero"/></symbol><symbol id="pin-24" viewBox="0 0 24 24"><g fill="currentColor" fill-rule="nonzero"><path d="M13.5 7.544C13.5 4.486 11.028 2 8 2S2.5 4.486 2.5 7.544c0 1.435.572 2.833 1.607 3.927l3.81 3.837h.165l3.813-3.84c1.04-1.107 1.605-2.498 1.605-3.924zm-.168 5.316l-4.417 4.448h-1.83L2.688 12.88C1.27 11.382.5 9.494.5 7.544.5 3.384 3.865 0 8 0s7.5 3.384 7.5 7.544c0 1.95-.77 3.838-2.168 5.316z" transform="translate(4 2)"/><path d="M1 17v2h14v-2zm7-8.499c-.57 0-1-.43-1-1A.978.978 0 018 6.5c.57 0 1 .43 1 1.001h2A2.969 2.969 0 008 4.5c-1.682 0-3 1.318-3 3.001 0 1.682 1.318 3 3 3v-2z" transform="translate(4 2)"/></g></symbol><symbol id="plus-24" viewBox="0 0 24 24"><path d="M5 0v5H0v2h5v5h2.001V7H12V5H7.001V0z" transform="translate(6 6)" fill="currentColor" fill-rule="nonzero"/></symbol><symbol id="pregnant-24" viewBox="0 0 24 24"><g fill="none" fill-rule="evenodd"><path d="M0 0h24v24H0z"/><path d="M12 17.5v2.503h-2V17.5h2zM8 0a4 4 0 013.285 6.283c.99.492 1.644 1.37 1.71 2.523L13 9v4.5c0 1.859-1.191 2.922-2.818 2.996L10 16.5H6a1 1 0 01-.117-1.993L6 14.5h4c.64 0 .956-.23.996-.859L11 13.5V9c0-.6-.44-1.003-1.28-1.133a.998.998 0 01-.335-.114C8.954 7.913 8.487 8 8 8c-.618 0-1.203-.14-1.725-.39l.142-.067c-1.085.498-1.383.817-1.414 1.338l-.003.1v1.061c.235-.02.478-.034.728-.04L6 10v2c-2.824 0-4 .94-4 3 0 1.995 1.104 2.94 3.74 2.997L6 18v2c-3.843 0-6-1.726-6-5 0-2.288 1.054-3.82 3-4.535V8.98c0-1.184.513-2.044 1.667-2.768A4 4 0 018 0zm0 2a2 2 0 100 4 2 2 0 000-4z" transform="translate(4 2)" fill="currentColor" fill-rule="nonzero"/></g></symbol><symbol id="print-24" viewBox="0 0 24 24"><g fill="none" fill-rule="evenodd"><path d="M0 0h24v24H0z"/><path d="M4 15H0V9.5A3.5 3.5 0 013.5 6H4V0h12v6h.5A3.5 3.5 0 0120 9.5V15h-4v5H4v-5zm0-2v-2h12v2h2V9.5A1.5 1.5 0 0016.5 8h-13A1.5 1.5 0 002 9.5V13h2zm2-7h8V2H6v4zm0 7v5h8v-5H6z" transform="translate(2 2)" fill="currentColor" fill-rule="nonzero"/></g></symbol><symbol id="radio-enclosed-24" viewBox="0 0 24 24"><g fill="currentColor" fill-rule="nonzero"><path d="M9 2C5.141 2 2 5.14 2 9s3.141 7 7 7 7-3.14 7-7-3.141-7-7-7m0 16c-4.963 0-9-4.038-9-9s4.037-9 9-9 9 4.038 9 9-4.037 9-9 9" transform="translate(3 3)"/><path d="M9 10.44c-.81 0-1.44-.63-1.44-1.44 0-.81.63-1.44 1.44-1.44.81 0 1.44.63 1.44 1.44 0 .81-.63 1.44-1.44 1.44" transform="translate(3 3)"/></g></symbol><symbol id="radio-round-24" viewBox="0 0 24 24"><g fill="currentColor" fill-rule="nonzero"><path d="M9 2C5.141 2 2 5.14 2 9s3.141 7 7 7 7-3.14 7-7-3.141-7-7-7m0 16c-4.963 0-9-4.038-9-9s4.037-9 9-9 9 4.038 9 9-4.037 9-9 9" transform="translate(3 3)"/><path d="M9 10.5a1.5 1.5 0 100-3 1.5 1.5 0 000 3zM9 13a4 4 0 110-8 4 4 0 010 8z" transform="translate(3 3)"/></g></symbol><symbol id="rv-24" viewBox="0 0 24 24"><g fill="none" fill-rule="evenodd"><path d="M0 0h24v24H0z"/><path d="M20.765 0l2.264 8.358L21.807 14l-.979.001A2.998 2.998 0 0118 16a3.001 3.001 0 01-2.829-2l-5.342.001a3 3 0 01-5.658 0L2.193 14 .971 8.358 3.235 0h17.53zM7 12a1 1 0 100 2 1 1 0 000-2zm11 0a1 1 0 100 2 1 1 0 000-2zm1.234-10H4.765L3.41 7H7v2H3.156l.65 3h.365a3.001 3.001 0 015.658 0h5.342a3.001 3.001 0 015.203-.834l.596-2.755L20.316 6H17V4h2.775l-.541-2zM15 4v7h-2V6h-1v5h-2V4h5z" transform="translate(0 4)" fill="currentColor" fill-rule="nonzero"/></g></symbol><symbol id="save-24" viewBox="0 0 24 24"><g fill="none" fill-rule="evenodd"><path d="M0 0h24v24H0z"/><path d="M16.857.854l-.06 4.213a7.18 7.18 0 011.991 2.787h2.299v6h-2.292c-.394 1.006-.997 1.662-1.944 2.093l-.011 3.907h-4.87v-2.217H9.628v2.217H4.809v-3.391c-1.922-1.306-3.257-3.686-3.257-6.055 0-.64.072-1.264.207-1.862A2.997 2.997 0 01.087 5.854c0-1.664 1.349-3 2.997-3v2c-.584 0-1.044.456-1.044 1 0 .32.16.61.41.795 1.094-2.121 3.098-3.577 5.484-3.577h3.715C12.56 1.485 13.703.854 15.866.854h.991zM14.874 2.92c-.88.148-1.275.58-1.768 1.596l-.269.556H7.934c-2.47 0-4.429 2.411-4.429 5.336 0 1.824 1.17 3.743 2.743 4.61l.514.282v2.554h.911v-2.217h6.251v2.217h.968l.01-3.355.698-.21c.943-.285 1.273-.647 1.545-1.692l.193-.743h1.795v-2h-1.792l-.195-.738c-.285-1.076-.984-2.077-1.904-2.754l-.414-.305.046-3.137zm-1.601 3.934v2H8.389v-2h4.884z" transform="translate(.913 2.146)" fill="currentColor" fill-rule="nonzero"/></g></symbol><symbol id="screen-24" viewBox="0 0 24 24"><path d="M18 11.5c0 .271-.229.5-.5.5h-15a.507.507 0 01-.5-.5v-9c0-.271.229-.5.5-.5h15c.271 0 .5.229.5.5v9zM2.5 0A2.503 2.503 0 000 2.5v9C0 12.878 1.122 14 2.5 14H9v1H5v2h10v-2h-4v-1h6.5c1.378 0 2.5-1.122 2.5-2.5v-9C20 1.122 18.878 0 17.5 0h-15z" transform="translate(2 4)" fill="currentColor" fill-rule="nonzero"/></symbol><symbol id="search-24" viewBox="0 0 24 24"><path d="M16.638 17.954l-3.804-3.803 1.317-1.316 3.803 3.803zM7.354 1.862a5.499 5.499 0 00-5.492 5.493 5.499 5.499 0 005.492 5.492 5.499 5.499 0 005.493-5.492 5.499 5.499 0 00-5.493-5.493m0 12.847C3.3 14.71 0 11.41 0 7.355 0 3.299 3.3 0 7.354 0c4.056 0 7.355 3.3 7.355 7.355 0 4.055-3.3 7.354-7.355 7.354" transform="translate(3 3)" fill="currentColor" fill-rule="nonzero"/></symbol><symbol id="share-24" viewBox="0 0 24 24"><defs><path d="M15 0a4 4 0 11-2.921 6.732l-4.2 2.291a4.008 4.008 0 010 1.954l4.2 2.29a4 4 0 11-.96 1.756l-4.198-2.29a4 4 0 110-5.465l4.2-2.291A4 4 0 0115 0zm0 14a2 2 0 100 4 2 2 0 000-4zM4 8a2 2 0 100 4 2 2 0 000-4zm11-6a2 2 0 100 4 2 2 0 000-4z" id="a"/></defs><g fill="none" fill-rule="evenodd"><path d="M0 0h24v24H0z"/><path d="M0 0h24v24H0z"/><use fill="currentColor" fill-rule="nonzero" xlink:href="#a" transform="translate(2 2)"/></g></symbol><symbol id="shield-24" viewBox="0 0 24 24"><g fill="none" fill-rule="evenodd"><path d="M0 0h24v24H0z"/><g fill="currentColor" fill-rule="nonzero"><path d="M3.273 0h11.454c0 1.636 1.637 3.273 3.273 3.273v7.363c0 3.819-3 7.091-9 9.819-6-2.728-9-6-9-9.819V3.273c1.636 0 3.273-1.637 3.273-3.273zM2 4.825v5.811c0 2.72 2.21 5.275 7 7.608 4.79-2.333 7-4.888 7-7.608v-5.81A5.788 5.788 0 0113.175 2h-8.35A5.788 5.788 0 012 4.825z" transform="translate(3 2)"/><path d="M5.43 7.352l5.727 5.728 1.414-1.415-5.728-5.727z" transform="translate(3 2)"/><path d="M6.843 13.08l5.728-5.728-1.414-1.414-5.728 5.727z" transform="translate(3 2)"/></g></g></symbol><symbol id="smalltruck-24" viewBox="0 0 24 24"><g fill="none" fill-rule="evenodd"><path d="M0 0h24v24H0z"/><path d="M15 0v11H2.219l.281 1.401a2.982 2.982 0 011.324-.396L4 12c1.306 0 2.417.835 2.83 2h6.34A3.001 3.001 0 0118 12.765V9.196L16.71 6H16V4h2.06L20 8.806V16h-1.171a3 3 0 01-5.658 0H6.829A3 3 0 011 15l.003.115L.18 11H0V0h15zm1 14a1 1 0 100 2 1 1 0 000-2zM4 14a1 1 0 100 2 1 1 0 000-2zm9-12H2v7h11V2z" transform="translate(2 3)" fill="currentColor" fill-rule="nonzero"/></g></symbol><symbol id="snailmail-24" viewBox="0 0 24 24"><g fill="none" fill-rule="evenodd"><path d="M0 0h24v24H0z"/><path d="M16 0v2h-2v6.82h-2L11.999 6H8.263c.277.647.392 1.437.336 2.351L8.598 16h10.401L19 8.535C19 6.698 18.407 6 17 6h-1V4h1c2.59 0 3.999 1.659 4 4.535V18l-9.001-.001L12 20h-2l-.001-2.001L1 18v-2l5.598-.001.003-7.709C6.703 6.627 6.212 6.016 4.859 6h-.106l-.104.003C3.373 6.048 2.905 6.675 3 8.35V14H1l.002-5.591C.85 5.774 2.062 4.177 4.4 4.014V4H12V0h4z" transform="translate(1 2)" fill="currentColor" fill-rule="nonzero"/></g></symbol><symbol id="snowmobile-24" viewBox="0 0 24 24"><g fill="none" fill-rule="evenodd"><path d="M0 0h24v24H0z"/><path d="M10.707.293l8.44 8.44-1.865 1.957-.092.085 1.746 1.75c.302-.226.676-.56 1.175-1.052l.182-.18 1.414 1.414c-1.27 1.27-2.001 1.829-2.827 2.096-.448.144-.775.185-1.47.195l-.42.002h-3.932v-2l3.526-.002-1.073-1.072a1.87 1.87 0 01-.363.067l-.15.007h-2l.004-2h1.973l.033-.006c.073-.024.224-.127.62-.492l.24-.225.484-.51-2.853-2.852L11.414 8H3.75c-.134 0-.436.19-.538.36l-.029.062-1.923-.549c.297-1.038 1.37-1.79 2.331-1.867L3.75 6h5.835L8.293 4.707l1.414-1.414L11.5 5.085l.585-.585-2.792-2.793L10.707.293zM9.37 9C10.872 9 12 10.383 12 12s-1.127 3-2.63 3H2.63C1.129 15 0 13.617 0 12s1.128-3 2.63-3zm0 2H2.631C2.333 11 2 11.408 2 12c0 .592.333 1 .63 1h6.74c.298 0 .63-.408.63-1 0-.592-.332-1-.63-1z" transform="translate(2 3)" fill="currentColor" fill-rule="nonzero"/></g></symbol><symbol id="star-24" viewBox="0 0 24 24"><defs><path id="a" d="M18 17.593V.1H0v17.493z"/></defs><g transform="translate(3 2.5)" fill="none" fill-rule="evenodd"><mask id="b" fill="#fff"><use xlink:href="#a"/></mask><path d="M9 11.92c.21 0 .42.065.597.196l2.441 1.815-.95-2.955a.999.999 0 01.36-1.11l2.498-1.842-3.065.007h-.002a1 1 0 01-.953-.698L9 4.411l-.926 2.922a1.01 1.01 0 01-.955.698l-3.065-.007 2.5 1.841a.999.999 0 01.358 1.111l-.95 2.955 2.441-1.815c.178-.13.387-.197.597-.197m4.944 5.674a.998.998 0 01-.596-.197L9 14.166l-4.348 3.23a1 1 0 01-1.548-1.109l1.684-5.238-4.38-3.226A1.001 1.001 0 011 6.018h.002l5.388.012L8.047.798a1 1 0 011.906 0L11.61 6.03l5.388-.012H17a1 1 0 01.593 1.805l-4.38 3.226 1.683 5.238a.999.999 0 01-.952 1.306" fill="currentColor" fill-rule="nonzero" mask="url(#b)"/></g></symbol><symbol id="sustainability-24" viewBox="0 0 24 24"><g fill="none" fill-rule="evenodd"><path d="M0 0h24v24H0z"/><path d="M20.227.5l.15 1.393c.415 3.85.623 6.853.623 9.016C21 14.284 17.885 17 15.06 17c-1.07 0-2.03-.269-2.862-.8l-3.351 5.332-1.694-1.064 1.196-1.906-.105.093-4.335-5 1.511-1.31.334.384c-.08-.35-.258-.731-.557-1.132-.613-.826-1.449-1.54-2.515-2.143-.527 2.49-.45 4.157.13 4.961.338.47.8.61 1.602.409l.485 1.94c-1.554.388-2.862-.003-3.71-1.18-1.12-1.553-1.12-4.145-.157-7.836l.296-1.133 1.073.469c1.9.83 3.373 1.936 4.402 3.32 1.113 1.497 1.236 3.083.655 4.29l1.926 2.222 3.417-5.438-1.674-2.99 1.746-.977 1.14 2.038 1.552-2.466 1.693 1.064-1.525 2.424H18v2h-3.524l-1.214 1.934c.513.332 1.104.495 1.797.495C16.837 15 19 13.114 19 10.91c0-1.816-.155-4.286-.466-7.404-3.75 1.78-6.173 3.046-7.232 3.773-1.466 1.007-1.786 3.482-.466 4.843l-1.435 1.393c-2.203-2.27-1.696-6.191.769-7.885 1.297-.89 4.208-2.39 8.788-4.536L20.227.5z" transform="translate(1 1)" fill="currentColor" fill-rule="nonzero"/></g></symbol><symbol id="tag-24" viewBox="0 0 24 24"><g fill="currentColor" fill-rule="nonzero"><path d="M2.914 10.504L8.5 16.09l8.004-8.003-.004-3.168-2.415-2.415-3.167-.003-8.004 8.003zm5.586 8a.997.997 0 01-.707-.293l-7-7a.999.999 0 010-1.414L9.797.793A1 1 0 0110.504.5h.001l3.996.004c.265 0 .518.105.706.293l3 3a1 1 0 01.293.706l.004 3.996c0 .266-.106.521-.293.708l-9.004 9.004a.997.997 0 01-.707.293z" transform="translate(2.5 2.5)"/><path d="M12.5 8.5a1.961 1.961 0 01-1.548-.71 1.395 1.395 0 01-.323-.516c-.129-.258-.129-.516-.129-.774 0-1.097.903-2 2-2s2 .903 2 2-.903 2-2 2" transform="translate(2.5 2.5)"/></g></symbol><symbol id="text-1-round-24" viewBox="0 0 24 24"><g fill="currentColor" fill-rule="nonzero"><path d="M9 16c-3.86 0-7-3.14-7-7s3.14-7 7-7 7 3.14 7 7-3.14 7-7 7M9 0C4.038 0 0 4.038 0 9s4.038 9 9 9 9-4.038 9-9-4.038-9-9-9" transform="translate(3 3)"/><path d="M9.926 4.705H7.288v1.403h1.007v5.614h-1.15V13.1h3.968v-1.38H9.926z" transform="translate(3 3)"/></g></symbol><symbol id="text-2-round-24" viewBox="0 0 24 24"><g fill="currentColor" fill-rule="nonzero"><path d="M9 2C5.14 2 2 5.14 2 9s3.14 7 7 7 7-3.14 7-7-3.14-7-7-7m0 16c-4.962 0-9-4.038-9-9s4.038-9 9-9 9 4.038 9 9-4.038 9-9 9" transform="translate(3 3)"/><path d="M8.307 7.175H6.88c-.012-1.643.85-2.59 2.267-2.59 1.967 0 2.89 2.386 1.523 4.617L9.243 11.54h2.183v1.56h-4.63v-.384L9.279 8.53c.239-.408.515-.887.515-1.379 0-.684-.252-1.032-.72-1.032-.503 0-.767.361-.767 1.056" transform="translate(3 3)"/></g></symbol><symbol id="text-3-round-24" viewBox="0 0 24 24"><g fill="currentColor" fill-rule="nonzero"><path d="M9 2C5.14 2 2 5.14 2 9s3.14 7 7 7 7-3.14 7-7-3.14-7-7-7m0 16c-4.962 0-9-4.038-9-9s4.038-9 9-9 9 4.038 9 9-4.038 9-9 9" transform="translate(3 3)"/><path d="M8.083 10.641c.024.624.42 1.032.996 1.032.563 0 .947-.504.947-1.27-.024-1.345-1.115-1.536-1.991-1.345v-.252l1.188-2.674H6.872V4.704h4.545v.252L9.99 7.896c1.128.226 1.643 1.33 1.643 2.493 0 1.703-1.007 2.831-2.53 2.831-1.476 0-2.471-1.03-2.507-2.579h1.487z" transform="translate(3 3)"/></g></symbol><symbol id="tractor-24" viewBox="0 0 24 24"><g fill="none" fill-rule="evenodd"><path d="M0 0h24v24H0z"/><path d="M7.309 11.735a4.074 4.074 0 110 8.147 4.074 4.074 0 010-8.147zM15.8 0a3.235 3.235 0 013.226 2.988l.01.247L19.034 7h1.968v7.311a3.235 3.235 0 11-2-.89L19.003 9h-4.501l-3.05-5.883h-6.51v5.76a7.252 7.252 0 019.432 5.516l.04.237-1.975.307a5.251 5.251 0 00-9.678-1.91l-.119.207-1.754-.96A7.264 7.264 0 012.94 9.918l.001-8.801h9.726L15.717 7h1.318V3.235a1.236 1.236 0 00-1.094-1.227L15.8 2V0zM7.309 13.735a2.074 2.074 0 100 4.147 2.074 2.074 0 000-4.147zm11.456 1.677a1.235 1.235 0 100 2.47 1.235 1.235 0 000-2.47z" transform="translate(0 2)" fill="currentColor" fill-rule="nonzero"/></g></symbol><symbol id="trailer-24" viewBox="0 0 24 24"><g fill="none" fill-rule="evenodd"><path d="M0 0h24v24H0z"/><path d="M15 7H8.829a3.001 3.001 0 01-5.658.001L0 7V0h20v3h-2l-.001-1H15v5zM6 5a1 1 0 100 2 1 1 0 000-2zM2 2v3h1.17a3.001 3.001 0 015.66 0H13V2H2z" transform="translate(2 8)" fill="currentColor" fill-rule="nonzero"/></g></symbol><symbol id="trash-24" viewBox="0 0 24 24"><path d="M0 5l1 13h10l1-13H0zm2.174 2h7.652l-.666 9H2.84l-.666-9zM0 2v2h12V2zm4 0h4V0H4z" transform="translate(6 3)" fill="currentColor" fill-rule="nonzero"/></symbol><symbol id="travel-24" viewBox="0 0 24 24"><defs><path d="M17.664 11.26l3.599.752.102.563c.192 1.048-.227 1.95-1.158 2.568l-.11.072-4.377 1.248-2.819 3.044-4.168 1.326.628-2.51h-5.05L.313 14.656l4.433-1.291 1.991 1.114.872-.257-1.369-1.21 3.397-.996 3.295.638 4.732-1.393zm.07 1.752l-11.202 3.3-1.994-1.116-.85.248 1.285 1.18h4.014l.912-.448.04-.02.016.03 1.594.399-.426 1.703.835-.265 2.838-3.065 4.57-1.302c.11-.083.191-.165.247-.252l-1.878-.392zm-8.039.237l-1.032.303.304.27 1.462-.431-.734-.142zm3.75-4.087a1.428 1.428 0 110 2.856 1.428 1.428 0 010-2.856zm0 1a.428.428 0 100 .856.428.428 0 000-.856zm-4.33-4.344a2.297 2.297 0 110 4.594 2.297 2.297 0 010-4.594zM7.475 0c1.72 0 3.167 1.17 3.59 2.757a3.376 3.376 0 012.317 5.137l-1.69-1.07a1.375 1.375 0 00-1.163-2.11h-1.34v-1a1.714 1.714 0 00-3.429 0v1.003l-1.002-.003a1.37 1.37 0 00-1.373 1.372c0 .76.616 1.376 1.375 1.376h1.304v2H4.76a3.375 3.375 0 01-.894-6.629A3.716 3.716 0 017.475 0zm1.64 7.318a.797.797 0 100 1.594.797.797 0 000-1.594z" id="a"/></defs><g fill="none" fill-rule="evenodd"><path d="M0 0h24v24H0z"/><use fill="currentColor" fill-rule="nonzero" xlink:href="#a" transform="translate(.59 1.403)"/></g></symbol><symbol id="triangle-24" viewBox="0 0 24 24"><path d="M2.5 3.837v10.335l8.15-5.168L2.5 3.837zM.5.2l13.886 8.804L.5 17.808V.2z" transform="translate(5.5 3)" fill="currentColor" fill-rule="nonzero"/></symbol><symbol id="umbrella-24" viewBox="0 0 24 24"><path d="M9 7.814a5.007 5.007 0 00-3.5-1.443c-1.438 0-2.438.473-3.11.957a2.58 2.58 0 01.221-.58c.972-2.02 4.002-3.413 6.343-3.413 2.32 0 5.386 1.402 6.395 3.396.111.2.21.4.3.597-.727-.58-2-.957-3.149-.957A5.007 5.007 0 009 7.814zM10 0H8v1.4c-3.937.482-8 3.902-8 8.042a1 1 0 001.871.492c.536-.95 2.568-1.563 3.629-1.563 1.022 0 1.932.525 2.5 1.39V17c0 .292-.224.53-.5.53S7 17.292 7 17H5c0 1.394 1.122 2.53 2.5 2.53 1.325 0 2.402-1.053 2.484-2.374L10 9.737c.562-.834 1.516-1.366 2.5-1.366 1.094 0 3.077.584 3.629 1.562A1.001 1.001 0 0018 9.442c0-4.112-4.057-7.51-8-8.03V0z" transform="translate(3 2)" fill="currentColor" fill-rule="nonzero"/></symbol><symbol id="user-24" viewBox="0 0 24 24"><defs><path d="M8.723 3.51a8.7 8.7 0 016.418 2.816L13.67 7.68a6.723 6.723 0 101.512 2.681H10.01c-2.159 0-4.47-1.245-5.125-3.032l1.878-.688c.33.899 1.854 1.72 3.247 1.72h6.56l.253.628a8.723 8.723 0 11-8.1-5.48zm1.808 11.474l1.299 1.52c-.886.757-1.972 1.177-3.118 1.177-1.134 0-2.21-.412-3.09-1.154l1.288-1.53c.528.446 1.151.684 1.802.684.658 0 1.287-.243 1.819-.697zm1-4.203c1.19 0 2.154.965 2.154 2.154h-1.5a.654.654 0 10-1.308 0h-1.5c0-1.19.965-2.154 2.154-2.154zm-5.616 0c1.19 0 2.154.965 2.154 2.154h-1.5a.654.654 0 10-1.309 0h-1.5c0-1.19.965-2.154 2.155-2.154zm13.552-5.743l.81 1.828-2.695 1.195-.811-1.828 2.696-1.195zm-2.298-2.664l1.362 1.464-2.078 1.935-1.362-1.464 2.078-1.935zM14.143.56l1.774.925L14.552 4.1l-1.773-.925L14.143.56z" id="a"/></defs><g fill="none" fill-rule="evenodd"><path d="M0 0h24v24H0z"/><use fill="currentColor" fill-rule="nonzero" xlink:href="#a" transform="translate(2 1)"/></g></symbol><symbol id="user-happy-24" viewBox="0 0 24 24"><defs><path d="M9.994 0a9.968 9.968 0 017.353 3.226L15.876 4.58a7.994 7.994 0 101.763 3.07l-6.146-.001c-2.451 0-5.078-1.415-5.814-3.423l1.878-.688c.41 1.12 2.25 2.11 3.936 2.11h7.529l.252.629a9.969 9.969 0 01.714 3.716c0 5.52-4.475 9.994-9.994 9.994C4.474 19.988 0 15.513 0 9.994 0 4.474 4.474 0 9.994 0zm3.01 12.989l1.418 1.41a6.229 6.229 0 01-4.428 1.841 6.229 6.229 0 01-4.422-1.834l1.416-1.413a4.23 4.23 0 003.006 1.247 4.23 4.23 0 003.01-1.251zm-.012-4.739a2.249 2.249 0 012.249 2.249h-1.5a.749.749 0 10-1.498 0h-1.5a2.249 2.249 0 012.249-2.249zm-5.996 0a2.249 2.249 0 012.249 2.249h-1.5a.749.749 0 10-1.498 0h-1.5A2.249 2.249 0 016.996 8.25z" id="a"/></defs><g fill="none" fill-rule="evenodd"><path d="M0 0h24v24H0z"/><use fill="currentColor" fill-rule="nonzero" xlink:href="#a" transform="translate(2 2)"/></g></symbol><symbol id="wallet-24" viewBox="0 0 24 24"><path d="M19 6h-1V3H3v2h13v1h-2v2h3v2h-3v2h2v2H2.89a.89.89 0 01-.89-.89V2.89A.89.89 0 012.89 2H16V0H2.89A2.893 2.893 0 000 2.89v10.22A2.893 2.893 0 002.89 16H18v-4h1V6z" transform="translate(3 4)" fill="currentColor" fill-rule="nonzero"/></symbol><symbol id="wallet-minus-24" viewBox="0 0 24 24"><g fill="currentColor" fill-rule="nonzero"><path d="M2 13c0-2.206 1.794-4 4-4s4 1.794 4 4-1.794 4-4 4-4-1.794-4-4zm19-7h-1V3H6v2h12v1h-1v2h2v2h-2v2h1v1h-6c0-3.309-2.691-6-6-6-.341 0-.674.035-1 .09v-4.2A.89.89 0 015.89 2H18V0H5.89A2.893 2.893 0 003 2.89v4.922A5.999 5.999 0 000 13c0 3.309 2.691 6 6 6 2.607 0 4.824-1.673 5.65-4H20v-3h1V6z" transform="translate(1 3)"/><path d="M3 12v2h6v-2z" transform="translate(1 3)"/></g></symbol><symbol id="wallet-plus-24" viewBox="0 0 24 24"><g fill="currentColor" fill-rule="nonzero"><path d="M2 13c0-2.206 1.794-4 4-4s4 1.794 4 4-1.794 4-4 4-4-1.794-4-4zm19-7h-1V3H6v2h12v1h-1v2h2v2h-2v2h1v1h-6c0-3.309-2.691-6-6-6-.341 0-.674.035-1 .09v-4.2A.89.89 0 015.89 2H18V0H5.89A2.893 2.893 0 003 2.89v4.922A5.999 5.999 0 000 13c0 3.309 2.691 6 6 6 2.607 0 4.824-1.673 5.65-4H20v-3h1V6z" transform="translate(1 3)"/><path d="M7 10H5v2H3v2h2v2h2v-2h2v-2H7z" transform="translate(1 3)"/></g></symbol></svg>