<?xml version="1.0" encoding="utf-8"?><svg xmlns="http://www.w3.org/2000/svg" xmlns:xlink="http://www.w3.org/1999/xlink"><symbol viewBox="0 0 20 20" id="bankid-mc-20" xmlns="http://www.w3.org/2000/svg"><g fill="none"><path d="M7.21 10.557L8 5.694h-.844c-.396 0-.905-.216-1.054-.613-.048-.135-.162-.596.49-1.046.234-.158.384-.334.414-.468a.357.357 0 00-.108-.357C6.754 3.076 6.473 3 6.114 3c-.605 0-1.03.339-1.072.584-.03.182.114.328.24.421.377.275.467.672.233 1.047-.24.385-.76.637-1.317.642h-.863C3.263 6.168 2.09 13.427 2 14h4.677c.042-.257.257-1.63.55-3.443H7.21z" fill="#479CBE"/><path d="M12.36 1H7.63L7 5.07h.803c.44 0 .857-.206 1.035-.503a.491.491 0 00.084-.26c0-.169-.113-.296-.227-.38-.309-.236-.374-.484-.374-.66 0-.036 0-.066.006-.096.065-.43.636-.895 1.392-.895.452 0 .797.109 1.005.308a.718.718 0 01.202.683c-.065.309-.368.563-.541.69-.458.326-.399.61-.369.695.095.254.458.417.738.417h1.22v.006c1.665.012 2.558.792 2.278 2.606-.262 1.687-1.535 2.413-3.052 2.425L10.6 14h.886c3.742 0 6.8-2.443 7.4-6.3C19.63 2.91 16.643 1 12.36 1z" fill="#00A5C3"/><path d="M12.36 1H7.63L7 5.07h.803c.44 0 .857-.206 1.035-.503a.491.491 0 00.084-.26c0-.169-.113-.296-.227-.38-.309-.236-.374-.484-.374-.66 0-.036 0-.066.006-.096.065-.43.636-.895 1.392-.895.452 0 .797.109 1.005.308a.718.718 0 01.202.683c-.065.309-.368.563-.541.69-.458.326-.399.61-.369.695.095.254.458.417.738.417h1.22v.006c1.665.012 2.558.792 2.278 2.606-.262 1.687-1.535 2.413-3.052 2.425L10.6 14h.886c3.742 0 6.8-2.443 7.4-6.3C19.63 2.91 16.643 1 12.36 1zM1.501 15.012H3.34c.784 0 .974.42.917.805-.047.31-.248.542-.594.695.438.177.61.45.547.884-.08.542-.524.945-1.106.945H1.012l.49-3.329zm1.216 1.378c.357 0 .524-.201.559-.439.035-.256-.075-.433-.432-.433h-.317l-.127.872h.317zm-.196 1.439c.369 0 .582-.159.634-.482.04-.28-.11-.445-.467-.445h-.363l-.138.933h.334v-.006zm4.264.536c-.478.037-.709-.018-.824-.238a1.51 1.51 0 01-.835.25c-.542 0-.732-.298-.68-.628a.754.754 0 01.248-.439c.3-.274 1.037-.31 1.325-.518.023-.231-.064-.317-.334-.317-.317 0-.582.11-1.038.44l.11-.757c.392-.298.772-.439 1.21-.439.559 0 1.054.244.962.89l-.11.732c-.04.256-.028.335.243.341l-.277.683zm-.83-1.146c-.253.17-.726.14-.777.494-.024.164.074.286.23.286.15 0 .334-.067.484-.177a.706.706 0 01.012-.237l.051-.366zm1.723-1.457h.957l-.052.335c.305-.274.536-.378.835-.378.536 0 .784.348.698.915l-.248 1.7H8.91l.208-1.408c.04-.256-.035-.378-.22-.378-.149 0-.287.086-.42.275l-.219 1.505h-.956l.374-2.566zm3.181-.75h.956l-.242 1.634.917-.884h1.18l-1.175 1.097.945 1.476h-1.204l-.726-1.19h-.01l-.173 1.19h-.957z" fill="#235971"/><path d="M14.465 15.012h.999l-.44 3.383h-.998zm1.485 0h1.427c1.103 0 1.422.95 1.317 1.738-.1.77-.612 1.645-1.579 1.645h-1.61l.445-3.383zm.925 2.576c.486 0 .753-.285.831-.887.058-.447-.057-.888-.596-.888h-.266l-.23 1.775h.26z" fill="#479CBE"/></g></symbol><symbol viewBox="0 0 20 20" id="car-damaged-20" xmlns="http://www.w3.org/2000/svg"><g transform="translate(0 1)" fill="none" fill-rule="evenodd"><path d="M3 9.066l.992-3.094 1.524-2.997a.697.697 0 01.063-.063c.111-.1.28-.209.525-.32C6.908 2.23 8.18 2.002 10 2c1.819-.001 3.09.228 3.894.591.246.111.415.22.527.321a.59.59 0 01.063.063l1.519 2.988L17 9.07V15h2V8.758l-1.142-3.559-1.631-3.21C15.882 1.39 14.623-.003 9.999 0 5.375.003 4.12 1.387 3.774 1.988l-1.638 3.22L1 8.754V15h2V9.066z" fill="#005AA0" fill-rule="nonzero"/><path fill="#E30613" fill-rule="nonzero" d="M11.919 5.456l-1.495 1.547H6v-2h3.576l2.255-2.334 2.843 2.595-1.348 1.477z"/><path fill="#005AA0" fill-rule="nonzero" d="M2 16.003v-2h16v2zm0-3v-2h10v2z"/><path fill="#E30613" fill-rule="nonzero" d="M13 13.003v-2h3v2z"/><path d="M1 7a1 1 0 110-2h1.5a1 1 0 110 2H1zm16.5 0a1 1 0 010-2H19a1 1 0 010 2h-1.5z" fill="#005AA0" fill-rule="nonzero"/><circle fill="#005AA0" cx="5.5" cy="8.75" r="1.25"/><circle fill="#005AA0" cx="14.5" cy="8.75" r="1.25"/><path d="M17 17.5a1 1 0 01-1-1v-2h3v2a1 1 0 01-1 1h-1zm-15 0a1 1 0 01-1-1v-2h3v2a1 1 0 01-1 1H2z" fill="#005AA0" fill-rule="nonzero"/></g></symbol><symbol viewBox="0 0 20 20" id="car-multicolor-20" xmlns="http://www.w3.org/2000/svg"><g transform="translate(0 1)" fill="none" fill-rule="evenodd"><path d="M3 9.066l.992-3.094 1.524-2.997a.697.697 0 01.063-.063c.111-.1.28-.209.525-.32C6.908 2.23 8.18 2.002 10 2c1.819-.001 3.09.228 3.894.591.246.111.415.22.527.321a.59.59 0 01.063.063l1.519 2.988L17 9.07V15h2V8.758l-1.142-3.559-1.631-3.21C15.882 1.39 14.623-.003 9.999 0 5.375.003 4.12 1.387 3.774 1.988l-1.638 3.22L1 8.754V15h2V9.066z" fill="#005AA0" fill-rule="nonzero"/><path fill="#005AA0" fill-rule="nonzero" d="M11.978 5.003l-.396-.916 1.836-.794 1.604 3.71H6v-2zM2 16.003v-2h16v2zm0-3v-2h5v2zm11 0v-2h5v2z"/><path fill="#E30613" fill-rule="nonzero" d="M8 13.003v-2h4v2z"/><path d="M1 7a1 1 0 110-2h1.5a1 1 0 110 2H1zm16.5 0a1 1 0 010-2H19a1 1 0 010 2h-1.5z" fill="#005AA0" fill-rule="nonzero"/><circle fill="#005AA0" cx="5.5" cy="8.75" r="1.25"/><circle fill="#005AA0" cx="14.5" cy="8.75" r="1.25"/><path d="M17 17.5a1 1 0 01-1-1v-2h3v2a1 1 0 01-1 1h-1zm-15 0a1 1 0 01-1-1v-2h3v2a1 1 0 01-1 1H2z" fill="#005AA0" fill-rule="nonzero"/></g></symbol><symbol viewBox="0 0 19 19" id="special_globe-20" xmlns="http://www.w3.org/2000/svg"><defs><linearGradient x1="50%" y1="0%" x2="50%" y2="80.758%" id="da"><stop stop-color="#0578B5" offset="0%"/><stop stop-color="#FFF" offset="100%"/></linearGradient></defs><g fill="none" fill-rule="evenodd"><path d="M0 0h20v20H0z"/><g transform="translate(.75 .717)"><circle fill="url(#da)" cx="9" cy="9.033" r="9"/><circle stroke="#035F8C" cx="9" cy="9.033" r="7"/><path d="M2 9.033h14m-7-7v14m0 0c-2.31-1.36-3.464-3.694-3.464-7 0-3.307 1.155-5.64 3.464-7m0 14c2.31-1.36 3.464-3.694 3.464-7 0-3.307-1.155-5.64-3.464-7" stroke="#035F8C"/><path d="M3.487 13.28c1.36-1.132 3.198-1.697 5.513-1.697 2.357 0 4.22.586 5.588 1.76M3.438 4.758C4.803 5.918 6.658 6.497 9 6.497c2.383 0 4.26-.6 5.632-1.8" stroke="#035F8C"/></g></g></symbol><symbol viewBox="0 0 14 13" id="special_star-20" xmlns="http://www.w3.org/2000/svg"><path d="M7 10.362l-4.114 2.151.785-4.556L.343 4.73l4.6-.665L7-.08l2.057 4.145 4.6.665-3.328 3.227.785 4.556z" fill="currentColor"/></symbol></svg>