<?xml version="1.0" encoding="utf-8"?><svg xmlns="http://www.w3.org/2000/svg" xmlns:xlink="http://www.w3.org/1999/xlink"><symbol viewBox="0 0 32 32" id="bankid-mc-32" xmlns="http://www.w3.org/2000/svg"><g fill="none" fill-rule="evenodd"><path d="M0 0h32v32H0z"/><g fill-rule="nonzero"><path d="M10.861 16.841l1.128-7.408h-1.205c-.564 0-1.29-.33-1.504-.935-.068-.205-.23-.909.701-1.594.333-.24.547-.508.59-.713a.568.568 0 00-.154-.543c-.205-.205-.607-.32-1.12-.32-.863 0-1.47.516-1.53.89-.042.276.163.499.343.641.538.419.666 1.024.333 1.594-.342.588-1.085.97-1.88.98h-1.23c-.103.72-1.778 11.78-1.906 12.653h6.674c.06-.392.367-2.484.786-5.245h-.026z" fill="#479CBE"/><path d="M20.063 3h-7.124l-.95 5.974h1.21c.663 0 1.29-.301 1.559-.736a.708.708 0 00.125-.382c0-.249-.17-.435-.34-.56-.466-.346-.565-.71-.565-.967 0-.053 0-.098.01-.142.098-.63.958-1.314 2.096-1.314.681 0 1.201.16 1.515.453.277.257.385.621.304 1.003-.098.453-.555.826-.815 1.012-.69.48-.6.897-.556 1.02.144.374.69.613 1.111.613h1.837v.01c2.51.017 3.854 1.162 3.433 3.825-.395 2.477-2.312 3.542-4.597 3.56l-.906 5.717h1.336c5.636 0 10.242-3.586 11.147-9.25C31.013 5.806 26.515 3 20.063 3z" fill="#00A5C3"/><path d="M20.063 3h-7.124l-.95 5.974h1.21c.663 0 1.29-.301 1.559-.736a.708.708 0 00.125-.382c0-.249-.17-.435-.34-.56-.466-.346-.565-.71-.565-.967 0-.053 0-.098.01-.142.098-.63.958-1.314 2.096-1.314.681 0 1.201.16 1.515.453.277.257.385.621.304 1.003-.098.453-.555.826-.815 1.012-.69.48-.6.897-.556 1.02.144.374.69.613 1.111.613h1.837v.01c2.51.017 3.854 1.162 3.433 3.825-.395 2.477-2.312 3.542-4.597 3.56l-.906 5.717h1.336c5.636 0 10.242-3.586 11.147-9.25C31.013 5.806 26.515 3 20.063 3zM2.771 23.967H5.6c1.206 0 1.498.63 1.41 1.207-.071.466-.382.813-.913 1.042.673.265.94.677.842 1.326-.124.814-.807 1.417-1.702 1.417H2.018l.753-4.992zm1.87 2.066c.55 0 .807-.302.86-.658.054-.384-.115-.65-.664-.65h-.488l-.195 1.308h.488zm-.3 2.158c.567 0 .895-.238.974-.722.062-.42-.168-.668-.718-.668H4.04l-.213 1.4h.514v-.01zm6.559.805c-.736.055-1.09-.028-1.267-.357-.39.247-.825.375-1.286.375-.833 0-1.126-.448-1.046-.942.036-.237.169-.466.381-.658.461-.412 1.596-.466 2.04-.777.035-.348-.098-.476-.515-.476-.488 0-.895.165-1.596.659l.169-1.134c.603-.448 1.188-.659 1.861-.659.86 0 1.623.366 1.48 1.335l-.168 1.098c-.062.384-.044.503.373.512l-.426 1.024zm-1.276-1.72c-.39.257-1.117.211-1.197.741-.036.247.115.43.355.43.23 0 .514-.1.744-.265-.018-.091-.009-.183.018-.357l.08-.548zm2.65-2.185h1.472l-.08.503c.47-.411.824-.567 1.285-.567.825 0 1.206.521 1.073 1.372l-.381 2.551H14.17l.32-2.112c.061-.384-.054-.567-.337-.567-.23 0-.444.128-.648.411l-.336 2.259h-1.472l.576-3.85zm4.894-1.124h1.471l-.372 2.45 1.41-1.326h1.817l-1.809 1.646 1.454 2.213h-1.853l-1.117-1.783h-.017l-.266 1.783h-1.472z" fill="#235971"/><path d="M22.722 23.967h1.598l-.703 5.074H22.02zm2.376 0h2.283c1.765 0 2.275 1.424 2.107 2.607-.158 1.154-.978 2.467-2.525 2.467h-2.576l.71-5.074zm1.48 3.864c.778 0 1.204-.429 1.33-1.332.092-.67-.092-1.331-.954-1.331h-.426l-.368 2.663h.418z" fill="#479CBE"/></g></g></symbol><symbol viewBox="0 0 32 32" id="car-damaged-multicolor-32" xmlns="http://www.w3.org/2000/svg"><g fill="none"><path d="M6 16.5c0-.827.673-1.5 1.5-1.5s1.5.673 1.5 1.5S8.327 18 7.5 18 6 17.327 6 16.5zm17 0c0-.827.673-1.5 1.5-1.5s1.5.673 1.5 1.5-.673 1.5-1.5 1.5-1.5-.673-1.5-1.5z" fill="#005AA0"/><path d="M30 14c0 .025-.333.033-.778.033C28.333 14.033 27 14 27 14l1.044 4L28 23h-1v3h-2v-3H7v3H5v-3H4v-2h14v-2H4v-1l1-4s-1.333.033-2.222.033C2.333 14.033 2 14.025 2 14v-1c0-.968 4-1 4-1l2-4s1.687-1.996 8-2c6.406 0 8 2 8 2l2 4s4 .032 4 1v1zm-4.336-7c-.57-.813-3.039-3-9.664-3-6.625.004-9.38 2.344-9.768 3l-1.315 3.019C2.75 10.089 0 10.661 0 13v1c0 .672.45 1.961 2.147 2.025.08.003.176.005.284.006l-.37 1.484-.06.239V23c0 .746.407 1.396 1.012 1.74L3 26a2 2 0 002 2h2a2 2 0 002-2v-1h14v1a2 2 0 002 2h2a2 2 0 002-2l.016-1.276A2 2 0 0030 23v-2c0-.04-.01-.078-.012-.118L30 19.013v-1.264l-.05-.254-.38-1.464c.107-.001.203-.003.283-.006C31.551 15.961 32 14.672 32 14v-1c0-2.339-2.684-2.91-4.917-2.981L25.664 7z" fill="#005AA0"/><path fill="#E30613" d="M22.025 7.664L24.59 13H9v-2h12.41l-.56-1.164-3.312.437-1.622-2.249 1.623-1.17.923 1.28zM20 21v-2h4.414l2.266 2.258-1.414 1.414L23.586 21z"/></g></symbol><symbol viewBox="0 0 32 32" id="car-multicolor-32" xmlns="http://www.w3.org/2000/svg"><g fill="none"><path d="M6 16.5c0-.827.673-1.5 1.5-1.5s1.5.673 1.5 1.5S8.327 18 7.5 18 6 17.327 6 16.5zm17 0c0-.827.673-1.5 1.5-1.5s1.5.673 1.5 1.5-.673 1.5-1.5 1.5-1.5-.673-1.5-1.5zM9 11.027v2h15.658l-2.655-5.246-1.784.903 1.185 2.343z" fill="#005AA0"/><path d="M30 14c0 .025-.333.033-.778.033C28.333 14.033 27 14 27 14l1.044 4L28 19h-6v2h6v2h-1v3h-2v-3H7v3H5v-3H4v-2h6v-2H4v-1l1-4s-1.333.033-2.222.033C2.333 14.033 2 14.025 2 14v-1c0-.968 4-1 4-1l2-4s1.687-1.996 8-2c6.406 0 8 2 8 2l2 4s4 .032 4 1v1zm-4.336-7c-.57-.813-3.039-3-9.664-3-6.625.004-9.38 2.344-9.768 3l-1.315 3.019C2.75 10.089 0 10.661 0 13v1c0 .672.45 1.961 2.147 2.025.08.003.176.005.284.006l-.37 1.484-.06.239V23c0 .746.407 1.396 1.012 1.74L3 26a2 2 0 002 2h2a2 2 0 002-2v-1h14v1a2 2 0 002 2h2a2 2 0 002-2l.016-1.276A2 2 0 0030 23v-2c0-.04-.01-.078-.012-.118L30 19.013v-1.264l-.05-.254-.38-1.464c.107-.001.203-.003.283-.006C31.551 15.961 32 14.672 32 14v-1c0-2.339-2.684-2.91-4.917-2.981L25.664 7z" fill="#005AA0"/><path fill="#E30613" d="M12.5 21h7v-2h-7z"/></g></symbol><symbol viewBox="0 0 32 32" id="card-multicolor-32" xmlns="http://www.w3.org/2000/svg"><g fill="none"><path d="M26.004 23c.619 0 1.024-.397.99-.91l.002-12.252c.03-.412-.416-.838-.992-.838H6.015C5.476 9 5 9.451 5 9.91v12.18c0 .459.476.91 1.015.91h19.989zM3 22.09V9.91C3 8.321 4.395 7 6.015 7h19.989c1.687 0 3.104 1.354 2.99 2.91l-.003 12.11c.118 1.642-1.248 2.98-2.987 2.98H6.015C4.395 25 3 23.678 3 22.09z" fill="#005AA0"/><path fill="#005AA0" d="M28.039 12H4.216v2h23.823z"/><path fill="#E30613" d="M8 18h6v-2H8z"/></g></symbol><symbol viewBox="0 0 32 32" id="damage-multicolor-32" xmlns="http://www.w3.org/2000/svg"><g fill="none"><path fill="#005AA0" d="M25 6H7v20h3.01v2H5V4h22v24h-8.97v-2H25z"/><path fill="#005AA0" d="M16.087 18.947L14.66 22.6 19 24.127V27h2v-4.29l-3.725-1.31 1.362-3.484-4.38-2.009L11.67 17H6.826v2h5.25l2.148-.907zM22 10h-4.4l-1.033-1.983-2-.523-.089-2.546-1.998.07.14 4.034 2.583.676L16.388 12H20v2.8l5.33 4.002 1.202-1.6L22 13.8z"/><path fill="#E30613" d="M12 28h4v-2h-4z"/></g></symbol><symbol viewBox="0 0 32 32" id="house-multicolor-32" xmlns="http://www.w3.org/2000/svg"><g fill="none"><path fill="#005AA0" d="M30.392 16.265l1.216-1.588L16.004 2.74.393 14.676l1.214 1.59L16.004 5.258z"/><path fill="#E30613" d="M18.392 12.088l1.216-1.588L16 7.74l-3.607 2.76 1.214 1.589 2.394-1.83z"/><path fill="#005AA0" d="M14 19h4v8h2V17h-8v10h2zM4 12v15h2V12zm22 0v15h2V12z"/></g></symbol><symbol viewBox="0 0 32 32" id="loan-multicolor-32" xmlns="http://www.w3.org/2000/svg"><g fill="none"><path fill="#005AA0" d="M24.964 9.653l1.955-.423-1.387-6.411-13.324 2.776.408 1.958L23.997 5.18z"/><path fill="#005AA0" d="M8.62 6.731l17.241 3.7-1.869 8.922-8.5-1.845-.425 1.955 10.47 2.272 2.69-12.842-21.14-4.536-2.778 12.846 3.858.791.402-1.959-1.878-.385z"/><path d="M19.103 25.838c0-.859-.715-1.573-1.574-1.573-.859 0-1.573.714-1.573 1.573 0 .35.013.455.06.55l.055.13a.97.97 0 00.225.33c.325.379.72.564 1.233.564.86 0 1.574-.715 1.574-1.574zm-5.147 0a3.586 3.586 0 013.573-3.573 3.586 3.586 0 013.574 3.573 3.586 3.586 0 01-3.574 3.574c-1.102 0-2.05-.444-2.7-1.206a2.818 2.818 0 01-.631-.985c-.204-.429-.242-.764-.242-1.383z" fill="#E30613"/><path d="M12.412 21.985a4.309 4.309 0 110-8.617 4.309 4.309 0 010 8.617zm0-2a2.309 2.309 0 100-4.617 2.309 2.309 0 000 4.617z" fill="#005AA0"/></g></symbol><symbol viewBox="0 0 32 32" id="moose-multicolor-32" xmlns="http://www.w3.org/2000/svg"><g fill="none" fill-rule="evenodd"><path d="M28.807 14.207l-.023-.02a2.612 2.612 0 00-1.736-.635c-.11 0-.22.005-.335.018.189-.191.412-.415.682-.68l.11-.11c1.075-1.066 1.694-1.733 2.09-2.428l.043-.073c.15-.259.609-1.047.198-2.006-.271-.634-.79-1.046-1.54-1.225l-.052-.013-.24-.059-.295-.006c-.65 0-1.54.226-3.196 1.9-.123.124-.25.255-.385.398l.052-.197c.684-2.595.84-3.34.682-4.106C24.622 3.809 23.614 3 22.407 3c-.517 0-1.04.154-1.514.446-.62.38-.86.978-1 1.456-.113.391-.187.826-.267 1.4l-.055.403-.024.174a25.08 25.08 0 01-.086.588c-.071.455-.144.826-.228 1.168-.351 1.412-.883 2.13-1.401 2.545a4.945 4.945 0 00-1.812-.35c-.484 0-.96.094-1.428.24l.503 1.923c.315-.107.624-.164.925-.164.39 0 .769.083 1.13.231.202.083.34.161.4.203l.31.22.337-.174c1.59-.816 2.49-2.228 2.976-4.194.104-.414.187-.846.264-1.34.03-.19.058-.382.09-.622l.08-.573c.077-.55.135-.87.207-1.118.06-.21.117-.308.126-.314A.904.904 0 0122.407 5c.268 0 .455.168.496.368.064.314-.098 1.07-.658 3.196l-.067.255c-.65 2.488-.826 3.53-.471 4.221.158.304.413.437.688.437.157 0 .32-.044.477-.124.213-.109.44-.292.719-.563.21-.206.446-.454.776-.816.048-.054.672-.745.863-.953.263-.287.489-.526.704-.744.855-.864 1.499-1.306 1.775-1.306.019 0 .035.002.049.006.312.078.3.037.102.382-.26.456-.745.994-1.762 2l-.11.11c-1.216 1.203-1.626 1.639-1.988 2.188-.637.97-.52 1.886.612 2.196.174.048.33.072.496.072.292 0 .615-.072 1.123-.213l.217-.059c.255-.066.447-.1.6-.1a.61.61 0 01.442.16l.049.042a.512.512 0 01.073.085c.156.217.156.464-.19.896-.65.692-1.5 1.022-2.408 1.022-1.403 0-2.945-.791-4.094-2.266l-.028.022-.008-.01-1.004.746c.29.392.449.889.488 1.478.042.655-.067 1.378-.277 2.098a7.627 7.627 0 01-.28.8l-.055.122v4.51l.004.066c.003.058-.051.212-.268.407-.521.468-1.627.779-3.49.779-1.863 0-2.97-.311-3.49-.779-.218-.195-.271-.35-.268-.407l.002-.066v-4.51l-.053-.122a7.611 7.611 0 01-.281-.8c-.21-.72-.318-1.443-.276-2.098.038-.59.196-1.086.487-1.478l-1.003-.746c-.003.002-.005.006-.008.01l-.03-.022c-1.147 1.475-2.69 2.266-4.093 2.266-.908 0-1.758-.33-2.408-1.022-.345-.431-.345-.678-.19-.896a.572.572 0 01.073-.085l.05-.041a.602.602 0 01.44-.161c.155 0 .347.034.6.1.062.016.115.03.219.06.507.14.83.212 1.123.212.166 0 .322-.023.496-.071 1.13-.31 1.249-1.227.61-2.196-.36-.55-.77-.986-1.987-2.19l-.11-.108c-1.016-1.006-1.501-1.544-1.762-2-.197-.345-.21-.304.102-.382a.188.188 0 01.049-.006c.277 0 .92.443 1.776 1.306.215.218.44.457.704.744.19.208.814.899.863.953.329.362.565.61.775.816.28.27.506.454.719.563.156.08.32.124.479.124.274 0 .529-.133.686-.437.355-.69.18-1.728-.466-4.2l-1.955.429c-.134-.143-.26-.274-.384-.398-1.657-1.674-2.545-1.9-3.197-1.9h-.246l-.287.065-.055.013c-.75.179-1.267.59-1.54 1.225-.41.959.049 1.747.2 2.006l.042.072c.397.695 1.015 1.363 2.09 2.428l.11.11c.27.266.494.489.682.68a3.204 3.204 0 00-.335-.018c-.655 0-1.253.219-1.736.636l-.023.019a2.535 2.535 0 00-.432.469c-.264.368-1.031 1.704.257 3.31l.05.061.053.057c1 1.067 2.374 1.653 3.865 1.653.918 0 1.845-.223 2.722-.637a9.878 9.878 0 00.528 2.005c.003.008.006.015.007.022v4.072c-.032.73.299 1.434.93 2 .967.868 2.546 1.29 4.826 1.29s3.858-.422 4.826-1.29c.63-.567.96-1.271.93-1.983l-.002-.03v-4.06a10.048 10.048 0 00.535-2.027c.878.415 1.806.638 2.723.638 1.49 0 2.864-.586 3.865-1.652l.054-.057.05-.062c1.288-1.606.52-2.941.255-3.312a2.429 2.429 0 00-.431-.467" fill="#005AA0"/><path d="M13 17a1.001 1.001 0 012 0 1.001 1.001 0 01-2 0zm4 0a1.001 1.001 0 012 0 1.001 1.001 0 01-2 0z" fill="#005AA0" fill-rule="nonzero"/><path d="M9.496 7.553c-.345-1.36-.448-1.928-.396-2.186.042-.199.228-.367.497-.367.136 0 .295.044.465.15.01.005.067.102.127.313.073.247.13.568.207 1.117l.08.573c.033.24.06.432.09.623.077.494.16.925.264 1.34.392 1.583 1.06 2.802 2.135 3.645l1.1-1.675c-.484-.426-.967-1.135-1.294-2.45a13.356 13.356 0 01-.229-1.17c-.028-.18-.055-.36-.086-.587l-.022-.16-.057-.416c-.08-.574-.152-1.008-.267-1.399-.14-.48-.38-1.08-1.005-1.462A2.893 2.893 0 009.597 3C8.39 3 7.38 3.807 7.142 4.964c-.133.647-.04 1.29.402 3.027l1.952-.438z" fill="#E30613"/></g></symbol><symbol viewBox="0 0 32 32" id="offer-multicolor-32" xmlns="http://www.w3.org/2000/svg"><g fill="none"><path fill="#E30613" d="M14 19v6h2v-6z"/><path fill="#005AA0" d="M8 19v6h2v-6z"/><path fill="#005AA0" d="M4 26.009V13h13v-2H2v17.009h20V16.055h-2v9.954z"/><path d="M8 13V8h8v5H8zm6-2v-1h-4v1h4zm-6.37 5.001l-1.323-2.078-1.687 1.074L6.532 18H17v-2zM24.913 8.92l-1.085-2.438-1.064 2.44-2.647-.285 1.582 2.147-1.567 2.155 2.652-.29 1.086 2.436 1.063-2.44 2.647.285L26 10.784l1.566-2.156-2.652.292zm6.393-2.463l-3.139 4.32 3.183 4.32-5.326-.574-2.137 4.902-2.182-4.898-5.313.584 3.138-4.32-3.183-4.32 5.326.574 2.137-4.902 2.182 4.898 5.314-.584z" fill="#005AA0"/></g></symbol><symbol viewBox="0 0 32 32" id="save-multicolor-32" xmlns="http://www.w3.org/2000/svg"><g fill="none"><path d="M13.11 5.005c.14-.426.378-.819.703-1.147a2.872 2.872 0 014.094 0c.326.329.564.723.705 1.151l2.063.012a4.934 4.934 0 00-1.347-2.57 4.872 4.872 0 00-6.936 0 4.934 4.934 0 00-1.342 2.544l2.06.01z" fill="#E30613"/><path d="M26.125 16.079c0 2.548-.92 4.953-2.549 6.825l.83 6.096h-5.54l-1.035-2.762a10.148 10.148 0 01-3.928 0L12.87 29H7.33l.829-6.096a10.365 10.365 0 01-2.549-6.825c0-1.77.442-3.478 1.27-4.993L5.652 5.445l5.982 1.205a10.138 10.138 0 014.234-.923c1.479 0 2.915.318 4.234.923l5.982-1.205-1.229 5.64a10.38 10.38 0 011.27 4.994zm-4.658 6.153l.333-.348a8.366 8.366 0 002.325-5.805 8.376 8.376 0 00-1.188-4.317l-.203-.34.743-3.412-3.646.735-.307-.155a8.14 8.14 0 00-3.657-.863 8.14 8.14 0 00-3.657.863l-.307.155-3.646-.735L9 11.422l-.203.34a8.378 8.378 0 00-1.188 4.317c0 2.196.843 4.256 2.325 5.805l.333.348L9.62 27h1.863l1.186-3.165.892.262a8.173 8.173 0 004.614 0l.892-.262L20.252 27h1.863l-.648-4.768z" fill="#005AA0"/><path d="M17.98 18.546c0-1.19-.952-2.152-2.12-2.152-1.168 0-2.12.961-2.12 2.152 0 1.19.951 2.151 2.12 2.151s2.12-.961 2.12-2.151zm2 0c0 2.29-1.842 4.151-4.12 4.151s-4.12-1.86-4.12-4.151c0-2.29 1.842-4.152 4.12-4.152s4.12 1.861 4.12 4.152zm-7.02-5.122c0-.102.078-.182.17-.182.092 0 .17.08.17.182h2c0-1.202-.97-2.182-2.17-2.182s-2.17.98-2.17 2.182h2zm5.46 0c0-.102.078-.182.17-.182.092 0 .17.08.17.182h2c0-1.202-.97-2.182-2.17-2.182s-2.17.98-2.17 2.182h2z" fill="#005AA0"/></g></symbol><symbol viewBox="0 0 32 32" id="travel-multicolor-32" xmlns="http://www.w3.org/2000/svg"><g fill="none"><path d="M13.463 27.146l-.617.17-8.192-.931-4.452-4.182 5.815-1.637 2.82 1.518 2.054-.6 14.976-4.376 5.131 1.103.167.572a3.094 3.094 0 01-2.102 3.837l-6.49 1.898-4.498 4.793-5.575 1.63.963-3.795zm.715-2.817l1.938.492-.816 3.217 1.69-.494 4.499-4.793.262-.077 6.752-1.974c.397-.116.679-.438.762-.816l-3.323-.714-14.49 4.233-2.84.83-2.83-1.523-1.63.459 1.387 1.304 7.148.812 1.342-.37.149-.586z" fill="#005AA0"/><path fill="#005AA0" d="M13.457 19.735l5.108 1.237.47-1.944-5.627-1.363-5.63 1.646 3.685 3.251 1.324-1.5-.964-.85zM20 15.494a.5.5 0 10-1 .012.5.5 0 001-.012zm2-.023a2.5 2.5 0 11-5 .058 2.5 2.5 0 015-.058zM10 1C7.592 1 5.558 2.595 5.097 4.743 2.78 5.138 1 7.027 1 9.333 1 11.931 3.257 14 6 14h2v-2H6c-1.676 0-3-1.214-3-2.667 0-1.452 1.324-2.666 3-2.666h1v-1C7 4.214 8.325 3 10 3c1.676 0 3 1.214 3 2.667v1h1c1.675 0 3 1.214 3 2.666 0 .438-.119.86-.345 1.24l1.72 1.022A4.41 4.41 0 0019 9.333c0-2.306-1.779-4.195-4.097-4.59C14.443 2.595 12.409 1 10 1z"/><path d="M14 12.5a1.5 1.5 0 10-3 0 1.5 1.5 0 003 0zm2 0a3.5 3.5 0 11-7 0 3.5 3.5 0 017 0z" fill="#E30613"/></g></symbol></svg>