<svg width="20" height="20" xmlns="http://www.w3.org/2000/svg"><g fill="currentColor" fill-rule="evenodd"><path d="M14.518 11.197l-3.911-.849c-.174-1.769-1.652-3.16-3.466-3.16a3.488 3.488 0 00-3.026 1.774l-.734-.15 1.176-5.437 11.102 2.382-1.141 5.44zm-7.377.99c-.827 0-1.5-.673-1.5-1.5s.673-1.5 1.5-1.5 1.5.673 1.5 1.5-.673 1.5-1.5 1.5zM3.024 1L1 10.364l2.664.547c.117 1.824 1.624 3.276 3.477 3.276 1.34 0 2.494-.766 3.082-1.876l5.84 1.267 1.96-9.359L3.024 1z"/><path d="M10.79 17.088c-.283 0-.49-.095-.725-.363a.448.448 0 01-.057-.087l-.053-.13c-.015-.028-.015-.186-.015-.27 0-.461.389-.85.85-.85.461 0 .851.389.851.85 0 .46-.39.85-.851.85m0-3.7a2.853 2.853 0 00-2.85 2.85c0 .287 0 .674.195 1.1.108.29.291.574.464.744a2.802 2.802 0 002.191 1.006 2.853 2.853 0 002.851-2.85 2.853 2.853 0 00-2.851-2.85"/></g></svg>