<svg width="20" height="20" xmlns="http://www.w3.org/2000/svg"><g fill="currentColor" fill-rule="nonzero"><path d="M6.237 5.48c-.353.903-1.1 3.195-1.155 3.336L3.218 8.09c.028-.07.775-2.363 1.168-3.368.023-.054.023-.054.053-.118a2.22 2.22 0 01.818-.916c.71-.455 1.804-.647 3.594-.687h2.327c1.775.035 2.873.228 3.585.69a2.249 2.249 0 01.82.939l-.013-.028.02.044.026.058.055.133c.562 1.655.944 2.745 1.142 3.254l-1.864.724c-.208-.534-.585-1.606-1.136-3.23a263.09 263.09 0 01-.02-.06l-.025-.054c0-.003 0-.003-.013-.029l.01.022a.17.17 0 00-.015-.026.26.26 0 00-.077-.07c-.304-.197-1.113-.34-2.515-.368H8.873c-1.42.032-2.229.175-2.535.371a.254.254 0 00-.078.069c-.01.015-.015.024-.012.017-.015.034-.015.034-.011.023zM1.106 17.257l1.088-1.678c.396.257.867.26 1.243.022a5.337 5.337 0 015.874-.02c.394.256.866.26 1.241.023a5.333 5.333 0 015.873-.023c.397.258.867.26 1.267.008l1.068 1.69a3.143 3.143 0 01-3.422-.02c-1.14-.736-2.554-.73-3.702.025a3.14 3.14 0 01-3.413-.025c-1.14-.737-2.553-.732-3.701.023a3.138 3.138 0 01-3.416-.025zm2.801-7.262l-.126.01c-.068 0-.138.04-.186.12-.048.079-.055.187-.032.243l1.624 3.413-1.804.863c-.685-1.433-.547-1.162-1.64-3.447a2.31 2.31 0 01.141-2.108A2.224 2.224 0 013.69 8.006L10 7.145l6.365.87a2.192 2.192 0 011.756 1.077c.385.638.432 1.423.116 2.16l-1.612 3.392-1.804-.864c.688-1.436.531-1.137 1.595-3.355a.329.329 0 00-.014-.31.199.199 0 00-.16-.104l-.104-.01L10 9.164l-6.093.832z"/><path d="M9 2a1 1 0 112 0v2a1 1 0 11-2 0V2zM9 9h2v5H9z"/></g></svg>