<svg width="20" height="20" xmlns="http://www.w3.org/2000/svg"><g fill="currentColor" fill-rule="evenodd"><path d="M16 6H4V4.33c0-.181.161-.326.346-.33H6v1h2V4h4v1h2V4h1.634c.205.004.366.149.366.33V6zm0 9.662a.331.331 0 01-.346.338H4.346A.331.331 0 014 15.662V8h12v7.662zM15.654 2H14V1h-2v1H8V1H6v1H4.325C3.021 2.026 2 3.05 2 4.33v11.332A2.317 2.317 0 004.346 18h11.308A2.317 2.317 0 0018 15.662V4.33c0-1.28-1.021-2.304-2.346-2.33z"/><path d="M14.484 9.709l-1.41-1.418-3.914 3.892-1.448-1.48-1.424 1.405 2.858 2.908z"/></g></svg>