<svg width="20" height="20" xmlns="http://www.w3.org/2000/svg"><g fill="currentColor" fill-rule="evenodd"><path d="M10.008 12H2.992C3.004 12 3 4.009 3 4.009 3 4.002 15.006 4 15.006 4 14.999 4 15 9.063 15 9.063h2V4.005A2 2 0 0015.006 2H2.994A2.003 2.003 0 001 4.009v7.982C1 13.101 1.9 14 2.992 14h7.016v-2zm0 0H2.992C3.004 12 3 4.009 3 4.009 3 4.002 15.006 4 15.006 4 14.999 4 15 9.063 15 9.063h2V4.005A2 2 0 0015.006 2H2.994A2.003 2.003 0 001 4.009v7.982C1 13.101 1.9 14 2.992 14h7.016v-2z" fill-rule="nonzero"/><path d="M3.996 10h3V8h-3z"/><path d="M14.5 17a3.5 3.5 0 100-7 3.5 3.5 0 000 7zm0 2a5.5 5.5 0 110-11 5.5 5.5 0 010 11z" fill-rule="nonzero"/><path fill-rule="nonzero" d="M10.086 10.5l7.414 7.414 1.414-1.414L11.5 9.086zM1.5 7h15V5h-15z"/></g></svg>