<svg width="20" height="20" xmlns="http://www.w3.org/2000/svg"><g fill="currentColor" fill-rule="evenodd"><path d="M10.001 11.31a1.088 1.088 0 111.087-1.087c0 .599-.487 1.087-1.087 1.087m0-4.174a3.09 3.09 0 00-3.087 3.087 3.09 3.09 0 003.087 3.087 3.09 3.09 0 003.087-3.087 3.09 3.09 0 00-3.087-3.087"/><path d="M15.123 10.861l-.244.649a6.495 6.495 0 01-1.119 1.892l-.455.538.947 1.636-1.503.879-.958-1.654-.715.159c-.808.179-1.515.158-2.124.006l-.731-.183-.968 1.672-1.503-.879.964-1.665-.501-.542c-.541-.586-.881-1.155-1.067-1.79l-.211-.718H3V9.134h1.879l.244-.649a6.508 6.508 0 011.119-1.892l.455-.537-.948-1.636 1.504-.88.958 1.654.715-.159a4.688 4.688 0 012.124-.006l.731.183.968-1.672 1.504.88-.964 1.664.5.542c.542.587.881 1.155 1.067 1.79l.212.718h1.934v1.727h-1.879zm3.879 2V7.134h-2.49a6.358 6.358 0 00-.772-1.293l1.241-2.143L12.024.8l-1.246 2.153a6.77 6.77 0 00-1.552.002L7.978.8 3.021 3.698l1.255 2.168a8.648 8.648 0 00-.749 1.268H1v5.727h2.49c.198.447.454.876.772 1.293L3.02 16.297l4.958 2.898 1.247-2.153c.507.058 1.037.06 1.552-.002l1.247 2.155 4.958-2.898-1.256-2.168c.287-.403.539-.83.749-1.268h2.527z"/></g></svg>