<svg width="20" height="20" xmlns="http://www.w3.org/2000/svg"><g fill="currentColor" fill-rule="nonzero"><path d="M5 12.437c0-2.082 1.028-3.68 2.685-4.813.958-.655 1.906-1.028 2.574-1.194l.241-.06.241.06c.668.166 1.616.539 2.574 1.194C14.972 8.757 16 10.355 16 12.437V19H5v-6.563zm5.163-3.87a6.834 6.834 0 00-1.348.708C7.659 10.065 7 11.09 7 12.437V17h7v-4.563c0-1.347-.66-2.372-1.815-3.162a6.834 6.834 0 00-1.685-.832 7.026 7.026 0 00-.337.123z"/><path d="M3 13.004h2.5v2H1V9.088C1 6.994 2.017 5.383 3.66 4.24c.95-.663 1.892-1.04 2.556-1.208l.247-.063.246.063c.664.17 1.603.55 2.552 1.214.298.208.578.435.837.681a5.79 5.79 0 011.454 2.147l-1.87.71a3.804 3.804 0 00-.961-1.407 5.249 5.249 0 00-.607-.493 6.714 6.714 0 00-1.654-.837 6.715 6.715 0 00-1.658.835C3.656 6.678 3 7.717 3 9.087v3.916zM13.652 3.14a6.199 6.199 0 00-1.201.603c-.366.24-.68.51-.928.81l-1.54-1.277a6.118 6.118 0 011.372-1.206c.874-.572 1.736-.897 2.346-1.043l.23-.055.232.055c.611.144 1.474.468 2.35 1.038C18.042 3.062 19 4.481 19 6.34v6.044h-4.315v-2H17V6.339c0-1.097-.568-1.94-1.58-2.598a6.202 6.202 0 00-1.486-.7c-.08.025-.175.058-.282.099z"/></g></svg>