<svg width="20" height="20" xmlns="http://www.w3.org/2000/svg"><path d="M5.122 4.791c-.258.844-.638 3.224 1.395 7.102 1.417 2.704 2.9 4.001 3.894 4.613 1.253.772 2.095.7 2.365.555l1.686-.909c.037-.02.091-.175.066-.22l-1.523-2.905a.138.138 0 00-.188-.055l-1.846.996h-.24c-.582-.002-1.745-.361-3-2.756-1.265-2.414-.899-3.576-.568-4.054l.13-.185 1.835-.992c.046-.026.086-.183.068-.216L7.672 2.857a.128.128 0 00-.08-.07.125.125 0 00-.101.011l-1.689.91c-.202.11-.487.45-.68 1.083m10.234 13.026l-1.682.906c-1.092.59-2.682.361-4.255-.609-1.194-.735-2.959-2.26-4.576-5.344C2.485 8.27 2.99 5.305 3.315 4.239c.316-1.033.88-1.81 1.591-2.193l1.684-.908A2.004 2.004 0 018.144.982c.522.16.949.515 1.202 1l1.522 2.903c.489.928.084 2.258-.843 2.758l-1.304.704c.009.237.087.85.684 1.988.569 1.088 1.016 1.506 1.242 1.662l1.275-.689a2.017 2.017 0 011.554-.154c.52.16.947.512 1.201.995l1.524 2.907c.245.468.293 1.033.135 1.55-.159.52-.516.96-.98 1.21z" fill="currentColor" fill-rule="evenodd"/></svg>