<svg width="20" height="20" xmlns="http://www.w3.org/2000/svg"><g fill="currentColor" fill-rule="evenodd"><path d="M10 3c-3.86 0-7 3.14-7 7s3.14 7 7 7 7-3.14 7-7-3.14-7-7-7m0 16c-4.962 0-9-4.038-9-9s4.038-9 9-9 9 4.038 9 9-4.038 9-9 9"/><path d="M9.083 11.641c.024.624.42 1.032.996 1.032.563 0 .947-.504.947-1.27-.024-1.345-1.115-1.536-1.991-1.345v-.252l1.188-2.674H7.872V5.704h4.545v.252l-1.427 2.94c1.128.226 1.643 1.33 1.643 2.493 0 1.703-1.007 2.831-2.53 2.831-1.476 0-2.471-1.03-2.507-2.579h1.487z"/></g></svg>