<svg width="20" height="20" xmlns="http://www.w3.org/2000/svg"><path d="M10.014 15.85c-3.61 0-5.294-.482-5.947-.745.168-1.383.859-4.848 3.517-6.139.73.577 1.633.934 2.623.934a4.22 4.22 0 002.462-.797c2.457 1.374 3.127 4.647 3.29 5.994-.682.28-2.368.753-5.945.753zM10.207 3c1.286 0 2.33 1.1 2.33 2.45 0 1.351-1.044 2.45-2.33 2.45-1.285 0-2.331-1.099-2.331-2.45C7.876 4.1 8.922 3 10.206 3zm7.806 12.617c-.008-.246-.235-5.674-4.006-8.077a4.485 4.485 0 00.53-2.09c0-2.454-1.942-4.45-4.33-4.45C7.82 1 5.876 2.996 5.876 5.45c0 .692.168 1.34.444 1.925-4.05 2.303-4.297 7.99-4.305 8.242L2 16.052l.309.307c.35.35 1.947 1.491 7.705 1.491s7.354-1.14 7.705-1.49l.309-.308-.015-.435z" fill="currentColor" fill-rule="evenodd"/></svg>