<?xml version="1.0" encoding="utf-8"?><svg xmlns="http://www.w3.org/2000/svg" xmlns:xlink="http://www.w3.org/1999/xlink"><symbol viewBox="0 0 84 50" id="icon-multicolor-adult_children-50" xmlns="http://www.w3.org/2000/svg"><g stroke-width="2" fill="none" fill-rule="evenodd"><path d="M35.413 43.47v6.993M20.5 43.736v6.727M25.04 3.64s.743 2.786 5.11 2.786h5.985l.127.333c.302.875.466 1.815.466 2.793a8.552 8.552 0 11-2.067-5.576" stroke="#005AA0"/><path d="M31.097 13.166a4.119 4.119 0 01-2.92 1.208 4.112 4.112 0 01-2.92-1.208m-3.483 11.836v16.84a2.387 2.387 0 01-4.774 0V25.33c0-4.26 3.3-7.75 7.484-8.05h.297m9.799 7.722v16.84a2.387 2.387 0 104.773 0V25.33a8.072 8.072 0 00-7.484-8.05h-.297m-1.785 33.183v-3.16m-3.221 3.16V45.81a2.238 2.238 0 012.238-2.238M66.509 51l-2.035-7.623m-18.255 0L44.186 51m8.029-47.064s.741 2.781 5.103 2.781h5.977l.126.333a8.54 8.54 0 11-1.599-2.779" stroke="#005AA0"/><path d="M58.264 13.449a4.113 4.113 0 01-2.917 1.206 4.112 4.112 0 01-2.917-1.206m-3.611 11.627V41.42a2.316 2.316 0 01-4.634 0V25.394a7.835 7.835 0 017.264-7.814h.288m10.138 7.496V41.42a2.316 2.316 0 004.634 0V25.394a7.835 7.835 0 00-7.265-7.814h-.288" stroke="#005AA0"/><path d="M28.95 27.686h-4.517M56.53 47.037h5.397" stroke="#E30613"/></g></symbol><symbol viewBox="0 0 84 50" id="icon-multicolor-alone-50" xmlns="http://www.w3.org/2000/svg"><g stroke-width="2" fill="none" fill-rule="evenodd"><path d="M34.745 17.794s1.335 5.01 9.194 5.01h10.769l.227.6c.544 1.576.84 3.266.84 5.026 0 8.498-6.89 15.386-15.387 15.386C31.89 43.816 25 36.928 25 28.43s6.89-15.388 15.388-15.388c4.665 0 8.846 2.076 11.668 5.356m-18.745 9.53a1.765 1.765 0 013.53 0m7.092 0a1.765 1.765 0 013.53 0m1.193-18.183l.217-4.7" stroke="#005AA0"/><path d="M54.308 11.82l2.674-3.87" stroke="#E30613"/><path d="M58.003 16.573l4.318-1.865M45.71 35.194a7.503 7.503 0 01-5.323 2.2 7.502 7.502 0 01-5.322-2.2" stroke="#005AA0"/></g></symbol><symbol viewBox="0 0 84 50" id="icon-multicolor-apart-50" xmlns="http://www.w3.org/2000/svg"><defs><path id="ca" d="M17 24v7h-7v-7z"/><path id="cb" d="M17 24v7h-7v-7z"/></defs><g fill="none" fill-rule="evenodd"><g fill-rule="nonzero" stroke="#E30613" stroke-width="2"><path d="M45 8.795l.905-.822a3.77 3.77 0 015.069 0h0a3.108 3.108 0 010 4.603L45 18l-5.974-5.424a3.108 3.108 0 010-4.603h0a3.77 3.77 0 015.07 0l.904.822z"/><path d="M38.33 10.838L36 13l-5.964-5.429c-1.345-1.225-1.386-3.25-.09-4.521l.09-.086c1.413-1.285 3.648-1.285 5.06 0l.904.823.903-.823c1.413-1.285 3.648-1.285 5.06 0 .977.89 1.266 2.2.856 3.338"/></g><path d="M0 10h40v40H0z"/><path d="M5 48V25m30 0v23m-14-2V34h10v12" stroke="#005AA0" stroke-width="2"/><path stroke="#0059A0" stroke-width="2" d="M26 24l-6-5-6 5"/><path stroke="#005AA0" stroke-width="2" d="M38 28L20 13 2 28m16 19h20M2 47h11"/><g transform="translate(0 10)"><use stroke="#979797" xlink:href="#ca"/><use stroke="#005AA0" stroke-width="2" xlink:href="#ca"/></g><path d="M44 10h40v40H44z"/><path d="M49 48V25m30 0v23m-14-2V34h10v12" stroke="#005AA0" stroke-width="2"/><path stroke="#0059A0" stroke-width="2" d="M70 24l-6-5-6 5"/><path stroke="#005AA0" stroke-width="2" d="M82 28L64 13 46 28m16 19h20m-36 0h11"/><g transform="translate(44 10)"><use stroke="#979797" xlink:href="#cb"/><use stroke="#005AA0" stroke-width="2" xlink:href="#cb"/></g></g></symbol><symbol viewBox="0 0 84 50" id="icon-multicolor-married-50" xmlns="http://www.w3.org/2000/svg"><defs><path id="da" d="M17 24v7h-7v-7z"/></defs><g fill="none" fill-rule="evenodd"><path d="M0 0h84v50H0z"/><path d="M21 10h40v40H21z"/><path d="M26 48V25m30 0v23m-14-2V34h10v12" stroke="#005AA0" stroke-width="2"/><path stroke="#0059A0" stroke-width="2" d="M47 24l-6-5-6 5"/><path stroke="#005AA0" stroke-width="2" d="M59 28L41 13 23 28m16 19h20m-36 0h11"/><g transform="translate(21 10)"><use stroke="#979797" xlink:href="#da"/><use stroke="#005AA0" stroke-width="2" xlink:href="#da"/></g><g fill-rule="nonzero" stroke="#E30613" stroke-width="2"><path d="M70 8.795l.905-.822a3.77 3.77 0 015.069 0h0a3.108 3.108 0 010 4.603L70 18l-5.974-5.424a3.108 3.108 0 010-4.603h0a3.77 3.77 0 015.07 0l.904.822z"/><path d="M63.33 10.838L61 13l-5.964-5.429c-1.345-1.225-1.386-3.25-.09-4.521l.09-.086c1.413-1.285 3.648-1.285 5.06 0l.904.823.903-.823c1.413-1.285 3.648-1.285 5.06 0 .977.89 1.266 2.2.856 3.338"/></g></g></symbol><symbol viewBox="0 0 84 50" id="icon-multicolor-single-50" xmlns="http://www.w3.org/2000/svg"><defs><path id="ea" d="M17 24v7h-7v-7z"/></defs><g fill="none" fill-rule="evenodd"><path d="M0 0h84v50H0z"/><path d="M21 10h40v40H21z"/><path d="M26 48V25m30 0v23m-14-2V34h10v12" stroke="#005AA0" stroke-width="2"/><path stroke="#0059A0" stroke-width="2" d="M47 24l-6-5-6 5"/><path stroke="#005AA0" stroke-width="2" d="M59 28L41 13 23 28m16 19h20m-36 0h11"/><g transform="translate(21 10)"><use stroke="#979797" xlink:href="#ea"/><use stroke="#005AA0" stroke-width="2" xlink:href="#ea"/></g><path d="M61 3.795l.905-.822a3.77 3.77 0 015.069 0h0a3.108 3.108 0 010 4.603L61 13l-5.974-5.424a3.108 3.108 0 010-4.603h0a3.77 3.77 0 015.07 0l.904.822z" stroke="#E30613" stroke-width="2"/></g></symbol><symbol viewBox="0 0 84 50" id="icon-multicolor-small_children-50" xmlns="http://www.w3.org/2000/svg"><g stroke-width="2" fill="none" fill-rule="evenodd"><path d="M56.49 50V37.072m6.774 2.216l-2.417-5.445c-.963-2.913-3.314-4.174-6.01-4.543M44.599 47.39V50m1.283-14.932v10.385a2.128 2.128 0 11-4.255 0V34.686a5.386 5.386 0 015.385-5.386m-3.11-5.114a7.221 7.221 0 11.899 2.636" stroke="#005AA0"/><path d="M62.285 37.072l1.907 4.19a2.153 2.153 0 01-3.92 1.782l-1.613-3.618m5.377 1.263v-19.6M73.05 9.786c0 4.978-8.786 11-8.786 11s-8.786-6.022-8.786-11m0 0A8.786 8.786 0 0164.264 1a8.785 8.785 0 018.786 8.786M54.102 25.208a3.638 3.638 0 01-5.1.674m-7.122-.075a2.346 2.346 0 002.009-2.642" stroke="#005AA0"/><path d="M59.478 9.584A4.583 4.583 0 0164.06 5" stroke="#E30613"/><path d="M21.192 50v-3m11.973 0v3M32.13 35.068v10.385a2.127 2.127 0 104.255 0V34.686A5.386 5.386 0 0031 29.3m3.11-5.114a7.221 7.221 0 10-.899 2.636m-9.301-1.614a3.64 3.64 0 005.101.674" stroke="#005AA0"/><path d="M22.255 35.068v10.385a2.127 2.127 0 11-4.255 0V34.686a5.386 5.386 0 015.385-5.386" stroke="#005AA0"/></g></symbol></svg>