<svg width="40" height="40" xmlns="http://www.w3.org/2000/svg"><g fill="none" fill-rule="evenodd"><path d="M0 0h40v40H0z"/><path d="M21.331 6.835L26.47 13h4.066l2.157 3.232a9.425 9.425 0 013.072.807l.33.157-.897 1.788a7.444 7.444 0 00-3.347-.789c-1.53 0-2.951.46-4.136 1.247l1.22 1.4a6 6 0 11-1.525 1.295l-1.2-1.375a7.449 7.449 0 00-1.835 4.67l-.004.243h-2c0-.572.05-1.132.148-1.675h-5.932l-2.524-2.524-1.12 1.122c.628.909 1.01 2 1.054 3.177L14 26a6 6 0 11-2.451-4.838l1.099-1.1-2.355-2.355 1.414-1.414 5.707 5.706h5.695a9.493 9.493 0 017.232-5.684L29.464 15h-3.932l-1.538-1.846-7.308 4.177L14.464 14H4v2h5v2H2v-6h13.535l1.779 2.668 5.379-3.074-2.025-2.43-2.352.785-.632-1.898 3.647-1.216zM8 22a4 4 0 103.492 2.049l-2.535 2.533-1.414-1.414 2.566-2.567A3.981 3.981 0 008 22zm24 0c-.615 0-1.197.139-1.717.386l2.47 2.831-1.506 1.316-2.499-2.863A4 4 0 1032 22z" fill="currentColor" fill-rule="nonzero"/></g></svg>