<svg width="40" height="40" xmlns="http://www.w3.org/2000/svg"><g fill="none" fill-rule="evenodd"><path d="M0 0h40v40H0z"/><path d="M24.74 2.365l.174.045.157.049a4.013 4.013 0 012.6 4.706l-.052.2a4.013 4.013 0 01-4.484 2.853l-.008.03a12.684 12.684 0 00-3.303-.436c-6.996 0-12.668 5.672-12.668 12.668 0 6.996 5.672 12.668 12.668 12.668 6.996 0 12.667-5.672 12.667-12.668 0-4.01-1.875-7.703-4.995-10.08l-.287-.213 1.167-1.624A14.647 14.647 0 0134.49 22.48c0 8.1-6.567 14.668-14.667 14.668S5.156 30.58 5.156 22.48 11.723 7.812 19.824 7.812c1.14 0 2.265.131 3.357.387l.02.004.004-.014a2.013 2.013 0 001.258-3.824l-.107-.035-.09-.019c-.37-.056-.735.107-.846.302l-.026.059c-.127.443.059.722.814.595l.148-.029.423 1.955c-2.47.535-3.833-1.244-3.307-3.075.378-1.31 1.875-2.049 3.268-1.753zm-3.76 26.5l1.413 1.415a6.262 6.262 0 01-4.438 1.836 6.258 6.258 0 01-4.224-1.632l-.215-.204 1.415-1.414a4.258 4.258 0 003.024 1.25 4.262 4.262 0 002.846-1.082l.178-.169zm-4.353-6.69l.013.172-1.998.093a.916.916 0 00-1.829-.021v.107l-1.999.093a2.916 2.916 0 015.813-.443zm8.215-.306l.013.17-1.998.093a.916.916 0 00-1.828-.021l-.002.107-1.997.094a2.915 2.915 0 015.812-.443z" fill="currentColor" fill-rule="nonzero"/></g></svg>