<svg width="40" height="40" xmlns="http://www.w3.org/2000/svg"><g fill="none" fill-rule="evenodd"><path d="M0 0h40v40H0z"/><g fill="currentColor" fill-rule="nonzero"><path d="M33.006 4.898l1.213 6.456 1.965-.37-1.59-8.466-18.286 3.859.413 1.957zM20 22.5a5.5 5.5 0 10-11 0 5.5 5.5 0 0011 0zm-9 0a3.5 3.5 0 117 0 3.5 3.5 0 01-7 0zM24 33.5a4.5 4.5 0 10-9 0 4.5 4.5 0 009 0zm-7 0a2.5 2.5 0 115 0 2.5 2.5 0 01-5 0z"/><path d="M4.946 20.05L7.867 6.424 35.24 12.18 32.32 25.805 18.87 22.977l-.412 1.957 15.398 3.238 3.76-17.536L6.329 4.058 2.57 21.593l6.979 1.468.411-1.958z"/></g></g></svg>