<svg width="40" height="40" xmlns="http://www.w3.org/2000/svg"><g fill="none" fill-rule="evenodd"><path d="M0 0h40v40H0z"/><path d="M28 5v5h7.5a2.5 2.5 0 012.5 2.5v20a2.5 2.5 0 01-2.5 2.5h-31A2.5 2.5 0 012 32.5v-20A2.5 2.5 0 014.5 10H12V5h16zm8 10.134L31.362 19H8.638L4 15.135V32.5a.5.5 0 00.5.5h31a.5.5 0 00.5-.5V15.134zM30 21v10h-2V21h2zm-18 0v10h-2V21h2zm7-2v2h2v-2h2v4h-6v-4h2zm16.5-7h-31a.5.5 0 00-.5.5v.031L9.362 17h21.276L36 12.53v-.03a.5.5 0 00-.5-.5zM26 7H14v3h12V7z" fill="currentColor" fill-rule="nonzero"/></g></svg>