<svg width="40" height="40" xmlns="http://www.w3.org/2000/svg"><g fill="currentColor" fill-rule="nonzero"><path d="M25.055 8h4.258C30.2 8 31 8.8 31 9.688v23.624C31 34.2 30.2 35 29.313 35H10.659c-.943 0-1.713-.777-1.656-1.62l.003-23.692C8.944 8.74 9.658 8 10.659 8h4.333V6h-4.333C8.516 6 6.87 7.704 7.01 9.756l-.003 23.556C6.87 35.27 8.584 37 10.659 37h18.654C31.305 37 33 35.304 33 33.312V9.688C33 7.696 31.305 6 29.313 6h-4.258v2z"/><path d="M19 4v3h-3v2h8V7h-3V4h-2zm-2-2h6v3h3v6H14V5h3V2zM8 15h25v-2H8zM13 21h14v-2H13zM13 25h14v-2H13zM13 29h9v-2h-9z"/></g></svg>