<svg width="40" height="40" xmlns="http://www.w3.org/2000/svg"><g fill="currentColor" fill-rule="nonzero"><path d="M2 22V3h28v19H2zm26-2V5H4v15h24zM9 28h14v-2H9z"/><path d="M13 21.342V26h2v-4.658zM17 21.342V26h2v-4.658zM12.788 6.803l-6.495 6.49 1.414 1.414 6.495-6.49zM8.425 5.803L5.403 8.824l1.415 1.414 3.02-3.02zM30 34v-2c0-2.204 1.793-4 4-4s4 1.796 4 4v2c0 2.204-1.793 4-4 4s-4-1.795-4-4zm2 0c0 1.1.898 2 2 2 1.102 0 2-.9 2-2v-2c0-1.1-.898-2-2-2-1.102 0-2 .9-2 2v2z"/><path d="M33 31v2h2v-2zM24 21.417v.231C24 24.07 25.961 26 28.39 26h2.23A2.38 2.38 0 0133 28.39h2A4.38 4.38 0 0030.62 24h-2.23C27.059 24 26 22.958 26 21.648v-.231h-2z"/></g></svg>