<svg width="40" height="40" xmlns="http://www.w3.org/2000/svg"><g fill="none" fill-rule="evenodd"><path d="M0 0h40v40H0z"/><path d="M29 2v8h-2V4H4v32h23v-5h2v7H2V2h27zM11.524 25.492c1.562.886 1.6 2.326.822 4.339-.078.2-.159.398-.274.67-.352.836-.483 1.16-.546 1.41.203-.15.538-.492 1.024-1.116.084-.11.133-.172.316-.413 1.373-1.796 2.012-2.403 3.192-2.403 1.411 0 1.792.783 2.047 2.481l.004.028c.061.408.101.618.147.75H23v2h-4.873c-1.387 0-1.741-.753-1.996-2.453l-.004-.028c-.062-.413-.105-.628-.154-.763-.26.085-.707.541-1.517 1.602l-.328.427c-1.256 1.614-2.107 2.276-3.386 1.892-1.012-.305-1.395-1.153-1.226-2.16.09-.526.189-.788.713-2.03.108-.257.183-.438.251-.615.459-1.186.446-1.658.057-1.879-1.181-.67-2.008.366-2.546 4.315l-1.982-.27c.7-5.13 2.56-7.46 5.515-5.784zM32.599 9.574l5.8 6.013L25.097 29H19.04l-.042-5.85L32.599 9.574zm-2.811 5.629l-8.785 8.77.022 3.027h3.24l8.623-8.697-3.1-3.1zM16 15v2H7v-2h9zm16.571-2.574l-1.366 1.364 3.092 3.092 1.304-1.314-3.03-3.142zM22 11v2H7v-2h15zm0-4v2H7V7h15z" fill="currentColor" fill-rule="nonzero"/></g></svg>