<svg width="40" height="40" xmlns="http://www.w3.org/2000/svg"><g fill="none" fill-rule="evenodd"><path d="M0 0h40v40H0z"/><path d="M10.338 4.011c.383.044 1.106.363 1.882.802l.428.25c1.144.693 2.294 1.577 2.574 2.17l.037.097.01.018.008.06.006.027.097 1.081.115 1.335.039.402.063.536c.021.17.044.33.067.48l.072.42.063.297.106.415c.002.016 0 .021-.008.013l1.03 1.012 1.2 1.198c1.48 1.487 2.945 3 4.316 4.467l.787.85.953 1.048.544.61.514.586.485.563.454.539.216.26.41.506.378.481c.181.236.351.462.51.68l.3.426c.808 1.174 1.236 2.08 1.26 2.736.01.216.005.436-.016.66-.08.84-.372 1.7-.807 2.556-.112.22-.224.424-.331.606l-.079.13.16.225c.08.106.16.212.243.316l.253.306c.468.542.915.93 1.264 1.086a.754.754 0 00.185.06l.042.004h3.108c1.65 0 2.379-.945 2.629-2.934l.02-.17.032-.339.021-.352.008-.188.01-.415L36 29h2l-.002.737-.007.487c-.004.151-.01.293-.016.43l-.025.397a12.86 12.86 0 01-.061.589c-.35 2.79-1.677 4.578-4.364 4.68l-.249.005h-3.108c-.354 0-.703-.085-1.047-.24-.672-.301-1.316-.86-1.958-1.604a13.307 13.307 0 01-.857-1.113l-.238-.354-.103-.164-.35-.576.457-.616.132-.199c.151-.234.303-.495.444-.772.33-.651.546-1.286.599-1.84.012-.13.015-.252.008-.384a.943.943 0 00-.076-.295l-.087-.196a4.137 4.137 0 00-.056-.109l-.135-.241-.166-.27-.196-.298-.225-.324-.254-.35-.281-.375-.309-.399-.334-.42-.549-.671-.396-.473-.638-.743-.687-.781-.735-.816-.757-.824-.392-.421a188.263 188.263 0 00-3.396-3.536l-1.144-1.154-1.334-1.325-.609-.597c-.332-.324-.542-.833-.7-1.608-1.78.225-3.364-.417-4.2-1.795-.569-.877-.533-1.853-.078-2.893.154-.352.34-.685.598-1.09l.235-.354-.037-.02-.133-.062a.342.342 0 00-.065-.024h-.036l-.125.01-.302.044-.267.047-.31.06-.342.072-.414.093-.487.116-.893.226-.232.062-.236-.05c-.15-.032-.307-.069-.476-.11L5.33 6.4l-.995-.26-.172-.042-.019.092a7.757 7.757 0 00-.088.617l-.021.23-.013.182-.017.358-.003.174v.327l.009.293.014.246.02.188a.95.95 0 00.021.118l.01.023.151.095.173.096.215.108.267.124 1.292.566c1.293.582 2.106 1.086 2.657 1.81.32.438.5.907.59 1.673l.033.323.012.174.019.377.011.419.004.712-.014 1.128-.036 1.717c-.003.233-.006.455-.006.667l.003.61.006.283.02.531c.029.592.082 1.09.164 1.53l.037.185c.335 1.678 1.099 2.515 3.233 3.88l.79.497.522.338.304.206.581.401-.436 1.628-.516 1.955-.19.686-.17.577-.054.177c-.281.89-.546 1.529-.862 2.009l-.133.197-.306.434-.345.467c-.174.23-.355.467-.54.703l-.65.815-1.548-1.266.355-.442c.268-.337.536-.681.784-1.012l.29-.392.331-.468.092-.137c.19-.289.394-.78.624-1.51l.103-.336.166-.578.704-2.65-.696-.439c-2.764-1.733-3.908-2.91-4.391-5.335-.17-.795-.25-1.69-.268-2.855l-.004-.663c0-.116 0-.234.002-.354l.04-2.128.008-.606.001-.705-.007-.474-.014-.411-.022-.351-.029-.295c-.043-.358-.107-.577-.194-.696-.253-.331-.784-.674-1.652-1.08l-.402-.181-.945-.412-.215-.096-.37-.175a6.213 6.213 0 01-.448-.242c-.347-.209-.607-.424-.813-.738-.813-1.354-.433-6.011 1.24-6.011l.124.001.176.01.19.024.072.013.256.054.216.051 1.753.453.256.062.194-.05.502-.126.51-.12.438-.1.495-.103.225-.044.406-.068c.377-.057.671-.075.9-.05zm10.576 21.957l1.643 1.141c-.164.236-.323.475-.475.714l-.296.475-.275.467a21.66 21.66 0 00-.13.228l-.238.441c-.337.643-.577 1.195-.673 1.546l-.031.131.032.044.059.076.15.177.092.098c.333.354.812.788 1.361 1.235l.387.308.386.293c.063.048.127.094.19.14l.37.263.35.237.324.206.287.17c.134.074.251.134.348.175l.09.035-.327 1.945H17.36v-2l3.769-.001-.261-.215-.41-.354c-1.067-.95-1.926-1.947-2.023-2.582l-.01-.114c0-1.028.98-3.054 2.314-5.023l.176-.256zM9.237 28l1.885.667-.322.894-.305.81-.192.487-.182.445-.173.399a15.68 15.68 0 01-.083.181l-.156.327c-.126.251-.24.45-.34.589-.13.181-.283.383-.455.601l-.353.44c-.268.328-.554.667-.84 1l-.383.439-1.496-1.327.364-.419c.184-.212.367-.428.545-.641l.425-.52.255-.322.218-.288.096-.13a1.43 1.43 0 00.078-.126l.096-.181.112-.235.127-.284.214-.51.24-.602.258-.682.273-.749.094-.263zM12.1 7.085l-.165.248-.215.336c-.161.26-.277.475-.368.682-.21.482-.222.778-.06 1.028.406.669 1.21 1.004 2.232.879l-.078-.855-.12-1.466-.11-.09-.098-.076-.157-.115-.366-.253-.42-.273-.075-.045z" fill="currentColor" fill-rule="nonzero"/></g></svg>