<svg width="40" height="40" xmlns="http://www.w3.org/2000/svg"><g fill="currentColor" fill-rule="nonzero"><path d="M27.72 11H11.466l-2.001 3H7v16h6.317l2.003 5.116L32 34.993V14h-3.28l-1-3zm-1.441 2l1 3H30v17.007l-13.32.098L14.682 28H9V16h1.535l2-3h13.744z"/><path d="M35 19h-4v7h4zM9 19H4v6h5v-6zm-2 2v2H6v-2h1z"/><path d="M33 14v17h1c2.558 0 5-2.419 5-5v-7c0-2.581-2.442-5-5-5h-1zm2 2.224l.084.038C36.132 16.76 37 17.896 37 19v7l-.006.158c-.077 1.053-.912 2.106-1.91 2.58l-.084.037V16.224zM12 18v10h-2V18zM28 19v14h-2V19zM23 8h-6v5h6V8zm-2 2v1h-2v-1h2z"/><path d="M26 5H14v5h12V5zm-2 2v1h-8V7h8zM3.5 15A2.5 2.5 0 001 17.5v9a2.5 2.5 0 105 0v-9A2.5 2.5 0 003.5 15zm0 2a.5.5 0 01.5.5v9a.5.5 0 11-1 0v-9a.5.5 0 01.5-.5z"/></g></svg>