<svg width="40" height="40" xmlns="http://www.w3.org/2000/svg"><g fill="none" fill-rule="evenodd"><path d="M0 0h40v40H0z"/><g fill="currentColor" fill-rule="nonzero"><path d="M23.942 12.815c0 4.314-3.528 7.815-7.884 7.815-4.357 0-7.885-3.501-7.885-7.815S11.701 5 16.058 5a7.892 7.892 0 015.987 2.73l1.513-1.309A9.892 9.892 0 0016.058 3C10.6 3 6.173 7.392 6.173 12.815c0 5.422 4.427 9.815 9.885 9.815 5.457 0 9.884-4.393 9.884-9.815 0-.631-.06-1.255-.178-1.866l-.157-.81H17.858c-1.307 0-2.788-1.073-3.523-2.597l-1.801.869c1.049 2.174 3.192 3.728 5.324 3.728h6.055c.02.224.03.45.03.676zM32.37 29.205C34.585 29.948 36 31.77 36 34v4h2v-4c0-3.12-1.991-5.684-4.993-6.691l-.636 1.896zM20 38v-4c0-2.155 1.557-4.02 3.856-4.794l-.638-1.895C20.154 28.34 18 30.922 18 34v4h2z"/><path d="M28.115 31.444c3.705 0 6.712-2.983 6.712-6.666 0-3.684-3.007-6.667-6.712-6.667-3.705 0-6.711 2.983-6.711 6.667 0 3.683 3.006 6.666 6.711 6.666zm0-2c-2.603 0-4.711-2.09-4.711-4.666 0-2.576 2.108-4.667 4.711-4.667 2.604 0 4.712 2.091 4.712 4.667 0 2.575-2.108 4.666-4.712 4.666zM4 38V26c0-2.296 1.744-4.33 5.432-6.098l-.864-1.804C4.256 20.165 2 22.798 2 26v12h2z"/></g></g></svg>