<svg width="40" height="40" xmlns="http://www.w3.org/2000/svg"><g fill="none" fill-rule="evenodd"><path d="M0 0h40v40H0z"/><path d="M28.661 2.442l1.092.867.263.223c.287.248.604.538.945.868.97.94 1.94 2.014 2.845 3.21 3.722 4.915 5.295 10.306 3.41 15.83-1.15 3.361-3.008 6.155-5.457 8.36l-.354.311-.1.076c-.458.303-1.167.648-2.045 1.011l-.61.245c-.315.123-.649.248-.995.373l-.712.252a58.92 58.92 0 01-.367.125l-.757.25-.78.248-.797.244-.81.238-.409.116-.82.227-.818.216-.813.206-.801.192-.785.178-.385.083-.75.153a39.56 39.56 0 01-1.065.195l-.665.104c-.969.14-1.79.205-2.381.168l-.004.037a16.183 16.183 0 01-3.812-.993 4.917 4.917 0 01-.376-.085l-.19-.055.027-.088a13.641 13.641 0 01-3.171-1.975c-1.45-1.209-2.346-2.43-2.795-3.33l-.08-.166-.618-1.35 2.548-.113-.081-.028a7.161 7.161 0 00-1.058-.26l-.237-.031-1.48-.16.707-1.31c1.58-2.925 4.43-4.327 9.206-4.438l.205-.003.167-.245c1.017-1.462 2.439-2.75 3.63-3.254l.197-.077.243-.087.255.042c1.433.234 2.717.557 4.202 1.026l.888.292 2.089.7c.828.265 1.474.434 2.084.538 1.2.203 2.274.143 3.442-.237 2.824-1.328 4.061-3.528 3.118-6.43l-.076-.222 1.882-.675c1.479 4.118-.257 7.268-3.917 9.057l.012.033-.335.118c-.94.427-1.997.767-3.15 1.017-2.482.536-5.241.64-8.553.466l-.628-.036.123-1.996c1.753.107 3.34.14 4.795.076l-1.833-.618c-1.46-.48-2.672-.811-3.973-1.05l-.212-.038-.092.046c-.867.46-2.033 1.6-2.793 2.82l-.138.23-.29.504-.581-.003c-3.683-.019-5.936.675-7.335 2.17l-.082.09.311.101c1.107.377 2.273.968 3.253 1.723l.288.232 1.98 1.66-5.448.225.045.058c.315.38.674.759 1.081 1.125l.315.272a11.689 11.689 0 002.967 1.799c2.379.284 5.037-2.437 4.773-6.204l-.02-.238 1.99-.203c.336 3.308-1.117 6.13-3.192 7.594.507.05 1.43-.057 2.588-.272l.617-.12.652-.138.684-.154.71-.169.73-.18.744-.194.754-.202.76-.212.757-.218 1.122-.336.732-.229.711-.23.687-.23.656-.23c.106-.037.211-.075.314-.113l.6-.223.557-.219c.71-.287 1.288-.556 1.678-.79l.084-.055.285-.25c2.081-1.877 3.685-4.23 4.729-7.056l.16-.45c1.634-4.79.248-9.54-3.112-13.976a26.036 26.036 0 00-2.256-2.6l-.386-.38-.139-.134-.04.123c-.375 1.2-.578 2.408-.528 3.524l.023.332c.09.968.381 1.805.9 2.496l.161.203 1.208 1.42-1.85.221c-2.312.276-3.724.912-5.237 3.05l-.173.249.11.03c1.494.387 3.03.53 4.453.302l.354-.065a6.425 6.425 0 002.14-.844l.27-.18 1.158 1.63c-.945.67-2.008 1.114-3.162 1.353-1.866.387-3.825.23-5.715-.26l-.433-.12-.197-.058-.353-.113-.297-.104a7.505 7.505 0 01-.125-.048l-1.166-.483.575-.988c1.78-3.056 3.449-4.393 5.756-5.005l.274-.069-.052-.11a7.145 7.145 0 01-.556-2.013l-.034-.309c-.14-1.508.102-3.087.588-4.638l.078-.243.154-.445c.05-.14.1-.269.147-.388l.136-.328.063-.139.6-1.245z" fill="currentColor" fill-rule="nonzero"/></g></svg>