<svg width="40" height="40" xmlns="http://www.w3.org/2000/svg"><g fill="none" fill-rule="evenodd"><path d="M0 0h40v40H0z"/><path d="M25.59 3l6.82 3.925-2.384 4.116.137.146.135.148.133.15.13.152.128.154.126.156.124.157.122.16.119.16.117.164.115.165.112.166.11.168.107.17.105.172.103.173.1.175.098.176.095.178.092.18.09.18.088.183.085.184.082.185.08.187.076.188.074.19.071.19.069.193.065.193.063.195.06.196H38v7.85h-4.762l-.06.196-.064.195-.065.193-.069.193-.07.19-.075.19-.077.188-.08.187-.081.185-.085.184-.088.183-.09.18-.092.18-.095.178-.098.176-.1.175-.103.173-.105.172-.107.17-.11.168-.112.166-.115.165-.117.163-.12.161-.12.16-.125.157-.126.156-.128.154-.13.152-.133.15-.135.148-.137.146 2.384 4.116L25.59 38l-2.382-4.11-.193.043-.195.042-.195.04-.197.036-.197.033-.2.03-.198.029-.2.025-.202.022-.202.02-.203.016-.203.013-.205.01-.205.008-.206.005-.207.001-.207-.001-.206-.005-.205-.007-.205-.01-.203-.014-.203-.017-.202-.019-.201-.022-.2-.025-.2-.028-.199-.03-.197-.034-.197-.036-.195-.04-.195-.042-.193-.044L14.41 38l-6.82-3.925 2.384-4.116-.137-.146-.135-.148-.133-.15-.13-.152-.128-.154-.126-.156-.124-.157-.122-.16-.119-.16-.117-.164-.115-.165-.112-.166-.11-.168-.107-.17-.105-.172-.103-.173-.1-.175-.098-.176-.095-.178-.092-.18-.09-.18-.088-.183-.085-.184-.082-.185-.08-.187-.076-.188-.074-.19-.071-.19-.069-.193-.065-.193-.063-.195-.06-.196H2v-7.85h4.762l.06-.196.064-.195.065-.193.069-.193.07-.19.075-.19.077-.188.08-.187.081-.185.085-.184.088-.183.09-.18.092-.18.095-.178.098-.176.1-.175.103-.173.105-.172.107-.17.11-.168.112-.166.115-.165.117-.163.12-.161.12-.16.125-.157.126-.156.128-.154.13-.152.133-.15.135-.148.137-.146L7.59 6.925 14.41 3l2.382 4.11.193-.043.195-.042.195-.04.197-.036.197-.033.2-.03.198-.029.2-.025.202-.022.202-.02.203-.016.203-.013.205-.01.205-.008.206-.005.207-.001.207.001.206.005.205.007.205.01.203.014.203.017.202.019.201.022.2.025.2.028.199.03.197.034.197.036.195.04.195.042.193.044L25.59 3zm.773 2.891l-2.105 3.635-1.52-.347-.168-.038-.166-.036-.164-.034-.165-.03-.165-.029-.173-.026-.167-.024-.169-.021-.17-.02-.176-.016-.166-.014-.173-.012-.18-.009-.169-.007-.175-.004-.177-.001h-.176l-.17.004-.18.007-.174.009-.168.01-.176.015-.171.016-.17.018-.168.02-.173.025-.166.025-.166.028-.165.03-.168.034-.168.036-1.714.39-2.105-3.634-3.148 1.812 2.108 3.64-1.08 1.151-.115.122-.113.123-.113.128-.111.13-.11.13-.105.13-.108.137-.1.13-.104.14-.097.136-.098.14-.096.142-.093.143-.09.141-.088.143-.089.15-.084.146-.083.15-.08.147-.08.157-.075.15-.074.155-.072.154-.07.156-.066.157-.067.163-.061.155-.061.163-.057.16-.057.168-.053.162-.52 1.694h-4.21v3.608h4.21l.46 1.498.05.164.054.168.054.162.059.164.058.156.064.165.064.158.067.157.069.157.072.156.072.151.079.159.076.148.08.152.082.147.086.151.086.145.087.144.091.144.094.143.096.143.094.136.103.143.096.131.106.139.103.132.108.133.109.131.11.13.111.125.112.124 1.218 1.297-2.108 3.64 3.148 1.812 2.105-3.635 1.52.347.168.038.166.036.164.034.165.03.165.029.173.026.167.024.169.021.17.02.176.016.166.014.173.012.18.009.169.007.175.004.177.001h.176l.17-.004.18-.007.174-.009.168-.01.176-.015.171-.016.17-.018.168-.02.173-.025.166-.025.166-.028.165-.03.168-.034.168-.036 1.714-.39 2.105 3.634 3.148-1.812-2.108-3.64 1.08-1.151.115-.122.113-.123.113-.128.111-.13.11-.13.105-.13.108-.137.1-.13.104-.14.097-.136.098-.14.096-.142.093-.143.09-.141.088-.143.089-.15.084-.146.083-.15.08-.147.08-.157.075-.15.074-.155.072-.154.07-.156.066-.157.067-.163.061-.155.061-.163.057-.16.057-.168.053-.162.52-1.694h4.21v-3.608h-4.21l-.46-1.498-.05-.164-.054-.168-.054-.162-.059-.164-.058-.156-.064-.165-.064-.158-.067-.157-.069-.157-.072-.156-.072-.151-.079-.159-.076-.148-.08-.152-.082-.147-.086-.151-.086-.145-.087-.144-.091-.144-.094-.143-.096-.143-.094-.136-.103-.143-.096-.131-.106-.139-.103-.132-.108-.133-.109-.131-.11-.13-.111-.125-.112-.124-1.218-1.297 2.108-3.64-3.148-1.812zM20 14a6 6 0 110 12 6 6 0 010-12zm0 2a4 4 0 100 8 4 4 0 000-8z" fill="currentColor" fill-rule="nonzero"/></g></svg>