<svg width="40" height="40" xmlns="http://www.w3.org/2000/svg"><g fill="none" fill-rule="evenodd"><path d="M0 0h40v40H0z"/><g fill="currentColor" fill-rule="nonzero"><path d="M18 23.5A7.5 7.5 0 113 23.5a7.5 7.5 0 0115-.002zm-2 0a5.5 5.5 0 10-11 .002 5.5 5.5 0 0011-.003zM37 23.5a7.5 7.5 0 11-15 .001 7.5 7.5 0 0115-.002zm-2 0a5.5 5.5 0 10-11 .002 5.5 5.5 0 0011-.003z"/><path d="M17.508 22.083a4.9 4.9 0 012.493-.662c.907 0 1.767.234 2.49.661a1 1 0 001.018-1.721A6.888 6.888 0 0020 19.42a6.9 6.9 0 00-3.509.94 1 1 0 001.016 1.722zM34.325 10.513c.263 1.261.53 2.89.794 4.798a214.02 214.02 0 01.905 7.783l1.99-.188c-.011-.124-.034-.355-.066-.678-.054-.538-.116-1.137-.187-1.782-.2-1.843-.423-3.686-.661-5.409-.632-4.564-1.205-7.309-1.936-8.185a1.427 1.427 0 00-.467-.377c-.617-.304-1.44-.44-2.453-.47-.663-.018-1.364.01-2.053.07-.325.027-.576.056-.723.075l.264 1.983c.118-.016.338-.04.63-.066a16.18 16.18 0 011.823-.062c.65.019 1.173.093 1.494.208.15.287.4 1.123.646 2.3zM7.835 8.005c.576-.017 1.203.009 1.822.062.292.025.512.05.63.066l.264-1.983a16.61 16.61 0 00-.723-.076 18.104 18.104 0 00-2.051-.068c-1.014.03-1.836.165-2.453.468a1.434 1.434 0 00-.477.39c-.725.883-1.298 3.629-1.927 8.173a190.192 190.192 0 00-.662 5.41 216.03 216.03 0 00-.254 2.46l1.992.187c.01-.12.033-.348.065-.666.054-.533.116-1.126.185-1.765.2-1.826.42-3.65.655-5.352.515-3.722 1.074-6.458 1.438-7.097.32-.115.844-.19 1.496-.209zM12.293 20.293l-5 5 1.414 1.414 5-5zM7.707 23.707l3-3-1.414-1.414-3 3zM31.293 20.293l-5 5 1.414 1.414 5-5zM26.707 23.707l3-3-1.414-1.414-3 3z"/></g></g></svg>