<svg width="40" height="40" xmlns="http://www.w3.org/2000/svg"><g fill="currentColor" fill-rule="evenodd"><path d="M29 32v1.681c0 .691-.624 1.32-1.308 1.32H12.308A1.31 1.31 0 0111 33.68V6.318C11 5.628 11.625 5 12.308 5h15.384C28.375 5 29 5.627 29 6.318V22h2V6.318C31 4.525 29.482 3 27.692 3H12.308C10.518 3 9 4.525 9 6.318v27.363a3.31 3.31 0 003.308 3.32h15.384C29.483 37 31 35.473 31 33.68V32h-2z"/><path d="M24.598 20.553C23.592 20.83 22.088 21 20 21c-2.089 0-3.592-.17-4.598-.447a7.346 7.346 0 01-.308-.09c.021-.117.046-.243.074-.378.169-.803.412-1.605.738-2.345.614-1.39 1.442-2.374 2.487-2.82l-.786-1.84c-1.583.677-2.73 2.04-3.53 3.853-.389.879-.67 1.81-.866 2.741-.118.56-.181 1.001-.207 1.268l-.046.49.36.335c.256.24.749.494 1.556.715 1.192.327 2.87.518 5.126.518 2.256 0 3.934-.19 5.126-.518.807-.22 1.3-.476 1.556-.715l.36-.335-.046-.49a12.073 12.073 0 00-.207-1.268 13.874 13.874 0 00-.865-2.741c-.8-1.813-1.948-3.176-3.53-3.852l-.787 1.838c1.045.447 1.873 1.43 2.487 2.821.326.74.57 1.542.738 2.345.028.135.053.261.074.377-.087.028-.19.059-.308.091z" fill-rule="nonzero"/><path d="M20 16a4 4 0 110-8 4 4 0 010 8zm0-2a2 2 0 100-4 2 2 0 000 4z" fill-rule="nonzero"/><path d="M35.49 19.8l-10.009 9.968-4.557-4.615-1.424 1.404 5.967 6.045 11.432-11.384z"/></g></svg>