<svg width="40" height="40" xmlns="http://www.w3.org/2000/svg"><g fill="none" fill-rule="evenodd"><path d="M0 0h40v40H0z"/><g transform="translate(7 3)" fill="currentColor"><path d="M2-1h16a3 3 0 013 3v30a3 3 0 01-3 3H2a3 3 0 01-3-3V2a3 3 0 013-3zm0 2a1 1 0 00-1 1v30a1 1 0 001 1h16a1 1 0 001-1V2a1 1 0 00-1-1H2z" fill-rule="nonzero"/><circle cx="10.5" cy="30.5" r="1.5"/><path fill-rule="nonzero" d="M1 28h18v-2H1zM8.27 8.086l-3.704 6.2h8.411l-2.184 4.063 8.746 4.539.922-1.776-6.946-3.604 2.808-5.222H8.091l2.953-4.943-7.557-4.216-.974 1.746zM28.553 9.106l-4 2 .894 1.788 4-2zM24.4 21.8l4 3 1.2-1.6-4-3zM31 16h-5v2h5z"/></g></g></svg>