<svg width="40" height="40" xmlns="http://www.w3.org/2000/svg"><g fill="none" fill-rule="evenodd"><path d="M0 0h40v40H0z"/><path d="M33 22a5 5 0 110 10 5 5 0 010-10zm-29.265.255l1.334 1.49a3.205 3.205 0 104.546 4.505l.124-.152 1.58 1.227a5.205 5.205 0 11-7.773-6.893l.189-.177zM33 24a3 3 0 100 6 3 3 0 000-6zM25.578 9l5.841 10.141c.43-.078.872-.124 1.323-.137L33 19c.732 0 1.687.15 2.886.448l.333.084-.504 1.936C34.509 21.154 33.595 21 33 21c-3.257 0-5.849 2.257-5.97 4.83l-.005.19v3.01H12.604L2 19.111v-6.04l16-.077V14c0 2.94-2.103 5.39-4.923 6.444a5.62 5.62 0 005.383 4.01c3.045 0 5.422-2.26 5.536-5.23L24 19v-4h2v4c0 4.193-3.322 7.454-7.54 7.454a7.618 7.618 0 01-7.326-5.528 8.773 8.773 0 01-.886.07L10 21v-2c2.742 0 5.192-1.665 5.836-3.862l.034-.133L4 15.062v3.181l9.393 8.786h11.632v-1.01c0-2.705 1.809-5.11 4.433-6.276l-5.037-8.744L22 11V9h3.578zM10 16v2H5v-2h5zm20.868-3.497l1.827 3.189-1.735.994-1.828-3.189 1.736-.994z" fill="currentColor" fill-rule="nonzero"/></g></svg>