<svg width="40" height="40" xmlns="http://www.w3.org/2000/svg" xmlns:xlink="http://www.w3.org/1999/xlink"><defs><path d="M10 32.83l.747-.897c5.076 1.392 10.663-.412 14.07-4.472 4.56-5.46 3.778-13.714-1.953-18.287l-1.042-.762L26.56 3l.959.702C31.6 6.862 34 11.657 34 16.922 34 26.395 26.2 34 16.48 34c-2.16 0-4.32-.35-6.48-1.17zm-3.56-2.528C2.342 27.038 0 22.143 0 17.015 0 7.576 7.61 0 17.092 0c2.46 0 4.8.466 6.908 1.514l-.771.847C17.913.715 12.285 2.216 8.83 6.513c-4.448 5.568-3.557 13.54 2.034 18.221l1.017.76L7.258 31l-.818-.698z" id="a"/></defs><g fill="none" fill-rule="evenodd"><path d="M0 0h40v40H0z"/><use fill="currentColor" fill-rule="nonzero" xlink:href="#a" transform="translate(3 3)"/></g></svg>