<svg width="40" height="40" xmlns="http://www.w3.org/2000/svg"><g fill="none" fill-rule="evenodd"><path d="M0 0h40v40H0z"/><path d="M20.032 2c1.63 0 3.177.55 4.424 1.538l.23.19-1.306 1.515a5.13 5.13 0 101.66 2.762l-.03-.117h-3.563c-1.513 0-2.645-.366-3.418-1.018l-.15-.135c-.469-.446-.711-.919-.804-1.315l-.025-.13 1.975-.314c.003.018.062.148.233.31.352.335.967.568 1.954.6l.235.003h4.98l.345.912a7.12 7.12 0 01.39 2.328c0 1.61-.534 3.095-1.434 4.288 1.907.747 3.177 2.295 3.267 4.348L29 18v9c0 1.988-1.834 3.882-3.814 3.995L25 31h-7c-1.566 0-3.03-1.452-3-3.018.027-1.482 1.364-2.879 2.836-2.977L18 25h4.999L23 19.258h2V27h-7c-.434 0-.992.561-1 1.019-.008.404.466.904.9.973L18 29h7c.902 0 1.904-.96 1.994-1.87L27 27v-9c0-1.537-1.093-2.628-2.873-2.97l-.075-.012a7.096 7.096 0 01-4.02 1.24 7.098 7.098 0 01-3.267-.791 3.553 3.553 0 00-1.704 2.842l-.006.197v1.72a8.509 8.509 0 011.688-.222L17 20v2c-3.715 0-7 3.264-7 6.83 0 1.579.62 3.067 1.728 4.225 1.123 1.173 2.934 1.873 4.952 1.94L17 35v2c-.683 0-1.353-.06-2-.176V38h-2v-1.753c-1.05-.43-1.978-1.038-2.717-1.81C8.825 32.915 8 30.934 8 28.83c0-3.318 2.109-6.375 5.055-7.87v-2.454c0-1.694.764-3.241 2.002-4.272A7.13 7.13 0 0120.032 2zM27 32v6h-2v-6h2zm-5.176-21.676l1.414 1.415a4.192 4.192 0 01-2.972 1.23 4.193 4.193 0 01-2.798-1.065l-.175-.165 1.414-1.415c.419.419.976.644 1.559.644.518 0 1.016-.178 1.414-.511l.144-.133z" fill="currentColor" fill-rule="nonzero"/></g></svg>