<svg width="37" height="37" xmlns="http://www.w3.org/2000/svg"><g fill="none" fill-rule="evenodd"><path d="M-1-1h40v40H-1z"/><path d="M31.647 33.566c.02-.022.02-.022.039-.04l.09-.093.293-.298.873-.887c.697-.708 1.079-1.096 1.208-1.232.453-.47.662-.95.662-1.408 0-.45-.205-.906-.661-1.358l-4.436-4.45-.026-.026c-.421-.439-.855-.638-1.289-.638-.441 0-.895.204-1.352.66l-2.563 2.554c-1.653 1.626-5.273-.64-8.805-3.703-2.772-2.403-5.756-7.108-4.544-9.036l.144-.23.2-.182c.218-.199.599-.57 1.092-1.061l.049-.049c.43-.43 1.44-1.448 1.348-1.356.915-.915.915-1.845-.007-2.767-2.593-2.619-4.096-4.12-4.462-4.46-.421-.417-.86-.61-1.3-.61-.451 0-.916.202-1.334.603L4.102 6.285A3.901 3.901 0 002.928 8.79c-.132 1.612.208 3.223.917 5.133 1.23 3.317 3.074 6.394 5.839 9.716 3.36 4.012 7.394 7.17 11.985 9.387 2.434 1.153 4.352 1.781 6.35 1.91.211.01.32.014.413.014 1.31 0 2.338-.439 3.18-1.346.043-.06.04-.053.035-.038zm-.516-11.178l4.436 4.45c.816.808 1.245 1.769 1.245 2.77 0 .994-.42 1.963-1.22 2.795-.348.363-2.49 2.528-2.497 2.544-1.228 1.332-2.796 2.003-4.663 2.003-.161 0-.339-.008-.509-.017-2.771-.177-5.252-1.22-7.11-2.1-4.865-2.35-9.123-5.685-12.662-9.909-2.917-3.505-4.873-6.776-6.182-10.305C1.436 13.18.741 10.984.935 8.626A5.907 5.907 0 012.69 4.87l2.763-2.786C6.26 1.31 7.213.897 8.199.897s1.923.412 2.707 1.187c.35.323 1.843 1.815 4.477 4.474 1.697 1.696 1.697 3.893 0 5.59-.227.225-1.891 1.921-2.554 2.527-.404.643 2.077 4.655 4.16 6.461 2.085 1.807 5.748 4.128 6.094 3.788l2.554-2.544c.816-.816 1.77-1.244 2.763-1.244 1.002 0 1.947.436 2.731 1.252z" fill="currentColor" fill-rule="nonzero"/></g></svg>