<svg width="40" height="40" xmlns="http://www.w3.org/2000/svg"><g fill="currentColor" fill-rule="nonzero"><path d="M7.019 13.697a1.675 1.675 0 01-2.481 0c-.723-.764-.723-2.025 0-2.789L3.083 9.534c-1.451 1.535-1.451 4.002 0 5.537a3.675 3.675 0 005.388 0L7.02 13.697z"/><path d="M27 27.721l.698-.221c2.646-.838 4.41-2.692 5.264-5.767l.203-.733H36v-3h-3l-.249-.637c-.985-2.527-2.723-4.246-5.107-5.156L27 11.962V7.47a5.668 5.668 0 00-3.062 1.465 6.062 6.062 0 00-.918 1.062 3.71 3.71 0 00-.258.429l-.27.574h-6.635C11.115 11 7 15.105 7 19.853c0 3.416 1.508 5.673 4.508 7.44l.492.29V32h3v-4h9v4h3v-4.279zm2 1.438V34h-7v-4h-5v4h-7v-5.285c-3.254-2.075-5-4.875-5-8.862C5 14 10.012 9 15.857 9h5.416a7.927 7.927 0 011.311-1.537c1.4-1.288 3.206-2.066 5.416-2.066h1v5.21c2.388 1.078 4.214 2.898 5.346 5.393H38v7h-3.336c-1.03 3.047-2.958 5.096-5.664 6.16z"/><path d="M23 13h-7v2h7z"/></g></svg>