<svg width="40" height="40" xmlns="http://www.w3.org/2000/svg"><g fill="none" fill-rule="evenodd"><path d="M0 0h40v40H0z"/><path d="M19.787 23C21.591 23 23 24.592 23 26.5S21.59 30 19.787 30H5.213C3.41 30 2 28.408 2 26.5S3.41 23 5.213 23zm2.92-12.707L34.425 22.01l-2.904 2.818-.141.136 2.648 2.648.012-.007c.205-.143.439-.35.764-.677l.73-.769 1.745-1.853 1.442 1.386-2.167 2.304c-.651.683-1.071 1.065-1.528 1.355-.748.475-1.453.628-2.74.646L32 30h-7v-2h6.585l-1.81-1.81a6.54 6.54 0 01-1.069.493 5.076 5.076 0 01-1.48.308l-.2.009c-.046 0-.184.002-.406.002L23.998 27l.004-2h2.971c.347-.009.643-.052 1.065-.202.603-.214 1.226-.59 1.865-1.186l1.671-1.623L26 16.415 22.414 20H8c-.623 0-1.319.422-1.494 1.036l-.293 1.05-1.927-.536.296-1.063c.428-1.498 1.846-2.409 3.237-2.482L8 18h13.584v-.001L20.585 17H18v-2h3.414L23 16.584l1.585-1.585-3.291-3.292 1.414-1.414zM19.787 25H5.213C4.573 25 4 25.646 4 26.5S4.572 28 5.213 28h14.574c.641 0 1.213-.646 1.213-1.5s-.572-1.5-1.213-1.5z" fill="currentColor" fill-rule="nonzero"/></g></svg>