<svg width="40" height="40" xmlns="http://www.w3.org/2000/svg"><path d="M35.576 4.72l-.5.033.5-.04-.015-.183c-.035-.432-.064-.79-.082-1.058L35.376 2l-2.263.998C29.936 4.38 22.497 7.616 19.967 9.932a9.557 9.557 0 00-2.531 10.333l.17.47 1.947-.704-.17-.47a7.49 7.49 0 011.98-8.101c2.18-1.995 8.89-4.96 12.165-6.385.277 3.454.87 11.063.13 13.92a7.431 7.431 0 01-3.469 4.58 7.508 7.508 0 01-5.742.787 7.97 7.97 0 01-1.331-.504L24.77 21.2l6.127-1.496-.49-2.011-4.07.994 3.157-5.067-1.756-1.094-3.262 5.23-1.003-4.114-2.01.49 1.482 6.083-5.926 9.507-3.027-4.161a4.64 4.64 0 00.315-.353 6.005 6.005 0 001.27-4.4c-.165-1.45-.859-2.73-1.957-3.6-1.359-1.08-4.786-2.198-7.13-2.963-.449-.146-.81-.263-1.032-.343L4.071 13.4l.001 1.476c0 .233-.01.602-.023 1.06-.083 3.023-.12 6.104.395 7.642.687 2.047 2.685 3.48 5.091 3.65l.5.035.144-2.066-.499-.036c-1.285-.09-2.795-.818-3.273-2.242-.418-1.247-.345-4.81-.297-6.62 1.803.589 5.192 1.713 6.224 2.532.663.527 1.084 1.312 1.186 2.21a3.918 3.918 0 01-.78 2.799l-2.256-3.102-1.674 1.217 7.028 9.663-3.56 5.712 1.757 1.094 7.98-12.801a10.09 10.09 0 001.904.74c2.455.65 5.113.29 7.316-1a9.493 9.493 0 004.426-5.846c.843-3.248.215-11.05-.086-14.797" fill="currentColor" fill-rule="evenodd"/></svg>