<svg width="40" height="40" xmlns="http://www.w3.org/2000/svg"><g fill="none" fill-rule="evenodd"><path d="M0 0h40v40H0z"/><path d="M22.231 2.36a1 1 0 011.355-.17c.86.622 1.454 1.86 1.898 3.731a1 1 0 01-.009.497L23.113 15h13.91a1 1 0 011 1v6a1 1 0 01-.073.373l-6.022 15A1 1 0 0131 38H15a1 1 0 01-.555-.168l-3-2A1 1 0 0111 35V16.222a1 1 0 01.231-.64zm.733 2.247L13 16.584v17.88L15.303 36h15.02l5.7-14.193V17H21.8a1 1 0 01-.964-1.265l2.642-9.597a9.146 9.146 0 00-.514-1.53zM9.022 17v19h-7V17h7zm-2 2h-3v15h3V19z" fill="currentColor" fill-rule="nonzero"/></g></svg>