<svg width="40" height="40" xmlns="http://www.w3.org/2000/svg"><g fill="currentColor" fill-rule="nonzero"><path d="M19.102 26.996l5.253 1.136.422-1.955-5.748-1.243-5.994 1.752 3.424 3.213 1.368-1.459-.87-.817z"/><path d="M17.142 35.328l-9.115-1.036-4.804-4.513 6.264-1.763 3.16 1.701 2.348-.686 16.75-4.894 5.648 1.214.167.572a3.346 3.346 0 01-2.273 4.15l-7.302 2.135-5.04 5.37-6.013 1.758 1.078-4.248-.868.24zm1.618-3.195l1.939.492-.967 3.809 2.127-.622 5.04-5.37.263-.077 7.564-2.211c.531-.155.894-.609.959-1.124l-3.866-.831-16.263 4.752-3.135.916-3.17-1.707-2.078.585 1.74 1.634 8.07.918 1.594-.44.183-.724zM23.989 21a.995.995 0 00-.752.354 1 1 0 10.752-.354zm.046 4a3 3 0 11-.07-6 3 3 0 01.07 6zM19.92 6.733C19.448 4.037 16.966 2 14.001 2c-2.966 0-5.448 2.037-5.92 4.733C5.214 7.15 3 9.485 3 12.333 3 15.479 5.7 18 9 18h1.965v-2H9c-2.224 0-4-1.658-4-3.667s1.776-3.666 4-3.666h1v-1C10 5.657 11.776 4 14.001 4c2.224 0 4 1.658 4 3.667v1h1c2.224 0 4 1.657 4 3.666 0 .971-.414 1.884-1.147 2.57l1.364 1.46c1.131-1.055 1.783-2.492 1.783-4.03 0-2.847-2.214-5.183-5.08-5.6z"/><path d="M19 17a2 2 0 10-4 0 2 2 0 004 0zm2 0a4 4 0 11-8 0 4 4 0 018 0z"/></g></svg>