<svg width="40" height="40" xmlns="http://www.w3.org/2000/svg"><g fill="currentColor" fill-rule="evenodd"><path d="M5 5v30h30V5H5zM3 3h34v34H3V3z" fill-rule="nonzero"/><path d="M16.764 26.797c6.407 0 9.91-5.307 9.91-9.91l-.003-.288a.31.31 0 01.121-.257c.52-.394.986-.86 1.378-1.382.07-.092-.024-.218-.132-.177a6.992 6.992 0 01-1.526.385c-.025.003-.038-.031-.016-.045a3.504 3.504 0 001.295-1.497.141.141 0 00-.195-.183 6.996 6.996 0 01-1.709.623.307.307 0 01-.279-.08 3.484 3.484 0 00-5.866 3.076.173.173 0 01-.181.201 9.884 9.884 0 01-6.75-3.383.213.213 0 00-.354.047 3.478 3.478 0 001.136 4.297c.026.019.012.06-.02.059a3.453 3.453 0 01-1.26-.325.141.141 0 00-.2.138 3.487 3.487 0 002.664 3.188c.032.008.031.051 0 .058a3.487 3.487 0 01-1.258.06.116.116 0 00-.125.156 3.49 3.49 0 002.886 2.214c.103.01.14.142.055.203a6.988 6.988 0 01-4.079 1.306h-.071c-.192 0-.256.256-.088.346a9.849 9.849 0 004.667 1.17"/></g></svg>