<svg width="40" height="40" xmlns="http://www.w3.org/2000/svg"><g fill="currentColor" fill-rule="nonzero"><path d="M27.5 16.478c2.3 0 4.44.804 6.125 2.194-1.477-6.124-7.136-10.769-13.724-10.769-6.609 0-12.145 4.606-13.554 10.812 1.705-1.408 3.88-2.237 6.153-2.237a9.603 9.603 0 017.503 3.588c1.806-2.214 4.572-3.588 7.497-3.588zm0 2c-2.723 0-5.292 1.519-6.634 3.847h-1.732c-1.362-2.362-3.849-3.847-6.634-3.847-2.723 0-5.292 1.519-6.634 3.847L4 21.826c0-8.82 7.125-15.923 15.901-15.923C28.678 5.903 36 13.104 36 21.826l-1.866.5c-1.362-2.363-3.849-3.848-6.634-3.848zM19.004 33.43c0 1.227-.978 2.215-2.182 2.215s-2.182-.988-2.182-2.216h-2c0 2.327 1.869 4.216 4.182 4.216 2.313 0 4.182-1.889 4.182-4.216h-2z"/><path d="M19 21.336v12.34h2v-12.34zM21 6.95V2h-2v4.95z"/></g></svg>