<svg width="40" height="40" xmlns="http://www.w3.org/2000/svg"><g fill="none" fill-rule="evenodd"><path d="M0 0h40v40H0z"/><g fill="currentColor"><path d="M20 38c9.941 0 18-8.059 18-18S29.941 2 20 2 2 10.059 2 20s8.059 18 18 18zm0-2c-8.837 0-16-7.163-16-16S11.163 4 20 4s16 7.163 16 16-7.163 16-16 16z" fill-rule="nonzero"/><path fill-rule="nonzero" d="M18.102 4.927l-4.287 1.8-1.97 3.247 1.827 3.311 3.241-1.435H20v-2h-3.51l-1.952.865-.383-.693 1.033-1.701 4.914-2.065V3h-2zM12.737 16.18l.126-.112-.068.05-.058.062zm-1.908 1.417l2.058 6.352H16.5l.646-.163v.612l1.365 1.692-.687 1.94 2.189 6.25 4.493-1.6.666-2.25 2.127-1.96v-3.14l3.347-4.04-3.605-1.436-1.992-4.358-3.476-1.64-1.223.808-1.895-.615-.618 1.902 2.811.913 1.09-.72 1.796.849 2.022 4.422 1.796.716-2.053 2.478v2.984l-1.888 1.74-.534 1.804-1.641.584-1.291-3.687.824-2.33-1.623-2.012V21.22l-2.894.73H14.34l-1.17-3.612.894-.672.126-.112 1.764-1.867-1.454-1.374-1.706 1.806-1.966 1.478zM28.044 17.523l3.52-1.515.442-1.225.344-.137 3.86 4.968 1.58-1.228-4.782-6.154-2.577 1.026-.454 1.256-.915.394-1.604-3.57-3.972-2.212-.972 1.748 3.392 1.888z"/><path d="M28 31.157l.56-1.866L30 27v2.712L29 32z"/><path fill-rule="nonzero" d="M11 27.34v-3.184l-2.93-1.444-2.866-1.82-2.545.923.682 1.88 1.62-.587 2.083 1.322.094.052L9 25.4v1.536l-1.15 2.731V33h2v-2.929zM6.943 12.368l-1.613 4.01-2.575.653.49 1.938 3.562-.9 2.25-5.597L7.96 8.719l-1.92.562z"/></g></g></svg>