<?xml version="1.0" encoding="utf-8"?><svg xmlns="http://www.w3.org/2000/svg" xmlns:xlink="http://www.w3.org/1999/xlink"><symbol viewBox="0 0 70 50" id="icon-report-building-50" xmlns="http://www.w3.org/2000/svg"><g fill="none" fill-rule="evenodd"><path fill="#005AA0" d="M54.508 33.163l1.142-1.642-20.61-14.337L14.428 31.52l1.142 1.642L35.04 19.62z"/><path fill="#005AA0" d="M19 28.697v16.749h2v-16.75zm30 0v16.749h2v-16.75zM43 34v11.01h2V32h-8v13.01h2V34zm-18 7v-9h9v9h-9zm7-2v-5h-5v5h5z"/><path fill="#005AA0" d="M16 47h11v-2H16zm17 0h22v-2H33zM21.37 5.04c2.035 1.543 3.287 3.59 3.427 6.257l1.999-.077c-.011-.845.238-2.104.99-3.336a6.17 6.17 0 011.442-1.632c.25 1.648.744 2.863 1.492 3.958.193.282.77 1.043.823 1.118.344.484.481.816.507 1.298.068 1.31-.245 2.084-1.142 2.931l1.372 1.455c1.323-1.249 1.866-2.593 1.767-4.49-.048-.906-.327-1.584-.873-2.353-.082-.115-.644-.856-.803-1.088-.768-1.123-1.193-2.403-1.307-4.577l-.079-1.507-1.357.66c-1.566.762-2.737 1.855-3.548 3.184-.093.151-.18.304-.261.458-.732-1.51-1.841-2.792-3.24-3.852a13.873 13.873 0 00-2.843-1.655 10.556 10.556 0 00-1.333-.492L17.068.934l.072 1.383c.184 3.505-.691 5.594-3.068 8.744-.021.028-.646.852-.826 1.093-1.985 2.66-2.793 4.539-2.651 7.247.145 2.76 1.107 4.873 2.625 6.386 1.01 1.008 2.032 1.556 2.764 1.78l.585-1.913a3.577 3.577 0 01-.554-.251 5.938 5.938 0 01-1.383-1.032c-1.171-1.168-1.921-2.815-2.04-5.074-.112-2.145.525-3.626 2.257-5.947.174-.233.794-1.05.82-1.084 2.29-3.037 3.382-5.325 3.487-8.543.757.347 1.51.784 2.214 1.318z"/><path d="M20 15.672l1.244 1.566c3.343-2.657 2.868-6.323.33-9.305l-1.15-1.352-.56 1.685c-.42 1.262-.979 2.209-2.038 3.604-.145.191-.681.887-.671.874-2.242 2.922-2.97 4.26-2.867 6.213.152 2.905 2.427 5.117 4.144 5.7l.642-1.894c-1.021-.347-2.687-1.967-2.789-3.911-.067-1.287.518-2.364 2.457-4.89l.677-.883c.687-.905 1.199-1.663 1.605-2.436.943 1.798.765 3.607-1.025 5.03z" fill="#E30613"/></g></symbol><symbol viewBox="0 0 70 50" id="icon-report-indemnity-50" xmlns="http://www.w3.org/2000/svg"><g fill="none" fill-rule="evenodd"><g fill="#005AA0"><path d="M36.322 15.641l-9.447 12.91 1.614 1.182 10.628-14.525-11.791-8.627-10.628 14.524 1.614 1.18 9.447-12.91z"/><path d="M25.941 31.802L15.497 24.16l1.285-1.757 2.296 1.672 1.177-1.617-3.908-2.847-3.645 4.982 13.672 10.004 3.647-4.983-7.347-5.376-1.18 1.614 5.732 4.195zm7.571-23.39l-2.159-1.58-2.07-1.514L28 7.073l10.444 7.643 1.285-1.755-6.216-4.549zm1.18-1.614l7.83 5.73-3.646 4.983L25.204 7.506l3.646-4.983.807.59 2.877 2.106 2.159 1.58zm25.671 37.035L31.967 23.055l-1.181 1.614 30.01 21.96 3.61-4.933-30.011-21.96-1.181 1.614L61.61 42.13z"/></g><path fill="#005AA0" d="M14 41v-2h-4v4.475h2V41zm16 2.475h2V39h-8v2h6z"/><path fill="#E30613" d="M16 41h6v-2h-6z"/><path d="M8 44v1h26v-1H8zm28-2v5H6v-5h30z" fill="#005AA0"/></g></symbol><symbol viewBox="0 0 70 50" id="icon-report-legal-50" xmlns="http://www.w3.org/2000/svg"><g fill="none" fill-rule="evenodd"><path d="M35 13a4 4 0 100-8 4 4 0 000 8zm0 2a6 6 0 110-12 6 6 0 010 12z" fill="#005AA0"/><path fill="#005AA0" d="M30.877 8H17v2h13.877zM14 31v1.088C14 33.694 15.321 35 16.957 35h6.086C24.68 35 26 33.694 26 32.088V31H14zm9.043 6h-6.086C14.222 37 12 34.804 12 32.088V29h16v3.088C28 34.804 25.778 37 23.043 37z"/><path fill="#005AA0" d="M26.054 30.187l1.892-.646-7-20.51h-1.892l-7 20.51 1.892.646L20 12.45zM44 32.088C44 33.694 45.321 35 46.957 35h6.086C54.68 35 56 33.694 56 32.088V31H44v1.088zM53.043 37h-6.086C44.222 37 42 34.804 42 32.088V29h16v3.088C58 34.804 55.778 37 53.043 37z"/><path fill="#005AA0" d="M56.054 30.187l1.892-.646-7-20.51h-1.892l-7 20.51 1.892.646L50 12.45z"/><path fill="#005AA0" d="M39.481 10H53V8H39.481zM47 45H24v-1h10V15.632h2V44h2V13.632h-6V42H22v5h27v-5h-9v2h7z"/><path d="M37.5 9a2.5 2.5 0 10-2.5 2.5v-2a.5.5 0 11.5-.5h2z" fill="#E30613"/></g></symbol><symbol viewBox="0 0 70 50" id="icon-report-other-50" xmlns="http://www.w3.org/2000/svg"><g fill="none" fill-rule="evenodd"><path fill="#005AA0" d="M52 5H18v40h7v2h-9V3h38v44H35.059v-2H52z"/><path d="M21 42h28V8H21v34zM19 6h32v38H19V6z" fill="#005AA0"/><path fill="#005AA0" d="M31.877 30.018l-1.898 5.453 5.66 2.237v4.706h2v-6.066l-5.14-2.031 1.838-5.281-5.347-2.754-3.415 1.289H20v2h5.94l2.925-1.104zm11.316-14.416l-6.804-.002-1.755-3.041-3.473-.897L31 7.025l-1.998.07.214 6.13 4.106 1.06 1.912 3.315 5.96.002.002 5.208 7.808 5.354 1.17-1.622-6.978-4.756z"/><path fill="#E30613" d="M27 47h6v-2h-6z"/></g></symbol><symbol viewBox="0 0 70 50" id="icon-report-person-50" xmlns="http://www.w3.org/2000/svg"><g fill="none" fill-rule="evenodd"><path d="M47.256 33c0 7.18-5.82 13-13 13s-13-5.82-13-13 5.82-13 13-13c3.838 0 7.402 1.672 9.858 4.525l1.516-1.304A14.966 14.966 0 0034.256 18c-8.284 0-15 6.716-15 15 0 8.285 6.715 15 15 15 8.284 0 15-6.715 15-15a14.98 14.98 0 00-.818-4.898l-.218-.574-.244-.645h-10.49c-2.876 0-4.867-.76-6.173-2.004a5.109 5.109 0 01-1.005-1.31c-.132-.25-.2-.43-.22-.503l-1.932.515c.196.735.732 1.75 1.778 2.746 1.687 1.606 4.173 2.556 7.553 2.556h9.104c.435 1.296.665 2.69.665 4.117z" fill="#005AA0"/><path d="M36 38.192c-.39 0-.532-.056-.946-.332-.711-.473-1.195-.667-2.054-.667-.859 0-1.342.194-2.054.667-.413.276-.555.332-.946.332-.391 0-.533-.056-.946-.332-.711-.473-1.195-.667-2.054-.667v2c.39 0 .532.057.946.332.711.474 1.195.667 2.054.667.859 0 1.343-.193 2.054-.667.414-.275.555-.332.946-.332.391 0 .533.057.946.332.711.474 1.195.667 2.054.667v-2zm0 1.997c.859 0 1.342-.194 2.054-.667.413-.276.555-.332.946-.332.39 0 .532.057.945.332.712.473 1.196.667 2.055.667v-2c-.391 0-.533-.057-.946-.332-.712-.474-1.195-.667-2.054-.667-.86 0-1.343.193-2.054.667-.414.275-.555.332-.946.332v2zM27 30a2.612 2.612 0 005.223 0h-2A.611.611 0 0129 30h-2zm9 0a2.611 2.611 0 105.223 0h-2A.611.611 0 0138 30h-2z" fill="#005AA0"/><path d="M28.996 2.846c.5.415.5 1.181 0 1.596a3.037 3.037 0 000 4.674c.5.415.5 1.181 0 1.596a3.038 3.038 0 00-.002 4.675l1.278-1.539c-.5-.414-.499-1.18.003-1.597a3.037 3.037 0 00-.002-4.674c-.5-.414-.499-1.18.001-1.596a3.038 3.038 0 000-4.673l-1.278 1.538z" fill="#E30613"/><path d="M33.664 2.846c.5.415.5 1.181 0 1.596a3.037 3.037 0 000 4.674c.5.415.5 1.181 0 1.596a3.038 3.038 0 00-.002 4.675l1.278-1.539c-.5-.414-.499-1.18.003-1.597a3.037 3.037 0 00-.002-4.674c-.5-.414-.499-1.18.001-1.596a3.038 3.038 0 000-4.673l-1.278 1.538zm4.669 0a1.038 1.038 0 010 1.596 3.037 3.037 0 00-.001 4.674c.5.415.5 1.181 0 1.596a3.038 3.038 0 00-.002 4.675l1.278-1.539c-.5-.414-.499-1.18.003-1.597a3.037 3.037 0 00-.002-4.674 1.037 1.037 0 01.001-1.596 3.038 3.038 0 000-4.673l-1.277 1.538z" fill="#005AA0"/></g></symbol><symbol viewBox="0 0 70 50" id="icon-report-transportation-50" xmlns="http://www.w3.org/2000/svg"><g fill="none"><path fill="#005AA0" d="M50 18v17h2V18zm16 14.832V40h-5v2h7v-9.632L60.956 18H53v2h6.709zm-49.232 1.906l-1.911.587L16.907 42H20v-2h-1.615z"/><path d="M53 31V21h5.869l4.707 10H53zm2-2h5.424L57.6 23H55v6zM26 46a3 3 0 100-6 3 3 0 000 6zm0 2a5 5 0 110-10 5 5 0 010 10zm29-2a3 3 0 100-6 3 3 0 000 6zm0 2a5 5 0 110-10 5 5 0 010 10zm-23-6h17v-2H32zm15-8H14v-5h-2v7h37V14H31v2h16z" fill="#005AA0"/><path fill="#005AA0" d="M22.375 9.807l-2.543 5.197-7.422-4.755 1.413 8.259-5.784.017 2.528 4.221-3.72 2.77 7.014 1.325.371-1.965-2.533-.478 1.513-1.128-1.65-2.755 4.631-.014-1.048-6.124 5.497 3.521 1.97-4.026 1.832 2.847 1.858-.823-.557 2.094 1.933.514 1.63-6.128-4.109 1.82zM5.476 19.318l-4.203-.692-.325 1.973 4.203.693zM23.01 7.931l.694-4.202-1.974-.326-.692 4.203zM8.859 11.317L5.284 8.976l-1.096 1.673 3.575 2.341z"/><path fill="#E30613" d="M15.127 7.686l-1.391-4.04-1.891.65 1.39 4.04z"/></g></symbol></svg>