<svg width="64" height="64" xmlns="http://www.w3.org/2000/svg"><g fill="none" fill-rule="evenodd"><path d="M26.127 25.015c-.809 0-1.618.3-2.22.902a3.115 3.115 0 00-.907 2.22c0 .848.322 1.636.907 2.22L30 36.452l6.093-6.093a3.112 3.112 0 00.907-2.22c0-.847-.322-1.636-.907-2.221-1.204-1.204-3.238-1.203-4.441 0L30 27.572l-1.652-1.654a3.135 3.135 0 00-2.221-.902zM30 39.279l-7.507-7.507A5.097 5.097 0 0121 28.138a5.1 5.1 0 011.493-3.635 5.147 5.147 0 017.269 0l.238.239.238-.24a5.146 5.146 0 017.269 0A5.1 5.1 0 0139 28.139c0 1.38-.53 2.672-1.493 3.634L30 39.279z" fill="#E30613"/><path d="M38.222 15H21.86C12.45 15 5.043 21.637 5 30.125c.043 8.615 6.754 14.913 16 14.913h5.997L38 55.954V43.019h-2v8.072l-8-8.072h-7c-7.337 0-13.964-6.09-14-12.894.036-6.707 6.32-13.252 15-13.125h16.313C42.1 17 46.258 18.54 49 21.217c2.742 2.677 4.057 5.794 4 8.93.059 3.101-1.733 7.007-4.006 9.183-2.353 2.254-4.63 3.689-8.037 3.689L41 45.038c4.359 0 6.521-1.462 9.542-4.353 2.948-2.826 4.53-6.589 4.455-10.538.074-3.942-1.483-7.643-4.385-10.422C47.475 16.722 42.959 15 38.222 15z" fill="#005AA0"/><path d="M44.424 8.466l.576 4.64M50 15.49L53.593 11M59 16l-4 2.698" stroke="#005AA0" stroke-width="2"/></g></svg>