<svg width="56" height="56" xmlns="http://www.w3.org/2000/svg"><g fill="currentColor" fill-rule="evenodd"><path d="M0 56h56V0H0v56zm2.887-2.887h50.226V2.887H2.887v50.226z"/><path d="M23.33 27.995a4.665 4.665 0 109.33.002 4.665 4.665 0 00-9.33-.002z"/><path d="M33.75 20.501a1.75 1.75 0 113.5-.001 1.75 1.75 0 01-3.5.001zM20.81 28c0-3.97 3.22-7.19 7.19-7.19A7.19 7.19 0 1120.81 28zm20.454-9.17a6.842 6.842 0 00-1.614-2.48 6.86 6.86 0 00-2.48-1.615c-.89-.346-1.908-.583-3.398-.65-1.493-.069-1.97-.085-5.773-.085-3.801 0-4.278.016-5.771.084-1.49.068-2.508.305-3.399.65a6.86 6.86 0 00-2.48 1.616 6.856 6.856 0 00-1.614 2.48c-.346.89-.583 1.907-.651 3.398C14.016 23.721 14 24.198 14 28c0 3.802.016 4.278.084 5.772.068 1.49.305 2.508.65 3.399.36.92.837 1.7 1.616 2.48a6.87 6.87 0 002.48 1.613c.89.347 1.908.583 3.398.651 1.493.068 1.97.084 5.771.084 3.803 0 4.28-.016 5.773-.084 1.49-.068 2.508-.304 3.398-.65a6.87 6.87 0 002.48-1.615 6.857 6.857 0 001.614-2.48c.346-.89.584-1.908.652-3.398.068-1.494.084-1.97.084-5.772 0-3.802-.016-4.279-.084-5.772-.068-1.49-.306-2.508-.652-3.398z"/></g></svg>