<svg width="56" height="56" xmlns="http://www.w3.org/2000/svg"><g fill="currentColor" fill-rule="evenodd"><path d="M0 56h56V0H0v56zm2.887-2.887h50.226V2.887H2.887v50.226z"/><path d="M18.799 15.43a2.888 2.888 0 00-2.888 2.889 2.888 2.888 0 105.777 0 2.891 2.891 0 00-2.89-2.89zM24.418 23.401v16.035H29.4v-7.932c0-2.092.396-4.117 2.989-4.117 2.554 0 2.59 2.391 2.59 4.251v7.798h4.979v-8.795c0-4.319-.932-7.64-5.975-7.64-2.424 0-4.05 1.33-4.716 2.591h-.068v-2.19h-4.781zM16.306 39.436h4.986V23.401h-4.986z"/></g></svg>