<svg width="56" height="56" xmlns="http://www.w3.org/2000/svg"><g fill="currentColor" fill-rule="evenodd"><path d="M0 56h56V0H0v56zm2.887-2.887h50.226V2.887H2.887v50.226z"/><path d="M23.328 40.31c11.05 0 17.093-9.154 17.093-17.092 0-.167-.002-.333-.007-.498a.536.536 0 01.21-.443c.898-.68 1.7-1.484 2.377-2.384.12-.158-.042-.375-.228-.305a12.06 12.06 0 01-2.631.664c-.044.006-.066-.054-.03-.077a6.044 6.044 0 002.234-2.583.244.244 0 00-.335-.315c-.92.479-1.909.843-2.948 1.074a.53.53 0 01-.48-.139 6.009 6.009 0 00-10.117 5.305.298.298 0 01-.315.35A17.047 17.047 0 0116.51 18.03a.368.368 0 00-.61.081 5.98 5.98 0 00-.555 2.522c0 2.015.99 3.8 2.514 4.89.045.032.021.104-.035.101a5.956 5.956 0 01-2.17-.56.244.244 0 00-.346.238c.012.205.032.41.06.59a6.015 6.015 0 004.536 4.91c.053.012.052.088-.001.1a6.014 6.014 0 01-2.171.102.2.2 0 00-.216.269 6.018 6.018 0 004.978 3.818c.177.018.24.247.096.35a12.054 12.054 0 01-7.037 2.254h-.123c-.33 0-.441.44-.15.597a16.987 16.987 0 008.05 2.018"/></g></svg>