<svg width="56" height="56" xmlns="http://www.w3.org/2000/svg"><g fill="currentColor" fill-rule="evenodd"><path d="M0 56h56V0H0v56zm2.887-2.887h50.226V2.887H2.887v50.226z"/><path d="M24.769 31.776l-.001-8.794 8.456 4.412-8.455 4.382zM43.336 21.46s-.306-2.157-1.244-3.107c-1.19-1.246-2.524-1.252-3.136-1.325-4.38-.317-10.95-.317-10.95-.317h-.013s-6.57 0-10.95.317c-.611.073-1.944.08-3.135 1.325-.938.95-1.244 3.107-1.244 3.107s-.313 2.533-.313 5.065V28.9c0 2.532.313 5.065.313 5.065s.306 2.157 1.244 3.107c1.19 1.246 2.755 1.207 3.45 1.337 2.505.24 10.642.315 10.642.315s6.576-.01 10.956-.327c.612-.073 1.946-.079 3.136-1.325.938-.95 1.244-3.107 1.244-3.107s.313-2.533.313-5.065v-2.375c0-2.532-.313-5.065-.313-5.065z"/></g></svg>