<?xml version="1.0" encoding="UTF-8"?>
<svg width="26px" height="26px" viewBox="0 0 26 26" version="1.1" xmlns="http://www.w3.org/2000/svg" xmlns:xlink="http://www.w3.org/1999/xlink">
    <!-- Generator: Sketch 41.2 (35397) - http://www.bohemiancoding.com/sketch -->
    <title>calendar-26</title>
    <desc>Created with Sketch.</desc>
    <defs></defs>
    <g id="Page-1" stroke="none" stroke-width="1" fill="none" fill-rule="evenodd">
        <g id="calendar-26" fill="#FF0000">
            <g id="calendar-26-crop" transform="translate(2.000000, 1.000000)">
                <path d="M18.20004,21 L3.24358565,21 C2.57308565,21 2.0004,20.4400005 2.0004,19.7669577 L2.0004,11 L20.0004,11 L20.0004,19.7669577 C20.0004,20.4839577 19.4437406,21 18.7732406,21 M3.1758,4 L6,4 L6,6 L8,6 L8,4 L14,4 L14,6 L16,6 L16,4 L18.7926,4 C19.4703,4.025 20.0004,4.57 20.0004,5.24 L20.0004,9 L2.0004,9 L2.0004,5.24 C2.0004,4.57 2.5305,4.025 3.1758,4 M16,2 L16,0 L14,0 L14,2 L8,2 L8,0 L6,0 L6,2 L2.99881667,2 C1.31765,2.064 0.0004,3.487 0.0004,5.24 L0.0004,20 C0.0004,21.827 1.29931667,23 2.99881667,23 C4.69831667,23 18.9689833,23 18.9689833,23 C20.6684833,23 22.0004,21.827 22.0004,20 L22.0004,5.24 C22.0004,3.487 20.6822333,2.064 18.9689833,2 L16,2 Z" id="Fill-1"></path>
            </g>
        </g>
    </g>
</svg>