<?xml version="1.0" encoding="UTF-8"?>
<svg width="26px" height="26px" viewBox="0 0 26 26" version="1.1" xmlns="http://www.w3.org/2000/svg" xmlns:xlink="http://www.w3.org/1999/xlink">
    <!-- Generator: Sketch 48.2 (47327) - http://www.bohemiancoding.com/sketch -->
    <title>Kontakta_oss-32</title>
    <desc>Created with Sketch.</desc>
    <defs></defs>
    <g id="Page-1" stroke="none" stroke-width="1" fill="none" fill-rule="evenodd">
        <g id="Kontakta_oss-32" fill="#FF0000" fill-rule="nonzero">
            <g transform="translate(-0.700000, 2.000000)">
                <path d="M13.717942,22.9818841 C12.0854769,22.9818841 10.766511,21.6438028 10.766511,19.9985483 C10.766511,18.3532938 12.0854769,17.0152125 13.717942,17.0152125 C15.3504072,17.0152125 16.669373,18.3532938 16.669373,19.9985483 C16.669373,21.6438028 15.3504072,22.9818841 13.717942,22.9818841 Z M13.717942,21.4818841 C14.5171104,21.4818841 15.169373,20.8201684 15.169373,19.9985483 C15.169373,19.1769282 14.5171104,18.5152125 13.717942,18.5152125 C12.9187736,18.5152125 12.266511,19.1769282 12.266511,19.9985483 C12.266511,20.8201684 12.9187736,21.4818841 13.717942,21.4818841 Z" id="Oval"></path>
                <path d="M13.717942,0.432694179 C16.6713014,0.432694179 19.4351389,1.75406909 21.3343115,3.99152346 L20.190731,4.96220549 C18.572257,3.05544788 16.2238631,1.93269418 13.717942,1.93269418 C10.1927258,1.93269418 7.06696679,4.12916224 5.79924153,7.3601826 L5.67561036,7.79413784 C5.37786847,8.64996598 5.22193185,9.62551149 5.22193185,10.6185379 C5.22193185,11.8310232 5.46608934,13.0173567 5.93331372,14.1233468 L6.37344725,15.1652088 L5.07732537,15.1652088 C2.6793891,15.1652088 0.75,13.2078575 0.75,10.7860381 C0.75,8.53911552 2.41078161,6.69199833 4.56569027,6.43692976 C6.17949808,2.8174864 9.72884734,0.432694179 13.717942,0.432694179 Z M2.25,10.7860381 C2.25,12.042862 3.03089034,13.1035184 4.12542625,13.4992771 C3.85925053,12.568061 3.72193185,11.6005216 3.72193185,10.6185379 C3.72193185,9.75460277 3.82378368,8.89882728 4.01740283,8.11442345 C2.97987093,8.53924267 2.25,9.57096493 2.25,10.7860381 Z" id="Shape"></path>
                <path d="M21.6366426,7.3601826 L23.0804749,6.95355227 L23.1769868,7.30126456 C23.5314188,8.32004265 23.7139522,9.46197864 23.7139522,10.6185379 C23.7139522,14.4032168 21.6379066,17.8741244 18.4253186,19.595911 C17.6605102,20.0136993 16.8249748,20.3219337 15.9686237,20.508097 L15.6499793,19.0423324 C16.3681299,18.8862127 17.0687148,18.6277624 17.7114768,18.276671 C20.4418487,16.8133051 22.2139522,13.8505535 22.2139522,10.6185379 C22.2139522,9.62551149 22.0580156,8.64996598 21.7467141,7.75101636 L21.6366426,7.3601826 Z" id="Shape"></path>
                <path d="M9.58143957,4.28074094 L11.0300084,3.89132049 C11.042068,3.93617974 11.0862092,4.05267066 11.1725216,4.21685186 C11.3257123,4.50824725 11.5414222,4.80324688 11.8300934,5.08095405 C12.6852198,5.90360196 13.9840369,6.40686743 15.8643373,6.40686743 L22.3585587,6.40686743 L22.3585587,7.90686743 L15.8643373,7.90686743 C13.6031956,7.90686743 11.9300808,7.25856914 10.7901604,6.16194409 C10.0826691,5.48132398 9.71741718,4.78655137 9.58143957,4.28074094 Z" id="Shape"></path>
                <path d="M16.3208496,12.9953733 L17.3891128,14.0483756 C16.389778,15.0621935 15.0521357,15.6118759 13.6629063,15.6118759 C12.2736769,15.6118759 10.9360346,15.0621935 9.93669973,14.0483756 L11.0049629,12.9953733 C11.7199339,13.7207062 12.6718384,14.1118759 13.6629063,14.1118759 C14.6539741,14.1118759 15.6058786,13.7207062 16.3208496,12.9953733 Z" id="Shape"></path>
                <path d="M22.3585587,7.90686743 L22.3585587,6.40686743 C24.756495,6.40686743 26.6858841,8.3642187 26.6858841,10.7860381 C26.6858841,13.2078575 24.756495,15.1652088 22.3585587,15.1652088 L22.3585587,13.6652088 C23.9231982,13.6652088 25.1858841,12.3842231 25.1858841,10.7860381 C25.1858841,9.18785308 23.9231982,7.90686743 22.3585587,7.90686743 Z" id="Shape"></path>
            </g>
        </g>
    </g>
</svg>