<svg width="28" height="32" xmlns="http://www.w3.org/2000/svg" xmlns:xlink="http://www.w3.org/1999/xlink"><defs><path d="M22 30h4V19.503l-6.538-4.857v-4.36h-4.829L13.237 7.69 9 6.381V2H2v15.3h7.916l3.01-1.442 5.207 3.324-1.323 3.802L22 25.47V30zm-2 0v-3.27l-5.667-2.714 1.391-3.998-2.936-1.876L10.37 19.3H2V30h3v2H0V0h28v32H17v-2h3zm6-12.989V2H11v2.906l3.61 1.117 1.218 2.263h5.634v5.354L26 17.011z" id="a"/></defs><g fill="none" fill-rule="evenodd"><path fill="#E30613" fill-rule="nonzero" d="M15 30v2H7v-2z"/><path d="M-6-4h40v40H-6z"/><use fill="currentColor" fill-rule="nonzero" xlink:href="#a"/></g></svg>