<svg width="20" height="20" xmlns="http://www.w3.org/2000/svg"><g fill-rule="nonzero" fill="none"><path d="M7.21 10.557L8 5.694h-.844c-.396 0-.905-.216-1.054-.613-.048-.135-.162-.596.49-1.046.234-.158.384-.334.414-.468a.357.357 0 00-.108-.357C6.754 3.076 6.473 3 6.114 3c-.605 0-1.03.339-1.072.584-.03.182.114.328.24.421.377.275.467.672.233 1.047-.24.385-.76.637-1.317.642h-.863C3.263 6.168 2.09 13.427 2 14h4.677c.042-.257.257-1.63.55-3.443H7.21z" fill="#479CBE"/><path d="M12.36 1H7.63L7 5.07h.803c.44 0 .857-.206 1.035-.503a.491.491 0 00.084-.26c0-.169-.113-.296-.227-.38-.309-.236-.374-.484-.374-.66 0-.036 0-.066.006-.096.065-.43.636-.895 1.392-.895.452 0 .797.109 1.005.308a.718.718 0 01.202.683c-.065.309-.368.563-.541.69-.458.326-.399.61-.369.695.095.254.458.417.738.417h1.22v.006c1.665.012 2.558.792 2.278 2.606-.262 1.687-1.535 2.413-3.052 2.425L10.6 14h.886c3.742 0 6.8-2.443 7.4-6.3C19.63 2.91 16.643 1 12.36 1z" fill="#00A5C3"/><path d="M12.36 1H7.63L7 5.07h.803c.44 0 .857-.206 1.035-.503a.491.491 0 00.084-.26c0-.169-.113-.296-.227-.38-.309-.236-.374-.484-.374-.66 0-.036 0-.066.006-.096.065-.43.636-.895 1.392-.895.452 0 .797.109 1.005.308a.718.718 0 01.202.683c-.065.309-.368.563-.541.69-.458.326-.399.61-.369.695.095.254.458.417.738.417h1.22v.006c1.665.012 2.558.792 2.278 2.606-.262 1.687-1.535 2.413-3.052 2.425L10.6 14h.886c3.742 0 6.8-2.443 7.4-6.3C19.63 2.91 16.643 1 12.36 1z" fill="#235971"/><g fill="#235971"><path d="M1.501 15.012H3.34c.784 0 .974.42.917.805-.047.31-.248.542-.594.695.438.177.61.45.547.884-.08.542-.524.945-1.106.945H1.012l.49-3.329zm1.216 1.378c.357 0 .524-.201.559-.439.035-.256-.075-.433-.432-.433h-.317l-.127.872h.317zm-.196 1.439c.369 0 .582-.159.634-.482.04-.28-.11-.445-.467-.445h-.363l-.138.933h.334v-.006zM6.785 18.365c-.478.037-.709-.018-.824-.238-.253.165-.536.25-.835.25-.542 0-.732-.298-.68-.628a.754.754 0 01.248-.439c.3-.274 1.037-.31 1.325-.518.023-.231-.064-.317-.334-.317-.317 0-.582.11-1.038.44l.11-.757c.392-.298.772-.439 1.21-.439.559 0 1.054.244.962.89l-.11.732c-.04.256-.028.335.243.341l-.277.683zm-.83-1.146c-.253.17-.726.14-.777.494-.024.164.074.286.23.286.15 0 .334-.067.484-.177a.706.706 0 01.012-.237l.051-.366zM7.678 15.762h.957l-.052.335c.305-.274.536-.378.835-.378.536 0 .784.348.698.915l-.248 1.7H8.91l.208-1.408c.04-.256-.035-.378-.22-.378-.149 0-.287.086-.42.275l-.219 1.505h-.956l.374-2.566zM10.859 15.012h.956l-.242 1.634.917-.884h1.18l-1.175 1.097.945 1.476h-1.204l-.726-1.19H11.5l-.173 1.19h-.957z"/></g><g fill="#479CBE"><path d="M14.465 15.012h.999l-.44 3.383h-.998zM15.95 15.012h1.427c1.103 0 1.422.95 1.317 1.738-.1.77-.612 1.645-1.579 1.645h-1.61l.445-3.383zm.925 2.576c.486 0 .753-.285.831-.887.058-.447-.057-.888-.596-.888h-.266l-.23 1.775h.26z"/></g></g></svg>