<?xml version="1.0" encoding="UTF-8"?>
<svg width="32px" height="32px" viewBox="0 0 32 32" version="1.1" xmlns="http://www.w3.org/2000/svg" xmlns:xlink="http://www.w3.org/1999/xlink">
    <!-- Generator: Sketch 49.3 (51167) - http://www.bohemiancoding.com/sketch -->
    <title>about_LF-32</title>
    <desc>Created with Sketch.</desc>
    <defs></defs>
    <g id="about_LF-32" stroke="none" stroke-width="1" fill="none" fill-rule="evenodd">
        <g transform="translate(4.000000, 5.000000)" fill="#FF0000">
            <path d="M15.5,0 L8.505,0 C3.808,0 0,3.808 0,8.505 L0,9.505 C0,14.201 3.806,18 8.504,18 L9.585,18 L15,23.414 L15,15.998 L13,15.998 L13,18.586 L10.414,16 L8.504,16 C4.91,16 2,13.095 2,9.505 L2,8.505 C2,4.913 4.912,2 8.505,2 L15.5,2 C19.091,2 22,4.911 22,8.505 L22,9.505 C22,12.893 19.406,15.692 16.06,15.976 L16.075,17.981 C20.526,17.684 24,13.987 24,9.505 L24,8.505 C24,3.807 20.196,0 15.5,0" id="Fill-1"></path>
            <polygon id="Rectangle-3" fill-rule="nonzero" points="14 7 11 7 11 5 16 5 16 13 14 13"></polygon>
            <polygon id="Rectangle-3" fill-rule="nonzero" transform="translate(10.500000, 9.000000) rotate(-180.000000) translate(-10.500000, -9.000000) " points="11 7 8 7 8 5 13 5 13 13 11 13"></polygon>
            <rect id="Rectangle-3" x="11" y="8" width="2" height="2"></rect>
        </g>
    </g>
</svg>