<?xml version="1.0" encoding="UTF-8"?>
<svg width="32px" height="32px" viewBox="0 0 32 32" version="1.1" xmlns="http://www.w3.org/2000/svg" xmlns:xlink="http://www.w3.org/1999/xlink">
    <!-- Generator: Sketch 51.3 (57544) - http://www.bohemiancoding.com/sketch -->
    <title>bank-32</title>
    <desc>Created with Sketch.</desc>
    <defs></defs>
    <g id="bank-32" stroke="none" stroke-width="1" fill="none" fill-rule="evenodd">
        <g transform="translate(2.000000, 2.000000)" fill="#FF0000" fill-rule="nonzero" id="outline">
            <g>
                <polygon id="Path-13" points="0 25 0 23 28 23 28 25"></polygon>
                <polygon id="Path-13" points="2 22 2 20 26 20 26 22"></polygon>
                <polygon id="Path-2" points="25 19 23 19 23 8 25 8"></polygon>
                <polygon id="Path-2" points="20 19 18 19 18 8 20 8"></polygon>
                <polygon id="Path-2" points="15 19 13 19 13 8 15 8"></polygon>
                <polygon id="Path-2" points="10 19 8 19 8 8 10 8"></polygon>
                <polygon id="Path-2" points="5 19 3 19 3 8 5 8"></polygon>
                <polygon id="Path-3" points="14 3.10137085 5.55297018 7 1 7 1 5 5.11369649 5 14 0.898629149 22.8863035 5 27 5 27 7 22.4470298 7"></polygon>
            </g>
        </g>
    </g>
</svg>