<?xml version="1.0" encoding="UTF-8"?>
<svg width="32px" height="32px" viewBox="0 0 32 32" version="1.1" xmlns="http://www.w3.org/2000/svg" xmlns:xlink="http://www.w3.org/1999/xlink">
    <!-- Generator: Sketch 49.3 (51167) - http://www.bohemiancoding.com/sketch -->
    <title>insurance_car-32</title>
    <desc>Created with Sketch.</desc>
    <defs></defs>
    <g id="insurance_car-32" stroke="none" stroke-width="1" fill="none" fill-rule="evenodd">
        <g transform="translate(1.000000, 4.000000)" fill="#FF0000" fill-rule="nonzero">
            <path d="M6,12.5 C6,11.6729173 6.67285714,11 7.5,11 C8.32714286,11 9,11.6729173 9,12.5 C9,13.3270827 8.32714286,14 7.5,14 C6.67285714,14 6,13.3270827 6,12.5 Z" id="Fill-2"></path>
            <path d="M21,12.5 C21,11.6729173 21.6728571,11 22.5,11 C23.3271429,11 24,11.6729173 24,12.5 C24,13.3270827 23.3271429,14 22.5,14 C21.6728571,14 21,13.3270827 21,12.5 Z" id="Fill-4"></path>
            <polygon id="Line" points="8 7.02702703 8 9.02702703 22.6580966 9.02702703 20.0031758 3.7811976 18.2186976 4.68432425 19.4043424 7.02702703"></polygon>
            <path d="M28.0001,10 C28.0001,10.025 27.6671,10.033 27.2221,10.033 C26.3331,10.033 25.0001,10 25.0001,10 L26.0441,14 L26.0001,15 L20.0001,15 L20.0001,17 L26.0001,17 L26.0001,19 L25.0001,19 L25.0001,22 L23.0001,22 L23,21 L23.0001,19 L7.0001,19 L7.0001,21 L7.0001,22 L5.0001,22 L5.0001,19 L4.0001,19 L4.0001,17 L10.0001,17 L10.0001,15 L4.0001,15 L4.0001,14 L5.0001,10 C5.0001,10 3.6671,10.033 2.7781,10.033 C2.3331,10.033 2.0001,10.025 2.0001,10 L2.0001,9 C2.0001,8.032 6.0001,8 6.0001,8 L8.0001,4.46875 C8.0001,4.46875 8.68746643,2.47234791 15,2.46875 C21.40625,2.46875 22.0001,4.46875 22.0001,4.46875 L24.0001,8 C24.0001,8 28.0001,8.032 28.0001,9 L28.0001,10 Z M23.6641,3.46875 C23.09375,2.65625 21.625,0.46875 15,0.46875 C8.37500248,0.472721821 6.62045,2.8125 6.2321,3.46875 L4.9171,6.019 C2.74882651,6.08826524 0.0001,6.661 0.0001,9 L0.0001,10 C0.0001,10.672 0.4491,11.961 2.1471,12.025 C2.2271,12.028 2.3231,12.03 2.4311,12.031 L2.0601,13.515 L2.0001,13.754 L2.0001,14 L2.0001,15 L2.0001,17 L2.0001,19 C2.0001,19.7457988 2.40780101,20.3959358 3.01259802,20.7398062 L3.0001,22 C3.0001,23.105 3.8951,24 5.0001,24 L7.0001,24 C8.1051,24 9.0001,23.105 9.0001,22 L9.0001,21 L21.0001,21 L21.0001,22 C21.0001,23.105 21.8951,24 23.0001,24 L25.0001,24 C26.1051,24 27.0001,23.105 27.0001,22 L27.0156884,20.7235336 C27.6049872,20.3756815 28.0001,19.7341948 28.0001,19 L28.0001,17 C28.0001,16.96 27.9901,16.922 27.9881,16.882 L28.0001,15.013 L28,14.013 L28,13.749 L27.9500008,13.495 L27.5691,12.031 C27.6771,12.03 27.7731,12.028 27.8531,12.025 C29.5511,11.961 30.0001,10.672 30.0001,10 L30.0001,9 C30.0001,6.661 27.3156045,6.09031709 25.0831,6.019 L23.6641,3.46875 Z" id="Fill-6"></path>
            <polygon id="Line" points="12 17 18 17 18 15 12 15"></polygon>
        </g>
    </g>
</svg>