<?xml version="1.0" encoding="UTF-8"?>
<svg width="32px" height="32px" viewBox="0 0 32 32" version="1.1" xmlns="http://www.w3.org/2000/svg" xmlns:xlink="http://www.w3.org/1999/xlink">
    <!-- Generator: Sketch 49.3 (51167) - http://www.bohemiancoding.com/sketch -->
    <title>contact-32</title>
    <desc>Created with Sketch.</desc>
    <defs></defs>
    <g id="contact-32" stroke="none" stroke-width="1" fill="none" fill-rule="evenodd">
        <g transform="translate(8.000000, 4.000000)" fill="#FF0000" id="Shape">
            <path d="M2,3.31855463 C2,2.627521 2.62456025,2 3.3076153,2 L12.6923847,2 C13.3754398,2 14,2.627521 14,3.31855463 L14,20.6814454 C14,21.3722922 13.375624,22 12.6923847,22 L3.3076153,22 C2.57651007,22 2,21.4061572 2,20.6814454 L2,3.31855463 Z M3.3076153,24 L12.6923847,24 C14.4825832,24 16,22.474486 16,20.6814454 L16,3.31855463 C16,1.52506334 14.4821322,0 12.6923847,0 L3.3076153,0 C1.51786784,0 0,1.52506334 0,3.31855463 L0,20.6814454 C0,22.4976859 1.45846537,24 3.3076153,24 Z" fill-rule="nonzero"></path>
            <polygon fill-rule="nonzero" points="15 7 15 5 1 5 1 7"></polygon>
            <polygon fill-rule="nonzero" points="15 17 15 15 1 15 1 17"></polygon>
            <path d="M8,18 C8.828,18 9.5,18.6715523 9.5,19.4990007 C9.5,20.3284477 8.828,21 8,21 C7.169,21 6.5,20.3284477 6.5,19.4990007 C6.5,18.6715523 7.17,18 8,18"></path>
        </g>
    </g>
</svg>