<?xml version="1.0" encoding="UTF-8"?>
<svg width="32px" height="32px" viewBox="0 0 32 32" version="1.1" xmlns="http://www.w3.org/2000/svg" xmlns:xlink="http://www.w3.org/1999/xlink">
    <!-- Generator: Sketch 49.3 (51167) - http://www.bohemiancoding.com/sketch -->
    <title>report_damage-32</title>
    <desc>Created with Sketch.</desc>
    <defs></defs>
    <g id="report_damage-32" stroke="none" stroke-width="1" fill="none" fill-rule="evenodd">
        <g transform="translate(5.000000, 4.000000)" fill="#FF0000" fill-rule="nonzero">
            <polygon id="Rectangle-4" points="20 2 2 2 2 22 4.01028808 22 4.01028808 24 0 24 0 0 22 0 22 24 12.0308642 24 12.0308642 22 20 22"></polygon>
            <polygon id="Polygon" points="10.0870762 14.9468804 8.65890614 18.5998632 13 20.1269629 13 23 15 23 15 18.7103789 11.275368 17.4001368 12.6374437 13.9162106 8.25739194 11.9074754 5.67020957 13 0.826086957 13 0.826086957 15 6.07517944 15 8.2241512 14.0925246"></polygon>
            <polygon id="Polygon" points="17 6 12.6006352 6 11.5667801 4.01749947 9.56721675 3.49438765 9.47830807 0.948376345 7.47952642 1.01817534 7.62040412 5.05238487 10.2032153 5.72808191 11.387999 8 15 8 15 10.7992602 20.330629 14.8020586 21.5315556 13.202754 17 9.79998417"></polygon>
            <polygon id="Line" points="6 24 10 24 10 22 6 22"></polygon>
        </g>
    </g>
</svg>