<?xml version="1.0" encoding="UTF-8"?>
<svg width="32px" height="32px" viewBox="0 0 32 32" version="1.1" xmlns="http://www.w3.org/2000/svg" xmlns:xlink="http://www.w3.org/1999/xlink">
    <!-- Generator: Sketch 49.3 (51167) - http://www.bohemiancoding.com/sketch -->
    <title>digital_services-32</title>
    <desc>Created with Sketch.</desc>
    <defs></defs>
    <g id="digital_services-32" stroke="none" stroke-width="1" fill="none" fill-rule="evenodd">
        <g transform="translate(3.000000, 4.000000)" fill="#FF0000">
            <path d="M16,13 L11,13 L9,13 L2.5,13 C2.229,13 2,12.771 2,12.5 L2,2.5 C2,2.229 2.229,2 2.5,2 L17.5,2 C17.771,2 18,2.229 18,2.5 L18,10 L20,10 L20,2.5 C20,1.122 18.878,0 17.5,0 L2.5,0 C1.122,0 0,1.122 0,2.5 L0,12.5 C0,13.878 1.122,15 2.5,15 L9,15 L9,16 L6,16 L6,18 L9,18 L11,18 L14,18 L14,16 L11,16 L11,15 L16,15 L16,13 Z" id="Page-1"></path>
            <path d="M17,12.3185546 C17,11.627521 17.6245603,11 18.3076153,11 L22.6923847,11 C23.3754398,11 24,11.627521 24,12.3185546 L24,20.6814454 C24,21.3722922 23.375624,22 22.6923847,22 L18.3076153,22 C17.5765101,22 17,21.4061572 17,20.6814454 L17,12.3185546 Z M18.3076153,24 L22.6923847,24 C24.4825832,24 26,22.474486 26,20.6814454 L26,12.3185546 C26,10.5250633 24.4821322,9 22.6923847,9 L18.3076153,9 C16.5178678,9 15,10.5250633 15,12.3185546 L15,20.6814454 C15,22.4976859 16.4584654,24 18.3076153,24 Z" id="Shape" fill-rule="nonzero"></path>
            <path d="M22,19.4990007 C22,20.3284477 21.328,21 20.5,21 C19.669,21 19,20.3284477 19,19.4990007 C19,18.6715523 19.67,18 20.5,18 C21.328,18 22,18.6715523 22,19.4990007 Z" id="Shape" fill-rule="nonzero"></path>
        </g>
    </g>
</svg>