<?xml version="1.0" encoding="UTF-8"?>
<svg width="32px" height="32px" viewBox="0 0 32 32" version="1.1" xmlns="http://www.w3.org/2000/svg" xmlns:xlink="http://www.w3.org/1999/xlink">
    <!-- Generator: Sketch 49.3 (51167) - http://www.bohemiancoding.com/sketch -->
    <title>finance-32</title>
    <desc>Created with Sketch.</desc>
    <defs></defs>
    <g id="finance-32" stroke="none" stroke-width="1" fill="none" fill-rule="evenodd">
        <g transform="translate(3.000000, 4.000000)" fill="#FF0000" id="Fill-1">
            <path d="M3.2492,21 C2.5602,21 2.0002,20.438 2.0002,19.75 L2.0002,10.9999 L10.0002,10.9999 L10.0002,13.9999 L16.0002,13.9999 L16.0002,10.9999 L24,10.9999 L24,19.75 C24,20.438 23.438,21 22.75,21 L3.2492,21 Z M12.0002,11.9999 L14.0002,11.9999 L14.0002,10.9999 L12.0002,10.9999 L12.0002,11.9999 Z M22.75,5.9999 C23.438,5.9999 24,6.5609 24,7.2489 L24,8.9999 L2.0002,8.9999 L2.0002,7.2489 C2.0002,6.5609 2.5602,5.9999 3.2492,5.9999 L22.75,5.9999 Z M9.0002,3.9999 L17.0002,3.9999 L17.0002,1.9999 L9.0002,1.9999 L9.0002,3.9999 Z M19.0002,3.9999 L19.0002,-0.0001 L7.0002,-0.0001 L7.0002,3.9999 L3.2492,3.9999 C1.4572,3.9999 0.0002,5.4579 0.0002,7.2489 L0.0002,19.75 C0.0002,21.541 1.4572,23 3.2492,23 L22.75,23 C24.542,23 26,21.541 26,19.75 L26,7.2489 C26,5.4579 24.542,3.9999 22.75,3.9999 L19.0002,3.9999 Z"></path>
        </g>
    </g>
</svg>