<?xml version="1.0" encoding="UTF-8"?>
<svg width="32px" height="32px" viewBox="0 0 32 32" version="1.1" xmlns="http://www.w3.org/2000/svg" xmlns:xlink="http://www.w3.org/1999/xlink">
    <!-- Generator: Sketch 49.3 (51167) - http://www.bohemiancoding.com/sketch -->
    <title>insurance-32</title>
    <desc>Created with Sketch.</desc>
    <defs></defs>
    <g id="insurance-32" stroke="none" stroke-width="1" fill="none" fill-rule="evenodd">
        <g transform="translate(5.000000, 4.000000)" fill="#FF0000">
            <path d="M16.0767,9.0772 C14.2237,9.0772 12.3247,9.9322 11.0087,11.2932 C9.7037,9.9022 7.8747,9.0772 5.9817,9.0772 C4.6177,9.0772 3.3837,9.3902 2.3497,9.9762 C3.4067,6.6872 6.7027,4.0002 10.1537,4.0002 L11.8467,4.0002 C15.2027,4.0002 18.5087,6.6872 19.6137,9.9102 C18.6157,9.3632 17.4227,9.0772 16.0767,9.0772 M11.8467,2.0002 L10.1537,2.0002 C4.7067,2.0002 -0.0003,7.0772 -0.0003,12.1542 L-0.0003,13.4462 L1.6927,13.4462 C2.5617,11.7352 4.2357,11.0772 5.9817,11.0772 C7.7277,11.0772 9.2807,12.0462 10.1537,13.4462 L11.8467,13.4462 C12.7197,12.0462 14.4807,11.0772 16.0777,11.0772 C17.9727,11.0772 19.4977,11.7582 20.3077,13.4462 L21.9997,13.4462 L21.9997,12.1542 C21.9997,7.0772 17.2397,2.0002 11.8467,2.0002" id="Fill-1"></path>
            <polygon id="Shape" fill-rule="nonzero" points="10 12 10 13 10 21 12 21 12 13 12 12"></polygon>
            <polygon id="Shape" fill-rule="nonzero" points="12 3 12 2.19230769 12 0 10 0 10 2.30769231 10 3"></polygon>
            <path d="M12,24.5 L10,24.5 C10,23.6715729 9.32842712,23 8.5,23 C7.67157288,23 7,23.6715729 7,24.5 L5,24.5 C5,22.5670034 6.56700338,21 8.5,21 C10.4329966,21 12,22.5670034 12,24.5 Z" id="Oval-2" fill-rule="nonzero" transform="translate(8.500000, 22.750000) rotate(-180.000000) translate(-8.500000, -22.750000) "></path>
        </g>
    </g>
</svg>