<?xml version="1.0" encoding="UTF-8"?>
<svg width="32px" height="32px" viewBox="0 0 32 32" version="1.1" xmlns="http://www.w3.org/2000/svg" xmlns:xlink="http://www.w3.org/1999/xlink">
    <!-- Generator: Sketch 49.3 (51167) - http://www.bohemiancoding.com/sketch -->
    <title>loan-32</title>
    <desc>Created with Sketch.</desc>
    <defs></defs>
    <g id="loan-32" stroke="none" stroke-width="1" fill="none" fill-rule="evenodd">
        <g transform="translate(4.000000, 2.000000)" fill="#FF0000" fill-rule="nonzero">
            <polygon id="Shape" points="22.125 11.5209616 19.7527184 0.725086228 0.917866978 4.89272649 3.375 15.6875 11.6055823 13.7254674 11.1800347 11.7712644 4.91147096 13.3297797 3.31716583 6.4269911 18.2148539 3.12955964 19.7921339 9.9663094 16.5257402 10.650672 16.9358677 12.6081692"></polygon>
            <path d="M18.5,12.25 C18.5,10.1789322 16.8210678,8.5 14.75,8.5 C12.6789322,8.5 11,10.1789322 11,12.25 C11,14.3210678 12.6789322,16 14.75,16 C16.8210678,16 18.5,14.3210678 18.5,12.25 Z M13,12.25 C13,11.2835017 13.7835017,10.5 14.75,10.5 C15.7164983,10.5 16.5,11.2835017 16.5,12.25 C16.5,13.2164983 15.7164983,14 14.75,14 C13.7835017,14 13,13.2164983 13,12.25 Z" id="Oval"></path>
            <path d="M23.5,18.25 C23.5,16.4550746 22.0449254,15 20.25,15 C18.4550746,15 17,16.4550746 17,18.25 C17,20.0449254 18.4550746,21.5 20.25,21.5 C22.0449254,21.5 23.5,20.0449254 23.5,18.25 Z M19,18.25 C19,17.5596441 19.5596441,17 20.25,17 C20.9403559,17 21.5,17.5596441 21.5,18.25 C21.5,18.9403559 20.9403559,19.5 20.25,19.5 C19.5596441,19.5 19,18.9403559 19,18.25 Z" id="Oval"></path>
            <polygon id="Shape" points="16 21.1877918 9 15.7321563 2 21.1877918 2 27 4 27 4 22.2700005 9 18.2733354 14 22.2700005 14 27 16 27"></polygon>
            <polygon id="Shape" points="8 27 10 27 10 23 8 23"></polygon>
        </g>
    </g>
</svg>