<?xml version="1.0" encoding="UTF-8"?>
<svg width="32px" height="32px" viewBox="0 0 32 32" version="1.1" xmlns="http://www.w3.org/2000/svg" xmlns:xlink="http://www.w3.org/1999/xlink">
    <!-- Generator: Sketch 49.3 (51167) - http://www.bohemiancoding.com/sketch -->
    <title>offer-32</title>
    <desc>Created with Sketch.</desc>
    <defs></defs>
    <g id="offer-32" stroke="none" stroke-width="1" fill="none" fill-rule="evenodd">
        <g transform="translate(3.000000, 1.000000)" fill="#FF0000" fill-rule="nonzero">
            <polygon id="Stroke-3" points="2 23.0087719 2 12 12 12 12 10 0 10 0 25.0087719 17 25.0087719 17 18.0552808 15 18.0552808 15 23.0087719"></polygon>
            <polygon id="Stroke-3" points="7 10.0087719 7 9 10 9 10 7 5 7 5 12.0087719 10 12.0087719 10 10.0087719"></polygon>
            <path d="M19.7520672,8.6681273 L18.3650398,6.11518301 L17.4189597,8.85467903 L14.5213986,8.77142271 L16.4215433,10.9660939 L14.9052112,13.4405005 L17.7589015,12.897632 L19.1459713,15.4506543 L20.0921258,12.7111929 L22.9896133,12.7943865 L21.0894254,10.5996655 L22.6057576,8.12525888 L19.7520672,8.6681273 Z M26.6731769,5.31563085 L23.5593359,10.3969109 L27.4789826,14.924111 L21.5030177,14.7525271 L19.554967,20.3928422 L16.6984786,15.1352276 L10.8377919,16.2501285 L13.9516328,11.1688484 L10.0319449,6.64160073 L16.0080349,6.81331316 L17.9559613,1.1728429 L20.8124901,6.43053171 L26.6731769,5.31563085 Z" id="Stroke-1" transform="translate(18.755464, 10.782843) rotate(4.500000) translate(-18.755464, -10.782843) "></path>
        </g>
    </g>
</svg>