<?xml version="1.0" encoding="UTF-8"?>
<svg width="32px" height="32px" viewBox="0 0 32 32" version="1.1" xmlns="http://www.w3.org/2000/svg" xmlns:xlink="http://www.w3.org/1999/xlink">
    <!-- Generator: Sketch 49.3 (51167) - http://www.bohemiancoding.com/sketch -->
    <title>other_vehicles-32</title>
    <desc>Created with Sketch.</desc>
    <defs></defs>
    <g id="other_vehicles-32" stroke="none" stroke-width="1" fill="none" fill-rule="evenodd">
        <g transform="translate(1.000000, 3.000000)" fill="#FF0000" fill-rule="nonzero">
            <path d="M28,18.5839416 C28,16.8385784 26.6487105,15.4379562 24.9998833,15.4379562 C23.3514061,15.4379562 22,16.8386993 22,18.5839416 C22,20.3291839 23.3514061,21.729927 24.9998833,21.729927 C26.6487105,21.729927 28,20.3293048 28,18.5839416 Z M30,18.5839416 C30,21.4181462 27.7696447,23.729927 24.9998833,23.729927 C22.2304719,23.729927 20,21.4180253 20,18.5839416 C20,15.749858 22.2304719,13.4379562 24.9998833,13.4379562 C27.7696447,13.4379562 30,15.749737 30,18.5839416 Z" id="Stroke-3"></path>
            <path d="M8,18.5839416 C8,16.8386706 6.64856716,15.4379562 4.99988332,15.4379562 C3.35140613,15.4379562 2,16.8386993 2,18.5839416 C2,20.3291839 3.35140613,21.729927 4.99988332,21.729927 C6.64856716,21.729927 8,20.3292127 8,18.5839416 Z M10,18.5839416 C10,21.4180713 7.76948261,23.729927 4.99988332,23.729927 C2.23047194,23.729927 0,21.4180253 0,18.5839416 C0,15.749858 2.23047194,13.4379562 4.99988332,13.4379562 C7.76948261,13.4379562 10,15.7498119 10,18.5839416 Z" id="Stroke-5"></path>
            <path d="M18.7999878,19.2435302 L16.7999878,19.2435302 C16.7999878,14.3385128 20.4748416,10.3284672 25.0534461,10.3284672 C26.3656408,10.3284672 27.6352218,10.6600173 28.7799114,11.2862079 L27.8200642,13.0408285 C26.9666318,12.5739671 26.0265565,12.3284672 25.0534461,12.3284672 C21.6202704,12.3284672 18.7999878,15.4059943 18.7999878,19.2435302 Z" id="Stroke-7"></path>
            <polygon id="Stroke-9" points="23.2691731 15.3496943 21.8298464 16.7383405 19.2803366 14.095783 20.7196634 12.7071367"></polygon>
            <polygon id="Stroke-11" points="8.13852456 16.771124 6.69919778 15.3824777 8.28033661 13.7436331 9.71966339 15.1322793"></polygon>
            <polygon id="Stroke-13" points="18 16.5474453 18 18.5474453 12.8523719 18.5474453 7.13337834 12.7772723 8.55387752 11.3693724 13.6860227 16.5474453"></polygon>
            <polygon id="Stroke-15" points="12.444331 10.4868964 11.555669 8.69517102 19.1859825 4.91067937 21.5472001 7.56784206 24.9048956 7.56784206 26.8569193 10.8130166 25.1430807 11.8439177 23.7739852 9.56784206 20.6488899 9.56784206 18.7058693 7.38129144"></polygon>
            <polygon id="Stroke-17" points="15.0853171 3.14473278 13.1888957 3.71700287 12.6111035 1.80228196 15.7493751 0.855267218 20.6563262 6.52828748 19.1436731 7.83667603"></polygon>
            <polygon id="Stroke-19" points="2 10.3284672 5.98261845 10.3284672 5.98261845 12.3284672 0 12.3284672 0 6.18248175 11.0714216 6.18248175 13.2452625 10.0230368 11.5047375 11.0082132 9.9053096 8.18248175 2 8.18248175"></polygon>
        </g>
    </g>
</svg>