<?xml version="1.0" encoding="UTF-8"?>
<svg width="32px" height="32px" viewBox="0 0 32 32" version="1.1" xmlns="http://www.w3.org/2000/svg" xmlns:xlink="http://www.w3.org/1999/xlink">
    <!-- Generator: Sketch 49.3 (51167) - http://www.bohemiancoding.com/sketch -->
    <title>press_media-32</title>
    <desc>Created with Sketch.</desc>
    <defs></defs>
    <g id="press_media-32" stroke="none" stroke-width="1" fill="none" fill-rule="evenodd">
        <g transform="translate(3.000000, 5.000000)" fill="#FF0000">
            <polygon id="Stroke-1" fill-rule="nonzero" points="9 18 9 16 21 16 21 18"></polygon>
            <polygon id="Stroke-2" fill-rule="nonzero" points="9 15 9 13 21 13 21 15"></polygon>
            <path d="M9,12 L17,12 L17,5 L9,5 L9,12 Z M11.037,10 L15,10 L15,7.038 L11.037,7.038 L11.037,10 Z" id="Fill-3"></path>
            <path d="M22.806,20 C23.5468786,20 24,19.4541327 24,18.5 L24,2.13471937 C23.7285643,2.21894786 23.4353585,2.349198 23.0414347,2.54299354 C21.9315752,3.08900234 21.2929114,3.2914 20.2000008,3.2914 C19.102217,3.2914 18.4700532,3.08602234 17.3946534,2.53601404 C16.5763026,2.11747234 16.2147163,2 15.5,2 C14.7828148,2 14.4119388,2.1189936 13.5732963,2.539585 C12.4806888,3.0875436 11.8453148,3.2914 10.75,3.2914 C9.65576041,3.2914 9.00159461,3.08459713 7.90466301,2.54205502 C7.51387228,2.34879819 7.24572096,2.22843275 7,2.14716396 L7,18.5 C7,19.060862 6.91273008,19.5630169 6.74707875,20 L22.806,20 Z M3.5,22 C1.36613253,22 0,20.6587062 0,18.5 L0,6.5 C0,5.08068505 1.04352395,4 2.5,4 L4,4 L4,6 L2.5,6 C2.16405598,6 2,6.1698982 2,6.5 L2,18.5 C2,19.5458392 2.46257118,20 3.5,20 C4.56550312,20 5,19.581303 5,18.5 L5,0 L6,0 C7.04778849,0 7.68428674,0.201886108 8.74899556,0.728402024 C9.63671306,1.1674678 10.0287396,1.2914 10.75,1.2914 C11.4671852,1.2914 11.8380612,1.1724064 12.6767037,0.751815003 C13.7693112,0.203856397 14.4046852,0 15.5,0 C16.5977837,0 17.2299475,0.205377659 18.3053474,0.755385956 C19.1236981,1.17392766 19.4852845,1.2914 20.2000008,1.2914 C20.9195901,1.2914 21.2996762,1.17094766 22.158566,0.748406459 C23.2684256,0.202397663 23.9070893,0 25,0 L26,0 L26,18.5 C26,20.4849402 24.7423574,22 22.806,22 L4,22 C3.83866074,21.9917367 3.67190281,22 3.5,22 Z" id="Stroke-4" fill-rule="nonzero"></path>
        </g>
    </g>
</svg>