<?xml version="1.0" encoding="UTF-8"?>
<svg width="32px" height="32px" viewBox="0 0 32 32" version="1.1" xmlns="http://www.w3.org/2000/svg" xmlns:xlink="http://www.w3.org/1999/xlink">
    <!-- Generator: Sketch 49.3 (51167) - http://www.bohemiancoding.com/sketch -->
    <title>prevent-32</title>
    <desc>Created with Sketch.</desc>
    <defs></defs>
    <g id="prevent-32" stroke="none" stroke-width="1" fill="none" fill-rule="evenodd">
        <g transform="translate(6.000000, 5.000000)" fill="#FF0000">
            <path d="M18,12.2422 C18,15.6522 12.773,19.2232 10.012,20.7412 C7.246,19.1842 2,15.5552 2,12.2422 L2,5.3622 C3.515,4.7612 4.761,3.5142 5.362,2.0002 L14.669,2.0002 C15.288,3.4672 16.533,4.7122 18,5.3312 L18,12.2422 Z M16.25,0.0002 L3.75,0.0002 C3.75,1.9122 1.952,3.7502 0,3.7502 L0,12.2422 C0,18.0482 10,23.0002 10,23.0002 C10,23.0002 20,18.2032 20,12.2422 L20,3.7502 C18.163,3.7502 16.25,1.8742 16.25,0.0002 Z" id="Fill-1"></path>
            <polygon id="Page-1" fill-rule="nonzero" points="13.907 7.60027 9.267 12.21427 6.924 9.91877 5.5 11.32377 9.253 15.04727 15.316 9.01827"></polygon>
        </g>
    </g>
</svg>