<?xml version="1.0" encoding="UTF-8"?>
<svg width="32px" height="32px" viewBox="0 0 32 32" version="1.1" xmlns="http://www.w3.org/2000/svg" xmlns:xlink="http://www.w3.org/1999/xlink">
    <!-- Generator: Sketch 49.3 (51167) - http://www.bohemiancoding.com/sketch -->
    <title>sustainability-32</title>
    <desc>Created with Sketch.</desc>
    <defs></defs>
    <g id="sustainability-32" stroke="none" stroke-width="1" fill="none" fill-rule="evenodd">
        <g transform="translate(4.000000, 2.000000)" fill="#FF0000" fill-rule="nonzero">
            <polygon id="Line-2" points="3.75 14.6318823 5.37141876 13.4609847 11.1137449 21.4127606 9.49232618 22.5836582"></polygon>
            <polygon id="Line-3" points="13.0489434 9.94086557 14.9966344 9.48644337 16.1439138 14.4037773 14.1962227 14.8581995"></polygon>
            <polygon id="Line-4" points="14.618238 14.9986291 14.2425134 13.0342384 19.231833 12.0799423 19.6075577 14.044333"></polygon>
            <polygon id="Line" points="8.14657079 27.0351401 6.45057418 25.9751422 17.7962864 7.82200276 19.492283 8.88200064"></polygon>
            <path d="M2.71997438,11.5734991 L2.71992467,14.2041021 C2.74201477,16.0062377 3.52404036,16.8545634 5.33244814,17.0332502 L5.13578804,19.0235579 C2.31540118,18.7448786 0.754681243,17.0518409 0.71999979,14.2163589 L0.71999979,8.8836361 L5.82046488,10.4173591 L5.92813314,10.4565915 C9.52531748,12.0061917 10.2316864,14.7353073 7.88327491,17.9345925 L6.27101038,16.7511218 C7.85402905,14.5945456 7.5465999,13.347479 5.18825794,12.3157183 L2.71997438,11.5734991 Z" id="Path-2"></path>
            <path d="M21.3190594,3.85141085 L16.396937,6.07638305 C12.5081365,7.90489188 11.2189746,10.2821536 12.2515705,13.4782838 L12.559001,14.4298543 L10.6558599,15.0447153 L10.3484295,14.0931448 C8.98102536,9.8607035 10.8061492,6.49510812 15.5595074,4.26020907 L23.1380819,0.834278142 L23.2267025,2.28174708 L23.6120709,8.57633813 C23.8004533,11.4020739 23.2578977,14.122566 21.8835472,15.9641454 C20.1050279,18.3472963 17.1617689,19.0438086 13.2534324,17.733695 L13.8890899,15.8373987 C17.026452,16.889074 19.0561958,16.408742 20.2806966,14.7679556 C21.3238423,13.3701785 21.7760546,11.1026873 21.6161547,8.70396721 L21.3190594,3.85141085 Z" id="Line-5"></path>
        </g>
    </g>
</svg>