<?xml version="1.0" encoding="UTF-8"?>
<svg width="32px" height="32px" viewBox="0 0 32 32" version="1.1" xmlns="http://www.w3.org/2000/svg" xmlns:xlink="http://www.w3.org/1999/xlink">
    <!-- Generator: Sketch 49.3 (51167) - http://www.bohemiancoding.com/sketch -->
    <title>travel_plane-32</title>
    <desc>Created with Sketch.</desc>
    <defs></defs>
    <g id="travel_plane-32" stroke="none" stroke-width="1" fill="none" fill-rule="evenodd">
        <g transform="translate(0.000000, 2.000000)" fill="#FF0000" fill-rule="nonzero">
            <polygon id="Stroke-1" points="14.5195933 20.3106823 13.0706749 21.6893177 10.1839864 18.6554653 15.367486 16.9591313 20.7316267 18.3279237 20.2371233 20.2658263 15.4366549 19.0408687 13.8160136 19.5712341"></polygon>
            <path d="M11.3912871,24.7662899 L16.6777523,23.2343189 L15.8276351,26.5526734 L17.115812,26.1796903 L21.11647,21.9567843 L21.3773895,21.8812101 L27.381723,20.142082 C27.6521305,20.0638452 27.8531421,19.8676857 27.944768,19.6283205 L25.1368247,19.0303229 L12.276862,22.753057 L9.71018769,23.4961175 L7.16219606,22.1372363 L5.08647037,22.5818755 L6.08417243,23.5104062 L11.3912871,24.7662899 Z M11.4426702,26.8336857 L5.1088481,25.3348404 L0.913529634,21.4303862 L7.45821103,20.0284563 L9.93444524,21.3490683 L11.7207118,20.8319383 L25.0626626,16.9696771 L29.715418,17.9605578 L29.8838895,18.5316578 C30.329731,20.0430115 29.4555343,21.6240969 27.9378634,22.0632035 L22.1947297,23.7266763 L18.1940022,27.9496557 L13.021476,29.4473266 L13.8713626,26.1298721 L11.4426702,26.8336857 Z" id="Stroke-2"></path>
            <path d="M19.9999652,14.4941258 C19.9968064,14.2181788 19.7703458,13.9968745 19.4947289,14.0000302 C19.3466453,14.0017837 19.2122029,14.066371 19.1181461,14.1774523 C19.0406178,14.2688826 18.9986788,14.3830198 19.0000212,14.5053737 C19.0033235,14.7819762 19.2298025,15.003257 19.5060666,14.9999563 C19.7818478,14.9967986 20.0031266,14.7703044 19.9999652,14.4941258 Z M21.9998329,14.4712319 C22.0156354,15.8517265 20.9094182,16.9840162 19.5294622,16.9998165 C18.1488994,17.0163112 17.0166487,15.9100488 17.0001527,14.5282849 C16.9934697,13.9193822 17.2066084,13.3393244 17.5922682,12.8845107 C18.0569023,12.335775 18.7374016,12.0088577 19.4714386,12.0001659 C20.8518857,11.9843598 21.9840303,13.0907261 21.9998329,14.4712319 Z" id="Stroke-8"></path>
            <path d="M15.9027273,3.74291934 C18.2209929,4.13793159 20,6.02721032 20,8.33307143 C20,9.06850346 19.8170205,9.78070043 19.4716267,10.423597 L17.7097915,9.47705766 C17.9004333,9.12220773 18,8.73467196 18,8.33307143 C18,6.88108873 16.6752534,5.66692857 15.0002,5.66692857 L14.0002,5.66692857 L14.0002,4.66692857 C14.0002,3.21424561 12.6755562,2 11.0004,2 C9.32453976,2 7.99980001,3.21416587 7.99980001,4.66692857 L7.99980001,5.66692857 L6.99980001,5.66692857 C5.32425065,5.66692857 4,6.88080184 4,8.33307143 C4,9.78556303 5.32447347,11 6.99980001,11 L8.79998779,11 L8.79998779,13 L6.99980001,13 C4.25676952,13 2,10.9307216 2,8.33307143 C2,6.026965 3.77865026,4.13780531 6.09727827,3.7428861 C6.55751602,1.59502381 8.59153503,0 11.0004,0 C13.4086924,0 15.4425231,1.5951331 15.9027273,3.74291934 Z" id="Stroke-1"></path>
            <path d="M15,11.5 C15,10.6713741 14.3284713,10 13.4991667,10 C13.058122,10 12.6502807,10.1903348 12.3650065,10.5191755 C12.1306744,10.7882993 12,11.1322271 12,11.5 C12,12.3284713 12.6713741,13 13.4991667,13 C14.3284713,13 15,12.3286259 15,11.5 Z M17,11.5 C17,13.4332984 15.4329377,15 13.4991667,15 C11.5667015,15 10,13.4329377 10,11.5 C10,10.6459268 10.307557,9.83645377 10.8554588,9.20720666 C11.5154026,8.4464715 12.4720828,8 13.4991667,8 C15.4329377,8 17,9.56670155 17,11.5 Z" id="Stroke-3"></path>
        </g>
    </g>
</svg>