<?xml version="1.0" encoding="UTF-8"?>
<svg width="32px" height="32px" viewBox="0 0 32 32" version="1.1" xmlns="http://www.w3.org/2000/svg" xmlns:xlink="http://www.w3.org/1999/xlink">
    <!-- Generator: Sketch 51.3 (57544) - http://www.bohemiancoding.com/sketch -->
    <title>insurance_truck-32</title>
    <desc>Created with Sketch.</desc>
    <defs></defs>
    <g id="insurance_truck-32" stroke="none" stroke-width="1" fill="none" fill-rule="evenodd">
        <g transform="translate(0.000000, 3.000000)" fill="#FF0000" fill-rule="nonzero">
            <polygon id="Stroke-8" points="12.9112 21 12.9112 19 20.9112 19 20.9112 21"></polygon>
            <polygon id="Stroke-10" points="20 7 13.0404375 7 13.0404375 5 22 5 22 16 3 16 3 11.3528 5 11.3528 5 14 20 14"></polygon>
            <polygon id="Stroke-12" transform="translate(6.469232, 5.837318) rotate(5.000000) translate(-6.469232, -5.837318) " points="8.04420436 4.05619492 10.7536696 0.953420253 11.8848815 6.33728088 9.92761849 6.74852469 9.62133044 5.29078532 8.45579564 6.62551065 6.89498083 5.69991117 7.20462247 7.59418945 5.57141756 8.32821413 6.74500124 8.96049017 5.79639876 10.7212154 1.05358244 8.16599144 4.98287753 6.40001612 4.23001917 1.7942944"></polygon>
            <polygon id="Stroke-1" points="23 11 23 9 26.896714 9 30 15.6240671 30 20 25.5479 20 25.5479 18 28 18 28 16.0693329 25.625086 11"></polygon>
            <polygon id="Stroke-3" points="7.4385 18 7.4385 20 5.31207234 20 4.35685751 15.8394678 6.30614249 15.3919322 6.90492766 18"></polygon>
        </g>
        <path d="M21.75,23.5 C21.75,24.4663632 22.5336368,25.25 23.5,25.25 C24.4663632,25.25 25.25,24.4663632 25.25,23.5 C25.25,22.5333446 24.4665556,21.75 23.5,21.75 C22.5334444,21.75 21.75,22.5333446 21.75,23.5 Z M20,23.5 C20,21.5667963 21.5669961,20 23.5,20 C25.4330039,20 27,21.5667963 27,23.5 C27,25.4328616 25.4328616,27 23.5,27 C21.5671384,27 20,25.4328616 20,23.5 Z" id="Stroke-5" fill="#FF0000" fill-rule="nonzero"></path>
        <path d="M8.25,23.5 C8.25,24.4663632 9.03363675,25.25 10,25.25 C10.9663632,25.25 11.75,24.4663632 11.75,23.5 C11.75,22.5333446 10.9665556,21.75 10,21.75 C9.03344444,21.75 8.25,22.5333446 8.25,23.5 Z M6.5,23.5 C6.5,21.5667963 8.06699607,20 10,20 C11.9330039,20 13.5,21.5667963 13.5,23.5 C13.5,25.4328616 11.9328616,27 10,27 C8.06713844,27 6.5,25.4328616 6.5,23.5 Z" id="Stroke-5" fill="#FF0000" fill-rule="nonzero"></path>
    </g>
</svg>