<?xml version="1.0" encoding="UTF-8"?>
<svg width="32px" height="32px" viewBox="0 0 32 32" version="1.1" xmlns="http://www.w3.org/2000/svg" xmlns:xlink="http://www.w3.org/1999/xlink">
    <!-- Generator: Sketch 49.3 (51167) - http://www.bohemiancoding.com/sketch -->
    <title>insurance_vehicle-32</title>
    <desc>Created with Sketch.</desc>
    <defs></defs>
    <g id="insurance_vehicle-32" stroke="none" stroke-width="1" fill="none" fill-rule="evenodd">
        <g transform="translate(2.000000, 5.000000)" fill="#FF0000" fill-rule="nonzero">
            <path d="M3,16 C3,13.2387914 5.23879137,11 8,11 C10.7615726,11 13,13.2386303 13,16 C13,18.7613697 10.7615726,21 8,21 C5.23879137,21 3,18.7612086 3,16 Z M5,16 C5,17.6566391 6.34336087,19 8,19 C9.65696248,19 11,17.6568407 11,16 C11,14.3431593 9.65696248,13 8,13 C6.34336087,13 5,14.3433609 5,16 Z" id="Stroke-1"></path>
            <path d="M15.9381014,15 L20.0048919,15 L20.0048919,17 L14,17 L14,16 C14,12.6863452 11.3134956,10 7.99939924,10 C6.17131025,10 4.47969067,10.8217493 3.34622121,12.2125705 C2.82516332,12.8519334 2.42993797,13.5749852 2.19325892,14.3363089 L0.283419309,13.7425811 C0.597605285,12.7319414 1.11640435,11.7828157 1.79586465,10.9490854 C3.3051862,9.09707576 5.56358159,8 7.99939924,8 C12.0793486,8 15.4459677,11.0537088 15.9381014,15 Z" id="Stroke-3"></path>
            <path d="M19,17 C19,14.7906243 20.7908526,13 23,13 C25.2091474,13 27,14.7906243 27,17 C27,19.2089846 25.2089846,21 23,21 C20.7910154,21 19,19.2089846 19,17 Z M21,17 C21,18.1044151 21.8955849,19 23,19 C24.1044151,19 25,18.1044151 25,17 C25,15.8952509 24.1046349,15 23,15 C21.8953651,15 21,15.8952509 21,17 Z" id="Stroke-5"></path>
            <polygon id="Stroke-7" points="18.0719208 8 25 8 25 14.7977273 23 14.7977273 23 10 16.7780792 10 13.6320565 3 5 3 5 10.7028409 3 10.7028409 3 1 14.925898 1"></polygon>
            <path d="M18.2999992,2 L18.2999992,0 C19.7914885,0 21.0011356,1.20964707 21.0011356,2.70113636 L21.0011356,9.87386364 L19.0011356,9.87386364 L19.0011356,2.70113636 C19.0011356,2.31421657 18.686919,2 18.2999992,2 Z" id="Stroke-9"></path>
            <polygon id="Stroke-11" points="8 2.64073864 10 2.64073864 10 7 8 7"></polygon>
        </g>
    </g>
</svg>