<?xml version="1.0" encoding="UTF-8"?>
<svg width="24px" height="24px" viewBox="0 0 24 24" version="1.1" xmlns="http://www.w3.org/2000/svg" xmlns:xlink="http://www.w3.org/1999/xlink">
    <!-- Generator: Sketch 61.2 (89653) - https://sketch.com -->
    <title>Icons/24px/apartment-24</title>
    <desc>Created with Sketch.</desc>
    <g id="Icons/24px/apartment-24" stroke="none" stroke-width="1" fill="none" fill-rule="evenodd">
        <g>
            <rect id="invisible-24" x="0" y="0" width="24" height="24"></rect>
            <g id="outlines" transform="translate(2.000000, 2.000000)" fill="#FF0000" fill-rule="nonzero">
                <path d="M20,0 L20,20 L0,20 L0,0 L20,0 Z M18,2 L2,2 L2,18 L7,18 L7,12 L13,12 L13,18 L18,18 L18,2 Z M11,14 L9,14 L9,18 L11,18 L11,14 Z M11,8 L11,10 L9,10 L9,8 L11,8 Z M16,8 L16,10 L14,10 L14,8 L16,8 Z M6,8 L6,10 L4,10 L4,8 L6,8 Z M11,4 L11,6 L9,6 L9,4 L11,4 Z M16,4 L16,6 L14,6 L14,4 L16,4 Z M6,4 L6,6 L4,6 L4,4 L6,4 Z" id="Combined-Shape"></path>
            </g>
        </g>
    </g>
</svg>