<?xml version="1.0" encoding="UTF-8"?>
<svg width="24px" height="24px" viewBox="0 0 24 24" version="1.1" xmlns="http://www.w3.org/2000/svg" xmlns:xlink="http://www.w3.org/1999/xlink">
    <!-- Generator: Sketch 50.2 (55047) - http://www.bohemiancoding.com/sketch -->
    <title>arrow-enclosed-24</title>
    <desc>Created with Sketch.</desc>
    <defs></defs>
    <g id="arrow-enclosed-24" stroke="none" stroke-width="1" fill="none" fill-rule="evenodd">
        <g id="arrow-enclosed-20" transform="translate(3.000000, 3.000000)" fill="#FF0000" fill-rule="nonzero">
            <path d="M9,16 C5.14,16 2,12.86 2,9 C2,5.14 5.14,2 9,2 C12.86,2 16,5.14 16,9 C16,12.86 12.86,16 9,16 M9,0 C4.038,0 0,4.038 0,9 C0,13.962 4.038,18 9,18 C13.962,18 18,13.962 18,9 C18,4.038 13.962,0 9,0" id="Fill-1"></path>
            <path d="M11,9.0216 L11,8.9786 L11.021,8.9996 L11,9.0216 Z M8.783,6.6966 L10.049,7.9996 L4,7.9996 L4,9.9996 L10.049,9.9996 L8.783,11.3036 L10.217,12.6966 L13.81,8.9996 L10.217,5.3036 L8.783,6.6966 Z" id="Fill-3"></path>
        </g>
    </g>
</svg>