<?xml version="1.0" encoding="UTF-8"?>
<svg width="24px" height="24px" viewBox="0 0 24 24" version="1.1" xmlns="http://www.w3.org/2000/svg" xmlns:xlink="http://www.w3.org/1999/xlink">
    <!-- Generator: Sketch 60 (88103) - https://sketch.com -->
    <title>Icons/24px/attach-24</title>
    <desc>Created with Sketch.</desc>
    <g id="Icons/24px/attach-24" stroke="none" stroke-width="1" fill="none" fill-rule="evenodd">
        <g>
            <rect id="invisible-24" x="0" y="0" width="24" height="24"></rect>
            <g id="outlines" transform="translate(4.000000, 3.000000)" fill="#FF0000" fill-rule="nonzero">
                <path d="M6.670429,13.8124708 C7.98115807,16.2614301 9.51181656,16.8729706 11.6353338,15.8827583 C13.758851,14.892546 14.274272,13.3269028 13.2626768,10.7992115 L10.2820161,4.40716396 L12.0946317,3.56192743 L15.0971884,10.004521 C16.5079577,13.5239492 15.6160237,16.2332879 12.4805703,17.6953739 C9.34511688,19.1574598 6.69631886,18.0991915 4.88245947,14.706971 L0.647467359,5.62500111 L0.606677737,5.5233291 C-0.124322834,3.36618056 0.672930336,1.61937853 2.80700844,0.624241571 C4.93727011,-0.369115764 6.79236209,0.13396396 7.99708009,2.06384448 L8.0551018,2.17076444 L12.2900939,11.2527343 L12.3342845,11.3646231 C12.8320988,12.8873999 12.4317623,14.15394 11.115405,14.7677675 C9.79960526,15.381335 8.57181792,14.8749553 7.72346707,13.5162833 L7.66538737,13.4092704 L4.68472666,7.01722288 L6.49734223,6.17198635 L9.45112706,12.5063984 C9.78461913,13.0275042 9.96893083,13.0956214 10.2701685,12.9551519 C10.5709672,12.8148872 10.6366657,12.6309822 10.4509296,12.041037 L6.26960075,3.07414823 C5.61812869,2.0616373 4.86498063,1.87134921 3.65224496,2.43685715 C2.44142294,3.00147272 2.1133265,3.69088596 2.48451303,4.83217593 L6.670429,13.8124708 Z" id="Path"></path>
            </g>
        </g>
    </g>
</svg>