<?xml version="1.0" encoding="UTF-8"?>
<svg width="24px" height="24px" viewBox="0 0 24 24" version="1.1" xmlns="http://www.w3.org/2000/svg" xmlns:xlink="http://www.w3.org/1999/xlink">
    <!-- Generator: Sketch 63.1 (92452) - https://sketch.com -->
    <title>Icons/24px/ATV-24</title>
    <desc>Created with Sketch.</desc>
    <g id="Icons/24px/ATV-24" stroke="none" stroke-width="1" fill="none" fill-rule="evenodd">
        <g>
            <rect id="invisible-24" x="0" y="0" width="24" height="24"></rect>
            <g id="lines" transform="translate(1.000000, 2.000000)" fill="#FF0000" fill-rule="nonzero">
                <path d="M12.2992542,0.732338917 L15.5,5 L17.618034,5 L18.8513487,7.46559011 C19.491708,7.53285819 20.1141264,7.69108005 20.7033451,7.93433383 L21.0020723,8.06629192 L20.1495269,9.87548133 C19.5277795,9.58249492 18.8472219,9.42857143 18.1428571,9.42857143 C17.4097037,9.42857143 16.6669396,9.67288332 15.9824769,10.0858748 L17.0981501,11.2920395 C17.5273614,11.1042124 18.0015107,11 18.5,11 C20.4329966,11 22,12.5670034 22,14.5 C22,16.4329966 20.4329966,18 18.5,18 C16.5670034,18 15,16.4329966 15,14.5 C15,13.7933402 15.209425,13.1355943 15.5695957,12.5854414 L14.4630424,11.3894878 C13.6298927,12.3650548 13.0627352,13.5913701 13.0048846,14.797459 L13,15 L11,15 C11,14.6660127 11.0274211,14.3316714 11.0799555,13.9996695 L9.58578644,14 L7.304,11.7183389 L6.44512955,12.6081244 C6.76381422,13.1032038 6.96107279,13.6838453 6.99482114,14.3079648 L7,14.5 C7,16.4329966 5.43299662,18 3.5,18 C1.56700338,18 0,16.4329966 0,14.5 C0,12.5670034 1.56700338,11 3.5,11 C4.00774921,11 4.49024563,11.1081201 4.92572213,11.302593 L5.89,10.3043389 L5.29289322,9.70710678 L6.70710678,8.29289322 L10.415,12 L11.704847,11.9997628 C12.6850536,9.91629312 14.5793743,8.18723979 16.6933618,7.62316162 L16.381,7 L14.5,7 L13.96,6.27933892 L9.90616368,9.32037724 L7.585,7 L2,7 L2,8 L4,8 L4,10 L1.82076576e-13,10 L1.82076576e-13,5 L8.41421356,5 L10.094,6.679 L12.76,4.67933892 L11.7,3.267 L10.4472136,3.89442719 L9.5527864,2.10557281 L12.2992542,0.732338917 Z M18.5,13 C17.6715729,13 17,13.6715729 17,14.5 C17,15.3284271 17.6715729,16 18.5,16 C19.3284271,16 20,15.3284271 20,14.5 C20,13.6715729 19.3284271,13 18.5,13 Z M3.5,13 C2.67157288,13 2,13.6715729 2,14.5 C2,15.3284271 2.67157288,16 3.5,16 C4.32842712,16 5,15.3284271 5,14.5 C5,13.6715729 4.32842712,13 3.5,13 Z" id="Combined-Shape"></path>
            </g>
        </g>
    </g>
</svg>