<?xml version="1.0" encoding="UTF-8"?>
<svg width="24px" height="24px" viewBox="0 0 24 24" version="1.1" xmlns="http://www.w3.org/2000/svg" xmlns:xlink="http://www.w3.org/1999/xlink">
    <!-- Generator: Sketch 63.1 (92452) - https://sketch.com -->
    <title>Icons/24px/baby-24</title>
    <desc>Created with Sketch.</desc>
    <g id="Icons/24px/baby-24" stroke="none" stroke-width="1" fill="none" fill-rule="evenodd">
        <g>
            <rect id="invisible-24" x="0" y="0" width="24" height="24"></rect>
            <g id="lines" transform="translate(3.000000, 1.000000)" fill="#FF0000" fill-rule="nonzero">
                <path d="M11.7443844,0.208951562 L11.925,0.251 L12.0677806,0.296230466 C13.3572641,0.756456452 14.1049011,2.10978961 13.8081956,3.44615252 L13.7656318,3.61304366 C13.3765217,4.96378262 12.0328387,5.78026626 10.6790174,5.54050109 L10.6753133,5.55531999 C10.1010817,5.40061417 9.50533486,5.32129143 8.89922286,5.32129143 C5.13823955,5.32129143 2.08893714,8.37050138 2.08893714,12.1315771 C2.08893714,15.8923563 5.13828578,18.94152 8.89922286,18.94152 C12.6602986,18.94152 15.7091657,15.8925605 15.7091657,12.1315771 C15.7091657,10.0029307 14.726769,8.04068114 13.0866364,6.7606489 L12.8690027,6.59759948 L14.0364144,4.97366909 C16.324162,6.61828594 17.7091657,9.25966502 17.7091657,12.1315771 C17.7091657,16.9971164 13.7648817,20.94152 8.89922286,20.94152 C4.03374343,20.94152 0.0889371429,16.9969529 0.0889371429,12.1315771 C0.0889371429,7.2659183 4.03368362,3.32129143 8.89922286,3.32129143 C9.55117416,3.32129143 10.1950088,3.39254927 10.8217024,3.53220144 L10.9469371,3.56258972 L10.9503136,3.55311557 C11.3335178,3.66364974 11.7333683,3.44271012 11.8438813,3.05908072 C11.9360131,2.73967431 11.7978635,2.4085691 11.5274875,2.24318826 L11.494,2.225 L11.2574551,2.41539681 C11.1626665,2.49002905 11.076752,2.55223719 10.9878763,2.60727701 L10.8508624,2.68511748 L9.92975473,0.909853946 L9.9757032,0.878208208 L10.1326442,0.753274538 C10.3790205,0.553081229 10.5301673,0.446364975 10.7545594,0.34441614 C11.0659577,0.202937473 11.4001922,0.150876717 11.7443844,0.208951562 Z M5.71698707,14.3018745 C6.07917481,14.7041247 6.57700164,14.9366895 7.10933329,14.9645878 C7.5820712,14.989363 8.0454228,14.8503079 8.42519104,14.5647621 L8.56354125,14.4508496 L9.90136896,15.9375295 C9.10053988,16.6581764 8.06048618,17.0171803 7.00466138,16.9618469 C6.02373197,16.9104386 5.09441801,16.5053604 4.38934692,15.8065793 L4.23069742,15.6401357 L5.71698707,14.3018745 Z M7.17534335,11.0237443 L7.18755397,11.1729588 L5.18971625,11.2659343 C5.18728461,11.2136837 5.1429255,11.1732888 5.09032282,11.1757368 C5.0511349,11.1775606 5.0186158,11.2029685 5.00583825,11.2377502 L5.0001254,11.2751303 L3.00228768,11.3681057 C2.94850053,10.2123378 3.84151131,9.23168944 4.9973474,9.17789911 C6.1028645,9.12645053 7.04815884,9.94125941 7.17534335,11.0237443 Z M11.8695376,10.8481329 L11.8817483,10.9973474 L9.88391054,11.0903228 C9.8814789,11.0380723 9.83711978,10.9976774 9.78451711,11.0001254 C9.7453963,11.001946 9.71301376,11.0272273 9.70030618,11.0618034 L9.69463606,11.0989532 L7.69685131,11.1930599 C7.64239752,10.0370651 8.53550537,9.05608733 9.69154169,9.00228768 C10.7970588,8.9508391 11.7423531,9.76564799 11.8695376,10.8481329 Z" id="Combined-Shape"></path>
            </g>
        </g>
    </g>
</svg>