<?xml version="1.0" encoding="UTF-8"?>
<svg width="24px" height="24px" viewBox="0 0 24 24" version="1.1" xmlns="http://www.w3.org/2000/svg" xmlns:xlink="http://www.w3.org/1999/xlink">
    <!-- Generator: Sketch 50.2 (55047) - http://www.bohemiancoding.com/sketch -->
    <title>bank-24</title>
    <desc>Created with Sketch.</desc>
    <defs></defs>
    <g id="bank-24" stroke="none" stroke-width="1" fill="none" fill-rule="evenodd">
        <g id="institution-20" transform="translate(3.000000, 2.000000)" fill="#FF0000" fill-rule="nonzero">
            <polygon id="Fill-1" points="2 16 4 16 4 8 2 8"></polygon>
            <polygon id="Fill-2" points="0 19 18 19 18 17 0 17"></polygon>
            <polygon id="Fill-3" points="9 0.847999832 2.72100063 4.99999983 0 4.99999983 0 6.99999983 3.25200063 6.99999983 9 3.19999981 14.7890006 7 18.0000011 7 18.0000011 5.02199962 15.3070006 5.02199983"></polygon>
            <polygon id="Fill-4" points="6 16 8 16 8 8 6 8"></polygon>
            <polygon id="Fill-5" points="10 16 12 16 12 8 10 8"></polygon>
            <polygon id="Fill-6" points="14 16 16 16 16 8 14 8"></polygon>
        </g>
    </g>
</svg>