<?xml version="1.0" encoding="UTF-8"?>
<svg width="24px" height="24px" viewBox="0 0 24 24" version="1.1" xmlns="http://www.w3.org/2000/svg" xmlns:xlink="http://www.w3.org/1999/xlink">
    <title>Icons/24px/bell-24</title>
    <g id="Icons/24px/bell-24" stroke="none" stroke-width="1" fill="none" fill-rule="evenodd">
        <g>
            <rect id="invisible-24" x="0" y="0" width="24" height="24"></rect>
            <g id="outlines" transform="translate(2.000000, 2.000000)" fill="#FF0000" fill-rule="nonzero">
                <path d="M10,0 C11.1045695,0 12,0.8954305 12,2 L12,2 L12.0005457,2.17761344 C15.2611644,2.80470801 17,5.08030866 17,8.81274414 L17,8.81274414 L17,12.7947423 L19.016539,17.5 L12.9585702,17.4997053 C12.7206526,18.918707 11.4866011,20 10,20 C8.51339894,20 7.27934741,18.918707 7.0414298,17.4997053 L0.983460985,17.5 L3,12.7947423 L3,8.81274414 C3,5.08030866 4.73883556,2.80470801 7.99945429,2.17761344 L8,2 C8,0.8954305 8.8954305,0 10,0 Z M10.8661429,17.5001295 L9.13385712,17.5001295 C9.30678026,17.7989588 9.62991228,18 10,18 C10.3700877,18 10.6932197,17.7989588 10.8661429,17.5001295 Z M10,4 C6.54531396,4 5,5.49708578 5,8.81274414 L5,8.81274414 L5,13.2052577 L4.01653902,15.5 L15.983461,15.5 L15,13.2052577 L15,8.81274414 C15,5.49708578 13.454686,4 10,4 Z" id="Combined-Shape"></path>
            </g>
        </g>
    </g>
</svg>