<?xml version="1.0" encoding="UTF-8"?>
<svg width="24px" height="24px" viewBox="0 0 24 24" version="1.1" xmlns="http://www.w3.org/2000/svg" xmlns:xlink="http://www.w3.org/1999/xlink">
    <!-- Generator: Sketch 54.1 (76490) - https://sketchapp.com -->
    <title>Icons/24px/bills-coins-24</title>
    <desc>Created with Sketch.</desc>
    <g id="Icons/24px/bills-coins-24" stroke="none" stroke-width="1" fill="none" fill-rule="evenodd">
        <g>
            <rect id="invisible-24" x="0" y="0" width="24" height="24"></rect>
            <g id="lines" transform="translate(3.000000, 2.000000)" fill="#FF0000" fill-rule="nonzero">
                <polygon id="Rectangle" points="15.2961473 1.47366634 16.1036948 5.12193047 18.0564284 4.68969063 16.836538 -0.821418934 5.6414009 1.10872862 5.98120644 3.07965028"></polygon>
                <path d="M9,12.5 C9,10.5670034 7.43299662,9 5.5,9 C3.56700338,9 2,10.5670034 2,12.5 C2,14.4329966 3.56700338,16 5.5,16 C7.43299662,16 9,14.4329966 9,12.5 Z M4,12.5 C4,11.6715729 4.67157288,11 5.5,11 C6.32842712,11 7,11.6715729 7,12.5 C7,13.3284271 6.32842712,14 5.5,14 C4.67157288,14 4,13.3284271 4,12.5 Z" id="Oval-2"></path>
                <path d="M8.8422444,21.0077139 C10.3610275,21.0077139 11.5922444,19.776497 11.5922444,18.2577139 C11.5922444,16.7389308 10.3610275,15.5077139 8.8422444,15.5077139 C7.32346134,15.5077139 6.0922444,16.7389308 6.0922444,18.2577139 C6.0922444,19.776497 7.32346134,21.0077139 8.8422444,21.0077139 Z M8.8422444,19.0077139 C8.42803083,19.0077139 8.0922444,18.6719275 8.0922444,18.2577139 C8.0922444,17.8435003 8.42803083,17.5077139 8.8422444,17.5077139 C9.25645796,17.5077139 9.5922444,17.8435003 9.5922444,18.2577139 C9.5922444,18.6719275 9.25645796,19.0077139 8.8422444,19.0077139 Z" id="Oval-2"></path>
                <polygon id="Rectangle" points="1.42437133 9.56584209 2.94069957 2.71551296 16.2601175 5.43415791 14.7437892 12.284487 8.27639732 10.9644187 7.87642131 12.9240154 16.2713538 14.6375167 18.6522794 3.88118905 1.41313496 0.36248327 -0.967790556 11.118811 3.16591268 11.9625469 3.56588869 10.0029502"></polygon>
            </g>
        </g>
    </g>
</svg>