<?xml version="1.0" encoding="UTF-8"?>
<svg width="24px" height="24px" viewBox="0 0 24 24" version="1.1" xmlns="http://www.w3.org/2000/svg" xmlns:xlink="http://www.w3.org/1999/xlink">
    <!-- Generator: Sketch 61.2 (89653) - https://sketch.com -->
    <title>Icons/24px/boat-24</title>
    <desc>Created with Sketch.</desc>
    <defs>
        <path d="M17.4771892,16.5196552 C18.3839674,16.9222188 19.4120839,16.9548561 20.3425692,16.6106157 L20.6530259,16.4957599 L21.3469741,18.3715093 L21.0365174,18.4863652 C19.6171556,19.0114692 18.0488671,18.9616844 16.665668,18.347614 C15.7588897,17.9450503 14.7307732,17.9124131 13.8002879,18.2566534 L13.0818445,18.5224472 C11.738442,19.0194494 10.261558,19.0194494 8.91815551,18.5224472 L8.1997121,18.2566534 C7.26922679,17.9124131 6.24111028,17.9450503 5.33433202,18.347614 C3.95113288,18.9616844 2.38284445,19.0114692 0.963482593,18.4863652 L0.653025918,18.3715093 L1.34697408,16.4957599 L1.65743076,16.6106157 C2.58791607,16.9548561 3.61603258,16.9222188 4.52281084,16.5196552 C5.90600997,15.9055848 7.47429841,15.8558 8.89366026,16.380904 L9.61210367,16.6466978 C10.5077053,16.9780326 11.4922947,16.9780326 12.3878963,16.6466978 L13.1063397,16.380904 C14.5257016,15.8558 16.09399,15.9055848 17.4771892,16.5196552 Z M11.0000842,5.97443721 L17.5202941,7.45811152 C18.5973315,7.70319147 19.2717663,8.77497936 19.0266864,9.85201678 C18.999541,9.97131084 18.9615068,10.0878625 18.913062,10.2002059 L16.6725446,15.3959728 L14.8360201,14.6040272 L17.0765376,9.40826027 L11.0000842,8.02556279 L4.92363082,9.40826027 L7.16414831,14.6040272 L5.32762386,15.3959728 L3.08710638,10.2002059 C2.64972686,9.1859215 3.1174007,8.00911534 4.13168515,7.57173582 C4.24402861,7.5232911 4.36058026,7.48525689 4.47987431,7.45811152 L11.0000842,5.97443721 Z M12,10 L12,14 L10,14 L10,10 L12,10 Z M10,1 C10,0.44771525 10.4477153,1.01453063e-16 11,0 C11.5522847,-1.01453063e-16 12,0.44771525 12,1 L12,2 L13.4166667,2 C14.6277692,2 15.7200888,2.72821303 16.1858974,3.84615385 L16.9230769,5.61538462 L15.0769231,6.38461538 L14.3397436,4.61538462 C14.184474,4.24273768 13.8203675,4 13.4166667,4 L8.58333333,4 C8.17963248,4 7.81552597,4.24273768 7.66025641,4.61538462 L6.92307692,6.38461538 L5.07692308,5.61538462 L5.81410256,3.84615385 C6.27991124,2.72821303 7.37223078,2 8.58333333,2 L10,2 L10,1 Z" id="path-1"></path>
    </defs>
    <g id="Icons/24px/boat-24" stroke="none" stroke-width="1" fill="none" fill-rule="evenodd">
        <g>
            <rect id="invisible-24" x="0" y="0" width="24" height="24"></rect>
            <g id="outlines" transform="translate(1.000000, 2.000000)">
                <mask id="mask-2" fill="white">
                    <use xlink:href="#path-1"></use>
                </mask>
                <use id="Combined-Shape" fill="#FF0000" fill-rule="nonzero" xlink:href="#path-1"></use>
            </g>
        </g>
    </g>
</svg>