<?xml version="1.0" encoding="UTF-8"?>
<svg width="24px" height="24px" viewBox="0 0 24 24" version="1.1" xmlns="http://www.w3.org/2000/svg" xmlns:xlink="http://www.w3.org/1999/xlink">
    <!-- Generator: Sketch 50.2 (55047) - http://www.bohemiancoding.com/sketch -->
    <title>breifcase-first-aid-24</title>
    <desc>Created with Sketch.</desc>
    <defs></defs>
    <g id="breifcase-first-aid-24" stroke="none" stroke-width="1" fill="none" fill-rule="evenodd">
        <g id="breifcase-first-aid-20" transform="translate(2.000000, 2.500000)" fill="#FF0000" fill-rule="nonzero">
            <polygon id="Fill-1" points="11 7.5 9 7.5 9 9.5 7 9.5 7 11.5 9 11.5 9 13.5 11 13.5 11 11.5 13 11.5 13 9.5 11 9.5"></polygon>
            <path d="M18,15 C18,15.271 17.771,15.5 17.5,15.5 L17,15.5 L17,5.5 L17.5,5.5 C17.771,5.5 18,5.729 18,6 L18,15 Z M15,15.5 L5,15.5 L5,5.5 L8,5.5 L12,5.5 L15,5.5 L15,15.5 Z M3,15.5 L2.5,15.5 C2.229,15.5 2,15.271 2,15 L2,6 C2,5.729 2.229,5.5 2.5,5.5 L3,5.5 L3,15.5 Z M8,3.5 L8,2.5 L12,2.5 L12,3.5 L8,3.5 Z M14,3.5 L14,0.5 L6,0.5 L6,3.5 L2.5,3.5 C1.121,3.5 0,4.622 0,6 L0,15 C0,16.378 1.121,17.5 2.5,17.5 L17.5,17.5 C18.879,17.5 20,16.378 20,15 L20,6 C20,4.622 18.879,3.5 17.5,3.5 L14,3.5 Z" id="Fill-2"></path>
        </g>
    </g>
</svg>