<?xml version="1.0" encoding="UTF-8"?>
<svg width="24px" height="24px" viewBox="0 0 24 24" version="1.1" xmlns="http://www.w3.org/2000/svg" xmlns:xlink="http://www.w3.org/1999/xlink">
    <!-- Generator: Sketch 50.2 (55047) - http://www.bohemiancoding.com/sketch -->
    <title>calendar-cross-24</title>
    <desc>Created with Sketch.</desc>
    <defs></defs>
    <g id="calendar-cross-24" stroke="none" stroke-width="1" fill="none" fill-rule="evenodd">
        <g id="calendar-cross-20" transform="translate(3.000000, 2.000000)" fill="#FF0000" fill-rule="nonzero">
            <path d="M16,5 L2,5 L2,3.33 C2,3.149 2.161,3.004 2.346,3 L5,3 L5,4 L7,4 L7,3 L11,3 L11,4 L13,4 L13,3 L15.634,3 C15.839,3.004 16,3.149 16,3.33 L16,5 Z M16,16.662 C16,16.858 15.854,17 15.654,17 L2.346,17 C2.146,17 2,16.858 2,16.662 L2,7 L16,7 L16,16.662 Z M13,1 L13,0 L11,0 L11,1 L7,1 L7,0 L5,0 L5,1 L2.325,1 C1.021,1.026 0,2.05 0,3.33 L0,16.662 C0,17.973 1.03,19 2.346,19 L15.654,19 C16.97,19 18,17.973 18,16.662 L18,3.33 C18,2.05 16.979,1.026 15.654,1 L13,1 Z" id="Fill-1"></path>
            <polygon id="Fill-3" points="6.9648 15.4497 8.9998 13.4147 11.0348 15.4497 12.4488 14.0357 10.4138 12.0007 12.4138 9.9997 10.9998 8.5857 8.9998 10.5857 6.9998 8.5857 5.5858 9.9997 7.5858 12.0007 5.5508 14.0357"></polygon>
        </g>
    </g>
</svg>