<?xml version="1.0" encoding="UTF-8"?>
<svg width="24px" height="24px" viewBox="0 0 24 24" version="1.1" xmlns="http://www.w3.org/2000/svg" xmlns:xlink="http://www.w3.org/1999/xlink">
    <!-- Generator: Sketch 50.2 (55047) - http://www.bohemiancoding.com/sketch -->
    <title>contact-header-24</title>
    <desc>Created with Sketch.</desc>
    <defs></defs>
    <g id="contact-header-24" stroke="none" stroke-width="1" fill="none" fill-rule="evenodd">
        <g transform="translate(-0.700000, 1.000000)" fill="#FF0000" fill-rule="nonzero" id="Group">
            <g>
                <path d="M12.7005067,21.2833333 C11.1653069,21.2833333 9.92519016,20.0252439 9.92519016,18.4786644 C9.92519016,16.9320849 11.1653069,15.6739955 12.7005067,15.6739955 C14.2357065,15.6739955 15.4758232,16.9320849 15.4758232,18.4786644 C15.4758232,20.0252439 14.2357065,21.2833333 12.7005067,21.2833333 Z M12.7005067,19.7833333 C13.4024097,19.7833333 13.9758232,19.2016095 13.9758232,18.4786644 C13.9758232,17.7557193 13.4024097,17.1739955 12.7005067,17.1739955 C11.9986036,17.1739955 11.4251902,17.7557193 11.4251902,18.4786644 C11.4251902,19.2016095 11.9986036,19.7833333 12.7005067,19.7833333 Z" id="Oval"></path>
                <path d="M12.7005067,0.418078645 C15.4354948,0.418078645 17.9948431,1.64168841 19.7533098,3.7133743 L18.6097293,4.68405634 C17.1319611,2.9430672 14.9880565,1.91807865 12.7005067,1.91807865 C9.48233901,1.91807865 6.62860371,3.9233959 5.47305551,6.8676332 L5.35823005,7.27032175 C5.08657512,8.05116564 4.9441773,8.94201189 4.9441773,9.84905488 C4.9441773,10.9564559 5.1671696,12.0399501 5.5939191,13.0501301 L6.03405263,14.0919921 L4.75113934,14.0919921 C2.5117061,14.0919921 0.71,12.2641743 0.71,10.0031551 C0.71,7.91717938 2.24353579,6.1999264 4.23952561,5.94653625 C5.74012881,2.61274678 9.01787196,0.418078645 12.7005067,0.418078645 Z M2.21,10.0031551 C2.21,11.0908115 2.85988173,12.0147482 3.78535879,12.3999637 C3.56018296,11.5736404 3.4441773,10.7174447 3.4441773,9.84905488 C3.4441773,9.09203234 3.52867708,8.34167955 3.68947251,7.64863652 C2.81530612,8.05626013 2.21,8.9534625 2.21,10.0031551 Z" id="Shape"></path>
                <path d="M19.9279579,6.8676332 L21.3717902,6.46100288 L21.4594964,6.77744846 C21.7878415,7.7212423 21.9568361,8.77847903 21.9568361,9.84905488 C21.9568361,13.3530659 20.0347164,16.5666272 17.0600571,18.1608939 C16.3513412,18.5480408 15.5772506,18.8336078 14.7838796,19.0060798 L14.4652351,17.5403152 C15.1204057,17.3978868 15.7595458,17.162104 16.3462153,16.8416539 C18.8386585,15.5058079 20.4568361,12.8004027 20.4568361,9.84905488 C20.4568361,8.94201189 20.3144382,8.05116564 20.0292237,7.22720027 L19.9279579,6.8676332 Z" id="Shape"></path>
                <path d="M8.83698165,4.03385849 L10.2855505,3.64443803 C10.3477017,3.87562842 10.5636276,4.28635702 11.0052832,4.71123813 C11.7806078,5.45711512 12.9605476,5.91431804 14.6751903,5.91431804 L20.649874,5.91431804 L20.649874,7.41431804 L14.6751903,7.41431804 C12.5797063,7.41431804 11.0254688,6.81208229 9.96535026,5.79222817 C9.30574004,5.15767061 8.96470389,4.50896054 8.83698165,4.03385849 Z" id="Shape"></path>
                <path d="M15.0524511,11.9936234 L16.1207143,13.0466256 C15.1899517,13.9908776 13.9438913,14.5029259 12.6498738,14.5029259 C11.3558562,14.5029259 10.1097958,13.9908776 9.17903323,13.0466256 L10.2472964,11.9936234 C10.8936952,12.6493902 11.7540178,13.0029259 12.6498738,13.0029259 C13.5457297,13.0029259 14.4060524,12.6493902 15.0524511,11.9936234 Z" id="Shape"></path>
                <path d="M20.649874,7.41431804 L20.649874,5.91431804 C22.8893073,5.91431804 24.6910134,7.74213583 24.6910134,10.0031551 C24.6910134,12.2641743 22.8893073,14.0919921 20.649874,14.0919921 L20.649874,12.5919921 C22.0560105,12.5919921 23.1910134,11.4405399 23.1910134,10.0031551 C23.1910134,8.56577021 22.0560105,7.41431804 20.649874,7.41431804 Z" id="Shape"></path>
            </g>
        </g>
    </g>
</svg>