<?xml version="1.0" encoding="UTF-8"?>
<svg width="24px" height="24px" viewBox="0 0 24 24" version="1.1" xmlns="http://www.w3.org/2000/svg" xmlns:xlink="http://www.w3.org/1999/xlink">
    <!-- Generator: Sketch 61.2 (89653) - https://sketch.com -->
    <title>Icons/24px/car-damage-24</title>
    <desc>Created with Sketch.</desc>
    <g id="Icons/24px/car-damage-24" stroke="none" stroke-width="1" fill="none" fill-rule="evenodd">
        <g>
            <rect id="invisible-24" x="0" y="0" width="24" height="24"></rect>
            <g id="outlines" transform="translate(0.000000, 2.000000)" fill="#FF0000" fill-rule="nonzero">
                <path d="M11.998,-3.50510666e-06 C14.416,-0.001 16.128,0.212 17.292,0.605 C18.231,0.923 18.882,1.39 19.227,1.989 L21.733,5.99999649 L23,6 C23.5522847,6 24,6.44771525 24,7 C24,7.55228475 23.5522847,8 23,8 L22.327,7.99999649 L23.048,10.758 L23.044,11.029 L23,16.4999965 C23,18.166 21.608,19.4999965 20,19.4999965 C18.561,19.4999965 17.293,18.405 17.044,17.001 L6.958,17.005 C6.70844225,18.4444818 5.46095038,19.4967104 4,19.4999965 C2.368,19.4999965 1,18.36 1,16.4999965 L1,10.754 L1.687,7.99999649 L1,8 C0.44771525,8 0,7.55228475 0,7 C0,6.44771525 0.44771525,6 1,6 L2.265,5.99999649 L4.774,1.988 C5.12,1.388 5.774,0.921 6.718,0.604 C7.881,0.214 9.588,-3.50510666e-06 11.998,-3.50510666e-06 Z M12,1.99999328 C6.937,2.003 6.5,2.99999328 6.5,2.99999328 L4,6.99999328 L3,10.9999933 L2.999,11.9999965 L15,12 L15,14 L2.999,13.9999965 L3,16.4999933 C3,17.25 3.5,17.4999933 4,17.4999933 C4.5,17.4999933 5,17.094 5,16.4999933 L5,14.9999933 L19,14.9999933 L19,16.4999933 C19,17.031 19.5,17.4999933 20,17.4999933 C20.5,17.4999933 21,17.062 21,16.4999933 L21.044,10.9999933 L20,6.99999328 L17.5,2.99999328 C17.5,2.99999328 17.062,1.997 12,1.99999328 Z M20,12 L20,14 L16,14 L16,12 L20,12 Z M6.5,8 C7.32842712,8 8,8.67157288 8,9.5 C8,10.3284271 7.32842712,11 6.5,11 C5.67157288,11 5,10.3284271 5,9.5 C5,8.67157288 5.67157288,8 6.5,8 Z M17.5,8 C18.3284271,8 19,8.67157288 19,9.5 C19,10.3284271 18.3284271,11 17.5,11 C16.6715729,11 16,10.3284271 16,9.5 C16,8.67157288 16.6715729,8 17.5,8 Z M14,2.6 L16.414,5.014 L18,5.014 L18,7.014 L15.586,7.014 L14,5.428 L12.414,7.014 L6,7.014 L6,5.014 L11.586,5.014 L14,2.6 Z" id="Combined-Shape"></path>
            </g>
        </g>
    </g>
</svg>