<?xml version="1.0" encoding="UTF-8"?>
<svg width="24px" height="24px" viewBox="0 0 24 24" version="1.1" xmlns="http://www.w3.org/2000/svg" xmlns:xlink="http://www.w3.org/1999/xlink">
    <!-- Generator: Sketch 61.2 (89653) - https://sketch.com -->
    <title>Icons/24px/car-24</title>
    <desc>Created with Sketch.</desc>
    <g id="Icons/24px/car-24" stroke="none" stroke-width="1" fill="none" fill-rule="evenodd">
        <g>
            <rect id="invisible-24" x="0" y="0" width="24" height="24"></rect>
            <g id="outlines" transform="translate(0.000000, 2.000000)" fill="#FF0000" fill-rule="nonzero">
                <path d="M11.998,-2.30926389e-14 C14.416,-0.000996494893 16.128,0.212003505 17.292,0.605003505 C18.231,0.923003505 18.882,1.39000351 19.227,1.98900351 L21.733,6 L23,6.00000351 C23.5522847,6.00000351 24,6.44771876 24,7.00000351 C24,7.55228825 23.5522847,8.00000351 23,8.00000351 L22.327,8 L23.048,10.7580035 L23.044,11.0290035 L23,16.5 C23,18.1660035 21.608,19.5 20,19.5 C18.561,19.5 17.293,18.4050035 17.044,17.0010035 L6.958,17.0050035 C6.70844225,18.4444853 5.46095038,19.4967139 4,19.5 C2.368,19.5 1,18.3600035 1,16.5 L1,10.7540035 L1.688,8 L1,8.00000351 C0.44771525,8.00000351 0,7.55228825 0,7.00000351 C0,6.44771876 0.44771525,6.00000351 1,6.00000351 L2.265,6 L4.774,1.98800351 C5.12,1.38800351 5.774,0.921003505 6.718,0.604003505 C7.881,0.214003505 9.588,-2.30926389e-14 11.998,-2.30926389e-14 Z M12,1.99999679 C6.937,2.00300351 6.5,2.99999679 6.5,2.99999679 L4,6.99999679 L3,10.9999968 L3,12 L15,12.0000035 L15,14.0000035 L3,14 L3,16.4999968 C3,17.2500035 3.5,17.4999968 4,17.4999968 C4.5,17.4999968 5,17.0940035 5,16.4999968 L5,14.9999968 L19,14.9999968 L19,16.4999968 C19,17.0310035 19.5,17.4999968 20,17.4999968 C20.5,17.4999968 21,17.0620035 21,16.4999968 L21.02,14 L16,14.0000035 L16,12.0000035 L21.036,12 L21.044,10.9999968 L20,6.99999679 L17.5,2.99999679 C17.5,2.99999679 17.062,1.99700351 12,1.99999679 Z M6.5,8.00000351 C7.32842712,8.00000351 8,8.67157638 8,9.50000351 C8,10.3284306 7.32842712,11.0000035 6.5,11.0000035 C5.67157288,11.0000035 5,10.3284306 5,9.50000351 C5,8.67157638 5.67157288,8.00000351 6.5,8.00000351 Z M17.5,8.00000351 C18.3284271,8.00000351 19,8.67157638 19,9.50000351 C19,10.3284306 18.3284271,11.0000035 17.5,11.0000035 C16.6715729,11.0000035 16,10.3284306 16,9.50000351 C16,8.67157638 16.6715729,8.00000351 17.5,8.00000351 Z M16.273,3.04300351 L18.29,7.00000351 L7,7.00000351 L7,5.00000351 L15.026,5.00000351 L14.491,3.95100351 L16.273,3.04300351 Z" id="Combined-Shape"></path>
            </g>
        </g>
    </g>
</svg>