<?xml version="1.0" encoding="UTF-8"?>
<svg width="24px" height="24px" viewBox="0 0 24 24" version="1.1" xmlns="http://www.w3.org/2000/svg" xmlns:xlink="http://www.w3.org/1999/xlink">
    <!-- Generator: Sketch 63.1 (92452) - https://sketch.com -->
    <title>Icons/24px/caravan-24</title>
    <desc>Created with Sketch.</desc>
    <g id="Icons/24px/caravan-24" stroke="none" stroke-width="1" fill="none" fill-rule="evenodd">
        <g>
            <rect id="invisible-24" x="0" y="0" width="24" height="24"></rect>
            <g id="lines" transform="translate(0.000000, 5.000000)" fill="#FF0000" fill-rule="nonzero">
                <path d="M19.6930005,0 L23.0894434,9.05718117 L21.6171377,12 L23,12 L23,14 L13.8286887,14.0011052 C13.7895488,14.1116702 13.7438863,14.2199035 13.6918922,14.3253022 C13.190882,15.3419292 12.1540661,16.0002377 10.9998812,16.0002377 C9.69409642,16.0002377 8.58311113,15.1657887 8.17102361,14.0010348 L3.38196601,14 L0.940137733,9.11634344 L3.21922359,0 L19.6930005,0 Z M10.9998812,12 C10.4478573,12 10,12.4479308 10,13.0001188 C10,13.5524441 10.4477568,14.0002377 10.9998812,14.0002377 C11.3850838,14.0002377 11.7304886,13.7809288 11.8980879,13.4408441 C11.9648932,13.3054215 12,13.1564644 12,13.0001188 C12,12.4479124 11.5521243,12 10.9998812,12 Z M18.306,2 L4.781,2 L3.06,8.883 L4.618,12 L8.17068041,12.0002612 C8.58250312,10.8350298 9.69377683,10 10.9998812,10 C12.3061294,10 13.4174678,10.8349955 13.8293115,12.0002395 L19.381,12 L20.91,8.942 L18.306,2 Z M10,3 L10,9 L8,9 L8,5 L7,5 L7,10 L5,10 L5,3 L10,3 Z M16,3 L16,6 L14,6 L14,5 L12,5 L12,3 L16,3 Z" id="Combined-Shape"></path>
            </g>
        </g>
    </g>
</svg>