<?xml version="1.0" encoding="UTF-8"?>
<svg width="24px" height="24px" viewBox="0 0 24 24" version="1.1" xmlns="http://www.w3.org/2000/svg" xmlns:xlink="http://www.w3.org/1999/xlink">
    <!-- Generator: Sketch 50.2 (55047) - http://www.bohemiancoding.com/sketch -->
    <title>card-block-24</title>
    <desc>Created with Sketch.</desc>
    <defs></defs>
    <g id="card-block-24" stroke="none" stroke-width="1" fill="none" fill-rule="evenodd">
        <g id="card-block-20" transform="translate(1.500000, 3.500000)" fill="#FF0000" fill-rule="nonzero">
            <path d="M11.507983,11.5 L2.49201702,11.5 C2.50428573,11.5 2.5,2.5085302 2.5,2.5085302 C2.5,2.50195089 15.5059397,2.5 15.5059397,2.5 C15.4993414,2.5 15.5,8.56259261 15.5,8.56259261 L17.5,8.56259261 L17.5,2.50496412 C17.5,1.39765301 16.6054862,0.5 15.5059397,0.5 L2.49406028,0.5 C1.3927712,0.5 0.5,1.40195036 0.5,2.5085302 L0.5,11.4914698 C0.5,12.6007504 1.40017617,13.5 2.49201702,13.5 L11.507983,13.5 L11.507983,11.5 Z M11.507983,11.5 L2.49201702,11.5 C2.50428573,11.5 2.5,2.5085302 2.5,2.5085302 C2.5,2.50195089 15.5059397,2.5 15.5059397,2.5 C15.4993414,2.5 15.5,8.56259261 15.5,8.56259261 L17.5,8.56259261 L17.5,2.50496412 C17.5,1.39765301 16.6054862,0.5 15.5059397,0.5 L2.49406028,0.5 C1.3927712,0.5 0.5,1.40195036 0.5,2.5085302 L0.5,11.4914698 C0.5,12.6007504 1.40017617,13.5 2.49201702,13.5 L11.507983,13.5 L11.507983,11.5 Z" id="Rectangle"></path>
            <path d="M16,16.5 C17.9329966,16.5 19.5,14.9329966 19.5,13 C19.5,11.0670034 17.9329966,9.5 16,9.5 C14.0670034,9.5 12.5,11.0670034 12.5,13 C12.5,14.9329966 14.0670034,16.5 16,16.5 Z M16,18.5 C12.9624339,18.5 10.5,16.0375661 10.5,13 C10.5,9.96243388 12.9624339,7.5 16,7.5 C19.0375661,7.5 21.5,9.96243388 21.5,13 C21.5,16.0375661 19.0375661,18.5 16,18.5 Z" id="Oval"></path>
            <polygon id="Line" points="12.0857864 10.5 18.5 16.9142136 19.9142136 15.5 13.5 9.08578644"></polygon>
            <polygon id="Line" points="1.5 6.5 16.5 6.5 16.5 4.5 1.5 4.5"></polygon>
        </g>
    </g>
</svg>