<?xml version="1.0" encoding="UTF-8"?>
<svg width="24px" height="24px" viewBox="0 0 24 24" version="1.1" xmlns="http://www.w3.org/2000/svg" xmlns:xlink="http://www.w3.org/1999/xlink">
    <!-- Generator: Sketch 50.2 (55047) - http://www.bohemiancoding.com/sketch -->
    <title>card-24</title>
    <desc>Created with Sketch.</desc>
    <defs></defs>
    <g id="card-24" stroke="none" stroke-width="1" fill="none" fill-rule="evenodd">
        <g transform="translate(2.000000, 5.000000)" fill="#FF0000" fill-rule="nonzero">
            <path d="M17.6966,12.0002 L2.3176,12.0002 C2.1546,12.0002 1.9996,11.8462 1.9996,11.7272 L1.9996,6.0002 L17.9966842,6.0002 L17.9966,11.7602 C17.9986,11.8282 17.9646,11.8782 17.9346,11.9092 C17.9016,11.9432 17.8276,12.0002 17.6966,12.0002 Z M17.6966,2.0002 C17.7796,2.0002 17.8676,2.0382 17.9296,2.1032 C17.9736,2.1482 17.9976,2.1992 17.9966,2.2722 L17.99663,4.0002 L1.9996,4.0002 L1.9996,2.2722 C1.9996,2.1532 2.1546,2.0002 2.3176,2.0002 L17.6966,2.0002 Z M19.9956,2.3052 C20.0156,1.7172 19.7916,1.1522 19.3676,0.7132 C18.9286,0.2602 18.3196,0.0002 17.6966,0.0002 L2.3176,0.0002 C1.0616,0.0002 -0.0004,1.0402 -0.0004,2.2722 L-0.0004,11.7272 C-0.0004,12.9592 1.0616,14.0002 2.3176,14.0002 L17.6966,14.0002 C18.3396,14.0002 18.9346,13.7512 19.3716,13.3002 C19.7936,12.8642 20.0156,12.2932 19.9966,11.7272 L19.9956,2.3052 Z" id="Fill-1"></path>
            <polygon id="Fill-4" points="3.996 9 7.996 9 7.996 7 3.996 7"></polygon>
        </g>
    </g>
</svg>