<?xml version="1.0" encoding="UTF-8"?>
<svg width="24px" height="24px" viewBox="0 0 24 24" version="1.1" xmlns="http://www.w3.org/2000/svg" xmlns:xlink="http://www.w3.org/1999/xlink">
    <!-- Generator: Sketch 50.2 (55047) - http://www.bohemiancoding.com/sketch -->
    <title>chat-24</title>
    <desc>Created with Sketch.</desc>
    <defs></defs>
    <g id="chat-24" stroke="none" stroke-width="1" fill="none" fill-rule="evenodd">
        <g id="chat-20" transform="translate(2.000000, 4.000000)" fill="#FF0000" fill-rule="nonzero">
            <path d="M6.498,0 C2.915,0 0,2.915 0,6.498 C0,10.081 2.915,12.996 6.498,12.996 L7.302,12.996 L12,17.15 L12,11 L10,11 L10,12.6999998 L8.124,10.996 L6.498,10.996 C4.018,10.996 2,8.978 2,6.498 C2,4.018 4.018,2 6.498,2 L13.498,2 C15.978,2 17.996,4.018 17.996,6.498 C17.996,8.978 15.978,10.996 13.498,10.996 L13.498,12.996 C17.081,12.996 19.996,10.081 19.996,6.498 C19.996,2.915 17.081,0 13.498,0 L6.498,0 Z" id="Fill-1"></path>
        </g>
    </g>
</svg>