<?xml version="1.0" encoding="UTF-8"?>
<svg width="24px" height="24px" viewBox="0 0 24 24" version="1.1" xmlns="http://www.w3.org/2000/svg" xmlns:xlink="http://www.w3.org/1999/xlink">
    <!-- Generator: Sketch 61.1 (89650) - https://sketch.com -->
    <title>Icons/24px/circlediagram-24</title>
    <desc>Created with Sketch.</desc>
    <g id="Icons/24px/circlediagram-24" stroke="none" stroke-width="1" fill="none" fill-rule="evenodd">
        <g>
            <rect id="invisible-24" x="0" y="0" width="24" height="24"></rect>
            <g id="outlines" transform="translate(2.000000, 2.000000)" fill="#FF0000" fill-rule="nonzero">
                <path d="M11,2 C15.9705627,2 20,6.02943725 20,11 C20,15.9705627 15.9705627,20 11,20 C6.02943725,20 2,15.9705627 2,11 L2,10 L10,10 L10,2 L11,2 Z M12,4.07088886 L12,12 L4.07088886,12 C4.55611852,15.3922941 7.47352809,18 11,18 C14.8659932,18 18,14.8659932 18,11 C18,7.47352809 15.3922941,4.55611852 12,4.07088886 Z M9,0 L9,9 L0,9 L0,8 C0,3.581722 3.581722,0 8,0 L9,0 Z M7,2.08295844 C4.48749513,2.50447689 2.50447689,4.48749513 2.08295844,7 L7,7 L7,2.08295844 Z" id="Combined-Shape"></path>
            </g>
        </g>
    </g>
</svg>