<?xml version="1.0" encoding="UTF-8"?>
<svg width="24px" height="24px" viewBox="0 0 24 24" version="1.1" xmlns="http://www.w3.org/2000/svg" xmlns:xlink="http://www.w3.org/1999/xlink">
    <!-- Generator: Sketch 50.2 (55047) - http://www.bohemiancoding.com/sketch -->
    <title>clipboard-24</title>
    <desc>Created with Sketch.</desc>
    <defs></defs>
    <g id="clipboard-24" stroke="none" stroke-width="1" fill="none" fill-rule="evenodd">
        <g id="clipboard-20" transform="translate(3.000000, 1.000000)" fill="#FF0000" fill-rule="nonzero">
            <path d="M16,17.662 C16,17.858 15.854,18 15.654,18 L2.346,18 C2.146,18 2,17.858 2,17.662 L2,4.33 C2,4.149 2.161,4.004 2.346,4 L4,4 L4,8 L14,8 L14,4 L15.634,4 C15.839,4.004 16,4.149 16,4.33 L16,17.662 Z M6,4 L8,4 L8,2 L10,2 L10,4 L12,4 L12,6 L6,6 L6,4 Z M12,2 L12,0 L6,0 L6,2 L2.325,2 C1.021,2.027 0,3.05 0,4.33 L0,17.662 C0,18.973 1.03,20 2.346,20 L15.654,20 C16.97,20 18,18.973 18,17.662 L18,4.33 C18,3.05 16.979,2.027 15.654,2 L12,2 Z" id="Fill-1"></path>
            <polygon id="Fill-4" points="5 12 13 12 13 10 5 10"></polygon>
            <polygon id="Fill-6" points="5 16 13 16 13 14 5 14"></polygon>
        </g>
    </g>
</svg>