<?xml version="1.0" encoding="UTF-8"?>
<svg width="24px" height="24px" viewBox="0 0 24 24" version="1.1" xmlns="http://www.w3.org/2000/svg" xmlns:xlink="http://www.w3.org/1999/xlink">
    <!-- Generator: Sketch 57.1 (83088) - https://sketch.com -->
    <title>Icons/24px/coins-24</title>
    <desc>Created with Sketch.</desc>
    <g id="Icons/24px/coins-24" stroke="none" stroke-width="1" fill="none" fill-rule="evenodd">
        <g>
            <rect id="invisible-24" x="0" y="0" width="24" height="24"></rect>
            <g id="outlines" transform="translate(2.000000, 2.000000)" fill="#FF0000" fill-rule="nonzero">
                <path d="M9,18 L9,20 L0,20 L0,18 L9,18 Z M20,18 L20,20 L11,20 L11,18 L20,18 Z M9,15 L9,17 L0,17 L0,15 L9,15 Z M20,15 L20,17 L11,17 L11,15 L20,15 Z M15.5,6 C17.9852814,6 20,8.01471863 20,10.5 C20,12.9852814 17.9852814,15 15.5,15 C13.0147186,15 11,12.9852814 11,10.5 C11,8.01471863 13.0147186,6 15.5,6 Z M9,12 L9,14 L0,14 L0,12 L9,12 Z M15.5,8 C14.1192881,8 13,9.11928813 13,10.5 C13,11.8807119 14.1192881,13 15.5,13 C16.8807119,13 18,11.8807119 18,10.5 C18,9.11928813 16.8807119,8 15.5,8 Z M9,9 L9,11 L0,11 L0,9 L9,9 Z M9,6 L9,8 L0,8 L0,6 L9,6 Z M11,3 L11,5 L2,5 L2,3 L11,3 Z M9,0 L9,2 L0,2 L0,0 L9,0 Z" id="Combined-Shape"></path>
            </g>
        </g>
    </g>
</svg>