<?xml version="1.0" encoding="UTF-8"?>
<svg width="24px" height="24px" viewBox="0 0 24 24" version="1.1" xmlns="http://www.w3.org/2000/svg" xmlns:xlink="http://www.w3.org/1999/xlink">
    <!-- Generator: Sketch 50.2 (55047) - http://www.bohemiancoding.com/sketch -->
    <title>common-camera-24</title>
    <desc>Created with Sketch.</desc>
    <defs></defs>
    <g id="common-camera-24" stroke="none" stroke-width="1" fill="none" fill-rule="evenodd">
        <g transform="translate(2.000000, 4.000000)" fill="#FF0000" fill-rule="nonzero">
            <path d="M7.70375576,2.00084206 L6.37752455,4 L2.74444444,4 C2.34367201,4 2,4.34499961 2,4.75 L2,13.2633019 C2,13.6627892 2.33816525,14 2.74444444,14 L17.2555556,14 C17.6618348,14 18,13.6627892 18,13.2633019 L18,4.75 C18,4.34499961 17.656328,4 17.2555556,4 L13.6224754,4 L12.2962442,2.00084206 L7.70375576,2.00084206 Z M6.3992,0.349455292 C6.4949037,0.155500588 6.68518519,0.0238583934 6.9008,0.000842060944 C6.92275556,-0.000280686981 6.94471111,-0.000280686981 6.96666667,0.000842060944 L13.0333333,0.000842060944 C13.2731556,0.000842060944 13.4929926,0.135571812 13.6008,0.349455292 L14.695763,2 L17.2555556,2 C18.7651407,2 20,3.24467572 20,4.75 L20,13.2633019 C20,14.7686262 18.7651407,16 17.2555556,16 L2.74444444,16 C1.23485926,16 0,14.7686262 0,13.2633019 L0,4.75 C0,3.24467572 1.23485926,2 2.74444444,2 L5.30423704,2 L6.3992,0.349455292 Z" id="Page-1"></path>
            <path d="M10,11 C11.3807119,11 12.5,9.88071187 12.5,8.5 C12.5,7.11928813 11.3807119,6 10,6 C8.61928813,6 7.5,7.11928813 7.5,8.5 C7.5,9.88071187 8.61928813,11 10,11 Z M10,13 C7.51471863,13 5.5,10.9852814 5.5,8.5 C5.5,6.01471863 7.51471863,4 10,4 C12.4852814,4 14.5,6.01471863 14.5,8.5 C14.5,10.9852814 12.4852814,13 10,13 Z" id="Oval-4"></path>
        </g>
    </g>
</svg>