<?xml version="1.0" encoding="UTF-8"?>
<svg width="24px" height="24px" viewBox="0 0 24 24" version="1.1" xmlns="http://www.w3.org/2000/svg" xmlns:xlink="http://www.w3.org/1999/xlink">
    <!-- Generator: Sketch 60 (88103) - https://sketch.com -->
    <title>Icons/24px/computer-24</title>
    <desc>Created with Sketch.</desc>
    <g id="Icons/24px/computer-24" stroke="none" stroke-width="1" fill="none" fill-rule="evenodd">
        <g>
            <rect id="invisible-24" x="0" y="0" width="24" height="24"></rect>
            <g id="outlines" transform="translate(2.000000, 2.000000)" fill="#FF0000" fill-rule="nonzero">
                <path d="M18,17 L16,17 L16,18 C16,18.5522847 16.4477153,19 17,19 C17.5522847,19 18,18.5522847 18,18 L18,17 Z M17,15 C16.4477153,15 16,15.4477153 16,16 L18,16 C18,15.4477153 17.5522847,15 17,15 Z M10,12 L10,14 L4,14 L4,12 L10,12 Z M13.9542473,12.4239641 L15.2570788,12.4239641 C15.8708233,12.4239641 16.3171403,12.6457922 16.6113904,13.0257138 C16.7376199,13.0085495 16.8678115,13 17,13 C18.6568542,13 20,14.3431458 20,16 L20,18 C20,19.6568542 18.6568542,21 17,21 C15.3431458,21 14,19.6568542 14,18 L14,16 C14,14.9148771 14.5761192,13.9643141 15.4391673,13.4375013 C15.3845163,13.4283354 15.3235123,13.4239641 15.2570788,13.4239641 L13.9542473,13.4239641 C12.293181,13.4239641 11.5,12.711133 11.5,11 L7.999,11 L8,12 L6,12 L5.999,11 L0,11 L0,0 L14,0 L14,11 L12.5,11 C12.5,12.1336253 12.8230656,12.4239641 13.9542473,12.4239641 Z M12,2 L2,2 L2,9 L12,9 L12,2 Z M7.70010575,2.86791026 L8.40721253,3.57501705 L3.57501705,8.40721253 L2.86791026,7.70010575 L7.70010575,2.86791026 Z M5.48399154,3.05727465 L6.18039943,3.77492084 L3.69061814,6.19101858 L2.99421025,5.47337239 L5.48399154,3.05727465 Z" id="Combined-Shape"></path>
            </g>
        </g>
    </g>
</svg>