<?xml version="1.0" encoding="UTF-8"?>
<svg width="24px" height="24px" viewBox="0 0 24 24" version="1.1" xmlns="http://www.w3.org/2000/svg" xmlns:xlink="http://www.w3.org/1999/xlink">
    <!-- Generator: Sketch 60 (88103) - https://sketch.com -->
    <title>Icons/24px/contract-24</title>
    <desc>Created with Sketch.</desc>
    <defs>
        <path d="M16.0157629,0 L16.0157629,4.01114173 L14.0157629,4.01114173 L14.0157629,2 L2,2 L2,17.9824285 L14.0157629,17.9824285 L14.0157629,15.9796368 L16.0157629,15.9796368 L16.0157629,19.9824285 L0,19.9824285 L0,0 L16.0157629,0 Z M16.9777004,3.89533434 L20.6887212,7.71117872 L13.2248259,15.175074 L9.37508819,15.175074 L9.34780402,11.4481546 L16.9777004,3.89533434 Z M15.246,8.422 L11.3539217,12.2764797 L11.3605001,13.175074 L12.3963988,13.175074 L16.197,9.373 L15.246,8.422 Z M16.9507079,6.73623136 L16.313,7.367 L17.258,8.312 L17.8798521,7.69162067 L16.9507079,6.73623136 Z M5.67154807,12.7800262 C6.60016443,13.326368 6.63700339,14.1807992 6.21829117,15.3351499 C6.90471577,14.4211095 7.25990377,14.1127987 7.95208077,14.1127987 C8.46068841,14.1127987 8.843811,14.3906731 9.04692328,14.8240431 C9.15602589,15.0568296 9.19570008,15.2440533 9.25441527,15.6499165 C9.27120732,15.7660568 9.28331311,15.842825 9.29397537,15.9017997 L11.6266919,15.9017997 L11.6266919,17.4017997 L9.04767133,17.4017997 C8.54247129,17.4017997 8.16620005,17.1203866 7.96997814,16.6879977 C7.86692555,16.460914 7.83080845,16.286165 7.77210342,15.8801297 C7.76705928,15.8452557 7.76433142,15.8266981 7.7616796,15.8089688 C7.65120141,15.936661 7.49300162,16.1321775 7.28744122,16.4112157 C7.20173359,16.5276293 7.16110267,16.5825821 7.1130208,16.6466783 C6.38737367,17.6140119 5.8865846,18.0177046 5.06789967,17.7623338 C4.41330934,17.5581487 4.16794859,16.9950964 4.27150065,16.3577466 C4.32178133,16.0482755 4.37510721,15.9028707 4.66013676,15.2026951 C4.71664795,15.0638752 4.75542294,14.9658336 4.79087494,14.8707413 C5.0038508,14.29948 4.99947378,14.1249696 4.9109176,14.0728685 C4.49679765,13.8292253 4.16996597,14.2538386 3.90149186,16.2958096 L2.41429099,16.1002755 C2.80103397,13.1587705 3.8964299,11.7356537 5.67154807,12.7800262 Z M11,6 L11,8 L3,8 L3,6 L11,6 Z M11,3 L11,5 L3,5 L3,3 L11,3 Z" id="path-1"></path>
    </defs>
    <g id="Icons/24px/contract-24" stroke="none" stroke-width="1" fill="none" fill-rule="evenodd">
        <g>
            <rect id="invisible-24" x="0" y="0" width="24" height="24"></rect>
            <g id="outlines" transform="translate(2.000000, 2.000000)">
                <mask id="mask-2" fill="white">
                    <use xlink:href="#path-1"></use>
                </mask>
                <use id="Combined-Shape" fill="#FF0000" fill-rule="nonzero" xlink:href="#path-1"></use>
            </g>
        </g>
    </g>
</svg>