<?xml version="1.0" encoding="UTF-8"?>
<svg width="24px" height="24px" viewBox="0 0 24 24" version="1.1" xmlns="http://www.w3.org/2000/svg" xmlns:xlink="http://www.w3.org/1999/xlink">
    <!-- Generator: Sketch 50.2 (55047) - http://www.bohemiancoding.com/sketch -->
    <title>cross-enclosed-24</title>
    <desc>Created with Sketch.</desc>
    <defs></defs>
    <g id="cross-enclosed-24" stroke="none" stroke-width="1" fill="none" fill-rule="evenodd">
        <g id="cross-enclosed-20" transform="translate(3.000000, 3.000000)" fill="#FF0000" fill-rule="nonzero">
            <path d="M9,2 C5.141,2 2,5.14 2,9 C2,12.86 5.141,16 9,16 C12.859,16 16,12.86 16,9 C16,5.14 12.859,2 9,2 M9,18 C4.037,18 0,13.962 0,9 C0,4.038 4.037,0 9,0 C13.963,0 18,4.038 18,9 C18,13.962 13.963,18 9,18" id="Fill-1"></path>
            <polygon id="Fill-3" points="13.4248 12.0107 10.4138 8.9997 13.4138 5.9997 11.9998 4.5857 8.9998 7.5857 5.9998 4.5857 4.5858 5.9997 7.5858 8.9997 4.5748 12.0107 5.9888 13.4247 8.9998 10.4137 12.0108 13.4247"></polygon>
        </g>
    </g>
</svg>