<?xml version="1.0" encoding="UTF-8"?>
<svg width="24px" height="24px" viewBox="0 0 24 24" version="1.1" xmlns="http://www.w3.org/2000/svg" xmlns:xlink="http://www.w3.org/1999/xlink">
    <!-- Generator: Sketch 60 (88103) - https://sketch.com -->
    <title>Icons/24px/cup-24</title>
    <desc>Created with Sketch.</desc>
    <g id="Icons/24px/cup-24" stroke="none" stroke-width="1" fill="none" fill-rule="evenodd">
        <g>
            <rect id="invisible-24" x="0" y="0" width="24" height="24"></rect>
            <g id="outlines" transform="translate(2.000000, 2.000000)" fill="#FF0000" fill-rule="nonzero">
                <path d="M15,20 L5,20 L5,18 L6.2,18 C6.63248871,18 7,17.6171757 7,17.125 L7.00003939,14.1973296 C5.76825625,13.484794 4.81329527,12.3469288 4.33597554,10.9845529 C4.22536859,10.9952913 4.11296499,11 4,11 C1.790861,11 0,9.209139 0,7 C0,4.790861 1.790861,3 4,3 L4,0 L16,0 L16,3 C18.209139,3 20,4.790861 20,7 C20,9.209139 18.209139,11 16,11 C15.8869595,11 15.7744753,10.9952851 15.6627759,10.9859301 C15.1868342,12.3465592 14.2322618,13.4841766 13.000963,14.1967496 L13,17.125 C13,17.6171757 13.3675113,18 13.8,18 L15,18 L15,20 Z M10,15 C9.65935467,15 9.32533963,14.9716124 9.00019152,14.9170737 L9,17.125 C9,17.4299712 8.95357786,17.724392 8.86745567,18.00096 L11.1325443,18.00096 C11.0464221,17.724392 11,17.4299712 11,17.125 L11.0008069,14.9169061 C10.6753441,14.9715542 10.340994,15 10,15 Z M14,2 L6,2 L6,3 L10,3 L10,5 L6,5 L6,9 C6,11.209139 7.790861,13 10,13 C12.209139,13 14,11.209139 14,9 L14,2 Z M16,5 L16,9 L16,9 C17.1045695,9 18,8.1045695 18,7 C18,5.8954305 17.1045695,5 16,5 Z M4,5 C2.8954305,5 2,5.8954305 2,7 C2,8.1045695 2.8954305,9 4,9 L4,5 Z" id="Combined-Shape"></path>
            </g>
        </g>
    </g>
</svg>