<?xml version="1.0" encoding="UTF-8"?>
<svg width="24px" height="24px" viewBox="0 0 24 24" version="1.1" xmlns="http://www.w3.org/2000/svg" xmlns:xlink="http://www.w3.org/1999/xlink">
    <!-- Generator: Sketch 60 (88103) - https://sketch.com -->
    <title>Icons/24px/damage-24</title>
    <desc>Created with Sketch.</desc>
    <defs>
        <path d="M2,18 L4,18 L4,20 L0,20 L0,0 L18,0 L18,20 L11,20 L11,18 L16,18 L16,2 L2,2 L2,18 Z M9,18 L9,20 L6,20 L6,18 L9,18 Z M7.92532988,9.8646497 L11.6415235,12.176948 L10.8194113,14.4788622 L14,15.963137 L14,18 L12,18 L12,17.236863 L8.32344589,15.5211378 L9.21561936,13.023052 L7.78895584,12.1353503 L6.36470648,12.8 L2,12.8 L2,10.8 L5.92100781,10.8 L7.92532988,9.8646497 Z M7,2 L7,2.85362141 L9.25151721,3.61387398 L10.0062076,5.14285714 L13.7692308,5.14285714 L13.7692308,9.09467743 L15.9933013,10.8859218 L15.9974192,13.4271731 L11.7692308,10.0481797 L11.7692308,7.14285714 L8.76302315,7.14285714 L7.77471826,5.22889168 L5,4.28923573 L5,2 L7,2 Z" id="path-1"></path>
    </defs>
    <g id="Icons/24px/damage-24" stroke="none" stroke-width="1" fill="none" fill-rule="evenodd">
        <g>
            <rect id="invisible-24" x="0" y="0" width="24" height="24"></rect>
            <g id="outlines" transform="translate(3.000000, 2.000000)">
                <mask id="mask-2" fill="white">
                    <use xlink:href="#path-1"></use>
                </mask>
                <use id="Combined-Shape" fill="#FF0000" fill-rule="nonzero" xlink:href="#path-1"></use>
            </g>
        </g>
    </g>
</svg>