<?xml version="1.0" encoding="UTF-8"?>
<svg width="24px" height="24px" viewBox="0 0 24 24" version="1.1" xmlns="http://www.w3.org/2000/svg" xmlns:xlink="http://www.w3.org/1999/xlink">
    <!-- Generator: Sketch 63.1 (92452) - https://sketch.com -->
    <title>Icons/24px/digital-services-24</title>
    <desc>Created with Sketch.</desc>
    <g id="Icons/24px/digital-services-24" stroke="none" stroke-width="1" fill="none" fill-rule="evenodd">
        <g>
            <rect id="invisible-24" x="0" y="0" width="24" height="24"></rect>
            <g id="outlines" transform="translate(2.000000, 2.000000)" fill="#FF0000" fill-rule="nonzero">
                <path d="M13.2222222,0 C14.9036426,0 15.9225987,0.99347678 15.9957705,2.65186881 L16,2.84615385 L16,9 L17.2222222,9 C18.8850188,9 19.9212192,9.92775881 19.9956939,11.5071894 L20,11.6923077 L20,17.3076923 C20,18.9995027 18.9489725,20 17.2222222,20 L17.2222222,20 L14.7777778,20 C13.0510275,20 12,18.9995027 12,17.3076923 L12,17.3076923 L12,13 L9,13 L9,15 L11,15 L11,17 L5,17 L5,15 L7,15 L7,13 L2.77777778,13 C1.09635744,13 0.0774012674,12.0065232 0.00422950754,10.3481312 L0,10.1538462 L0,2.84615385 C0,1.13710053 0.956681344,0.0803254799 2.58672379,0.00439022686 L2.77777778,0 L13.2222222,0 Z M17.2222222,11 L14.6557354,11.0017944 C14.1168663,11.0189695 14,11.1653478 14,11.6923077 L14,11.6923077 L14.0019,17.4148787 C14.020152,17.8887523 14.1770657,18 14.7777778,18 L14.7777778,18 L17.2222222,18 C17.8658423,18 18,17.8722922 18,17.3076923 L18,17.3076923 L18,11.6923077 C18,11.1277078 17.8658423,11 17.2222222,11 L17.2222222,11 Z M16,15 C16.5522847,15 17,15.4477153 17,16 C17,16.5522847 16.5522847,17 16,17 C15.4477153,17 15,16.5522847 15,16 C15,15.4477153 15.4477153,15 16,15 Z M13.3408951,2.00223438 L13.2222222,2 L2.77777778,2 C2.19511643,2 2.02255873,2.13885643 2.00214065,2.7157257 L2,2.84615385 L2,10.1538462 C2,10.794815 2.1337136,10.9764027 2.65910486,10.9977656 L2.77777778,11 L12.0652044,11.0006424 C12.2714312,9.96979508 12.9580584,9.29381303 13.999478,9.07617487 L14,2.84615385 C14,2.20518501 13.8662864,2.02359732 13.3408951,2.00223438 Z" id="Combined-Shape"></path>
            </g>
        </g>
    </g>
</svg>