<?xml version="1.0" encoding="UTF-8"?>
<svg width="24px" height="24px" viewBox="0 0 24 24" version="1.1" xmlns="http://www.w3.org/2000/svg" xmlns:xlink="http://www.w3.org/1999/xlink">
    <!-- Generator: Sketch 63.1 (92452) - https://sketch.com -->
    <title>Icons/24px/document-24</title>
    <desc>Created with Sketch.</desc>
    <defs>
        <path d="M18,20 L18,6.74173516 L15.5522364,4 L6,4 L6,20 L18,20 Z M16.4477636,2 L20,5.97885307 L20,22 L4,22 L4,2 L16.4477636,2 Z M16,13 L8,13 L8,15 L16,15 L16,13 Z M16,10 L8,10 L8,12 L16,12 L16,10 Z M14,7 L8,7 L8,9 L14,9 L14,7 Z" id="path-1"></path>
    </defs>
    <g id="Icons/24px/document-24" stroke="none" stroke-width="1" fill="none" fill-rule="evenodd">
        <g id="outlines">
            <g>
                <rect id="invisible-24" x="0" y="0" width="24" height="24"></rect>
                <mask id="mask-2" fill="white">
                    <use xlink:href="#path-1"></use>
                </mask>
                <use id="Combined-Shape" fill="#FF0000" fill-rule="nonzero" xlink:href="#path-1"></use>
            </g>
        </g>
    </g>
</svg>