<?xml version="1.0" encoding="UTF-8"?>
<svg width="24px" height="24px" viewBox="0 0 24 24" version="1.1" xmlns="http://www.w3.org/2000/svg" xmlns:xlink="http://www.w3.org/1999/xlink">
    <!-- Generator: Sketch 61.2 (89653) - https://sketch.com -->
    <title>Icons/24px/dog-24</title>
    <desc>Created with Sketch.</desc>
    <defs>
        <path d="M8.22791199,0.822449301 C11.0572571,1.52978557 12.1698685,3.82094042 12.1698685,6.08493423 C12.1698685,6.80056656 11.9335169,7.43053981 11.4899332,7.87282076 C13.5153782,9.99330626 14.6951335,12.163999 14.9975398,14.381496 C15.6377056,14.1378982 15.9812219,13.5765651 15.9812219,12.6227068 L17.9812219,12.6227068 C17.9812219,14.7877122 16.7793912,16.1043835 15.0200662,16.4418283 C14.9192964,17.3283018 14.6771102,18.3388044 14.2978093,19.4767072 L14.0698852,20.1604794 L1.45283835,20.1604794 L1.45283835,18.2548027 C1.45283835,16.8825615 2.3741689,15.7255085 3.63198824,15.3684855 L3.63209588,8.99061094 L5.63209588,8.99061094 L5.632,15.2538466 L6.08493423,15.2548027 L6.08493423,17.2548027 L4.45283835,17.2548027 C3.93236345,17.2548027 3.50475921,17.6524292 3.45722853,18.1604794 L12.6151161,18.1604794 C12.9237591,17.1083929 13.0755452,16.2282422 13.0755452,15.5283835 C13.0755452,13.240524 11.8402552,10.9035775 9.29647188,8.51110732 C7.87635145,8.3298701 7.26419176,7.19305804 7.26419176,5.35851506 L9.26419176,5.35851506 C9.26419176,6.40095078 9.34975095,6.53777259 9.71703012,6.53777259 C10.0883608,6.53777259 10.1698685,6.4400155 10.1698685,6.08493423 C10.1698685,5.60153316 10.0474104,4.95157442 9.76770673,4.37559225 C9.37609326,3.56915876 8.73747107,3.01139188 7.74284074,2.7627343 C6.18670501,2.37370037 5.13700976,2.70302723 4.37837666,3.76172543 L4.079185,4.17925753 L2,4.17925753 L2,4.89687784 C2,6.10578957 3.53185885,6.91678285 4.89776407,6.26246568 L5.7618121,8.06618989 C3.13636626,9.32387179 0,7.66342379 0,4.89687784 L0,2.17925753 L3.08270176,2.17925753 C4.33373327,0.746568907 6.10402136,0.291476644 8.22791199,0.822449301 Z M9.71703012,10.8962876 C10.3533489,10.8962876 10.9641868,11.0846468 11.4828011,11.4314593 L10.3710279,13.0939756 C10.1789377,12.9655193 9.9544234,12.8962876 9.71703012,12.8962876 C9.06574417,12.8962876 8.53777259,13.4242592 8.53777259,14.0755452 C8.53777259,14.5837202 8.86224802,15.0301103 9.3349835,15.1918283 L8.68763456,17.0841653 C7.41182718,16.6477247 6.53777259,15.4452629 6.53777259,14.0755452 C6.53777259,12.3196897 7.96117467,10.8962876 9.71703012,10.8962876 Z" id="path-1"></path>
    </defs>
    <g id="Icons/24px/dog-24" stroke="none" stroke-width="1" fill="none" fill-rule="evenodd">
        <g>
            <rect id="invisible-24" x="0" y="0" width="24" height="24"></rect>
            <g id="outlines" transform="translate(3.000000, 1.812702)">
                <mask id="mask-2" fill="white">
                    <use xlink:href="#path-1"></use>
                </mask>
                <use id="Combined-Shape" fill="#FF0000" fill-rule="nonzero" xlink:href="#path-1"></use>
            </g>
        </g>
    </g>
</svg>