<?xml version="1.0" encoding="UTF-8"?>
<svg width="24px" height="24px" viewBox="0 0 24 24" version="1.1" xmlns="http://www.w3.org/2000/svg" xmlns:xlink="http://www.w3.org/1999/xlink">
    <!-- Generator: Sketch 63.1 (92452) - https://sketch.com -->
    <title>Icons/24px/e-invoice-24</title>
    <desc>Created with Sketch.</desc>
    <g id="Icons/24px/e-invoice-24" stroke="none" stroke-width="1" fill="none" fill-rule="evenodd">
        <g>
            <rect id="invisible-24" x="0" y="0" width="24" height="24"></rect>
            <g id="outlines" transform="translate(2.000000, 2.000000)" fill="#FF0000" fill-rule="nonzero">
                <path d="M20,-4.97379915e-14 L20,19.5534341 L14.162,16.898 L10,19.1353235 L5.837,16.898 L0,19.5534341 L0,-4.97379915e-14 L20,-4.97379915e-14 Z M18,2 L2,2 L2,16.446 L5.91202028,14.6671855 L9.999,16.864 L14.0879797,14.6671855 L18,16.446 L18,2 Z M9.92369844,4 C12.6649124,4 13.7936476,6.11413889 13.2024054,9.23159792 L8.38288535,9.23159792 C8.50830037,10.4857481 9.20704119,11.023241 10.3357764,11.023241 C11.1778486,11.023241 12.1274195,10.772411 12.8799096,10.4499152 L13.1307396,12.2236419 C12.2528345,12.7073856 11.2495144,12.9940485 10.2461942,12.9940485 C7.79164312,12.9940485 6,11.2740711 6,8.38952565 C6,5.3795652 8.0066403,4 9.92369844,4 Z M9.94161487,5.80955955 C9.04579331,5.80955955 8.40080179,6.54413324 8.36496892,7.69078483 L11.2853472,7.69078483 C11.3570129,6.5262168 10.9091022,5.80955955 9.94161487,5.80955955 Z" id="Combined-Shape"></path>
            </g>
        </g>
    </g>
</svg>