<?xml version="1.0" encoding="UTF-8"?>
<svg width="24px" height="24px" viewBox="0 0 24 24" version="1.1" xmlns="http://www.w3.org/2000/svg" xmlns:xlink="http://www.w3.org/1999/xlink">
    <!-- Generator: Sketch 50.2 (55047) - http://www.bohemiancoding.com/sketch -->
    <title>envelope-24</title>
    <desc>Created with Sketch.</desc>
    <defs></defs>
    <g id="envelope-24" stroke="none" stroke-width="1" fill="none" fill-rule="evenodd">
        <g id="notification-envelope-20" transform="translate(2.000000, 3.500000)" fill="#FF0000" fill-rule="nonzero">
            <path d="M1.75,14.5 L18.25,14.5 L18.25,2.5 L1.75,2.5 L1.75,14.5 Z M20,0.5 L20,16.5 L0,16.5 L0,0.5 L20,0.5 Z" id="Rectangle-path"></path>
            <polygon id="Shape" points="10.0383854 8.17494408 2.36937482 1.55828744 1.0150942 3.0299953 10.0426115 10.8967637 18.9838442 3.0299953 17.625 1.5625"></polygon>
            <polygon id="Shape" transform="translate(16.194743, 12.351974) rotate(-1.000000) translate(-16.194743, -12.351974) " points="19.0375117 13.9938897 14.8175606 9.34915601 13.3519736 10.7100582 17.5719247 15.3547919"></polygon>
            <polygon id="Shape" transform="translate(3.908308, 12.326549) rotate(1.000000) translate(-3.908308, -12.326549) " points="2.51711022 15.3036942 6.76509368 10.7103067 5.2995067 9.34940453 1.05152324 13.942792"></polygon>
        </g>
    </g>
</svg>