<svg width="24" height="25" viewBox="0 0 24 25" fill="none" xmlns="http://www.w3.org/2000/svg">
    <rect width="24" height="24" transform="translate(0 0.53418)" fill="none"/>
    <path fill-rule="evenodd" clip-rule="evenodd"
          d="M12 4.53418H4C3.44771 4.53418 3 4.98189 3 5.53418V19.5342C3 20.0865 3.44772 20.5342 4 20.5342H12C12.5523 20.5342 13 20.0865 13 19.5342V5.53418C13 4.9819 12.5523 4.53418 12 4.53418ZM4 2.53418C2.34315 2.53418 1 3.87733 1 5.53418V19.5342C1 21.191 2.34315 22.5342 4 22.5342H12C13.6569 22.5342 15 21.191 15 19.5342V5.53418C15 3.87733 13.6569 2.53418 12 2.53418H4Z"
          fill="#ff0000"/>
    <path fill-rule="evenodd" clip-rule="evenodd" d="M19 15.5342V9.53418H21V15.5342H19Z" fill="#ff0000"/>
    <path fill-rule="evenodd" clip-rule="evenodd" d="M17 11.5342L23 11.5342V13.5342L17 13.5342V11.5342Z"
          fill="#ff0000"/>
    <path d="M7 13.5342C7 14.0865 6.55228 14.5342 6 14.5342C5.44772 14.5342 5 14.0865 5 13.5342C5 12.9819 5.44772 12.5342 6 12.5342C6.55228 12.5342 7 12.9819 7 13.5342Z"
          fill="#ff0000"/>
    <path d="M11 13.5342C11 14.0865 10.5523 14.5342 10 14.5342C9.44771 14.5342 9 14.0865 9 13.5342C9 12.9819 9.44771 12.5342 10 12.5342C10.5523 12.5342 11 12.9819 11 13.5342Z"
          fill="#ff0000"/>
    <path d="M7 17.5342C7 18.0865 6.55228 18.5342 6 18.5342C5.44772 18.5342 5 18.0865 5 17.5342C5 16.9819 5.44772 16.5342 6 16.5342C6.55228 16.5342 7 16.9819 7 17.5342Z"
          fill="#ff0000"/>
    <path d="M11 17.5342C11 18.0865 10.5523 18.5342 10 18.5342C9.44771 18.5342 9 18.0865 9 17.5342C9 16.9819 9.44771 16.5342 10 16.5342C10.5523 16.5342 11 16.9819 11 17.5342Z"
          fill="#ff0000"/>
    <path d="M5 7.53418H11V9.53418H5V7.53418Z" fill="#ff0000"/>
</svg>
