<svg xmlns="http://www.w3.org/2000/svg" width="24" height="24" fill="none">
    <path
        fill="#FF0000"
        fill-rule="evenodd"
        d="M12 4.468H4a1 1 0 0 0-1 1v14a1 1 0 0 0 1 1h8a1 1 0 0 0 1-1v-14a1 1 0 0 0-1-1Zm-8-2a3 3 0 0 0-3 3v14a3 3 0 0 0 3 3h8a3 3 0 0 0 3-3v-14a3 3 0 0 0-3-3H4ZM19 15.468v-6h2v6h-2Z"
        clip-rule="evenodd"
    />
    <path fill="#FF0000" fill-rule="evenodd" d="M17 11.468h6v2h-6v-2Z" clip-rule="evenodd" />
    <path
        fill="#FF0000"
        d="M7 13.468a1 1 0 1 1-2 0 1 1 0 0 1 2 0ZM11 13.468a1 1 0 1 1-2 0 1 1 0 0 1 2 0ZM7 17.468a1 1 0 1 1-2 0 1 1 0 0 1 2 0ZM11 17.468a1 1 0 1 1-2 0 1 1 0 0 1 2 0ZM5 7.468h6v2H5v-2Z" />
</svg>