<?xml version="1.0" encoding="UTF-8"?>
<svg width="24px" height="24px" viewBox="0 0 24 24" version="1.1" xmlns="http://www.w3.org/2000/svg" xmlns:xlink="http://www.w3.org/1999/xlink">
    <!-- Generator: Sketch 54.1 (76490) - https://sketchapp.com -->
    <title>Icons/24px/family-24</title>
    <desc>Created with Sketch.</desc>
    <g id="Icons/24px/family-24" stroke="none" stroke-width="1" fill="none" fill-rule="evenodd">
        <g>
            <rect id="invisible-24" x="0" y="0" width="24" height="24"></rect>
            <g id="lines" transform="translate(3.000000, 3.000000)" fill="#FF0000" fill-rule="nonzero">
                <path d="M6,9 C3.790861,9 2,7.209139 2,5 C2,2.790861 3.790861,1 6,1 C7.18311682,1 8.28031869,1.51531103 9.03648364,2.396064 L10.553946,1.09325622 C9.42174827,-0.225485776 7.77265014,-1 6,-1 C2.6862915,-1 0,1.6862915 0,5 C0,8.3137085 2.6862915,11 6,11 C9.3137085,11 12,8.3137085 12,5 C12,4.61483214 11.9635768,4.23378253 11.89177,3.86062582 L11.7357017,3.04958974 L10.909786,3.04958974 C8.31005418,3.04958974 8.31005418,3.04958974 7.01308318,3.04958974 C6.45997208,3.04958974 5.77159348,2.54655526 5.4256702,1.82384256 L3.62167202,2.68731842 C4.27977005,4.06223544 5.63091713,5.04958974 7.01308318,5.04958974 C8.13721806,5.04958974 8.28702181,5.04958974 9.99973564,5.04958974 C9.97313784,7.23587712 8.19258541,9 6,9 Z" id="Path"></path>
                <path d="M13,16 C15.209139,16 17,14.209139 17,12 C17,9.790861 15.209139,8 13,8 C10.790861,8 9,9.790861 9,12 C9,14.209139 10.790861,16 13,16 Z M13,14 C11.8954305,14 11,13.1045695 11,12 C11,10.8954305 11.8954305,10 13,10 C14.1045695,10 15,10.8954305 15,12 C15,13.1045695 14.1045695,14 13,14 Z" id="Oval"></path>
                <path d="M1,19 L1,12.4496707 C1,11.4562861 1.72368603,10.6241266 3.38885759,9.92129788 L2.61114241,8.07870212 C0.276313971,9.06417683 -1,10.5317978 -1,12.4496707 L-1,19 L1,19 Z" id="Path-3"></path>
                <path d="M9,19 L9,17.8624169 C9,16.1498766 9.70350783,15.2854574 11.2001202,14.9797713 L10.7998798,13.0202287 C8.3709444,13.5163435 7,15.2008601 7,17.8624169 L7,19 L9,19 Z" id="Path-3"></path>
                <path d="M16,19 L16,17.8624169 C16,16.3160313 16.8879539,15.3163264 18.2475976,14.968863 L17.7524024,13.031137 C15.5549263,13.5927126 14,15.3433299 14,17.8624169 L14,19 L16,19 Z" id="Path-3" transform="translate(16.123799, 16.015569) scale(-1, 1) translate(-16.123799, -16.015569) "></path>
            </g>
        </g>
    </g>
</svg>