<?xml version="1.0" encoding="UTF-8"?>
<svg width="24px" height="24px" viewBox="0 0 24 24" version="1.1" xmlns="http://www.w3.org/2000/svg" xmlns:xlink="http://www.w3.org/1999/xlink">
    <!-- Generator: Sketch 63.1 (92452) - https://sketch.com -->
    <title>Icons/24px/farm-24</title>
    <desc>Created with Sketch.</desc>
    <g id="Icons/24px/farm-24" stroke="none" stroke-width="1" fill="none" fill-rule="evenodd">
        <g>
            <rect id="invisible-24" x="0" y="0" width="24" height="24"></rect>
            <g id="outlines" transform="translate(1.000000, 1.000000)" fill="#FF0000" fill-rule="nonzero">
                <path d="M1,21 L1,19 L1.99903527,18.9996376 L1.99903527,11.4446376 L1.66896473,11.7432941 L0.331035268,10.2567059 L11,0.654637595 L21.6689647,10.2567059 L20.3310353,11.7432941 L19.9990353,11.4436376 L19.9990353,18.9996376 L21,19 L21,21 L1,21 Z M11,3.345 L3.99903527,9.6446376 L4,19 L6.99903527,18.9996376 L7,11.1111111 L15,11.1111111 L14.9990353,18.9996376 L18,19 L17.9990353,9.6436376 L11,3.345 Z M12.9990353,14.9996376 L9.99903527,18.9996376 L12.9990353,18.9996376 L12.9990353,14.9996376 Z M11.9160353,13.1106376 L9,13.111 L8.99903527,16.9996376 L11.9160353,13.1106376 Z M11,6 C12.1045105,6 13,6.89542362 13,8 L13,8 L13,9 L9,9 L9,8 C9,6.8954033 9.8954033,6 11,6 Z" id="Combined-Shape"></path>
            </g>
        </g>
    </g>
</svg>