<?xml version="1.0" encoding="UTF-8"?>
<svg width="24px" height="24px" viewBox="0 0 24 24" version="1.1" xmlns="http://www.w3.org/2000/svg" xmlns:xlink="http://www.w3.org/1999/xlink">
    <!-- Generator: Sketch 54.1 (76490) - https://sketchapp.com -->
    <title>Icons/24px/gravestones-24</title>
    <desc>Created with Sketch.</desc>
    <g id="Icons/24px/gravestones-24" stroke="none" stroke-width="1" fill="none" fill-rule="evenodd">
        <g>
            <rect id="invisible-24" x="0" y="0" width="24" height="24"></rect>
            <g id="lines" transform="translate(3.000000, 3.000000)" fill="#FF0000" fill-rule="nonzero">
                <path d="M9.60005554,5.08346062 L10,4.9089394 L10.3999445,5.08346062 C14.0587801,6.68004343 16,8.79773791 16,11.4545455 L16,19 L4,19 L4,11.4545455 C4,8.79773791 5.94121993,6.68004343 9.60005554,5.08346062 Z M6,11.4545455 L6,17 L14,17 L14,11.4545455 C14,9.82525592 12.7314978,8.3674186 10,7.09669132 C7.26850218,8.3674186 6,9.82525592 6,11.4545455 Z" id="Rectangle"></path>
                <path d="M1,13 L1,7.45454545 C1,5.82495314 2.26897369,4.36687677 5.00152298,3.0959829 C7.71240967,4.33764002 9.01220411,5.5664679 9.01220411,6.54812784 L11.0122041,6.54812784 C11.0122041,4.46430332 9.04766856,2.67519477 5.39994446,1.08346062 L5,0.908939404 L4.60005554,1.08346062 C0.941219935,2.68004343 -1,4.79773791 -1,7.45454545 C-1,10 -1,10 -1,14 L-1,15 L5.00227118,15 L5.00227118,13 L1,13 Z" id="Path"></path>
                <path d="M13.1541809,1.07428217 C15.7406008,1.99170144 17,3.60805031 17,5.5 C17,5.86157407 17,5.86157407 17,6.21296296 L17,6.98288799 C17,8.27525582 17,8.47764877 17,10 L14.7296577,10 L14.7296577,12 L18,12 L19,12 L19,11 C19,8.51523028 19,8.51523028 19,6.98288799 L19,5.5 C19,2.60178814 17.0188405,0.18829468 13.3950677,-0.953756214 L13.0376126,-1.06641006 L12.6941672,-0.916375734 C11.364071,-0.33532243 10.1302849,0.540214658 9.27994711,1.42257705 L10.7200529,2.81041541 C11.3216428,2.18616901 12.1999088,1.5420949 13.1541809,1.07428217 Z" id="Path"></path>
            </g>
        </g>
    </g>
</svg>