<svg width="24" height="24" viewBox="0 0 24 24" fill="none" xmlns="http://www.w3.org/2000/svg">
<path fill-rule="evenodd" clip-rule="evenodd" d="M16.5 4C15.6716 4 15 4.67157 15 5.5C15 6.32843 15.6716 7 16.5 7C17.3284 7 18 6.32843 18 5.5C18 4.67157 17.3284 4 16.5 4ZM13 5.5C13 3.567 14.567 2 16.5 2C18.433 2 20 3.567 20 5.5C20 5.88214 19.9388 6.24998 19.8256 6.59423C20.0489 6.71519 20.271 6.85608 20.4834 7.0189C21.2894 7.63681 22 8.61443 22 10V13H20V10C20 9.38558 19.7106 8.94654 19.2665 8.60611C19.0783 8.46176 18.8708 8.3435 18.6658 8.2496C18.07 8.71956 17.3177 9 16.5 9C16.3199 9 16.1429 8.98639 15.9701 8.96015C16.6161 9.80253 17 10.8564 17 12C17 12.8967 16.764 13.7382 16.3506 14.4659C17.5979 15.1467 19 16.5771 19 19.0833V22H17V19.0833C17 17.1435 15.7169 16.2783 14.9636 16.0274C14.1343 16.6387 13.1093 17 12 17C10.8907 17 9.8657 16.6387 9.03636 16.0274C8.28312 16.2783 7.00002 17.1435 7.00002 19.0833V22H5.00002V19.0833C5.00002 16.5771 6.40214 15.1467 7.64938 14.4659C7.23604 13.7382 7 12.8967 7 12C7 10.8564 7.38391 9.80253 8.02988 8.96015C7.85708 8.98639 7.68013 9 7.5 9C6.68225 9 5.93001 8.71956 5.33419 8.2496C5.12916 8.34349 4.92175 8.46176 4.73346 8.60611C4.28943 8.94654 4.00003 9.38558 4.00003 10V13H2.00003V10C2.00003 8.61443 2.71063 7.63681 3.5166 7.0189C3.72897 6.85608 3.95105 6.71518 4.17445 6.59423C4.06124 6.24998 4 5.88214 4 5.5C4 3.567 5.567 2 7.5 2C9.433 2 11 3.567 11 5.5C11 6.1221 10.8377 6.70629 10.5531 7.21254C11.0111 7.07431 11.4969 7 12 7C12.5031 7 12.9889 7.07431 13.4469 7.21254C13.1623 6.70629 13 6.1221 13 5.5ZM12 9C10.3431 9 9 10.3431 9 12C9 13.6569 10.3431 15 12 15C13.6569 15 15 13.6569 15 12C15 10.3431 13.6569 9 12 9ZM6 5.5C6 4.67157 6.67157 4 7.5 4C8.32843 4 9 4.67157 9 5.5C9 6.32843 8.32843 7 7.5 7C6.67157 7 6 6.32843 6 5.5Z" fill="#FF0000"/>
</svg>
