<?xml version="1.0" encoding="UTF-8"?>
<svg width="24px" height="24px" viewBox="0 0 24 24" version="1.1" xmlns="http://www.w3.org/2000/svg" xmlns:xlink="http://www.w3.org/1999/xlink">
    <!-- Generator: Sketch 50.2 (55047) - http://www.bohemiancoding.com/sketch -->
    <title>heartbeat-24</title>
    <desc>Created with Sketch.</desc>
    <defs></defs>
    <g id="heartbeat-24" stroke="none" stroke-width="1" fill="none" fill-rule="evenodd">
        <g id="heartbeat-20" transform="translate(2.000000, 2.500000)" fill="#FF0000" fill-rule="nonzero">
            <path d="M2.39361293,2.3916 C2.63947044,2.1396 2.9692793,1.9996 3.32307426,1.9996 C3.67686922,1.9996 4.00667808,2.1396 4.25253559,2.3916 L5.49981274,3.6756 L6.7480893,2.3916 C7.2388049,1.8876 8.11629636,1.8876 8.60601254,2.3916 C9.13170787,2.9316 9.13170787,3.8446 8.60701196,4.3846 L5.49981274,7.5806 L2.39361293,4.3846 C1.86891702,3.8446 1.86891702,2.9316 2.39361293,2.3916 Z M5.49981274,10.4506 L10.0401814,5.7786 C11.3204394,4.4606 11.3204394,2.3156 10.0391819,0.9966 C8.84987121,-0.2274 6.76507945,-0.2994 5.49981274,0.8206 C4.89916084,0.2896 4.13560336,-0.0004 3.32407368,-0.0004 L3.32307426,-0.0004 C2.42459497,-0.0004 1.58608093,0.3536 0.960443521,0.9976 C-0.319814507,2.3156 -0.319814507,4.4606 0.960443521,5.7786 L5.49981274,10.4506 Z" id="Fill-1"></path>
            <polygon id="Fill-4" points="18.5698 12.5150004 15.0208 6.60000038 10.0998 14.4740004 8.1118 10.5040004 5.5138 14.5150004 0.0038 14.5150004 0.0038 16.5150004 6.6008 16.5150004 7.8888 14.5260004 9.9068 18.5560004 14.9858 10.4300004 17.4368 14.5150004 20.0038 14.5150004 20.0038 12.5150004"></polygon>
        </g>
    </g>
</svg>