<?xml version="1.0" encoding="UTF-8"?>
<svg width="24px" height="24px" viewBox="0 0 24 24" version="1.1" xmlns="http://www.w3.org/2000/svg" xmlns:xlink="http://www.w3.org/1999/xlink">
    <!-- Generator: Sketch 50.2 (55047) - http://www.bohemiancoding.com/sketch -->
    <title>heart-24</title>
    <desc>Created with Sketch.</desc>
    <defs></defs>
    <g id="heart-24" stroke="none" stroke-width="1" fill="none" fill-rule="evenodd">
        <g id="heart-20" transform="translate(3.000000, 4.500000)" fill="#FF0000" fill-rule="nonzero">
            <path d="M5.127,2.0146 C4.318,2.0146 3.509,2.3156 2.907,2.9166 C2.322,3.5016 2,4.2906 2,5.1376 C2,5.9846 2.322,6.7726 2.907,7.3576 L9,13.4506 L15.093,7.3576 C15.678,6.7726 16,5.9846 16,5.1376 C16,4.2906 15.678,3.5016 15.093,2.9166 C13.889,1.7126 11.855,1.7136 10.652,2.9176 L9,4.5706 L7.348,2.9166 C6.746,2.3156 5.937,2.0146 5.127,2.0146 Z M9,16.2786 L1.493,8.7716 C0.53,7.8096 0,6.5186 0,5.1376 C0,3.7566 0.53,2.4656 1.493,1.5026 C3.497,-0.5014 6.758,-0.5004 8.762,1.5026 L9,1.7416 L9.238,1.5026 C11.242,-0.5014 14.503,-0.5014 16.507,1.5026 C17.47,2.4656 18,3.7566 18,5.1376 C18,6.5186 17.47,7.8096 16.507,8.7716 L9,16.2786 Z" id="Fill-1"></path>
        </g>
    </g>
</svg>