<?xml version="1.0" encoding="UTF-8"?>
<svg width="24px" height="24px" viewBox="0 0 24 24" version="1.1" xmlns="http://www.w3.org/2000/svg" xmlns:xlink="http://www.w3.org/1999/xlink">
    <!-- Generator: Sketch 50.2 (55047) - http://www.bohemiancoding.com/sketch -->
    <title>id-card-24</title>
    <desc>Created with Sketch.</desc>
    <defs></defs>
    <g id="id-card-24" stroke="none" stroke-width="1" fill="none" fill-rule="evenodd">
        <g id="id-card-20" transform="translate(2.000000, 5.000000)" fill="#FF0000" fill-rule="nonzero">
            <path d="M18,11.1997 C18,11.59375 17.65625,11.9997 17.2,11.9997 C8.15,12.0207333 3.35,12.0207333 2.8,11.9997 C2.453125,11.9997 2,11.609375 2,11.1997 L2,2.8447 L2,2.7997 C2,2.3587 2.359,1.9997 2.8,1.9997 L17.2,1.9997 C17.641,1.9997 18,2.3587 18,2.7997 L18,11.1997 Z M2.8,-0.0003 C1.533,-0.0003 0.472,0.8507 0.128,2.0077 C0.053,2.2607 0,2.5227 0,2.7997 L0,2.8447 L0,11.1997 C0,12.8125 1.3125,13.9997 2.8,13.9997 L17.2,13.9997 C18.8125,13.9997 20,12.75 20,11.1997 L20,2.7997 C20,1.2557 18.744,-0.0003 17.2,-0.0003 L2.8,-0.0003 Z" id="Fill-1"></path>
            <path d="M7.5,4 L7.5,5 C6.94959596,5 6.5,5.44959596 6.5,6.00057208 C6.5,6.55102052 6.94964033,7.00057208 7.5,7.00057208 C8.05069008,7.00057208 8.5,6.55126216 8.5,6.00057208 C8.5,5.44935429 8.05073442,5 7.5,5 L7.5,4 Z M7.5,4 L7.5,3 C9.15539234,3 10.5,4.34487319 10.5,6.00057208 C10.5,7.65583166 9.15525958,9.00057208 7.5,9.00057208 C5.84515923,9.00057208 4.5,7.65567843 4.5,6.00057208 C4.5,4.34502646 5.84502646,3 7.5,3 L7.5,4 Z" id="Fill-7"></path>
            <path d="M12.5,12 L10.5,12 C10.5,10.3431458 9.15685425,9 7.5,9 C5.84314575,9 4.5,10.3431458 4.5,12 L2.5,12 C2.5,9.23857625 4.73857625,7 7.5,7 C10.2614237,7 12.5,9.23857625 12.5,12 Z" id="Oval-5"></path>
            <polygon id="Fill-4" points="12 6 16 6 16 4 12 4"></polygon>
            <polygon id="Fill-6" points="12 9 16 9 16 7 12 7"></polygon>
        </g>
    </g>
</svg>