<?xml version="1.0" encoding="UTF-8"?>
<svg width="24px" height="24px" viewBox="0 0 24 24" version="1.1" xmlns="http://www.w3.org/2000/svg" xmlns:xlink="http://www.w3.org/1999/xlink">
    <!-- Generator: Sketch 60.1 (88133) - https://sketch.com -->
    <title>Icons/24px/id-sign-24</title>
    <desc>Created with Sketch.</desc>
    <g id="Icons/24px/id-sign-24" stroke="none" stroke-width="1" fill="none" fill-rule="evenodd">
        <g>
            <rect id="invisible-24" x="0" y="0" width="24" height="24"></rect>
            <g id="outlines" transform="translate(1.000000, 2.000000)" fill="#FF0000" fill-rule="nonzero">
                <path d="M20.3054055,11.2805985 L21.6945945,12.7194015 L13.7519873,20.3881257 L9.30746817,16.1213873 L10.6925318,14.6786127 L13.748,17.611 L20.3054055,11.2805985 Z M7.5,0 C9.57106781,0 11.25,1.67893219 11.25,3.75 C11.25,4.3231478 11.1214187,4.86626383 10.8915288,5.35207547 C11.6299001,5.95898967 12.235577,6.63493137 12.7048791,7.37859805 C13.3053691,8.33014803 13.7107803,9.64525146 13.9451793,11.3331191 L13.992799,11.700514 L14.0714126,12.3520371 L13.5049864,12.6834338 C11.9566221,13.5893289 10.2025579,13.9166667 7.50373938,13.9166667 C4.93340565,13.9166667 3.22171161,13.6215263 1.72898147,12.8150525 L1.49501362,12.6834338 L0.928587384,12.3520371 L1.00720105,11.700514 C1.23229912,9.83497825 1.65173877,8.39811588 2.29512089,7.37859805 C2.76442297,6.63493137 3.3700999,5.95898967 4.10836459,5.35068699 C3.87858129,4.86626383 3.75,4.3231478 3.75,3.75 C3.75,1.67893219 5.42893219,0 7.5,0 Z M9.58565464,6.86619298 L9.4990717,6.92330577 C8.92041606,7.28860479 8.23489503,7.5 7.5,7.5 C6.72846797,7.5 6.01135558,7.26700187 5.41518841,6.86753121 C4.82070744,7.34976447 4.34579196,7.87660621 3.98649097,8.44596267 C3.62512865,9.01858557 3.33711829,9.86265318 3.13681804,10.9726704 L3.089,11.254 L3.29212364,11.3394276 C4.26433425,11.7228413 5.45186204,11.8933888 7.1353081,11.9144244 L7.50373938,11.9166667 C9.37950793,11.9166667 10.6670158,11.7500908 11.7081662,11.339341 L11.91,11.254 L11.863182,10.9726704 C11.6810908,9.96356384 11.426512,9.17425034 11.110233,8.60885846 L11.013509,8.44596267 C10.6543729,7.8768674 10.1797283,7.35024784 9.58565464,6.86619298 Z M7.5,2 C6.53350169,2 5.75,2.78350169 5.75,3.75 C5.75,4.71649831 6.53350169,5.5 7.5,5.5 C8.46649831,5.5 9.25,4.71649831 9.25,3.75 C9.25,2.78350169 8.46649831,2 7.5,2 Z" id="Combined-Shape"></path>
            </g>
        </g>
    </g>
</svg>