<?xml version="1.0" encoding="UTF-8"?>
<svg width="24px" height="24px" viewBox="0 0 24 24" version="1.1" xmlns="http://www.w3.org/2000/svg" xmlns:xlink="http://www.w3.org/1999/xlink">
    <!-- Generator: Sketch 50.2 (55047) - http://www.bohemiancoding.com/sketch -->
    <title>info-enclosed-24</title>
    <desc>Created with Sketch.</desc>
    <defs></defs>
    <g id="info-enclosed-24" stroke="none" stroke-width="1" fill="none" fill-rule="evenodd">
        <g id="info-enclosed-20" transform="translate(3.000000, 3.000000)" fill="#FF0000" fill-rule="nonzero">
            <path d="M9,16 C5.141,16 2,12.86 2,9 C2,7.872 2.274,6.81 2.75,5.865 C3.903,3.577 6.268,2 9,2 C11.732,2 14.097,3.577 15.25,5.865 C15.726,6.81 16,7.872 16,9 C16,12.86 12.859,16 9,16 M15.25,2.538 C13.63,0.97 11.428,0 9,0 C6.572,0 4.37,0.97 2.75,2.538 C1.058,4.175 0,6.465 0,9 C0,13.962 4.037,18 9,18 C13.963,18 18,13.962 18,9 C18,6.465 16.942,4.175 15.25,2.538" id="Fill-1"></path>
            <polygon id="Fill-3" points="8 7.7998 8 11.2498 8 13.9998 10 13.9998 10 11.2498 10 7.7998"></polygon>
            <path d="M9,3.7499 C8.31,3.7499 7.75,4.3099 7.75,4.9999 C7.75,5.6899 8.31,6.2499 9,6.2499 C9.69,6.2499 10.25,5.6899 10.25,4.9999 C10.25,4.3099 9.69,3.7499 9,3.7499" id="Fill-5"></path>
        </g>
    </g>
</svg>