<?xml version="1.0" encoding="UTF-8"?>
<svg width="24px" height="24px" viewBox="0 0 24 24" version="1.1" xmlns="http://www.w3.org/2000/svg" xmlns:xlink="http://www.w3.org/1999/xlink">
    <title>Icons/24px/lightbulb-24</title>
    <g id="Icons/24px/lightbulb-24" stroke="none" stroke-width="1" fill="none" fill-rule="evenodd">
        <g>
            <rect id="invisible-24" x="0" y="0" width="24" height="24"></rect>
            <g id="lines-copy" transform="translate(3.000000, 2.000000)" fill="#FF0000" fill-rule="nonzero">
                <path d="M11,18 L11,20 L7,20 L7,18 L11,18 Z M12,15 L12,17 L6,17 L6,15 L12,15 Z M9,4 C12.5963337,4 14,5.42309107 14,9 C14,10.09542 13.674752,11.0190606 13.024233,12.1438732 L12.1657961,13.5757287 C12.0210225,13.8280206 12.0026228,13.8891568 12.0003203,13.9617882 L12,14 L10,14 C10,13.5314202 10.1512008,13.0927185 10.4327044,12.5717036 L10.5535012,12.3564325 C10.5969086,12.2816522 10.6442018,12.2024955 10.6976128,12.1149031 L11.1451733,11.3916562 C11.7350917,10.4198602 12,9.7362033 12,9 L11.9946888,8.59402535 C11.9365867,6.52820807 11.3788771,6.02963059 9.20825511,6.00131075 L9,6 C6.51443539,6 6,6.52155447 6,9 C6,9.68118148 6.22270276,10.3135395 6.71369467,11.1601412 L7.30172171,12.1174226 C7.40864551,12.2921741 7.49087544,12.4329157 7.56660385,12.5725903 C7.81330862,13.0276162 7.96009897,13.4200953 7.9929418,13.8253283 L8,14 L6,14 L5.99712586,13.9268493 C5.98059338,13.8060908 5.8705895,13.6274722 5.1457124,12.4361433 C4.3824338,11.1817019 4,10.1932714 4,9 C4,5.42309107 5.40366627,4 9,4 Z M2.5,8 L2.5,10 L0,10 L0,8 L2.5,8 Z M18,8 L18,10 L15.5,10 L15.5,8 L18,8 Z M2.70710678,2.29289322 L4.47487373,4.06066017 L3.06066017,5.47487373 L1.29289322,3.70710678 L2.70710678,2.29289322 Z M15.3599043,2.21781102 L16.7726584,3.6334826 L15.0030689,5.39942515 L13.5903149,3.98375357 L15.3599043,2.21781102 Z M10,0 L10,2.5 L8,2.5 L8,0 L10,0 Z" id="Combined-Shape"></path>
            </g>
        </g>
    </g>
</svg>