<?xml version="1.0" encoding="UTF-8"?>
<svg width="24px" height="24px" viewBox="0 0 24 24" version="1.1" xmlns="http://www.w3.org/2000/svg" xmlns:xlink="http://www.w3.org/1999/xlink">
    <!-- Generator: Sketch 63.1 (92452) - https://sketch.com -->
    <title>Icons/24px/mc-24</title>
    <desc>Created with Sketch.</desc>
    <g id="Icons/24px/mc-24" stroke="none" stroke-width="1" fill="none" fill-rule="evenodd">
        <g>
            <rect id="invisible-24" x="0" y="0" width="24" height="24"></rect>
            <g id="lines" transform="translate(1.000000, 3.000000)" fill="#FF0000" fill-rule="nonzero">
                <path d="M14.814118,0.419300473 L19.8646869,7.5 L17.9230769,7.5 C17.3030052,7.5 16.3986599,7.76652979 15.5908974,8.17632666 L16.2976872,8.88364168 C16.8267201,8.61930875 17.4235858,8.47058824 18.055177,8.47058824 C20.2299066,8.47058824 21.9928797,10.2335613 21.9928797,12.4082909 C21.9928797,14.5830205 20.2299066,16.3459935 18.055177,16.3459935 C15.8805843,16.3459935 14.1176471,14.5829847 14.1176471,12.4082909 C14.1176471,11.5923394 14.3658285,10.8343438 14.7908166,10.2056811 L13.9983059,9.41139342 C13.4372177,10.118567 13.0647426,11.0331143 13.0076577,11.7993801 L13,12 L13,12.4142136 L11.4142136,14 L8.27809413,14 L6.00002562,11.7213005 L4.78402986,12.937876 L3.3698163,11.5236624 L4.58502562,10.3073005 L2.893,8.615 L1,8.61538462 L1,6.61538462 L3.72190587,6.61538462 L9.106,11.999 L10.585,11.999 L11.022,11.562 L11.0250492,11.5197937 C11.1742562,10.0573143 11.9802055,8.42610031 13.1784864,7.38237419 L13.3817872,7.21398921 C14.099219,6.64971516 15.0170017,6.17793252 15.9242955,5.87312829 L16.187,5.789 L13.185882,1.58069953 L14.814118,0.419300473 Z M2.33883025,8.73235075 L3.15045485,10.5602636 C2.93532876,10.6557833 2.7384518,10.7904957 2.567465,10.9614091 C1.810845,11.718143 1.810845,12.9451043 2.56741179,13.701785 C3.32413351,14.4585067 4.55101279,14.4585067 5.30773451,13.701785 C5.447519,13.5620005 5.5629604,13.4051403 5.65249756,13.2353834 L5.73334216,13.0614825 L7.58690585,13.8126826 C7.39061739,14.2970185 7.09849628,14.7394504 6.72194807,15.1159986 C5.18417777,16.6537689 2.69096853,16.6537689 1.15314501,15.1159453 C-0.384381669,13.5781872 -0.384381669,11.0850601 1.15334995,9.54709702 C1.44132738,9.25924313 1.76795879,9.02061234 2.12269809,8.83634582 L2.33883025,8.73235075 Z M18.055177,10.4705882 C18.0004374,10.4705882 17.9462277,10.4728588 17.8926369,10.4773109 L18.7071068,11.2928932 L17.2928932,12.7071068 L16.2611241,11.6751965 C16.1686311,11.9013396 16.1176471,12.1488624 16.1176471,12.4082909 C16.1176471,13.4784334 16.985172,14.3459935 18.055177,14.3459935 C19.1253371,14.3459935 19.9928797,13.478451 19.9928797,12.4082909 C19.9928797,11.3381308 19.1253371,10.4705882 18.055177,10.4705882 Z M5.30277564,4 L8.303,6 L10.93,6 L11.0127501,5.98703213 C11.4709614,5.88914467 11.9244512,5.4959453 11.9915075,5.09911455 L12,5 L14,5 C14,6.55152364 12.6690057,7.7533555 11.2640475,7.97377539 L11.1016802,7.99481714 L11,8 L7.69722436,8 L4.697,6 L1,6 L1,4 L5.30277564,4 Z" id="Combined-Shape"></path>
            </g>
        </g>
    </g>
</svg>