<?xml version="1.0" encoding="UTF-8"?>
<svg width="24px" height="24px" viewBox="0 0 24 24" version="1.1" xmlns="http://www.w3.org/2000/svg" xmlns:xlink="http://www.w3.org/1999/xlink">
    <!-- Generator: Sketch 60.1 (88133) - https://sketch.com -->
    <title>Icons/24px/mobile-phone-24</title>
    <desc>Created with Sketch.</desc>
    <defs>
        <path d="M14,17 C14,18.6568542 12.6568542,20 11,20 L3,20 C1.34314575,20 0,18.6568542 0,17 L0,3 C0,1.34314575 1.34314575,0 3,0 L11,0 C12.6568542,0 14,1.34314575 14,3 L14,17 Z M12,13.5 L2,13.5 L2,17 C2,17.5522847 2.44771525,18 3,18 L11,18 C11.5522847,18 12,17.5522847 12,17 L12,13.5 Z M7,14 C7.82842712,14 8.5,14.6715729 8.5,15.5 C8.5,16.3284271 7.82842712,17 7,17 C6.17157288,17 5.5,16.3284271 5.5,15.5 C5.5,14.6715729 6.17157288,14 7,14 Z M12,4.5 L2,4.5 L2,12.5 L12,12.5 L12,4.5 Z M11,2 L3,2 C2.44771525,2 2,2.44771525 2,3 L2,3.5 L12,3.5 L12,3 C12,2.44771525 11.5522847,2 11,2 Z" id="path-1"></path>
    </defs>
    <g id="Icons/24px/mobile-phone-24" stroke="none" stroke-width="1" fill="none" fill-rule="evenodd">
        <g>
            <rect id="invisible-24" x="0" y="0" width="24" height="24"></rect>
            <g id="outlines" transform="translate(5.000000, 2.000000)">
                <mask id="mask-2" fill="white">
                    <use xlink:href="#path-1"></use>
                </mask>
                <use id="Combined-Shape" fill="#FF0000" fill-rule="nonzero" xlink:href="#path-1"></use>
            </g>
        </g>
    </g>
</svg>