<?xml version="1.0" encoding="UTF-8"?>
<svg width="24px" height="24px" viewBox="0 0 24 24" version="1.1" xmlns="http://www.w3.org/2000/svg" xmlns:xlink="http://www.w3.org/1999/xlink">
    <!-- Generator: Sketch 63.1 (92452) - https://sketch.com -->
    <title>Icons/24px/moped-24</title>
    <desc>Created with Sketch.</desc>
    <g id="Icons/24px/moped-24" stroke="none" stroke-width="1" fill="none" fill-rule="evenodd">
        <g>
            <rect id="invisible-24" x="0" y="0" width="24" height="24"></rect>
            <g id="lines" transform="translate(2.000000, 4.000000)" fill="#FF0000" fill-rule="nonzero">
                <path d="M1.38806556,10.2343859 L2.46534199,11.9194602 L2.344,11.997 L2.30481419,12.0375633 C2.13890153,12.2272524 2.03346545,12.4681837 2.00672683,12.7305145 L2,12.8633251 C2,13.5410121 2.51814427,14.0769231 3.14021187,14.0769231 C3.44638516,14.0769231 3.73328217,13.9481969 3.94569138,13.7221947 L3.988,13.672 L4.10805388,13.4357888 L5.89194612,14.3400722 L5.72374368,14.6718874 L5.63159267,14.8200188 C5.04287177,15.604422 4.13026974,16.0769231 3.14021187,16.0769231 C1.39820512,16.0769231 -2.37809772e-12,14.6307747 -2.37809772e-12,12.8633251 C-2.37809772e-12,12.0156908 0.323646919,11.2177351 0.888021283,10.6236351 L1.03408204,10.4794463 L1.17476575,10.3707495 L1.38806556,10.2343859 Z M17.9999158,10 C19.6568662,10 21,11.3431554 21,13 C21,14.6568446 19.6568662,16 17.9999158,16 C16.3430948,16 15,14.6568055 15,13 C15,11.3431945 16.3430948,10 17.9999158,10 Z M17.9999158,12 C17.4476975,12 17,12.4477307 17,13 C17,13.5522693 17.4476975,14 17.9999158,14 C18.5522895,14 19,13.5522823 19,13 C19,12.4477177 18.5522895,12 17.9999158,12 Z M14.6593962,-5.09814413e-13 L17.6634395,7.0076538 C17.6960965,7.00616383 17.7288291,7.00488942 17.7616354,7.00383231 L18,7 L20,7 L20,9 L18,9 C15.764754,9 14.1132058,10.3517485 14.0055862,11.8450637 L14,12 L14,14 L6.64811902,14 L-1.12887477e-12,8.6601218 L-1.12887477e-12,4 L10,4 L10,5 C10,6.74864041 8.96794778,7.98141315 7.4119044,8.58257917 C7.66854396,9.11541328 8.17395339,9.46153846 8.72958685,9.46153846 C9.48319056,9.46153846 9.94359478,9.00785 9.99515236,8.16298169 L10,8 L12,8 C12,10.0171462 10.6753577,11.4615385 8.72958685,11.4615385 C7.20470402,11.4615385 5.8976652,10.4362001 5.42206516,8.9880892 L5.23928241,8.99645094 L5.23928241,8.99645094 L5,9 L5,7 C6.24886577,7 7.18647409,6.64320831 7.65865956,6.02861598 L7.678,6 L2,6 L2,7.701 L7.352,12 L12,12 C12,9.94940082 13.4901849,8.16048432 15.6517449,7.39547689 L13.34,2 L12,2 L12,-5.09814413e-13 L14.6593962,-5.09814413e-13 Z" id="Combined-Shape"></path>
            </g>
        </g>
    </g>
</svg>