<?xml version="1.0" encoding="UTF-8"?>
<svg width="24px" height="24px" viewBox="0 0 24 24" version="1.1" xmlns="http://www.w3.org/2000/svg" xmlns:xlink="http://www.w3.org/1999/xlink">
    <!-- Generator: Sketch 61.2 (89653) - https://sketch.com -->
    <title>Icons/24px/mortgage-24</title>
    <desc>Created with Sketch.</desc>
    <defs>
        <path d="M6.5,12.7331384 L12,17.0109162 L12,21 L10,21 L10,17.9890838 L6.5,15.2668616 L3,17.9890838 L3,21 L1,21 L1,17.0109162 L6.5,12.7331384 Z M7.5,18 L7.5,21 L5.5,21 L5.5,18 L7.5,18 Z M14.5,13 C15.8807119,13 17,14.1192881 17,15.5 C17,16.8807119 15.8807119,18 14.5,18 C13.1192881,18 12,16.8807119 12,15.5 C12,14.1192881 13.1192881,13 14.5,13 Z M14.5,14.8858548 C14.160817,14.8858548 13.8858548,15.160817 13.8858548,15.5 C13.8858548,15.839183 14.160817,16.1141452 14.5,16.1141452 C14.839183,16.1141452 15.1141452,15.839183 15.1141452,15.5 C15.1141452,15.160817 14.839183,14.8858548 14.5,14.8858548 Z M14.9005044,0.538998116 L16.7717096,9.34232652 L13.9992217,9.93098245 C13.9997396,9.95392564 14,9.97693242 14,10 C14,11.6568542 12.6568542,13 11,13 C9.75356615,13 8.68467227,12.239861 8.2316014,11.1578661 L2.0994956,12.4610019 L0.228290386,3.65767348 L14.9005044,0.538998116 Z M11,9 C10.4477153,9 10,9.44771525 10,10 C10,10.5522847 10.4477153,11 11,11 C11.5522847,11 12,10.5522847 12,10 C12,9.44771525 11.5522847,9 11,9 Z M13.3600326,2.9111167 L2.60040897,5.1981453 L3.63996742,10.0888833 L8.12685117,9.13411146 C8.49844622,7.89939824 9.64419025,7 11,7 C11.9079561,7 12.7217043,7.40335204 13.2718337,8.04064514 L14.399591,7.8018547 L13.3600326,2.9111167 Z" id="path-1"></path>
    </defs>
    <g id="Icons/24px/mortgage-24" stroke="none" stroke-width="1" fill="none" fill-rule="evenodd">
        <g>
            <rect id="invisible-24" x="0" y="0" width="24" height="24"></rect>
            <g id="outlines" transform="translate(3.000000, 1.000000)">
                <mask id="mask-2" fill="white">
                    <use xlink:href="#path-1"></use>
                </mask>
                <use id="Combined-Shape" fill="#FF0000" fill-rule="nonzero" xlink:href="#path-1"></use>
            </g>
        </g>
    </g>
</svg>