<?xml version="1.0" encoding="UTF-8"?>
<svg width="24px" height="24px" viewBox="0 0 24 24" version="1.1" xmlns="http://www.w3.org/2000/svg" xmlns:xlink="http://www.w3.org/1999/xlink">
    <!-- Generator: Sketch 60 (88103) - https://sketch.com -->
    <title>Icons/24px/padlock-24</title>
    <desc>Created with Sketch.</desc>
    <defs>
        <path d="M12.4563872,6.94795216 C12.4563872,4.73881316 10.6655262,2.94795216 8.45638723,2.94795216 C6.24724823,2.94795216 4.45638723,4.73881316 4.45638723,6.94795216 L4.45638723,8.94795216 L2.45638723,8.94795216 L2.45638723,6.94795216 C2.45638723,3.63424366 5.14267873,0.947952159 8.45638723,0.947952159 C11.7700957,0.947952159 14.4563872,3.63424366 14.4563872,6.94795216 L14.4563872,8.94795216 L16.4563872,8.94795216 L16.4563872,20.9218856 L0.456387227,20.9218856 L0.456387227,8.94795216 L12.4563872,8.94795216 L12.4563872,6.94795216 Z M14.4563872,10.9479522 L2.45638723,10.9479522 L2.45638723,18.9218856 L14.4563872,18.9218856 L14.4563872,10.9479522 Z M8.45638723,11.9479522 C9.28481435,11.9479522 9.95638723,12.619525 9.95638723,13.4479522 C9.95638723,13.8110919 9.82734495,14.1440922 9.61261429,14.4035991 L11,18 L6,18 L7.30683723,14.4116119 C7.08810736,14.1509638 6.95638723,13.8148404 6.95638723,13.4479522 C6.95638723,12.619525 7.6279601,11.9479522 8.45638723,11.9479522 Z" id="path-1"></path>
    </defs>
    <g id="Icons/24px/padlock-24" stroke="none" stroke-width="1" fill="none" fill-rule="evenodd">
        <g>
            <rect id="invisible-24" x="0" y="0" width="24" height="24"></rect>
            <g id="outlines" transform="translate(3.543613, 1.052048)">
                <mask id="mask-2" fill="white">
                    <use xlink:href="#path-1"></use>
                </mask>
                <use id="Combined-Shape" fill="#FF0000" fill-rule="nonzero" xlink:href="#path-1"></use>
            </g>
        </g>
    </g>
</svg>