<?xml version="1.0" encoding="UTF-8"?>
<svg width="24px" height="24px" viewBox="0 0 24 24" version="1.1" xmlns="http://www.w3.org/2000/svg" xmlns:xlink="http://www.w3.org/1999/xlink">
    <!-- Generator: Sketch 61.1 (89650) - https://sketch.com -->
    <title>Icons/24px/parasol-24</title>
    <desc>Created with Sketch.</desc>
    <g id="Icons/24px/parasol-24" stroke="none" stroke-width="1" fill="none" fill-rule="evenodd">
        <g id="Icons/24px/apartment-24">
            <rect id="invisible-24" x="0" y="0" width="24" height="24"></rect>
        </g>
        <g>
            <g>
                <rect id="invisible-24" x="0" y="0" width="24" height="24"></rect>
                <g id="outlines" transform="translate(2.000000, 2.000000)" fill="#FF0000" fill-rule="nonzero">
                    <path d="M20.0588235,16 L20.0588235,18 C18.5213916,18 17.2477954,18.2534277 16.2299661,18.74812 L15.9808326,18.8768124 C14.6976452,19.5804958 13.1457538,19.9490581 11.3334989,19.9950722 L10.9411765,20 L4.02108934e-12,20 L4.02108934e-12,18 L10.9411765,18 C12.4786084,18 13.7522046,17.7465723 14.7700339,17.25188 L15.0191674,17.1231876 C16.3023548,16.4195042 17.8542462,16.0509419 19.6665011,16.0049278 L20.0588235,16 Z M7.48102187,5.14521248 C7.79991987,4.95159584 8.20008013,4.95159584 8.51897813,5.14521248 L8.51897813,5.14521248 L14.6954487,8.89521248 C14.8894093,9.01297428 15.0375528,9.19320019 15.1155451,9.40628644 L15.1155451,9.40628644 L15.9390745,11.6562864 C16.177905,12.3088055 15.6948533,13 15,13 L15,13 L9.27272727,13 C9.17954514,13 9.08748577,12.9869855 8.99905898,12.9618244 L9,17 L7,17 L7.00000127,12.9620913 C6.95440029,12.9750185 6.9078362,12.9847166 6.8606529,12.9910665 L6.8606529,12.9910665 L6.72727273,13 L1,13 C0.305146688,13 -0.177905043,12.3088055 0.0609254605,11.6562864 L0.0609254605,11.6562864 L0.884454872,9.40628644 C0.962447226,9.19320019 1.11059067,9.01297428 1.30455128,8.89521248 L1.30455128,8.89521248 Z M8,7.169 L2.642,10.422 L2.43,11 L6.38,11 L7.38217845,10.2136817 C7.70852862,9.95726367 8.15460424,9.93162187 8.5048995,10.1367563 L8.5048995,10.1367563 L8.61782155,10.2136817 L9.619,11 L13.569,11 L13.357,10.422 L8,7.169 Z M20,5 L20,8 L18,8 L18,5 L20,5 Z M15.4593884,3.1826725 L16.8736019,4.59688606 L14.7522816,6.71820641 L13.338068,5.30399284 L15.4593884,3.1826725 Z M18,0 C18,1.0543618 18.8158778,1.91816512 19.8507377,1.99451426 L20,2 L20,4 C17.8578046,4 16.1089211,2.31603153 16.0048953,0.199640343 L16,0 L18,0 Z M15,0 L15,2 L12,2 L12,0 L15,0 Z" id="Combined-Shape"></path>
                </g>
            </g>
        </g>
    </g>
</svg>