<?xml version="1.0" encoding="UTF-8"?>
<svg width="24px" height="24px" viewBox="0 0 24 24" version="1.1" xmlns="http://www.w3.org/2000/svg" xmlns:xlink="http://www.w3.org/1999/xlink">
    <!-- Generator: Sketch 64 (93537) - https://sketch.com -->
    <title>Icons/24px/payment-24</title>
    <desc>Created with Sketch.</desc>
    <defs>
        <path d="M8.82775591,16.0140113 C10.4745685,16.0140113 11.8095739,17.3490167 11.8095739,18.9958294 C11.8095739,20.642642 10.4745685,21.9776474 8.82775591,21.9776474 C7.18094328,21.9776474 5.84593787,20.642642 5.84593787,18.9958294 C5.84593787,17.3490167 7.18094328,16.0140113 8.82775591,16.0140113 Z M21.6548031,13.1337346 L23.0606824,14.5562336 L15.9319646,21.6016635 L12.4924897,18.0774606 L13.9238043,16.6805574 L15.9575609,18.7644135 L21.6548031,13.1337346 Z M8.82775591,18.0140113 C8.28551278,18.0140113 7.84593787,18.4535862 7.84593787,18.9958294 C7.84593787,19.5380725 8.28551278,19.9776474 8.82775591,19.9776474 C9.36999903,19.9776474 9.80957394,19.5380725 9.80957394,18.9958294 C9.80957394,18.4535862 9.36999903,18.0140113 8.82775591,18.0140113 Z M17.4693513,0.50304617 L18.7197414,4.83504617 L19.7825301,5.06171333 L17.5537169,15.547455 L9.65040164,13.8672089 C9.04373768,14.7684945 8.01407752,15.3613957 6.84593787,15.3613957 C5.17845222,15.3613957 3.79314262,14.1532564 3.51758868,12.5645576 L0.864741438,12.0001038 L3.09355463,1.51436209 L8.03974144,2.56504617 L17.4693513,0.50304617 Z M6.84593787,10.6050324 C6.08478916,10.6050324 5.46775622,11.2220654 5.46775622,11.9832141 C5.46775622,12.7443628 6.08478916,13.3613957 6.84593787,13.3613957 C7.60708657,13.3613957 8.22411951,12.7443628 8.22411951,11.9832141 C8.22411951,11.2220654 7.60708657,10.6050324 6.84593787,10.6050324 Z M4.63402645,3.88648068 L3.23686002,10.4596319 L3.77445722,10.5747917 C4.30839548,9.41229052 5.48289406,8.60503241 6.84593787,8.60503241 C8.69861611,8.60503241 10.2029603,10.0964278 10.2238983,11.9441463 L16.0132451,13.1753364 L17.4104115,6.60218515 L4.63402645,3.88648068 Z M16.0671452,2.85713671 L12.7867414,3.57404617 L16.5017414,4.36404617 L16.0671452,2.85713671 Z" id="path-1"></path>
    </defs>
    <g id="Icons/24px/payment-24" stroke="none" stroke-width="1" fill="none" fill-rule="evenodd">
        <g>
            <rect id="invisible-24" x="0" y="0" width="24" height="24"></rect>
            <g id="outlines" transform="translate(0.000000, 1.000000)">
                <mask id="mask-2" fill="white">
                    <use xlink:href="#path-1"></use>
                </mask>
                <use id="Combined-Shape" fill="#FF0000" fill-rule="nonzero" xlink:href="#path-1"></use>
            </g>
        </g>
    </g>
</svg>