<?xml version="1.0" encoding="UTF-8"?>
<svg width="24px" height="24px" viewBox="0 0 24 24" version="1.1" xmlns="http://www.w3.org/2000/svg" xmlns:xlink="http://www.w3.org/1999/xlink">
    <!-- Generator: Sketch 63.1 (92452) - https://sketch.com -->
    <title>Icons/24px/pdf-doc-24</title>
    <desc>Created with Sketch.</desc>
    <g id="Icons/24px/pdf-doc-24" stroke="none" stroke-width="1" fill="none" fill-rule="evenodd">
        <g>
            <rect id="invisible-24" x="0" y="0" width="24" height="24"></rect>
            <path d="M16.4142136,2 L20,5.58578644 L20,8 L18,8 L18,6.41421356 L15.5857864,4 L6,4 L6,20 L17.997678,20 L17.9930447,16.002322 L19.9930393,15.9976834 L20.002322,22 L4,22 L4,2 L16.4142136,2 Z M14.647,9.05 C16.1515,9.05 17.1545,10.2315 17.1545,12.008 C17.1545,13.8015 16.1515,15 14.647,15 L14.647,15 L12.743,15 L12.743,9.05 Z M21.141,9.05 L21.141,10.1635 L19.2115,10.1635 L19.2115,11.77 L20.9285,11.77 L20.9285,12.8835 L19.2115,12.8835 L19.2115,15 L18.013,15 L18.013,9.05 L21.141,9.05 Z M10.0315,9.05 C11.2045,9.05 12.012,9.917 12.012,11.209 C12.012,12.467 11.2215,13.3085 10.0825,13.3085 L10.0825,13.3085 L9.207,13.3085 L9.207,14.9915 L8,14.9915 L8,9.05 Z M14.63,10.1975 L13.9415,10.1975 L13.9415,13.8525 L14.63,13.8525 C15.429,13.8525 15.956,13.1215 15.956,12.0165 C15.956,10.9285 15.429,10.1975 14.63,10.1975 L14.63,10.1975 Z M10.0825,10.155 L9.1815,10.155 L9.1815,12.2205 L10.0825,12.2205 C10.533,12.2205 10.856,11.804 10.856,11.175 C10.856,10.563 10.533,10.155 10.0825,10.155 L10.0825,10.155 Z" id="Combined-Shape" fill="#FF0000" fill-rule="nonzero"></path>
        </g>
    </g>
</svg>