<?xml version="1.0" encoding="UTF-8"?>
<svg width="24px" height="24px" viewBox="0 0 24 24" version="1.1" xmlns="http://www.w3.org/2000/svg" xmlns:xlink="http://www.w3.org/1999/xlink">
    <!-- Generator: Sketch 50.2 (55047) - http://www.bohemiancoding.com/sketch -->
    <title>phone-24</title>
    <desc>Created with Sketch.</desc>
    <defs></defs>
    <g id="phone-24" stroke="none" stroke-width="1" fill="none" fill-rule="evenodd">
        <g transform="translate(12.000000, 12.000000) rotate(-73.000000) translate(-12.000000, -12.000000) translate(3.000000, 3.000000)" fill="#FF0000" fill-rule="nonzero" id="Fill-1">
            <path d="M4.1511387,15.6155522 C4.20840863,15.6722451 4.30925649,15.713 4.41403705,15.713 C4.51833032,15.713 4.61964501,15.672134 4.67677673,15.6157202 L7.14749924,13.173984 C7.21526298,13.1068814 7.24903705,13.025745 7.24903705,12.929 C7.24903705,12.8329816 7.21470972,12.7507233 7.14748272,12.6839771 L5.27058885,10.831146 L5.60452681,9.78000036 C5.83763437,9.04624134 6.39367924,8.21937486 7.35254621,7.27294807 C8.31429224,6.32214228 9.12145054,5.79155091 9.82731518,5.54538803 L10.8870838,5.17580486 L11.6853508,5.96477312 L12.8015447,7.06796476 C12.8920983,7.15749064 13.2343526,7.1573394 13.3245266,7.06796738 L15.7945917,4.625929 C15.8652048,4.55634174 15.899037,4.47579085 15.899037,4.381 C15.899037,4.28553386 15.8655753,4.20571975 15.7948194,4.13632201 L14.3536354,2.7121401 C14.1127544,2.47403249 13.6063654,2.3 12.906037,2.3 C11.1191874,2.3 8.74191056,3.26485027 6.00648499,5.96809433 C3.9928104,7.95872917 2.91000475,9.8122721 2.48748408,11.4313705 C2.14016382,12.7596073 2.29980949,13.7845259 2.7131387,14.1925522 L4.1511387,15.6155522 Z M2.88503705,16.895 L1.44703705,15.472 C0.51203705,14.549 0.25103705,12.869 0.74603705,10.976 C1.12103705,9.539 2.11903705,7.28 4.74103705,4.688 C8.56603705,0.908 11.725037,0.5 12.906037,0.5 C14.049037,0.5 15.011037,0.831 15.619037,1.432 L17.060037,2.856 C17.471037,3.259 17.699037,3.802 17.699037,4.381 C17.699037,4.959 17.471037,5.501 17.058037,5.908 L14.590037,8.348 C13.801037,9.13 12.329037,9.132 11.536037,8.348 L10.420037,7.245 C10.182037,7.328 9.58503705,7.597 8.61803705,8.553 C7.69303705,9.466 7.40803705,10.048 7.32003705,10.325 L8.41203705,11.403 C8.82303705,11.811 9.04903705,12.353 9.04903705,12.929 C9.04903705,13.505 8.82403705,14.047 8.41403705,14.453 L5.94203705,16.896 C5.54403705,17.289 4.98703705,17.513 4.41403705,17.513 C3.83903705,17.513 3.28203705,17.288 2.88503705,16.895 Z"></path>
        </g>
    </g>
</svg>