<?xml version="1.0" encoding="UTF-8"?>
<svg width="24px" height="24px" viewBox="0 0 24 24" version="1.1" xmlns="http://www.w3.org/2000/svg" xmlns:xlink="http://www.w3.org/1999/xlink">
    <!-- Generator: Sketch 63.1 (92452) - https://sketch.com -->
    <title>Icons/24px/image-doc-24</title>
    <desc>Created with Sketch.</desc>
    <g id="Icons/24px/image-doc-24" stroke="none" stroke-width="1" fill="none" fill-rule="evenodd">
        <g>
            <rect id="invisible-24" x="0" y="0" width="24" height="24"></rect>
            <g id="outlines" transform="translate(2.000000, 2.000000)" fill="#FF0000" fill-rule="nonzero">
                <path d="M20,0 L20,20 L0,20 L0,0 L20,0 Z M5.957,11.457 L2,15.414 L2,18 L11.773,18 L5.957,11.457 Z M13,13.415 L11.609,14.805 L14.449,18 L17.585,18 L13,13.415 Z M18,2 L2,2 L2,12.584 L6.04281683,8.54296961 L10.277,13.307 L13,10.5857864 L18,15.585 L18,2 Z M10,3 C11.6568542,3 13,4.34314575 13,6 C13,7.65685425 11.6568542,9 10,9 C8.34314575,9 7,7.65685425 7,6 C7,4.34314575 8.34314575,3 10,3 Z M10,5 C9.44771525,5 9,5.44771525 9,6 C9,6.55228475 9.44771525,7 10,7 C10.5522847,7 11,6.55228475 11,6 C11,5.44771525 10.5522847,5 10,5 Z" id="Combined-Shape"></path>
            </g>
        </g>
    </g>
</svg>