<?xml version="1.0" encoding="UTF-8"?>
<svg width="24px" height="24px" viewBox="0 0 24 24" version="1.1" xmlns="http://www.w3.org/2000/svg" xmlns:xlink="http://www.w3.org/1999/xlink">
    <!-- Generator: Sketch 50.2 (55047) - http://www.bohemiancoding.com/sketch -->
    <title>pin-24</title>
    <desc>Created with Sketch.</desc>
    <defs></defs>
    <g id="pin-24" stroke="none" stroke-width="1" fill="none" fill-rule="evenodd">
        <g transform="translate(4.000000, 2.000000)" fill="#FF0000" fill-rule="nonzero">
            <path d="M13.5,7.54394615 C13.5,4.48632002 11.028218,2.0001 8,2.0001 C4.97178204,2.0001 2.5,4.48632002 2.5,7.54394615 C2.5,8.97939323 3.07192209,10.3765076 4.1067054,11.4710869 L7.91741278,15.3077923 L8.08245269,15.3077923 L11.8945733,11.4687837 C12.9356141,10.3607068 13.5,8.96978374 13.5,7.54394615 Z M13.3319231,12.8597154 L8.915,17.3077923 L7.085,17.3077923 L2.68769231,12.8804846 C1.26961538,11.3816385 0.5,9.49394615 0.5,7.54394615 C0.5,3.38433077 3.86461538,0.0001 8,0.0001 C12.1353846,0.0001 15.5,3.38433077 15.5,7.54394615 C15.5,9.49394615 14.7303846,11.3816385 13.3319231,12.8597154 Z" id="Fill-1"></path>
            <polygon id="Fill-1" points="1 17.0001 1 19.0001 15 19.0001 15 17.0001"></polygon>
            <path d="M8,8.501 C7.43,8.501 7,8.071 7,7.501 C7,6.93 7.43,6.5 8,6.5 C8.57,6.5 9,6.93 9,7.501 L11,7.501 C11,5.818 9.682,4.5 8,4.5 C6.318,4.5 5,5.818 5,7.501 C5,9.183 6.318,10.501 8,10.501 L8,8.501 Z" id="Fill-4"></path>
        </g>
    </g>
</svg>