<?xml version="1.0" encoding="UTF-8"?>
<svg width="24px" height="24px" viewBox="0 0 24 24" version="1.1" xmlns="http://www.w3.org/2000/svg" xmlns:xlink="http://www.w3.org/1999/xlink">
    <!-- Generator: Sketch 63.1 (92452) - https://sketch.com -->
    <title>Icons/24px/pregnant-24</title>
    <desc>Created with Sketch.</desc>
    <g id="Icons/24px/pregnant-24" stroke="none" stroke-width="1" fill="none" fill-rule="evenodd">
        <g>
            <rect id="invisible-24" x="0" y="0" width="24" height="24"></rect>
            <g id="lines" transform="translate(4.000000, 2.000000)" fill="#FF0000" fill-rule="nonzero">
                <path d="M12,17.5 L12,20.0027192 L10,20.0027192 L10,17.5 L12,17.5 Z M8,0 C10.209139,0 12,1.790861 12,4 C12,4.84853194 11.7357882,5.63535391 11.2851457,6.28268482 C12.2742041,6.77469842 12.9287315,7.65239317 12.9945284,8.80632128 L13,9 L13,13.5 C13,15.3590221 11.8086606,16.4223281 10.1824421,16.4959073 L10,16.5 L6,16.5 C5.44771525,16.5 5,16.0522847 5,15.5 C5,14.9871642 5.38604019,14.5644928 5.88337887,14.5067277 L6,14.5 L10,14.5 C10.6395404,14.5 10.9563832,14.2705439 10.9957865,13.6410717 L11,13.5 L11,9 C11,8.4007987 10.5605132,7.99653969 9.72006673,7.8674813 C9.59898672,7.84888834 9.48633481,7.80930505 9.38524374,7.75300085 C8.95393665,7.91291985 8.48713765,8 8,8 C7.38236554,8 6.79742613,7.86001586 6.27517781,7.61004363 L6.41720451,7.54299483 C5.33208048,8.0411378 5.03416447,8.36043757 5.00287028,8.88105424 L5,8.98112186 L4.99995677,10.0421424 C5.23516203,10.0214826 5.47802066,10.0083952 5.72839357,10.0029327 L6,10 L6,12 C3.17604141,12 2,12.9408331 2,15 C2,16.9948179 3.1036873,17.9401058 5.74006736,17.9972382 L6,18 L6,20 C2.15729192,20 0,18.2741665 0,15 C0,12.7118757 1.05357786,11.1799259 2.99968228,10.4647318 L3,8.98112186 C3,7.79673347 3.51305562,6.93678093 4.66708813,6.21293915 C4.24586301,5.57965107 4,4.81853773 4,4 C4,1.790861 5.790861,0 8,0 Z M8,2 C6.8954305,2 6,2.8954305 6,4 C6,5.1045695 6.8954305,6 8,6 C9.1045695,6 10,5.1045695 10,4 C10,2.8954305 9.1045695,2 8,2 Z" id="Combined-Shape"></path>
            </g>
        </g>
    </g>
</svg>