<?xml version="1.0" encoding="UTF-8"?>
<svg width="24px" height="24px" viewBox="0 0 24 24" version="1.1" xmlns="http://www.w3.org/2000/svg" xmlns:xlink="http://www.w3.org/1999/xlink">
    <!-- Generator: Sketch 56.3 (81716) - https://sketch.com -->
    <title>Icons/24px/bankid-24</title>
    <desc>Created with Sketch.</desc>
    <g id="Icons/24px/bankid-24" stroke="none" stroke-width="1" fill="none" fill-rule="evenodd">
        <g id="Icons/24px/print-24">
            <g>
                <rect id="invisible-24" x="0" y="0" width="24" height="24"></rect>
                <g id="outlines" transform="translate(2.000000, 2.000000)" fill="#FF0000" fill-rule="nonzero">
                    <path d="M4,15 L0,15 L0,9.5 C0,7.56700338 1.56700338,6 3.5,6 L4,6 L4,0 L16,0 L16,6 L16.5,6 C18.4329966,6 20,7.56700338 20,9.5 L20,15 L16,15 L16,20 L4,20 L4,15 Z M4,13 L4,11 L16,11 L16,13 L18,13 L18,9.5 C18,8.67157288 17.3284271,8 16.5,8 L3.5,8 C2.67157288,8 2,8.67157288 2,9.5 L2,13 L4,13 Z M6,6 L14,6 L14,2 L6,2 L6,6 Z M6,13 L6,18 L14,18 L14,13 L6,13 Z" id="Combined-Shape"></path>
                </g>
            </g>
        </g>
    </g>
</svg>