<?xml version="1.0" encoding="UTF-8"?>
<svg width="24px" height="24px" viewBox="0 0 24 24" version="1.1" xmlns="http://www.w3.org/2000/svg" xmlns:xlink="http://www.w3.org/1999/xlink">
    <!-- Generator: Sketch 63.1 (92452) - https://sketch.com -->
    <title>Icons/24px/RV-24</title>
    <desc>Created with Sketch.</desc>
    <g id="Icons/24px/RV-24" stroke="none" stroke-width="1" fill="none" fill-rule="evenodd">
        <g>
            <rect id="invisible-24" x="0" y="0" width="24" height="24"></rect>
            <g id="lines" transform="translate(0.000000, 4.000000)" fill="#FF0000" fill-rule="nonzero">
                <path d="M20.7651931,0 L23.0289023,8.35831105 L21.8065364,14 L20.8284772,14.0011566 C20.7893802,14.1115934 20.7437846,14.2197542 20.6918817,14.325152 C20.1908648,15.3417323 19.1540516,16 17.9998812,16 C16.6941069,16 15.5831156,15.1655924 15.171025,14.0008815 L9.82859743,14.0013308 C9.7895083,14.1117905 9.74391163,14.2199786 9.69199161,14.3254112 C9.19067881,15.3418511 8.15395308,16 6.99988117,16 C5.6941069,16 4.58311557,15.1655924 4.17102503,14.0008815 L2.19346363,14 L0.971097695,8.35831105 L3.23480694,0 L20.7651931,0 Z M6.99988117,12 C6.44774354,12 6,12.4477537 6,13 C6,13.5522463 6.44774354,14 6.99988117,14 C7.38512798,14 7.73064539,13.7806537 7.89801868,13.4412954 C7.96487028,13.3055415 8,13.1563689 8,13 C8,12.4477353 7.55223809,12 6.99988117,12 Z M17.9998812,12 C17.4477435,12 17,12.4477537 17,13 C17,13.5522463 17.4477435,14 17.9998812,14 C18.3850983,14 18.7305058,13.7807025 18.897781,13.4412954 C18.964806,13.3051894 19,13.1559984 19,13 C19,12.4477353 18.5522381,12 17.9998812,12 Z M19.234,2 L4.765,2 L3.41009769,7 L7,7 L7,9 L3.15609769,9 L3.806,12 L4.17067507,12.0001081 C4.58248631,10.8348803 5.6937371,10 6.99988117,10 C8.30616915,10 9.41748466,10.834846 9.82931684,12.0000863 L15.1706751,12.0001081 C15.5824863,10.8348803 16.6937371,10 17.9998812,10 C18.9661049,10 19.8256566,10.4567557 20.3743685,11.1661233 L20.97,8.411 L20.3160977,6 L17,6 L17,4 L19.7750977,4 L19.234,2 Z M15,4 L15,11 L13,11 L13,6 L12,6 L12,11 L10,11 L10,4 L15,4 Z" id="Combined-Shape"></path>
            </g>
        </g>
    </g>
</svg>