<?xml version="1.0" encoding="UTF-8"?>
<svg width="24px" height="24px" viewBox="0 0 24 24" version="1.1" xmlns="http://www.w3.org/2000/svg" xmlns:xlink="http://www.w3.org/1999/xlink">
    <!-- Generator: Sketch 60 (88103) - https://sketch.com -->
    <title>Icons/24px/save-24</title>
    <desc>Created with Sketch.</desc>
    <g id="Icons/24px/save-24" stroke="none" stroke-width="1" fill="none" fill-rule="evenodd">
        <g>
            <rect id="invisible-24" x="0" y="0" width="24" height="24"></rect>
            <g id="outlines" transform="translate(0.913384, 2.145668)" fill="#FF0000" fill-rule="nonzero">
                <path d="M16.8574357,0.85433245 L16.7963605,5.06729602 C17.6701358,5.81787163 18.3663524,6.78514307 18.7884164,7.85433245 L21.0866162,7.85433245 L21.0866162,13.8543325 L18.7945954,13.8543325 C18.4010651,14.860005 17.7978827,15.5163635 16.8511795,15.9469757 L16.8399654,19.8543325 L11.9708599,19.8543325 L11.9708599,17.6369411 L9.62698749,17.6369411 L9.62698749,19.8543325 L4.80859193,19.8543325 L4.80859193,16.4628965 C2.88664983,15.1567335 1.55173252,12.7772321 1.55173252,10.4081661 C1.55173252,9.76831657 1.6235709,9.14353891 1.75939077,8.54569386 C0.770835043,8.05811137 0.0866162375,7.03967693 0.0866162375,5.85433245 C0.0866162375,4.18975453 1.43593358,2.85433245 3.08417071,2.85433245 L3.08417071,4.85433245 C2.50028244,4.85433245 2.04010461,5.30977137 2.04010461,5.85433245 C2.04010461,6.17487084 2.19954289,6.46453099 2.44980061,6.6486066 C3.54442582,4.52787087 5.54769134,3.07172375 7.93401651,3.07172375 L11.648773,3.07172375 C12.5613777,1.48509239 13.7029846,0.85433245 15.866087,0.85433245 L16.8574357,0.85433245 Z M14.8737914,2.91964314 C13.993962,3.06800654 13.5988706,3.49962925 13.1063847,4.51609867 L12.8371808,5.07172375 L7.93401651,5.07172375 C5.46484408,5.07172375 3.50522089,7.48337848 3.50522089,10.4081661 C3.50522089,12.2318147 4.67508684,14.1510462 6.24797488,15.0170997 L6.7620803,15.3001731 L6.7620803,17.8543325 L7.67349912,17.8543325 L7.67349912,15.6369411 L13.9243483,15.6369411 L13.9243483,17.8543325 L14.8922086,17.8543325 L14.9018391,14.4987607 L15.6004597,14.2880806 C16.5433124,14.0037485 16.87255,13.6416393 17.1447502,12.5966539 L17.3381119,11.8543325 L19.1331279,11.8543325 L19.1331279,9.85433245 L17.3409999,9.85433245 L17.1456941,9.11560743 C16.8613535,8.04011717 16.16238,7.03909454 15.2423645,6.36193846 L14.8283067,6.0571808 L14.8737914,2.91964314 Z M13.2726627,6.85433245 L13.2726627,8.85433245 L8.38894182,8.85433245 L8.38894182,6.85433245 L13.2726627,6.85433245 Z" id="Combined-Shape"></path>
            </g>
        </g>
    </g>
</svg>