<?xml version="1.0" encoding="UTF-8"?>
<svg width="24px" height="24px" viewBox="0 0 24 24" version="1.1" xmlns="http://www.w3.org/2000/svg" xmlns:xlink="http://www.w3.org/1999/xlink">
    <!-- Generator: Sketch 50.2 (55047) - http://www.bohemiancoding.com/sketch -->
    <title>screen-24</title>
    <desc>Created with Sketch.</desc>
    <defs></defs>
    <g id="screen-24" stroke="none" stroke-width="1" fill="none" fill-rule="evenodd">
        <g transform="translate(2.000000, 4.000000)" fill="#FF0000" fill-rule="nonzero" id="Page-1">
            <path d="M18,11.5 C18,11.771 17.771,12 17.5,12 L11,12 L9,12 L2.5,12 C2.229,12 2,11.771 2,11.5 L2,2.5 C2,2.229 2.229,2 2.5,2 L17.5,2 C17.771,2 18,2.229 18,2.5 L18,11.5 Z M2.5,0 C1.122,0 0,1.122 0,2.5 L0,11.5 C0,12.878 1.122,14 2.5,14 L9,14 L9,15 L5,15 L5,17 L9,17 L11,17 L15,17 L15,15 L11,15 L11,14 L17.5,14 C18.878,14 20,12.878 20,11.5 L20,2.5 C20,1.122 18.878,0 17.5,0 L2.5,0 Z"></path>
        </g>
    </g>
</svg>