<?xml version="1.0" encoding="UTF-8"?>
<svg width="24px" height="24px" viewBox="0 0 24 24" version="1.1" xmlns="http://www.w3.org/2000/svg" xmlns:xlink="http://www.w3.org/1999/xlink">
    <!-- Generator: Sketch 50.2 (55047) - http://www.bohemiancoding.com/sketch -->
    <title>search-24</title>
    <desc>Created with Sketch.</desc>
    <defs></defs>
    <g id="search-24" stroke="none" stroke-width="1" fill="none" fill-rule="evenodd">
        <g transform="translate(3.000000, 3.000000)" fill="#FF0000" fill-rule="nonzero">
            <polygon id="Fill-1" points="16.6376172 17.9542241 12.8343414 14.1512586 14.1508241 12.8347759 17.9541 16.6377414"></polygon>
            <path d="M7.35424138,1.86206897 C4.32589655,1.86206897 1.86206897,4.32589655 1.86206897,7.35455172 C1.86206897,10.3832069 4.32589655,12.8470345 7.35424138,12.8470345 C10.3828966,12.8470345 12.8467241,10.3832069 12.8467241,7.35455172 C12.8467241,4.32589655 10.3828966,1.86206897 7.35424138,1.86206897 M7.35424138,14.7091034 C3.29927586,14.7091034 0,11.4101379 0,7.35455172 C0,3.29927586 3.29927586,0 7.35424138,0 C11.4095172,0 14.7087931,3.29927586 14.7087931,7.35455172 C14.7087931,11.4101379 11.4095172,14.7091034 7.35424138,14.7091034" id="Fill-2"></path>
        </g>
    </g>
</svg>