<?xml version="1.0" encoding="UTF-8"?>
<svg width="24px" height="24px" viewBox="0 0 24 24" version="1.1" xmlns="http://www.w3.org/2000/svg" xmlns:xlink="http://www.w3.org/1999/xlink">
    <!-- Generator: Sketch 57.1 (83088) - https://sketch.com -->
    <title>Icons/24px/refresh-24</title>
    <desc>Created with Sketch.</desc>
    <defs>
        <path d="M15,0 C17.209139,0 19,1.790861 19,4 C19,6.209139 17.209139,8 15,8 C13.8472995,8 12.8084802,7.51241678 12.078535,6.73224331 L7.879925,9.0233822 C7.95835241,9.33594897 8,9.66311083 8,10 C8,10.3368892 7.95835241,10.664051 7.879925,10.9766178 L12.0794634,13.2667647 C12.8093609,12.4871699 13.8477882,12 15,12 C17.209139,12 19,13.790861 19,16 C19,18.209139 17.209139,20 15,20 C12.790861,20 11,18.209139 11,16 C11,15.662749 11.0417371,15.3352462 11.1203278,15.0223751 L6.92146502,12.7322433 C6.19151981,13.5124168 5.15270049,14 4,14 C1.790861,14 0,12.209139 0,10 C0,7.790861 1.790861,6 4,6 C5.15221185,6 6.19063906,6.48716992 6.92053656,7.26676468 L11.120075,4.9766178 C11.0416476,4.66405103 11,4.33688917 11,4 C11,1.790861 12.790861,0 15,0 Z M15,14 C13.8954305,14 13,14.8954305 13,16 C13,17.1045695 13.8954305,18 15,18 C16.1045695,18 17,17.1045695 17,16 C17,14.8954305 16.1045695,14 15,14 Z M4,8 C2.8954305,8 2,8.8954305 2,10 C2,11.1045695 2.8954305,12 4,12 C5.1045695,12 6,11.1045695 6,10 C6,8.8954305 5.1045695,8 4,8 Z M15,2 C13.8954305,2 13,2.8954305 13,4 C13,5.1045695 13.8954305,6 15,6 C16.1045695,6 17,5.1045695 17,4 C17,2.8954305 16.1045695,2 15,2 Z" id="path-1"></path>
    </defs>
    <g id="Icons/24px/refresh-24" stroke="none" stroke-width="1" fill="none" fill-rule="evenodd">
        <g id="invisible-24">
            <rect x="0" y="0" width="24" height="24"></rect>
        </g>
        <g id="Icons/24px/share-24">
            <g>
                <rect id="invisible-24" x="0" y="0" width="24" height="24"></rect>
                <g id="outlines" transform="translate(2.000000, 2.000000)">
                    <mask id="mask-2" fill="white">
                        <use xlink:href="#path-1"></use>
                    </mask>
                    <use id="Combined-Shape" fill="#FF0000" fill-rule="nonzero" xlink:href="#path-1"></use>
                </g>
            </g>
        </g>
    </g>
</svg>