<?xml version="1.0" encoding="UTF-8"?>
<svg width="24px" height="24px" viewBox="0 0 24 24" version="1.1" xmlns="http://www.w3.org/2000/svg" xmlns:xlink="http://www.w3.org/1999/xlink">
    <!-- Generator: Sketch 54.1 (76490) - https://sketchapp.com -->
    <title>Icons/24px/shield-24</title>
    <desc>Created with Sketch.</desc>
    <g id="Icons/24px/shield-24" stroke="none" stroke-width="1" fill="none" fill-rule="evenodd">
        <g>
            <rect id="invisible-24" x="0" y="0" width="24" height="24"></rect>
            <g id="lines" transform="translate(3.000000, 2.000000)" fill="#FF0000" fill-rule="nonzero">
                <path d="M3.27272727,0 L14.7272727,0 C14.7272727,1.63636364 16.3636364,3.27272727 18,3.27272727 C18,6.54545455 18,9 18,10.6363636 C18,14.4545455 15,17.7272727 9,20.4545455 C3,17.7272727 0,14.4545455 0,10.6363636 C0,9 8.81745695e-17,6.54545455 0,3.27272727 C1.63636364,3.27272727 3.27272727,1.63636364 3.27272727,0 Z M2,4.82534882 L2,10.6363636 C2,13.3555231 4.21034519,15.9107847 9,18.2444772 C13.7896548,15.9107847 16,13.3555231 16,10.6363636 L16,4.82534882 C14.7696964,4.26581628 13.7341837,3.23030362 13.1746512,2 L4.82534882,2 C4.26581628,3.23030362 3.23030362,4.26581628 2,4.82534882 Z" id="Rectangle"></path>
                <polygon id="Path-3" points="5.42925686 7.35225046 11.1565296 13.0795232 12.5707431 11.6653096 6.84347042 5.9380369"></polygon>
                <polygon id="Path-3" points="6.84347042 13.0795232 12.5707431 7.35225046 11.1565296 5.9380369 5.42925686 11.6653096"></polygon>
            </g>
        </g>
    </g>
</svg>