<?xml version="1.0" encoding="UTF-8"?>
<svg width="24px" height="24px" viewBox="0 0 24 24" version="1.1" xmlns="http://www.w3.org/2000/svg" xmlns:xlink="http://www.w3.org/1999/xlink">
    <!-- Generator: Sketch 63.1 (92452) - https://sketch.com -->
    <title>Icons/24px/smalltruck-24</title>
    <desc>Created with Sketch.</desc>
    <g id="Icons/24px/smalltruck-24" stroke="none" stroke-width="1" fill="none" fill-rule="evenodd">
        <g>
            <rect id="invisible-24" x="0" y="0" width="24" height="24"></rect>
            <g id="lines" transform="translate(2.000000, 3.000000)" fill="#FF0000" fill-rule="nonzero">
                <path d="M15,0 L15,11 L2.219,11 L2.50027803,12.4011999 C2.89366911,12.1736755 3.34350839,12.0329162 3.82362421,12.005093 L3.99987846,12 C5.30613459,12 6.41747015,12.8348717 6.82931224,14.0001026 L13.1706795,14.0001249 C13.5825002,12.8349067 14.6937695,12 15.9998785,12 C16.7686612,12 17.4699278,12.2891814 18.0008173,12.7646957 L18,9.196 L16.71,6 L16,6 L16,4 L18.0592365,4 L20,8.80570002 L20,16 L18.8287701,16.0008344 C18.7896388,16.1114533 18.7439812,16.2197738 18.6919842,16.3253019 C18.1907839,17.3418327 17.1540158,18 15.9998785,18 C14.6941393,18 13.5831294,17.165566 13.1710294,16.0008647 L6.82877011,16.0008344 C6.7896388,16.1114533 6.74398116,16.2197738 6.69198424,16.3253019 C6.19078393,17.3418327 5.15401581,18 3.99987846,18 C2.34320574,18 1,16.6567631 1,15 L1.003,15.115 L0.18,11 L0,11 L0,0 L15,0 Z M15.9998785,14 C15.4477856,14 15,14.447796 15,15 C15,15.552204 15.4477856,16 15.9998785,16 C16.3851551,16 16.7306183,15.780691 16.8980572,15.4410928 C16.9648751,15.3054855 17,15.1563515 17,15 C17,14.4477772 16.5521956,14 15.9998785,14 Z M3.99987846,14 C3.44778562,14 3,14.447796 3,15 C3,15.552204 3.44778562,16 3.99987846,16 C4.38515511,16 4.73061834,15.780691 4.89805721,15.4410928 C4.96487506,15.3054855 5,15.1563515 5,15 C5,14.4477772 4.55219558,14 3.99987846,14 Z M13,2 L2,2 L2,9 L13,9 L13,2 Z" id="Combined-Shape"></path>
            </g>
        </g>
    </g>
</svg>