<?xml version="1.0" encoding="UTF-8"?>
<svg width="24px" height="24px" viewBox="0 0 24 24" version="1.1" xmlns="http://www.w3.org/2000/svg" xmlns:xlink="http://www.w3.org/1999/xlink">
    <!-- Generator: Sketch 60 (88103) - https://sketch.com -->
    <title>Icons/24px/snailmail-24</title>
    <desc>Created with Sketch.</desc>
    <g id="Icons/24px/snailmail-24" stroke="none" stroke-width="1" fill="none" fill-rule="evenodd">
        <g>
            <rect id="invisible-24" x="0" y="0" width="24" height="24"></rect>
            <g id="outlines" transform="translate(1.000000, 2.000000)" fill="#FF0000" fill-rule="nonzero">
                <path d="M16,-1.33226763e-14 L16,2 L14,2 L14,8.81970933 L12,8.81970933 L11.9990316,6 L8.26346696,5.99975683 C8.54008863,6.64688462 8.65534273,7.43747226 8.5986847,8.351304 L8.59803155,15.999 L18.9990316,15.999 L19,8.53517026 C18.9990772,6.69769716 18.4069165,6 17,6 L16,6 L16,4 L17,4 C19.5907163,4 20.9985556,5.65874816 21,8.53466797 L21,18 L11.9990316,17.999 L12,20 L10,20 L9.99903155,17.999 L1,18 L1,16 L6.59803155,15.999 L6.60055893,8.29010808 C6.70252477,6.62701132 6.21197186,6.01560318 4.85874578,6.00029578 L4.75303155,6 L4.64887894,6.0027292 C3.37260396,6.04846556 2.90541301,6.67526962 3,8.351304 L3,14 L1,14 L1.0016421,8.40858839 C0.850496319,5.7744053 2.06244255,4.17675735 4.40008672,4.01380838 L4.4005127,4 L4.76033448,4.0001672 C4.77549084,4.00005577 4.79068982,4 4.80593137,4 L4.85003155,4 L11.9990316,4 L12,-1.33226763e-14 L16,-1.33226763e-14 Z" id="Combined-Shape"></path>
            </g>
        </g>
    </g>
</svg>