<?xml version="1.0" encoding="UTF-8"?>
<svg width="24px" height="24px" viewBox="0 0 24 24" version="1.1" xmlns="http://www.w3.org/2000/svg" xmlns:xlink="http://www.w3.org/1999/xlink">
    <!-- Generator: Sketch 63.1 (92452) - https://sketch.com -->
    <title>Icons/24px/snowmobile-24</title>
    <desc>Created with Sketch.</desc>
    <g id="Icons/24px/snowmobile-24" stroke="none" stroke-width="1" fill="none" fill-rule="evenodd">
        <g>
            <rect id="invisible-24" x="0" y="0" width="24" height="24"></rect>
            <g id="lines" transform="translate(2.000000, 3.000000)" fill="#FF0000" fill-rule="nonzero">
                <path d="M10.7071068,0.292893219 L19.1471011,8.73288751 L17.2819462,10.6900598 L17.19,10.7748932 L18.9361073,12.5243581 C19.2384603,12.2990388 19.6122712,11.9647344 20.1113543,11.4731182 L20.2928932,11.2928932 L21.7071068,12.7071068 C20.4364159,13.9777977 19.7056636,14.5359418 18.8800123,14.8027556 C18.4324286,14.9473948 18.1050336,14.9884823 17.409456,14.9977012 L16.9906006,15 L13.0581055,15 L13.0581055,13 L16.584,12.9978932 L15.5110158,11.9263449 C15.3900083,11.9611961 15.2703634,11.9826107 15.1484891,11.9929429 L14.9972476,12.0001267 L12.9984743,11.9999988 L13.0015257,10.0000012 L14.9745681,10.0003234 L15.0078527,9.99395229 C15.081208,9.96987475 15.2324319,9.8666041 15.6270778,9.50248895 L15.8674754,9.27691999 L16.352,8.767 L13.499,5.91489322 L11.4142136,8 L3.75,8 C3.61557322,8 3.31377477,8.18915652 3.21169472,8.35968174 L3.18349348,8.42234952 L1.26029446,7.87343646 C1.5565692,6.83539359 2.63072276,6.08274659 3.59113699,6.00639606 L3.75,6 L9.585,5.99989322 L8.29289322,4.70710678 L9.70710678,3.29289322 L11.5,5.08489322 L12.085,4.49989322 L9.29289322,1.70710678 L10.7071068,0.292893219 Z M9.36938871,9 C10.8724826,9 12,10.382903 12,11.9998664 C12,13.6170406 10.8725407,15 9.36938871,15 L9.36938871,15 L2.63061129,15 C1.12762623,15 0,13.6169634 0,11.9998664 C0,10.3829802 1.12768428,9 2.63061129,9 L2.63061129,9 Z M9.36938871,11 L2.63061129,11 C2.33255306,11 2,11.4078396 2,11.9998664 C2,12.5921342 2.33254377,13 2.63061129,13 L2.63061129,13 L9.36938871,13 C9.66757441,13 10,12.5922415 10,11.9998664 C10,11.4077323 9.66756511,11 9.36938871,11 L9.36938871,11 Z" id="Combined-Shape"></path>
            </g>
        </g>
    </g>
</svg>