<?xml version="1.0" encoding="UTF-8"?>
<svg width="24px" height="24px" viewBox="0 0 24 24" version="1.1" xmlns="http://www.w3.org/2000/svg" xmlns:xlink="http://www.w3.org/1999/xlink">
    <!-- Generator: Sketch 50.2 (55047) - http://www.bohemiancoding.com/sketch -->
    <title>star-24</title>
    <desc>Created with Sketch.</desc>
    <defs>
        <polygon id="path-1" points="18 17.5934469 18 0.1004 9.05236816e-05 0.1004 9.05236816e-05 17.5934469"></polygon>
    </defs>
    <g id="star-24" stroke="none" stroke-width="1" fill="none" fill-rule="evenodd">
        <g transform="translate(3.000000, 2.500000)">
            <mask id="mask-2" fill="white">
                <use xlink:href="#path-1"></use>
            </mask>
            <g id="path-1"></g>
            <path d="M9.0002,11.9194 C9.2102,11.9194 9.4192,11.9854 9.5972,12.1164 L12.0382,13.9314 L11.0882,10.9764 C10.9562,10.5674 11.1012,10.1204 11.4472,9.8654 L13.9462,8.0244 L10.8812,8.0314 L10.8792,8.0314 C10.4432,8.0314 10.0582,7.7494 9.9262,7.3334 L9.0002,4.4114 L8.0742,7.3334 C7.9422,7.7504 7.5562,8.0234 7.1192,8.0314 L4.0542,8.0244 L6.5532,9.8654 C6.8992,10.1204 7.0442,10.5674 6.9122,10.9764 L5.9622,13.9314 L8.4032,12.1164 C8.5812,11.9854 8.7902,11.9194 9.0002,11.9194 M13.9442,17.5934 C13.7342,17.5934 13.5242,17.5274 13.3482,17.3964 L9.0002,14.1654 L4.6522,17.3964 C4.3042,17.6544 3.8252,17.6604 3.4742,17.4064 C3.1202,17.1534 2.9712,16.7014 3.1042,16.2874 L4.7882,11.0494 L0.4072,7.8234 C0.0592,7.5664 -0.0848,7.1154 0.0502,6.7054 C0.1862,6.2944 0.5682,6.0184 1.0002,6.0184 L1.0022,6.0184 L6.3902,6.0304 L8.0472,0.7984 C8.1792,0.3824 8.5642,0.1004 9.0002,0.1004 C9.4362,0.1004 9.8212,0.3824 9.9532,0.7984 L11.6102,6.0304 L16.9982,6.0184 L17.0002,6.0184 C17.4322,6.0184 17.8142,6.2944 17.9502,6.7054 C18.0852,7.1154 17.9412,7.5664 17.5932,7.8234 L13.2122,11.0494 L14.8962,16.2874 C15.0292,16.7014 14.8802,17.1534 14.5262,17.4064 C14.3532,17.5314 14.1482,17.5934 13.9442,17.5934" id="Fill-1" fill="#FF0000" fill-rule="nonzero" mask="url(#mask-2)"></path>
        </g>
    </g>
</svg>