<?xml version="1.0" encoding="UTF-8"?>
<svg width="24px" height="24px" viewBox="0 0 24 24" version="1.1" xmlns="http://www.w3.org/2000/svg" xmlns:xlink="http://www.w3.org/1999/xlink">
    <!-- Generator: Sketch 61.1 (89650) - https://sketch.com -->
    <title>Icons/24px/sustainability-24</title>
    <desc>Created with Sketch.</desc>
    <g id="Icons/24px/sustainability-24" stroke="none" stroke-width="1" fill="none" fill-rule="evenodd">
        <g>
            <rect id="invisible-24" x="0" y="0" width="24" height="24"></rect>
            <g id="outlines" transform="translate(1.000000, 1.000000)" fill="#FF0000" fill-rule="nonzero">
                <path d="M20.2265103,0.500402993 L20.376654,1.89278966 C20.7918852,5.74351876 21,8.74573144 21,10.9090909 C21,14.2843933 17.8853654,17 15.0593408,17 C13.9903183,17 13.0292712,16.7309711 12.1984282,16.1992698 L8.84667708,21.5321071 L7.15332292,20.4678929 L8.34945257,18.562403 L8.24445226,18.6550936 L3.9092292,13.6550936 L5.42032467,12.3449064 L5.75431066,12.7291909 C5.67399176,12.3796038 5.49561317,11.9977547 5.19740105,11.596519 C4.58395009,10.7711386 3.74822047,10.0564423 2.68225286,9.45445806 C2.15471899,11.9442715 2.23170648,13.6111517 2.81126811,14.4153257 C3.15037326,14.8858529 3.61277545,15.0240857 4.41405078,14.823929 L4.89875252,16.7643063 C3.34518086,17.1523849 2.03664862,16.7612059 1.18873189,15.5846743 C0.0692180856,14.0312867 0.0692180856,11.4392426 1.03239052,7.74754823 L1.32796759,6.61464597 L2.40069287,7.08378756 C4.30085105,7.91479553 5.77421192,9.01981618 6.80259895,10.403481 C7.91579901,11.9012593 8.03934301,13.4870796 7.45768912,14.6946495 L9.38445257,16.916403 L12.8014526,11.478403 L11.127494,8.48860337 L12.872506,7.51139663 L14.0134526,9.54940299 L15.5650876,7.08327755 L17.2584418,8.14749168 L15.7334526,10.571403 L18,10.5714286 L18,12.5714286 L14.4764526,12.571403 L13.262167,14.5054021 C13.7745198,14.8372946 14.366022,15 15.0593408,15 C16.8371122,15 19,13.1142081 19,10.9090909 C19,9.09353148 18.8447337,6.62359036 18.5335363,3.50570255 C14.7847258,5.28512162 12.3607693,6.55182041 11.3024796,7.27880258 C9.83598319,8.28619851 9.51574435,10.7610304 10.8362987,12.121744 L9.40106441,13.5146197 C7.19776619,11.2443172 7.70510549,7.32355759 10.1700483,5.63028833 C11.4667344,4.73954198 14.3775852,3.23985578 18.9582669,1.09440837 L20.2265103,0.500402993 Z" id="Combined-Shape"></path>
            </g>
        </g>
    </g>
</svg>