<?xml version="1.0" encoding="UTF-8"?>
<svg width="24px" height="24px" viewBox="0 0 24 24" version="1.1" xmlns="http://www.w3.org/2000/svg" xmlns:xlink="http://www.w3.org/1999/xlink">
    <!-- Generator: Sketch 50.2 (55047) - http://www.bohemiancoding.com/sketch -->
    <title>tag-24</title>
    <desc>Created with Sketch.</desc>
    <defs></defs>
    <g id="tag-24" stroke="none" stroke-width="1" fill="none" fill-rule="evenodd">
        <g id="tag-20" transform="translate(2.500000, 2.500000)" fill="#FF0000" fill-rule="nonzero">
            <path d="M2.91425,10.504 L8.50025,16.09 L16.50425,8.087 L16.50025,4.919 L14.08525,2.504 L10.91825,2.501 L2.91425,10.504 Z M8.50025,18.504 C8.24425,18.504 7.98825,18.406 7.79325,18.211 L0.79325,11.211 C0.40225,10.82 0.40225,10.188 0.79325,9.797 L9.79725,0.793 C9.98425,0.606 10.23825,0.5 10.50425,0.5 L10.50525,0.5 L14.50125,0.504 C14.76625,0.504 15.01925,0.609 15.20725,0.797 L18.20725,3.797 C18.39425,3.984 18.50025,4.238 18.50025,4.503 L18.50425,8.499 C18.50425,8.765 18.39825,9.02 18.21125,9.207 L9.20725,18.211 C9.01225,18.406 8.75625,18.504 8.50025,18.504 Z" id="Fill-1"></path>
            <path d="M12.5,8.5 C11.855,8.5 11.339,8.242 10.952,7.79 C10.823,7.661 10.693,7.468 10.629,7.274 C10.5,7.016 10.5,6.758 10.5,6.5 C10.5,5.403 11.403,4.5 12.5,4.5 C13.597,4.5 14.5,5.403 14.5,6.5 C14.5,7.597 13.597,8.5 12.5,8.5" id="Fill-4"></path>
        </g>
    </g>
</svg>