<?xml version="1.0" encoding="UTF-8"?>
<svg width="24px" height="24px" viewBox="0 0 24 24" version="1.1" xmlns="http://www.w3.org/2000/svg" xmlns:xlink="http://www.w3.org/1999/xlink">
    <!-- Generator: Sketch 50.2 (55047) - http://www.bohemiancoding.com/sketch -->
    <title>text-1-round-24</title>
    <desc>Created with Sketch.</desc>
    <defs></defs>
    <g id="text-1-round-24" stroke="none" stroke-width="1" fill="none" fill-rule="evenodd">
        <g id="text-1-round-20" transform="translate(3.000000, 3.000000)" fill="#FF0000" fill-rule="nonzero">
            <path d="M9,16 C5.14,16 2,12.86 2,9 C2,5.14 5.14,2 9,2 C12.86,2 16,5.14 16,9 C16,12.86 12.86,16 9,16 M9,0 C4.038,0 0,4.038 0,9 C0,13.962 4.038,18 9,18 C13.962,18 18,13.962 18,9 C18,4.038 13.962,0 9,0" id="Fill-1"></path>
            <polygon id="Fill-3" points="9.9263 4.7046 7.2883 4.7046 7.2883 6.1076 8.2953 6.1076 8.2953 11.7216 7.1443 11.7216 7.1443 13.1006 11.1133 13.1006 11.1133 11.7216 9.9263 11.7216"></polygon>
        </g>
    </g>
</svg>