<?xml version="1.0" encoding="UTF-8"?>
<svg width="24px" height="24px" viewBox="0 0 24 24" version="1.1" xmlns="http://www.w3.org/2000/svg" xmlns:xlink="http://www.w3.org/1999/xlink">
    <!-- Generator: Sketch 63.1 (92452) - https://sketch.com -->
    <title>Icons/24px/tractor-24</title>
    <desc>Created with Sketch.</desc>
    <g id="Icons/24px/tractor-24" stroke="none" stroke-width="1" fill="none" fill-rule="evenodd">
        <g>
            <rect id="invisible-24" x="0" y="0" width="24" height="24"></rect>
            <g id="outlines" transform="translate(0.000000, 2.000000)" fill="#FF0000" fill-rule="nonzero">
                <path d="M7.30882353,11.7352941 C9.5585717,11.7352941 11.3823529,13.5590754 11.3823529,15.8088235 C11.3823529,18.0585717 9.5585717,19.8823529 7.30882353,19.8823529 C5.05907536,19.8823529 3.23529412,18.0585717 3.23529412,15.8088235 C3.23529412,13.5590754 5.05907536,11.7352941 7.30882353,11.7352941 Z M15.8,7.99360578e-14 C17.0491518,7.99360578e-14 18.1703932,0.714856112 18.708557,1.81730261 C18.8868433,2.18252807 18.9948865,2.57871227 19.0259486,2.98816892 L19.0352941,3.23529412 L19.0347161,7 L21.0029617,7 L21.0033422,14.3113223 C21.6175802,14.9001812 22,15.7289605 22,16.6470588 C22,18.4338624 20.5515095,19.8823529 18.7647059,19.8823529 C16.9779023,19.8823529 15.5294118,18.4338624 15.5294118,16.6470588 C15.5294118,14.8602552 16.9779023,13.4117647 18.7647059,13.4117647 C18.8450423,13.4117647 18.9246947,13.4146928 19.0035624,13.4204481 L19.002,9 L14.5005191,9 L11.451,3.117 L4.941,3.117 L4.94095358,8.87625594 C5.67161096,8.63098401 6.44931868,8.5 7.25,8.5 C10.7553129,8.5 13.7310628,11.0030023 14.3729367,14.3923516 L14.4139092,14.6302356 L12.4375746,14.9369951 C12.0435417,12.3983915 9.84701933,10.5 7.25,10.5 C5.39022952,10.5 3.70283285,11.474694 2.75981505,13.0276967 L2.64108117,13.2335093 L0.886716113,12.2731952 C1.40002888,11.3354416 2.10479962,10.5366219 2.94047546,9.91872646 L2.94130838,1.11764706 L12.6667841,1.11764706 L15.717,7 L17.0347161,7 L17.0352941,3.23529412 C17.0352941,3.04415559 16.9925464,2.86115939 16.9112675,2.69465685 C16.7259266,2.31497986 16.3608156,2.0560494 15.9415782,2.00806008 L15.8,2 L15.8,7.99360578e-14 Z M7.30882353,13.7352941 C6.16364486,13.7352941 5.23529412,14.6636449 5.23529412,15.8088235 C5.23529412,16.9540022 6.16364486,17.8823529 7.30882353,17.8823529 C8.4540022,17.8823529 9.38235294,16.9540022 9.38235294,15.8088235 C9.38235294,14.6636449 8.4540022,13.7352941 7.30882353,13.7352941 Z M18.7647059,15.4117647 C18.0824718,15.4117647 17.5294118,15.9648247 17.5294118,16.6470588 C17.5294118,17.3292929 18.0824718,17.8823529 18.7647059,17.8823529 C19.44694,17.8823529 20,17.3292929 20,16.6470588 C20,15.9648247 19.44694,15.4117647 18.7647059,15.4117647 Z" id="Combined-Shape"></path>
            </g>
        </g>
    </g>
</svg>