<?xml version="1.0" encoding="UTF-8"?>
<svg width="24px" height="24px" viewBox="0 0 24 24" version="1.1" xmlns="http://www.w3.org/2000/svg" xmlns:xlink="http://www.w3.org/1999/xlink">
    <!-- Generator: Sketch 60 (88103) - https://sketch.com -->
    <title>Icons/24px/travel-24</title>
    <desc>Created with Sketch.</desc>
    <defs>
        <path d="M17.6642933,11.2606477 L21.2625667,12.0123345 L21.3652624,12.5747832 C21.5567383,13.6234674 21.1382854,14.5257972 20.2070756,15.1427181 L20.0972539,15.2154743 L15.7201689,16.4627051 L12.90112,19.5065867 L8.7330919,20.832724 L9.36143509,18.3231275 L4.31136323,18.3231275 L0.312859167,14.656179 L4.74637515,13.3648712 L6.73744391,14.479051 L7.60885917,14.222 L6.24037406,13.0122673 L9.63692004,12.0156793 L12.9318592,12.654 L17.6642933,11.2606477 Z M17.734827,13.0120803 L6.53154831,16.3119033 L4.5378434,15.1962484 L3.68714083,15.4440244 L4.97285532,16.6231275 L8.98723948,16.6231275 L9.89914618,16.1755147 L9.9399324,16.1554947 L9.95484743,16.1858806 L11.5490859,16.5850399 L11.1225828,18.2884893 L11.9584822,18.022532 L14.7964199,14.9582552 L19.3668007,13.6559456 C19.4762074,13.573314 19.5570027,13.4911209 19.6126795,13.4043676 L17.734827,13.0120803 Z M9.69495694,13.2492386 L8.66250106,13.5521738 L8.96685917,13.822 L10.4288592,13.391 L9.69495694,13.2492386 Z M13.4457074,9.16161644 C14.2343868,9.16161644 14.8737378,9.8009674 14.8737378,10.5896468 C14.8737378,11.3783261 14.2343868,12.0176771 13.4457074,12.0176771 C12.6570281,12.0176771 12.0176771,11.3783261 12.0176771,10.5896468 C12.0176771,9.8009674 12.6570281,9.16161644 13.4457074,9.16161644 Z M13.4457074,10.1616164 C13.2093128,10.1616164 13.0176771,10.3532521 13.0176771,10.5896468 C13.0176771,10.8260414 13.2093128,11.0176771 13.4457074,11.0176771 C13.6821021,11.0176771 13.8737378,10.8260414 13.8737378,10.5896468 C13.8737378,10.3532521 13.6821021,10.1616164 13.4457074,10.1616164 Z M9.11489922,5.818182 C10.3833411,5.818182 11.4116164,6.84645732 11.4116164,8.11489922 C11.4116164,9.38334111 10.3833411,10.4116164 9.11489922,10.4116164 C7.84645732,10.4116164 6.818182,9.38334111 6.818182,8.11489922 C6.818182,6.84645732 7.84645732,5.818182 9.11489922,5.818182 Z M7.47484241,0 C9.19516328,0 10.6423348,1.16949138 11.0646952,2.75681231 C12.6739881,3.01363676 13.9037964,4.40802202 13.9037964,6.0896444 C13.9037964,6.73618718 13.7207031,7.3581803 13.3815352,7.89373488 L11.6918733,6.8236682 C11.8297914,6.60589202 11.9037964,6.35448686 11.9037964,6.0896444 C11.9037964,5.33016043 11.288113,4.71447702 10.5286291,4.71447702 L9.18931943,4.71447702 L9.18931943,3.71447702 C9.18931943,2.76759751 8.42172192,2 7.47484241,2 C6.5279629,2 5.7603654,2.76759751 5.7603654,3.71447702 L5.7603654,4.71697786 L4.75786768,4.7144739 C4.00020983,4.71258147 3.38519801,5.32700729 3.38519801,6.08636797 C3.38519801,6.84585194 4.00088142,7.46153535 4.7603654,7.46153535 L6.06374413,7.46153535 L6.06374413,9.46153535 L4.7603654,9.46153535 C2.89631192,9.46153535 1.38519801,7.95042144 1.38519801,6.08636797 C1.38519801,4.53188102 2.4359705,3.22316355 3.86558883,2.83298323 C4.26131378,1.20704706 5.72711762,0 7.47484241,0 Z M9.11489922,7.318182 C8.67488445,7.318182 8.318182,7.67488445 8.318182,8.11489922 C8.318182,8.55491399 8.67488445,8.91161644 9.11489922,8.91161644 C9.55491399,8.91161644 9.91161644,8.55491399 9.91161644,8.11489922 C9.91161644,7.67488445 9.55491399,7.318182 9.11489922,7.318182 Z" id="path-1"></path>
    </defs>
    <g id="Icons/24px/travel-24" stroke="none" stroke-width="1" fill="none" fill-rule="evenodd">
        <g>
            <rect id="invisible-24" x="0" y="0" width="24" height="24"></rect>
            <g id="outlines" transform="translate(0.590074, 1.402557)">
                <mask id="mask-2" fill="white">
                    <use xlink:href="#path-1"></use>
                </mask>
                <use id="Combined-Shape" fill="#FF0000" fill-rule="nonzero" xlink:href="#path-1"></use>
            </g>
        </g>
    </g>
</svg>