<?xml version="1.0" encoding="UTF-8"?>
<svg width="24px" height="24px" viewBox="0 0 24 24" version="1.1" xmlns="http://www.w3.org/2000/svg" xmlns:xlink="http://www.w3.org/1999/xlink">
    <!-- Generator: Sketch 50.2 (55047) - http://www.bohemiancoding.com/sketch -->
    <title>umbrella-24</title>
    <desc>Created with Sketch.</desc>
    <defs></defs>
    <g id="umbrella-24" stroke="none" stroke-width="1" fill="none" fill-rule="evenodd">
        <g transform="translate(3.000000, 2.000000)" fill="#FF0000" fill-rule="nonzero" id="Fill-1">
            <path d="M9,7.8141 C8.071,6.9031 6.819,6.3711 5.5,6.3711 C4.0625,6.3711 3.0625,6.84375 2.390625,7.328125 C2.44270833,7.11979167 2.51616667,6.92611667 2.611,6.7471 C3.583,4.7281 6.613,3.3351 8.954,3.3351 C11.274,3.3351 14.34,4.7371 15.349,6.7311 C15.4600833,6.9312 15.5598958,7.13020833 15.6484375,7.328125 C14.921875,6.7471 13.6484375,6.3711 12.5,6.3711 C11.181,6.3711 9.929,6.9031 9,7.8141 Z M10,0.0001 L8,0.0001 L8,1.3991 C4.063,1.8821 0,5.3021 0,9.4421 C0,9.8961 0.306,10.2931 0.746,10.4091 C0.831,10.4311 0.916,10.4421 1,10.4421 C1.354,10.4421 1.69,10.2531 1.871,9.9341 C2.407,8.9841 4.439,8.3711 5.5,8.3711 C6.522,8.3711 7.432,8.8961 8,9.7601 L8,17.0001 C8,17.2931 7.776,17.5311 7.5,17.5311 C7.224,17.5311 7,17.2931 7,17.0001 L5,17.0001 C5,18.3951 6.122,19.5311 7.5,19.5311 C8.825,19.5311 9.902,18.4781 9.984,17.1571 L10,9.7371 C10.562,8.9031 11.516,8.3711 12.5,8.3711 C13.594,8.3711 15.577,8.9551 16.129,9.9331 C16.353,10.3291 16.813,10.5211 17.254,10.4091 C17.693,10.2931 18,9.8961 18,9.4421 C18,5.3301 13.943,1.9311 10,1.4121 L10,0.0001 Z"></path>
        </g>
    </g>
</svg>