<svg width="24" height="24" viewBox="0 0 24 24" fill="none" xmlns="http://www.w3.org/2000/svg">
<path fill-rule="evenodd" clip-rule="evenodd" d="M6 10C6 6.68629 8.68629 4 12 4C13.4282 4 15.4704 4.46058 16.7 6.1L18.3 4.9C16.5296 2.53942 13.7241 2 12 2C7.58172 2 4 5.58172 4 10C4 11.6267 4.48551 13.14 5.31953 14.4029C4.38844 14.7381 3.64435 15.2076 3.09292 15.8345C2.27182 16.7679 2 17.9101 2 19.0835V22.0002H4V19.0835C4 18.2153 4.19693 17.6075 4.59458 17.1555C4.9677 16.7313 5.61893 16.3286 6.77426 16.0575C8.1761 17.268 10.0026 18 12 18C13.9974 18 15.8239 17.268 17.2257 16.0575C18.3811 16.3286 19.0323 16.7313 19.4054 17.1555C19.8031 17.6075 20 18.2153 20 19.0835V22.0002H22V19.0835C22 17.9101 21.7282 16.7679 20.9071 15.8345C20.3556 15.2076 19.6116 14.7381 18.6805 14.4029C19.5145 13.14 20 11.6267 20 10C20 9.45336 19.945 8.91853 19.84 8.40107L19.6774 7.6H13.4L13.2015 7.6002C12.5386 7.60124 12.2381 7.60171 11.9458 7.47384C11.6915 7.36257 11.3053 7.07457 10.7944 6.05279L9.00557 6.94721C9.61468 8.16543 10.2785 8.92743 11.1442 9.30616C11.8511 9.61544 12.605 9.60757 13.1818 9.60155H13.1819C13.2578 9.60076 13.3307 9.6 13.4 9.6H17.9869C17.9956 9.73211 18 9.86549 18 10C18 13.3137 15.3137 16 12 16C8.68629 16 6 13.3137 6 10Z" fill="#FF0000"/>
</svg>
