<?xml version="1.0" encoding="UTF-8"?>
<svg width="24px" height="24px" viewBox="0 0 24 24" version="1.1" xmlns="http://www.w3.org/2000/svg" xmlns:xlink="http://www.w3.org/1999/xlink">
    <!-- Generator: Sketch 61.2 (89653) - https://sketch.com -->
    <title>Icons/24px/user-happy-24</title>
    <desc>Created with Sketch.</desc>
    <defs>
        <path d="M9.99388587,0 C12.8244662,0 15.4673445,1.18430945 17.3472054,3.22576919 L15.8759605,4.58055267 C14.3709338,2.94614914 12.2595287,2 9.99388587,2 C5.57898461,2 2,5.57898461 2,9.99388587 C2,14.4087871 5.57898461,17.9877717 9.99388587,17.9877717 C14.4087871,17.9877717 17.9877717,14.4087871 17.9877717,9.99388587 C17.9877717,9.18888169 17.8690413,8.40136315 17.6388203,7.64961467 L11.4928668,7.64961467 C9.04189901,7.64961467 6.41494763,6.23530106 5.67910687,4.22734346 L7.55698351,3.53917246 C7.96737779,4.65905376 9.80724933,5.64961467 11.4928668,5.64961467 L19.0219928,5.64961467 L19.2736833,6.27758279 C19.7433857,7.44949089 19.9877717,8.70555262 19.9877717,9.99388587 C19.9877717,15.5133566 15.5133566,19.9877717 9.99388587,19.9877717 C4.47441511,19.9877717 0,15.5133566 0,9.99388587 C0,4.47441511 4.47441511,0 9.99388587,0 Z M13.004481,12.9886337 L14.4223929,14.3991392 C13.2582304,15.5694146 11.677964,16.2403193 9.99388587,16.2403193 C8.31325735,16.2403193 6.73594525,15.5721714 5.57234213,14.4061281 L6.98803619,12.9933966 C7.78016911,13.7871907 8.84988023,14.2403193 9.99388587,14.2403193 C11.1402344,14.2403193 12.2119595,13.7853166 13.004481,12.9886337 Z M12.9918478,8.25 C14.2339257,8.25 15.2408288,9.25690308 15.2408288,10.498981 L13.7408288,10.498981 C13.7408288,10.0853302 13.4054986,9.75 12.9918478,9.75 C12.5781971,9.75 12.2428668,10.0853302 12.2428668,10.498981 L10.7428668,10.498981 C10.7428668,9.25690308 11.7497699,8.25 12.9918478,8.25 Z M6.99592391,8.25 C8.23800181,8.25 9.24490489,9.25690308 9.24490489,10.498981 L7.74490489,10.498981 C7.74490489,10.0853302 7.40957469,9.75 6.99592391,9.75 C6.58227314,9.75 6.24694293,10.0853302 6.24694293,10.498981 L4.74694293,10.498981 C4.74694293,9.25690308 5.75384602,8.25 6.99592391,8.25 Z" id="path-1"></path>
    </defs>
    <g id="Icons/24px/user-happy-24" stroke="none" stroke-width="1" fill="none" fill-rule="evenodd">
        <g>
            <rect id="invisible-24" x="0" y="0" width="24" height="24"></rect>
            <g id="outlines" transform="translate(2.000000, 2.000000)">
                <mask id="mask-2" fill="white">
                    <use xlink:href="#path-1"></use>
                </mask>
                <use id="Combined-Shape" fill="#FF0000" fill-rule="nonzero" xlink:href="#path-1"></use>
            </g>
        </g>
    </g>
</svg>