<?xml version="1.0" encoding="UTF-8"?>
<svg width="24px" height="24px" viewBox="0 0 24 24" version="1.1" xmlns="http://www.w3.org/2000/svg" xmlns:xlink="http://www.w3.org/1999/xlink">
    <!-- Generator: Sketch 60 (88103) - https://sketch.com -->
    <title>Icons/24px/user-24</title>
    <desc>Created with Sketch.</desc>
    <defs>
        <path d="M8.72293828,3.51042649 C11.1934389,3.51042649 13.5003975,4.54420583 15.1410952,6.32594304 L13.6698502,7.68072652 C12.4039869,6.30604552 10.6285014,5.51042649 8.72293828,5.51042649 C5.00996199,5.51042649 2,8.52038848 2,12.2333648 C2,15.946341 5.00996199,18.956303 8.72293828,18.956303 C12.4359146,18.956303 15.4458766,15.946341 15.4458766,12.2333648 C15.4458766,11.5918027 15.3562517,10.9635834 15.1821809,10.3616805 L10.0100947,10.3616805 C7.85140222,10.3616805 5.54005957,9.11728624 4.88520742,7.33032984 L6.76308406,6.64215885 C7.09248973,7.54103894 8.61675253,8.36168055 10.0100947,8.36168055 L16.5708637,8.36168055 L16.8225543,8.98964867 C17.2325547,10.0126002 17.4458766,11.1090027 17.4458766,12.2333648 C17.4458766,17.0509105 13.5404841,20.956303 8.72293828,20.956303 C3.90539249,20.956303 0,17.0509105 0,12.2333648 C0,7.41581898 3.90539249,3.51042649 8.72293828,3.51042649 Z M10.5305782,14.9835652 L11.8298954,16.5040173 C10.9443649,17.2607561 9.8577333,17.6814322 8.71199346,17.6814322 C7.57814915,17.6814322 6.50195968,17.2694474 5.62113319,16.5269685 L6.91014627,14.9977709 C7.43825614,15.4429328 8.06126577,15.6814322 8.71199346,15.6814322 C9.3696668,15.6814322 9.99907903,15.437763 10.5305782,14.9835652 Z M11.5312795,10.7812795 C12.720995,10.7812795 13.6854501,11.7457345 13.6854501,12.9354501 L12.1854501,12.9354501 C12.1854501,12.5741616 11.8925679,12.2812795 11.5312795,12.2812795 C11.169991,12.2812795 10.8771089,12.5741616 10.8771089,12.9354501 L9.37710887,12.9354501 C9.37710887,11.7457345 10.3415639,10.7812795 11.5312795,10.7812795 Z M5.91459708,10.7812795 C7.10431265,10.7812795 8.06876768,11.7457345 8.06876768,12.9354501 L6.56876768,12.9354501 C6.56876768,12.5741616 6.27588553,12.2812795 5.91459708,12.2812795 C5.55330864,12.2812795 5.26042649,12.5741616 5.26042649,12.9354501 L3.76042649,12.9354501 C3.76042649,11.7457345 4.72488152,10.7812795 5.91459708,10.7812795 Z M19.4666328,5.03781974 L20.2772534,6.86617805 L17.5815601,8.06134026 L16.7709394,6.23298195 L19.4666328,5.03781974 Z M17.1686306,2.37436007 L18.5314637,3.83815172 L16.4534957,5.77280103 L15.0906626,4.30900939 L17.1686306,2.37436007 Z M14.1434127,0.559871991 L15.9165286,1.4851071 L14.5523812,4.09935217 L12.7792653,3.17411706 L14.1434127,0.559871991 Z" id="path-1"></path>
    </defs>
    <g id="Icons/24px/user-24" stroke="none" stroke-width="1" fill="none" fill-rule="evenodd">
        <g>
            <rect id="invisible-24" x="0" y="0" width="24" height="24"></rect>
            <g id="outlines" transform="translate(2.000000, 1.000000)">
                <mask id="mask-2" fill="white">
                    <use xlink:href="#path-1"></use>
                </mask>
                <use id="Combined-Shape" fill="#FF0000" fill-rule="nonzero" xlink:href="#path-1"></use>
            </g>
        </g>
    </g>
</svg>