<?xml version="1.0" encoding="UTF-8"?>
<svg width="24px" height="24px" viewBox="0 0 24 24" version="1.1" xmlns="http://www.w3.org/2000/svg" xmlns:xlink="http://www.w3.org/1999/xlink">
    <!-- Generator: Sketch 50.2 (55047) - http://www.bohemiancoding.com/sketch -->
    <title>wallet-minus-24</title>
    <desc>Created with Sketch.</desc>
    <defs></defs>
    <g id="wallet-minus-24" stroke="none" stroke-width="1" fill="none" fill-rule="evenodd">
        <g transform="translate(1.000000, 3.000000)" fill="#FF0000" fill-rule="nonzero">
            <path d="M1.99999995,13 C1.99999995,10.794 3.79399995,9 5.99999995,9 C8.20599995,9 10,10.794 10,13 C10,15.206 8.20599995,17 5.99999995,17 C3.79399995,17 1.99999995,15.206 1.99999995,13 Z M21,6 L20,6 L20,3 L5.99999995,3 L5.99999995,5 L18,5 L18,6 L17,6 L17,8 L19,8 L19,10 L17,10 L17,12 L18,12 L18,13 L12,13 C12,9.691 9.309,7 5.99999995,7 C5.65899995,7 5.32599995,7.035 4.99999995,7.09 L4.99999995,2.89 C4.99999995,2.399 5.39899995,2 5.88999995,2 L18,2 L18,0 L5.88999995,0 C4.29599995,0 2.99999995,1.296 2.99999995,2.89 L2.99999995,7.812 C1.20999995,8.851 -4.80004019e-08,10.785 -4.80004019e-08,13 C-4.80004019e-08,16.309 2.69099995,19 5.99999995,19 C8.60699995,19 10.824,17.327 11.65,15 L20,15 L20,12 L21,12 L21,6 Z" id="Fill-1"></path>
            <polygon id="Fill-3" points="2.99999995 12 2.99999995 14 8.99999995 14 8.99999995 12"></polygon>
        </g>
    </g>
</svg>