<?xml version="1.0" encoding="UTF-8"?>
<svg width="24px" height="24px" viewBox="0 0 24 24" version="1.1" xmlns="http://www.w3.org/2000/svg" xmlns:xlink="http://www.w3.org/1999/xlink">
    <!-- Generator: Sketch 50.2 (55047) - http://www.bohemiancoding.com/sketch -->
    <title>wallet-24</title>
    <desc>Created with Sketch.</desc>
    <defs></defs>
    <g id="wallet-24" stroke="none" stroke-width="1" fill="none" fill-rule="evenodd">
        <g transform="translate(3.000000, 4.000000)" fill="#FF0000" fill-rule="nonzero" id="Page-1">
            <path d="M19,6 L18,6 L18,3 L3,3 L3,5 L16,5 L16,6 L14,6 L14,8 L17,8 L17,10 L14,10 L14,12 L16,12 L16,14 L2.89,14 C2.399,14 2,13.601 2,13.11 L2,2.89 C2,2.399 2.399,2 2.89,2 L16,2 L16,0 L2.89,0 C1.296,0 0,1.296 0,2.89 L0,13.11 C0,14.704 1.296,16 2.89,16 L18,16 L18,12 L19,12 L19,6 Z"></path>
        </g>
    </g>
</svg>