<svg width="24" height="24" viewBox="0 0 24 24" fill="none" xmlns="http://www.w3.org/2000/svg">
<g clip-path="url(#clip0_2_36)">
<path fill-rule="evenodd" clip-rule="evenodd" d="M11.1299 3.50974L2.12988 19.5097C1.75492 20.1763 2.23663 21 3.00146 21H21.0015C21.7663 21 22.248 20.1763 21.873 19.5097L12.873 3.50974C12.4907 2.83009 11.5122 2.83009 11.1299 3.50974ZM12.0015 6.03973L19.2916 19H4.7113L12.0015 6.03973ZM13 17C13 17.5523 12.5523 18 12 18C11.4477 18 11 17.5523 11 17C11 16.4477 11.4477 16 12 16C12.5523 16 13 16.4477 13 17ZM12 10C11.4477 10 11 10.4477 11 11V14C11 14.5523 11.4477 15 12 15C12.5523 15 13 14.5523 13 14V11C13 10.4477 12.5523 10 12 10Z" fill="#FF0000"/>
</g>
<defs>
<clipPath id="clip0_2_36">
<rect width="24" height="24" fill="white"/>
</clipPath>
</defs>
</svg>
