<svg width="21" height="18" viewBox="0 0 21 18" fill="none" xmlns="http://www.w3.org/2000/svg">
<path fill-rule="evenodd" clip-rule="evenodd" d="M9.12988 0.509739L0.12988 16.5097C-0.245085 17.1763 0.236629 18 1.00146 18H19.0015C19.7663 18 20.248 17.1763 19.873 16.5097L10.873 0.509739C10.4907 -0.169913 9.51218 -0.169913 9.12988 0.509739ZM10.0015 3.03973L17.2916 16H2.7113L10.0015 3.03973ZM11 14C11 14.5523 10.5523 15 10 15C9.44771 15 9 14.5523 9 14C9 13.4477 9.44771 13 10 13C10.5523 13 11 13.4477 11 14ZM10 7C9.44771 7 9 7.44772 9 8V11C9 11.5523 9.44771 12 10 12C10.5523 12 11 11.5523 11 11V8C11 7.44772 10.5523 7 10 7Z" fill="#FF0000"/>
</svg>
