<svg width="84" height="50" xmlns="http://www.w3.org/2000/svg" xmlns:xlink="http://www.w3.org/1999/xlink"><defs><path id="a" d="M17 24v7h-7v-7z"/></defs><g fill="none" fill-rule="evenodd"><path d="M0 0h84v50H0z"/><path d="M21 10h40v40H21z"/><path d="M26 48V25M56 25v23M42 46V34h10v12" stroke="#005AA0" stroke-width="2"/><path stroke="#0059A0" stroke-width="2" d="M47 24l-6-5-6 5"/><path stroke="#005AA0" stroke-width="2" d="M59 28L41 13 23 28M39 47h20M23 47h11"/><g transform="translate(21 10)"><use stroke="#979797" xlink:href="#a"/><use stroke="#005AA0" stroke-width="2" xlink:href="#a"/></g><path d="M61 3.795l.905-.822a3.77 3.77 0 015.069 0h0a3.108 3.108 0 010 4.603L61 13l-5.974-5.424a3.108 3.108 0 010-4.603h0a3.77 3.77 0 015.07 0l.904.822z" stroke="#E30613" stroke-width="2"/></g></svg>