<svg width="84" height="50" xmlns="http://www.w3.org/2000/svg" xmlns:xlink="http://www.w3.org/1999/xlink"><defs><path id="a" d="M17 24v7h-7v-7z"/><path id="b" d="M17 24v7h-7v-7z"/></defs><g fill="none" fill-rule="evenodd"><g fill-rule="nonzero" stroke="#E30613" stroke-width="2"><path d="M45 8.795l.905-.822a3.77 3.77 0 015.069 0h0a3.108 3.108 0 010 4.603L45 18l-5.974-5.424a3.108 3.108 0 010-4.603h0a3.77 3.77 0 015.07 0l.904.822z"/><path d="M38.33 10.838L36 13l-5.964-5.429c-1.345-1.225-1.386-3.25-.09-4.521l.09-.086c1.413-1.285 3.648-1.285 5.06 0l.904.823.903-.823c1.413-1.285 3.648-1.285 5.06 0 .977.89 1.266 2.2.856 3.338"/></g><path d="M0 10h40v40H0z"/><path d="M5 48V25M35 25v23M21 46V34h10v12" stroke="#005AA0" stroke-width="2"/><path stroke="#0059A0" stroke-width="2" d="M26 24l-6-5-6 5"/><path stroke="#005AA0" stroke-width="2" d="M38 28L20 13 2 28M18 47h20M2 47h11"/><g transform="translate(0 10)"><use stroke="#979797" xlink:href="#a"/><use stroke="#005AA0" stroke-width="2" xlink:href="#a"/></g><g><path d="M44 10h40v40H44z"/><path d="M49 48V25M79 25v23M65 46V34h10v12" stroke="#005AA0" stroke-width="2"/><path stroke="#0059A0" stroke-width="2" d="M70 24l-6-5-6 5"/><path stroke="#005AA0" stroke-width="2" d="M82 28L64 13 46 28M62 47h20M46 47h11"/><g transform="translate(44 10)"><use stroke="#979797" xlink:href="#b"/><use stroke="#005AA0" stroke-width="2" xlink:href="#b"/></g></g></g></svg>