<svg width="84" height="50" xmlns="http://www.w3.org/2000/svg"><g stroke-width="2" fill="none" fill-rule="evenodd"><path d="M34.745 17.794s1.335 5.01 9.194 5.01h10.769l.227.6c.544 1.576.84 3.266.84 5.026 0 8.498-6.89 15.386-15.387 15.386C31.89 43.816 25 36.928 25 28.43s6.89-15.388 15.388-15.388c4.665 0 8.846 2.076 11.668 5.356M33.311 27.928a1.765 1.765 0 013.53 0M43.933 27.928a1.765 1.765 0 013.53 0M48.656 9.745l.217-4.7" stroke="#005AA0"/><path d="M54.308 11.82l2.674-3.87" stroke="#E30613"/><path d="M58.003 16.573l4.318-1.865M45.71 35.194a7.503 7.503 0 01-5.323 2.2 7.502 7.502 0 01-5.322-2.2" stroke="#005AA0"/></g></svg>