<svg width="84" height="50" xmlns="http://www.w3.org/2000/svg"><g stroke-width="2" fill="none" fill-rule="evenodd"><path d="M56.49 50V37.072M63.264 39.288l-2.417-5.445c-.963-2.913-3.314-4.174-6.01-4.543M44.599 47.39V50M45.882 35.068v10.385a2.128 2.128 0 11-4.255 0V34.686a5.386 5.386 0 015.385-5.386M43.902 24.186a7.221 7.221 0 11.899 2.636" stroke="#005AA0"/><path d="M62.285 37.072l1.907 4.19a2.153 2.153 0 01-3.92 1.782l-1.613-3.618M64.036 40.689v-19.6M73.05 9.786c0 4.978-8.786 11-8.786 11s-8.786-6.022-8.786-11M55.478 9.786A8.786 8.786 0 0164.264 1a8.785 8.785 0 018.786 8.786M54.102 25.208a3.638 3.638 0 01-5.1.674M41.88 25.807a2.346 2.346 0 002.009-2.642" stroke="#005AA0"/><path d="M59.478 9.584A4.583 4.583 0 0164.06 5" stroke="#E30613"/><path d="M21.192 50v-3M33.165 47v3M32.13 35.068v10.385a2.127 2.127 0 104.255 0V34.686A5.386 5.386 0 0031 29.3M34.11 24.186a7.221 7.221 0 10-.899 2.636M23.91 25.208a3.64 3.64 0 005.101.674" stroke="#005AA0"/><path d="M22.255 35.068v10.385a2.127 2.127 0 11-4.255 0V34.686a5.386 5.386 0 015.385-5.386" stroke="#005AA0"/></g></svg>