<svg width="84" height="50" xmlns="http://www.w3.org/2000/svg"><g stroke-width="2" fill="none" fill-rule="evenodd"><path d="M35.413 43.47v6.993M20.5 43.736v6.727M25.04 3.64s.743 2.786 5.11 2.786h5.985l.127.333c.302.875.466 1.815.466 2.793a8.552 8.552 0 11-2.067-5.576" stroke="#005AA0"/><path d="M31.097 13.166a4.119 4.119 0 01-2.92 1.208 4.112 4.112 0 01-2.92-1.208M21.774 25.002v16.84a2.387 2.387 0 01-4.774 0V25.33c0-4.26 3.3-7.75 7.484-8.05h.297M34.58 25.002v16.84a2.387 2.387 0 104.773 0V25.33a8.072 8.072 0 00-7.484-8.05h-.297M29.787 50.463v-3.16M26.566 50.463V45.81a2.238 2.238 0 012.238-2.238M66.509 51l-2.035-7.623M46.219 43.377L44.186 51M52.215 3.936s.741 2.781 5.103 2.781h5.977l.126.333a8.54 8.54 0 11-1.599-2.779" stroke="#005AA0"/><path d="M58.264 13.449a4.113 4.113 0 01-2.917 1.206 4.112 4.112 0 01-2.917-1.206M48.819 25.076V41.42a2.316 2.316 0 01-4.634 0V25.394a7.835 7.835 0 017.264-7.814h.288M61.875 25.076V41.42a2.316 2.316 0 004.634 0V25.394a7.835 7.835 0 00-7.265-7.814h-.288" stroke="#005AA0"/><path d="M28.95 27.686h-4.517M56.53 47.037h5.397" stroke="#E30613"/></g></svg>