<svg xmlns="http://www.w3.org/2000/svg"><symbol id="icon-bankid-mc-70" viewBox="0 0 70 70"><g fill="none" fill-rule="evenodd"><path d="M0 0h70v70H0z"/><g fill-rule="nonzero"><path d="M18.368 29.202l2.338-15.63h-2.498c-1.169 0-2.674-.696-3.117-1.973-.142-.432-.478-1.916 1.452-3.363.691-.507 1.134-1.07 1.222-1.503.089-.45-.017-.845-.318-1.146-.425-.432-1.258-.676-2.32-.676-1.79 0-3.047 1.09-3.171 1.878-.089.583.336 1.052.708 1.353 1.116.883 1.382 2.16.691 3.363-.708 1.24-2.25 2.048-3.897 2.067h-2.55c-.213 1.521-3.684 24.855-3.95 26.696h13.833c.124-.827.762-5.242 1.63-11.066h-.053z" fill="#479CBE" transform="translate(6 8)"/><path d="M37.442 0H22.675l-1.97 12.605h2.508c1.375 0 2.675-.637 3.232-1.555.186-.3.26-.562.26-.805 0-.525-.353-.918-.706-1.18-.965-.73-1.17-1.498-1.17-2.042 0-.112 0-.206.019-.3.204-1.329 1.987-2.771 4.346-2.771 1.412 0 2.49.337 3.14.955.575.543.798 1.311.631 2.116-.204.956-1.152 1.742-1.69 2.136-1.43 1.011-1.245 1.891-1.152 2.153.297.787 1.43 1.293 2.303 1.293h3.808v.019c5.201.037 7.987 2.453 7.114 8.072-.817 5.225-4.792 7.473-9.529 7.51l-1.876 12.062h2.768c11.684 0 21.23-7.567 23.107-19.516C60.14 5.918 50.815 0 37.442 0z" fill="#00A5C3" transform="translate(6 8)"/><path d="M37.442 0H22.675l-1.97 12.605h2.508c1.375 0 2.675-.637 3.232-1.555.186-.3.26-.562.26-.805 0-.525-.353-.918-.706-1.18-.965-.73-1.17-1.498-1.17-2.042 0-.112 0-.206.019-.3.204-1.329 1.987-2.771 4.346-2.771 1.412 0 2.49.337 3.14.955.575.543.798 1.311.631 2.116-.204.956-1.152 1.742-1.69 2.136-1.43 1.011-1.245 1.891-1.152 2.153.297.787 1.43 1.293 2.303 1.293h3.808v.019c5.201.037 7.987 2.453 7.114 8.072-.817 5.225-4.792 7.473-9.529 7.51l-1.876 12.062h2.768c11.684 0 21.23-7.567 23.107-19.516C60.14 5.918 50.815 0 37.442 0z" fill="#235971" transform="translate(6 8)"/><path d="M1.599.039H7.46c2.5 0 3.106 1.33 2.922 2.546-.147.984-.79 1.717-1.893 2.2 1.397.559 1.948 1.427 1.746 2.797-.257 1.717-1.672 2.99-3.528 2.99H.037L1.599.04zm3.877 4.36c1.14 0 1.672-.637 1.782-1.39.11-.81-.239-1.37-1.378-1.37H4.87L4.464 4.4h1.01zM4.85 8.952c1.176 0 1.856-.502 2.021-1.525C7 6.54 6.522 6.019 5.383 6.019H4.226l-.44 2.952H4.85v-.02zm13.599 1.698c-1.525.115-2.26-.059-2.628-.753a4.86 4.86 0 01-2.664.79c-1.728 0-2.334-.944-2.169-1.986.074-.502.35-.984.79-1.39.956-.867 3.308-.983 4.227-1.64.073-.732-.202-1.002-1.066-1.002-1.01 0-1.856.347-3.308 1.389l.35-2.393c1.25-.945 2.462-1.389 3.858-1.389 1.783 0 3.363.772 3.069 2.817l-.35 2.315c-.128.81-.091 1.061.773 1.08l-.882 2.161zm-2.646-3.628c-.809.54-2.316.444-2.481 1.563-.074.52.239.907.735.907.478 0 1.066-.213 1.544-.56-.037-.193-.019-.386.036-.752l.166-1.158zm5.494-4.61h3.05l-.165 1.06c.974-.868 1.709-1.196 2.664-1.196 1.709 0 2.5 1.1 2.224 2.894l-.79 5.383h-3.05l.66-4.457c.13-.81-.11-1.196-.698-1.196-.477 0-.918.27-1.341.868l-.698 4.765h-3.05l1.194-8.121zM31.44.039h3.05l-.772 5.17 2.922-2.797h3.767l-3.749 3.472 3.014 4.669h-3.84L33.516 6.79h-.036l-.552 3.762h-3.05z" transform="translate(6 52.196)" fill="#235971"/><path d="M1.543.04h3.311L3.398 10.744H.087zm4.923 0H11.2c3.658 0 4.715 3.005 4.369 5.5-.33 2.435-2.029 5.205-5.236 5.205h-5.34L6.467.039zm3.069 8.15c1.612 0 2.496-.904 2.756-2.809.19-1.414-.19-2.809-1.976-2.809H9.43L8.667 8.19h.867z" transform="translate(47.411 52.196)" fill="#479CBE"/></g></g></symbol><symbol id="icon-pension-capital-mc-70" viewBox="0 0 70 70"><g fill="none" fill-rule="evenodd"><path d="M0 0h70v70H0z"/><g stroke-width="2"><path d="M23.95 32l-7.121 13h36.574l-7.341-13H23.95zm11.053-20.784L25.863 28h18.34l-9.2-16.784z" stroke="#E30613"/><path d="M14.734 49L8.69 60H61.3l-6.121-11H14.734z" stroke="#005AA0"/></g></g></symbol><symbol id="icon-pension-occupational-in-mc-70" viewBox="0 0 70 70"><g fill="none" fill-rule="evenodd"><path d="M0 0h70v70H0z"/><path d="M15.753 27h-2.28l2.737-5H39.5l8.475 15H8l2.737-5h2.28l-1.642 3h33.173l-6.214-11H17.395l-1.642 3z" fill="#E30613" fill-rule="nonzero" transform="translate(7 9)"/><path fill="#E30613" fill-rule="nonzero" d="M18.322 27.136l1.435 1.388H8v1.988h11.757l-1.435 1.444 1.435 1.386 3.761-3.824-3.761-3.768z" transform="translate(7 9)"/><path d="M35.003 11.096L25.857 28h18.351l-9.205-16.904zM14.734 49L8.69 60H61.3l-6.121-11H14.734z" stroke="#005AA0" stroke-width="2"/></g></symbol><symbol id="icon-pension-occupational-mc-70" viewBox="0 0 70 70"><g fill="none" fill-rule="evenodd"><path d="M0 0h70v70H0z"/><g stroke-width="2"><path d="M23.95 32l-7.121 13h36.574l-7.341-13H23.95z" stroke="#E30613"/><path d="M35.003 11.216L25.863 28h18.34l-9.2-16.784zM14.734 49L8.69 60H61.3l-6.121-11H14.734z" stroke="#005AA0"/></g></g></symbol><symbol id="icon-pension-occupational-out-mc-70" viewBox="0 0 70 70"><g fill="none" fill-rule="evenodd"><path d="M0 0h70v70H0z"/><path d="M14.734 49L8.69 60H61.3l-6.121-11H14.734z" stroke="#005AA0" stroke-width="2"/><path d="M40.222 27h2.28l-2.737-5H16.474L8 37h39.975l-2.737-5h-2.28l1.642 3H11.427l6.214-11H38.58l1.642 3z" fill="#E30613" fill-rule="nonzero" transform="translate(7 9)"/><path d="M35.003 11.096L25.857 28h18.351l-9.205-16.904z" stroke="#005AA0" stroke-width="2"/><path fill="#E30613" fill-rule="nonzero" d="M47.322 27.136l1.435 1.388H37v1.988h11.757l-1.435 1.444 1.435 1.386 3.761-3.824-3.761-3.768z" transform="translate(7 9)"/></g></symbol><symbol id="icon-pension-private-in-mc-70" viewBox="0 0 70 70"><g fill="none" fill-rule="evenodd"><path d="M0 0h70v70H0z"/><path d="M22.634 10l.296-.544L28 0l10.891 20H17.18l2.512-4.588.224-.412h2.277l-1.65 3.032h14.975L28.006 4.307 24.91 10h-2.276z" fill="#E30613" fill-rule="nonzero" transform="translate(7 9)"/><path d="M7.142 39L0 51.894h56L48.767 39H7.142zm40.453 2l4.99 8.894H3.395L8.32 41h39.274z" fill="#005AA0" fill-rule="nonzero" transform="translate(7 9)"/><path d="M23.809 32l-7.121 13h36.574L45.92 32H23.809z" stroke="#005AA0" stroke-width="2"/><path fill="#E30613" fill-rule="nonzero" d="M26.322 10.136l1.435 1.388H16v1.988h11.757l-1.435 1.444 1.435 1.386 3.761-3.824-3.761-3.768z" transform="translate(7 9)"/></g></symbol><symbol id="icon-pension-private-mc-70" viewBox="0 0 70 70"><g fill="none" fill-rule="evenodd"><path d="M0 0h70v70H0z"/><g stroke-width="2"><path d="M23.95 32l-7.121 13h36.574l-7.341-13H23.95z" stroke="#005AA0"/><path d="M35.003 11.216L25.863 28h18.34l-9.2-16.784z" stroke="#E30613"/><path d="M14.734 49L8.69 60H61.3l-6.121-11H14.734z" stroke="#005AA0"/></g></g></symbol><symbol id="icon-pension-private-out-mc-70" viewBox="0 0 70 70"><g fill="none" fill-rule="evenodd"><path d="M0 0h70v70H0z"/><path d="M7.142 39L0 51.894h56L48.767 39H7.142zm40.453 2l4.99 8.894H3.395L8.32 41h39.274z" fill="#005AA0" fill-rule="nonzero" transform="translate(7 9)"/><path d="M23.809 32l-7.121 13h36.574L45.92 32H23.809z" stroke="#005AA0" stroke-width="2"/><path d="M36.25 15L39 20H17l2.545-4.618 1.675-3.06 1.607-2.936L28 0l5.5 10h-2.337L27.97 4.204 20.41 18.02h15.17L33.918 15h2.332z" fill="#E30613" fill-rule="nonzero" transform="translate(7 9)"/><path fill="#E30613" fill-rule="nonzero" d="M38.143 10.005l1.435 1.389H27.821v1.986h11.757l-1.435 1.444 1.435 1.386 3.761-3.824-3.76-3.768z" transform="translate(7 9)"/></g></symbol><symbol id="icon-tab-bank-70" viewBox="0 0 70 70"><g fill-rule="nonzero" fill="none"><path d="M2 2.998v32.004c0 .547.45.998.991.998h50.018a.997.997 0 00.991-.998V2.998A1 1 0 0053.009 2H2.991A.997.997 0 002 2.998zm-2 0A2.997 2.997 0 012.991 0h50.018A3.001 3.001 0 0156 2.998v32.004A2.997 2.997 0 0153.009 38H2.991A3.001 3.001 0 010 35.002V2.998z" fill="#005AA0" transform="translate(7 16)"/><path fill="#005AA0" d="M56 7H.144v2H56zm-.944 7H1.146v2h53.91zM25 25H6v2h19z" transform="translate(7 16)"/><path fill="#E30613" d="M45 19h-2v7h7v-2h-5zM17 30H6v2h11z" transform="translate(7 16)"/></g></symbol><symbol id="icon-tab-car-70" viewBox="0 0 70 70"><g fill-rule="nonzero" fill="none"><path d="M47.093 6.963a42.929 42.929 0 00-2.728-1.937c-1.792-1.163-3.598-2.105-5.481-2.8C34.41.575 28.819.642 21.634 2.093a33.977 33.977 0 00-3.892 1.072c-2.026.678-4.164 1.558-6.362 2.59a86.794 86.794 0 00-6.994 3.693c-.283.167-.482.288-.589.353l-.348.215L.9 20.412l3.894 4.183 1.464-1.363L3.1 19.84l2.095-8.546.208-.124a84.815 84.815 0 016.827-3.605c2.133-1.001 4.2-1.852 6.147-2.504a31.999 31.999 0 013.657-1.008c6.85-1.384 12.104-1.447 16.157.05 1.733.639 3.41 1.513 5.085 2.6a40.99 40.99 0 012.603 1.85c.308.235 1.603 1.246 1.888 1.458.313.237 7.05 1.266 8.955 1.64 3.253.64 5.667 1.324 6.971 2.043 2.586 1.387 3.86 3.24 3.86 5.53v5.205L63 24v2h6.553v-6.777c0-3.08-1.717-5.576-4.904-7.286-1.533-.845-4.092-1.57-7.541-2.248-1.756-.345-3.41-.62-5.801-.985l-1.091-.166a75.75 75.75 0 01-.849-.135 13.7 13.7 0 01-.538-.097c-.428-.327-1.451-1.125-1.736-1.343z" fill="#005AA0" transform="translate(0 19)"/><path fill="#005AA0" d="M46 24H23v2h23zm-39-.5c0-4.178 3.28-7.5 7.455-7.5C18.642 16 22 19.335 22 23.5S18.642 31 14.455 31c-2.876 0-5.429-1.613-6.746-4.237C7.253 25.63 7 24.55 7 23.5zm2 0c0 .764.196 1.603.53 2.44.947 1.88 2.813 3.06 4.925 3.06C17.54 29 20 26.557 20 23.5S17.54 18 14.455 18C11.39 18 9 20.42 9 23.5z" transform="translate(0 19)"/><path d="M14.5 20c1.923 0 3.5 1.577 3.5 3.5S16.423 27 14.5 27a3.513 3.513 0 01-3.5-3.5c0-1.026.454-2.022 1.238-2.619A3.257 3.257 0 0114.5 20zM13 23.5c0 .819.681 1.5 1.5 1.5s1.5-.681 1.5-1.5-.681-1.5-1.5-1.5c-.367 0-.682.128-.906.352l-.126.107c-.276.197-.468.607-.468 1.041zm34 0c0-4.178 3.28-7.5 7.455-7.5C58.642 16 62 19.335 62 23.5S58.642 31 54.455 31c-2.876 0-5.429-1.613-6.746-4.237C47.253 25.63 47 24.55 47 23.5zm2 0c0 .764.196 1.603.53 2.44.947 1.88 2.813 3.06 4.925 3.06C57.54 29 60 26.557 60 23.5S57.54 18 54.455 18C51.39 18 49 20.42 49 23.5z" fill="#005AA0" transform="translate(0 19)"/><path d="M54.5 20c1.923 0 3.5 1.577 3.5 3.5S56.423 27 54.5 27a3.513 3.513 0 01-3.5-3.5c0-1.026.454-2.022 1.238-2.619A3.257 3.257 0 0154.5 20zM53 23.5c0 .819.681 1.5 1.5 1.5s1.5-.681 1.5-1.5-.681-1.5-1.5-1.5c-.367 0-.682.128-.906.352l-.126.107c-.276.197-.468.607-.468 1.041zM45 9H21v2h24z" fill="#005AA0" transform="translate(0 19)"/><path fill="#005AA0" d="M31 5v5h2V5z" transform="translate(0 19)"/><path fill="#E30613" d="M27.013 15H32v-2h-4.987z" transform="translate(0 19)"/></g></symbol><symbol id="icon-tab-damage-70" viewBox="0 0 70 70"><g fill-rule="nonzero" fill="none"><path fill="#005AA0" d="M44 2H2v45h9v2H0V0h46v49H22.059v-2H44z" transform="translate(12 10)"/><path d="M6 43h34V6H6v37zM4 4h38v41H4V4z" fill="#005AA0" transform="translate(12 10)"/><path fill="#005AA0" d="M17.877 32.018l-1.898 5.453 5.66 2.237v4.706h2v-6.066l-5.14-2.031 1.838-5.281-5.347-2.754-3.415 1.289H5v2h6.94l2.925-1.104zm15.316-18.416l-6.804-.002-1.755-3.041-3.473-.897L21 5.025l-1.998.07.214 6.13 4.106 1.06 1.912 3.315 5.96.002.002 5.208 8.808 6.354 1.17-1.622-7.978-5.756z" transform="translate(12 10)"/><path fill="#E30613" d="M13 49h7v-2h-7z" transform="translate(12 10)"/></g></symbol><symbol id="icon-tab-house-70" viewBox="0 0 70 70"><g fill-rule="nonzero" fill="none"><path fill="#005AA0" d="M63.1 24.493l1.137-1.646L32.277.784.432 22.848l1.138 1.644L32.28 3.216z" transform="translate(2 9)"/><path fill="#E30613" d="M36.037 12.073l1.105-1.666-4.87-3.232-4.756 3.238 1.126 1.654 3.644-2.482z" transform="translate(2 9)"/><path fill="#005AA0" d="M8 18.06v26.07h2V18.06zm47 0v26.07h2V18.06zM46 26v18h2V24H36v20h2V26zm-28 0v8h10v-8H18zm12-2v12H16V24h14z" transform="translate(2 9)"/><path fill="#005AA0" d="M3 45h17.01v-2H3zm27 0h32v-2H30z" transform="translate(2 9)"/></g></symbol><symbol id="icon-tab-loan-70" viewBox="0 0 70 70"><g fill-rule="nonzero" fill="none"><path fill="#005AA0" d="M46.545 21.132l1.96-.397L44.476.816l-24.06 5.005-1.694.356.41 1.957 1.694-.355 22.088-4.595zM3.178 11.398L13.698 9.2l-.41-1.958L.822 9.847l3.762 18.486.031.117.09.267 1.896-.634-.07-.209z" transform="translate(10 5)"/><path fill="#005AA0" d="M26.856 8.419l.98 4.889 1.96-.393-.98-4.89zm6.64 3.81a2.69 2.69 0 01-3.18-2.091 2.69 2.69 0 012.096-3.177 2.69 2.69 0 013.18 2.09 2.69 2.69 0 01-2.096 3.178zm-.403-1.96a.69.69 0 00.54-.814.69.69 0 00-.818-.535.69.69 0 00-.54.814.69.69 0 00.818.536z" transform="translate(10 5)"/><path d="M39.287 11.073a2.69 2.69 0 01-3.18-2.091 2.69 2.69 0 012.096-3.177 2.69 2.69 0 013.18 2.091 2.69 2.69 0 01-2.096 3.177zm-.403-1.959a.69.69 0 00.54-.814.69.69 0 00-.818-.536.69.69 0 00-.54.815.69.69 0 00.818.535z" fill="#E30613" transform="translate(10 5)"/><path fill="#005AA0" d="M9.54 13.852l39.56 8.385-4.571 21.42-19.424-4.146-.417 1.956 21.38 4.564 5.406-25.335-43.473-9.215-5.406 25.332 7.214 1.543.418-1.956-5.259-1.124z" transform="translate(10 5)"/><path fill="#005AA0" d="M32.291 20.467l-.98 4.8 1.96.4.98-4.8zm7.756 4.096a2.69 2.69 0 01-3.19 2.074 2.69 2.69 0 01-2.07-3.193 2.69 2.69 0 013.19-2.074 2.69 2.69 0 012.07 3.193zm-1.956-.416a.69.69 0 00-.53-.821.69.69 0 00-.818.534.69.69 0 00.53.82.69.69 0 00.818-.533zm4.557 3.823a2.69 2.69 0 01-2.07-3.193 2.69 2.69 0 013.19-2.074 2.69 2.69 0 012.07 3.193 2.69 2.69 0 01-3.19 2.074zm.704-3.31a.69.69 0 00-.818.533.69.69 0 00.53.821.69.69 0 00.818-.534.69.69 0 00-.53-.82z" transform="translate(10 5)"/><path d="M34 51.958C34 49.756 32.217 48 30 48c-2.196 0-4 1.82-4 4.042 0 .495.12 1.032.346 1.564.13.325.33.661.587.987C27.669 55.47 28.81 56 30 56c2.196 0 4-1.82 4-4.042zm2 0C36 55.282 33.304 58 30 58c-1.78 0-3.482-.79-4.617-2.143a5.975 5.975 0 01-.887-1.491A6 6 0 0124 52.042C24 48.718 26.696 46 30 46c3.315 0 6 2.645 6 5.958z" fill="#E30613" transform="translate(10 5)"/><path d="M14.5 49a7.5 7.5 0 110-15 7.5 7.5 0 010 15zm0-2a5.5 5.5 0 100-11 5.5 5.5 0 000 11z" fill="#005AA0" transform="translate(10 5)"/></g></symbol><symbol id="icon-tab-offer-70" viewBox="0 0 70 70"><g fill-rule="nonzero" fill="none"><path fill="#005AA0" d="M10 31v12h2V31z" transform="translate(7 7)"/><path fill="#E30613" d="M31 31v12h2V31z" transform="translate(7 7)"/><path fill="#005AA0" d="M2 45V19h28v-2H0v30h43V33.005h-2V45z" transform="translate(7 7)"/><path d="M14 19v-8h15v8H14zm13-2v-4H16v4h11zM9.176 27l-4.254-6.683-1.687 1.074L8.078 29h27.738l2.7-3.801-1.631-1.158L34.784 27z" fill="#005AA0" transform="translate(7 7)"/><path d="M47.55 5.584l-3.764 5.33-6.23-1.963 2.748 5.908-4.819 4.393 6.505.582 1.41 6.363 3.764-5.33 6.23 1.964-2.747-5.908 4.819-4.393-6.506-.583-1.41-6.363zm.974-4.846l2.072 9.348 9.578.857-7.094 6.468 4.042 8.69-9.166-2.887-5.53 7.83-2.072-9.348-9.578-.858 7.095-6.468-4.043-8.69 9.167 2.887 5.529-7.83z" fill="#005AA0" transform="translate(7 7)"/></g></symbol><symbol id="icon-tab-save-70" viewBox="0 0 70 70"><g fill-rule="nonzero" fill="none"><path d="M13.344 11.508a6.733 6.733 0 011.425-7.52c2.674-2.651 7.013-2.651 9.687 0a6.733 6.733 0 011.502 7.34l1.85.757a8.733 8.733 0 00-1.944-9.516c-3.454-3.425-9.05-3.425-12.504 0a8.733 8.733 0 00-1.844 9.75l1.828-.811z" fill="#005AA0" transform="translate(16 6)"/><path fill="#E30613" d="M15 5.5v5.802h2V5.5zm5 4.914V7.86c0-.473.515-.859 1-.859s1 .386 1 .859v2.555h2V7.86C24 6.278 22.586 5 21 5s-3 1.278-3 2.859v2.555h2zm-3.31 21.113v1.855h2v-1.855zm3.71 0v1.855h2v-1.855z" transform="translate(16 6)"/><path d="M4.262 20.72a17.272 17.272 0 012.704-3.74l-1.45-1.377a19.272 19.272 0 00-3.017 4.173l1.763.944zm32.675-.537a19.258 19.258 0 00-3.228-4.58l-1.45 1.377a17.258 17.258 0 012.893 4.104l1.785-.9z" fill="#005AA0" transform="translate(16 6)"/><path d="M38.977 28.775a19.05 19.05 0 01-5.105 12.99l1.555 11.225h-9.18l-2.113-5.536a19.488 19.488 0 01-9.043 0l-2.113 5.536h-9.18l1.555-11.224A19.052 19.052 0 01.247 28.775c0-3.442.916-6.753 2.625-9.662L2.42 9.286l8.938 2.11a19.41 19.41 0 018.255-1.832 19.4 19.4 0 018.256 1.833l8.938-2.11-.454 9.826a19.004 19.004 0 012.625 9.662zm-7.22 12.303l.342-.35c3.11-3.191 4.878-7.433 4.878-11.953 0-3.177-.87-6.226-2.491-8.886l-.16-.262.36-7.785-7.051 1.665-.322-.158a17.409 17.409 0 00-7.7-1.785c-2.707 0-5.324.617-7.701 1.785l-.322.158-7.051-1.665.359 7.785-.16.261a17.01 17.01 0 00-2.49 8.887c0 4.52 1.767 8.762 4.878 11.953l.341.35-1.373 9.912h5.507l2.27-5.947.883.254a17.512 17.512 0 009.717 0l.883-.254 2.27 5.947h5.507l-1.373-9.912z" fill="#005AA0" transform="translate(16 6)"/><path d="M24 32.5a4.5 4.5 0 10-9 0 4.5 4.5 0 009 0zm2 0a6.5 6.5 0 11-13 0 6.5 6.5 0 0113 0zm-13-9.021c0-.815.67-1.479 1.5-1.479s1.5.664 1.5 1.479h2C18 21.556 16.431 20 14.5 20S11 21.556 11 23.479h2zm10 0c0-.815.67-1.479 1.5-1.479s1.5.664 1.5 1.479h2C28 21.556 26.431 20 24.5 20S21 21.556 21 23.479h2z" fill="#005AA0" transform="translate(16 6)"/></g></symbol><symbol id="icon-tab-travel-70" viewBox="0 0 70 70"><g fill="none" fill-rule="evenodd"><path d="M0 0h70v70H0z"/><g fill-rule="nonzero"><path d="M15.777-.513c-4.835 0-8.812 3.677-9.287 8.388a8.28 8.28 0 00-7.341 8.23A8.293 8.293 0 007.442 24.4h8.335v-2H7.442a6.293 6.293 0 01-6.293-6.293 6.278 6.278 0 016.29-6.284l1.003.003V8.822a7.335 7.335 0 0114.67 0v1h2.042a6.293 6.293 0 015.321 9.655l1.69 1.07a8.293 8.293 0 00-7.01-12.725h-.096c-.499-4.685-4.464-8.335-9.282-8.335z" fill="#005AA0" transform="translate(9.3 9.051)"/><path d="M23.396 25.7a5.35 5.35 0 100-10.7 5.35 5.35 0 000 10.7zm0-2a3.35 3.35 0 110-6.7 3.35 3.35 0 010 6.7z" fill="#E30613" transform="translate(9.3 9.051)"/><path d="M31.34 31.545a3.564 3.564 0 100-7.13 3.564 3.564 0 000 7.13zm0-2a1.564 1.564 0 110-3.13 1.564 1.564 0 010 3.13zm-9.765 23.09l8.57-2.688 7.461-7.945 11.713-3.292.13-.084c2.059-1.345 2.942-3.222 2.526-5.465l-.128-.693-7.468-1.209-29.051 8.439-6.187-3.383-9.175 2.635 7.43 6.273 13.724 1.5 2.124-.66-1.669 6.572zm-.65-7.945L8.22 43.3l-4.102-3.462 4.785-1.374 6.19 3.384 29.411-8.543 5.571.903c.002 1.056-.51 1.915-1.598 2.662L36.53 40.227l-7.483 7.968-4.65 1.46L26.06 43.1l-1.939-.492-.3 1.182-2.897.899z" fill="#005AA0" transform="translate(9.3 9.051)"/><path fill="#005AA0" d="M23.72 33.922l8.538 2.687.6-1.908-9.12-2.87-8.309 2.45 6.638 4.953 1.196-1.603-3.433-2.562z" transform="translate(9.3 9.051)"/></g></g></symbol></svg>