<svg height="32" viewBox="0 0 28 32" width="28" xmlns="http://www.w3.org/2000/svg"><g fill="none" fill-rule="evenodd" transform="translate(-6 -4)"><path d="m21 34v2h-8v-2z" fill="#e30613" fill-rule="nonzero"/><path d="m0 0h40v40h-40z"/><path d="m22 30h4v-10.4971298l-6.5384615-4.8571428v-4.3600131h-4.8280634l-1.3969065-2.59425508-4.2365686-1.31131884v-4.38014038h-7v15.3h7.91573643l3.01096157-1.4420921 5.2059959 3.3245307-1.3229888 3.8018518 5.1902949 2.4858781zm-2 0v-3.2701685l-5.666848-2.7141219 1.391297-3.9981482-2.9368613-1.8754693-2.4176098 1.1579079h-8.3699779v10.7h3v2h-5v-32h28v32h-11v-2zm6-12.9885845v-15.0114155h-15v2.90557391l3.6095853 1.11725258 1.218478 2.2628878h5.6334752v5.35427261z" fill="#f00" fill-rule="nonzero" transform="translate(6 4)"/></g></svg>