<?xml version="1.0" encoding="utf-8"?><svg xmlns="http://www.w3.org/2000/svg" xmlns:xlink="http://www.w3.org/1999/xlink"><symbol viewBox="0 0 24 24" id="bankid-mc-24" xmlns="http://www.w3.org/2000/svg"><g fill="none" fill-rule="evenodd"><path d="M0 0h24v24H0z"/><g fill-rule="nonzero"><path d="M8.21 12.557L9 7.694h-.844c-.396 0-.905-.216-1.054-.613-.048-.135-.162-.596.49-1.046.234-.158.384-.334.414-.468a.357.357 0 00-.108-.357C7.754 5.076 7.473 5 7.114 5c-.605 0-1.03.339-1.072.584-.03.182.114.328.24.421.377.275.467.672.233 1.047-.24.385-.76.637-1.317.642h-.863C4.263 8.168 3.09 15.427 3 16h4.677c.042-.257.257-1.63.55-3.443H8.21z" fill="#479CBE"/><path d="M14.807 3H9.683L9 7.07h.87c.477 0 .928-.206 1.121-.503a.465.465 0 00.09-.26c0-.169-.122-.296-.244-.38-.335-.236-.406-.484-.406-.66 0-.036 0-.066.006-.096.071-.43.69-.895 1.508-.895.49 0 .864.109 1.09.308.2.176.277.423.219.683-.071.309-.4.563-.587.69-.496.326-.432.61-.4.695.104.254.497.417.8.417h1.32v.006c1.805.012 2.772.792 2.47 2.606-.284 1.687-1.664 2.413-3.307 2.425L12.9 16h.96c4.053 0 7.366-2.443 8.017-6.3.805-4.79-2.43-6.7-7.07-6.7z" fill="#00A5C3"/><path d="M14.807 3H9.683L9 7.07h.87c.477 0 .928-.206 1.121-.503a.465.465 0 00.09-.26c0-.169-.122-.296-.244-.38-.335-.236-.406-.484-.406-.66 0-.036 0-.066.006-.096.071-.43.69-.895 1.508-.895.49 0 .864.109 1.09.308.2.176.277.423.219.683-.071.309-.4.563-.587.69-.496.326-.432.61-.4.695.104.254.497.417.8.417h1.32v.006c1.805.012 2.772.792 2.47 2.606-.284 1.687-1.664 2.413-3.307 2.425L12.9 16h.96c4.053 0 7.366-2.443 8.017-6.3.805-4.79-2.43-6.7-7.07-6.7zM2.54 18.012h1.98c.843 0 1.048.42.986.805-.05.31-.267.542-.64.695.472.177.659.45.59.884-.087.542-.564.945-1.191.945H2.012l.528-3.329zm1.31 1.378c.384 0 .564-.201.601-.439.037-.256-.08-.433-.465-.433h-.342l-.136.872h.341zm-.212 1.439c.397 0 .627-.159.683-.482.043-.28-.118-.445-.503-.445h-.39l-.15.933h.36v-.006zm4.592.536c-.515.037-.763-.018-.887-.238a1.72 1.72 0 01-.9.25c-.583 0-.788-.298-.732-.628a.742.742 0 01.267-.439c.322-.274 1.117-.31 1.427-.518.025-.231-.068-.317-.36-.317-.341 0-.627.11-1.117.44l.118-.757c.422-.298.831-.439 1.303-.439.602 0 1.136.244 1.036.89l-.118.732c-.043.256-.03.335.261.341l-.298.683zm-.893-1.146c-.273.17-.782.14-.838.494-.025.164.08.286.248.286a.99.99 0 00.521-.177.656.656 0 01.013-.237l.056-.366zm1.855-1.457h1.03l-.056.335c.33-.274.577-.378.9-.378.577 0 .844.348.75.915l-.266 1.7h-1.03l.223-1.408c.044-.256-.037-.378-.235-.378-.162 0-.31.086-.453.275l-.236 1.505h-1.03l.403-2.566zm3.425-.75h1.03l-.26 1.634.986-.884h1.273l-1.266 1.097 1.017 1.476H14.1l-.781-1.19h-.013l-.186 1.19h-1.03z" fill="#235971"/><path d="M16.558 18.012h1.198l-.527 3.383h-1.198zm1.782 0h1.712c1.324 0 1.706.95 1.58 1.738-.118.77-.733 1.645-1.894 1.645h-1.932l.534-3.383zm1.11 2.576c.583 0 .903-.285.997-.887.07-.447-.069-.888-.715-.888h-.32l-.276 1.775h.314z" fill="#479CBE"/></g></g></symbol><symbol viewBox="0 0 24 24" id="car-damaged-24" xmlns="http://www.w3.org/2000/svg"><g transform="translate(0 2)" fill="none" fill-rule="evenodd"><path d="M20 7l-2.5-4s-.438-1.003-5.5-1c-5.063.003-5.5 1-5.5 1L4 7l-1 4v5.5c0 .75.5 1 1 1s1-.406 1-1V15h14v1.5c0 .531.5 1 1 1s1-.438 1-1l.044-5.5L20 7zm3 9.5c0 1.666-1.392 3-3 3-1.439 0-2.707-1.095-2.956-2.499l-10.086.004A3.009 3.009 0 014 19.5c-1.632 0-3-1.14-3-3v-5.746l1.136-4.546 2.638-4.22c.346-.6 1-1.067 1.944-1.384C7.881.214 9.588 0 11.998 0c2.418-.001 4.13.212 5.294.605.939.318 1.59.785 1.935 1.384l2.631 4.21 1.19 4.559-.004.271L23 16.5z" fill="#005AA0" fill-rule="nonzero"/><path fill="#005AA0" fill-rule="nonzero" d="M2 14v-2h13v2z"/><path fill="#E30613" fill-rule="nonzero" d="M16 14v-2h4v2z"/><path d="M1 8a1 1 0 110-2h1.5a1 1 0 110 2H1zm20.5 0a1 1 0 010-2H23a1 1 0 010 2h-1.5z" fill="#005AA0" fill-rule="nonzero"/><path fill="#E30613" fill-rule="nonzero" d="M11.586 5.014H6v2h6.414L14 5.428l1.586 1.586H18v-2h-1.586L14 2.6z"/><circle fill="#005AA0" cx="6.5" cy="9.5" r="1.5"/><circle fill="#005AA0" cx="17.5" cy="9.5" r="1.5"/></g></symbol><symbol viewBox="0 0 24 24" id="car-multicolor-24" xmlns="http://www.w3.org/2000/svg"><g transform="translate(0 2)" fill="none" fill-rule="evenodd"><path d="M20 7l-2.5-4s-.438-1.003-5.5-1c-5.063.003-5.5 1-5.5 1L4 7l-1 4v5.5c0 .75.5 1 1 1s1-.406 1-1V15h14v1.5c0 .531.5 1 1 1s1-.438 1-1l.044-5.5L20 7zm3 9.5c0 1.666-1.392 3-3 3-1.439 0-2.707-1.095-2.956-2.499l-10.086.004A3.009 3.009 0 014 19.5c-1.632 0-3-1.14-3-3v-5.746l1.136-4.546 2.638-4.22c.346-.6 1-1.067 1.944-1.384C7.881.214 9.588 0 11.998 0c2.418-.001 4.13.212 5.294.605.939.318 1.59.785 1.935 1.384l2.631 4.21 1.19 4.559-.004.271L23 16.5z" fill="#005AA0" fill-rule="nonzero"/><path fill="#005AA0" fill-rule="nonzero" d="M14.491 3.951l1.782-.908L18.29 7H7V5h8.026zM2 14v-2h7v2zm13 0v-2h7v2z"/><path fill="#E30613" fill-rule="nonzero" d="M10 14v-2h4v2z"/><path d="M1 8a1 1 0 110-2h1.5a1 1 0 110 2H1zm20.5 0a1 1 0 010-2H23a1 1 0 010 2h-1.5z" fill="#005AA0" fill-rule="nonzero"/><circle fill="#005AA0" cx="6.5" cy="9.5" r="1.5"/><circle fill="#005AA0" cx="17.5" cy="9.5" r="1.5"/></g></symbol><symbol viewBox="0 0 24 24" id="card-multicolor-24" xmlns="http://www.w3.org/2000/svg"><g fill="none"><path d="M19.697 17H4.317C4.156 17 4 16.846 4 16.727V11h15.997v5.76a.205.205 0 01-.062.15.32.32 0 01-.238.09zm0-10c.083 0 .17.038.233.103a.22.22 0 01.067.17V9H4V7.272C4 7.153 4.155 7 4.318 7h15.379zm2.299.305a2.175 2.175 0 00-.628-1.592A2.342 2.342 0 0019.697 5H4.317C3.063 5 2 6.04 2 7.272v9.455C2 17.96 3.062 19 4.318 19h15.379a2.31 2.31 0 001.675-.7 2.171 2.171 0 00.625-1.573l-.001-9.422z" fill="#005AA0"/><path fill="#E30613" d="M5.996 14h4v-2h-4z"/></g></symbol></svg>