<?xml version="1.0" encoding="utf-8"?><svg xmlns="http://www.w3.org/2000/svg" xmlns:xlink="http://www.w3.org/1999/xlink"><symbol viewBox="0 0 40 40" id="bankid-mc-40" xmlns="http://www.w3.org/2000/svg"><g fill="none" fill-rule="evenodd"><path d="M0 0h40v40H0z"/><g fill-rule="nonzero"><path d="M13.367 21.094l1.447-9.685h-1.546c-.723 0-1.655-.43-1.93-1.222-.087-.268-.295-1.187.9-2.084.427-.314.701-.663.756-.931.055-.28-.01-.524-.197-.71-.263-.268-.779-.42-1.436-.42-1.107 0-1.886.676-1.962 1.165-.055.36.208.652.438.838.69.547.855 1.339.428 2.084-.439.768-1.392 1.269-2.412 1.28H6.275c-.132.943-2.28 15.4-2.444 16.542h8.56c.077-.513.471-3.248 1.009-6.857h-.033z" fill="#479CBE"/><path d="M25.17 3h-9.138l-1.218 7.81h1.551c.851 0 1.656-.394 2-.963a.938.938 0 00.161-.5c0-.324-.218-.568-.436-.73-.598-.453-.725-.929-.725-1.265 0-.07 0-.128.012-.186.126-.824 1.23-1.717 2.69-1.717.873 0 1.54.209 1.942.591.357.337.495.813.391 1.312-.126.592-.713 1.08-1.046 1.323-.885.626-.77 1.172-.713 1.334.184.488.886.801 1.426.801h2.356v.012c3.219.023 4.943 1.52 4.403 5.001-.506 3.238-2.966 4.63-5.897 4.654l-1.161 7.474h1.713c7.23 0 13.138-4.689 14.3-12.093C39.216 6.668 33.446 3 25.17 3z" fill="#00A5C3"/><path d="M25.17 3h-9.138l-1.218 7.81h1.551c.851 0 1.656-.394 2-.963a.938.938 0 00.161-.5c0-.324-.218-.568-.436-.73-.598-.453-.725-.929-.725-1.265 0-.07 0-.128.012-.186.126-.824 1.23-1.717 2.69-1.717.873 0 1.54.209 1.942.591.357.337.495.813.391 1.312-.126.592-.713 1.08-1.046 1.323-.885.626-.77 1.172-.713 1.334.184.488.886.801 1.426.801h2.356v.012c3.219.023 4.943 1.52 4.403 5.001-.506 3.238-2.966 4.63-5.897 4.654l-1.161 7.474h1.713c7.23 0 13.138-4.689 14.3-12.093C39.216 6.668 33.446 3 25.17 3zM2.99 30.409h3.627c1.546 0 1.922.825 1.808 1.578-.091.61-.49 1.064-1.171 1.362.864.347 1.205.885 1.08 1.734-.16 1.064-1.035 1.853-2.183 1.853H2.023l.966-6.527zm2.399 2.701c.705 0 1.034-.394 1.103-.86.068-.502-.148-.85-.853-.85h-.626l-.25 1.71h.626zm-.387 2.821c.728 0 1.149-.31 1.25-.944.08-.55-.215-.873-.92-.873h-.717l-.273 1.83h.66v-.013zm8.415 1.052c-.944.072-1.399-.036-1.626-.466-.5.323-1.058.49-1.65.49-1.068 0-1.443-.586-1.34-1.231.045-.31.215-.61.488-.86.591-.539 2.047-.61 2.615-1.017.046-.454-.125-.621-.66-.621-.625 0-1.148.215-2.046.86l.216-1.482c.773-.586 1.524-.86 2.388-.86 1.103 0 2.081.478 1.9 1.745l-.217 1.434c-.08.502-.057.658.478.67l-.546 1.338zm-1.638-2.247c-.5.335-1.432.275-1.535.968-.045.323.148.562.455.562.296 0 .66-.131.955-.347-.022-.12-.011-.239.023-.466l.102-.717zm3.401-2.856h1.887l-.102.657c.602-.538 1.057-.742 1.649-.742 1.057 0 1.546.682 1.375 1.793l-.489 3.336h-1.887l.41-2.762c.079-.502-.069-.74-.433-.74-.296 0-.568.166-.83.537l-.432 2.953H14.44l.74-5.033zm6.276-1.471h1.888l-.478 3.203 1.808-1.733h2.332l-2.32 2.152 1.865 2.893h-2.377l-1.433-2.331h-.022l-.342 2.33H20.49z" fill="#235971"/><path d="M28.582 30.41h2.049l-.901 6.632h-2.05zm3.047 0h2.929c2.263 0 2.918 1.861 2.703 3.407-.204 1.51-1.255 3.225-3.24 3.225h-3.304l.912-6.633zm1.899 5.05c.997 0 1.545-.56 1.705-1.74.118-.877-.118-1.74-1.223-1.74h-.547l-.472 3.48h.537z" fill="#479CBE"/></g></g></symbol><symbol viewBox="0 0 28 32" id="damage-multicolor-40" xmlns="http://www.w3.org/2000/svg"><defs><path d="M22 30h4V19.503l-6.538-4.857v-4.36h-4.829L13.237 7.69 9 6.381V2H2v15.3h7.916l3.01-1.442 5.207 3.324-1.323 3.802L22 25.47V30zm-2 0v-3.27l-5.667-2.714 1.391-3.998-2.936-1.876L10.37 19.3H2V30h3v2H0V0h28v32H17v-2h3zm6-12.989V2H11v2.906l3.61 1.117 1.218 2.263h5.634v5.354L26 17.011z" id="ba"/></defs><g fill="none" fill-rule="evenodd"><path fill="#E30613" fill-rule="nonzero" d="M15 30v2H7v-2z"/><path d="M-6-4h40v40H-6z"/><use fill="currentColor" fill-rule="nonzero" xlink:href="#ba"/></g></symbol></svg>