<svg width="70" height="70" xmlns="http://www.w3.org/2000/svg"><g fill="none" fill-rule="evenodd"><path d="M0 0h70v70H0z"/><path d="M37.34 14.825l3.902 4.876L45.48 25h5.055l2.104 3.155c.37-.028.744-.042 1.12-.042 2.141 0 4.218.462 6.117 1.342l.404.195-.896 1.788a12.51 12.51 0 00-5.624-1.325c-3.13 0-5.994 1.144-8.194 3.038l2.817 2.817a9 9 0 11-1.415 1.415l-2.81-2.811a12.514 12.514 0 00-2.962 7.802l-.004.306h-2c0-1.271.163-2.505.47-3.68H27.55l-2.888-3.25-1.63 1.633a8.959 8.959 0 011.963 5.352L25 43a9 9 0 11-3.382-7.032l1.713-1.714L22.217 33H9v-2h11.439l-1.186-1.336 1.494-1.328L28.45 37h11.892a14.597 14.597 0 0110.116-8.512L49.464 27h-4.945l-3.761-4.702-11.254 6.566-1.008-1.728 10.999-6.416-2.835-3.545-3.957 1.365-.653-1.89 5.29-1.825zM16 36a7 7 0 105.607 2.809l-1.436 1.434a5 5 0 11-1.414-1.414l1.435-1.435A6.97 6.97 0 0016 36zm38 0a6.968 6.968 0 00-4.192 1.394l1.434 1.434a5 5 0 11-1.414 1.414l-1.435-1.433A7 7 0 1054 36zm-38 4a3 3 0 102.707 1.707l-2 2-1.414-1.414 2-2A2.988 2.988 0 0016 40zm38 0c-.463 0-.901.105-1.293.292l2 2-1.414 1.415-2-2A3 3 0 1054 40zM8 27v6H6v-6h2zm20.618-4l1.276 2.553-1.788.894L27.38 25H11v2h7v2H9v-6h19.618zm24.214.445l2 3-1.664 1.11-2-3 1.664-1.11z" fill="currentColor" fill-rule="nonzero"/></g></svg>