<svg width="70" height="70" xmlns="http://www.w3.org/2000/svg"><g fill="none" fill-rule="evenodd"><path d="M0 0h70v70H0z"/><path d="M42.687 6.58l.131.033.075.017.149.047c2.953.95 4.668 3.984 3.915 6.95l-.06.216c-.837 2.84-3.677 4.57-6.573 4.154l-.014.05a21.985 21.985 0 00-5.6-.72c-11.853 0-21.454 9.377-21.454 20.932 0 11.554 9.6 20.931 21.454 20.931 11.854 0 21.454-9.376 21.454-20.931 0-6.684-3.233-12.84-8.606-16.764l-.331-.238 1.15-1.637c6.096 4.281 9.787 11.157 9.787 18.639 0 12.67-10.506 22.931-23.454 22.931-12.947 0-23.454-10.262-23.454-22.931 0-12.67 10.507-22.932 23.454-22.932 1.822 0 3.62.204 5.365.603l.007-.025c2.104.593 4.296-.59 4.897-2.628.58-1.964-.528-4.018-2.503-4.68l-.15-.047-.118-.027c-.953-.183-1.938.259-2.213.892l-.039.107c-.33 1.12.328 2.011 2.143 1.698l.198-.039.414 1.957c-3.539.748-5.419-1.648-4.673-4.182.528-1.785 2.667-2.807 4.649-2.376zm-5.615 42.344l1.397 1.431a9.75 9.75 0 01-6.829 2.761 9.751 9.751 0 01-6.586-2.532l-.243-.229 1.398-1.43a7.745 7.745 0 005.431 2.191 7.76 7.76 0 005.198-1.973l.234-.219zM28.823 37.87l.015.203-1.998.095c-.054-1.14-1.055-2.03-2.247-1.976-1.137.051-2.019.946-2.046 2.02l.002.148-1.998.095c-.107-2.254 1.667-4.157 3.951-4.261 2.214-.1 4.11 1.523 4.321 3.676zm13.496-.494l.015.204-1.998.095c-.054-1.14-1.056-2.03-2.247-1.977-1.137.052-2.019.947-2.045 2.02l.002.148-1.998.096c-.109-2.254 1.666-4.158 3.95-4.261 2.214-.101 4.11 1.523 4.32 3.675z" fill="currentColor" fill-rule="nonzero"/></g></svg>