<svg width="70" height="70" xmlns="http://www.w3.org/2000/svg" xmlns:xlink="http://www.w3.org/1999/xlink"><defs><path d="M10 20v3h8.426L35 12.642 51.574 23H60v-3h-7.563L35 9.344 17.563 20H10zM35 7l18 11h9v7h-3v3h-2v5h-2v19h3v5h6v7H6v-7h6v-5h3V33h-2v-5h-2v-3H8v-7h9L35 7zm27 52H8v3h54v-3zM30 28h-7v5h-2v19h3v5h5v-5h3V33h-2v-5zm17 0h-7v5h-2v19h3v5h5v-5h3V33h-2v-5zm9 26h-8v3h8v-3zm-17 0h-8v3h8v-3zm-17 0h-8v3h8v-3zm31-21h-2v19h2V33zm-17 0h-2v19h2V33zm-17 0h-2v19h2V33zm36-5h-6v3h6v-3zm-17 0h-6v3h6v-3zm-17 0h-6v3h6v-3zm14-13L19 25h-6v1h44v-1h-6L35 15z" id="a"/></defs><g fill="none" fill-rule="evenodd"><path d="M0 0h70v70H0z"/><use fill="currentColor" fill-rule="nonzero" xlink:href="#a"/></g></svg>