<svg width="70" height="70" xmlns="http://www.w3.org/2000/svg"><g fill="none" fill-rule="evenodd"><path d="M0 0h70v70H0z"/><path d="M32.5 53a5.5 5.5 0 110 11 5.5 5.5 0 010-11zm0 2a3.5 3.5 0 100 7 3.5 3.5 0 000-7zM54.53 5.81l5.331 22.904 2.942.626-5.407 25.438-6.174-1.358c-.646 3.323-3.345 5.764-6.515 5.709-3.635-.064-6.476-3.363-6.407-7.318.007-.408.045-.812.112-1.207l-2.466-.542.43-1.954 19.482 4.284 4.573-21.512-43.039-9.148-2.995 14.088.023.098-.046.01-1.556 7.323 5.937 1.26a7 7 0 11-.415 1.958l-7.894-1.677 1.903-8.954-3.592-15.513-.632-2.735-.225-.975L20.527 13.7l.45 1.949-10.678 2.465.406 1.76 2.626 11.342 2.52-11.856L57.7 28.255 53.035 8.208 25.75 14.507l-.45-1.949L54.53 5.81zM40.3 51.846c-.051 2.898 1.965 5.24 4.442 5.283 2.165.038 4.074-1.702 4.525-4.138l-8.898-1.957a5.997 5.997 0 00-.07.812zm-14.887-9.913a5 5 0 10-.175 9.998 5 5 0 00.175-9.998zM55.33 31.819a3 3 0 11-1.247 5.868 3 3 0 011.247-5.868zm-6.847-1.456a3 3 0 11-1.247 5.87 3 3 0 011.247-5.87zm5.245 4.182a1 1 0 101.957.416 1 1 0 00-1.957-.416zm-11.603-5.533l1.957.416-1.248 5.868-1.956-.415 1.247-5.87zm4.756 4.078a1 1 0 101.957.416 1 1 0 00-1.957-.416zM38.41 13.643l1.35 5.846-1.95.45-1.35-5.846 1.95-.45zm7.982 1.236a3 3 0 11-5.846 1.35 3 3 0 015.846-1.35zm6.82-1.574a3 3 0 11-5.845 1.35 3 3 0 015.846-1.35zm-9.968 1.275a1 1 0 10.45 1.948 1 1 0 00-.45-1.948zm6.82-1.575a1 1 0 10.45 1.949 1 1 0 00-.45-1.949z" fill="currentColor" fill-rule="nonzero"/></g></svg>