<svg width="70" height="70" xmlns="http://www.w3.org/2000/svg" xmlns:xlink="http://www.w3.org/1999/xlink"><defs><path d="M10.62 50.924l.726 1.864a13 13 0 01-8.72.25l.617-1.902a11 11 0 007.378-.212zm36.76 0a11 11 0 007.377.212l.617 1.903a13 13 0 01-8.72-.25l.725-1.865zm-26.006-1.042l4.235 1.373-.617 1.902-4.235-1.372a11 11 0 00-7.378.212l-.725-1.864a13 13 0 018.72-.25zm23.972.251l-.725 1.864a11 11 0 00-7.378-.212l-4.235 1.372-.617-1.902 4.235-1.373a13 13 0 018.72.251zm-23.972-4.25l4.235 1.372a11 11 0 006.782 0l4.235-1.373a13 13 0 018.72.251l2.033.791a11 11 0 007.378.212l1.935-.627.616 1.903-1.934.627a13 13 0 01-8.72-.25l-2.033-.792a11 11 0 00-7.378-.212l-4.235 1.372a13 13 0 01-8.016 0l-4.235-1.372a11 11 0 00-7.378.212l-2.033.791a13 13 0 01-8.72.25l-1.934-.626.616-1.903 1.935.627a11 11 0 007.378-.212l2.033-.79a13 13 0 018.72-.252zm7.731-25.877l20.489 2.163a2 2 0 011.658 2.704l-7.456 19.484-1.868-.714 7.456-19.485L29 22.006 8.616 24.158l7.456 19.485-1.868.714-7.456-19.484a2 2 0 011.658-2.704l20.49-2.163h.21zM29 31a1 1 0 011 1v10a1 1 0 01-2 0V32a1 1 0 011-1zm0-8a1 1 0 011 1v4a1 1 0 01-2 0v-4a1 1 0 011-1zm2-23a2 2 0 012 2v3.999L39.523 6a3 3 0 012.867 2.118l3.566 11.588-1.912.588L40.48 8.706A1 1 0 0039.523 8L33 7.999V8h-8v-.001L18.477 8a1 1 0 00-.956.706l-3.565 11.588-1.912-.588L15.61 8.118A3 3 0 0118.477 6L25 5.999V2a2 2 0 012-2h4zm-4 10a1 1 0 110 2h-5.558a1 1 0 00-.949.684l-1.544 4.632a1 1 0 11-1.897-.632l1.544-4.633A3 3 0 0121.442 10H27zm4-8h-4v4h4V2z" id="a"/></defs><g fill="none" fill-rule="evenodd"><path d="M0 0h70v70H0z"/><use fill="currentColor" fill-rule="nonzero" xlink:href="#a" transform="translate(6 7)"/></g></svg>