<svg width="70" height="70" xmlns="http://www.w3.org/2000/svg"><g fill="none" fill-rule="evenodd"><path d="M0 0h70v70H0z"/><path d="M45 11v7h16.5a2.5 2.5 0 012.5 2.5v35a2.5 2.5 0 01-2.5 2.5h-53A2.5 2.5 0 016 55.5v-35A2.5 2.5 0 018.5 18H25v-7h20zm17 13.079L53.35 31H42v10H28V31H16.65L8 24.08V55.5a.5.5 0 00.5.5h53a.5.5 0 00.5-.5V24.079zM52 33v20h-2V33h2zm-32 0v20h-2V33h2zm41.5-13h-53a.5.5 0 00-.5.5v1.02L17.35 29H32v2h-2v8h10v-8h-2v-2h14.65L62 21.519V20.5a.5.5 0 00-.5-.5zM35 32a3 3 0 110 6 3 3 0 010-6zm0 2a1 1 0 100 2 1 1 0 000-2zm8-18H27v2h16v-2zm0-3H27v1h16v-1z" fill="currentColor" fill-rule="nonzero"/></g></svg>