<svg width="70" height="70" xmlns="http://www.w3.org/2000/svg"><g fill="none" fill-rule="evenodd"><path d="M0 0h70v70H0z"/><path d="M33 42a5 5 0 110 10.001A5 5 0 0133 42zm0 2A3 3 0 1033 50 3 3 0 0033 44zm22.77-25l5.278 20.053L58.443 46 64 46v2l-6.307-.001V48H40v-2h16l.306-.001 2.645-7.053L54.228 21H11.811l-3.58 17H13v2H8.443l2.25 6H26v2H9.307l-3.345-8.921L10.189 19H55.77zM26 25v19h-2V27h-7v17h-2V25h11zm14 10v2h-9v-2h9zm8-10v8H31v-8h17zm-2 2H33v4h13v-4z" fill="currentColor" fill-rule="nonzero"/></g></svg>