<svg width="70" height="70" xmlns="http://www.w3.org/2000/svg" xmlns:xlink="http://www.w3.org/1999/xlink"><defs><path d="M28 0c1.21 0 2 1.185 2 2.5V5h3a2 2 0 011.732 1h7.125C44.181 6 46 8.109 46 10.643v43.714C46 56.891 44.18 59 41.857 59H4.143C1.819 59 0 56.891 0 54.357V10.643C0 8.109 1.82 6 4.143 6h7.125A2 2 0 0113 5h3V2.5c0-1.315.79-2.5 2-2.5h10zM11 8H4.143C2.995 8 2 9.153 2 10.643v43.714C2 55.847 2.995 57 4.143 57h37.714C43.005 57 44 55.847 44 54.357V10.643C44 9.153 43.005 8 41.857 8H35v2h5a2 2 0 012 2v36.414L35.414 55H6a2 2 0 01-2-2V12a2 2 0 012-2h5V8zm0 4H6v41h28v-6h6V12h-5v1a2 2 0 01-2 2H13a2 2 0 01-2-2v-1zm27.585 37H36v2.585L38.585 49zM36 35v2H9v-2h27zm0-5v2H9v-2h27zm0-5v2H9v-2h27zm-11-5v2H9v-2h16zm2.879-18h-9.758a.964.964 0 00-.121.5V7h-5v6h20V7h-5V2.5c0-.208-.05-.39-.121-.5zM23 4a3 3 0 110 6 3 3 0 010-6zm0 2a1 1 0 100 2 1 1 0 000-2z" id="a"/></defs><g fill="none" fill-rule="evenodd"><path d="M0 0h70v70H0z"/><use fill="currentColor" fill-rule="nonzero" xlink:href="#a" transform="translate(12 5)"/></g></svg>