<svg width="70" height="70" xmlns="http://www.w3.org/2000/svg"><g fill="none" fill-rule="evenodd"><path d="M0 0h70v70H0z"/><path d="M32 14v4h8v6h-5v16H12v2h21v2H12l-.001 2H32v2H12v2h20v2H12l-.001 2H33v2H12v2h23v6H10V22h5v-2H7v-6h25zm17 20c8.284 0 15 6.716 15 15 0 8.284-6.716 15-15 15-8.284 0-15-6.716-15-15 0-8.284 6.716-15 15-15zM33 60H12v2h21v-2zm16-24c-7.18 0-13 5.82-13 13s5.82 13 13 13 13-5.82 13-13-5.82-13-13-13zm0 2c6.075 0 11 4.925 11 11 0 1.06-.15 2.086-.43 3.057l-.036.121-.008.028a10.923 10.923 0 01-2.06 3.817l.016-.018a11.063 11.063 0 01-2.072 1.935l-.035.025c-.068.049-.136.096-.204.142l-.07.047a10.91 10.91 0 01-1.565.87l-.123.055a7.597 7.597 0 01-.265.112c-.367.15-.744.28-1.13.39l-.11.03-.17.046-.06.014a10.99 10.99 0 01-2.39.325L49 60c-6.075 0-11-4.925-11-11a11.16 11.16 0 01.202-2.109l.002-.01a11.012 11.012 0 018.638-8.67l.062-.012c.11-.02.22-.04.33-.058l-.392.07a10.963 10.963 0 011.28-.176l.008-.001A10.996 10.996 0 0149 38zm0 2l-.316.005a9.12 9.12 0 00-.289.015l.153-.009a9.079 9.079 0 00-.318.022l.165-.013c-.15.01-.3.024-.448.04l.283-.027c-.124.01-.247.023-.369.038l.086-.01a8.998 8.998 0 00-.325.044l.24-.034a8.99 8.99 0 00-.316.046l.076-.012c-.124.019-.247.04-.37.065l.294-.053a9.009 9.009 0 00-7.363 7.07l-.016.077-.053.298a8.977 8.977 0 00-.093.811l.01-.136c-.008.11-.016.22-.02.33l.01-.194a9.102 9.102 0 00-.015.307l.004-.112a9 9 0 0011.494 9.079l.139-.041-.138.04a8.929 8.929 0 00.89-.308l-.106.042c.087-.034.174-.07.26-.107l-.154.065c.079-.032.157-.066.235-.1l-.08.035a8.95 8.95 0 00.264-.119l-.184.084c.087-.039.174-.079.26-.12l-.076.036c.075-.035.15-.07.223-.108l-.147.072c.087-.042.173-.085.259-.129l-.112.057c.09-.045.178-.091.265-.139l-.153.082a8.987 8.987 0 00.688-.398l-.12.075a9.013 9.013 0 00.589-.396l-.14.1c.066-.046.132-.094.198-.142l-.058.042c.069-.05.137-.102.205-.154l-.147.112c.08-.06.158-.12.235-.181l-.088.069a9.053 9.053 0 00.694-.596l-.037.034a9.056 9.056 0 00.674-.707l-.08.092c.064-.073.127-.146.189-.22l-.109.128c.057-.066.112-.133.167-.2l-.058.071c.057-.07.114-.14.17-.212l-.112.14a9.028 9.028 0 00.607-.848l-.026.04c.039-.06.076-.12.113-.181l-.087.14c.059-.092.116-.187.172-.282l-.085.142c.045-.075.09-.15.132-.226l-.047.084.108-.192-.06.108.128-.235-.068.127c.153-.28.292-.568.416-.864l.041-.103-.041.103c.032-.078.064-.157.094-.236l-.053.133c.036-.088.07-.176.102-.265l-.049.132c.034-.087.066-.175.096-.263l-.047.13a8.93 8.93 0 00.093-.265l-.046.135c.042-.119.08-.238.117-.359l.013-.046A9 9 0 0049 40zm1.304 2.8v9.36h1.584V54h-5.296v-1.84h1.536v-7.488h-1.344V42.8h3.52zM33 36H12v2h21v-2zm0-4H12v2h21v-2zm0-4H12v2h21v-2zm0-4H12v2h21v-2zm5-4H17v2h21v-2zm-8-4H9v2h21v-2z" fill="currentColor" fill-rule="nonzero"/></g></svg>