<svg width="70" height="70" xmlns="http://www.w3.org/2000/svg"><g fill="none" fill-rule="evenodd"><path d="M0 0h70v70H0z"/><path d="M56.5 50h-1a2.5 2.5 0 00-2.5 2.5v5a2.5 2.5 0 002.5 2.5h1a2.5 2.5 0 002.5-2.5v-5a2.5 2.5 0 00-2.5-2.5zm1.5 2v3h-4v-3h4zm-8.286-8.5h3.143c2.32 0 3.594 1.338 3.992 3.418.072.378.111.714.132 1.107A4.501 4.501 0 0161 52.5v5a4.5 4.5 0 01-4.5 4.5h-1a4.5 4.5 0 01-4.5-4.5v-5a4.5 4.5 0 013.976-4.47 5.683 5.683 0 00-.092-.736c-.233-1.219-.78-1.794-2.027-1.794h-3.143C45.822 45.5 44 43.912 44 40h-8v8h7v2H21v-2h7v-8H11V12h42v28h-7c0 2.742.87 3.5 3.714 3.5zM34 40h-4v8h4v-8zm17-26H13v24h38V14zm-25.707 3.293l1.414 1.414-9 9-1.414-1.414 9-9zm-5-1l1.414 1.414-5 5-1.414-1.414 5-5z" fill="currentColor" fill-rule="nonzero"/></g></svg>