<svg width="70" height="70" xmlns="http://www.w3.org/2000/svg" xmlns:xlink="http://www.w3.org/1999/xlink"><defs><path d="M18.793 6.391c3.466 4.515 6.344 5.948 11.489 5.948h12.913C49.322 12.34 52 15.546 52 21c0 4.487-3.449 7.744-8.23 7.987-2.417 4.529-6.631 8.031-11.791 9.555a5 5 0 11-.577-1.915C38.78 34.452 44 27.788 44 20.088c0-1.893-.368-3.44-1.27-5.747l-12.448-.002c-5.77 0-9.233-1.724-13.075-6.73l1.586-1.218zM27 36a3 3 0 100 6 3 3 0 000-6zM27.048.858c5.8 0 11.297 2.44 14.898 6.697l-1.527 1.292c-3.213-3.798-8.148-5.99-13.371-5.99-9.992 0-18.343 8.157-18.343 17.956 0 2.383.733 5.236 1.895 7.77L11.25 30H9.69C3.848 30 .229 26.36.229 21.658c0-4.254 3.698-8.392 8.102-8.58C11.457 5.937 18.74.858 27.048.858zm5.687 23.592l1.481 1.345c-1.918 2.113-4.51 3.327-7.28 3.327-2.727 0-5.282-1.176-7.193-3.232l1.465-1.361c1.542 1.659 3.572 2.593 5.728 2.593 2.19 0 4.25-.965 5.799-2.672zM7.549 15.185c-2.923.606-5.32 3.544-5.32 6.473 0 3.188 2.137 5.703 5.915 6.237-.898-2.362-1.439-4.866-1.439-7.082 0-1.95.295-3.84.844-5.628zm37.358-.74l.072.201c.712 2 1.021 3.56 1.021 5.442 0 2.377-.444 4.664-1.26 6.781 3.17-.555 5.26-2.832 5.26-5.87 0-3.867-1.43-6.065-5.093-6.554z" id="a"/></defs><g fill="none" fill-rule="evenodd"><path d="M0 0h70v70H0z"/><use fill="currentColor" fill-rule="nonzero" xlink:href="#a" transform="translate(9 13)"/></g></svg>