<svg width="70" height="70" xmlns="http://www.w3.org/2000/svg" xmlns:xlink="http://www.w3.org/1999/xlink"><defs><path d="M43 0v21.107h-2V2H2v54h39v-8h2v10H0V0h43zM12.518 39.098c2.37 1.202 2.634 3.374 1.729 6.737-.094.349-.193.691-.341 1.185-.55 1.837-.677 2.322-.72 2.934-.04.548.028.686.262.76.438.14 1.047-.602 2.208-2.941l.133-.268c1.667-3.367 2.518-4.492 4.331-4.333 1.219.106 2.031.715 2.309 1.725.183.665.128 1.337-.09 2.381l-.073.337c-.172.784-.232 1.134-.224 1.365v.016l.037-.003h4.936v2h-4.936c-1.139 0-1.88-.634-2.014-1.664-.072-.563-.01-.967.247-2.141l.069-.32c.155-.742.191-1.18.12-1.44-.045-.162-.132-.227-.555-.264-.52-.045-1.167.81-2.365 3.228l-.133.27c-1.692 3.41-2.653 4.578-4.605 3.959-1.249-.397-1.75-1.43-1.653-2.809.06-.828.193-1.34.8-3.366.143-.478.238-.804.326-1.13.684-2.544.53-3.809-.703-4.435-2.343-1.188-3.898 1.179-4.55 8.334l-1.993-.181c.764-8.364 3.209-12.087 7.448-9.936zM48.8 21.586l8.614 8.614-20.8 20.8H28v-8.614l20.8-20.8zM30 45.415V49h3.585L30 45.415zm14.4-16.6L30.315 42.9l5.785 5.785L50.185 34.6 44.4 28.815zm1.893 4.478l1.414 1.414-11 11-1.414-1.414 11-11zm2.507-8.879L45.815 27.4l5.785 5.785 2.986-2.985-5.786-5.786zM21 21v2H8v-2h13zm12-5v2H8v-2h25zm0-5v2H8v-2h25z" id="a"/></defs><g fill="none" fill-rule="evenodd"><path d="M0 0h70v70H0z"/><use fill="currentColor" fill-rule="nonzero" xlink:href="#a" transform="translate(9 6)"/></g></svg>