<svg width="70" height="70" xmlns="http://www.w3.org/2000/svg"><g fill="none" fill-rule="evenodd"><path d="M0 0h70v70H0z"/><path d="M52 7l.001 6.05C57.054 13.551 61 17.814 61 23c0 5.223-4.005 9.511-9.11 9.961-.78 6.776-5.543 12.341-11.89 14.292v9.122C40 58.915 42.225 61 45 61h6v2H19v-2h6c2.775 0 5-2.086 5-4.625v-9.122c-6.346-1.95-11.11-7.515-11.888-14.293C13.005 32.511 9 28.223 9 23c0-5.185 3.947-9.449 9-9.95V7h34zM35 48c-1.023 0-2.026-.09-3-.264v8.639c0 1.804-.76 3.434-1.988 4.625h9.976C38.759 59.81 38 58.18 38 56.375v-8.639c-.974.173-1.976.264-3 .264zM50 9H20v4h16v2H20v2h11v2H20v12c0 8.284 6.716 15 15 15 8.284 0 15-6.716 15-15V9zm2.001 6.062v2.021a6.002 6.002 0 010 11.834v2.021a8.001 8.001 0 000-15.876zM11 23a8.001 8.001 0 007 7.938v-2.02a6.002 6.002 0 010-11.835v-2.021A8.001 8.001 0 0011 23zm4 0a4.002 4.002 0 003 3.874v-7.748c-1.725.444-3 2.01-3 3.874zm37-3.874v7.748a4.002 4.002 0 000-7.748zM43 13v2h-5v-2h5z" fill="currentColor" fill-rule="nonzero"/></g></svg>