<svg width="70" height="70" xmlns="http://www.w3.org/2000/svg" xmlns:xlink="http://www.w3.org/1999/xlink"><defs><path d="M2 49h4v2H0V0h44v51H27v-2h15V2H2v47zm22 0v2H9v-2h15zM11.164 19.014l6.428 1.07 4.24 6.361-.072.048 6.79 4.497-2.182 6.502L35 41.78V49h-2v-5.98l-9.082-4.512 2.247-6.698-4.541-3.008-1.648 7.415-1.952-.434 1.687-7.598-11.145 1.904L5.2 25.6l1.6-1.2 2.634 3.511 9.85-1.682-2.876-4.314-5.572-.929.328-1.972zM17 2v5.27l5.928 1.904L24.915 13l6.004-.001-3.184-3.98L31.2 4.4l1.6 1.2-2.535 3.38 2.909 3.638L36.4 10.2l1.2 1.6-3.985 2.987v6.721l9.995 7.7-1.22 1.584-10.775-8.3V15H23.7l-2.167-4.174L15 8.73V2h2z" id="a"/></defs><g fill="none" fill-rule="evenodd"><path d="M0 0h70v70H0z"/><use fill="currentColor" fill-rule="nonzero" xlink:href="#a" transform="translate(13 10)"/></g></svg>