<svg width="70" height="70" xmlns="http://www.w3.org/2000/svg" xmlns:xlink="http://www.w3.org/1999/xlink"><defs><path d="M23.84.684c4.398 1.14 7.253 3.962 8.813 7.905C33.673 11.169 34 13.69 34 16.26c0 2.878-1.415 5.045-4.127 5.6 7.467 7.278 11.505 14.648 12.06 22.104 3.801-.276 6.36-2.3 6.941-6.184a3 3 0 112.008.087c-.665 5.029-4.076 7.77-8.884 8.099L42 45.75c0 3.122-.77 6.973-2.301 11.566L39.47 58H3v-4a7 7 0 017-7h1V23h2v24h4v2h-7a5 5 0 00-5 5v2h33.025C39.345 51.899 40 48.478 40 45.75c0-7.96-4.34-15.94-13.102-23.946C24.128 21.032 23 17.98 23 13h2c0 4.846 1.039 7 3.429 7C30.869 20 32 18.593 32 16.26c0-2.34-.298-4.637-1.207-6.936-1.338-3.382-3.72-5.735-7.456-6.704-5.673-1.47-9.383-.189-11.447 3.836L11.61 7H2v4.017c0 5.367 9.579 9.055 15.555 6.087l.89 1.792C11.29 22.449 0 18.1 0 11.017V5h10.405C12.995.495 17.568-.941 23.84.684zM27.072 34c1.608 0 3.148.449 4.46 1.278l-1.067 1.69A6.338 6.338 0 0027.073 36C23.707 36 21 38.556 21 41.679c0 2.433 1.655 4.583 4.09 5.37l-.615 1.903C21.235 47.905 19 45.002 19 41.679 19 37.425 22.627 34 27.073 34zM50 34a1 1 0 100 2 1 1 0 000-2zM16 5a3 3 0 110 6 3 3 0 010-6zm0 2a1 1 0 100 2 1 1 0 000-2z" id="a"/></defs><g fill="none" fill-rule="evenodd"><path d="M0 0h70v70H0z"/><use fill="currentColor" fill-rule="nonzero" xlink:href="#a" transform="translate(10 6)"/></g></svg>