<svg width="70" height="70" xmlns="http://www.w3.org/2000/svg"><g fill="none" fill-rule="evenodd"><path d="M0 0h70v70H0z"/><path d="M47.24 32c5.652 0 10.239 4.55 10.239 10.167 0 1.884-.516 3.648-1.416 5.16 4.251 1.696 6.91 5.206 6.91 9.673v7h-2v-7c0-3.766-2.324-6.669-6.15-8.004a10.243 10.243 0 01-7.584 3.337 10.245 10.245 0 01-7.357-3.096C36.279 50.704 34 53.537 34 57v7h-2v-7c0-4.173 2.592-7.565 6.593-9.386A10.058 10.058 0 0137 42.167C37 36.55 41.586 32 47.24 32zM28.371 8c4.541 0 8.763 1.967 11.665 5.321l-1.512 1.309A13.385 13.385 0 0028.372 10C20.985 10 15 15.938 15 23.26c0 7.32 5.985 13.259 13.372 13.259s13.372-5.939 13.372-13.26c0-.576-.037-1.147-.11-1.71h-10.35c-3.194 0-6.456-2.366-8.056-5.682l1.801-.869c1.286 2.666 3.886 4.55 6.255 4.55H43.31l.157.81c.184.95.277 1.92.277 2.901 0 8.43-6.884 15.26-15.372 15.26a15.385 15.385 0 01-11.717-5.382C10.819 34.86 8 38.427 8 44v20H6V44c0-6.263 3.19-10.501 9.392-12.564A15.094 15.094 0 0113 23.259C13 14.83 19.884 8 28.372 8zM47.24 34C42.687 34 39 37.658 39 42.167c0 4.508 3.687 8.166 8.24 8.166 4.551 0 8.239-3.658 8.239-8.166 0-4.509-3.688-8.167-8.24-8.167z" fill="currentColor" fill-rule="nonzero"/></g></svg>