<svg width="70" height="70" xmlns="http://www.w3.org/2000/svg"><g fill="none" fill-rule="evenodd"><path d="M0 0h70v70H0z"/><path d="M41 10.665L61.426 28.84l-1.33 1.494L58 28.468V54h6v2H24v-6.806a7.704 7.704 0 01-2.911 1.162l-.001 3.643L22 54v2H6v-2l3.5-.001V48.2a4.675 4.675 0 113.221-8.73A7.737 7.737 0 0119.737 35c1.547 0 3.02.457 4.264 1.28L24 28.5l-2.056 1.833-1.33-1.492 20.385-18.176zM13.538 47.368l-.1.077a4.658 4.658 0 01-1.938.831L11.5 54h7.588v-3.552a7.711 7.711 0 01-4.642-2.065 7.782 7.782 0 01-.907-1.014zM41 13.343L26 26.717V54l6-.001V38h18v15.999L56 54V32.999L28 33v-2l28-.001v-4.31L41 13.343zm3.999 35.893l-2.381 4.763h4.763l-2.382-4.763zm-7.999 0l-2.382 4.763h4.763L37 49.236zm11-6.001L46.118 47 48 50.764v-7.529zm-8 0L38.118 47 40 50.764v-7.529zm2 .003v7.524L43.881 47 42 43.238zm-8-.001v7.525L35.881 47 34 43.237zM19.737 37a5.737 5.737 0 104.241 9.6l.022-.026v-7.675l-.088-.097A5.717 5.717 0 0019.737 37zm-9.062 4a2.675 2.675 0 101.868 4.588 7.788 7.788 0 01-.432-4.168 2.638 2.638 0 00-1.436-.42zm28.707-1.002h-4.765L37 44.763l2.382-4.765zm8 0h-4.765L45 44.763l2.382-4.765zM41 19a6 6 0 016 6v1H35v-1a6 6 0 016-6zm0 2a4.002 4.002 0 00-3.83 2.845l-.044.155h7.747l-.042-.155a4.003 4.003 0 00-3.631-2.84z" fill="currentColor" fill-rule="nonzero"/></g></svg>