<svg width="70" height="70" xmlns="http://www.w3.org/2000/svg" xmlns:xlink="http://www.w3.org/1999/xlink"><defs><path d="M22 55v1h16v-1H22zm8-55a3 3 0 011 5.83V7h21.389l7.09 6.5-7.09 6.5H34v-2h17.611l4.91-4.5L51.61 9H31v44h9v5H20v-5h9V15H8.389l-4.91 4.5L8.39 24H26v2H7.611l-7.09-6.5L7.61 13H29V5.829A3.001 3.001 0 0130 0zm0 2a1 1 0 100 2 1 1 0 000-2zm4 10v2h-2v-4h17v2H34z" id="a"/></defs><g fill="none" fill-rule="evenodd"><path d="M0 0h70v70H0z"/><use fill="currentColor" fill-rule="nonzero" xlink:href="#a" transform="translate(5 6)"/></g></svg>