<svg width="70" height="70" xmlns="http://www.w3.org/2000/svg"><g fill="none" fill-rule="evenodd"><path d="M0 0h70v70H0z"/><path d="M46 62v2H33v-2h13zM26.5 24.706L43.92 39 44 39v.065l2.634 2.162-1.268 1.546L44 41.653V62h-2V40.012L26.5 27.294 11 40.01V62h3V48h12v14h2v2H7v-2h2V41.652l-1.366 1.121-1.268-1.546L9 39.065V39l.08-.001L26.5 24.706zM24 62V50h-8v12h8zm15-14v10H29V48h10zm-2 2h-6v6h6v-6zM26.5 32.738l7.11 5.47-1.22 1.585-5.89-4.531-5.89 4.53-1.22-1.585 7.11-5.469zM64.051 25v9h-2v-9h2zm-7.945-2.027l1.79.89-2.298 4.626-1.791-.89 2.299-4.626zm-5.813-4.68l1.414 1.414-7 7-1.414-1.414 7-7zM51 6c0 7.18 5.82 13 13 13v2c-8.284 0-15-6.716-15-15h2zm-5.453 6.94l1.017 1.722-4.447 2.627-1.017-1.722 4.447-2.627zM44 6v2h-9V6h9z" fill="currentColor" fill-rule="nonzero"/></g></svg>