<svg width="70" height="70" xmlns="http://www.w3.org/2000/svg"><g fill="none" fill-rule="evenodd"><path d="M0 0h70v70H0z"/><path d="M44.74 19.327L56.266 32h-2.262a9.962 9.962 0 00-6.38 2.303l.877.87a8.8 8.8 0 11-1.408 1.42l-.874-.867a9.949 9.949 0 00-2.215 5.995L44 42v.414L39.414 47H26.54l-6.607-7.708-3.485 3.457-1.408-1.42 3.588-3.56L14.54 33H10v-2h5.46l12 14h11.124l3.424-3.424.007-.183c.277-5.533 4.317-10.089 9.609-11.156l.286-.054-8.65-9.51 1.48-1.346zM14.028 33.47l.454 1.947a6.801 6.801 0 107.715 9.492l.135-.31 1.853.752A8.8 8.8 0 1113.69 33.554l.338-.085zm39.976 1.77a6.77 6.77 0 00-4.071 1.354l4.776 4.736-1.409 1.42-4.775-4.737a6.8 6.8 0 105.48-2.773zm-37.861 2.01l-.046 2a2.796 2.796 0 102.719 2.508l-.027-.196 1.97-.343a4.796 4.796 0 11-4.869-3.967l.253-.001zm37.753 0a4.796 4.796 0 11-4.653 4.216l.037-.247 1.97.343a2.797 2.797 0 102.892-2.31l-.2-.002-.046-2zM39 39v2h-6v-2h6zm0-3v2h-4v-2h4zm-17.74-9l8.932 4.962 10.84-1.545a3.322 3.322 0 002.966-2.96l.015-.25.002-.113 2 .02-.005.248c-.116 2.54-2.026 4.648-4.508 5.012l-.228.028-11.466 1.635L20.74 29 10 29v-2h11.26zM45 24v2h-5v-2h5z" fill="currentColor" fill-rule="nonzero"/></g></svg>