<svg width="70" height="70" xmlns="http://www.w3.org/2000/svg" xmlns:xlink="http://www.w3.org/1999/xlink"><defs><path d="M42 22.005a19.93 19.93 0 00-6.606-14.849l-3.385 4.207c7.135 6.512 8.059 17.52 1.928 25.136a18.348 18.348 0 01-4.74 4.167C36.687 37.776 42 30.51 42 22.005zm2 0C44 34.151 34.15 44 22 44c-2.765 0-5.463-.518-8.012-1.514l.665-1.885c6.4 2.018 13.455-.046 17.726-5.356 5.65-7.019 4.577-17.272-2.388-22.984l-.766-.628 5.89-7.32.78.638C40.99 9.11 44 15.306 44 22.005zm-29.923 9.813l.77.629-5.879 7.294-.779-.628A21.95 21.95 0 010 21.995C0 9.849 9.85 0 22 0c3.09 0 6.094.642 8.87 1.87l-.747 1.854c-6.562-2.398-13.998-.4-18.442 5.12-5.645 7.025-4.572 17.277 2.396 22.974zM10.122 7.591a18.36 18.36 0 015.251-4.467C7.585 5.858 2 13.275 2 21.995a19.94 19.94 0 006.683 14.913l3.376-4.19c-7.137-6.5-8.061-17.506-1.937-25.127z" id="a"/></defs><g fill="none" fill-rule="evenodd"><path d="M0 0h70v70H0z"/><use fill="currentColor" fill-rule="nonzero" xlink:href="#a" transform="translate(13 13)"/></g></svg>