<svg width="70" height="70" xmlns="http://www.w3.org/2000/svg"><g fill="none" fill-rule="evenodd"><path d="M0 0h70v70H0z"/><path d="M42 53c3.136 0 5.804 1.019 7.952 3.045l.255.248c1.72 1.72 4.824 2.646 9.337 2.704L60 59v2c-5.081 0-8.756-1.006-11-3.094l-.207-.199C46.983 55.897 44.739 55 42 55c-2.62 0-4.788.821-6.554 2.476l-.239.231c-2.106 2.107-4.735 3.207-7.833 3.288L27 61H9v-2h18c2.62 0 4.788-.821 6.554-2.476l.239-.231C35.983 54.103 38.739 53 42 53zM24.999 24.635a1 1 0 011.002 0l14.56 8.437a1 1 0 01.432.507l1.94 5.063A1 1 0 0142 40h-4.5a1 1 0 01-.447-.106L34.5 38.618l-2.553 1.276a1 1 0 01-.331.1L31.5 40h-3a1 1 0 01-.447-.106l-1.554-.776L26.5 57h-2V39.118l-1.553.776a1 1 0 01-.217.08l-.114.02L22.5 40h-3a1 1 0 01-.447-.106L16.5 38.618l-2.553 1.276a1 1 0 01-.331.1L13.5 40H9a1 1 0 01-.934-1.358l1.941-5.063a1 1 0 01.433-.507zm-3.245 4.191l-10.006 5.799L10.454 38h2.808l2.58-1.29 5.912-7.884zM26.5 28.5L26.5 32h-2v-3.5l-6.482 8.641 1.719.859h2.525l2.237-1.119L24.5 34h2v2.881L28.736 38h2.525l1.718-.859L26.5 28.5zm2.745.326l5.912 7.884L37.737 38h2.808l-1.294-3.375-10.007-5.799zM50.5 28.5V33h-2v-4.5h2zm5.01-2.904l3.182 3.182-1.414 1.414-3.182-3.182 1.414-1.414zm-12.02 0l1.414 1.414-3.182 3.182-1.414-1.414 3.182-3.182zM49.5 15.5a5.5 5.5 0 110 11 5.5 5.5 0 010-11zm0 2a3.5 3.5 0 100 7 3.5 3.5 0 000-7zM42 20v2h-4.5v-2H42zm19.5 0v2H57v-2h4.5zm-19.778-8.192l3.182 3.182-1.414 1.414-3.182-3.182 1.414-1.414zm15.556 0l1.414 1.414-3.182 3.182-1.414-1.414 3.182-3.182zM50.5 9v4.5h-2V9h2z" fill="currentColor" fill-rule="nonzero"/></g></svg>