<svg width="70" height="70" xmlns="http://www.w3.org/2000/svg" xmlns:xlink="http://www.w3.org/1999/xlink"><defs><path d="M33 0a3 3 0 013 3v52a3 3 0 01-3 3H3a3 3 0 01-3-3V3a3 3 0 013-3h30zm1 46H2v9a1 1 0 001 1h30a1 1 0 001-1v-9zm-16 2a3 3 0 110 6 3 3 0 010-6zm0 2a1 1 0 100 2 1 1 0 000-2zm16-40H2v34h32V10zm-1-8H3a1 1 0 00-1 1v5h32V3a1 1 0 00-1-1zM19 4a1 1 0 010 2h-6a1 1 0 010-2h6zm4 0a1 1 0 010 2h-1a1 1 0 010-2h1z" id="a"/></defs><g fill="none" fill-rule="evenodd"><path d="M0 0h70v70H0z"/><use fill="currentColor" fill-rule="nonzero" xlink:href="#a" transform="translate(17 6)"/></g></svg>