<svg width="70" height="70" xmlns="http://www.w3.org/2000/svg"><g fill="none" fill-rule="evenodd"><path d="M0 0h70v70H0z"/><path d="M35 6c3.134 0 6.056 1.32 8.123 3.582l.218.246-1.516 1.305a9 9 0 10-12 13.23l.041-.015.02.059A9 9 0 0044 17a9.01 9.01 0 00-.37-2.566l-.029-.09h-6.293c-2.367 0-4.155-.639-5.408-1.735l-.184-.168c-.724-.689-1.126-1.395-1.306-1.948l-.043-.147 1.932-.515c.065.242.302.691.796 1.161.83.79 2.081 1.294 3.888 1.348l.325.005h7.689l.403 1.063c.396 1.146.6 2.356.6 3.592 0 2.81-1.054 5.374-2.788 7.318 3.318 1.08 5.672 3.935 5.784 7.42L49 32v15c0 2.843-2.706 4.9-5.775 4.996L43 52H32c-2.206 0-4.041-1.82-4-4.018.039-2.099 1.732-3.868 3.799-3.977L32 44h9V34h2v12H32c-1.056 0-1.98.931-2 2.019-.02 1.019.82 1.898 1.851 1.975L32 50h11c2.094 0 3.877-1.26 3.994-2.836L47 47V32c0-3-2.227-5.435-5.33-6.016l-.248-.043.003-.012A10.95 10.95 0 0135 28a10.95 10.95 0 01-5.341-1.382 6.434 6.434 0 00-3.406 5.424l-.005.257v4.334a12.992 12.992 0 013.237-.485l.307-.004v2c-6.075 0-11 4.925-11 11 0 2.754 1.014 5.347 2.817 7.352 2 2.225 4.81 3.551 7.845 3.643l.338.005v2c-1.306 0-2.582-.194-3.793-.562L26 64h-2l-.001-3.214a13.018 13.018 0 01-3.877-2.953 12.951 12.951 0 01-3.33-8.689c0-5.196 3.049-9.68 7.455-11.761v-5.084a8.433 8.433 0 013.62-6.926A10.975 10.975 0 0124 17c0-6.075 4.925-11 11-11zm10 48v10h-2V54h2zm-7.314-33.707l1.414 1.414a6.209 6.209 0 01-4.403 1.822 6.21 6.21 0 01-4.191-1.619l-.213-.203 1.414-1.414a4.21 4.21 0 002.99 1.236 4.21 4.21 0 002.813-1.07l.176-.166z" fill="currentColor" fill-rule="nonzero"/></g></svg>