<svg width="70" height="70" xmlns="http://www.w3.org/2000/svg" xmlns:xlink="http://www.w3.org/1999/xlink"><defs><path d="M12.689.897c1.592 0 3.106.666 4.372 1.918.566.523 2.976 2.933 7.23 7.231 2.742 2.74 2.742 6.291 0 9.032-.365.365-3.053 3.106-4.123 4.085-.653 1.039 3.354 7.522 6.72 10.441 3.366 2.92 9.283 6.671 9.842 6.122l4.124-4.112c1.319-1.318 2.859-2.01 4.464-2.01 1.618 0 3.145.705 4.411 2.023l7.166 7.192c1.318 1.305 2.01 2.858 2.01 4.476 0 1.606-.679 3.172-1.971 4.516-.561.588-4.02 4.085-4.033 4.112-1.984 2.153-4.516 3.236-7.53 3.236-.262 0-.549-.013-.823-.026-4.477-.287-8.484-1.97-11.485-3.393-7.858-3.798-14.736-9.188-20.452-16.014-4.712-5.665-7.87-10.95-9.985-16.654-.861-2.324-1.984-5.874-1.67-9.685.208-2.362 1.161-4.398 2.832-6.069L8.25 2.815C9.557 1.563 11.097.897 12.69.897zm0 2c-1.057 0-2.108.454-3.023 1.333L5.202 8.733c-1.34 1.34-2.087 2.939-2.253 4.818-.232 2.823.35 5.584 1.552 8.825 2.039 5.499 5.089 10.59 9.643 16.065 5.54 6.615 12.194 11.827 19.775 15.492 4.06 1.924 7.29 2.982 10.724 3.203.361.017.55.023.727.023 2.46 0 4.452-.852 6.049-2.58.15-.158.15-.158.232-.24a2939.13 2939.13 0 011.88-1.911c.924-.94 1.503-1.53 1.801-1.837l-10.47-10.47 1.415-1.414 10.248 10.246c.254-.544.38-1.102.38-1.658 0-1.069-.47-2.117-1.427-3.065l-7.165-7.191c-.93-.968-1.946-1.435-2.995-1.435-1.053 0-2.093.468-3.052 1.427l-4.133 4.12c-1.074 1.056-1.869.857-3.549.073-.758-.354-1.714-.893-2.784-1.563-2.15-1.346-4.525-3.074-6.223-4.546-1.742-1.51-3.696-3.922-5.246-6.366-1.973-3.114-2.818-5.12-1.857-6.65l.144-.23.2-.182c.368-.337.993-.946 1.802-1.751a586.6 586.6 0 002.067-2.08L11.301 6.716l1.398-1.43 11.222 10.979c.812-1.597.463-3.298-1.05-4.81-4.214-4.258-6.635-6.679-7.217-7.217-.903-.894-1.919-1.34-2.965-1.34z" id="a"/></defs><g fill="none" fill-rule="evenodd"><path d="M0 0h70v70H0z"/><use fill="currentColor" fill-rule="nonzero" xlink:href="#a" transform="translate(5 5)"/></g></svg>