<svg width="70" height="70" xmlns="http://www.w3.org/2000/svg"><g fill="none" fill-rule="evenodd"><path d="M0 0h70v70H0z"/><path d="M26 40a4 4 0 110 8 4 4 0 010-8zm24 0a4 4 0 110 8 4 4 0 010-8zm-24 2a2 2 0 100 4 2 2 0 000-4zm24 0a2 2 0 100 4 2 2 0 000-4zm7.693-22l6.408 17.088L59.581 45H55v-2h3.418l3.48-6.089L56.306 22H11.792l-3.53 15H14v2H8.618l2 4H21v2H9.382l-3.438-6.877L10.208 20h47.485zM45 43v2H31v-2h14zm-3-18v16h-2V27h-5v14h-2V25h9zm11.754 0l2.572 9H47v-9h6.754zm-1.509 2H49v5h4.674l-1.429-5zM26 25v7H14v-7h12zm-2 2h-8v3h8v-3z" fill="currentColor" fill-rule="nonzero"/></g></svg>