<svg width="70" height="70" xmlns="http://www.w3.org/2000/svg" xmlns:xlink="http://www.w3.org/1999/xlink"><defs><path d="M44.29 10.736l-2.464 11.65a19.273 19.273 0 012.174 8.9c0 4.604-1.632 8.968-4.586 12.522L41.914 58l-11.012-.008-2.523-7.19c-1.896.508-3.87.768-5.879.768-1.985 0-3.932-.254-5.813-.751l-2.597 7.174H3.088l2.478-14.207C2.63 40.25 1 35.886 1 31.286c0-3.14.757-6.177 2.19-8.931L.71 10.745l12.394 2.29A22.484 22.484 0 0122.5 11c3.336 0 6.566.718 9.493 2.08l12.296-2.344zM22.5 13c-3.113 0-6.12.684-8.832 1.979l-.293.14-10.084-1.864 2.009 9.4-.177.326A17.287 17.287 0 003 31.286c0 4.27 1.564 8.313 4.386 11.555l.313.359-2.232 12.794h7.22l2.762-7.632.912.283c1.972.613 4.03.926 6.139.926 2.137 0 4.226-.322 6.209-.946l.923-.29 2.688 7.66 7.21.004-2.25-12.778.313-.36C40.433 39.601 42 35.56 42 31.286c0-2.916-.728-5.733-2.106-8.275l-.176-.323 1.993-9.424-9.989 1.903-.298-.144A20.459 20.459 0 0022.5 13zM22 29a7 7 0 110 14 7 7 0 010-14zm0 2a5 5 0 100 10 5 5 0 000-10zm-1 4v2h-2v-2h2zm4 0v2h-2v-2h2zm4.934-11.962c2.48.437 4.038 3.013 3.564 5.705l-1.97-.347c.292-1.659-.613-3.154-1.941-3.388-1.328-.235-2.69.861-2.983 2.52l-1.97-.347c.475-2.693 2.821-4.58 5.3-4.143zm-10.568 4.143l-1.97.347c-.292-1.659-1.655-2.755-2.983-2.52-1.328.234-2.233 1.73-1.94 3.388l-1.97.347c-.475-2.692 1.084-5.268 3.563-5.705 2.479-.437 4.825 1.45 5.3 4.143zM22.437.193c6.853 0 12.605 5.11 13.453 11.85l-1.984.25c-.723-5.743-5.627-10.1-11.469-10.1-5.782 0-10.654 4.272-11.447 9.943l-1.98-.277C9.94 5.203 15.654.193 22.437.193zm3.37 5.737c.52 0 1.011.09 1.47.272.459.181.858.448 1.198.799.34.351.61.776.808 1.275.198.499.297 1.071.297 1.717v1.522c-.717-.215-1.442-.424-2.268-.542l-.035-1.07c-.028-.625-.14-1.777-1.47-1.777-.89-.038-1.488.38-1.545 1.64l.016.757c-.71-.085-1.46-.131-2.267-.12l.005-.41c0-.646.099-1.218.297-1.717a3.79 3.79 0 01.816-1.275 3.457 3.457 0 011.207-.799c.459-.181.95-.272 1.47-.272zm-6.647.17v4.504a14.61 14.61 0 00-2.313.388V8.089H15.42V6.1h3.74z" id="a"/></defs><g fill="none" fill-rule="evenodd"><path d="M0 0h70v70H0z"/><use fill="currentColor" fill-rule="nonzero" xlink:href="#a" transform="translate(13 6)"/></g></svg>