<svg width="70" height="70" xmlns="http://www.w3.org/2000/svg"><g fill="none" fill-rule="evenodd"><path d="M0 0h70v70H0z"/><path d="M21 41a5 5 0 110 10 5 5 0 010-10zm30 0a5 5 0 110 10 5 5 0 010-10zm-30 2a3 3 0 100 6 3 3 0 000-6zm30 0a3 3 0 100 6 3 3 0 000-6zm-3-26v23H9.416l1.79 5.044h3.43v2H9.794L7.293 40H6V17h42zm9.677 7L64 39.807V47h-7v-2h5v-4.806L56.323 26H52v-2h5.677zM45 45v2H27v-2h18zm6-21v16h-2V24h2zm-5-5H8v19h38V19zm9.66 9l3.857 9H52v-9h3.66zM27 34v2h-2v-2h2zm11 0v2h-2v-2h2zm-22 0v2h-2v-2h2zm38.34-4H54v5h2.483l-2.143-5z" fill="currentColor" fill-rule="nonzero"/></g></svg>