<svg width="70" height="70" xmlns="http://www.w3.org/2000/svg"><g fill="none" fill-rule="evenodd"><path d="M0 0h70v70H0z"/><path d="M33.506 39C36.02 39 38 41.266 38 44s-1.98 5-4.494 5H10.494C7.98 49 6 46.734 6 44s1.98-5 4.494-5zm6.201-18.707L56.425 37.01l-4.216 4.091a11.657 11.657 0 01-1.09.964l5.154 4.82c.404-.073.675-.19.953-.369.476-.308 3.346-3.361 4.55-4.66l.504-.548 1.441 1.384c-.332.345-.648.679-.964 1.015l-.956 1.03c-.23.252-1.177 1.288-1.4 1.53l-.386.413c-.727.766-1.193 1.186-1.704 1.516-.951.615-1.755.776-3.718.8L54 49H42v-2h11.466l-4.116-3.848c-.473.223-.954.4-1.442.534a8.486 8.486 0 01-2.332.317L38.999 44 39 42l6.258.002c1.834.028 3.385-.375 5.082-1.886l.306-.283.157-.154 2.77-2.69-9.08-9.08L38.088 34H14.46c-1.576 0-2.073.179-2.388 1.16l-.51 1.817-1.927-.535.474-1.698c.61-2.14 1.828-2.707 4.11-2.742L37.289 32l.497-.473L36.528 30H33v-2h4.472l1.767 2.146 3.841-3.651-4.787-4.788 1.414-1.414zM33.506 41H10.494C9.15 41 8 42.315 8 44s1.15 3 2.494 3h23.012C34.85 47 36 45.685 36 44s-1.149-3-2.494-3zM32 36v2H14v-2h18zm21.707-6.707l3 3-1.414 1.414-3-3 1.414-1.414z" fill="currentColor" fill-rule="nonzero"/></g></svg>