<svg width="70" height="70" xmlns="http://www.w3.org/2000/svg"><g fill="none" fill-rule="evenodd"><path d="M0 0h70v70H0z"/><path d="M59.116 6.547l.239 1.268c1.768 9.42 2.317 17.514 1.64 24.285-.898 8.985-6.538 12.9-14.02 12.9-3.175 0-5.902-.972-8.14-2.905L24.837 63.546l-1.674-1.092 6.725-10.307-10.712-15.58 1.648-1.134 3.716 5.403c2.754-2.712 3.428-4.75 1.21-7.909-1.94-2.764-6.392-4.73-13.375-5.794-.838 6.652-.264 11.386 1.642 14.187 1.165 1.71 2.913 2.126 5.532 1.207l.662 1.887c-3.417 1.199-6.129.555-7.847-1.969-2.342-3.44-2.924-8.964-1.836-16.586l.14-.983.985.133c8.054 1.093 13.306 3.31 15.734 6.77 1.702 2.424 2.008 4.743 1.157 6.897-.566 1.435-1.357 2.4-2.854 3.831l5.379 7.828L41.22 34.779 38.043 24.29l1.914-.58 2.69 8.882 6.868-10.523 1.675 1.093-6.663 10.21 9.213-2.48.52 1.93-11.373 3.065-2.946 4.516C41.85 42.138 44.178 43 46.975 43c6.546 0 11.246-3.263 12.03-11.1.626-6.259.167-13.742-1.383-22.443-10.28 4.84-16.982 8.308-20.065 10.374-4.993 3.345-6.892 11.268-2.899 15.282l-1.418 1.41c-4.985-5.01-2.741-14.37 3.203-18.354 3.313-2.22 10.466-5.901 21.504-11.074l1.17-.548z" fill="currentColor" fill-rule="nonzero"/></g></svg>