<svg width="70" height="70" xmlns="http://www.w3.org/2000/svg" xmlns:xlink="http://www.w3.org/1999/xlink"><defs><path d="M45.38 32.26l7.467 1.208.128.693c.416 2.243-.467 4.12-2.527 5.465l-.129.084-11.713 3.292-7.461 7.945-8.57 2.688 1.669-6.571-2.124.66-13.724-1.501-7.43-6.273 9.175-2.635 6.187 3.383 5.298-1.54-5.197-3.877 8.31-2.45 8.96 2.82 11.68-3.392zm.124 2.045l-29.411 8.543-6.19-3.384-4.785 1.374 4.102 3.463 12.704 1.389 2.897-.9.3-1.181 1.939.492-1.664 6.553 4.65-1.459 7.483-7.968 11.948-3.357c1.088-.747 1.6-1.606 1.598-2.662l-5.57-.903zm-20.785.617l-3.89 1.147 3.204 2.39 6.202-1.802-5.516-1.735zm7.62-9.506a3.564 3.564 0 110 7.129 3.564 3.564 0 010-7.13zm0 2a1.564 1.564 0 100 3.129 1.564 1.564 0 000-3.13zm-7.943-11.417a5.35 5.35 0 110 10.701 5.35 5.35 0 010-10.7zM16.777.487c4.818 0 8.783 3.65 9.282 8.335 4.676 0 8.389 3.713 8.389 8.294 0 1.59-.45 3.116-1.283 4.432l-1.69-1.07a6.293 6.293 0 00-5.321-9.655h-2.042v-1a7.335 7.335 0 00-14.67 0v1.002l-1.002-.003a6.278 6.278 0 00-6.291 6.284 6.293 6.293 0 006.293 6.293h8.335v2H8.442a8.293 8.293 0 01-8.293-8.293 8.28 8.28 0 017.34-8.231c.476-4.71 4.453-8.388 9.288-8.388zM24.397 18a3.35 3.35 0 100 6.701 3.35 3.35 0 000-6.7z" id="a"/></defs><g fill="none" fill-rule="evenodd"><path d="M0 0h70v70H0z"/><use fill="currentColor" fill-rule="nonzero" xlink:href="#a" transform="translate(8.3 8.051)"/></g></svg>