<svg width="70" height="70" xmlns="http://www.w3.org/2000/svg" xmlns:xlink="http://www.w3.org/1999/xlink"><defs><path d="M28 0v4.014c14.616.405 26 9.664 26 21.87V27c0 1.333-2 1.333-2 0 0-1.528-2.392-3-5.5-3S41 25.472 41 27c0 1.333-2 1.333-2 0 0-1.528-2.392-3-5.5-3S28 25.472 28 27v24.349C28 54.463 25.545 57 22.5 57S17 54.463 17 51.349a1 1 0 012 0C19 53.373 20.575 55 22.5 55s3.5-1.627 3.5-3.651V27c0-1.528-2.392-3-5.5-3S15 25.472 15 27c0 1.333-2 1.333-2 0 0-1.528-2.392-3-5.5-3-2.937 0-5.235 1.314-5.479 2.749l.005.134a1 1 0 01-.038.298l-.026.091C1.646 28.39 0 28.161 0 27c0-.12.006-.24.018-.358L0 25.883C0 13.678 11.385 4.42 26 4.013V0h2zm-4.294 6.16l-.01.002C12.231 7.295 3.48 14.278 2.17 23.452 3.54 22.541 5.438 22 7.5 22c2.319 0 4.43.684 5.816 1.808 1.264-7.149 4.525-12.945 10.39-17.648zm7.337.083l.104.073c5.393 3.916 8.402 9.706 9.577 17.46C42.11 22.672 44.203 22 46.5 22c2.06 0 3.956.54 5.327 1.449-1.294-8.982-9.694-15.852-20.784-17.206zm-3.042.419L28 10.816h-2V6.918c-5.881 4.344-9.178 9.677-10.548 16.356C16.795 22.471 18.576 22 20.5 22c2.15 0 4.12.588 5.502 1.57L26 22h2v1.569c1.38-.98 3.35-1.569 5.5-1.569 1.961 0 3.773.49 5.125 1.32C37.302 15.563 33.988 10.102 28 6.662zM28 13v3h-2v-3h2z" id="a"/></defs><g fill="none" fill-rule="evenodd"><path d="M0 0h70v70H0z"/><use fill="currentColor" fill-rule="nonzero" xlink:href="#a" transform="translate(8 7)"/></g></svg>