<svg width="70" height="70" xmlns="http://www.w3.org/2000/svg" xmlns:xlink="http://www.w3.org/1999/xlink"><defs><path d="M22.828 9.922a22.766 22.766 0 0116.797 7.368l-1.471 1.355a20.766 20.766 0 00-15.326-6.723C11.325 11.922 2 21.247 2 32.75s9.325 20.828 20.828 20.828 20.828-9.325 20.828-20.828c0-2.459-.426-4.857-1.247-7.117H26.466c-5.402 0-11.216-3.13-12.77-7.37l1.878-.688c1.228 3.352 6.255 6.058 10.892 6.058h17.308l.252.628a22.767 22.767 0 011.63 8.489c0 12.608-10.22 22.828-22.828 22.828C10.22 55.578 0 45.358 0 32.75 0 20.142 10.22 9.922 22.828 9.922zm6.296 31.99l1.3 1.52c-2.18 1.863-4.834 2.89-7.627 2.89-2.763 0-5.391-1.006-7.559-2.833l1.29-1.53c1.814 1.53 3.989 2.363 6.27 2.363 2.304 0 4.5-.85 6.326-2.41zm1.642-12.146a4.969 4.969 0 014.968 4.968h-2a2.969 2.969 0 00-5.937 0h-2a4.969 4.969 0 014.969-4.968zm-15.875 0a4.969 4.969 0 014.968 4.968h-2a2.969 2.969 0 00-5.937 0h-2a4.969 4.969 0 014.969-4.968zm39.043-15.684l.811 1.829-7.62 3.378-.81-1.829 7.62-3.378zm-5.99-7.86l1.362 1.463-5.873 5.468-1.363-1.464 5.874-5.468zM39.768.6l1.773.925-3.856 7.39-1.773-.926L39.768.6z" id="a"/></defs><g fill="none" fill-rule="evenodd"><path d="M0 0h70v70H0z"/><use fill="currentColor" fill-rule="nonzero" xlink:href="#a" transform="translate(7 6.827)"/></g></svg>