<svg width="70" height="70" xmlns="http://www.w3.org/2000/svg"><g fill="none" fill-rule="evenodd"><path d="M0 0h70v70H0z"/><g fill-rule="nonzero"><path d="M24.368 37.202l2.338-15.63h-2.498c-1.169 0-2.674-.696-3.117-1.973-.142-.432-.478-1.916 1.452-3.363.691-.507 1.134-1.07 1.222-1.503.089-.45-.017-.845-.318-1.146-.425-.432-1.258-.676-2.32-.676-1.79 0-3.047 1.09-3.171 1.878-.089.583.336 1.052.708 1.353 1.116.883 1.382 2.16.691 3.363-.708 1.24-2.25 2.048-3.897 2.067h-2.55c-.213 1.521-3.684 24.855-3.95 26.696h13.833c.124-.827.762-5.242 1.63-11.066h-.053z" fill="#479CBE"/><path d="M43.442 8H28.675l-1.97 12.605h2.508c1.375 0 2.675-.637 3.232-1.555.186-.3.26-.562.26-.805 0-.525-.353-.918-.706-1.18-.965-.73-1.17-1.498-1.17-2.042 0-.112 0-.206.019-.3.204-1.329 1.987-2.771 4.346-2.771 1.412 0 2.49.337 3.14.955.575.543.798 1.311.631 2.116-.204.956-1.152 1.742-1.69 2.136-1.43 1.011-1.245 1.891-1.152 2.153.297.787 1.43 1.293 2.303 1.293h3.808v.019c5.201.037 7.987 2.453 7.114 8.072-.817 5.225-4.792 7.473-9.529 7.51l-1.876 12.062h2.768c11.684 0 21.23-7.567 23.107-19.516C66.14 13.918 56.815 8 43.442 8z" fill="#00A5C3"/><path d="M43.442 8H28.675l-1.97 12.605h2.508c1.375 0 2.675-.637 3.232-1.555.186-.3.26-.562.26-.805 0-.525-.353-.918-.706-1.18-.965-.73-1.17-1.498-1.17-2.042 0-.112 0-.206.019-.3.204-1.329 1.987-2.771 4.346-2.771 1.412 0 2.49.337 3.14.955.575.543.798 1.311.631 2.116-.204.956-1.152 1.742-1.69 2.136-1.43 1.011-1.245 1.891-1.152 2.153.297.787 1.43 1.293 2.303 1.293h3.808v.019c5.201.037 7.987 2.453 7.114 8.072-.817 5.225-4.792 7.473-9.529 7.51l-1.876 12.062h2.768c11.684 0 21.23-7.567 23.107-19.516C66.14 13.918 56.815 8 43.442 8z" fill="#235971"/><g fill="#235971"><path d="M7.599 52.235h5.861c2.5 0 3.106 1.331 2.922 2.547-.147.983-.79 1.717-1.893 2.199 1.397.56 1.948 1.427 1.746 2.797-.257 1.717-1.672 2.99-3.528 2.99h-6.67l1.562-10.533zm3.877 4.36c1.14 0 1.672-.637 1.782-1.389.11-.81-.239-1.37-1.378-1.37h-1.01l-.405 2.759h1.01zm-.625 4.553c1.176 0 1.856-.502 2.021-1.524.129-.888-.349-1.408-1.488-1.408h-1.158l-.44 2.951h1.065v-.019zM24.449 62.846c-1.525.115-2.26-.058-2.628-.753a4.86 4.86 0 01-2.664.791c-1.728 0-2.334-.945-2.169-1.987.074-.501.35-.984.79-1.389.956-.868 3.308-.984 4.227-1.64.073-.733-.202-1.003-1.066-1.003-1.01 0-1.856.347-3.308 1.39l.35-2.393c1.25-.945 2.462-1.39 3.858-1.39 1.783 0 3.363.773 3.069 2.818l-.35 2.315c-.128.81-.091 1.06.773 1.08l-.882 2.16zm-2.646-3.627c-.809.54-2.316.443-2.481 1.562-.074.521.239.907.735.907.478 0 1.066-.212 1.544-.56-.037-.192-.019-.385.036-.752l.166-1.157zM27.297 54.608h3.05l-.165 1.061c.974-.868 1.709-1.196 2.664-1.196 1.709 0 2.5 1.1 2.224 2.894l-.79 5.382h-3.05l.66-4.456c.13-.81-.11-1.196-.698-1.196-.477 0-.918.27-1.341.868l-.698 4.765h-3.05l1.194-8.122zM37.44 52.235h3.05l-.772 5.17 2.922-2.797h3.767l-3.749 3.473 3.014 4.668h-3.84l-2.316-3.762h-.036l-.552 3.762h-3.05z"/></g><g fill="#479CBE"><path d="M48.954 52.236h3.311L50.81 62.94h-3.311zM53.878 52.236h4.732c3.658 0 4.716 3.005 4.37 5.5-.33 2.435-2.03 5.205-5.236 5.205h-5.34l1.474-10.705zm3.068 8.152c1.612 0 2.497-.904 2.757-2.81.19-1.414-.191-2.808-1.977-2.808h-.884l-.763 5.618h.867z"/></g></g></g></svg>