<svg width="70" height="70" xmlns="http://www.w3.org/2000/svg"><g fill="none" fill-rule="evenodd"><path d="M0 0h70v70H0z"/><path d="M29.634 19l.296-.544L35 9l10.891 20H24.18l2.512-4.588.224-.412h2.277l-1.65 3.032h14.975l-7.511-13.725L31.91 19h-2.276z" fill="#E30613" fill-rule="nonzero"/><path d="M14.142 48L7 60.894h56L55.767 48H14.142zm40.453 2l4.99 8.894h-49.19L15.32 50h39.274z" fill="#005AA0" fill-rule="nonzero"/><path d="M23.809 32l-7.121 13h36.574L45.92 32H23.809z" stroke="#005AA0" stroke-width="2"/><path fill="#E30613" fill-rule="nonzero" d="M33.322 19.136l1.435 1.388H23v1.988h11.757l-1.435 1.444 1.435 1.386 3.761-3.824-3.761-3.768z"/></g></svg>