<svg width="70" height="70" xmlns="http://www.w3.org/2000/svg"><g fill-rule="nonzero" fill="none"><path d="M29.344 17.508a6.733 6.733 0 011.425-7.52c2.674-2.651 7.013-2.651 9.687 0a6.733 6.733 0 011.502 7.34l1.85.757a8.733 8.733 0 00-1.944-9.516c-3.454-3.425-9.05-3.425-12.504 0a8.733 8.733 0 00-1.844 9.75l1.828-.811z" fill="#005AA0"/><path fill="#E30613" d="M31 11.5v5.802h2V11.5zM36 16.414V13.86c0-.473.515-.859 1-.859s1 .386 1 .859v2.555h2V13.86C40 12.278 38.586 11 37 11s-3 1.278-3 2.859v2.555h2zM32.69 37.527v1.855h2v-1.855zM36.4 37.527v1.855h2v-1.855z"/><path d="M20.262 26.72a17.272 17.272 0 012.704-3.74l-1.45-1.377a19.272 19.272 0 00-3.017 4.173l1.763.944zM52.937 26.183a19.258 19.258 0 00-3.228-4.58l-1.45 1.377a17.258 17.258 0 012.893 4.104l1.785-.9z" fill="#005AA0"/><path d="M54.977 34.775c0 4.88-1.847 9.474-5.105 12.99l1.555 11.225h-9.18l-2.113-5.536a19.488 19.488 0 01-9.043 0l-2.113 5.536h-9.18l1.555-11.224a19.052 19.052 0 01-5.106-12.991c0-3.442.916-6.753 2.625-9.662l-.453-9.827 8.938 2.11a19.41 19.41 0 018.255-1.832c2.891 0 5.694.632 8.256 1.833l8.938-2.11-.454 9.826a19.004 19.004 0 012.625 9.662zm-7.22 12.303l.342-.35c3.11-3.191 4.878-7.433 4.878-11.953 0-3.177-.87-6.226-2.491-8.886l-.16-.262.36-7.785-7.051 1.665-.322-.158a17.409 17.409 0 00-7.7-1.785c-2.707 0-5.324.617-7.701 1.785l-.322.158-7.051-1.665.359 7.785-.16.261a17.01 17.01 0 00-2.49 8.887c0 4.52 1.767 8.762 4.878 11.953l.341.35-1.373 9.912h5.507l2.27-5.947.883.254a17.512 17.512 0 009.717 0l.883-.254 2.27 5.947h5.507l-1.373-9.912z" fill="#005AA0"/><path d="M40 38.5a4.5 4.5 0 10-9 0 4.5 4.5 0 009 0zm2 0a6.5 6.5 0 11-13 0 6.5 6.5 0 0113 0zM29 29.479c0-.815.67-1.479 1.5-1.479s1.5.664 1.5 1.479h2C34 27.556 32.431 26 30.5 26S27 27.556 27 29.479h2zM39 29.479c0-.815.67-1.479 1.5-1.479s1.5.664 1.5 1.479h2C44 27.556 42.431 26 40.5 26S37 27.556 37 29.479h2z" fill="#005AA0"/></g></svg>