<svg width="70" height="70" xmlns="http://www.w3.org/2000/svg"><g fill-rule="nonzero" fill="none"><path fill="#005AA0" d="M56.545 26.132l1.96-.397-4.03-19.919-24.059 5.005-1.694.356.41 1.957 1.694-.355 22.088-4.595zM13.178 16.398l10.52-2.197-.41-1.958-12.466 2.604 3.762 18.486.031.117.09.267 1.896-.634-.07-.209z"/><path fill="#005AA0" d="M36.856 13.419l.98 4.889 1.96-.393-.98-4.89zM43.496 17.229a2.69 2.69 0 01-3.18-2.091 2.69 2.69 0 012.096-3.177 2.69 2.69 0 013.18 2.09 2.69 2.69 0 01-2.096 3.178zm-.403-1.96a.69.69 0 00.54-.814.69.69 0 00-.818-.535.69.69 0 00-.54.814.69.69 0 00.818.536z"/><path d="M49.287 16.073a2.69 2.69 0 01-3.18-2.091 2.69 2.69 0 012.096-3.177 2.69 2.69 0 013.18 2.091 2.69 2.69 0 01-2.096 3.177zm-.403-1.959a.69.69 0 00.54-.814.69.69 0 00-.818-.536.69.69 0 00-.54.815.69.69 0 00.818.535z" fill="#E30613"/><path fill="#005AA0" d="M19.54 18.852l39.56 8.385-4.571 21.42-19.424-4.146-.417 1.956 21.38 4.564 5.406-25.335-43.473-9.215-5.406 25.332 7.214 1.543.418-1.956-5.259-1.124z"/><path fill="#005AA0" d="M42.291 25.467l-.98 4.8 1.96.4.98-4.8zM50.047 29.563a2.69 2.69 0 01-3.19 2.074 2.69 2.69 0 01-2.07-3.193 2.69 2.69 0 013.19-2.074 2.69 2.69 0 012.07 3.193zm-1.956-.416a.69.69 0 00-.53-.821.69.69 0 00-.818.534.69.69 0 00.53.82.69.69 0 00.818-.533zM52.648 32.97a2.69 2.69 0 01-2.07-3.193 2.69 2.69 0 013.19-2.074 2.69 2.69 0 012.07 3.193 2.69 2.69 0 01-3.19 2.074zm.704-3.31a.69.69 0 00-.818.533.69.69 0 00.53.821.69.69 0 00.818-.534.69.69 0 00-.53-.82z"/><path d="M44 56.958C44 54.756 42.217 53 40 53c-2.196 0-4 1.82-4 4.042 0 .495.12 1.032.346 1.564.13.325.33.661.587.987C37.669 60.47 38.81 61 40 61c2.196 0 4-1.82 4-4.042zm2 0C46 60.282 43.304 63 40 63c-1.78 0-3.482-.79-4.617-2.143a5.975 5.975 0 01-.887-1.491A6 6 0 0134 57.042C34 53.718 36.696 51 40 51c3.315 0 6 2.645 6 5.958z" fill="#E30613"/><path d="M24.5 54a7.5 7.5 0 110-15 7.5 7.5 0 010 15zm0-2a5.5 5.5 0 100-11 5.5 5.5 0 000 11z" fill="#005AA0"/></g></svg>