<svg width="70" height="70" xmlns="http://www.w3.org/2000/svg"><g fill-rule="nonzero" fill="none"><path d="M47.093 25.963a42.929 42.929 0 00-2.728-1.937c-1.792-1.163-3.598-2.105-5.481-2.8-4.474-1.651-10.065-1.584-17.25-.133a33.977 33.977 0 00-3.892 1.072c-2.026.678-4.164 1.558-6.362 2.59a86.794 86.794 0 00-6.994 3.693c-.283.167-.482.288-.589.353l-.348.215L.9 39.412l3.894 4.183 1.464-1.363L3.1 38.84l2.095-8.546.208-.124a84.815 84.815 0 016.827-3.605c2.133-1.001 4.2-1.852 6.147-2.504a31.999 31.999 0 013.657-1.008c6.85-1.384 12.104-1.447 16.157.05 1.733.639 3.41 1.513 5.085 2.6a40.99 40.99 0 012.603 1.85c.308.235 1.603 1.246 1.888 1.458.313.237 7.05 1.266 8.955 1.64 3.253.64 5.667 1.324 6.971 2.043 2.586 1.387 3.86 3.24 3.86 5.53v5.205L63 43v2h6.553v-6.777c0-3.08-1.717-5.576-4.904-7.286-1.533-.845-4.092-1.57-7.541-2.248-1.756-.345-3.41-.62-5.801-.985l-1.091-.166a75.75 75.75 0 01-.849-.135c-.241-.04-.42-.072-.538-.097-.428-.327-1.451-1.125-1.736-1.343z" fill="#005AA0"/><path fill="#005AA0" d="M46 43H23v2h23zM7 42.5c0-4.178 3.28-7.5 7.455-7.5C18.642 35 22 38.335 22 42.5S18.642 50 14.455 50c-2.876 0-5.429-1.613-6.746-4.237C7.253 44.63 7 43.55 7 42.5zm2 0c0 .764.196 1.603.53 2.44.947 1.88 2.813 3.06 4.925 3.06C17.54 48 20 45.557 20 42.5S17.54 37 14.455 37C11.39 37 9 39.42 9 42.5z"/><path d="M14.5 39c1.923 0 3.5 1.577 3.5 3.5S16.423 46 14.5 46a3.513 3.513 0 01-3.5-3.5c0-1.026.454-2.022 1.238-2.619A3.257 3.257 0 0114.5 39zM13 42.5c0 .819.681 1.5 1.5 1.5s1.5-.681 1.5-1.5-.681-1.5-1.5-1.5c-.367 0-.682.128-.906.352l-.126.107c-.276.197-.468.607-.468 1.041zM47 42.5c0-4.178 3.28-7.5 7.455-7.5C58.642 35 62 38.335 62 42.5S58.642 50 54.455 50c-2.876 0-5.429-1.613-6.746-4.237C47.253 44.63 47 43.55 47 42.5zm2 0c0 .764.196 1.603.53 2.44.947 1.88 2.813 3.06 4.925 3.06C57.54 48 60 45.557 60 42.5S57.54 37 54.455 37C51.39 37 49 39.42 49 42.5z" fill="#005AA0"/><path d="M54.5 39c1.923 0 3.5 1.577 3.5 3.5S56.423 46 54.5 46a3.513 3.513 0 01-3.5-3.5c0-1.026.454-2.022 1.238-2.619A3.257 3.257 0 0154.5 39zM53 42.5c0 .819.681 1.5 1.5 1.5s1.5-.681 1.5-1.5-.681-1.5-1.5-1.5c-.367 0-.682.128-.906.352l-.126.107c-.276.197-.468.607-.468 1.041zM45 28H21v2h24z" fill="#005AA0"/><path fill="#005AA0" d="M31 24v5h2v-5z"/><path fill="#E30613" d="M27.013 34H32v-2h-4.987z"/></g></svg>