<svg width="70" height="70" xmlns="http://www.w3.org/2000/svg"><g fill="none" fill-rule="evenodd"><path d="M0 0h70v70H0z"/><g fill-rule="nonzero"><path d="M25.077 8.538c-4.836 0-8.813 3.677-9.288 8.388a8.28 8.28 0 00-7.34 8.23 8.293 8.293 0 008.293 8.294h8.335v-2h-8.335a6.293 6.293 0 01-6.294-6.293 6.278 6.278 0 016.291-6.284l1.003.003v-1.003a7.335 7.335 0 0114.67 0v1h2.042a6.293 6.293 0 015.321 9.656l1.69 1.07a8.293 8.293 0 00-7.01-12.725h-.096c-.499-4.686-4.464-8.336-9.282-8.336z" fill="#005AA0"/><path d="M32.696 34.751a5.35 5.35 0 100-10.7 5.35 5.35 0 000 10.7zm0-2a3.35 3.35 0 110-6.7 3.35 3.35 0 010 6.7z" fill="#E30613"/><path d="M40.639 40.596a3.564 3.564 0 100-7.13 3.564 3.564 0 000 7.13zm0-2a1.564 1.564 0 110-3.13 1.564 1.564 0 010 3.13zM30.875 61.686l8.57-2.688 7.46-7.945L58.62 47.76l.129-.084c2.06-1.345 2.942-3.222 2.527-5.465l-.128-.693-7.468-1.209-29.052 8.439-6.187-3.383L9.265 48l7.43 6.273 13.725 1.5 2.124-.66-1.669 6.572zm-.651-7.945L17.52 52.35l-4.102-3.462 4.784-1.374 6.19 3.385 29.412-8.543 5.57.902c.002 1.056-.51 1.915-1.597 2.662l-11.948 3.357-7.484 7.968-4.65 1.46 1.664-6.554-1.938-.492-.3 1.182-2.897.899z" fill="#005AA0"/><path fill="#005AA0" d="M33.019 42.973l8.538 2.687.6-1.908-9.12-2.87-8.308 2.45 6.638 4.953 1.196-1.603-3.434-2.562z"/></g></g></svg>