<svg width="64" height="64" xmlns="http://www.w3.org/2000/svg" xmlns:xlink="http://www.w3.org/1999/xlink"><defs><path id="a" d="M34.503.25h-3.33v6.907h3.33z"/></defs><g transform="translate(8 1)" fill="none" fill-rule="evenodd"><path d="M23 54.985c-12.682 0-23-10.317-23-23s10.318-23 23-23c6.694 0 13.07 2.927 17.493 8.03l-1.512 1.31c-4.042-4.665-9.867-7.34-15.981-7.34-11.58 0-21 9.421-21 21 0 11.58 9.42 21 21 21s21-9.42 21-21c0-2.337-.372-4.639-1.106-6.84l-.06-.16H28.158c-11.896 0-14.039-7.579-14.125-7.9l1.932-.519c.073.262 1.906 6.42 12.193 6.42h16.061l.56 1.491A23.634 23.634 0 0146 31.985c0 12.683-10.318 23-23 23" fill="#005AA0" fill-rule="nonzero"/><path d="M19.275 31.388h-2c0-.833-.73-1.563-1.56-1.563-.83 0-1.557.73-1.557 1.563h-2c0-1.932 1.63-3.563 3.558-3.563 1.93 0 3.559 1.63 3.559 3.563M34.13 31.388h-2c0-.833-.73-1.563-1.56-1.563-.83 0-1.558.73-1.558 1.563h-2c0-1.932 1.63-3.563 3.558-3.563 1.93 0 3.56 1.63 3.56 3.563M23.804 44.934c-3.155 0-6.132-1.242-8.383-3.497l1.415-1.412c1.874 1.876 4.348 2.909 6.968 2.909s5.095-1.033 6.968-2.91l1.415 1.413c-2.25 2.255-5.228 3.497-8.383 3.497" fill="#005AA0" fill-rule="nonzero"/><path fill="#E30613" fill-rule="nonzero" d="M41.291 11.05l-1.6-1.201 3.99-5.312 1.6 1.2zM46.065 18.192l-.94-1.767 5.857-3.115.939 1.766z"/><mask id="b" fill="#fff"><use xlink:href="#a"/></mask><path fill="#E30613" fill-rule="nonzero" mask="url(#b)" d="M33.13 7.157l-1.958-.414L32.546.25l1.957.414z"/></g></svg>