<?xml version="1.0" encoding="UTF-8" standalone="no"?>
<svg width="50px" height="40px" viewBox="0 0 50 40" version="1.1" xmlns="http://www.w3.org/2000/svg" xmlns:xlink="http://www.w3.org/1999/xlink">
    <!-- Generator: Sketch 41.2 (35397) - http://www.bohemiancoding.com/sketch -->
    <title>shortcut-report-damage-50</title>
    <desc>Created with Sketch.</desc>
    <defs></defs>
    <g id="Page-1" stroke="none" stroke-width="1" fill="none" fill-rule="evenodd">
        <g id="shortcut-report-damage-50" stroke-width="2">
            <g id="shortcut-report-damage-50-crop" transform="translate(4.000000, 3.000000)">
                <path d="M32,5 L41,5 C42.2000008,5 43,5.80000019 43,7 L43,32 C43,33.2000008 42.2000008,34 41,34 L2,34 C0.800000191,34 0,33.2000008 0,32 L0,7 C0,5.80000019 0.800000191,5 2,5 L30,5" id="Shape" stroke="#005AA0"></path>
                <path d="M20,0 C17.5593469,0 15,2.56076923 15,5 L28,5 C28.0808163,2.56076923 26.048898,0 23.6073469,0 L20,0 Z" id="Shape" stroke="#005AA0"></path>
                <polygon id="Shape" stroke="#E30613" points="29 21.0358974 24 21.0358974 24 16 20 16 20 21.0358974 15 21.0358974 15 25 20 25 20 30 24 30 24 25 29 25"></polygon>
                <path d="M3,12 L40,12" id="Shape" stroke="#005AA0"></path>
            </g>
        </g>
    </g>
</svg>