<?xml version="1.0" encoding="UTF-8"?>
<svg width="40px" height="40px" viewBox="0 0 40 40" version="1.1" xmlns="http://www.w3.org/2000/svg" xmlns:xlink="http://www.w3.org/1999/xlink">
    <!-- Generator: Sketch 57.1 (83088) - https://sketch.com -->
    <title>Icons/40px/bike-mc-40</title>
    <desc>Created with Sketch.</desc>
    <g id="Icons/40px/bike-mc-40" stroke="none" stroke-width="1" fill="none" fill-rule="evenodd">
        <g id="Icons/40px/apartment-40">
            <g>
                <rect id="invisible-40" x="0" y="0" width="40" height="40"></rect>
                <g id="outlines" transform="translate(2.000000, 2.000000)" fill="#FF0000" fill-rule="nonzero">
                    <path d="M34,0 L34,34 L36,34 L36,36 L11,36 L11,34 L14,34 L14,24 L22,24 L22,34 L32,34 L32,2 L4,2 L4,34 L8,34 L8,36 L0,36 L0,34 L2,34 L2,0 L34,0 Z M20,26 L16,26 L16,34 L20,34 L20,26 Z M30,24 L30,30 L24,30 L24,24 L30,24 Z M12,24 L12,30 L6,30 L6,24 L12,24 Z M28,26 L26,26 L26,28 L28,28 L28,26 Z M10,26 L8,26 L8,28 L10,28 L10,26 Z M30,14 L30,20 L24,20 L24,14 L30,14 Z M21,14 L21,20 L15,20 L15,14 L21,14 Z M12,14 L12,20 L6,20 L6,14 L12,14 Z M28,16 L26,16 L26,18 L28,18 L28,16 Z M19,16 L17,16 L17,18 L19,18 L19,16 Z M10,16 L8,16 L8,18 L10,18 L10,16 Z M30,4 L30,10 L24,10 L24,4 L30,4 Z M21,4 L21,10 L15,10 L15,4 L21,4 Z M12,4 L12,10 L6,10 L6,4 L12,4 Z M28,6 L26,6 L26,8 L28,8 L28,6 Z M19,6 L17,6 L17,8 L19,8 L19,6 Z M10,6 L8,6 L8,8 L10,8 L10,6 Z" id="Combined-Shape"></path>
                </g>
            </g>
        </g>
    </g>
</svg>