<?xml version="1.0" encoding="UTF-8"?>
<svg width="40px" height="40px" viewBox="0 0 40 40" version="1.1" xmlns="http://www.w3.org/2000/svg" xmlns:xlink="http://www.w3.org/1999/xlink">
    <!-- Generator: Sketch 63.1 (92452) - https://sketch.com -->
    <title>Icons/40px/ATV-40</title>
    <desc>Created with Sketch.</desc>
    <g id="Icons/40px/ATV-40" stroke="none" stroke-width="1" fill="none" fill-rule="evenodd">
        <g>
            <rect id="invisible-40" x="0" y="0" width="40" height="40"></rect>
            <g id="lines" transform="translate(2.000000, 6.000000)" fill="#FF0000" fill-rule="nonzero">
                <path d="M19.3312766,0.835481929 L24.469,7 L28.5351838,7 L30.691817,10.2322937 C31.7617134,10.3265887 32.7974134,10.6001142 33.7637926,11.0387316 L34.0931929,11.1959831 L33.1968871,12.9838969 C32.1672829,12.4677422 31.0290499,12.19534 29.84974,12.19534 C28.3207638,12.19534 26.8989195,12.6541556 25.7143822,13.4416118 L26.9341434,14.8413794 C27.831361,14.3069741 28.8797796,14 29.9998542,14 C33.3135593,14 36,16.6863623 36,20 C36,23.3136377 33.3135593,26 29.9998542,26 C26.6863866,26 24,23.3135836 24,20 C24,18.5281853 24.5300038,17.1801058 25.409549,16.1362191 L24.20969,14.7622425 C23.1134331,16.0197678 22.4308553,17.6473217 22.3740831,19.432778 L22.37024,19.67484 L20.37024,19.67484 C20.37024,19.103171 20.4208465,18.5433191 20.5178238,17.99952 L14.5857864,18 L12.062,15.4764819 L10.942572,16.5975091 C11.5697274,17.50677 11.9524607,18.5975913 11.9958613,19.7750663 L12,20 C12,23.3136377 9.31355932,26 5.99985416,26 C2.68638655,26 0,23.3135836 0,20 C0,16.6864164 2.68638655,14 5.99985416,14 C7.32783175,14 8.55506876,14.431438 9.54903215,15.1617866 L10.648,14.0624819 L8.29289322,11.7071068 L9.70710678,10.2928932 L15.414,15.999 L21.1090878,15.9995165 C22.3573005,13.0346895 25.0700021,10.8377984 28.3413384,10.3146975 L27.464,9 L23.5316251,9 L21.994,7.15448193 L14.6857123,11.3313441 L12.464,8 L2,8 L2,10 L7,10 L7,12 L1.0125234e-13,12 L1.0125234e-13,6 L13.5351838,6 L15.314,8.668 L20.693,5.59448193 L18.668,3.164 L16.3162278,3.9486833 L15.6837722,2.0513167 L19.3312766,0.835481929 Z M5.99985416,16 C3.79096103,16 2,17.790981 2,20 C2,22.209019 3.79096103,24 5.99985416,24 C8.20900288,24 10,22.2090551 10,20 C10,19.2914043 9.81571977,18.6258291 9.49246966,18.0485843 L6.95710678,20.5821068 L5.54289322,19.1678932 L8.10947715,16.6008955 C7.4970396,16.2200004 6.77412984,16 5.99985416,16 Z M29.9998542,16 C29.3854759,16 28.8034293,16.1385522 28.2832579,16.3861147 L30.7534247,19.2174658 L29.2465753,20.5325342 L26.7484547,17.6698675 C26.2773811,18.3260445 26,19.1306497 26,20 C26,22.209019 27.790961,24 29.9998542,24 C32.2090029,24 34,22.2090551 34,20 C34,17.7909449 32.2090029,16 29.9998542,16 Z" id="Combined-Shape"></path>
            </g>
        </g>
    </g>
</svg>