<?xml version="1.0" encoding="UTF-8"?>
<svg width="40px" height="40px" viewBox="0 0 40 40" version="1.1" xmlns="http://www.w3.org/2000/svg" xmlns:xlink="http://www.w3.org/1999/xlink">
    <!-- Generator: Sketch 63.1 (92452) - https://sketch.com -->
    <title>Icons/40px/baby-40</title>
    <desc>Created with Sketch.</desc>
    <g id="Icons/40px/baby-40" stroke="none" stroke-width="1" fill="none" fill-rule="evenodd">
        <g>
            <rect id="invisible-40" x="0" y="0" width="40" height="40"></rect>
            <g id="lines" transform="translate(5.000000, 2.000000)" fill="#FF0000" fill-rule="nonzero">
                <path d="M19.7399345,0.365370001 L19.914,0.41 L20.071116,0.458881436 C22.0147419,1.12708588 23.1402378,3.16441367 22.6713911,5.16529998 L22.6191632,5.36521509 C22.0518413,7.33459037 20.1084138,8.53366937 18.1350822,8.21841639 L18.1269019,8.24763142 C17.0585691,7.95980801 15.9504221,7.81226 14.82364,7.81226 C7.82771074,7.81226 2.15564,13.4841588 2.15564,20.48026 C2.15564,27.4758472 7.82779673,33.14766 14.82364,33.14766 C21.8197412,33.14766 27.49104,27.4761893 27.49104,20.48026 C27.49104,16.4706514 25.6162023,12.7771668 22.4956362,10.3993391 L22.2085341,10.1868252 L23.3759459,8.56289481 C27.18553,11.3015302 29.49104,15.6984322 29.49104,20.48026 C29.49104,28.5807452 22.9243243,35.14766 14.82364,35.14766 C6.72325439,35.14766 0.15564,28.5804439 0.15564,20.48026 C0.15564,12.3795757 6.72315482,5.81226 14.82364,5.81226 C15.9637752,5.81226 17.0886301,5.94305674 18.1810393,6.19910253 L18.20064,6.20341161 L18.2051879,6.18857272 C19.2738986,6.49683925 20.3894036,5.88046078 20.6974127,4.81125215 C20.991699,3.79100876 20.4433223,2.7277622 19.4633175,2.36543565 L19.356,2.33 L19.2659308,2.31105407 C18.8961084,2.25539775 18.5305433,2.41785183 18.4195201,2.61270014 L18.3940997,2.67194075 C18.2666005,3.11535838 18.4527205,3.39414872 19.2079117,3.2667497 L19.3562413,3.23804337 L19.7794387,5.19275663 C17.3084112,5.7277367 15.9457822,3.94927439 16.4723087,2.11811948 C16.850429,0.808939358 18.3468914,0.0691430608 19.7399345,0.365370001 Z M15.9793195,26.865307 L17.3931205,28.279933 C16.2017527,29.4706062 14.6082814,30.11582 12.95482,30.11582 C11.3977171,30.11582 9.89516707,29.5446078 8.73063302,28.484255 L8.51631322,28.2797268 L9.93052678,26.8655132 C10.7425408,27.6775272 11.8251713,28.11582 12.95482,28.11582 C14.0029428,28.11582 15.012031,27.7375433 15.8011918,27.03353 L15.9793195,26.865307 Z M11.6271675,20.1758967 L11.6400789,20.3468323 L9.64224114,20.4398077 C9.61872626,19.9345246 9.18998934,19.5441026 8.68424771,19.5676389 C8.21505629,19.5894741 7.84490324,19.96071 7.81326248,20.4185573 L7.81207886,20.5256323 L5.81424114,20.6186077 C5.73936579,19.0097009 6.9824037,17.6446747 8.59127229,17.5698011 C10.1427182,17.4975999 11.4673924,18.6508563 11.6271675,20.1758967 Z M19.8420075,19.8685767 L19.8549189,20.0395123 L17.8570811,20.1324877 C17.8335663,19.6272046 17.4048293,19.2367826 16.8990877,19.2603189 C16.4299408,19.282152 16.060012,19.653229 16.0286186,20.11075 L16.0274924,20.2177466 L14.0297076,20.3118534 C13.9539104,18.7027612 15.197002,17.337366 16.8061123,17.2624811 C18.3575582,17.1902799 19.6822324,18.3435363 19.8420075,19.8685767 Z" id="Combined-Shape"></path>
            </g>
        </g>
    </g>
</svg>