<?xml version="1.0" encoding="UTF-8"?>
<svg width="40px" height="40px" viewBox="0 0 40 40" version="1.1" xmlns="http://www.w3.org/2000/svg" xmlns:xlink="http://www.w3.org/1999/xlink">
    <!-- Generator: Sketch 64 (93537) - https://sketch.com -->
    <title>Icons/40px/bankid-mc-40</title>
    <desc>Created with Sketch.</desc>
    <g id="Icons/40px/bankid-mc-40" stroke="none" stroke-width="1" fill="none" fill-rule="evenodd">
        <rect id="invisible-40" x="0" y="0" width="40" height="40"></rect>
        <g id="bankid_vector_rgb" transform="translate(2.000000, 3.000000)" fill="#FF0000" fill-rule="nonzero">
            <path d="M11.3666903,18.0942551 L12.8135593,8.4091497 C12.2435806,8.4091497 11.2680402,8.4091497 11.2680402,8.4091497 C10.5446057,8.4091497 9.61290977,7.97844189 9.33888156,7.18687077 C9.25119253,6.91913348 9.04293109,5.99951409 10.2376941,5.10317621 C10.6651781,4.78887592 10.9392063,4.43965336 10.994012,4.17191607 C11.0488176,3.89253803 10.9830508,3.64808225 10.7967117,3.46183022 C10.5336446,3.19409293 10.0184715,3.04276316 9.36080382,3.04276316 C8.25372983,3.04276316 7.4754897,3.71792676 7.3987618,4.20683833 C7.34395616,4.56770163 7.60702324,4.85872043 7.83720694,5.04497245 C8.52775804,5.59208778 8.69217497,6.3836589 8.26469096,7.12866701 C7.82624581,7.89695663 6.87262763,8.39750895 5.85324267,8.4091497 C5.85324267,8.4091497 4.84481884,8.4091497 4.27484015,8.4091497 C4.14330661,9.35205059 1.9949254,23.8098642 1.83050847,24.9506579 L10.3911499,24.9506579 C10.4678778,24.4384648 10.8624784,21.7028882 11.3995737,18.0942551 L11.3666903,18.0942551 Z" id="Path"></path>
            <path d="M23.1704146,0 L14.0320129,0 L12.8135593,7.81013617 L14.3653634,7.81013617 C15.2159819,7.81013617 16.0206211,7.41556763 16.3654664,6.84692472 C16.4804149,6.66124541 16.5263942,6.49877601 16.5263942,6.34791157 C16.5263942,6.02297277 16.3079922,5.77926867 16.0895901,5.61679927 C15.4918582,5.16420594 15.3654149,4.68840269 15.3654149,4.35185894 C15.3654149,4.28222919 15.3654149,4.22420441 15.3769097,4.16617962 C15.503353,3.34222766 16.6068582,2.44864596 18.0667035,2.44864596 C18.9403117,2.44864596 19.6070127,2.65753519 20.0093323,3.04049878 C20.3656725,3.37704253 20.5036106,3.85284578 20.400157,4.35185894 C20.2737137,4.94371175 19.6874766,5.43111995 19.3541261,5.67482405 C18.469023,6.30149174 18.5839715,6.84692472 18.6414457,7.00939412 C18.8253632,7.49680233 19.5265488,7.81013617 20.0668065,7.81013617 L22.4232497,7.81013617 C22.4232497,7.81013617 22.4232497,7.81013617 22.4232497,7.82174113 C25.6418063,7.84495104 27.366033,9.34199051 26.8257753,12.8234777 C26.3200021,16.0612607 23.8601053,17.4538556 20.9289199,17.4770655 L19.7679405,24.9506579 L21.4806724,24.9506579 C28.7109299,24.9506579 34.6192802,20.2622552 35.7802595,12.8582925 C37.2171151,3.66716646 31.446703,0 23.1704146,0 Z" id="Path"></path>
            <path d="M23.1704146,0 L14.0320129,0 L12.8135593,7.81013617 L14.3653634,7.81013617 C15.2159819,7.81013617 16.0206211,7.41556763 16.3654664,6.84692472 C16.4804149,6.66124541 16.5263942,6.49877601 16.5263942,6.34791157 C16.5263942,6.02297277 16.3079922,5.77926867 16.0895901,5.61679927 C15.4918582,5.16420594 15.3654149,4.68840269 15.3654149,4.35185894 C15.3654149,4.28222919 15.3654149,4.22420441 15.3769097,4.16617962 C15.503353,3.34222766 16.6068582,2.44864596 18.0667035,2.44864596 C18.9403117,2.44864596 19.6070127,2.65753519 20.0093323,3.04049878 C20.3656725,3.37704253 20.5036106,3.85284578 20.400157,4.35185894 C20.2737137,4.94371175 19.6874766,5.43111995 19.3541261,5.67482405 C18.469023,6.30149174 18.5839715,6.84692472 18.6414457,7.00939412 C18.8253632,7.49680233 19.5265488,7.81013617 20.0668065,7.81013617 L22.4232497,7.81013617 C22.4232497,7.81013617 22.4232497,7.81013617 22.4232497,7.82174113 C25.6418063,7.84495104 27.366033,9.34199051 26.8257753,12.8234777 C26.3200021,16.0612607 23.8601053,17.4538556 20.9289199,17.4770655 L19.7679405,24.9506579 L21.4806724,24.9506579 C28.7109299,24.9506579 34.6192802,20.2622552 35.7802595,12.8582925 C37.2171151,3.66716646 31.446703,0 23.1704146,0 Z" id="Path"></path>
            <g id="Group" transform="translate(0.000000, 27.384868)">
                <path d="M0.989306626,0.0239074248 L4.61676425,0.0239074248 C6.16326656,0.0239074248 6.5385208,0.848713581 6.4248074,1.60179746 C6.33383667,2.2114368 5.93583975,2.66567787 5.25355932,2.96452068 C6.1177812,3.31117834 6.45892142,3.84909539 6.33383667,4.69780898 C6.1746379,5.76168938 5.29904468,6.5506344 4.15053929,6.5506344 L0.022742681,6.5506344 L0.989306626,0.0239074248 Z M3.38865948,2.72544643 C4.09368259,2.72544643 4.42345146,2.33097392 4.49167951,1.86477914 C4.55990755,1.36272321 4.34385208,1.01606555 3.63882897,1.01606555 L3.01340524,1.01606555 L2.76323575,2.72544643 L3.38865948,2.72544643 L3.38865948,2.72544643 Z M3.0020339,5.54652256 C3.72979969,5.54652256 4.15053929,5.23572603 4.25288136,4.60217928 C4.33248074,4.05230851 4.03682589,3.72955827 3.33180277,3.72955827 L2.61540832,3.72955827 L2.34249615,5.55847627 L3.0020339,5.55847627 L3.0020339,5.54652256 Z" id="Shape"></path>
                <path d="M11.4168259,6.59844925 C10.4730046,6.67017152 10.018151,6.56258811 9.79072419,6.13225446 C9.29038521,6.4550047 8.73318952,6.62235667 8.14187982,6.62235667 C7.07297381,6.62235667 6.69771957,6.03662477 6.80006163,5.3911243 C6.845547,5.08032777 7.0161171,4.78148496 7.28902928,4.530457 C7.88033898,3.99253994 9.33587057,3.92081767 9.9044376,3.51439145 C9.94992296,3.06015038 9.77935285,2.8927984 9.24489985,2.8927984 C8.61947612,2.8927984 8.09639445,3.10796523 7.19805855,3.7534657 L7.41411402,2.27120536 C8.18736518,1.68547345 8.93787365,1.41053806 9.80209553,1.41053806 C10.9051156,1.41053806 11.8830508,1.88868656 11.7011094,3.15578008 L11.4850539,4.59022556 C11.4054545,5.09228148 11.4281972,5.24767975 11.9626502,5.25963346 L11.4168259,6.59844925 Z M9.77935285,4.35115132 C9.27901387,4.68585526 8.34656394,4.6260867 8.24422188,5.31940202 C8.19873652,5.64215226 8.39204931,5.8812265 8.6990755,5.8812265 C8.99473035,5.8812265 9.35861325,5.74973567 9.6542681,5.53456884 C9.63152542,5.41503172 9.64289676,5.2954946 9.67701079,5.06837406 L9.77935285,4.35115132 Z" id="Shape"></path>
                <path d="M13.1793837,1.49421405 L15.0670262,1.49421405 L14.9646841,2.15166823 C15.5673652,1.61375117 16.0222188,1.41053806 16.6135285,1.41053806 C17.6710632,1.41053806 18.1600308,2.09189967 17.9894607,3.20359492 L17.5004931,6.53868069 L15.6128505,6.53868069 L16.0222188,3.77737312 C16.1018182,3.2753172 15.9539908,3.03624295 15.5901079,3.03624295 C15.294453,3.03624295 15.0215408,3.20359492 14.76,3.57416001 L14.3278891,6.52672697 L12.4402465,6.52672697 L13.1793837,1.49421405 Z" id="Path"></path>
                <polygon id="Path" points="19.4563636 0.0239074248 21.3440062 0.0239074248 20.8664099 3.22750235 22.674453 1.49421405 25.0055778 1.49421405 22.6858243 3.64588228 24.5507242 6.53868069 22.174114 6.53868069 20.7413251 4.20770677 20.7185824 4.20770677 20.3774422 6.53868069 18.4897997 6.53868069"></polygon>
            </g>
            <g id="Group" transform="translate(25.627119, 27.384868)">
                <polygon id="Path" points="0.954814677 0.0243421053 3.00391134 0.0243421053 2.10273794 6.65756579 0.053641274 6.65756579"></polygon>
                <path d="M4.00163904,0.0243421053 L6.9304526,0.0243421053 C9.19411436,0.0243421053 9.8485379,1.88651316 9.63397281,3.43223684 C9.43013597,4.94144737 8.378767,6.65756579 6.39403986,6.65756579 L3.08973738,6.65756579 L4.00163904,0.0243421053 Z M5.90054014,5.07532895 C6.89826783,5.07532895 7.44540883,4.51546053 7.60633265,3.33486842 C7.72434345,2.45855263 7.48832185,1.59440789 6.3833116,1.59440789 L5.83617061,1.59440789 L5.3641274,5.07532895 L5.90054014,5.07532895 L5.90054014,5.07532895 Z" id="Shape"></path>
            </g>
        </g>
    </g>
</svg>