<?xml version="1.0" encoding="UTF-8"?>
<svg width="40px" height="40px" viewBox="0 0 40 40" version="1.1" xmlns="http://www.w3.org/2000/svg" xmlns:xlink="http://www.w3.org/1999/xlink">
    <!-- Generator: Sketch 54.1 (76490) - https://sketchapp.com -->
    <title>Icons/40px/bike-40</title>
    <desc>Created with Sketch.</desc>
    <g id="Icons/40px/bike-40" stroke="none" stroke-width="1" fill="none" fill-rule="evenodd">
        <g>
            <rect id="invisible-40" x="0" y="0" width="40" height="40"></rect>
            <g id="lines" transform="translate(2.000000, 7.000000)" fill="#FF0000" fill-rule="nonzero">
                <path d="M7,10 C2.581722,10 -1,13.581722 -1,18 C-1,22.418278 2.581722,26 7,26 C11.418278,26 15,22.418278 15,18 C15,15.7580035 14.0716556,13.6621789 12.4673765,12.1597797 L11.1002753,13.619586 C12.3048689,14.7476817 13,16.3170055 13,18 C13,21.3137085 10.3137085,24 7,24 C3.6862915,24 1,21.3137085 1,18 C1,14.6862915 3.6862915,12 7,12 L7,10 Z" id="Oval"></path>
                <path d="M21.0699491,20.8654234 C22.2832906,23.9366686 25.3268276,26 28.7627947,26 C33.3047579,26 37,22.4258725 37,18 C37,13.5741275 33.3047579,10 28.7627947,10 C28.4553969,10 28.1498809,10.0163926 27.8472154,10.04894 L28.061054,12.0374754 C28.2927238,12.0125626 28.5268582,12 28.7627947,12 C32.2148277,12 35,14.693886 35,18 C35,21.306114 32.2148277,24 28.7627947,24 C26.1465513,24 23.8413209,22.4371952 22.9300509,20.1305622 L21.0699491,20.8654234 Z" id="Oval"></path>
                <polygon id="Rectangle" points="22.0238956 7 27.3363956 17 20.0174766 17 12.8679862 4.50341173 11.1320138 5.49658827 18.8575234 19 19.4375 19 30.6636044 19 23.2261044 5 16.25 5 16.25 7"></polygon>
                <polygon id="Path-10" points="14.2632252 1 18 1 18 -1 12.8636865 -1 6.0605087 17.6574272 7.9394913 18.3425728"></polygon>
                <path d="M21.6057777,3.5 L26.8333333,3.5 C27.3856181,3.5 27.8333333,3.05228475 27.8333333,2.5 C27.8333333,1.94771525 27.3856181,1.5 26.8333333,1.5 L21.6057777,1.5 C21.0534929,1.5 20.6057777,1.94771525 20.6057777,2.5 C20.6057777,3.05228475 21.0534929,3.5 21.6057777,3.5 Z" id="Path-11"></path>
                <polygon id="Path-6" points="20.9701425 18.2425356 23.9701425 6.24253563 22.0298575 5.75746437 19.0298575 17.7574644"></polygon>
            </g>
        </g>
    </g>
</svg>