<?xml version="1.0" encoding="UTF-8"?>
<svg width="40px" height="40px" viewBox="0 0 40 40" version="1.1" xmlns="http://www.w3.org/2000/svg" xmlns:xlink="http://www.w3.org/1999/xlink">
    <!-- Generator: Sketch 54.1 (76490) - https://sketchapp.com -->
    <title>Icons/40px/bills-coins-40</title>
    <desc>Created with Sketch.</desc>
    <g id="Icons/40px/bills-coins-40" stroke="none" stroke-width="1" fill="none" fill-rule="evenodd">
        <g>
            <rect id="invisible-40" x="0" y="0" width="40" height="40"></rect>
            <g id="lines" transform="translate(3.000000, 3.000000)" fill="#FF0000" fill-rule="nonzero">
                <polygon id="Rectangle" transform="translate(23.344950, 5.659833) rotate(-12.000000) translate(-23.344950, -5.659833) " points="30.6429368 3.36476961 30.4864881 9.93215012 32.4859208 9.9797808 32.6910755 1.36782975 14.0018158 1.33988561 13.9988254 3.33988338"></polygon>
                <path d="M17,19.5 C17,16.4624339 14.5375661,14 11.5,14 C8.46243388,14 6,16.4624339 6,19.5 C6,22.5375661 8.46243388,25 11.5,25 C14.5375661,25 17,22.5375661 17,19.5 Z M8,19.5 C8,17.5670034 9.56700338,16 11.5,16 C13.4329966,16 15,17.5670034 15,19.5 C15,21.4329966 13.4329966,23 11.5,23 C9.56700338,23 8,21.4329966 8,19.5 Z" id="Oval-2"></path>
                <path d="M21,30.5 C21,28.0147186 18.9852814,26 16.5,26 C14.0147186,26 12,28.0147186 12,30.5 C12,32.9852814 14.0147186,35 16.5,35 C18.9852814,35 21,32.9852814 21,30.5 Z M14,30.5 C14,29.1192881 15.1192881,28 16.5,28 C17.8807119,28 19,29.1192881 19,30.5 C19,31.8807119 17.8807119,33 16.5,33 C15.1192881,33 14,31.8807119 14,30.5 Z" id="Oval-2"></path>
                <polygon id="Rectangle" transform="translate(17.093030, 13.114882) rotate(12.000000) translate(-17.093030, -13.114882) " points="3.09482171 20.1126728 3.11971504 6.17870866 31.0912376 6.11709128 31.0663443 20.0510554 17.3244083 20.081327 17.328814 22.0813222 33.0627822 22.0466624 33.0948217 4.11267281 1.12327704 4.18310168 1.09123758 22.1170913 8.22226727 22.1013826 8.21786155 20.1013875"></polygon>
            </g>
        </g>
    </g>
</svg>