<?xml version="1.0" encoding="UTF-8"?>
<svg width="40px" height="40px" viewBox="0 0 40 40" version="1.1" xmlns="http://www.w3.org/2000/svg" xmlns:xlink="http://www.w3.org/1999/xlink">
    <title>Icons/40px/bird-40</title>
    <g id="Icons/40px/bird-40" stroke="none" stroke-width="1" fill="none" fill-rule="evenodd">
        <g>
            <rect id="invisible-40" x="0" y="0" width="40" height="40"></rect>
            <g id="outlines" transform="translate(1.000000, 10.000000)" fill="#FF0000" fill-rule="nonzero">
                <path d="M33.7950299,0.0487273428 L34.080434,0.0708700245 L34.3694603,0.0999087247 L35.9960784,0.297313837 L32.643,5.244 L32.6522976,6.67238274 L32.6440142,7.36661557 C32.6110573,8.79963054 32.4746494,9.8006145 32.1199299,10.9640065 C31.4749404,13.0794116 30.1899735,14.8473134 28.0982834,16.2259273 C27.9960206,16.2933278 27.8922713,16.3584398 27.7870961,16.4212995 L27.4364139,22.212274 L25.4400818,22.0912026 L25.7297607,17.3245184 C25.0191768,17.5424291 24.2716257,17.6893547 23.4996096,17.7727717 L24.2255145,22.4948967 L22.2487376,22.7987936 L21.487998,17.8524783 C18.6445073,17.7852103 15.6280103,17.003939 12.9904449,15.8387332 C10.0348933,17.9645009 6.34982796,19.7354609 1.92196645,21.1632259 L1.29639921,21.361124 L0.703600785,19.4509957 C6.51939737,17.6460934 10.9797869,15.2708174 14.1432122,12.3208065 L14.818071,11.672575 L15.1920084,11.3016004 L15.475066,11.0095758 L15.8422441,10.6105235 L16.1291567,10.2820664 L16.5552434,9.77310841 L17.2072007,8.96645644 L18.2551231,7.6452158 C18.4221108,7.433901 18.5807833,7.23549601 18.7334004,7.04768582 L19.1753448,6.51372467 C19.7464078,5.83798232 20.2567372,5.29471673 20.85095,4.73576747 C21.0967408,4.50456315 21.3499938,4.27867103 21.6129341,4.05663356 L22.0148883,3.72628616 L23.2642784,5.28802378 C22.8964381,5.58229598 22.5512855,5.88212196 22.2212766,6.19254653 C22.0199041,6.38196856 21.8285465,6.57013513 21.6399973,6.76454449 L21.2645084,7.16390864 C21.1391702,7.30128574 21.0129449,7.44365911 20.8836973,7.59325048 L20.4847526,8.06590023 L20.0548628,8.59518813 L18.3382797,10.7516332 L17.7526703,11.4613698 L17.3494484,11.9270161 L17.0624922,12.2423752 L16.7413634,12.5791866 L16.3970662,12.9252729 L15.8680415,13.4397164 C15.5256461,13.7732184 15.1690569,14.0996688 14.7982324,14.4190995 L14.8477603,14.4386164 C19.0155008,16.0237965 24.020582,16.5181738 26.9976567,14.5560109 C28.691941,13.4393235 29.6951388,12.0590894 30.2068772,10.3807145 C30.547492,9.26358268 30.6493268,8.28378736 30.6522853,6.6271075 L30.6433606,5.36906829 L30.645534,4.91797325 L30.650305,4.61978546 L32.427,1.998 L32.2014265,1.99734992 C31.20836,2.00309701 30.1800637,2.08701303 29.1843884,2.27676425 L28.6895833,2.38058755 C28.4281254,2.44065031 28.1745477,2.50785681 27.9294641,2.58235082 L27.709,2.653 L27.750291,2.80289651 L27.8424781,3.16452463 C28.0490151,4.01016857 28.1918899,4.84967216 28.2419431,5.64781778 C28.2772546,6.21089248 28.2649294,6.73890801 28.19945,7.20807045 C27.9253851,9.50107969 26.4591997,11.1446339 24.2322118,12.2201595 C22.9512828,12.8387852 21.5768714,13.205342 20.3147093,13.3918326 L19.8984282,13.4474258 L19.6614009,11.4615209 C20.8326127,11.3217311 22.1712808,10.9944597 23.362433,10.4191918 C25.030441,9.61362596 26.031871,8.49105001 26.2160621,6.95155654 C26.2640363,6.60682745 26.2732912,6.21034402 26.2458643,5.77299561 C26.2040511,5.10624519 26.0802168,4.37861961 25.8995869,3.63904937 C25.8459872,3.4195912 25.789827,3.2091568 25.7329051,3.01069878 L25.6183514,2.62985046 L25.5384027,2.38709221 L25.2288615,1.51392817 L26.0758651,1.13867342 C26.7445051,0.842440502 27.4693843,0.608800729 28.2418017,0.43135908 C30.102875,0.00382867067 32.0470203,-0.0729720978 33.7950299,0.0487273428 Z" id="Combined-Shape"></path>
            </g>
        </g>
    </g>
</svg>