<?xml version="1.0" encoding="UTF-8"?>
<svg width="40px" height="40px" viewBox="0 0 40 40" version="1.1" xmlns="http://www.w3.org/2000/svg" xmlns:xlink="http://www.w3.org/1999/xlink">
    <!-- Generator: Sketch 54.1 (76490) - https://sketchapp.com -->
    <title>Icons/40px/boat-40</title>
    <desc>Created with Sketch.</desc>
    <g id="Icons/40px/boat-40" stroke="none" stroke-width="1" fill="none" fill-rule="evenodd">
        <g>
            <rect id="invisible-40" x="0" y="0" width="40" height="40"></rect>
            <g id="lines" transform="translate(2.000000, 4.000000)" fill="#FF0000">
                <path d="M-0.318569282,29.9216579 L1.78818208,30.6296931 C3.14374846,31.0852707 4.61746088,31.0416922 5.94373884,30.5068109 L8.94716533,29.2955441 C9.83135064,28.9389566 10.8138256,28.9099043 11.7175365,29.2136227 L16.0885843,30.6826407 C17.3287784,31.0994441 18.6712216,31.0994441 19.9114157,30.6826407 L24.2824635,29.2136227 C25.1861744,28.9099043 26.1686494,28.9389566 27.0528347,29.2955441 L30.0562612,30.5068109 C31.3825391,31.0416922 32.8562515,31.0852707 34.2118179,30.6296931 L36.3185693,29.9216579 L35.6814307,28.0258587 L33.5746794,28.7338939 C32.6709684,29.0376123 31.6884935,29.00856 30.8043082,28.6519725 L27.8008817,27.4407057 C26.4746037,26.9058245 25.0008913,26.862246 23.6453249,27.3178235 L19.2742771,28.7868416 C18.4474811,29.0647105 17.5525189,29.0647105 16.7257229,28.7868416 L12.3546751,27.3178235 C10.9991087,26.862246 9.52539627,26.9058245 8.19911831,27.4407057 L5.19569181,28.6519725 C4.31150651,29.00856 3.32903156,29.0376123 2.42532064,28.7338939 L0.318569282,28.0258587 L-0.318569282,29.9216579 Z" id="Path-6" fill-rule="nonzero"></path>
                <path d="M18.0001097,13.0046363 L31.07515,14.2651503 L26.319041,25.6134713 L28.1635958,26.3865287 L32.9197048,15.0382076 C32.9973516,14.8529383 33.0466432,14.6570281 33.0659202,14.4570727 C33.171916,13.3576007 32.3665444,12.3803759 31.2670724,12.2743801 L18.096071,11.0046149 L17.9041485,11.0046149 L4.73314704,12.2743801 C4.53319162,12.293657 4.33728144,12.3429486 4.15201207,12.4205955 C3.13329261,12.8475433 2.6535669,14.0194882 3.0805147,15.0382076 L7.83662368,26.3865287 L9.68117844,25.6134713 L4.92506946,14.2651503 L18.0001097,13.0046363 Z" id="Rectangle-7" fill-rule="nonzero"></path>
                <polygon id="Path-8" fill-rule="nonzero" points="17 15 17 25 19 25 19 15"></polygon>
                <path d="M8.94174191,11.3363364 L10.9676965,5.6636636 C11.1098368,5.26567064 11.4868248,5 11.9094384,5 L24.0905616,5 C24.5131752,5 24.8901632,5.26567064 25.0323035,5.6636636 L27.0582581,11.3363364 L28.9417419,10.6636636 L26.9157873,4.99099081 C26.4893663,3.79701191 25.3584025,3 24.0905616,3 L11.9094384,3 C10.6415975,3 9.51063369,3.79701191 9.08421266,4.99099081 L7.05825809,10.6636636 L8.94174191,11.3363364 Z" id="Rectangle-8" fill-rule="nonzero"></path>
                <path d="M17,0 L19,0 C19.5522847,-1.01453063e-16 20,0.44771525 20,1 L20,3 L16,3 L16,1 C16,0.44771525 16.4477153,1.01453063e-16 17,0 Z" id="Rectangle"></path>
            </g>
        </g>
    </g>
</svg>