<?xml version="1.0" encoding="UTF-8"?>
<svg width="40px" height="40px" viewBox="0 0 40 40" version="1.1" xmlns="http://www.w3.org/2000/svg" xmlns:xlink="http://www.w3.org/1999/xlink">
    <!-- Generator: Sketch 57.1 (83088) - https://sketch.com -->
    <title>Icons/40px/briefcase-40</title>
    <desc>Created with Sketch.</desc>
    <g id="Icons/40px/briefcase-40" stroke="none" stroke-width="1" fill="none" fill-rule="evenodd">
        <g>
            <rect id="invisible-40" x="0" y="0" width="40" height="40"></rect>
            <g id="lines" transform="translate(2.000000, 5.000000)" fill="#FF0000" fill-rule="nonzero">
                <path d="M26,0 L26,5 L33.5,5 C34.8807119,5 36,6.11928813 36,7.5 L36,27.5 C36,28.8807119 34.8807119,30 33.5,30 L2.5,30 C1.11928813,30 0,28.8807119 0,27.5 L0,7.5 C0,6.11928813 1.11928813,5 2.5,5 L10,5 L10,0 L26,0 Z M34,10.134 L29.3620499,14 L6.63795006,14 L2,10.135 L2,27.5 C2,27.7761424 2.22385763,28 2.5,28 L33.5,28 C33.7761424,28 34,27.7761424 34,27.5 L34,10.134 Z M28,16 L28,26 L26,26 L26,16 L28,16 Z M10,16 L10,26 L8,26 L8,16 L10,16 Z M17,14 L17,16 L19,16 L19,14 L21,14 L21,18 L15,18 L15,14 L17,14 Z M33.5,7 L2.5,7 C2.22385763,7 2,7.22385763 2,7.5 L2,7.531 L7.36204994,12 L28.6379501,12 L34,7.53 L34,7.5 C34,7.22385763 33.7761424,7 33.5,7 Z M24,2 L12,2 L12,5 L24,5 L24,2 Z" id="Combined-Shape"></path>
            </g>
        </g>
    </g>
</svg>