<?xml version="1.0" encoding="UTF-8"?>
<svg width="40px" height="40px" viewBox="0 0 40 40" version="1.1" xmlns="http://www.w3.org/2000/svg" xmlns:xlink="http://www.w3.org/1999/xlink">
    <!-- Generator: Sketch 50.2 (55047) - http://www.bohemiancoding.com/sketch -->
    <title>briefcase-first-aid-40</title>
    <desc>Created with Sketch.</desc>
    <defs></defs>
    <g id="briefcase-first-aid-40" stroke="none" stroke-width="1" fill="none" fill-rule="evenodd">
        <g id="briefcase-first-aid-40-crop" transform="translate(2.000000, 3.000000)" fill="#FF0000" fill-rule="nonzero">
            <path d="M32.1825923,29.0000003 C33.2940194,29.0000003 34.0669382,28.2474179 34.0019716,27.3115732 L34.004568,8.61641299 C34.0642021,7.79048263 33.2318843,7.00000068 32.1825924,7.00000068 L3.86325063,7.00000105 C2.87300695,7.00000105 2.00813305,7.81438099 2.00813305,8.68842824 L2.00813247,27.3115735 C2.00813247,28.1856207 2.87300637,29.0000007 3.86325004,29.0000007 L32.1825923,29.0000003 Z M0.00813246783,27.3115735 L0.0081330513,8.68842821 C0.0081330513,6.68201776 1.79443976,5.00000105 3.86325061,5.00000105 L32.1825923,5.00000068 C34.3401857,5.00000068 36.1469896,6.71598683 36.0019716,8.68842784 L35.9993752,27.2395587 C36.1488093,29.3092284 34.4123493,31.0000003 32.1825924,31.0000003 L3.86325005,31.0000007 C1.79443917,31.0000007 0.00813246783,29.317984 0.00813246783,27.3115735 Z" id="Shape"></path>
            <polygon id="Line" points="5 6.5 5 30.5 7 30.5 7 6.5"></polygon>
            <polygon id="Line" points="29 6.5 29 30.5 31 30.5 31 6.5"></polygon>
            <path d="M13.0081325,6.31157375 L13.0081331,3.68842843 C13.0081331,2.81438099 13.873007,2.00000105 14.8632506,2.00000105 L21.1825924,2.00000068 C22.2318843,2.00000068 23.0642021,2.79048263 23.004568,3.61641299 L23.0019716,6.31157316 L25.0019716,6.31157316 L25.0019716,3.68842784 C25.1469896,1.71598683 23.3401857,6.82743462e-07 21.1825923,6.82743462e-07 L14.8632506,1.0490127e-06 C12.7944398,1.0490127e-06 11.0081331,1.68201776 11.0081331,3.68842821 L11.0081325,6.3115733 L13.0081325,6.31157375 Z" id="Shape"></path>
            <polygon id="Rectangle-4" points="23 17 23 19 19 19 19 21 25 21 25 15 19 15 19 17"></polygon>
            <polygon id="Rectangle-4" points="13 19 13 17 17 17 17 15 11 15 11 21 17 21 17 19"></polygon>
            <polygon id="Rectangle-4" points="19 13 19 17 21 17 21 11 15 11 15 17 17 17 17 13"></polygon>
            <polygon id="Rectangle-4" points="19 23 17 23 17 19 15 19 15 25 21 25 21 19 19 19"></polygon>
        </g>
    </g>
</svg>