<?xml version="1.0" encoding="UTF-8"?>
<svg width="40px" height="40px" viewBox="0 0 40 40" version="1.1" xmlns="http://www.w3.org/2000/svg" xmlns:xlink="http://www.w3.org/1999/xlink">
    <!-- Generator: Sketch 54.1 (76490) - https://sketchapp.com -->
    <title>Icons/40px/common-camera-40</title>
    <desc>Created with Sketch.</desc>
    <g id="Icons/40px/common-camera-40" stroke="none" stroke-width="1" fill="none" fill-rule="evenodd">
        <g>
            <rect id="invisible-40" x="0" y="0" width="40" height="40"></rect>
            <g id="lines" transform="translate(3.000000, 6.000000)" fill="#FF0000" fill-rule="nonzero">
                <path d="M26.9865208,4.8 L32.5,4.8 C33.8807119,4.8 35,5.91928813 35,7.3 L35,27.5 C35,28.8807119 33.8807119,30 32.5,30 L1.5,30 C0.119288125,30 -1,28.8807119 -1,27.5 L-1,7.3 C-1,5.91928813 0.119288125,4.8 1.5,4.8 L7.01347915,4.8 L10.0516234,0.135554929 C10.5129989,-0.572792084 11.3010943,-1 12.1464479,-1 L21.8535521,-1 C22.6989057,-1 23.4870011,-0.572792084 23.9483766,0.135554929 L26.9865208,4.8 Z M1.5,6.8 C1.22385763,6.8 1,7.02385763 1,7.3 L1,27.5 C1,27.7761424 1.22385763,28 1.5,28 L32.5,28 C32.7761424,28 33,27.7761424 33,27.5 L33,7.3 C33,7.02385763 32.7761424,6.8 32.5,6.8 L25.902368,6.8 L22.272517,1.22711099 C22.1802419,1.08544158 22.0226228,1 21.8535521,1 L12.1464479,1 C11.9773772,1 11.8197581,1.08544158 11.727483,1.22711099 L8.09763196,6.8 L1.5,6.8 Z" id="Rectangle-3"></path>
                <path d="M26,16 C26,11.0294373 21.9705627,7 17,7 C12.0294373,7 8,11.0294373 8,16 C8,20.9705627 12.0294373,25 17,25 C21.9705627,25 26,20.9705627 26,16 Z M10,16 C10,12.1340068 13.1340068,9 17,9 C20.8659932,9 24,12.1340068 24,16 C24,19.8659932 20.8659932,23 17,23 C13.1340068,23 10,19.8659932 10,16 Z" id="Oval-2"></path>
            </g>
        </g>
    </g>
</svg>