<?xml version="1.0" encoding="UTF-8"?>
<svg width="40px" height="40px" viewBox="0 0 40 40" version="1.1" xmlns="http://www.w3.org/2000/svg" xmlns:xlink="http://www.w3.org/1999/xlink">
    <!-- Generator: Sketch 63.1 (92452) - https://sketch.com -->
    <title>Icons/40px/car-40</title>
    <desc>Created with Sketch.</desc>
    <g id="Icons/40px/car-40" stroke="none" stroke-width="1" fill="none" fill-rule="evenodd">
        <g>
            <rect id="invisible-40" x="0" y="0" width="40" height="40"></rect>
            <g id="lines" transform="translate(1.000000, 5.000000)" fill="#FF0000" fill-rule="nonzero">
                <path d="M19,0 C25.0206991,0 28.086494,0.872798068 29.780938,2.64155978 L29.780938,2.64155978 L30.4144964,3.29252545 C30.7090305,3.60436979 30.9746163,3.91130779 31.2467737,4.26304337 C31.81212,4.99369565 32.3653528,5.87022334 32.9328818,6.96866767 L32.9328818,6.96866767 L33.109,7.317 L36.3059073,8.16686582 C37.2436714,8.36264465 37.9211922,9.16987461 37.9935779,10.1206015 L37.9935779,10.1206015 L38,10.2897712 L38,11.6666667 C38,12.8539089 37.0617279,13.8333333 35.8823529,13.8333333 L35.982,13.829 L36.0526052,14.1177232 C36.4287947,15.7331685 36.6773014,17.7538102 36.7456213,19.5704159 L36.7606592,20.1086674 L36.7647059,20.5518403 L36.7647059,24.3333333 C36.7647059,25.1076218 36.3656298,25.7935189 35.7608653,26.1769889 L35.7608653,26.1769889 L35.647,26.243 L35.6470588,27.8333333 C35.6470588,28.9689564 34.7886019,29.9144398 33.6818187,29.994509 L33.6818187,29.994509 L33.5294118,30 L30.0588235,30 C28.8794486,30 27.9411765,29.0205756 27.9416908,27.8012643 L27.9416908,27.8012643 L27.967,27 L9.968,27 L9.93540251,27.9941988 C9.85885557,29.05704 9.03001561,29.9182526 7.97593631,29.994509 L7.97593631,29.994509 L7.82352941,30 L4.47058824,30 C3.29121328,30 2.35294118,29.0205756 2.35294118,27.8333333 L2.35294118,27.8333333 L2.352,26.243 L2.23913469,26.1769889 C1.67468779,25.8190835 1.28941843,25.1977306 1.24055783,24.4869491 L1.24055783,24.4869491 L1.23529412,24.3333333 L1.23529412,20.5518403 C1.23529412,18.5137035 1.50175489,16.0314046 1.94739478,14.1177232 L1.94739478,14.1177232 L2.017,13.829 L1.96524016,13.8278424 C0.90876523,13.7514127 0.0785546074,12.8864547 0.00526371383,11.8202824 L0.00526371383,11.8202824 L0,11.6666667 L0,10.2897712 C0,9.26695859 0.701166011,8.37416105 1.64198131,8.17921013 L1.64198131,8.17921013 L4.89,7.317 L5.06711818,6.96866767 C5.5715884,5.99227271 6.06476287,5.19121929 6.56518997,4.51210123 L6.56518997,4.51210123 L6.75322633,4.26304337 C7.02538372,3.91130779 7.29096954,3.60436979 7.58550355,3.29252545 L7.58550355,3.29252545 L8.34551604,2.51373684 C10.0648148,0.830741766 13.1261472,0 19,0 Z M19,2 L18.5908992,2.00136868 C13.3440601,2.03691991 10.871686,2.76371206 9.66329097,4.02510689 C8.12580783,5.6300235 7.68458735,6.16702772 6.76669669,8.02865424 L6.76669669,8.02865424 L6.2907569,9.01485768 L2.10282415,10.124655 C2.05092031,10.1354911 2,10.2003281 2,10.2897712 L2,10.2897712 L2,11.6666667 C2,11.7680888 2.06250316,11.8333333 2.11764706,11.8333333 L2.11764706,11.8333333 L4.72201659,11.8333333 L4.16292132,13.5841843 C3.60327988,15.3367457 3.23529412,18.268122 3.23529412,20.5518403 L3.23529412,20.5518403 L3.235,21 L12,21 L12,23 L3.235,23 L3.23529412,24.3333333 C3.23529412,24.414471 3.27529614,24.4724551 3.31953062,24.4924032 L3.35294118,24.5 L4.35294118,24.5 L4.35294118,27.8333333 C4.35294118,27.9347555 4.41544433,28 4.47058824,28 L4.47058824,28 L7.82352941,28 C7.87867331,28 7.94117647,27.9347555 7.94169082,27.8012643 L7.94169082,27.8012643 L8.03157095,25 L30.0326002,25 L29.9411765,27.8333333 C29.9411765,27.9347555 30.0036796,28 30.0588235,28 L30.0588235,28 L33.5294118,28 C33.5845557,28 33.6470588,27.9347555 33.6470588,27.8333333 L33.6470588,27.8333333 L33.6470588,24.5 L34.6470588,24.5 C34.7022027,24.5 34.7647059,24.4347555 34.7647059,24.3333333 L34.7647059,24.3333333 L34.764,23 L26,23 L26,21 L34.764,21 L34.7647059,20.5518403 C34.7647059,18.4024584 34.4387393,15.6793724 33.9338135,13.9053249 L33.8370787,13.5841843 L33.2779834,11.8333333 L35.8823529,11.8333333 C35.9374968,11.8333333 36,11.7680888 36,11.6666667 L36,11.6666667 L36,10.2897712 C36,10.2003281 35.9490797,10.1354911 35.8450644,10.1123107 L35.8450644,10.1123107 L31.7092431,9.01485768 L31.367843,8.30387026 C30.4930699,6.50049316 30.0698101,5.87470667 28.9330981,4.65452122 L28.9330981,4.65452122 L28.336709,4.02510689 C27.0973295,2.7313686 24.5283205,2 19,2 L19,2 Z M24,21 L24,23 L14,23 L14,21 L24,21 Z M29,13 C30.6568542,13 32,14.3431458 32,16 C32,17.6568542 30.6568542,19 29,19 C27.3431458,19 26,17.6568542 26,16 C26,14.3431458 27.3431458,13 29,13 Z M9,13 C10.6568542,13 12,14.3431458 12,16 C12,17.6568542 10.6568542,19 9,19 C7.34314575,19 6,17.6568542 6,16 C6,14.3431458 7.34314575,13 9,13 Z M29,15 C28.4477153,15 28,15.4477153 28,16 C28,16.5522847 28.4477153,17 29,17 C29.5522847,17 30,16.5522847 30,16 C30,15.4477153 29.5522847,15 29,15 Z M9,15 C8.44771525,15 8,15.4477153 8,16 C8,16.5522847 8.44771525,17 9,17 C9.55228475,17 10,16.5522847 10,16 C10,15.4477153 9.55228475,15 9,15 Z M27.6215755,5.50973876 L30.7098475,11 L11,11 L11,9 L27.29,9 L25.8784245,6.49026124 L27.6215755,5.50973876 Z" id="Combined-Shape"></path>
            </g>
        </g>
    </g>
</svg>