<?xml version="1.0" encoding="UTF-8"?>
<svg width="40px" height="40px" viewBox="0 0 40 40" version="1.1" xmlns="http://www.w3.org/2000/svg" xmlns:xlink="http://www.w3.org/1999/xlink">
    <!-- Generator: Sketch 63.1 (92452) - https://sketch.com -->
    <title>Icons/40px/caravan-40</title>
    <desc>Created with Sketch.</desc>
    <g id="Icons/40px/caravan-40" stroke="none" stroke-width="1" fill="none" fill-rule="evenodd">
        <g>
            <rect id="invisible-40" x="0" y="0" width="40" height="40"></rect>
            <g id="lines" transform="translate(1.000000, 9.000000)" fill="#FF0000" fill-rule="nonzero">
                <path d="M17.9998218,15 C20.2089443,15 22,16.7912027 22,19.0001782 C22,19.620281 21.8582053,20.221911 21.5893433,20.7669278 C20.9212246,22.1226437 19.5388536,23.0003565 17.9998218,23.0003565 C15.7908774,23.0003565 14,21.209332 14,19.0001782 C14,16.7912762 15.7909822,15 17.9998218,15 Z M17.9998218,17 C16.8956252,17 16,17.8957722 16,19.0001782 C16,20.1047993 16.8954837,21.0003565 17.9998218,21.0003565 C18.7698712,21.0003565 19.4608313,20.5616433 19.795539,19.8824696 C19.9295129,19.610888 20,19.3118134 20,19.0001782 C20,17.8957354 19.1043381,17 17.9998218,17 Z M31.7207592,0 L36.0540926,13 L34.3869287,18 L37,18 L37,20 L23,20 L23,18 L32.279,18 L33.946,13 L30.279,2 L4.973,2 L3.19392868,12 L5,12 L5,14 L3.38692868,14 L4.72,18 L13,18 L13,20 L3.27924078,20 L0.970928681,13.0750637 L3.2978468,0 L31.7207592,0 Z M13,4 L13,17 L11,17 L11,6 L8,6 L8,17 L6,17 L6,4 L13,4 Z M22,11 L22,13 L16,13 L16,11 L22,11 Z M27,4 L27,10 L16,10 L16,4 L27,4 Z M25,6 L18,6 L18,8 L25,8 L25,6 Z" id="Combined-Shape"></path>
            </g>
        </g>
    </g>
</svg>