<?xml version="1.0" encoding="UTF-8"?>
<svg width="40px" height="40px" viewBox="0 0 40 40" version="1.1" xmlns="http://www.w3.org/2000/svg" xmlns:xlink="http://www.w3.org/1999/xlink">
    <!-- Generator: Sketch 50.2 (55047) - http://www.bohemiancoding.com/sketch -->
    <title>block-card-40</title>
    <desc>Created with Sketch.</desc>
    <defs></defs>
    <g id="block-card-40" stroke="none" stroke-width="1" fill="none" fill-rule="evenodd">
        <g id="block-card-40-crop" transform="translate(2.000000, 7.000000)" fill="#FF0000" fill-rule="nonzero">
            <path d="M19,23.0000007 L19.0016958,21.0000007 L3.86325004,21.0000007 C2.872771,21.0000007 2.00813247,20.1867634 2.00813247,19.3146149 L2.00813305,3.68538688 C2.00813305,2.81323832 2.87277158,2.00000105 3.86325063,2.00000105 L29.1825924,2.00000068 C30.2320928,2.00000068 31.0641335,2.78932545 31.0045739,3.61329049 L31.0019716,10.9853395 L33.0019716,10.9853395 L33.0019716,3.68538648 C33.1470583,1.7143085 31.3399772,6.82743462e-07 29.1825923,6.82743462e-07 L3.86325061,1.04859835e-06 C1.79467513,1.04859835e-06 0.0081330513,1.6803363 0.0081330513,3.68538684 L0.00813246783,19.3146149 C0.00813246783,21.3196654 1.79467454,23.0000007 3.86325004,23.0000007 L19.0017208,23.0000007 C19.0016719,21.0000007 19.0016719,21.0000007 19.0015043,21.0000007 L19,23.0000007 Z" id="Shape"></path>
            <polygon id="Shape" points="31.7311557 6 1.28115495 6 1.28115495 8 31.7311557 8"></polygon>
            <polygon id="Shape" points="5 13 17 13 17 11 5 11"></polygon>
            <polygon id="Shape" points="5 16 11 16 11 14 5 14"></polygon>
            <path d="M28.5,25 C31.5375661,25 34,22.5375661 34,19.5 C34,16.4624339 31.5375661,14 28.5,14 C25.4624339,14 23,16.4624339 23,19.5 C23,22.5375661 25.4624339,25 28.5,25 Z M28.5,27 C24.3578644,27 21,23.6421356 21,19.5 C21,15.3578644 24.3578644,12 28.5,12 C32.6421356,12 36,15.3578644 36,19.5 C36,23.6421356 32.6421356,27 28.5,27 Z" id="Oval-2"></path>
            <polygon id="Line" points="23.0857864 15.5 32.8509314 25.2651449 34.2651449 23.8509314 24.5 14.0857864"></polygon>
        </g>
    </g>
</svg>