<?xml version="1.0" encoding="UTF-8"?>
<svg width="40px" height="40px" viewBox="0 0 40 40" version="1.1" xmlns="http://www.w3.org/2000/svg" xmlns:xlink="http://www.w3.org/1999/xlink">
    <!-- Generator: Sketch 50.2 (55047) - http://www.bohemiancoding.com/sketch -->
    <title>card-40</title>
    <desc>Created with Sketch.</desc>
    <defs></defs>
    <g id="card-40" stroke="none" stroke-width="1" fill="none" fill-rule="evenodd">
        <g id="card-40-crop" transform="translate(2.000000, 8.000000)" fill="#FF0000" fill-rule="nonzero">
            <path d="M32.1825923,22.0000003 C33.2940194,22.0000003 34.0669382,21.2474179 34.0019716,20.3115732 L34.004568,3.61641299 C34.0642021,2.79048263 33.2318843,2.00000068 32.1825924,2.00000068 L3.86325063,2.00000105 C2.87300695,2.00000105 2.00813305,2.81438099 2.00813305,3.68842824 L2.00813247,20.3115735 C2.00813247,21.1856207 2.87300637,22.0000007 3.86325004,22.0000007 L32.1825923,22.0000003 Z M0.00813246783,20.3115735 L0.0081330513,3.68842821 C0.0081330513,1.68201776 1.79443976,1.0490127e-06 3.86325061,1.0490127e-06 L32.1825923,6.82743462e-07 C34.3401857,6.82743462e-07 36.1469896,1.71598683 36.0019716,3.68842784 L35.9993752,20.2395587 C36.1488093,22.3092284 34.4123493,24.0000003 32.1825924,24.0000003 L3.86325005,24.0000007 C1.79443917,24.0000007 0.00813246783,22.317984 0.00813246783,20.3115735 Z" id="Shape"></path>
            <polygon id="Shape" points="34.7311557 6 1.28115495 6 1.28115495 8 34.7311557 8"></polygon>
            <polygon id="Shape" points="28 11 26 11 26 16 31 16 31 14 28 14"></polygon>
            <polygon id="Shape" points="5 14 17 14 17 12 5 12"></polygon>
            <polygon id="Shape" points="5 17 11 17 11 15 5 15"></polygon>
        </g>
    </g>
</svg>