<?xml version="1.0" encoding="UTF-8"?>
<svg width="40px" height="40px" viewBox="0 0 40 40" version="1.1" xmlns="http://www.w3.org/2000/svg" xmlns:xlink="http://www.w3.org/1999/xlink">
    <!-- Generator: Sketch 50.2 (55047) - http://www.bohemiancoding.com/sketch -->
    <title>circlediagram-40</title>
    <desc>Created with Sketch.</desc>
    <defs></defs>
    <g id="circlediagram-40" stroke="none" stroke-width="1" fill="none" fill-rule="evenodd">
        <g id="circlediagram-40-crop" transform="translate(19.500000, 19.500000) scale(-1, 1) translate(-19.500000, -19.500000) translate(1.000000, 1.000000)" fill="#FF0000" fill-rule="nonzero">
            <path d="M16,37 C24.836556,37 32,29.836556 32,21 C32,12.163444 24.836556,5 16,5 C7.163444,5 0,12.163444 0,21 L2,21 C2,13.2680135 8.2680135,7 16,7 C23.7319865,7 30,13.2680135 30,21 C30,28.7319865 23.7319865,35 16,35 L16,37 Z" id="Oval-2" transform="translate(16.000000, 21.000000) rotate(-180.000000) translate(-16.000000, -21.000000) "></path>
            <path d="M35.9995541,16.9701402 L36.0303229,18.0001212 L34.9998824,18 C33.8323737,17.9998627 28.8323549,17.9998627 20.0000155,18 L19,18.0001212 L19,0.963805546 L20.0355398,1.00063174 C28.746777,1.3104235 35.7405821,8.30108371 35.9995541,16.9701402 Z M21,3.07257767 C21,3.79867383 21,4.48961392 21,6.80595544 C21,10.7573776 21,10.9903645 21,15.9999848 C27.6030361,15.9998868 31.9140133,15.9998709 33.9330194,15.9999848 C33.2447253,9.20944089 27.8302505,3.79755358 21,3.07257767 Z" id="Oval-2"></path>
            <polygon id="Line" points="17 5 15 5 15 22 32 22 32 20 17 20"></polygon>
        </g>
    </g>
</svg>