<?xml version="1.0" encoding="UTF-8"?>
<svg width="40px" height="40px" viewBox="0 0 40 40" version="1.1" xmlns="http://www.w3.org/2000/svg" xmlns:xlink="http://www.w3.org/1999/xlink">
    <!-- Generator: Sketch 50.2 (55047) - http://www.bohemiancoding.com/sketch -->
    <title>clipboard-40</title>
    <desc>Created with Sketch.</desc>
    <defs></defs>
    <g id="clipboard-40" stroke="none" stroke-width="1" fill="none" fill-rule="evenodd">
        <g id="clipboard-40-crop" transform="translate(6.000000, 2.000000)" fill="#FF0000" fill-rule="nonzero">
            <path d="M19.0546117,6.00000068 L23.3128305,6.00000068 C24.1999961,6.00000068 25,6.80037904 25,7.68842784 L24.9999995,31.3115731 C24.9999995,32.199622 24.1999955,33.0000003 23.31283,33.0000003 L4.65933187,33.0000007 C3.71611228,33.0000007 2.94616516,32.2230515 3.00349749,31.3793723 L3.00579847,7.68842821 C2.94361503,6.73941864 3.65834271,6.00000105 4.65933189,6.00000105 L8.99186753,6.00000105 L8.99186753,4.00000105 L4.65933189,4.00000105 C2.51567722,4.00000105 0.868636667,5.70393781 1.00809943,7.75622659 L1.00579847,31.3115735 C0.870374325,33.2704817 2.58430651,35.0000007 4.65933189,35.0000007 L23.31283,35.0000003 C25.3047746,35.0000003 26.9999995,33.303982 26.9999995,31.3115732 L27,7.68842786 C27,5.69601898 25.3047751,4.00000068 23.3128305,4.00000068 L19.0546117,4.00000068 L19.0546117,6.00000068 Z" id="Shape"></path>
            <path d="M13,2 L13,5.00065097 L12,5.00065097 L10,5.00065097 L10,7 L18,7 L18,5.00065097 L15,5.00065097 L15,2 L13,2 Z M11,0 L17,0 L17,3.00065097 L20,3.00065097 L20,9 L8,9 L8,3.00065097 L11,3.00065097 L11,0 Z" id="Line-Copy"></path>
            <polygon id="Line" points="2 13 27 13 27 11 2 11"></polygon>
            <polygon id="Line" points="7 19 21 19 21 17 7 17"></polygon>
            <polygon id="Line" points="7 23 21 23 21 21 7 21"></polygon>
            <polygon id="Line" points="7 27 16 27 16 25 7 25"></polygon>
        </g>
    </g>
</svg>