<?xml version="1.0" encoding="UTF-8"?>
<svg width="40px" height="40px" viewBox="0 0 40 40" version="1.1" xmlns="http://www.w3.org/2000/svg" xmlns:xlink="http://www.w3.org/1999/xlink">
    <!-- Generator: Sketch 63.1 (92452) - https://sketch.com -->
    <title>Icons/40px/clock-40</title>
    <desc>Created with Sketch.</desc>
    <g id="Icons/40px/clock-40" stroke="none" stroke-width="1" fill="none" fill-rule="evenodd">
        <g>
            <rect id="invisible-40" x="0" y="0" width="40" height="40"></rect>
            <g id="outlines" transform="translate(2.000000, 2.000000)" fill="#FF0000" fill-rule="nonzero">
                <path d="M18,-1.42108547e-14 C27.9411255,-1.42108547e-14 36,8.0588745 36,18 C36,27.9411255 27.9411255,36 18,36 C8.0588745,36 -1.42108547e-14,27.9411255 -1.42108547e-14,18 C-1.42108547e-14,8.0588745 8.0588745,-1.42108547e-14 18,-1.42108547e-14 Z M18,2 C9.163444,2 2,9.163444 2,18 C2,26.836556 9.163444,34 18,34 C26.836556,34 34,26.836556 34,18 C34,9.163444 26.836556,2 18,2 Z M19,9 L19,18.0524058 L25.7335615,25.3203769 L24.2664385,26.6796231 L17,18.8364831 L17,9 L19,9 Z" id="Combined-Shape"></path>
            </g>
        </g>
    </g>
</svg>