<?xml version="1.0" encoding="UTF-8"?>
<svg width="40px" height="40px" viewBox="0 0 40 40" version="1.1" xmlns="http://www.w3.org/2000/svg" xmlns:xlink="http://www.w3.org/1999/xlink">
    <!-- Generator: Sketch 57.1 (83088) - https://sketch.com -->
    <title>Icons/40px/coins-40</title>
    <desc>Created with Sketch.</desc>
    <g id="Icons/40px/coins-40" stroke="none" stroke-width="1" fill="none" fill-rule="evenodd">
        <g>
            <rect id="invisible-40" x="0" y="0" width="40" height="40"></rect>
            <g id="outlines" transform="translate(2.000000, 6.000000)" fill="#FF0000" fill-rule="nonzero">
                <path d="M19,30 L19,32 L2,32 L2,30 L19,30 Z M26.5,13 C31.7467051,13 36,17.2532949 36,22.5 C36,27.7467051 31.7467051,32 26.5,32 C21.2532949,32 17,27.7467051 17,22.5 C17,17.2532949 21.2532949,13 26.5,13 Z M26.5,15 C22.3578644,15 19,18.3578644 19,22.5 C19,26.6421356 22.3578644,30 26.5,30 C30.6421356,30 34,26.6421356 34,22.5 C34,18.3578644 30.6421356,15 26.5,15 Z M15.8461538,27 L15.8461538,29 L2,29 L2,27 L15.8461538,27 Z M33,23 C33,26.3137085 30.3137085,29 27,29 L27,27 C29.209139,27 31,25.209139 31,23 L33,23 Z M15,24 L15,26 L2,26 L2,24 L15,24 Z M15,21 L15,23 L2,23 L2,21 L15,21 Z M15.8461538,18 L15.8461538,20 L2,20 L2,18 L15.8461538,18 Z M17,15 L17,17 L2,17 L2,15 L17,15 Z M19,12 L19,14 L2,14 L2,12 L19,12 Z M21,9 L21,11 L4,11 L4,9 L21,9 Z M21,6 L21,8 L4,8 L4,6 L21,6 Z M17,3 L17,5 L-5.32907052e-15,5 L-5.32907052e-15,3 L17,3 Z M17,0 L17,2 L-5.32907052e-15,2 L-5.32907052e-15,0 L17,0 Z" id="Combined-Shape"></path>
            </g>
        </g>
    </g>
</svg>