<?xml version="1.0" encoding="UTF-8"?>
<svg width="40px" height="40px" viewBox="0 0 40 40" version="1.1" xmlns="http://www.w3.org/2000/svg" xmlns:xlink="http://www.w3.org/1999/xlink">
    <!-- Generator: Sketch 50.2 (55047) - http://www.bohemiancoding.com/sketch -->
    <title>computer-40</title>
    <desc>Created with Sketch.</desc>
    <defs></defs>
    <g id="computer-40" stroke="none" stroke-width="1" fill="none" fill-rule="evenodd">
        <g id="computer-40-crop" transform="translate(2.000000, 3.000000)" fill="#FF0000" fill-rule="nonzero">
            <path d="M0,19 L0,0 L28,0 L28,19 L0,19 Z M26,17 L26,2 L2,2 L2,17 L26,17 Z" id="Stroke-1"></path>
            <polygon id="Stroke-3" points="7 25 21 25 21 23 7 23"></polygon>
            <polygon id="Stroke-4" points="11 18.3418617 11 23 13 23 13 18.3418617"></polygon>
            <polygon id="Stroke-5" points="15 18.3418617 15 23 17 23 17 18.3418617"></polygon>
            <polygon id="Stroke-6" points="10.7879498 3.80282322 4.29316482 10.2926217 5.70683518 11.7073783 12.2016201 5.21757978"></polygon>
            <polygon id="Stroke-7" points="6.42450525 2.80309472 3.40348269 5.82411728 4.81769625 7.23833084 7.83871881 4.21730828"></polygon>
            <path d="M28,31 L28,29 C28,26.7956425 29.7927949,25 32,25 C34.207013,25 36,26.7957226 36,29 L36,31 C36,33.2044685 34.2070923,35 32,35 C29.7927156,35 28,33.2045486 28,31 Z M30,31 C30,32.1006612 30.8979684,33 32,33 C33.1018675,33 34,32.1005532 34,31 L34,29 C34,27.8996101 33.1017604,27 32,27 C30.8980756,27 30,27.8995021 30,29 L30,31 Z" id="Stroke-8"></path>
            <polygon id="Stroke-10" points="31 28 31 30 33 30 33 28"></polygon>
            <path d="M22,18.4165414 L22,18.6482406 C22,21.0695869 23.9609755,23 26.3899994,23 L28.6200008,23 C29.937598,23 31,24.0668086 31,25.3899994 L33,25.3899994 C33,22.9640881 31.0440249,21 28.6200008,21 L26.3899994,21 C25.058574,21 24,19.9579242 24,18.6482406 L24,18.4165414 L22,18.4165414 Z" id="Stroke-14"></path>
        </g>
    </g>
</svg>