<?xml version="1.0" encoding="UTF-8"?>
<svg width="40px" height="40px" viewBox="0 0 40 40" version="1.1" xmlns="http://www.w3.org/2000/svg" xmlns:xlink="http://www.w3.org/1999/xlink">
    <!-- Generator: Sketch 62 (91390) - https://sketch.com -->
    <title>Icons/40px/contract-40</title>
    <desc>Created with Sketch.</desc>
    <g id="Icons/40px/contract-40" stroke="none" stroke-width="1" fill="none" fill-rule="evenodd">
        <g>
            <rect id="invisible-40" x="0" y="0" width="40" height="40"></rect>
            <g id="outlines" transform="translate(2.000000, 2.000000)" fill="#FF0000" fill-rule="nonzero">
                <path d="M27,-1.30739863e-12 L27,8 L25,8 L25,2 L2,2 L2,34 L25,34 L25,29 L27,29 L27,36 L0,36 L0,-1.30739863e-12 L27,-1.30739863e-12 Z M9.52398325,23.4917263 C11.0862952,24.3781641 11.1237439,25.8180633 10.3456016,27.8309337 C10.2682843,28.0309355 10.1870935,28.228914 10.0718485,28.5019322 C9.71953734,29.3365657 9.58949797,29.6604103 9.5258565,29.9103104 C9.72895625,29.7613335 10.0643834,29.4185237 10.5495632,28.7947805 C10.6344059,28.6857073 10.6827802,28.6226116 10.8664042,28.3822274 C12.2388681,26.5855195 12.8775656,25.9785237 14.0576027,25.9785237 C15.4691081,25.9785237 15.8499796,26.7622303 16.1046552,28.4599617 L16.1089057,28.4883088 C16.1700966,28.8964666 16.2103187,29.105725 16.2561632,29.2380989 L21,29.2380989 L21,31.2380989 L16.1274884,31.2380989 C14.7402586,31.2380989 14.3859087,30.4850698 14.1310097,28.7848347 L14.1267853,28.7566608 C14.0648604,28.343854 14.0221801,28.1288597 13.9725658,27.9936313 C13.7137176,28.0789973 13.2661666,28.5353777 12.4557552,29.5962963 C12.2680768,29.8419881 12.2181121,29.9071583 12.128211,30.0227345 C10.8722614,31.6373732 10.020938,32.2991979 8.74242728,31.9145962 C7.73014485,31.6100813 7.34687718,30.7618815 7.51645037,29.7553472 C7.60519603,29.2285803 7.70480635,28.966643 8.22927839,27.7241562 C8.33727,27.4683214 8.41167433,27.2868913 8.48014323,27.1097784 C8.9387376,25.923503 8.92648038,25.4522141 8.53700786,25.2312319 C7.35596825,24.5611236 6.52928734,25.5968849 5.99083425,29.5464327 L4.00916575,29.2762662 C4.70860621,24.1458777 6.56892233,21.8150588 9.52398325,23.4917263 Z M30.5985143,7.57354459 L36.3987011,13.5874726 L23.0974755,27 L17.0394534,27 L16.9969844,21.1503387 L30.5985143,7.57354459 Z M27.788,13.203 L19.0030156,21.9738121 L19.024986,25 L22.2641629,25 L30.888,16.303 L27.788,13.203 Z M14,13 L14,15 L5,15 L5,13 L14,13 Z M30.5714106,10.4264554 L29.205,11.79 L32.297,14.882 L33.6012989,13.5679973 L30.5714106,10.4264554 Z M20,9 L20,11 L5,11 L5,9 L20,9 Z M20,5 L20,7 L5,7 L5,5 L20,5 Z" id="Combined-Shape"></path>
            </g>
        </g>
    </g>
</svg>