<?xml version="1.0" encoding="UTF-8"?>
<svg width="40px" height="40px" viewBox="0 0 40 40" version="1.1" xmlns="http://www.w3.org/2000/svg" xmlns:xlink="http://www.w3.org/1999/xlink">
    <!-- Generator: Sketch 50.2 (55047) - http://www.bohemiancoding.com/sketch -->
    <title>cup-40</title>
    <desc>Created with Sketch.</desc>
    <defs></defs>
    <g id="cup-40" stroke="none" stroke-width="1" fill="none" fill-rule="evenodd">
        <g id="cop-40-crop" transform="translate(3.305556, 3.000000)" fill="#FF0000" fill-rule="nonzero">
            <path d="M7.69444444,2 L7.69444444,13 C7.69444444,17.9372213 11.7427023,22 16.6944444,22 C21.6463898,22 25.6944444,17.9373362 25.6944444,13 L25.6944444,2 L7.69444444,2 Z M27.6944444,13 C27.6944444,19.040296 22.7525753,24 16.6944444,24 C10.6365266,24 5.69444444,19.0401909 5.69444444,13 L5.69444444,0 L27.6944444,0 L27.6944444,13 Z" id="Stroke-1"></path>
            <polygon id="Stroke-3" points="6.28842286 5 16.1943943 5 16.1943943 3 6.28842286 3"></polygon>
            <path d="M17.6944444,23 L17.6944444,28.2216859 C17.6944444,31.411358 20.280147,33.9969431 23.4697016,33.9969431 L23.4697016,31.9969431 C21.3846962,31.9969431 19.6944444,30.3067682 19.6944444,28.2216859 L19.6944444,23 L17.6944444,23 Z" id="Stroke-7"></path>
            <path d="M9.92444399,23 L9.92444399,28.2216859 C9.92444399,31.411358 12.5101466,33.9969431 15.6997011,33.9969431 L15.6997011,31.9969431 C13.6146957,31.9969431 11.924444,30.3067682 11.924444,28.2216859 L11.924444,23 L9.92444399,23 Z" id="Stroke-7" transform="translate(12.812073, 28.498472) scale(-1, 1) translate(-12.812073, -28.498472) "></path>
            <polygon id="Stroke-9" points="6.69444444 34 26.6944444 34 26.6944444 32 6.69444444 32"></polygon>
            <path d="M27.1002086,5 C29.387558,5 31.2315514,6.79679421 31.2315514,9 C31.2315514,11.2032058 29.387558,13 27.1002086,13 L27.1002086,15 C30.4806877,15 33.2315514,12.3195479 33.2315514,9 C33.2315514,5.68045207 30.4806877,3 27.1002086,3 L27.1002086,5 Z" id="Stroke-11"></path>
            <path d="M6.28842286,3 C2.90794371,3 0.15708,5.68045207 0.15708,9 C0.15708,12.3195479 2.90794371,15 6.28842286,15 L6.28842286,13 C4.00107343,13 2.15708,11.2032058 2.15708,9 C2.15708,6.79679421 4.00107343,5 6.28842286,5 L6.28842286,3 Z" id="Stroke-13"></path>
        </g>
    </g>
</svg>