<?xml version="1.0" encoding="UTF-8"?>
<svg width="40px" height="40px" viewBox="0 0 40 40" version="1.1" xmlns="http://www.w3.org/2000/svg" xmlns:xlink="http://www.w3.org/1999/xlink">
    <!-- Generator: Sketch 54.1 (76490) - https://sketchapp.com -->
    <title>Icons/40px/damage-40</title>
    <desc>Created with Sketch.</desc>
    <g id="Icons/40px/damage-40" stroke="none" stroke-width="1" fill="none" fill-rule="evenodd">
        <g fill="#FF0000" fill-rule="nonzero" id="lines">
            <g transform="translate(6.000000, 3.000000)">
                <path d="M15,33 L15,35 L6,35 L6,33 L15,33 Z M1,33 L4,33 L4,35 L-1,35 L-1,-1 L29,-1 L29,35 L17,35 L17,33 L27,33 L27,1 L1,1 L1,33 Z" id="Rectangle-7"></path>
                <polygon id="Path-6" points="13.4507193 7.25086592 14.9259861 10.1428571 20.0769231 10.1428571 20.0769231 15.0580711 27.3829511 20.7869248 28.6170489 19.2130752 22.0769231 14.0847861 22.0769231 8.14285714 16.150937 8.14285714 14.856973 5.60627693 11 4.34612834 11 1 9 1 9 5.79672881"></polygon>
                <path d="M15.5388114,21.3978235 L14.0790867,25.9959562 L20,29.1044357 L20,33 L22,33 L22,27.8955643 L16.4923418,25.0040438 L17.88976,20.6021765 L12.5537761,16.8669877 L9.80217481,18 C3.4521271,18 3.42743011,18 1,18 L1,20 C3.45238095,20 3.45238095,20 10,20 L10.1978252,20 L12.3033668,19.1330123 L15.5388114,21.3978235 Z" id="Path-8"></path>
            </g>
        </g>
    </g>
</svg>