<?xml version="1.0" encoding="UTF-8"?>
<svg width="40px" height="40px" viewBox="0 0 40 40" version="1.1" xmlns="http://www.w3.org/2000/svg" xmlns:xlink="http://www.w3.org/1999/xlink">
    <!-- Generator: Sketch 63.1 (92452) - https://sketch.com -->
    <title>Icons/40px/digital-services-40</title>
    <desc>Created with Sketch.</desc>
    <g id="Icons/40px/digital-services-40" stroke="none" stroke-width="1" fill="none" fill-rule="evenodd">
        <g>
            <rect id="invisible-40" x="0" y="0" width="40" height="40"></rect>
            <g id="lines" transform="translate(3.000000, 5.000000)" fill="#FF0000" fill-rule="nonzero">
                <path d="M31,16 L26,16 C25.2361879,16 25,16.2543562 25,17.1538462 L25,17.1538462 L25,26.8461538 C25,27.7456438 25.2361879,28 26,28 L26,28 L31,28 C31.7638121,28 32,27.7456438 32,26.8461538 L32,26.8461538 L32,17.1538462 C32,16.2543562 31.7638121,16 31,16 L31,16 Z M14,22 L4.11111111,22 C1.56672279,22 0.0911777714,20.6169252 0.00408724529,18.1568545 L0,17.9230769 L0,4.07692308 C0,1.54983906 1.39844234,0.0901859088 3.87571584,0.0040426363 L4.11111111,0 L25.8888889,0 C28.4332772,0 29.9088222,1.38307485 29.9959128,3.84314553 L30,4.07692308 L30,14 L31,14 C32.8348955,14 33.9206048,15.0986525 33.995815,16.9455715 L34,17.1538462 L34,26.8461538 C34,28.8184588 32.9028546,30 31,30 L31,30 L26,30 C24.0971454,30 23,28.8184588 23,26.8461538 L23,26.8461538 L23,22 L16,22 L16,26 L20,26 L20,28 L10,28 L10,26 L14,26 L14,22 Z M28.5,24 C29.3284271,24 30,24.6715729 30,25.5 C30,26.3284271 29.3284271,27 28.5,27 C27.6715729,27 27,26.3284271 27,25.5 C27,24.6715729 27.6715729,24 28.5,24 Z M25.8888889,2 L4.11111111,2 C2.64783333,2 2.04844889,2.53490988 2.00283938,3.9017178 L2,4.07692308 L2,17.9230769 C2,19.3597253 2.54085333,19.9521011 3.9326784,19.9971925 L4.11111111,20 L23,20 L23,17.1538462 C23,15.2519807 24.0201773,14.0854044 25.7992191,14.0045034 L26,14 L28,14 L28,4.07692308 C28,2.64027472 27.4591467,2.0478989 26.0673216,2.00280747 L25.8888889,2 Z" id="Combined-Shape"></path>
            </g>
        </g>
    </g>
</svg>