<?xml version="1.0" encoding="UTF-8"?>
<svg width="40px" height="40px" viewBox="0 0 40 40" version="1.1" xmlns="http://www.w3.org/2000/svg" xmlns:xlink="http://www.w3.org/1999/xlink">
    <!-- Generator: Sketch 64 (93537) - https://sketch.com -->
    <title>Icons/40px/document-40</title>
    <desc>Created with Sketch.</desc>
    <g id="Icons/40px/document-40" stroke="none" stroke-width="1" fill="none" fill-rule="evenodd">
        <g>
            <rect id="invisible-40" x="0" y="0" width="40" height="40"></rect>
            <g id="outlines" transform="translate(7.000000, 2.000000)" fill="#FF0000" fill-rule="nonzero">
                <path d="M18.7703346,0 L27,8.09039411 L27,36 L-5.32907052e-15,36 L-5.32907052e-15,0 L18.7703346,0 Z M2,2 L2,34 L25,34 L24.999,10 L17,10 L17,2 L2,2 Z M19,18 L19,20 L5,20 L5,18 L19,18 Z M19,13 L19,15 L5,15 L5,13 L19,13 Z M13,8 L13,10 L5,10 L5,8 L13,8 Z M24.055,8 L19,3.031 L19,8 L24.055,8 Z" id="Combined-Shape"></path>
            </g>
        </g>
    </g>
</svg>