<?xml version="1.0" encoding="UTF-8"?>
<svg width="40px" height="40px" viewBox="0 0 40 40" version="1.1" xmlns="http://www.w3.org/2000/svg" xmlns:xlink="http://www.w3.org/1999/xlink">
    <!-- Generator: Sketch 54.1 (76490) - https://sketchapp.com -->
    <title>Icons/40px/dog-40</title>
    <desc>Created with Sketch.</desc>
    <g id="Icons/40px/dog-40" stroke="none" stroke-width="1" fill="none" fill-rule="evenodd">
        <g>
            <rect id="invisible-40" x="0" y="0" width="40" height="40"></rect>
            <g id="lines" transform="translate(5.000000, 3.000000)" fill="#FF0000" fill-rule="nonzero">
                <polygon id="Path-5" points="6 14 6 28 8 28 8 14"></polygon>
                <path d="M3,33 L3,30 C3,29.4477153 3.44771525,29 4,29 L10,29 L10,27 L4,27 C2.34314575,27 1,28.3431458 1,30 L1,35 L23.3457592,35 L23.5736833,34.3162278 C24.5215705,31.4725662 25,29.0804186 25,27.125 C25,21.7636802 22.3543291,16.3958978 17.1270471,11.0293896 L15.6943713,12.4248968 C20.5861437,17.4469591 23,22.3444146 23,27.125 C23,28.6871391 22.6348068,30.6492215 21.8975954,33 L3,33 Z" id="Path-3"></path>
                <path d="M24,28 C29.2384336,28 32,25.845196 32,21 L30,21 C30,24.6167867 28.2272933,26 24,26 L24,28 Z" id="Path-4"></path>
                <path d="M19.5802332,20.8766481 C18.783916,20.3093335 17.84229,20 16.8580696,20 C14.160388,20 12,22.3015444 12,25.1101499 C12,27.2966073 13.3191145,29.2299234 15.2662785,29.9395503 L15.9511004,28.0604497 C14.8027147,27.6419306 14,26.4654587 14,25.1101499 C14,23.3788092 15.2942452,22 16.8580696,22 C17.4206337,22 17.9578816,22.1764913 18.4197668,22.5055489 L19.5802332,20.8766481 Z" id="Oval-2"></path>
                <path d="M6.56798979,4 L6.85889077,3.51215881 C8.21611465,1.23609317 10.465679,0.513187178 13.8761935,1.36177585 C16.0915872,1.91300002 17.4868634,3.23668865 18.2770703,5.15479345 C18.8204848,6.47384794 19,7.80222533 19,9.1563949 C19,10.3446759 18.4510044,11 17.1428571,11 C15.7654535,11 15.2857143,10.236461 15.2857143,7.73459234 L13.2857143,7.73459234 C13.2857143,11.201872 14.4154961,13 17.1428571,13 C19.6416969,13 21,11.3786232 21,9.1563949 C21,7.56387085 20.7888142,6.00113729 20.126291,4.39296493 C19.105871,1.91605345 17.2283529,0.134865395 14.3591006,-0.579048883 C10.379878,-1.56914093 7.33607147,-0.714624074 5.45473224,2 L-1,2 L-1,3 C-1,4.11282553 -1,4.11282553 -1,6.19568174 C-1,10.8963204 4.14492196,13.8971241 8.66565097,11.7417952 L7.80493727,9.93647751 C4.5786804,11.4746464 1,9.38736163 1,6.19568174 C1,4.94051746 1,4.44173634 1,4 L6.56798979,4 Z" id="Path-6"></path>
            </g>
        </g>
    </g>
</svg>