<?xml version="1.0" encoding="UTF-8"?>
<svg width="40px" height="40px" viewBox="0 0 40 40" version="1.1" xmlns="http://www.w3.org/2000/svg" xmlns:xlink="http://www.w3.org/1999/xlink">
    <title>Icons/40px/dog_new-40</title>
    <g id="Icons/40px/dog_new-40" stroke="none" stroke-width="1" fill="none" fill-rule="evenodd">
        <g>
            <rect id="invisible-40" x="0" y="0" width="40" height="40"></rect>
            <g id="lines" transform="translate(1.000000, 4.000000)" fill="#FF0000" fill-rule="nonzero">
                <path d="M9.33768015,0.0111158038 C9.72136019,0.0549697341 10.4437189,0.374364033 11.2202932,0.812673016 L11.6475462,1.06260243 C12.7921067,1.75550858 13.9419458,2.63975312 14.2216608,3.23333846 L14.259,3.33 L14.2685496,3.34762021 L14.277,3.408 L14.2833999,3.4349313 L14.3800839,4.51630763 L14.4949869,5.85068946 L14.5338184,6.25254248 L14.5966345,6.78913071 C14.6183033,6.95857032 14.6407167,7.11845859 14.6639173,7.26841089 L14.7359243,7.68807526 L14.7989265,7.98619936 L14.9045861,8.40063856 C14.9069861,8.41708361 14.9048346,8.42210798 14.8966936,8.41415888 L15.9261291,9.42563318 L17.1264916,10.6239089 C18.6063445,12.1112845 20.0722322,13.6234301 21.4432914,15.0914543 L22.2297425,15.9403113 L23.1826158,16.9889791 L23.7265485,17.598744 L24.2409523,18.1848671 L24.7255793,18.7475213 L25.1801817,19.2868798 C25.253433,19.3748412 25.3254229,19.4618392 25.3961463,19.5478773 L25.8052473,20.0526168 L26.1837041,20.5344934 C26.3652301,20.7697448 26.5351717,20.9964874 26.6933895,21.2148188 L26.9941518,21.6402952 C27.8017874,22.8141992 28.2299722,23.7200902 28.2533408,24.3756852 C28.2645375,24.5919645 28.2589421,24.8120359 28.2377569,25.0355233 C28.1580109,25.876781 27.8655352,26.7362955 27.4310858,27.5919594 C27.3191078,27.8125042 27.2070387,28.0156642 27.0995584,28.1984241 L27.021,28.328 L27.1809239,28.5525096 C27.2600643,28.65941 27.3412446,28.7653596 27.4240744,28.8694344 L27.6771223,29.1751102 C28.1448981,29.7174263 28.5919123,30.1045745 28.9408184,30.2613442 C29.0165871,30.2953884 29.0784406,30.3143662 29.1255586,30.3217273 L29.1677346,30.325344 L32.2764513,30.325344 C33.9255504,30.325344 34.6546088,29.3803873 34.904538,27.3907203 L34.9246923,27.2201516 L34.9565557,26.8820339 L34.9784644,26.529808 C34.9813734,26.468719 34.9839329,26.4061354 34.9861756,26.3416039 L34.9960906,25.9274124 L35,25 L37,25 L36.9984753,25.7366179 L36.9908085,26.2235564 C36.987038,26.3750509 36.9819461,26.5170775 36.9752129,26.6536871 L36.9497697,27.0513161 C36.9342665,27.2460562 36.9143509,27.437723 36.8889435,27.6399886 C36.5385101,30.4297618 35.2119199,32.2178922 32.5245198,32.3206631 L32.2764513,32.325344 L29.1677346,32.325344 C28.8141743,32.325344 28.4650628,32.2401903 28.1211244,32.0856527 C27.4486796,31.7835114 26.8047773,31.2258431 26.1626642,30.481409 C25.8549306,30.1246379 25.5672503,29.7462723 25.3055237,29.3681482 L25.0681957,29.0141402 L24.9650369,28.8500522 L24.6155861,28.2743326 L25.0717386,27.6582451 L25.2041034,27.4593345 C25.3551483,27.2248879 25.5068161,26.9641537 25.6477821,26.6865161 C25.9782299,26.0356869 26.1941249,25.4012243 26.2466826,24.8467818 C26.2589027,24.7178692 26.2620233,24.5951348 26.255316,24.4630973 C26.2525876,24.3867466 26.2269621,24.2878698 26.1794862,24.167907 L26.0920152,23.9723283 C26.074749,23.9371561 26.0561498,23.900711 26.0362341,23.8630155 L25.9010713,23.6220182 L25.7350953,23.3520917 L25.539091,23.0543161 L25.3138433,22.7297713 L25.0601373,22.3795374 L24.7787579,22.0046942 L24.4704901,21.6063219 L24.1361189,21.1855003 L23.5873353,20.5145381 L23.1911398,20.0423183 L22.5532994,19.2993213 L21.8655573,18.5179632 L21.1305629,17.7018891 L20.3736329,16.877959 C20.2444357,16.7385141 20.113751,16.5980369 19.9816295,16.4565714 C18.8974633,15.29573 17.7515431,14.1051563 16.5859363,12.9209394 L15.4424133,11.76723 L14.1082911,10.4416193 L13.4994425,9.84513377 C13.1671688,9.52069081 12.9570727,9.01157873 12.7984017,8.23688372 C11.0190641,8.46161568 9.43520353,7.82038126 8.59964709,6.44222824 C8.03036565,5.56545792 8.06575547,4.58929644 8.52136639,3.54856489 C8.67525587,3.19704206 8.86036834,2.8636608 9.1187928,2.45850337 L9.35436679,2.10465776 L9.31734703,2.08475272 L9.18402172,2.02287801 C9.15030523,2.00833327 9.12790269,2.00013165 9.11858008,1.999062 L9.08284414,1.99831676 L8.95843091,2.00881545 L8.65550735,2.05285327 L8.38850556,2.09976256 L8.07944804,2.15966517 L7.73689459,2.23166341 L7.32311856,2.32479108 L6.83574562,2.4406497 L5.94334301,2.66712 L5.71063904,2.72935848 L5.47511922,2.67880967 C5.32482021,2.6465515 5.16806801,2.61036588 4.99871158,2.56908237 L4.3300695,2.39813306 L3.33476988,2.13988763 L3.163,2.097 L3.14432301,2.18850881 C3.10996121,2.3708725 3.07993092,2.58053486 3.05630169,2.80570004 L3.03488279,3.03559595 L3.02176429,3.21774504 L3.00544751,3.5761987 C3.00374449,3.63480605 3.00252108,3.69268409 3.00173439,3.74959006 L3.0019116,4.0774188 L3.01051063,4.3702649 L3.02547211,4.6164755 L3.04473671,4.80439777 C3.05164661,4.85602904 3.05893047,4.89600346 3.06624507,4.92237887 L3.07619512,4.94538497 L3.22734436,5.03979358 L3.39965019,5.13628985 L3.61534263,5.24443216 L3.8823131,5.36841093 L5.17392861,5.93377222 C6.46732395,6.51631144 7.27964499,7.02027692 7.83140072,7.74357893 C8.15158219,8.18157108 8.33110029,8.65116751 8.42183007,9.41697092 L8.45350957,9.73971719 C8.45804124,9.79635026 8.46220904,9.8544566 8.46602834,9.91411462 L8.48488504,10.2913101 L8.49611544,10.7095091 L8.5002756,11.4219212 L8.48601634,12.5504398 L8.4500905,14.2670777 C8.44651498,14.4997156 8.44441315,14.7218261 8.44391784,14.9342339 L8.44738428,15.5431743 C8.44880955,15.640088 8.45066965,15.7347822 8.45298119,15.8273601 L8.4724005,16.3582563 C8.5016864,16.949931 8.55471976,17.4480092 8.6371953,17.8878561 L8.67436115,18.0728999 C9.00912367,19.7513591 9.77255257,20.5884519 11.906928,21.9523784 L12.6966862,22.449975 L13.2192964,22.7878778 L13.5231795,22.9936184 L14.1044028,23.3953645 L13.6678608,25.0229114 L13.1523892,26.9780073 L12.9625615,27.664263 L12.7924323,28.2412944 L12.7375217,28.4179243 C12.4567616,29.3085251 12.1915742,29.9466167 11.8759717,30.4267243 L11.7430431,30.6241567 L11.4366815,31.0581885 L11.0920672,31.5248074 C10.918331,31.7559235 10.7367963,31.9921089 10.5527,32.2275786 L9.9026208,33.0432558 L8.35431623,31.777257 L8.70931187,31.3354509 C8.97703634,30.9984526 9.24463308,30.6539597 9.49339333,30.3230413 L9.7831874,29.9314911 L10.1140867,29.4631152 C10.1463079,29.4158137 10.1769377,29.3701885 10.2058998,29.3263356 C10.3958744,29.0373358 10.6002677,28.5455265 10.83006,27.816601 L10.9332453,27.479846 L11.0994046,26.9020835 L11.803,24.252 L11.1070993,23.8130368 C8.34296499,22.0795591 7.19930376,20.9024007 6.71597458,18.4784928 C6.54516589,17.6832509 6.46640789,16.7886268 6.44799675,15.6232732 L6.44374857,14.9597467 C6.44397449,14.8443407 6.44465151,14.7264399 6.4457558,14.6059155 L6.48630979,12.4779021 L6.4941115,11.8721921 L6.49501878,11.1669245 L6.48792777,10.6927661 L6.47377333,10.2819604 L6.45235291,9.93080897 L6.42346394,9.63561351 C6.37987624,9.27767975 6.31583225,9.05909932 6.22917128,8.94042243 C5.97606509,8.60878427 5.44486604,8.2657958 4.57669647,7.86010427 L4.17522646,7.67876057 L3.22978606,7.26729558 L3.01530587,7.17133218 L2.64497485,6.996481 C2.47677107,6.91323212 2.33142849,6.83473315 2.19733085,6.75416582 C1.84965611,6.54527905 1.58960608,6.32961086 1.38431147,6.01569826 C0.570739118,4.66176618 0.951198117,0.00464707897 2.62407667,0.00464707897 L2.74803313,0.00599345915 L2.92365887,0.0158478329 L3.11373214,0.0404528562 C3.13677146,0.0442290984 3.16063705,0.048389936 3.18551513,0.0529725138 L3.4417838,0.106605619 L3.65790362,0.157984836 L5.41053796,0.610809418 L5.667,0.673 L5.86087969,0.622368641 L6.36304266,0.497312756 L6.87220601,0.376284505 C7.02234865,0.341539333 7.16877474,0.308557534 7.31068426,0.277604876 L7.80632988,0.17373487 C7.88373861,0.158321554 7.95860252,0.143874541 8.0310035,0.130419523 L8.43650953,0.0617988742 C8.8137709,0.00549321378 9.10826403,-0.0132508967 9.33768015,0.0111158038 Z M19.9142956,21.9678433 L21.5567265,23.1090798 C21.3930331,23.3446621 21.2340393,23.5838765 21.0815476,23.8226189 L20.7857675,24.2982583 L20.5105307,24.7653427 C20.4665478,24.8420718 20.4235544,24.9181405 20.3816172,24.9933967 L20.1432031,25.433968 C19.8061964,26.0765524 19.5655592,26.6287013 19.4699573,26.9796026 L19.439,27.111 L19.4707516,27.1551781 L19.5299399,27.2313753 L19.6808436,27.4075175 L19.7717718,27.506182 C20.1049311,27.8601361 20.5841382,28.2942631 21.1331283,28.7410272 L21.519732,29.0485129 L21.9056539,29.3420591 C21.9694892,29.3895462 22.0329748,29.4362457 22.0959504,29.4820544 L22.4663969,29.745389 L22.8168914,29.9823811 L23.139726,30.1880696 L23.4271927,30.3574934 C23.5607993,30.4323122 23.6782524,30.4916714 23.7752163,30.5327802 L23.8651898,30.5677022 L23.5384615,32.5128205 L16.3589744,32.5128205 L16.3589744,30.5128205 L20.128,30.512 L19.8666181,30.2969006 L19.457702,29.9432088 C18.390361,28.9922477 17.5309238,27.9959769 17.4335068,27.3613018 L17.4243063,27.246637 C17.4243063,26.2190494 18.4044737,24.1934282 19.7383565,22.2242815 L19.9142956,21.9678433 Z M8.23663082,24.0001339 L10.1223435,24.6665328 L9.80000624,25.5613664 L9.49547674,26.3702641 L9.30334273,26.8582583 L9.12061196,27.3027653 L8.94787989,27.701668 C8.91995752,27.7642338 8.89247658,27.8248111 8.86544946,27.883356 L8.70883195,28.209882 C8.58302105,28.4610736 8.46917617,28.6592468 8.36884798,28.7988875 C8.23847395,28.9803471 8.08603173,29.1815089 7.91404809,29.4001492 L7.56148583,29.839586 C7.29337432,30.1680231 7.00725487,30.5073816 6.72127474,30.8391529 L6.33793713,31.2788652 L4.84155005,29.9519041 L5.20638785,29.5333513 C5.38982214,29.3205455 5.57319451,29.1046394 5.75079784,28.8915695 L6.17620405,28.3722769 L6.43051222,28.0504759 L6.64945397,27.7622422 C6.68280904,27.7172135 6.71454947,27.6737432 6.74460477,27.631911 C6.7676534,27.599831 6.79388118,27.5577959 6.82304146,27.5063857 L6.9190732,27.3246094 L7.03122022,27.0900621 L7.15800271,26.8062237 L7.37238094,26.2956576 L7.61136519,25.6937609 L7.86996116,25.0122783 L8.14317457,24.2629544 L8.23663082,24.0001339 Z M11.1013668,3.08465776 L10.9358521,3.33257841 L10.7205405,3.66892594 C10.5599475,3.92914272 10.4439121,4.14409192 10.353493,4.35063233 C10.1421318,4.83343517 10.131425,5.12876307 10.2933494,5.3790088 C10.6990469,6.04779914 11.5023899,6.38312256 12.5248629,6.25801328 L12.4468959,5.40348158 L12.327,3.937 L12.2168813,3.84701177 L12.1186016,3.77121833 L11.9617883,3.65575825 L11.5961056,3.40298071 L11.1752569,3.13039801 L11.1013668,3.08465776 Z" id="Combined-Shape"></path>
            </g>
        </g>
    </g>
</svg>