<?xml version="1.0" encoding="UTF-8"?>
<svg width="40px" height="40px" viewBox="0 0 40 40" version="1.1" xmlns="http://www.w3.org/2000/svg" xmlns:xlink="http://www.w3.org/1999/xlink">
    <!-- Generator: Sketch 63.1 (92452) - https://sketch.com -->
    <title>Icons/40px/e-invoice-40</title>
    <desc>Created with Sketch.</desc>
    <g id="Icons/40px/e-invoice-40" stroke="none" stroke-width="1" fill="none" fill-rule="evenodd">
        <g>
            <rect id="invisible-40" x="0" y="0" width="40" height="40"></rect>
            <g id="outlines" transform="translate(3.000000, 3.000000)" fill="#FF0000" fill-rule="nonzero">
                <path d="M34,3.55271368e-15 L34,34.5915349 L24.371,29.954 L17,34.1506322 L9.628,29.954 L0,34.5915349 L0,3.55271368e-15 L34,3.55271368e-15 Z M32,2 L2,2 L2,31.409 L9.70540244,27.697502 L17,31.849 L24.2945976,27.697502 L32,31.409 L32,2 Z M26,22 L26,24 L20,24 L20,22 L26,22 Z M26,18 L26,20 L8,20 L8,18 L26,18 Z M16.9236984,5 C19.6649124,5 20.7936476,7.11413889 20.2024054,10.2315979 L15.3828854,10.2315979 C15.5083004,11.4857481 16.2070412,12.023241 17.3357764,12.023241 C18.1778486,12.023241 19.1274195,11.772411 19.8799096,11.4499152 L20.1307396,13.2236419 C19.2528345,13.7073856 18.2495144,13.9940485 17.2461942,13.9940485 C14.7916431,13.9940485 13,12.2740711 13,9.38952565 C13,6.3795652 15.0066403,5 16.9236984,5 Z M16.9416149,6.80955955 C16.0457933,6.80955955 15.4008018,7.54413324 15.3649689,8.69078483 L18.2853472,8.69078483 C18.3570129,7.5262168 17.9091022,6.80955955 16.9416149,6.80955955 Z" id="Combined-Shape"></path>
            </g>
        </g>
    </g>
</svg>