<?xml version="1.0" encoding="UTF-8"?>
<svg width="40px" height="40px" viewBox="0 0 40 40" version="1.1" xmlns="http://www.w3.org/2000/svg" xmlns:xlink="http://www.w3.org/1999/xlink">
    <!-- Generator: Sketch 50.2 (55047) - http://www.bohemiancoding.com/sketch -->
    <title>facebook-40</title>
    <desc>Created with Sketch.</desc>
    <defs></defs>
    <g id="facebook-40" stroke="none" stroke-width="1" fill="none" fill-rule="evenodd">
        <g id="facebook-40-crop" transform="translate(3.000000, 3.000000)" fill="#FF0000">
            <path d="M2,2 L2,32 L32,32 L32,2 L2,2 Z M0,0 L34,0 L34,34 L0,34 L0,0 Z" id="Rectangle-3" fill-rule="nonzero"></path>
            <path d="M15.0122336,24.984375 L15.0122336,16.96875 L13,16.96875 L13,14.0588555 L15.0122336,14.0588555 L15.0122336,11.9128584 C15.0122336,9.42290742 16.533172,8.06708972 18.7545876,8.06708972 C19.8184446,8.06708972 20.7331787,8.14593626 21,8.18136007 L21,10.7838673 L19.4590643,10.7844386 C18.2506554,10.7844386 18.0169725,11.3586472 18.0169725,12.201391 L18.0169725,14.0588555 L20.8982994,14.0588555 L20.5229213,16.96875 L18.0169725,16.96875 L18.0169725,24.984375 L15.0122336,24.984375 Z" id="Fill-2"></path>
        </g>
    </g>
</svg>