<?xml version="1.0" encoding="UTF-8"?>
<svg width="40px" height="40px" viewBox="0 0 40 40" version="1.1" xmlns="http://www.w3.org/2000/svg" xmlns:xlink="http://www.w3.org/1999/xlink">
    <!-- Generator: Sketch 54.1 (76490) - https://sketchapp.com -->
    <title>Icons/40px/family-40</title>
    <desc>Created with Sketch.</desc>
    <g id="Icons/40px/family-40" stroke="none" stroke-width="1" fill="none" fill-rule="evenodd">
        <g>
            <rect id="invisible-40" x="0" y="0" width="40" height="40"></rect>
            <g id="lines" transform="translate(3.000000, 4.000000)" fill="#FF0000" fill-rule="nonzero">
                <path d="M20.9423077,8.81481481 C20.9423077,13.1290446 17.414003,16.6296296 13.0576923,16.6296296 C8.70138157,16.6296296 5.17307692,13.1290446 5.17307692,8.81481481 C5.17307692,4.50058508 8.70138157,1 13.0576923,1 C15.3907816,1 17.5558026,2.00883367 19.0453125,3.73012955 L20.5576816,2.42141277 C18.6917164,0.265080481 15.9767735,-1 13.0576923,-1 C7.60032788,-1 3.17307692,3.39246896 3.17307692,8.81481481 C3.17307692,14.2371607 7.60032788,18.6296296 13.0576923,18.6296296 C18.5150567,18.6296296 22.9423077,14.2371607 22.9423077,8.81481481 C22.9423077,8.18372911 22.8821904,7.55973903 22.7637097,6.94887053 L22.6066853,6.13927672 L21.7820043,6.13927672 C17.1624809,6.13927672 17.1624809,6.13927672 14.8578632,6.13927672 C13.5508152,6.13927672 12.070171,5.06579255 11.3350349,3.5419916 L9.533704,4.41101813 C10.5826365,6.58526068 12.7260726,8.13927672 14.8578632,8.13927672 C17.0080164,8.13927672 17.1521281,8.13927672 20.9133194,8.13927672 C20.9325994,8.36285034 20.9423077,8.58816042 20.9423077,8.81481481 Z" id="Path"></path>
                <path d="M29.3706373,25.2046336 C31.5844447,25.9477419 33,27.7703611 33,30 L33,34 L35,34 L35,30 C35,26.8798394 33.0089546,24.3162394 30.0070785,23.3086002 L29.3706373,25.2046336 Z" id="Path"></path>
                <path d="M17,34 L17,30 C17,27.8449991 18.5567037,25.9799229 20.8559929,25.2060248 L20.217999,23.3105134 C17.1537813,24.3418721 15,26.9223031 15,30 L15,34 L17,34 Z" id="Path"></path>
                <path d="M25.1153846,27.4444444 C28.820307,27.4444444 31.8269231,24.4614494 31.8269231,20.7777778 C31.8269231,17.0941061 28.820307,14.1111111 25.1153846,14.1111111 C21.4104622,14.1111111 18.4038462,17.0941061 18.4038462,20.7777778 C18.4038462,24.4614494 21.4104622,27.4444444 25.1153846,27.4444444 Z M25.1153846,25.4444444 C22.5115159,25.4444444 20.4038462,23.3533333 20.4038462,20.7777778 C20.4038462,18.2022223 22.5115159,16.1111111 25.1153846,16.1111111 C27.7192534,16.1111111 29.8269231,18.2022223 29.8269231,20.7777778 C29.8269231,23.3533333 27.7192534,25.4444444 25.1153846,25.4444444 Z" id="Oval"></path>
                <path d="M1,34 C1,25.3747605 1,25.3747605 1,22 C1,19.7038195 2.74352114,17.6697115 6.43220801,15.9017739 L5.56779199,14.0982261 C1.25647886,16.1645799 -1,18.7971386 -1,22 C-1,25.3747605 -1,25.3747605 -1,34 L1,34 Z" id="Path-3"></path>
            </g>
        </g>
    </g>
</svg>