<?xml version="1.0" encoding="UTF-8"?>
<svg width="40px" height="40px" viewBox="0 0 40 40" version="1.1" xmlns="http://www.w3.org/2000/svg" xmlns:xlink="http://www.w3.org/1999/xlink">
    <!-- Generator: Sketch 63.1 (92452) - https://sketch.com -->
    <title>Icons/40px/farm-40</title>
    <desc>Created with Sketch.</desc>
    <g id="Icons/40px/farm-40" stroke="none" stroke-width="1" fill="none" fill-rule="evenodd">
        <g>
            <rect id="invisible-40" x="0" y="0" width="40" height="40"></rect>
            <g id="lines" transform="translate(1.000000, 2.000000)" fill="#FF0000" fill-rule="nonzero">
                <path d="M22,0.676704451 L37.6549305,14.2443109 L36.3450695,15.7556891 L34.999,14.5877045 L34.999,31.9997045 L37,32 L37,34 L1,34 L1,32 L4.999,31.9997045 L4.99895038,29.1942198 C4.02941088,29.0270814 3.12782907,28.6052452 2.3793335,27.9736889 L2.17190587,27.7896198 C1.06568064,26.7570498 0.425,25.3159722 0.425,23.7749564 C0.425,20.7363096 2.89737076,18.2749564 5.94514313,18.2749564 C7.0538888,18.2749564 8.11021475,18.6030022 9.00014853,19.1928619 L8.999,14.5887045 L7.65493054,15.7556891 L6.34506946,14.2443109 L22,0.676704451 Z M8.99911581,28.3575059 C8.39714648,28.7563095 7.71893446,29.0355284 6.99975413,29.1743639 L6.999,31.9997045 L8.999,31.9997045 Z M22,3.322 L10.999,12.8557045 L11,32 L14.999,31.9997045 L15,20 L29,20 L28.999,31.9997045 L33,32 L32.999,16.9997045 L13,17 L13,15 L32.999,14.9997045 L32.999,12.8547045 L22,3.322 Z M24.499,29.6007045 L23.5,31.9997045 L25.499,31.9997045 L24.499,29.6007045 Z M19.499,29.6007045 L18.5,31.9997045 L20.499,31.9997045 L19.499,29.6007045 Z M16.999,23.5987045 L16.999,30.3997045 L18.416,26.9997045 L16.999,23.5987045 Z M22,23.5997045 L20.583,26.9987045 L21.999,30.3977045 L23.416,26.9987045 L22,23.5997045 Z M26.999,23.6017045 L25.583,26.9987045 L26.999,30.3967045 L26.999,23.6017045 Z M5.94514313,20.2749564 C3.9999456,20.2749564 2.425,21.8428836 2.425,23.7749564 C2.425,24.7554173 2.83123856,25.6691664 3.53641898,26.3273942 C4.1853664,26.9328189 5.03705588,27.2749564 5.94514313,27.2749564 C7.0080998,27.2749564 7.99145897,26.8049806 8.67741563,25.9830515 L8.67741563,25.9830515 L9,25.619 L9,22.253 L8.557,21.43 L8.47512313,21.3410418 C7.86901277,20.7176532 7.05253309,20.3367554 6.16769469,20.2818445 L6.16769469,20.2818445 Z M25.499,21.9997045 L23.5,21.9997045 L24.499,24.3987045 L25.499,21.9997045 Z M20.499,21.9997045 L18.5,21.9997045 L19.499,24.3987045 L20.499,21.9997045 Z M22,7 C24.7612371,7 27,9.23859814 27,12 L27,12 L27,13 L17,13 L17,12 C17,9.23846743 19.2384674,7 22,7 Z M22,9 C20.6981004,9 19.5900022,9.82911974 19.1748841,10.9881805 L19.1748841,10.9881805 L19.17,11 L24.829,11 L24.753264,10.8067121 C24.3139762,9.79463419 23.3329666,9.07212222 22.1762575,9.0050929 L22.1762575,9.0050929 Z" id="Combined-Shape"></path>
            </g>
        </g>
    </g>
</svg>