<?xml version="1.0" encoding="UTF-8"?>
<svg width="40px" height="40px" viewBox="0 0 40 40" version="1.1" xmlns="http://www.w3.org/2000/svg" xmlns:xlink="http://www.w3.org/1999/xlink">
    <title>Icons/40px/fish-40</title>
    <g id="Icons/40px/fish-40" stroke="none" stroke-width="1" fill="none" fill-rule="evenodd">
        <g>
            <rect id="invisible-40" x="0" y="0" width="40" height="40"></rect>
            <g id="outlines" transform="translate(2.000000, 2.000000)" fill="#FF0000" fill-rule="nonzero">
                <path d="M26.6611339,0.442005194 L27.7532485,1.30871411 L28.0164298,1.53232107 C28.3026883,1.78049386 28.6201149,2.07045217 28.9609565,2.40029508 C29.9312641,3.33929146 30.9005096,4.4140092 31.8064,5.61019354 C35.5283379,10.5248319 37.1011456,15.9155522 35.2162078,21.4403354 C34.0660573,24.8011016 32.2075969,27.5953172 29.7588701,29.8003933 L29.4050494,30.111394 L29.3050318,30.1868627 C28.8466941,30.4895943 28.1380306,30.8346989 27.2602367,31.1980273 L26.6508755,31.4426811 C26.3345578,31.5660928 26.0014526,31.6909332 25.6545672,31.8163077 L24.9433139,32.067504 C24.8220064,32.1094004 24.6993905,32.1512899 24.5755777,32.1931394 L23.8192277,32.4434909 L23.0394959,32.6912917 L22.2417287,32.9349517 L21.4312722,33.1728808 C21.2954357,33.2119697 21.1592932,33.2507536 21.0229561,33.2891994 L20.2034897,33.5155507 L19.3846996,33.732196 L18.5719318,33.9375451 L17.7705326,34.130008 L16.9858482,34.3079946 C16.8567574,34.3363643 16.7285858,34.3640647 16.6014447,34.3910624 L15.8518567,34.5443531 C15.4841372,34.6165181 15.1276978,34.6817638 14.7855458,34.7391958 L14.1211825,34.8433764 C13.1524256,34.983726 12.3313512,35.047842 11.7400309,35.0113146 L11.7355444,35.0477 C10.3483555,34.8557024 9.07896746,34.5182547 7.92359628,34.0554354 C7.79839449,34.0320193 7.67310976,34.003586 7.54817313,33.9699178 L7.35819714,33.9145812 L7.38473435,33.8268655 C6.20272027,33.2968996 5.14715647,32.630693 4.21358844,31.8518823 C2.76450758,30.6430152 1.86778878,29.4211916 1.41864738,28.5210951 L1.33965283,28.356179 L0.720857052,27.0063906 L3.269,26.893 L3.18761684,26.8650011 C2.81399743,26.7448244 2.45552009,26.6570011 2.13030898,26.6054876 L1.89292125,26.5737224 L0.412398267,26.4142732 L1.12018538,25.1041549 C2.70053885,22.1789111 5.54913935,20.7771391 10.3263106,20.666478 L10.531,20.663 L10.6975208,20.4179001 C11.7152976,18.9558432 13.1365476,17.6686679 14.3288565,17.1636861 L14.5253463,17.0868691 L14.7683229,17.0000595 L15.022968,17.0416455 C16.4557237,17.2756282 17.7398694,17.5985527 19.2245874,18.0684298 L20.113381,18.3596175 L22.2020394,19.0601999 C23.0298277,19.3248496 23.6756312,19.4944329 24.2860072,19.5979121 C25.4853088,19.8012339 26.5603844,19.7414912 27.7282709,19.3612011 C30.5523249,18.0333467 31.7892276,15.8326461 30.8459836,12.9315531 L30.7699496,12.7093333 L32.6523102,12.0335238 C34.1308799,16.1518459 32.3946738,19.3022914 28.7349424,21.0906694 L28.7473957,21.1236902 L28.4124749,21.2424719 C27.4725848,21.6686004 26.4154588,22.0093599 25.2611062,22.2586418 C22.7800545,22.7946805 20.0205193,22.8986219 16.7089048,22.7246712 L16.0814406,22.6888365 L16.2042737,20.6926121 C17.9569236,20.8004574 19.5436833,20.832872 20.9993074,20.7688441 L19.1655563,20.1511798 C17.706187,19.6703297 16.494485,19.3398773 15.1933818,19.1009288 L14.981,19.063 L14.8886504,19.1092358 C14.0219806,19.5682564 12.8559399,20.7097344 12.0959554,21.9292589 L11.958389,22.1586868 L11.6682612,22.6625474 L11.0868479,22.6596764 C7.40447443,22.6414925 5.15065275,23.3350757 3.75159196,24.830486 L3.67,24.92 L3.98142095,25.0213235 C5.08809545,25.3980167 6.25440209,25.9888227 7.23372425,26.7441869 L7.52166475,26.9756833 L9.50109714,28.6355296 L4.054,28.861 L4.09938512,28.9185949 C4.41355496,29.2996503 4.77312633,29.6776445 5.18036652,30.0438295 L5.49476999,30.3161174 C6.35613922,31.0346977 7.34198206,31.6427703 8.46228665,32.1146943 C10.8409137,32.3994494 13.4986187,29.677504 13.2351803,25.9114933 L13.2146694,25.6726746 L15.2043922,25.4701826 C15.5409778,28.7775332 14.0880342,31.6003749 12.012598,33.0641735 C12.5200189,33.1145573 13.4423807,33.0071087 14.6013563,32.7915292 L15.2176513,32.6713228 L15.8703492,32.5335557 L16.5540946,32.3797504 L17.2635322,32.2114294 L17.9933066,32.0301151 L18.7380624,31.8373301 L19.4924444,31.6345968 L20.251097,31.4234378 L21.008665,31.2053755 L22.1312686,30.8686689 L22.8626953,30.6400094 L23.5742937,30.4097754 L24.2607083,30.1794893 L24.9165838,29.9506737 C25.023054,29.9127449 25.1280285,29.8749408 25.2313959,29.8372931 L25.8314214,29.6135378 L26.3875195,29.3950593 C27.0973184,29.107949 27.6756964,28.8389699 28.0655296,28.6043619 L28.15,28.55 L28.4352752,28.3008816 C30.5162211,26.4227271 32.1198036,24.0708127 33.1635154,21.2439369 L33.3236473,20.7936408 C34.9576898,16.0042344 33.5717579,11.2540215 30.2120169,6.81764651 C29.4919476,5.86682991 28.7267995,4.9966492 27.9558805,4.21872673 L27.5701221,3.83750749 L27.431,3.704 L27.3914477,3.82748895 C27.0155613,5.0273286 26.8126314,6.23531092 26.8631194,7.35122775 L26.8859488,7.68314063 C26.9759722,8.65112051 27.2671844,9.48763057 27.7851154,10.1793101 L27.9473218,10.3824557 L29.1549625,11.802359 L27.3040938,12.0232809 C24.993008,12.2991347 23.5811348,12.9350163 22.0684697,15.0728448 L21.895,15.322 L22.0056078,15.3514053 C23.4988499,15.7391936 25.0343127,15.8827401 26.4583594,15.6543898 L26.811961,15.5894805 C27.5936532,15.4273881 28.3093518,15.1497423 28.9514903,14.7453096 L29.2221667,14.5641862 L30.3800109,16.1949519 C29.43536,16.8656543 28.3719796,17.3085397 27.218044,17.5478207 C25.3519617,17.934773 23.3925262,17.7779233 21.5028922,17.2871938 L21.0700746,17.1685683 C21.0021915,17.1489424 20.9364812,17.12944 20.8730134,17.1101375 L20.5196717,16.9973341 L20.2234854,16.8930013 C20.1790694,16.8765223 20.1371739,16.8605493 20.0978684,16.8451586 L18.931987,16.3621498 L19.5073005,15.3741412 C21.2866629,12.3183719 22.9555713,10.9805993 25.2625939,10.3688383 L25.537,10.3 L25.4845061,10.1891188 C25.2045292,9.56516855 25.0218924,8.89145681 24.9289202,8.17700554 L24.8945423,7.86834418 C24.7543026,6.36041316 24.9968225,4.7811939 25.4829124,3.2295819 L25.5608662,2.98707525 L25.7148512,2.54199242 C25.7653518,2.40286051 25.8147579,2.27319472 25.8622687,2.15370625 L25.9983142,1.82648404 C26.0197739,1.77727274 26.0405596,1.73078357 26.0605711,1.68710544 L26.6611339,0.442005194 Z" id="Combined-Shape"></path>
            </g>
        </g>
    </g>
</svg>