<?xml version="1.0" encoding="UTF-8"?>
<svg width="40px" height="40px" viewBox="0 0 40 40" version="1.1" xmlns="http://www.w3.org/2000/svg" xmlns:xlink="http://www.w3.org/1999/xlink">
    <!-- Generator: Sketch 64 (93537) - https://sketch.com -->
    <title>Icons/40px/gear-40</title>
    <desc>Created with Sketch.</desc>
    <g id="Icons/40px/gear-40" stroke="none" stroke-width="1" fill="none" fill-rule="evenodd">
        <g>
            <rect id="invisible-40" x="0" y="0" width="40" height="40"></rect>
            <g id="outlines" transform="translate(2.000000, 3.000000)" fill="#FF0000" fill-rule="nonzero">
                <path d="M23.589863,0 L30.410137,3.92499017 L28.0262466,8.04069996 L28.1633425,8.18668895 L28.2979726,8.33464412 L28.4306301,8.48505702 L28.5608219,8.63694455 L28.6890411,8.79079827 L28.8152877,8.94661817 L28.9390685,9.10440425 L29.0608767,9.26366496 L29.179726,9.42489186 L29.2970959,9.58808494 L29.4115068,9.75275265 L29.5239452,9.91938655 L29.6339178,10.0874951 L29.7414247,10.2570783 L29.8464658,10.4286276 L29.9490411,10.6021431 L30.0491507,10.7766418 L30.1467945,10.9531066 L30.2419726,11.131046 L30.3341918,11.3104601 L30.4244384,11.4913488 L30.511726,11.6737122 L30.5965479,11.8575501 L30.6789041,12.0433543 L30.7583014,12.2301416 L30.8347397,12.4179119 L30.9092055,12.6076484 L30.9802192,12.7983681 L31.0487671,12.9905623 L31.1143562,13.1842312 L31.1774795,13.3788832 L31.2376438,13.5750098 L36,13.5750098 L36,21.4249902 L31.2376438,21.4249902 L31.1774795,21.6211168 L31.1143562,21.8157688 L31.0487671,22.0094377 L30.9802192,22.2016319 L30.9092055,22.3923516 L30.8347397,22.5820881 L30.7583014,22.7698584 L30.6789041,22.9566457 L30.5965479,23.1424499 L30.511726,23.3262878 L30.4244384,23.5086512 L30.3341918,23.6895399 L30.2419726,23.868954 L30.1467945,24.0468934 L30.0491507,24.2233582 L29.9490411,24.3978569 L29.8464658,24.5713724 L29.7414247,24.7429217 L29.6339178,24.9125049 L29.5239452,25.0806134 L29.4115068,25.2472473 L29.2970959,25.4119151 L29.179726,25.5751081 L29.0608767,25.736335 L28.9390685,25.8955958 L28.8152877,26.0533818 L28.6890411,26.2092017 L28.5608219,26.3630554 L28.4306301,26.514943 L28.2979726,26.6653559 L28.1633425,26.813311 L28.0262466,26.9593 L30.410137,31.0750098 L23.589863,35 L21.2084384,30.8892057 L21.0146301,30.9334448 L20.8203288,30.9752261 L20.6245479,31.0145497 L20.4277808,31.0509241 L20.2305205,31.0843492 L20.0317808,31.114825 L19.8325479,31.1428431 L19.6323288,31.1679119 L19.4311233,31.1900315 L19.2289315,31.2092017 L19.0262466,31.2259143 L18.8225753,31.239186 L18.6179178,31.2495085 L18.4127671,31.2573732 L18.2066301,31.2617971 L18,31.2632717 L17.7933699,31.2617971 L17.5872329,31.2573732 L17.3820822,31.2495085 L17.1774247,31.239186 L16.9737534,31.2259143 L16.7710685,31.2092017 L16.5688767,31.1900315 L16.3676712,31.1679119 L16.1674521,31.1428431 L15.9682192,31.114825 L15.7694795,31.0843492 L15.5722192,31.0509241 L15.3754521,31.0145497 L15.1796712,30.9752261 L14.9853699,30.9334448 L14.7915616,30.8892057 L12.410137,35 L5.58986301,31.0750098 L7.97375342,26.9593 L7.83665753,26.813311 L7.7020274,26.6653559 L7.56936986,26.514943 L7.43917808,26.3630554 L7.3109589,26.2092017 L7.18471233,26.0533818 L7.06093151,25.8955958 L6.93912329,25.736335 L6.82027397,25.5751081 L6.70290411,25.4119151 L6.58849315,25.2472473 L6.47605479,25.0806134 L6.36608219,24.9125049 L6.25857534,24.7429217 L6.15353425,24.5713724 L6.0509589,24.3978569 L5.95084932,24.2233582 L5.85320548,24.0468934 L5.7580274,23.868954 L5.66580822,23.6895399 L5.57556164,23.5086512 L5.48827397,23.3262878 L5.40345205,23.1424499 L5.32109589,22.9566457 L5.24169863,22.7698584 L5.16526027,22.5820881 L5.09079452,22.3923516 L5.01978082,22.2016319 L4.95123288,22.0094377 L4.88564384,21.8157688 L4.82252055,21.6211168 L4.76235616,21.4249902 L0,21.4249902 L0,13.5750098 L4.76235616,13.5750098 L4.82252055,13.3788832 L4.88564384,13.1842312 L4.95123288,12.9905623 L5.01978082,12.7983681 L5.09079452,12.6076484 L5.16526027,12.4179119 L5.24169863,12.2301416 L5.32109589,12.0433543 L5.40345205,11.8575501 L5.48827397,11.6737122 L5.57556164,11.4913488 L5.66580822,11.3104601 L5.7580274,11.131046 L5.85320548,10.9531066 L5.95084932,10.7766418 L6.0509589,10.6021431 L6.15353425,10.4286276 L6.25857534,10.2570783 L6.36608219,10.0874951 L6.47605479,9.91938655 L6.58849315,9.75275265 L6.70290411,9.58808494 L6.82027397,9.42489186 L6.93912329,9.26366496 L7.06093151,9.10440425 L7.18471233,8.94661817 L7.3109589,8.79079827 L7.43917808,8.63694455 L7.56936986,8.48505702 L7.7020274,8.33464412 L7.83665753,8.18668895 L7.97375342,8.04069996 L5.58986301,3.92499017 L12.410137,0 L14.7915616,4.11079434 L14.9853699,4.06655525 L15.1796712,4.02477389 L15.3754521,3.98545026 L15.5722192,3.94907589 L15.7694795,3.91565081 L15.9682192,3.88517499 L16.1674521,3.8571569 L16.3676712,3.83208808 L16.5688767,3.80996854 L16.7710685,3.79079827 L16.9737534,3.77408573 L17.1774247,3.760814 L17.3820822,3.75049155 L17.5872329,3.74262682 L17.7933699,3.73820291 L18,3.73672827 L18.2066301,3.73820291 L18.4127671,3.74262682 L18.6179178,3.75049155 L18.8225753,3.760814 L19.0262466,3.77408573 L19.2289315,3.79079827 L19.4311233,3.80996854 L19.6323288,3.83208808 L19.8325479,3.8571569 L20.0317808,3.88517499 L20.2305205,3.91565081 L20.4277808,3.94907589 L20.6245479,3.98545026 L20.8203288,4.02477389 L21.0146301,4.06655525 L21.2084384,4.11079434 L23.589863,0 Z M24.3631985,2.8914158 L22.2577086,6.52589399 L20.7379337,6.17898685 L20.5701561,6.14051714 L20.4039903,6.10458614 L20.2402276,6.07143708 L20.0745737,6.04057421 L19.9100682,6.01243528 L19.7373643,5.98578625 L19.5698935,5.96198968 L19.4013035,5.94063933 L19.2315736,5.92174187 L19.0552003,5.90485991 L18.8887779,5.89082367 L18.7160805,5.87934214 L18.5369307,5.87015186 L18.3674071,5.86335226 L18.1915431,5.8593612 L18.015087,5.85788656 L17.8387299,5.85892835 L17.66822,5.86228713 L17.488577,5.86901969 L17.3148933,5.87755195 L17.1474846,5.88814737 L16.9706182,5.9025716 L16.799902,5.91851978 L16.6303257,5.93692087 L16.4618686,5.95776817 L16.2886715,5.98195946 L16.1226865,6.00714912 L15.9565395,6.03506272 L15.7917906,6.0652625 L15.6241453,6.09873578 L15.4558745,6.13474776 L13.7422914,6.52589399 L11.6368015,2.8914158 L8.48879601,4.70305718 L10.5971402,8.34304528 L9.5162179,9.49408453 L9.40173436,9.615612 L9.28906266,9.73905588 L9.17604832,9.86687693 L9.06483705,9.99630767 L8.95524073,10.1274984 L8.84978307,10.257243 L8.74195094,10.3944399 L8.64268187,10.5236846 L8.53847554,10.6648014 L8.44103367,10.7998052 L8.34297055,10.9405982 L8.2472989,11.081997 L8.15375073,11.2246023 L8.06373319,11.3661162 L7.97567798,11.509435 L7.8870268,11.6590421 L7.80301997,11.8049629 L7.7198095,11.9548995 L7.64077961,12.1020454 L7.56008135,12.2587102 L7.48507673,12.4084125 L7.41054808,12.5636285 L7.33891016,12.7183169 L7.26948202,12.8743415 L7.20258714,13.0310784 L7.13608039,13.1940047 L7.07492843,13.3489225 L7.01398373,13.5120167 L6.95662987,13.6720105 L6.89969667,13.8395652 L6.84675795,14.0019368 L6.32701402,15.696222 L2.11764706,15.696222 L2.11764706,19.303778 L6.32701402,19.303778 L6.78659356,20.8019366 L6.83657338,20.9657828 L6.89104083,21.1343206 L6.94543578,21.2957891 L7.00391473,21.4603579 L7.06161464,21.6162587 L7.12614878,21.7811513 L7.19008476,21.9388712 L7.256554,22.095879 L7.32572616,22.2525335 L7.39778906,22.4092242 L7.46983478,22.5604011 L7.54856043,22.7185406 L7.62463141,22.8671611 L7.70537613,23.0185723 L7.78691722,23.1664593 L7.87310263,23.3170495 L7.95869209,23.4623345 L8.04624388,23.6058145 L8.1373263,23.7498945 L8.23053219,23.892768 L8.32662272,24.0355271 L8.42110568,24.1720055 L8.52383255,24.3150885 L8.62014272,24.4462994 L8.72600224,24.5849709 L8.82899416,24.7166817 L8.93661787,24.8498386 L9.04585653,24.9812355 L9.15640512,25.1105312 L9.26710423,25.2364328 L9.37912201,25.3599265 L10.5971402,26.6569547 L8.48879601,30.2969428 L11.6368015,32.1085842 L13.7422914,28.474106 L15.2620663,28.8210131 L15.4298439,28.8594829 L15.5960097,28.8954139 L15.7597724,28.9285629 L15.9254263,28.9594258 L16.0899318,28.9875647 L16.2626357,29.0142137 L16.4301065,29.0380103 L16.5986965,29.0593607 L16.7684264,29.0782581 L16.9447997,29.0951401 L17.1112221,29.1091763 L17.2839195,29.1206579 L17.4630693,29.1298481 L17.6325929,29.1366477 L17.8084569,29.1406388 L17.984913,29.1421134 L18.1612701,29.1410716 L18.33178,29.1377129 L18.511423,29.1309803 L18.6851067,29.1224481 L18.8525154,29.1118526 L19.0293818,29.0974284 L19.200098,29.0814802 L19.3696743,29.0630791 L19.5381314,29.0422318 L19.7113285,29.0180405 L19.8773135,28.9928509 L20.0434605,28.9649373 L20.2082094,28.9347375 L20.3758547,28.9012642 L20.5441255,28.8652522 L22.2577086,28.474106 L24.3631985,32.1085842 L27.511204,30.2969428 L25.4028598,26.6569547 L26.4837821,25.5059155 L26.5982656,25.384388 L26.7109373,25.2609441 L26.8239517,25.1331231 L26.935163,25.0036923 L27.0447593,24.8725016 L27.1502169,24.742757 L27.2580491,24.6055601 L27.3573181,24.4763154 L27.4615245,24.3351986 L27.5589663,24.2001948 L27.6570295,24.0594018 L27.7527011,23.918003 L27.8462493,23.7753977 L27.9362668,23.6338838 L28.024322,23.490565 L28.1129732,23.3409579 L28.19698,23.1950371 L28.2801905,23.0451005 L28.3592204,22.8979546 L28.4399186,22.7412898 L28.5149233,22.5915875 L28.5894519,22.4363715 L28.6610898,22.2816831 L28.730518,22.1256585 L28.7974129,21.9689216 L28.8639196,21.8059953 L28.9250716,21.6510775 L28.9860163,21.4879833 L29.0433701,21.3279895 L29.1003033,21.1604348 L29.1532421,20.9980632 L29.672986,19.303778 L33.8823529,19.303778 L33.8823529,15.696222 L29.672986,15.696222 L29.2134064,14.1980634 L29.1634266,14.0342172 L29.1089592,13.8656794 L29.0545642,13.7042109 L28.9960853,13.5396421 L28.9383854,13.3837413 L28.8738512,13.2188487 L28.8099152,13.0611288 L28.743446,12.904121 L28.6742738,12.7474665 L28.6022109,12.5907758 L28.5301652,12.4395989 L28.4514396,12.2814594 L28.3753686,12.1328389 L28.2946239,11.9814277 L28.2130828,11.8335407 L28.1268974,11.6829505 L28.0413079,11.5376655 L27.9537561,11.3941855 L27.8626737,11.2501055 L27.7694678,11.107232 L27.6733773,10.9644729 L27.5788943,10.8279945 L27.4761674,10.6849115 L27.3798573,10.5537006 L27.2739978,10.4150291 L27.1710058,10.2833183 L27.0633821,10.1501614 L26.9541435,10.0187645 L26.8435949,9.88946878 L26.7328958,9.76356717 L26.620878,9.64007352 L25.4028598,8.34304528 L27.511204,4.70305718 L24.3631985,2.8914158 Z M18,11 C21.3137085,11 24,13.6862915 24,17 C24,20.3137085 21.3137085,23 18,23 C14.6862915,23 12,20.3137085 12,17 C12,13.6862915 14.6862915,11 18,11 Z M18,13 C15.790861,13 14,14.790861 14,17 C14,19.209139 15.790861,21 18,21 C20.209139,21 22,19.209139 22,17 C22,14.790861 20.209139,13 18,13 Z" id="Combined-Shape"></path>
            </g>
        </g>
    </g>
</svg>