<?xml version="1.0" encoding="UTF-8"?>
<svg width="40px" height="40px" viewBox="0 0 40 40" version="1.1" xmlns="http://www.w3.org/2000/svg" xmlns:xlink="http://www.w3.org/1999/xlink">
    <!-- Generator: Sketch 54.1 (76490) - https://sketchapp.com -->
    <title>Icons/40px/glasses-40</title>
    <desc>Created with Sketch.</desc>
    <g id="Icons/40px/glasses-40" stroke="none" stroke-width="1" fill="none" fill-rule="evenodd">
        <g>
            <rect id="invisible-40" x="0" y="0" width="40" height="40"></rect>
            <g id="lines" transform="translate(3.000000, 7.000000)" fill="#FF0000" fill-rule="nonzero">
                <path d="M15,16.4990885 C15,20.6427035 11.6431742,24 7.5,24 C3.35806229,24 0,20.6421173 0,16.4990885 C0,12.3575574 3.35838754,9 7.5,9 C11.642849,9 15,12.3569713 15,16.4990885 Z M13,16.4990885 C13,13.4615648 10.5383035,11 7.5,11 C4.46284637,11 2,13.4622376 2,16.4990885 C2,19.5375239 4.46260784,22 7.5,22 C10.538542,22 13,19.5381968 13,16.4990885 Z" id="Stroke-1"></path>
                <path d="M34,16.4990885 C34,20.6427035 30.6431742,24 26.5,24 C22.3580623,24 19,20.6421173 19,16.4990885 C19,12.3575574 22.3583875,9 26.5,9 C30.642849,9 34,12.3569713 34,16.4990885 Z M32,16.4990885 C32,13.4615648 29.5383035,11 26.5,11 C23.4628464,11 21,13.4622376 21,16.4990885 C21,19.5375239 23.4626078,22 26.5,22 C29.538542,22 32,19.5381968 32,16.4990885 Z" id="Stroke-1-Copy"></path>
                <path d="M14.5080073,15.082817 C15.2340407,14.6546181 16.0934905,14.4213929 17.0009407,14.4213929 C17.9084415,14.4213929 18.7676018,14.6546484 19.491165,15.0823284 C19.9666071,15.3633502 20.5798423,15.2057414 20.8608641,14.7302993 C21.1418859,14.2548572 20.9842771,13.641622 20.508835,13.3606002 C19.4759841,12.7501081 18.2652129,12.4213929 17.0009407,12.4213929 C15.7371238,12.4213929 14.5267091,12.749858 13.4919927,13.3601115 C13.0162807,13.6406762 12.8580826,14.2537596 13.1386473,14.7294716 C13.419212,15.2051836 14.0322954,15.3633817 14.5080073,15.082817 Z" id="Stroke-5"></path>
                <path d="M31.3248269,3.51306917 C31.5882453,4.77399428 31.8548362,6.40365755 32.1187657,8.31111075 C32.35416,10.0123364 32.5743794,11.8373223 32.7730999,13.662621 C32.8426785,14.3017179 32.904586,14.8950877 32.9580524,15.4273968 C32.9900771,15.7462332 33.0121324,15.9734408 33.0234521,16.0937073 L35.0146516,15.9062927 C35.0029529,15.7819982 34.980496,15.5506541 34.9480394,15.2275179 C34.8940371,14.6898728 34.8315563,14.0910079 34.7613515,13.4461597 C34.5606912,11.6030439 34.3382464,9.75961534 34.0998907,8.0369875 C33.4684159,3.4732354 32.8949841,0.72834602 32.1638866,-0.148401848 C32.0334945,-0.304770939 31.8827412,-0.433398937 31.6972249,-0.525101569 C31.0795339,-0.829202387 30.2568731,-0.964472811 29.2438301,-0.994090584 C28.5809686,-1.0134703 27.8804433,-0.984899938 27.1909263,-0.925618664 C26.8659078,-0.897675176 26.6152168,-0.869449284 26.4679531,-0.849831782 L26.7320469,1.13265516 C26.8501688,1.11691974 27.0704634,1.09211625 27.3622444,1.06703035 C27.9813688,1.01380109 28.6089976,0.988203756 29.1853822,1.00505519 C29.834514,1.0240335 30.3575191,1.09830376 30.6785469,1.21275156 C30.8296903,1.50027338 31.0789966,2.33633468 31.3248269,3.51306917 Z" id="Stroke-7"></path>
                <path d="M4.83521267,1.00502209 C5.41110894,0.988238186 6.03820608,1.013838 6.65683711,1.06702969 C6.94859246,1.09211565 7.16888039,1.11691938 7.28700495,1.13265516 L7.55109876,-0.849831782 C7.40383767,-0.86944893 7.15315881,-0.897674583 6.82817072,-0.925617999 C6.13919828,-0.98485784 5.43925703,-1.01343135 4.77694948,-0.994129084 C3.76342569,-0.964590983 2.94061466,-0.829302159 2.32447362,-0.525599949 C2.13333041,-0.431116556 1.9798314,-0.298532748 1.84731455,-0.13693552 C1.12233174,0.747142296 0.549274918,3.49270254 -0.079977824,8.03688356 C-0.318517536,9.75951036 -0.541161235,11.602938 -0.742021631,13.446053 C-0.812296362,14.0909009 -0.874842372,14.6897656 -0.928903331,15.2274104 C-0.961395123,15.5505464 -0.983877248,15.7818904 -0.995589614,15.9061846 L0.995589614,16.0938154 C1.00692246,15.9735487 1.02900263,15.7463408 1.0610621,15.4275043 C1.11458659,14.8951949 1.17655873,14.3018248 1.24620675,13.6627277 C1.44512563,11.8374282 1.6655421,10.0124414 1.90111845,8.31121468 C2.41648629,4.58945935 2.97467931,1.85323138 3.33867293,1.21381115 C3.65827183,1.09887104 4.18304162,1.02402894 4.83521267,1.00502209 Z" id="Stroke-9"></path>
                <polygon id="Path-4" points="9.29289322 13.2928932 4.29289322 18.2928932 5.70710678 19.7071068 10.7071068 14.7071068"></polygon>
                <polygon id="Path-7" points="4.70710678 16.7071068 7.70710678 13.7071068 6.29289322 12.2928932 3.29289322 15.2928932"></polygon>
                <polygon id="Path-4" points="28.2928932 13.2928932 23.2928932 18.2928932 24.7071068 19.7071068 29.7071068 14.7071068"></polygon>
                <polygon id="Path-7" points="23.7071068 16.7071068 26.7071068 13.7071068 25.2928932 12.2928932 22.2928932 15.2928932"></polygon>
            </g>
        </g>
    </g>
</svg>