<?xml version="1.0" encoding="UTF-8"?>
<svg width="40px" height="40px" viewBox="0 0 40 40" version="1.1" xmlns="http://www.w3.org/2000/svg" xmlns:xlink="http://www.w3.org/1999/xlink">
    <!-- Generator: Sketch 63.1 (92452) - https://sketch.com -->
    <title>Icons/40px/gravestones-40</title>
    <desc>Created with Sketch.</desc>
    <g id="Icons/40px/gravestones-40" stroke="none" stroke-width="1" fill="none" fill-rule="evenodd">
        <g>
            <rect id="invisible-40" x="0" y="0" width="40" height="40"></rect>
            <g id="outlines" transform="translate(2.000000, 1.000000)" fill="#FF0000" fill-rule="nonzero">
                <path d="M25.6554972,0.919729919 L26.0310119,1.082374 C32.6018084,3.92833751 36,7.60792536 36,12.1420455 L36,24 L29,24 L29,24 L29,37 L9,37 L8.999,28.9997299 L0,29 L0,16 C0,11.5310552 3.26692238,7.89671142 9.58247745,5.08637246 L9.98902969,4.90546206 L10.3955819,5.08637246 C15.6604434,7.4291666 19.1463968,10.5008718 19.8630011,13.2936512 C24.9383165,15.6362358 27.947578,18.5363714 28.7692977,21.9996486 L34,22 L34,12.1420455 C34,8.63949683 31.2749819,5.61351375 25.6136004,3.0836842 C22.4955425,4.3552064 20.1092334,6.18865775 18.7912333,7.89400673 L17.2087667,6.6709778 C18.8001869,4.6118531 21.6237193,2.47486329 25.273691,1.06699982 L25.6554972,0.919729919 Z M19,15.0974994 C13.5989448,17.5836631 11,20.5545857 11,24 L11,35 L27,35 L27,24 C27,20.5545857 24.4010552,17.5836631 19,15.0974994 Z M9.98892132,7.09778437 C4.59536887,9.58375231 2,12.5544392 2,16 L2,27 L8.999,26.9997299 L9,24 C9,19.716415 12.0046205,16.1999311 17.8213758,13.440821 C17.1134711,11.5361222 14.3108757,9.09159055 9.98892132,7.09778437 Z" id="Combined-Shape"></path>
            </g>
        </g>
    </g>
</svg>