<svg width="40" height="40" viewBox="0 0 40 40" fill="none" xmlns="http://www.w3.org/2000/svg">
<g clip-path="url(#clip0_2_77)">
<path fill-rule="evenodd" clip-rule="evenodd" d="M7 9C7 6.23858 9.23858 4 12 4C13.203 4 14.899 4.38915 15.9143 5.74286L17.5143 4.54286C15.9581 2.46799 13.499 2 12 2C8.13401 2 5 5.13401 5 9C5 10.3273 5.36942 11.5683 6.01105 12.6259C5.11398 13.0854 4.44537 13.7169 3.96954 14.4263C3.23611 15.5196 3 16.736 3 17.6667V27H5V17.6667C5 17.0418 5.16389 16.236 5.63046 15.5404C5.97374 15.0287 6.50403 14.5399 7.33778 14.2216C8.57568 15.3276 10.2093 16 12 16C12.9401 16 13.837 15.8147 14.656 15.4785C13.623 16.6983 13 18.2764 13 20C13 21.3273 13.3694 22.5683 14.011 23.6259C13.114 24.0854 12.4454 24.7169 11.9695 25.4263C11.2361 26.5196 11 27.736 11 28.6667V38H13V28.6667C13 28.0418 13.1639 27.236 13.6305 26.5404C13.9737 26.0287 14.504 25.5399 15.3378 25.2216C16.5757 26.3276 18.2093 27 20 27C21.7907 27 23.4243 26.3276 24.6622 25.2216C25.496 25.5399 26.0263 26.0287 26.3695 26.5404C26.8361 27.236 27 28.0418 27 28.6667V38H29V28.6667C29 27.736 28.7639 26.5196 28.0305 25.4263C27.5546 24.7169 26.886 24.0854 25.989 23.6259C26.6306 22.5683 27 21.3273 27 20C27 19.5219 26.9519 19.0539 26.86 18.6011L26.6974 17.8H21.2L21.0482 17.8001C20.4587 17.8007 20.2327 17.8009 20.0108 17.7038C19.8365 17.6276 19.5253 17.4146 19.0944 16.5528L17.3056 17.4472C17.8347 18.5054 18.4235 19.1924 19.2092 19.5362C19.8456 19.8146 20.5251 19.8069 21.0166 19.8014H21.0167H21.0167H21.0168C21.0813 19.8007 21.1425 19.8 21.2 19.8H24.9961C24.9987 19.8663 25 19.933 25 20C25 22.7614 22.7614 25 20 25C17.2386 25 15 22.7614 15 20C15 17.2386 17.2386 15 20 15C21.203 15 22.899 15.3891 23.9143 16.7429L25.5117 15.5448C26.2848 15.8389 27.1236 16 28 16C29.7907 16 31.4243 15.3276 32.6622 14.2216C33.496 14.5399 34.0263 15.0287 34.3695 15.5404C34.8361 16.236 35 17.0418 35 17.6667V27H37V17.6667C37 16.736 36.7639 15.5196 36.0305 14.4263C35.5546 13.7169 34.886 13.0854 33.989 12.6259C34.6306 11.5683 35 10.3273 35 9C35 8.52185 34.9519 8.05391 34.86 7.60107L34.6974 6.8H29.2L29.0482 6.8001C28.4587 6.80068 28.2327 6.80091 28.0108 6.70384C27.8365 6.62757 27.5253 6.41457 27.0944 5.55279L25.3056 6.44721C25.8347 7.50543 26.4235 8.19243 27.2092 8.53616C27.8456 8.81459 28.5251 8.80695 29.0166 8.80142L29.0166 8.80141C29.0812 8.80069 29.1425 8.8 29.2 8.8H32.9961C32.9987 8.86631 33 8.93298 33 9C33 11.7614 30.7614 14 28 14C25.2386 14 23 11.7614 23 9C23 6.23858 25.2386 4 28 4C29.203 4 30.899 4.38915 31.9143 5.74286L33.5143 4.54286C31.9581 2.46799 29.499 2 28 2C24.134 2 21 5.13401 21 9C21 10.6851 21.5954 12.2312 22.5874 13.4392C21.6414 13.1057 20.7123 13 20 13C19.0599 13 18.163 13.1853 17.344 13.5215C18.377 12.3017 19 10.7236 19 9C19 8.52185 18.9519 8.05391 18.86 7.60107L18.6974 6.8H13.2L13.0482 6.8001C12.4587 6.80068 12.2327 6.80091 12.0108 6.70384C11.8365 6.62757 11.5253 6.41457 11.0944 5.55279L9.30557 6.44721C9.83468 7.50543 10.4235 8.19243 11.2092 8.53616C11.8456 8.81459 12.5251 8.80695 13.0166 8.80142L13.0167 8.80141C13.0812 8.80069 13.1425 8.8 13.2 8.8H16.9961C16.9987 8.86631 17 8.93298 17 9C17 11.7614 14.7614 14 12 14C9.23858 14 7 11.7614 7 9Z" fill="#FF0000"/>
</g>
<defs>
<clipPath id="clip0_2_77">
<rect width="40" height="40" fill="white"/>
</clipPath>
</defs>
</svg>
