<?xml version="1.0" encoding="UTF-8"?>
<svg width="40px" height="40px" viewBox="0 0 40 40" version="1.1" xmlns="http://www.w3.org/2000/svg" xmlns:xlink="http://www.w3.org/1999/xlink">
    <!-- Generator: Sketch 56.3 (81716) - https://sketch.com -->
    <title>Icons/40px/guide-40</title>
    <desc>Created with Sketch.</desc>
    <g id="Icons/40px/guide-40" stroke="none" stroke-width="1" fill="none" fill-rule="evenodd">
        <g>
            <rect id="invisible-40" x="0" y="0" width="40" height="40"></rect>
            <g id="lines" transform="translate(3.000000, 2.000000)" fill="#FF0000" fill-rule="nonzero">
                <polygon id="Path-5" points="11 36 23 36 23 34 11 34"></polygon>
                <polygon id="Path-3" points="18 34 18 0 16 0 16 34"></polygon>
                <polygon id="Path-4" points="1.44064077 12.4666667 3.92952965 10.0666667 16 10.0666667 16 8.06666667 3.1223222 8.06666667 -1.44064077 12.4666667 3.1223222 16.8666667 14 16.8666667 14 14.8666667 3.92952965 14.8666667"></polygon>
                <polygon id="Path-6" points="30.0704703 5.53333333 32.5593592 7.93333333 30.0704703 10.3333333 20 10.3333333 20 12.3333333 30.8776778 12.3333333 35.4406408 7.93333333 30.8776778 3.53333333 18 3.53333333 18 5.53333333"></polygon>
            </g>
        </g>
    </g>
</svg>