<?xml version="1.0" encoding="UTF-8"?>
<svg width="40px" height="40px" viewBox="0 0 40 40" version="1.1" xmlns="http://www.w3.org/2000/svg" xmlns:xlink="http://www.w3.org/1999/xlink">
    <!-- Generator: Sketch 61.2 (89653) - https://sketch.com -->
    <title>Icons/40px/heartbeat-40</title>
    <desc>Created with Sketch.</desc>
    <g id="Icons/40px/heartbeat-40" stroke="none" stroke-width="1" fill="none" fill-rule="evenodd">
        <g>
            <rect id="invisible-40" x="0" y="0" width="40" height="40"></rect>
            <g id="outlines" transform="translate(1.000000, 4.000000)" fill="#FF0000" fill-rule="nonzero">
                <path d="M28.0172685,15.1238805 L33.9579594,24.75 L37,24.75 L37,26.75 L32.8420406,26.75 L27.9827315,18.8761195 L18.9036396,32.9991514 L15.2770825,25.9475126 L12.3268054,30.25 L1,30.25 L1,28.25 L11.2731946,28.25 L15.5229175,22.0524874 L19.0963604,29.0008486 L28.0172685,15.1238805 Z M19.3743196,1.60693053 C21.5052557,3.65904826 21.5691506,7.0500834 19.5170329,9.18101952 C19.4703623,9.22948268 19.4227827,9.27706224 19.3743196,9.32373286 L11,17.3883057 L2.62568044,9.32373286 C0.494744324,7.27161514 0.430849386,3.88057999 2.48296711,1.74964387 C2.52963773,1.70118071 2.57721728,1.65360116 2.62568044,1.60693053 C4.83214726,-0.517924173 8.32378953,-0.517924173 10.5302563,1.60693053 L11,2.05929946 L11.4697437,1.60693053 C13.6762105,-0.517924173 17.1678527,-0.517924173 19.3743196,1.60693053 Z M12.8570639,3.04753544 L11,4.83591086 L9.14293608,3.04753544 C7.71097663,1.66854086 5.44496016,1.66854086 4.01300071,3.04753544 C3.98263216,3.07678073 3.9528173,3.10659558 3.92357201,3.13696413 C2.63765011,4.47227613 2.6776887,6.59720606 4.01300071,7.88312795 L11,14.6116943 L17.9869993,7.88312795 C18.0173678,7.85388267 18.0471827,7.82406781 18.076428,7.79369926 C19.3623499,6.45838726 19.3223113,4.33345734 17.9869993,3.04753544 C16.5550398,1.66854086 14.2890234,1.66854086 12.8570639,3.04753544 Z" id="Combined-Shape"></path>
            </g>
        </g>
    </g>
</svg>