<?xml version="1.0" encoding="UTF-8"?>
<svg width="40px" height="40px" viewBox="0 0 40 40" version="1.1" xmlns="http://www.w3.org/2000/svg" xmlns:xlink="http://www.w3.org/1999/xlink">
    <!-- Generator: Sketch 50.2 (55047) - http://www.bohemiancoding.com/sketch -->
    <title>heart-40</title>
    <desc>Created with Sketch.</desc>
    <defs></defs>
    <g id="heart-40" stroke="none" stroke-width="1" fill="none" fill-rule="evenodd">
        <g id="heart-40-crop" transform="translate(3.000000, 5.000000)" fill="#FF0000" fill-rule="nonzero">
            <path d="M29.8928932,14.4019841 C32.7023689,11.5925084 32.7023689,6.91658249 29.8928932,4.10710678 C27.0834175,1.29763107 22.4074916,1.29763107 19.5980159,4.10710678 L17,6.70512265 L14.4019841,4.10710678 C11.5925084,1.29763107 6.91658249,1.29763107 4.10710678,4.10710678 C1.29763107,6.91658249 1.29763107,11.5925084 4.10710678,14.4019841 L17,27.2948773 L29.8928932,14.4019841 Z M18.1838023,2.69289322 C21.7743266,-0.897631073 27.7165825,-0.897631073 31.3071068,2.69289322 C34.8976311,6.28341751 34.8976311,12.2256734 31.3071068,15.8161977 L17,30.1233045 L2.69289322,15.8161977 C-0.897631073,12.2256734 -0.897631073,6.28341751 2.69289322,2.69289322 C6.28341751,-0.897631073 12.2256734,-0.897631073 15.8161977,2.69289322 L17,3.87669553 L18.1838023,2.69289322 Z" id="Shape"></path>
        </g>
    </g>
</svg>