<?xml version="1.0" encoding="UTF-8"?>
<svg width="40px" height="40px" viewBox="0 0 40 40" version="1.1" xmlns="http://www.w3.org/2000/svg" xmlns:xlink="http://www.w3.org/1999/xlink">
    <!-- Generator: Sketch 50.2 (55047) - http://www.bohemiancoding.com/sketch -->
    <title>id-40</title>
    <desc>Created with Sketch.</desc>
    <defs></defs>
    <g id="id-40" stroke="none" stroke-width="1" fill="none" fill-rule="evenodd">
        <g id="id-40-crop" transform="translate(9.000000, 3.000000)" fill="#FF0000">
            <path d="M20,29 L20,30.6813 C20,31.3723 19.376,32.0003 18.692,32.0003 L3.308,32.0003 C2.577,32.0003 2,31.4063 2,30.6813 L2,3.3183 C2,2.6273 2.625,2.0003 3.308,2.0003 L18.692,2.0003 C19.375,2.0003 20,2.6273 20,3.3183 L20,19 L22,19 L22,3.3183 C22,1.5253 20.482,0.0003 18.692,0.0003 L3.308,0.0003 C1.518,0.0003 0,1.5253 0,3.3183 L0,30.6813 C0,32.4973 1.458,34.0003 3.308,34.0003 L18.692,34.0003 C20.483,34.0003 22,32.4743 22,30.6813 L22,29 L20,29 Z" id="Fill-1"></path>
            <path d="M15.5976832,17.5534738 C14.5922594,17.8291012 13.0887687,18 11,18 C8.91123125,18 7.40774055,17.8291012 6.40231683,17.5534738 C6.2835102,17.5209041 6.18118805,17.4901572 6.09406428,17.4621118 C6.11514362,17.3462913 6.1397041,17.2202865 6.16804367,17.0854138 C6.33687071,16.281938 6.57963591,15.4798231 6.90604191,14.740444 C7.52017071,13.3493114 8.3479272,12.3664792 9.39321485,11.9194466 L8.60678515,10.0805534 C7.02424126,10.7573515 5.87669652,12.1198826 5.07639766,13.93273 C4.68834652,14.8117485 4.40630633,15.743631 4.21078428,16.6741527 C4.0931529,17.2339798 4.0296074,17.6751941 4.00443092,17.9417485 L3.95815168,18.4317271 L4.31817274,18.7672948 C4.57444434,19.0061598 5.06694053,19.2611847 5.87354524,19.4823078 C7.06639738,19.8093169 8.74394116,20 11,20 C13.2560588,20 14.9336026,19.8093169 16.1264548,19.4823078 C16.9330595,19.2611847 17.4255557,19.0061598 17.6818273,18.7672948 L18.0418483,18.4317271 L17.9955691,17.9417485 C17.9703926,17.6751941 17.9068471,17.2339798 17.7892157,16.6741527 C17.5936937,15.743631 17.3116535,14.8117485 16.9236023,13.93273 C16.1233035,12.1198826 14.9757587,10.7573515 13.3932148,10.0805534 L12.6067852,11.9194466 C13.6520728,12.3664792 14.4798293,13.3493114 15.0939581,14.740444 C15.4203641,15.4798231 15.6631293,16.281938 15.8319563,17.0854138 C15.8602959,17.2202865 15.8848564,17.3462913 15.9059357,17.4621118 C15.818812,17.4901572 15.7164898,17.5209041 15.5976832,17.5534738 Z" id="Shape" fill-rule="nonzero"></path>
            <path d="M11,13 C8.790861,13 7,11.209139 7,9 C7,6.790861 8.790861,5 11,5 C13.209139,5 15,6.790861 15,9 C15,11.209139 13.209139,13 11,13 Z M11,11 C12.1045695,11 13,10.1045695 13,9 C13,7.8954305 12.1045695,7 11,7 C9.8954305,7 9,7.8954305 9,9 C9,10.1045695 9.8954305,11 11,11 Z" id="Oval" fill-rule="nonzero"></path>
            <polygon id="Page-1" points="26.49 16.7997602 16.481 26.7677602 11.924 22.1527602 10.5 23.5567602 16.467 29.6017602 27.899 18.2177602"></polygon>
        </g>
    </g>
</svg>