<?xml version="1.0" encoding="UTF-8"?>
<svg width="40px" height="40px" viewBox="0 0 40 40" version="1.1" xmlns="http://www.w3.org/2000/svg" xmlns:xlink="http://www.w3.org/1999/xlink">
    <!-- Generator: Sketch 63.1 (92452) - https://sketch.com -->
    <title>Icons/40px/bank-40</title>
    <desc>Created with Sketch.</desc>
    <g id="Icons/40px/bank-40" stroke="none" stroke-width="1" fill="none" fill-rule="evenodd">
        <g>
            <rect id="invisible-40" x="0" y="0" width="40" height="40"></rect>
            <g id="outlines" transform="translate(2.000000, 2.000000)" fill="#FF0000" fill-rule="nonzero">
                <path d="M31,16 L31,31 L36,31 L36,36 L0,36 L0,31 L5,31 L5,16 L3,16 L3,12.1255068 L0,12.1257438 L0,7 L6.41829066,7 L18,0.86850682 L29.5817093,7 L36,7 L36,12.1257438 L33,12.1255068 L33,16 L31,16 Z M34,33 L2,33 L2,34 L34,34 L34,33 Z M25,16 L21,16 L21,31 L25,31 L25,16 Z M15,16 L11,16 L11,31 L15,31 L15,16 Z M9,16 L7,16 L7,31 L9,31 L9,16 Z M19,16 L17,16 L17,31 L19,31 L19,16 Z M29,16 L27,16 L27,31 L29,31 L29,16 Z M18,3.13149318 L6.91504267,9 L2,9 L2,10.1257438 L8.69589093,10.1257438 L18.0209364,5.43284072 L26.544248,10.1257438 L34,10.1257438 L34,9 L29.0849573,9 L18,3.13149318 Z M31,12.1255068 L26.0300466,12.1257438 L17.9790636,7.69290306 L9.17077574,12.1257438 L5,12.1255068 L5,14 L31,14 L31,12.1255068 Z" id="Combined-Shape"></path>
            </g>
        </g>
    </g>
</svg>