<?xml version="1.0" encoding="UTF-8"?>
<svg width="40px" height="40px" viewBox="0 0 40 40" version="1.1" xmlns="http://www.w3.org/2000/svg" xmlns:xlink="http://www.w3.org/1999/xlink">
    <!-- Generator: Sketch 63.1 (92452) - https://sketch.com -->
    <title>Icons/40px/mc-40</title>
    <desc>Created with Sketch.</desc>
    <g id="Icons/40px/mc-40" stroke="none" stroke-width="1" fill="none" fill-rule="evenodd">
        <g>
            <rect id="invisible-40" x="0" y="0" width="40" height="40"></rect>
            <g id="lines" transform="translate(2.000000, 8.000000)" fill="#FF0000" fill-rule="nonzero">
                <path d="M23.7971129,0.396169691 L31.0462869,9.96576225 L29.0342377,9.96576225 C27.7063755,9.96576225 26.4786588,10.3947144 25.4821033,11.121603 L26.4948836,12.1268057 C27.4794554,11.4177058 28.6878644,11 29.993801,11 C33.304242,11 35.9878955,13.6836535 35.9878955,16.9940945 C35.9878955,20.3045355 33.304242,22.988189 29.993801,22.988189 C26.683599,22.988189 24,20.304481 24,16.9940945 C24,15.7119836 24.4025422,14.523875 25.0881249,13.5492724 L24.0821754,12.5511147 C23.4403468,13.4709371 23.0482404,14.5779295 23.0041623,15.7737858 L23,16 L23,16.4942199 L19.4753153,19.1891426 L12.1247938,19.2684303 L8.31102562,15.1001697 L5.7041846,17.6871583 L4.2958154,16.2671245 L6.95902562,13.6241697 L4.558,10.999 L2,11 L2,9 L5.44045699,9 L12.996,17.258 L18.789,17.196 L21.016,15.493 L21.0340758,15.2551085 C21.3497829,11.8212897 23.8264348,9.01292377 27.0918898,8.20215244 L27.185,8.18 L22.2028871,1.60383031 L23.7971129,0.396169691 Z M3.56008003,11.3847658 L4.37170463,13.2126787 C3.92774896,13.4098026 3.52153294,13.6877545 3.16967851,14.0394579 C1.61010716,15.599264 1.61010716,18.1282564 3.16962529,19.6880092 C4.72941922,21.2478032 7.25832948,21.2478032 8.81812342,19.6880092 C9.02652307,19.4796096 9.20905876,19.2521926 9.36433134,19.0088555 C9.45106917,18.8729234 9.52915756,18.7322382 9.59834795,18.5875 L9.69542896,18.3674403 L11.5489927,19.1186404 C11.4129248,19.4543838 11.2462402,19.7776621 11.0503296,20.0846855 C10.8171228,20.450158 10.5434936,20.7910662 10.232337,21.1022228 C7.89149446,23.4430653 4.09625424,23.4430653 1.75535851,21.1021696 C-0.585119504,18.7613392 -0.585119504,14.9661811 1.75556345,12.6251459 C2.20679821,12.1741047 2.71984508,11.8027277 3.27757235,11.5191817 L3.56008003,11.3847658 Z M29.993801,13 C29.2447244,13 28.5437955,13.2062642 27.9447112,13.5650983 L30.1582912,15.7602571 L28.7498907,17.18026 L26.5395079,14.9881269 C26.1964773,15.5776206 26,16.2629169 26,16.9940945 C26,19.1999297 27.7881867,20.988189 29.993801,20.988189 C32.1996725,20.988189 33.9878955,19.199966 33.9878955,16.9940945 C33.9878955,14.788223 32.1996725,13 29.993801,13 Z M20,13 L20,15 L16,15 L16,13 L20,13 Z M8.23606798,5 L14.215,7.989 L21.1115824,7.6713729 C22.3903601,7.5406691 22.9462212,7.15765302 22.9962606,6.15507874 L23,6 L25,6 C25,8.2586022 23.6560176,9.35699164 21.4868133,9.63886068 L21.2594904,9.66512096 L13.7858894,10.0109787 L7.764,7 L1,7 L1,5 L8.23606798,5 Z M22,4 L22,6 L19,6 L19,4 L22,4 Z" id="Combined-Shape"></path>
            </g>
        </g>
    </g>
</svg>