<?xml version="1.0" encoding="UTF-8"?>
<svg width="40px" height="40px" viewBox="0 0 40 40" version="1.1" xmlns="http://www.w3.org/2000/svg" xmlns:xlink="http://www.w3.org/1999/xlink">
    <!-- Generator: Sketch 63.1 (92452) - https://sketch.com -->
    <title>Icons/40px/moped-40</title>
    <desc>Created with Sketch.</desc>
    <g id="Icons/40px/moped-40" stroke="none" stroke-width="1" fill="none" fill-rule="evenodd">
        <g>
            <rect id="invisible-40" x="0" y="0" width="40" height="40"></rect>
            <g id="lines" transform="translate(2.000000, 9.000000)" fill="#FF0000" fill-rule="nonzero">
                <path d="M30.9998316,13 C33.761444,13 36,15.238592 36,18 C36,20.761408 33.761444,23 30.9998316,23 C28.2384909,23 26,20.7613429 26,18 C26,15.2386571 28.2384909,13 30.9998316,13 Z M1.73488024,13.254863 L3.06870309,14.745137 C2.39263047,15.3502345 2,16.2096995 2,17.1347292 C2,18.9050694 3.43503475,20.3401042 5.205375,20.3401042 C6.14268504,20.3401042 7.01130748,19.9365636 7.6142386,19.2498838 L7.73929963,19.0984482 L9.3191587,20.3248435 C8.33994284,21.5862827 6.83406718,22.3401042 5.205375,22.3401042 C2.33046525,22.3401042 1.72661885e-12,20.0096389 1.72661885e-12,17.1347292 C1.72661885e-12,15.7230016 0.566244448,14.4004542 1.54630641,13.432195 L1.73488024,13.254863 Z M30.9998316,15 C29.3430936,15 28,16.3431934 28,18 C28,19.6568066 29.3430936,21 30.9998316,21 C32.6568673,21 34,19.6568457 34,18 C34,16.3431543 32.6568673,15 30.9998316,15 Z M23.5780563,1.26298971e-12 L29.4190133,10.1411901 C29.8487858,10.0634254 30.2909406,10.0166228 30.7424138,10.0036862 L31,10 C31.7322585,10 32.6874962,10.1507102 33.8857648,10.4476493 L34.2186059,10.5322548 L33.7147437,12.4677452 C32.5094586,12.1539758 31.5958665,12 31,12 C27.7434184,12 25.1512009,14.2572465 25.0296081,16.8308076 L25.0251465,17.0196533 L25.0251465,20.0292969 L10.6037824,20.0292969 L2.61479727e-12,10.1121686 L2.61479727e-12,4.07238344 L16,3.99516201 L16,5 C16,7.94066145 13.8974669,10.3894687 11.0765812,11.4437426 C11.7735579,13.7896988 13.9458243,15.4544875 16.4595521,15.4544875 C19.5050443,15.4544875 21.8815908,13.1942033 21.9957081,10.224067 L22,10 L22,6 L24,6 L24,10 C24,14.1926683 20.6775964,17.4544875 16.4595521,17.4544875 C13.0191027,17.4544875 10.0513825,15.1561839 9.13444373,11.9262611 C8.84312588,11.9642965 8.54675818,11.9880194 8.24781419,11.9964892 L8,12 L8,10 C10.7424234,10 13.1917128,8.33456019 13.835542,6.13755203 L13.87,6.005 L2,6.062 L2,9.243 L11.393,18.029 L23.025,18.029 L23.0251465,17.0196533 C23.0251465,14.3140184 24.8335688,11.90821 27.4579611,10.7429224 L22.421,1.999 L20,2 L20,1.26298971e-12 L23.5780563,1.26298971e-12 Z M8,7 L8,9 L3,9 L3,7 L8,7 Z M28.8675842,3.50270968 L30.6954384,6.69162635 L28.96027,7.68620699 L27.1324158,4.49729032 L28.8675842,3.50270968 Z" id="Combined-Shape"></path>
            </g>
        </g>
    </g>
</svg>