<?xml version="1.0" encoding="UTF-8"?>
<svg width="40px" height="40px" viewBox="0 0 40 40" version="1.1" xmlns="http://www.w3.org/2000/svg" xmlns:xlink="http://www.w3.org/1999/xlink">
    <!-- Generator: Sketch 61.2 (89653) - https://sketch.com -->
    <title>Icons/40px/mortgage-40</title>
    <desc>Created with Sketch.</desc>
    <g id="Icons/40px/mortgage-40" stroke="none" stroke-width="1" fill="none" fill-rule="evenodd">
        <g>
            <rect id="invisible-40" x="0" y="0" width="40" height="40"></rect>
            <g id="outlines" transform="translate(5.000000, 3.000000)" fill="#FF0000" fill-rule="nonzero">
                <path d="M11,20.7115295 L20,28.0240295 L20,35 L18,35 L18,28.9759705 L11,23.2884705 L4,28.9759705 L4,35 L2,35 L2,28.0240295 L11,20.7115295 Z M14,30 L14,35 L12,35 L12,32 L10,32 L10,35 L8,35 L8,30 L14,30 Z M26,20 C28.209139,20 30,21.790861 30,24 C30,26.209139 28.209139,28 26,28 C23.790861,28 22,26.209139 22,24 C22,21.790861 23.790861,20 26,20 Z M26,22 C24.8954305,22 24,22.8954305 24,24 C24,25.1045695 24.8954305,26 26,26 C27.1045695,26 28,25.1045695 28,24 C28,22.8954305 27.1045695,22 26,22 Z M25.1169399,-0.489772063 L28.2790355,14.1340925 L22.9939092,15.2489736 C22.8641663,17.8947334 20.6779388,20 18,20 C16.045564,20 14.3530378,18.8786306 13.530716,17.2441863 L2.88306008,19.4897721 L-0.279035536,4.86590748 L25.1169399,-0.489772063 Z M18,12 C16.3431458,12 15,13.3431458 15,15 C15,16.6568542 16.3431458,18 18,18 C19.6568542,18 21,16.6568542 21,15 C21,13.3431458 19.6568542,12 18,12 Z M23.5826512,1.87777893 L2.10064114,6.40805429 L4.41734885,17.1222211 L13.0095137,15.3109853 C13.0032022,15.2081334 13,15.1044406 13,15 C13,12.2385763 15.2385763,10 18,10 C20.1525852,10 21.9874613,11.3602742 22.6919279,13.2681222 L25.8993589,12.5919457 L23.5826512,1.87777893 Z" id="Combined-Shape"></path>
            </g>
        </g>
    </g>
</svg>