<?xml version="1.0" encoding="UTF-8"?>
<svg width="40px" height="40px" viewBox="0 0 40 40" version="1.1" xmlns="http://www.w3.org/2000/svg" xmlns:xlink="http://www.w3.org/1999/xlink">
    <!-- Generator: Sketch 63.1 (92452) - https://sketch.com -->
    <title>Icons/40px/notification-swish-40</title>
    <desc>Created with Sketch.</desc>
    <defs>
        <path d="M10,32.8301081 L10.7467835,31.9334757 C15.823159,33.3253908 21.4098002,31.5214517 24.8174103,27.4609875 C29.3769505,22.0000689 28.5951273,13.7467805 22.8639474,9.17395496 L21.8215166,8.41181737 L26.5606351,3 L27.5198467,3.7023621 C31.599781,6.86192411 34,11.6567729 34,16.9212864 C34,26.3957028 26.1992883,34 16.4801533,34 C14.3208322,34 12.1593211,33.6498864 10,32.8301081 L10,32.8301081 Z M6.43959761,30.3023671 C2.34167186,27.03753 0,22.1434648 0,17.0154374 C0,7.5761235 7.61043354,0 17.0924953,0 C19.5516781,0 21.8912134,0.465797599 24,1.51437393 L23.2287011,2.36089194 C17.9129351,0.71464837 12.285231,2.21626072 8.8304104,6.51265866 C4.38208849,12.0809605 5.27303481,20.052693 10.8644173,24.7340652 L11.8814208,25.4933791 L7.25790083,31 L6.43959761,30.3023671 Z" id="path-1"></path>
    </defs>
    <g id="Icons/40px/notification-swish-40" stroke="none" stroke-width="1" fill="none" fill-rule="evenodd">
        <g>
            <rect id="invisible-40" x="0" y="0" width="40" height="40"></rect>
            <g id="outlines" transform="translate(3.000000, 3.000000)">
                <mask id="mask-2" fill="white">
                    <use xlink:href="#path-1"></use>
                </mask>
                <use id="swish" fill="#FF0000" fill-rule="nonzero" xlink:href="#path-1"></use>
            </g>
        </g>
    </g>
</svg>