<?xml version="1.0" encoding="UTF-8"?>
<svg width="40px" height="40px" viewBox="0 0 40 40" version="1.1" xmlns="http://www.w3.org/2000/svg" xmlns:xlink="http://www.w3.org/1999/xlink">
    <!-- Generator: Sketch 50.2 (55047) - http://www.bohemiancoding.com/sketch -->
    <title>padlock-40</title>
    <desc>Created with Sketch.</desc>
    <defs></defs>
    <g id="padlock-40" stroke="none" stroke-width="1" fill="none" fill-rule="evenodd">
        <g id="padlock-40-crop" transform="translate(7.000000, 2.000000)" fill="#FF0000" fill-rule="nonzero">
            <path d="M0,35 L0,15 L26,15 L26,35 L0,35 Z M24,33 L24,17 L2,17 L2,33 L24,33 Z" id="Stroke-1"></path>
            <path d="M23,15.2263637 L23,9.78066038 C23,4.37322657 18.5175309,0 13,0 C7.48269762,0 3,4.37333525 3,9.78066038 L3,15.2263637 L5,15.2263637 L5,9.78066038 C5,5.48911149 8.5763624,2 13,2 C17.4238547,2 21,5.48899081 21,9.78066038 L21,15.2263637 L23,15.2263637 Z" id="Stroke-3"></path>
            <path d="M19,15.677797 L19,9.87829104 C19,6.62630731 16.3081995,4 13.00015,4 C9.69185592,4 7,6.62625251 7,9.87829104 L7,15.677797 L9,15.677797 L9,9.87829104 C9,7.74201675 10.7855321,6 13.00015,6 C15.2145053,6 17,7.74205249 17,9.87829104 L17,15.677797 L19,15.677797 Z" id="Stroke-4"></path>
            <path d="M15.2722584,28.0252225 L13.9947641,24.1656714 C14.521351,23.8504421 14.873781,23.285238 14.873781,22.6382148 C14.873781,21.6478527 14.0511014,20.8452226 13.0360002,20.8452226 C12.0211562,20.8452226 11.1982194,21.6478527 11.1982194,22.6382148 C11.1982194,23.285238 11.5509066,23.8504421 12.0774936,24.1656714 L10.7999992,28.0252225 L15.2722584,28.0252225 Z M9.19821938,22.6382148 C9.19821938,20.5321307 10.9274333,18.8452226 13.0360002,18.8452226 C15.1447776,18.8452226 16.873781,20.5320884 16.873781,22.6382148 C16.873781,23.3798497 16.6562163,24.0825898 16.2709893,24.6778052 L18.0409608,30.0252225 L8.03129684,30.0252225 L9.80122897,24.677924 C9.41589096,24.0826955 9.19821938,23.3799193 9.19821938,22.6382148 Z" id="Stroke-5"></path>
        </g>
    </g>
</svg>