<?xml version="1.0" encoding="UTF-8"?>
<svg width="40px" height="40px" viewBox="0 0 40 40" version="1.1" xmlns="http://www.w3.org/2000/svg" xmlns:xlink="http://www.w3.org/1999/xlink">
    <!-- Generator: Sketch 50.2 (55047) - http://www.bohemiancoding.com/sketch -->
    <title>pension-40</title>
    <desc>Created with Sketch.</desc>
    <defs></defs>
    <g id="pension-40" stroke="none" stroke-width="1" fill="none" fill-rule="evenodd">
        <g id="pension-40-crop" transform="translate(2.000000, 2.000000)" fill="#FF0000" fill-rule="nonzero">
            <polygon id="Stroke-1" points="23 7 20 7 20 9 23 9"></polygon>
            <polygon id="Stroke-2" points="36 7 33 7 33 9 36 9"></polygon>
            <polygon id="Stroke-1" transform="translate(28.000000, 1.500000) rotate(-270.000000) translate(-28.000000, -1.500000) " points="29.5 0.5 26.5 0.5 26.5 2.5 29.5 2.5"></polygon>
            <polygon id="Stroke-2" transform="translate(28.000000, 14.500000) rotate(-270.000000) translate(-28.000000, -14.500000) " points="29.5 13.5 26.5 13.5 26.5 15.5 29.5 15.5"></polygon>
            <polygon id="Stroke-1" transform="translate(32.596194, 3.403806) rotate(-225.000000) translate(-32.596194, -3.403806) " points="34.0961941 2.40380592 31.0961941 2.40380592 31.0961941 4.40380592 34.0961941 4.40380592"></polygon>
            <polygon id="Stroke-2" transform="translate(23.403806, 12.596194) rotate(-225.000000) translate(-23.403806, -12.596194) " points="24.9038059 11.5961941 21.9038059 11.5961941 21.9038059 13.5961941 24.9038059 13.5961941"></polygon>
            <polygon id="Stroke-1" transform="translate(32.596194, 12.596194) rotate(-135.000000) translate(-32.596194, -12.596194) " points="34.0961941 11.5961941 31.0961941 11.5961941 31.0961941 13.5961941 34.0961941 13.5961941"></polygon>
            <polygon id="Stroke-2" transform="translate(23.403806, 3.403806) rotate(-135.000000) translate(-23.403806, -3.403806) " points="24.9038059 2.40380592 21.9038059 2.40380592 21.9038059 4.40380592 24.9038059 4.40380592"></polygon>
            <path d="M30,8 C30,6.8954899 29.1044474,6 27.9997898,6 C26.8952557,6 26,6.89536636 26,8 C26,9.10463364 26.8952557,10 27.9997898,10 C29.1044474,10 30,9.1045101 30,8 Z M32,8 C32,10.209111 30.2089855,12 27.9997898,12 C25.7906309,12 24,10.2091478 24,8 C24,5.79085216 25.7906309,4 27.9997898,4 C30.2089855,4 32,5.79088903 32,8 Z" id="Stroke-14"></path>
            <g id="Page-1" transform="translate(12.703287, 21.135427) rotate(-6.000000) translate(-12.703287, -21.135427) translate(1.203287, 10.135427)">
                <path d="M14.1339281,7.91198356 L16.1231718,8.11912807 C16.0867681,8.4699503 16.7304428,9.40376628 17.218471,9.45385067 L19.7429321,9.72703603 C19.8431329,9.73731979 19.9952463,9.6039476 20.0115926,9.44642057 L20.1275862,8.33583102 L11.7032951,2.3387089 L2.22112809,6.453433 L2.09331434,7.66949392 C2.07878207,7.8095411 2.1244524,7.86768944 2.24245824,7.87980357 L4.80853902,8.14951172 C5.30683932,8.20083312 6.13437986,7.4336944 6.17747068,7.07911272 L8.16482652,7.3029637 C8.12961768,7.64227066 8.78132819,8.56827646 9.27187629,8.61862518 L12.7639177,8.98565352 C13.2516126,9.03465187 14.0988637,8.24753512 14.1339281,7.91198356 Z M12.5589329,10.9751222 L9.06525257,10.6079217 C8.23775881,10.5229947 7.47908428,9.99012446 6.94543255,9.30570911 C6.2822176,9.86189631 5.43147494,10.2242482 4.60155958,10.1387717 L2.03583452,9.86910009 C0.805362885,9.74281489 -0.0231102998,8.68798693 0.104133138,7.46175271 L0.354105411,5.08342541 L11.9431472,0.0544368727 L22.2379652,7.38315816 L22.1773657,7.96337278 L22.0008419,9.6535115 C21.873948,10.8763864 20.7713994,11.8430949 19.5332556,11.716007 L17.0088312,11.4428254 C16.1800455,11.3577967 15.4257286,10.8224596 14.8963631,10.1350852 C14.2306025,10.6936347 13.3793994,11.0592974 12.5589329,10.9751222 Z" id="Stroke-1"></path>
                <polygon id="Stroke-7" points="9.8202001 10.6872729 8.67038701 21.6270137 10.6594308 21.8360707 11.8092439 10.8963298"></polygon>
            </g>
            <path d="M35,33 C32.8407899,33 31.8172749,32.6126624 29.8247442,31.3544652 C27.5415125,29.912703 26.1867952,29.4000015 23.5824,29.4000015 C20.9762499,29.4000015 19.6190228,29.91244 17.3289023,31.353648 C15.3287099,32.6123998 14.302173,33 12.1414,33 L1,33 L1,35 L12.1414,35 C14.7469465,35 16.1039027,34.4876399 18.3937728,33.0465895 C20.3942149,31.7876806 21.4210085,31.4000015 23.5824,31.4000015 C25.7409919,31.4000015 26.7642499,31.7872601 28.7565329,33.0453008 C31.0400131,34.48722 32.3950017,35 35,35 L35,33 Z" id="Page-1"></path>
        </g>
    </g>
</svg>