<?xml version="1.0" encoding="UTF-8"?>
<svg width="40px" height="40px" viewBox="0 0 40 40" version="1.1" xmlns="http://www.w3.org/2000/svg" xmlns:xlink="http://www.w3.org/1999/xlink">
    <!-- Generator: Sketch 64 (93537) - https://sketch.com -->
    <title>Icons/40px/payment-40</title>
    <desc>Created with Sketch.</desc>
    <g id="Icons/40px/payment-40" stroke="none" stroke-width="1" fill="none" fill-rule="evenodd">
        <g>
            <rect id="invisible-40" x="0" y="0" width="40" height="40"></rect>
            <g id="outlines" transform="translate(1.767583, 1.847094)" fill="#FF0000" fill-rule="nonzero">
                <path d="M11.7324168,26.152906 C14.2176982,26.152906 16.2324168,28.1676246 16.2324168,30.652906 C16.2324168,33.1381874 14.2176982,35.152906 11.7324168,35.152906 C9.2471354,35.152906 7.23241678,33.1381874 7.23241678,30.652906 C7.23241678,28.1676246 9.2471354,26.152906 11.7324168,26.152906 Z M35.5263643,21.4447465 L36.9384693,22.8610655 L25.1036908,34.660632 L19.5570706,29.5814662 L20.907763,28.1064646 L25.0449474,31.894978 L35.5263643,21.4447465 Z M11.7324168,28.152906 C10.3517049,28.152906 9.23241678,29.2721941 9.23241678,30.652906 C9.23241678,32.0336179 10.3517049,33.152906 11.7324168,33.152906 C13.1131287,33.152906 14.2324168,32.0336179 14.2324168,30.652906 C14.2324168,29.2721941 13.1131287,28.152906 11.7324168,28.152906 Z M27.627436,-0.416859894 L29.8049101,7.06014011 L30.7570411,7.26383831 L27.0550844,24.8922952 L14.2216626,21.8312019 C13.2252294,23.2360815 11.585891,24.152906 9.73241678,24.152906 C7.17551251,24.152906 5.02612473,22.4081206 4.40991409,20.0442104 L-0.287089904,19.0424989 L3.40980943,1.43812474 L11.6589101,3.19514011 L27.627436,-0.416859894 Z M4.95489115,3.81214694 L2.0800601,17.5018899 L4.27440359,17.9699535 C4.61070051,15.2546631 6.92611281,13.152906 9.73241678,13.152906 C12.7699829,13.152906 15.2324168,15.6153399 15.2324168,18.652906 C15.2324168,19.1097155 15.176726,19.5535177 15.0717635,19.9778936 L25.5201173,22.4701076 L28.389891,8.8044474 L11.6709101,5.24314011 L11.387328,5.3075907 L11.3569101,5.17614011 L4.95489115,3.81214694 Z M9.73241678,15.152906 C7.79942015,15.152906 6.23241678,16.7199094 6.23241678,18.652906 C6.23241678,20.5859026 7.79942015,22.152906 9.73241678,22.152906 C11.6654134,22.152906 13.2324168,20.5859026 13.2324168,18.652906 C13.2324168,16.7199094 11.6654134,15.152906 9.73241678,15.152906 Z M26.2334923,1.94902345 L16.3279101,4.18914011 L27.5839101,6.58714011 L26.2334923,1.94902345 Z" id="Combined-Shape"></path>
            </g>
        </g>
    </g>
</svg>