<?xml version="1.0" encoding="UTF-8"?>
<svg width="40px" height="40px" viewBox="0 0 40 40" version="1.1" xmlns="http://www.w3.org/2000/svg" xmlns:xlink="http://www.w3.org/1999/xlink">
    <!-- Generator: Sketch 61.2 (89653) - https://sketch.com -->
    <title>Icons/40px/percent-40</title>
    <desc>Created with Sketch.</desc>
    <g id="Icons/40px/percent-40" stroke="none" stroke-width="1" fill="none" fill-rule="evenodd">
        <g>
            <rect id="invisible-40" x="0" y="0" width="40" height="40"></rect>
            <g id="outlines" transform="translate(4.000000, 2.000000)" fill="#FF0000" fill-rule="nonzero">
                <path d="M26.1642945,0.450822113 L27.8357055,1.54917789 L4.83570548,36.5491779 L3.16429452,35.4508221 L26.1642945,0.450822113 Z M24,22 C27.8659932,22 31,25.1340068 31,29 C31,32.8659932 27.8659932,36 24,36 C20.1340068,36 17,32.8659932 17,29 C17,25.1340068 20.1340068,22 24,22 Z M24,24 C21.2385763,24 19,26.2385763 19,29 C19,31.7614237 21.2385763,34 24,34 C26.7614237,34 29,31.7614237 29,29 C29,26.2385763 26.7614237,24 24,24 Z M7,-7.10542736e-15 C10.8659932,-7.10542736e-15 14,3.13400675 14,7 C14,10.8659932 10.8659932,14 7,14 C3.13400675,14 7.99360578e-15,10.8659932 7.99360578e-15,7 C7.99360578e-15,3.13400675 3.13400675,-7.10542736e-15 7,-7.10542736e-15 Z M7,2 C4.23857625,2 2,4.23857625 2,7 C2,9.76142375 4.23857625,12 7,12 C9.76142375,12 12,9.76142375 12,7 C12,4.23857625 9.76142375,2 7,2 Z" id="Combined-Shape"></path>
            </g>
        </g>
    </g>
</svg>