<?xml version="1.0" encoding="UTF-8"?>
<svg width="40px" height="40px" viewBox="0 0 40 40" version="1.1" xmlns="http://www.w3.org/2000/svg" xmlns:xlink="http://www.w3.org/1999/xlink">
    <!-- Generator: Sketch 54.1 (76490) - https://sketchapp.com -->
    <title>Icons/40px/mobile-phone-broken-40</title>
    <desc>Created with Sketch.</desc>
    <g id="Icons/40px/mobile-phone-broken-40" stroke="none" stroke-width="1" fill="none" fill-rule="evenodd">
        <g>
            <rect id="invisible-40" x="0" y="0" width="40" height="40"></rect>
            <g id="lines" transform="translate(7.000000, 3.000000)" fill="#FF0000">
                <path d="M2,-1 L18,-1 C19.6568542,-1 21,0.343145751 21,2 L21,32 C21,33.6568542 19.6568542,35 18,35 L2,35 C0.343145751,35 -1,33.6568542 -1,32 L-1,2 C-1,0.343145751 0.343145751,-1 2,-1 Z M2,1 C1.44771525,1 1,1.44771525 1,2 L1,32 C1,32.5522847 1.44771525,33 2,33 L18,33 C18.5522847,33 19,32.5522847 19,32 L19,2 C19,1.44771525 18.5522847,1 18,1 L2,1 Z" id="Rectangle-7" fill-rule="nonzero"></path>
                <circle id="Oval-2" cx="10.5" cy="30.5" r="1.5"></circle>
                <polygon id="Path-3" fill-rule="nonzero" points="1 28 19 28 19 26 1 26"></polygon>
                <polygon id="Path-3" fill-rule="nonzero" points="8.27056781 8.08568248 4.56633507 14.2857143 12.9772424 14.2857143 10.7925002 18.3487754 19.5394107 22.8876134 20.4605893 21.1123866 13.5151921 17.5083675 16.3234569 12.2857143 8.09100759 12.2857143 11.0441175 7.34288895 3.48722209 3.1267219 2.51277791 4.8732781"></polygon>
                <polygon id="Path-6" fill-rule="nonzero" points="28.5527864 9.10557281 24.5527864 11.1055728 25.4472136 12.8944272 29.4472136 10.8944272"></polygon>
                <polygon id="Path" fill-rule="nonzero" points="24.4 21.8 28.4 24.8 29.6 23.2 25.6 20.2"></polygon>
                <polygon id="Path-8" fill-rule="nonzero" points="31 16 26 16 26 18 31 18"></polygon>
            </g>
        </g>
    </g>
</svg>