<?xml version="1.0" encoding="UTF-8"?>
<svg width="40px" height="40px" viewBox="0 0 40 40" version="1.1" xmlns="http://www.w3.org/2000/svg" xmlns:xlink="http://www.w3.org/1999/xlink">
    <!-- Generator: Sketch 50.2 (55047) - http://www.bohemiancoding.com/sketch -->
    <title>phone-40</title>
    <desc>Created with Sketch.</desc>
    <defs></defs>
    <g id="phone-40" stroke="none" stroke-width="1" fill="none" fill-rule="evenodd">
        <g id="phone-40-crop" transform="translate(9.000000, 3.000000)" fill="#FF0000">
            <path d="M2,3.31855463 C2,2.627521 2.62456025,2 3.3076153,2 L18.6923847,2 C19.3754398,2 20,2.627521 20,3.31855463 L20,30.6814454 C20,31.3722922 19.375624,32 18.6923847,32 L3.3076153,32 C2.57651007,32 2,31.4061572 2,30.6814454 L2,3.31855463 Z M3.3076153,34 L18.6923847,34 C20.4825832,34 22,32.474486 22,30.6814454 L22,3.31855463 C22,1.52506334 20.4821322,0 18.6923847,0 L3.3076153,0 C1.51786784,0 0,1.52506334 0,3.31855463 L0,30.6814454 C0,32.4976859 1.45846537,34 3.3076153,34 Z" id="Shape" fill-rule="nonzero"></path>
            <polygon id="Shape" fill-rule="nonzero" points="20 9 20 7 2 7 2 9"></polygon>
            <polygon id="Shape" fill-rule="nonzero" points="20 27 20 25 2 25 2 27"></polygon>
            <path d="M12.5,29.4990007 C12.5,30.3284477 11.828,31 11,31 C10.169,31 9.5,30.3284477 9.5,29.4990007 C9.5,28.6715523 10.17,28 11,28 C11.828,28 12.5,28.6715523 12.5,29.4990007 Z" id="Shape"></path>
        </g>
    </g>
</svg>