<?xml version="1.0" encoding="UTF-8"?>
<svg width="40px" height="40px" viewBox="0 0 40 40" version="1.1" xmlns="http://www.w3.org/2000/svg" xmlns:xlink="http://www.w3.org/1999/xlink">
    <title>Icons/40px/phone_landscape-40</title>
    <g id="Icons/40px/phone_landscape-40" stroke="none" stroke-width="1" fill="none" fill-rule="evenodd">
        <g>
            <rect id="invisible-40" x="0" y="0" width="40" height="40"></rect>
            <g id="lines" transform="translate(19.500000, 20.500000) rotate(-360.000000) translate(-19.500000, -20.500000) translate(4.000000, 3.000000)" fill="#FF0000" fill-rule="nonzero">
                <path d="M30.6694329,22.3386706 C30.6694329,28.1471595 27.4434541,31.0388927 21.4254291,30.7645943 L23.5142136,32.8539105 L22.1,34.2681241 L17.715938,29.884062 L22.1,25.5 L23.5142136,26.9142136 L21.6552989,28.7746403 C26.3743558,28.9662353 28.5810845,26.9854914 28.6668298,22.6075974 L28.6694329,22.3386706 L30.6694329,22.3386706 Z M17.8309398,3.25179836 C19.2368272,1.84591091 21.5162211,1.84591091 22.9221086,3.25179836 L22.9221086,3.25179836 L29.4982016,9.82789142 C30.9040891,11.2337789 30.9040891,13.5131728 29.4982016,14.9190602 L29.4982016,14.9190602 L13.376167,31.0410949 C11.9702796,32.4469823 9.69088566,32.4469823 8.28499821,31.0410949 L8.28499821,31.0410949 L1.70890514,24.4650018 C0.30301769,23.0591143 0.30301769,20.7797204 1.70890514,19.373833 L1.70890514,19.373833 Z M21.507895,4.66601192 C20.8830561,4.04117305 19.8699922,4.04117305 19.2451533,4.66601192 L19.2451533,4.66601192 L3.1231187,20.7880465 C2.49827984,21.4128854 2.49827984,22.4259494 3.1231187,23.0507882 L3.1231187,23.0507882 L9.69921177,29.6268813 C10.3240506,30.2517202 11.3371146,30.2517202 11.9619535,29.6268813 L11.9619535,29.6268813 L28.0839881,13.5048467 C28.7088269,12.8800078 28.7088269,11.8669439 28.0839881,11.242105 L28.0839881,11.242105 Z M7.43933983,23.4393398 C8.02512627,22.8535534 8.97487373,22.8535534 9.56066017,23.4393398 C10.1464466,24.0251263 10.1464466,24.9748737 9.56066017,25.5606602 C8.97487373,26.1464466 8.02512627,26.1464466 7.43933983,25.5606602 C6.85355339,24.9748737 6.85355339,24.0251263 7.43933983,23.4393398 Z M8.83294373,8.83737528e-13 L13.2928505,4.3068819 L8.9859686,8.76678866 L7.547289,7.37747192 L9.69049762,5.15674985 C5.4001692,5.23602086 3.41921777,7.26554034 3.4103105,11.4470024 L3.41240124,11.7159337 L1.41270585,11.7508385 C1.31867656,6.36390417 4.04358305,3.43766 9.24464691,3.17705608 L7.44362699,1.4386796 L8.83294373,8.83737528e-13 Z" id="Combined-Shape"></path>
            </g>
        </g>
    </g>
</svg>