<?xml version="1.0" encoding="UTF-8"?>
<svg width="40px" height="40px" viewBox="0 0 40 40" version="1.1" xmlns="http://www.w3.org/2000/svg" xmlns:xlink="http://www.w3.org/1999/xlink">
    <!-- Generator: Sketch 54.1 (76490) - https://sketchapp.com -->
    <title>Icons/40px/mobile-phone-40</title>
    <desc>Created with Sketch.</desc>
    <g id="Icons/40px/mobile-phone-40" stroke="none" stroke-width="1" fill="none" fill-rule="evenodd">
        <g>
            <rect id="invisible-40" x="0" y="0" width="40" height="40"></rect>
            <g id="lines" transform="translate(10.000000, 3.000000)" fill="#FF0000">
                <path d="M2,-1 L18,-1 C19.6568542,-1 21,0.343145751 21,2 L21,32 C21,33.6568542 19.6568542,35 18,35 L2,35 C0.343145751,35 -1,33.6568542 -1,32 L-1,2 C-1,0.343145751 0.343145751,-1 2,-1 Z M2,1 C1.44771525,1 1,1.44771525 1,2 L1,32 C1,32.5522847 1.44771525,33 2,33 L18,33 C18.5522847,33 19,32.5522847 19,32 L19,2 C19,1.44771525 18.5522847,1 18,1 L2,1 Z" id="Rectangle-7" fill-rule="nonzero"></path>
                <circle id="Oval-2" cx="10" cy="30.5" r="1.5"></circle>
                <polygon id="Path-3" fill-rule="nonzero" points="0 28 19 28 19 26 0 26"></polygon>
                <polygon id="Path-3" fill-rule="nonzero" points="0 5 19 5 19 3 0 3"></polygon>
            </g>
        </g>
    </g>
</svg>