<?xml version="1.0" encoding="UTF-8"?>
<svg width="40px" height="40px" viewBox="0 0 40 40" version="1.1" xmlns="http://www.w3.org/2000/svg" xmlns:xlink="http://www.w3.org/1999/xlink">
    <!-- Generator: Sketch 50.2 (55047) - http://www.bohemiancoding.com/sketch -->
    <title>pin-40</title>
    <desc>Created with Sketch.</desc>
    <defs></defs>
    <g id="pin-40" stroke="none" stroke-width="1" fill="none" fill-rule="evenodd">
        <g id="pin-40-crop" transform="translate(6.000000, 2.000000)" fill="#FF0000" fill-rule="nonzero">
            <polygon id="Shape" points="2 35 26 35 26 33 2 33"></polygon>
            <path d="M14,0 C21.6805099,0 28,6.19177457 28,13.7372729 C28,17.3590278 26.5089693,20.7889606 23.903392,23.4690989 L14,33.1723456 L13.3001479,32.4866373 L4.07939471,23.451817 C1.49103074,20.7889606 0,17.3590278 0,13.7372729 C0,6.19177457 6.31949006,0 14,0 Z M22.4864744,22.0578054 C24.7234169,19.7564843 26,16.8198617 26,13.7372729 C26,7.30558679 20.5849768,2 14,2 C7.41502321,2 2,7.30558679 2,13.7372729 C2,16.8198617 3.27658314,19.7564843 5.49631232,22.0405235 L14.0000162,30.3723694 L22.4864744,22.0578054 Z" id="Shape"></path>
            <path d="M14,17.5028388 C12.0279651,17.5028388 10.5,15.9743918 10.5,14.0014194 C10.5,12.0284471 12.0279651,10.5 14,10.5 C15.9720349,10.5 17.5,12.0284471 17.5,14.0014194 L19.5,14.0014194 C19.5,10.9240188 17.0767456,8.5 14,8.5 C10.9232544,8.5 8.5,10.9240188 8.5,14.0014194 C8.5,17.0788201 10.9232544,19.5028388 14,19.5028388 L14,17.5028388 Z" id="Shape"></path>
        </g>
    </g>
</svg>