<?xml version="1.0" encoding="UTF-8"?>
<svg width="40px" height="40px" viewBox="0 0 40 40" version="1.1" xmlns="http://www.w3.org/2000/svg" xmlns:xlink="http://www.w3.org/1999/xlink">
    <!-- Generator: Sketch 63.1 (92452) - https://sketch.com -->
    <title>Icons/40px/pregnant-40</title>
    <desc>Created with Sketch.</desc>
    <g id="Icons/40px/pregnant-40" stroke="none" stroke-width="1" fill="none" fill-rule="evenodd">
        <g>
            <rect id="invisible-40" x="0" y="0" width="40" height="40"></rect>
            <g id="lines" transform="translate(8.000000, 2.000000)" fill="#FF0000" fill-rule="nonzero">
                <path d="M12.0322581,-2.39808173e-14 C13.6617595,-2.39808173e-14 15.2085956,0.549832582 16.4559852,1.53821717 L16.6863086,1.72865139 L15.3801197,3.24320426 C14.4551892,2.44552065 13.2794805,2 12.0322581,2 C9.19966018,2 6.90322581,4.29634582 6.90322581,7.12903226 C6.90322581,9.96150335 9.19978697,12.2580645 12.0322581,12.2580645 C14.8649445,12.2580645 17.1612903,9.96163015 17.1612903,7.12903226 C17.1612903,6.74373394 17.1189714,6.36484775 17.0392211,6.0054105 L17.01,5.888 L13.4466501,5.88872282 C11.9344829,5.88872282 10.8021054,5.52242675 10.0287939,4.86963534 L9.87891297,4.73528077 C9.41006851,4.28898399 9.16786433,3.81623337 9.07534433,3.41958117 L9.04994262,3.2903229 L11.0251073,2.97611856 C11.028026,2.9944659 11.0872299,3.12423481 11.257864,3.28666278 C11.6095362,3.62142233 12.2247842,3.85360877 13.2121431,3.88507031 L13.4466501,3.88872282 L18.4263449,3.88872282 L18.7722479,4.80111432 C19.0288012,5.54402449 19.1612903,6.32812738 19.1612903,7.12903226 C19.1612903,8.73877151 18.6277377,10.2239275 17.7278266,11.4172811 C19.635429,12.1642199 20.9050391,13.7116487 20.9948965,15.7652465 L21,16 L21,25 C21,26.9879039 19.1662647,28.8817279 17.1860252,28.9946796 L17,29 L10,29 C8.43386279,29 6.97084738,27.5483074 7.00016773,25.9816853 C7.02730835,24.5000292 8.36378162,23.1033418 9.83592933,23.0054683 L10,23 L14.999,23 L15,17.2580645 L17,17.2580645 L17,25 L10,25 C9.56590611,25 9.00820647,25.561152 8.99982491,26.0187123 C8.99224959,26.4234722 9.46563827,26.9226455 9.90055417,26.9918908 L10,27 L17,27 C17.9023632,27 18.9043471,26.0391116 18.9935721,25.1294882 L19,25 L19,16 C19,14.4634911 17.906941,13.371519 16.126661,13.029327 L16.0518704,13.0176054 C14.9075,13.8002824 13.5233401,14.2580645 12.0322581,14.2580645 C10.8546236,14.2580645 9.74364929,13.9724745 8.76482064,13.4667802 C7.7788777,14.0644431 7.12589006,15.1204132 7.06055106,16.3085824 L7.05514536,16.5055603 L7.05558384,18.2269297 C7.60385165,18.0980178 8.16823015,18.0216054 8.74260687,18.0039552 L9,18 L9,20 C5.2852809,20 2,23.2636905 2,26.830311 C2,28.4086148 2.61951817,29.8968633 3.72794012,31.0546468 C4.85094519,32.2279366 6.66244148,32.927657 8.67982513,32.9946959 L9,33 L9,35 C8.31723408,35 7.64682478,34.9404497 7.00054245,34.8237931 L7,36 L5,36 L5.00033112,34.2468246 C3.95070167,33.8171709 3.0217573,33.2092878 2.28318483,32.4376443 C0.82451485,30.9140152 0,28.9333097 0,26.830311 C0,23.5119332 2.10863524,20.4546339 5.05528983,18.9602332 L5.05514536,16.5055603 C5.05514536,14.8124211 5.81947249,13.2647365 7.05710197,12.2341456 C5.7286672,10.940531 4.90322581,9.13111554 4.90322581,7.12903226 C4.90322581,3.19175906 8.09510794,-2.39808173e-14 12.0322581,-2.39808173e-14 Z M19,30 L19,36 L17,36 L17,30 L19,30 Z M13.8242017,8.32446916 L15.2384152,9.73868272 C14.4407608,10.5363371 13.3732896,10.9684241 12.2658394,10.9684241 C11.2372052,10.9684241 10.243297,10.5958988 9.46787472,9.90399748 L9.29289322,9.73868272 L10.7071068,8.32446916 C11.1255216,8.74288394 11.6827855,8.96842406 12.2658394,8.96842406 C12.7838087,8.96842406 13.2816617,8.79020072 13.6797504,8.45674617 L13.8242017,8.32446916 Z" id="Combined-Shape"></path>
            </g>
        </g>
    </g>
</svg>