<?xml version="1.0" encoding="UTF-8"?>
<svg width="40px" height="40px" viewBox="0 0 40 40" version="1.1" xmlns="http://www.w3.org/2000/svg" xmlns:xlink="http://www.w3.org/1999/xlink">
    <!-- Generator: Sketch 50.2 (55047) - http://www.bohemiancoding.com/sketch -->
    <title>radio-enclosed-40</title>
    <desc>Created with Sketch.</desc>
    <defs></defs>
    <g id="radio-enclosed-40" stroke="none" stroke-width="1" fill="none" fill-rule="evenodd">
        <g id="radio-enclosed-40-crop" transform="translate(2.000000, 2.000000)" fill="#FF0000">
            <path d="M18,36 C8.0588745,36 0,27.9411255 0,18 C0,8.0588745 8.0588745,0 18,0 C27.9411255,0 36,8.0588745 36,18 C36,27.9411255 27.9411255,36 18,36 Z M18,34 C26.836556,34 34,26.836556 34,18 C34,9.163444 26.836556,2 18,2 C9.163444,2 2,9.163444 2,18 C2,26.836556 9.163444,34 18,34 Z" id="Oval" fill-rule="nonzero"></path>
            <path d="M18.0606061,20 C16.969697,20 16,19.125 16,18 C16,16.875 16.8484848,16 18.0606061,16 C19.2727273,16 20,16.875 20,18 C20,19.125 19.1515152,20 18.0606061,20 L18.0606061,20 Z" id="Path"></path>
        </g>
    </g>
</svg>