<?xml version="1.0" encoding="UTF-8"?>
<svg width="37px" height="37px" viewBox="0 0 37 37" version="1.1" xmlns="http://www.w3.org/2000/svg" xmlns:xlink="http://www.w3.org/1999/xlink">
    <!-- Generator: Sketch 52.6 (67491) - http://www.bohemiancoding.com/sketch -->
    <title>Icons/40px/phone-40</title>
    <desc>Created with Sketch.</desc>
    <g id="Icons-40" stroke="none" stroke-width="1" fill="none" fill-rule="evenodd">
        <g id="retro-phone-40" transform="translate(-1.000000, -1.000000)">
            <g id="Icons/40px/phone-40">
                <rect id="invisible-40" x="0" y="0" width="40" height="40"></rect>
                <g id="outlines" transform="translate(1.000000, 1.000000)" fill="#FF0000" fill-rule="nonzero">
                    <path d="M31.6473324,33.5661075 C31.6678481,33.544487 31.6678481,33.544487 31.6858474,33.5258146 C31.7249618,33.4854459 31.7249618,33.4854459 31.7761962,33.4329862 C31.8990155,33.3075939 31.8990155,33.3075939 32.0689401,33.1347553 C32.2425523,32.9582479 32.4668183,32.7305653 32.941957,32.2482497 C33.6391936,31.5403167 34.0207061,31.1516215 34.1500346,31.0163571 C34.602581,30.5457597 34.8117566,30.0658215 34.8117566,29.6082437 C34.8117566,29.1578848 34.6072495,28.7016751 34.1509529,28.2500556 L29.7148491,23.8000003 L29.6891356,23.7737273 C29.2677558,23.3351888 28.8342883,23.1361783 28.4001281,23.1361783 C27.9587411,23.1361783 27.5049601,23.3402785 27.0482726,23.7967358 L24.4854145,26.3501533 C22.831708,27.9759942 19.2122102,25.7095691 15.6798525,22.6473857 C12.9078902,20.2443854 9.92410795,15.5392289 11.1359591,13.6109192 L11.2800302,13.3816718 L11.4798692,13.1989829 C11.6975155,13.000015 12.0788848,12.6287165 12.5721125,12.1375722 C12.5963225,12.11346 12.5963225,12.11346 12.6205372,12.0893256 C13.0513311,11.6598843 14.0608856,10.6406698 13.9688461,10.7326637 C14.8841998,9.81776415 14.8841998,8.88787499 13.9616693,7.96576565 C11.3685021,5.34738329 9.86579084,3.84541765 9.49968884,3.50599778 C9.07850216,3.08936006 8.63991892,2.89690687 8.19929104,2.89690687 C7.74887211,2.89690687 7.28448443,3.09756874 6.86583977,3.49869117 C6.86405621,3.50047385 5.76993263,4.60364734 4.10236527,6.28502344 C3.39909956,6.98794018 3.01504645,7.80993551 2.92834195,8.78986218 C2.79576635,10.4020649 3.13587974,12.0128305 3.84453078,13.9230926 C5.07491895,17.2404558 6.91887182,20.3170663 9.68380922,23.6394866 C13.0446774,27.6505868 17.0784515,30.808231 21.668857,33.0261461 C24.102952,34.1791231 26.0210708,34.8074112 28.0184715,34.9357323 C28.2302701,34.945813 28.3382886,34.9496235 28.4324494,34.9496235 C29.7422678,34.9496235 30.770491,34.5110681 31.6121932,33.604196 C31.6549253,33.5433498 31.6523953,33.5509326 31.6473324,33.5661075 Z M31.1312812,22.3880088 L35.567385,26.8380641 C36.3834988,27.6456966 36.8117566,28.6067793 36.8117566,29.6082437 C36.8117566,30.6016317 36.3915792,31.5707908 35.591626,32.4026523 C35.2441716,32.7660869 33.1028829,34.9305421 33.0948026,34.9466948 C31.8665917,36.2792885 30.2990067,36.9496235 28.4324494,36.9496235 C28.2708427,36.9496235 28.0930753,36.9415472 27.9233883,36.9334708 C25.1518335,36.7557917 22.6711707,35.7139457 20.8126937,34.8336262 C15.9483321,32.4834155 11.6899957,29.1478931 8.15080903,24.923975 C5.23380816,21.4188497 3.27836714,18.1479379 1.9693529,14.6185837 C1.4360508,13.1809978 0.741142008,10.9842373 0.935070043,8.62595028 C1.0643554,7.16413539 1.65421984,5.90422862 2.6885027,4.87045897 C4.52543214,3.01828834 5.44659031,2.08951092 5.4519772,2.0841267 C6.26001068,1.30879946 7.21349019,0.896906868 8.19929104,0.896906868 C9.18509188,0.896906868 10.1224107,1.30879946 10.9062032,2.0841267 C11.256351,2.40717972 12.7485195,3.89860781 15.3827087,6.55841098 C17.079579,8.25443932 17.079579,10.4511998 15.3827087,12.1472282 C15.1564593,12.3733653 13.4919103,14.0693936 12.8293229,14.675118 C12.4253061,15.3179935 14.9060131,19.3296579 16.9899106,21.1361783 C19.0738081,22.9426988 22.7371468,25.2642637 23.0832678,24.923975 L25.6366536,22.3799325 C26.4527674,21.5642236 27.4062469,21.1361783 28.4001281,21.1361783 C29.4020896,21.1361783 30.3474887,21.5722999 31.1312812,22.3880088 Z" id="Shape"></path>
                </g>
            </g>
        </g>
    </g>
</svg>