<?xml version="1.0" encoding="UTF-8"?>
<svg width="40px" height="40px" viewBox="0 0 40 40" version="1.1" xmlns="http://www.w3.org/2000/svg" xmlns:xlink="http://www.w3.org/1999/xlink">
    <!-- Generator: Sketch 63.1 (92452) - https://sketch.com -->
    <title>Icons/40px/RV-40</title>
    <desc>Created with Sketch.</desc>
    <g id="Icons/40px/RV-40" stroke="none" stroke-width="1" fill="none" fill-rule="evenodd">
        <g>
            <rect id="invisible-40" x="0" y="0" width="40" height="40"></rect>
            <g id="lines" transform="translate(1.000000, 10.000000)" fill="#FF0000" fill-rule="nonzero">
                <path d="M12.9998812,14 C14.656781,14 16,15.3431392 16,17 C16,17.4644861 15.893729,17.9157482 15.6919916,18.3254112 C15.1906788,19.3418511 14.1539531,20 12.9998812,20 C11.3431639,20 10,18.6568057 10,17 C10,15.3431943 11.3431639,14 12.9998812,14 Z M27.9998812,14 C29.656781,14 31,15.3431392 31,17 C31,17.4643821 30.8935524,17.9156244 30.6918817,18.325152 C30.1908648,19.3417323 29.1540516,20 27.9998812,20 C26.3431639,20 25,18.6568057 25,17 C25,15.3431943 26.3431639,14 27.9998812,14 Z M33.7440307,0 L37.0487968,11.0158872 L34.7207592,18 L32,18 L32,16 L33.279,16 L34.951,10.983 L32.256,2 L4.819,2 L3.21833785,10 L6,10 L6,12 L3.38633785,12 L4.72,16 L9,16 L9,18 L3.27924078,18 L0.967337853,11.0642912 L3.1801961,0 L33.7440307,0 Z M12.9998812,16 C12.4477435,16 12,16.4477537 12,17 C12,17.5522463 12.4477435,18 12.9998812,18 C13.385128,18 13.7306454,17.7806537 13.8980187,17.4412954 C13.9648703,17.3055415 14,17.1563689 14,17 C14,16.4477353 13.5522381,16 12.9998812,16 Z M27.9998812,16 C27.4477435,16 27,16.4477537 27,17 C27,17.5522463 27.4477435,18 27.9998812,18 C28.3850983,18 28.7305058,17.7807025 28.897781,17.4412954 C28.964806,17.3051894 29,17.1559984 29,17 C29,16.4477353 28.5522381,16 27.9998812,16 Z M24,16 L24,18 L17,18 L17,16 L24,16 Z M24,4 L24,15 L22,15 L22,6 L19,6 L19,15 L17,15 L17,4 L24,4 Z M31.2440307,4 L33.3440307,11 L26,11 L26,4 L31.2440307,4 Z M29.756,6 L28,6 L28,9 L30.656,9 L29.756,6 Z M14,4 L14,9 L6,9 L6,4 L14,4 Z M12,6 L8,6 L8,7 L12,7 L12,6 Z" id="Combined-Shape"></path>
            </g>
        </g>
    </g>
</svg>