<?xml version="1.0" encoding="UTF-8"?>
<svg width="40px" height="40px" viewBox="0 0 40 40" version="1.1" xmlns="http://www.w3.org/2000/svg" xmlns:xlink="http://www.w3.org/1999/xlink">
    <!-- Generator: Sketch 50.2 (55047) - http://www.bohemiancoding.com/sketch -->
    <title>save-40</title>
    <desc>Created with Sketch.</desc>
    <defs></defs>
    <g id="save-40" stroke="none" stroke-width="1" fill="none" fill-rule="evenodd">
        <g id="save-40-crop" transform="translate(1.600000, 5.000000)" fill="#FF0000" fill-rule="nonzero">
            <path d="M5.41862478,8.69735336 C4.72626043,9.42991157 3.62927336,9.42991157 2.93762441,8.69760421 C2.21476154,7.93277687 2.21476154,6.6719873 2.93715031,5.90818988 L1.48409732,4.53391297 C0.0325249064,6.06869219 0.0325249064,8.53553897 1.48386022,10.0711287 C2.96443305,11.6387367 5.39055514,11.6387367 6.87215197,10.0711287 L5.41862478,8.69735336 Z" id="Stroke-1"></path>
            <path d="M25.4000001,22.7210024 L26.0980709,22.4999164 C28.7436077,21.6620485 30.5088777,19.8084777 31.361924,16.7327415 L31.5651476,16 L34.4000001,16 L34.4000001,13 L31.399236,13 L31.1510464,12.3630793 C30.1664869,9.83643717 28.4283876,8.11655913 26.0436635,7.20709532 L25.4000001,6.96162098 L25.4000001,2.46952422 C24.178884,2.65163828 23.1689217,3.17062803 22.3375854,3.93488487 C21.9693579,4.27340061 21.664018,4.63653055 21.4200654,4.99727586 C21.27927,5.2054773 21.1941767,5.35779218 21.162218,5.4257195 L20.8920284,6 L14.2567581,6 C9.51507051,6 5.4000001,10.1053593 5.4000001,14.8534545 C5.4000001,18.2689795 6.90846514,20.526209 9.90765002,22.293387 L10.4000001,22.5834893 L10.4000001,27 L13.4000001,27 L13.4000001,23 L22.4000001,23 L22.4000001,27 L25.4000001,27 L25.4000001,22.7210024 Z M27.4000001,24.1594946 L27.4000001,29 L20.4000001,29 L20.4000001,25 L15.4000001,25 L15.4000001,29 L8.4000001,29 L8.4000001,23.7147858 C5.14596325,21.6397782 3.4000001,18.8398286 3.4000001,14.8534545 C3.4000001,8.99973059 8.41155743,4 14.2567581,4 L19.6732443,4 C19.9710316,3.53460521 20.4024437,2.99716892 20.9840216,2.46251773 C22.3849285,1.17464815 24.1899609,0.397402597 26.4000001,0.397402597 L27.4000001,0.397402597 L27.4000001,5.60607971 C29.7877946,6.68496724 31.6139441,8.5045306 32.7463711,11 L36.4000001,11 L36.4000001,18 L33.0642817,18 C32.0345109,21.0473697 30.105592,23.0961324 27.4000001,24.1594946 Z" id="Stroke-3"></path>
            <polygon id="Stroke-5" points="21.4000001 8 14.4000001 8 14.4000001 10 21.4000001 10"></polygon>
        </g>
    </g>
</svg>