<?xml version="1.0" encoding="UTF-8"?>
<svg width="40px" height="40px" viewBox="0 0 40 40" version="1.1" xmlns="http://www.w3.org/2000/svg" xmlns:xlink="http://www.w3.org/1999/xlink">
    <!-- Generator: Sketch 61.2 (89653) - https://sketch.com -->
    <title>Icons/40px/shield-40</title>
    <desc>Created with Sketch.</desc>
    <g id="Icons/40px/shield-40" stroke="none" stroke-width="1" fill="none" fill-rule="evenodd">
        <g>
            <rect id="invisible-40" x="0" y="0" width="40" height="40"></rect>
            <g id="outlines" transform="translate(5.000000, 2.000000)" fill="#FF0000" fill-rule="nonzero">
                <path d="M24.5454545,0 C24.5454545,2.88 27.2727273,5.76 30,5.76 L30,18.72 C30,25.44 25,31.2 15,36 C5,31.2 0,25.44 0,18.72 L0,5.76 C2.72727273,5.76 5.45454545,2.88 5.45454545,0 L24.5454545,0 Z M22.844482,2 L7.15551798,2 C6.41631832,4.47869325 4.38878071,6.62367764 2,7.4248365 L2,18.72 C2,24.3451511 6.2101591,29.3711429 15,33.7726934 C23.7898391,29.371145 28,24.3451523 28,18.72 L28,7.4248365 C25.6112193,6.62367764 23.5836817,4.47869325 22.844482,2 Z M18.9803932,11.2928932 L20.3946068,12.7071068 L16.602,16.5 L20.3946068,20.2928932 L18.9803932,21.7071068 L15.187,17.914 L11.3946068,21.7071068 L9.98039322,20.2928932 L13.773,16.5 L9.98039322,12.7071068 L11.3946068,11.2928932 L15.187,15.085 L18.9803932,11.2928932 Z" id="Combined-Shape"></path>
            </g>
        </g>
    </g>
</svg>