<?xml version="1.0" encoding="UTF-8"?>
<svg width="40px" height="40px" viewBox="0 0 40 40" version="1.1" xmlns="http://www.w3.org/2000/svg" xmlns:xlink="http://www.w3.org/1999/xlink">
    <!-- Generator: Sketch 63.1 (92452) - https://sketch.com -->
    <title>Icons/40px/smalltruck-40</title>
    <desc>Created with Sketch.</desc>
    <g id="Icons/40px/smalltruck-40" stroke="none" stroke-width="1" fill="none" fill-rule="evenodd">
        <g>
            <rect id="invisible-40" x="0" y="0" width="40" height="40"></rect>
            <g id="lines" transform="translate(2.000000, 6.000000)" fill="#FF0000" fill-rule="nonzero">
                <path d="M9.07124626,19.0714282 C11.2803998,19.0714282 13.0714286,20.8623482 13.0714286,23.0714282 C13.0714286,23.6912191 12.9297577,24.2927275 12.6609516,24.8382712 C11.9925631,26.1938918 10.6102371,27.0714282 9.07124626,27.0714282 C6.86238216,27.0714282 5.07142857,25.2804331 5.07142857,23.0714282 C5.07142857,20.8624234 6.86238216,19.0714282 9.07124626,19.0714282 Z M27.9998177,19 C30.2089712,19 32,20.7909199 32,23 C32,23.6197909 31.8583291,24.2212993 31.589523,24.7668429 C30.9211345,26.1224636 29.5388085,27 27.9998177,27 C25.7909536,27 24,25.2090049 24,23 C24,20.7909951 25.7909536,19 27.9998177,19 Z M9.07124626,21.0714282 C7.96696204,21.0714282 7.07142857,21.9669825 7.07142857,23.0714282 C7.07142857,24.175874 7.96696204,25.0714282 9.07124626,25.0714282 C9.84137641,25.0714282 10.5323975,24.6327501 10.8670245,23.9540621 C11.0009445,23.6822707 11.0714286,23.3830082 11.0714286,23.0714282 C11.0714286,21.9669449 10.1758575,21.0714282 9.07124626,21.0714282 Z M27.9998177,21 C26.8955335,21 26,21.8955542 26,23 C26,24.1044458 26.8955335,25 27.9998177,25 C28.7699478,25 29.4609689,24.5613219 29.795596,23.8826338 C29.9295159,23.6108425 30,23.31158 30,23 C30,21.8955166 29.1044289,21 27.9998177,21 Z M31.677033,7 L36,17.8074176 L36,24 L33,24 L33,22 L34,22 L34,18.194 L30.323,9 L28,9 L28,7 L31.677033,7 Z M27,0 L27,18 L2.387,18 L3.72,22 L4,22 L4,24 L2.27924078,24 L0.279,18 L0,18 L0,0 L27,0 Z M23,22 L23,24 L14,24 L14,22 L23,22 Z M25,2 L2,2 L2,16 L25,16 L25,2 Z M20,13 L20,15 L18,15 L18,13 L20,13 Z M13,13 L13,15 L11,15 L11,13 L13,13 Z M7,13 L7,15 L5,15 L5,13 L7,13 Z" id="Combined-Shape"></path>
            </g>
        </g>
    </g>
</svg>