<?xml version="1.0" encoding="UTF-8"?>
<svg width="40px" height="40px" viewBox="0 0 40 40" version="1.1" xmlns="http://www.w3.org/2000/svg" xmlns:xlink="http://www.w3.org/1999/xlink">
    <!-- Generator: Sketch 54.1 (76490) - https://sketchapp.com -->
    <title>Icons/40px/snailmail-40</title>
    <desc>Created with Sketch.</desc>
    <g id="Icons/40px/snailmail-40" stroke="none" stroke-width="1" fill="none" fill-rule="evenodd">
        <g>
            <rect id="invisible-40" x="0" y="0" width="40" height="40"></rect>
            <g id="lines" transform="translate(1.085449, 3.000000)" fill="#FF0000" fill-rule="nonzero">
                <polygon id="Path" points="0.914550781 31 36.9145508 31 36.9145508 29 0.914550781 29"></polygon>
                <polygon id="Path-4" points="26.9145508 1 26.9145508 -1 21.9145508 -1 21.9145508 12.9799805 23.9145508 12.9799805 23.9145508 1"></polygon>
                <polygon id="Path-12" points="23.9145508 5 8.69712612 5 8.69712612 7 23.9145508 7"></polygon>
                <polygon id="Path-14" points="17.9145508 30 17.9145508 35 19.9145508 35 19.9145508 30"></polygon>
                <path d="M15.1773856,29.0913783 L15.1773856,11.1314174 C15.1773856,7.74512908 12.4322565,5 9.04596819,5 C5.65967986,5 2.91455078,7.74512908 2.91455078,11.1314174 L2.91455078,27 L4.91455078,27 L4.91455078,11.1314174 C4.91455078,8.84969858 6.76424936,7 9.04596819,7 C11.327687,7 13.1773856,8.84969858 13.1773856,11.1314174 L13.1773856,29.0913783 L15.1773856,29.0913783 Z" id="Oval"></path>
                <path d="M36.8945313,29.0913783 L36.8945313,11.1314174 C36.8945313,7.74512908 34.1494022,5 30.7631138,5 L25.9145508,5 L25.9145508,7 L30.7631138,7 C33.0448327,7 34.8945313,8.84969858 34.8945313,11.1314174 L34.8945313,29.0913783 L36.8945313,29.0913783 Z" id="Oval"></path>
                <polygon id="Path-5" points="8.91455078 15 13.9145508 15 13.9145508 13 6.91455078 13 6.91455078 27 13.7822266 27 13.7822266 25 8.91455078 25"></polygon>
            </g>
        </g>
    </g>
</svg>