<?xml version="1.0" encoding="UTF-8"?>
<svg width="40px" height="40px" viewBox="0 0 40 40" version="1.1" xmlns="http://www.w3.org/2000/svg" xmlns:xlink="http://www.w3.org/1999/xlink">
    <!-- Generator: Sketch 63.1 (92452) - https://sketch.com -->
    <title>Icons/40px/snowmobile-40</title>
    <desc>Created with Sketch.</desc>
    <g id="Icons/40px/snowmobile-40" stroke="none" stroke-width="1" fill="none" fill-rule="evenodd">
        <g>
            <rect id="invisible-40" x="0" y="0" width="40" height="40"></rect>
            <g id="lines" transform="translate(2.000000, 10.000000)" fill="#FF0000" fill-rule="nonzero">
                <path d="M17.7870275,13 C19.5905909,13 21,14.5921721 21,16.4998331 C21,18.4077588 19.5906597,20 17.7870275,20 L17.7870275,20 L3.21297247,20 C1.40955686,20 0,18.407661 0,16.4998331 C0,14.5922698 1.40962566,13 3.21297247,13 L3.21297247,13 Z M20.7071068,0.292893219 L32.4248363,12.0106227 L29.5212006,14.8287394 L29.38,14.9648932 L32.028,17.6128932 L32.0398669,17.606406 C32.2450411,17.4633151 32.4788273,17.2563914 32.8040172,16.9287822 L33.5341502,16.1600594 L35.2789676,14.3070986 L36.7210324,15.6929014 L34.5540864,17.9972319 C33.9028432,18.6802539 33.4828288,19.061781 33.0262527,19.3519486 C32.2780012,19.8274846 31.5726519,19.9798782 30.2850537,19.9980838 L30,20 L23,20 L23,18 L29.585,17.9998932 L27.774422,16.1898839 C27.4199316,16.3931705 27.0632877,16.5567136 26.7062983,16.6832927 C26.1378713,16.884842 25.6911387,16.9648348 25.2265917,16.991366 L25.0260028,16.9996619 C24.9799901,17.0008587 24.8422308,17.0016126 24.6196097,17.0020048 L21.9981328,16.9999983 L22.0018672,15.0000017 L24.9732438,15.000358 C25.3204966,14.9910635 25.6156311,14.9480132 26.0379219,14.7982799 C26.641407,14.5842999 27.2638764,14.2074239 27.9027497,13.6120046 L29.574,11.989 L24,6.41489322 L20.4142136,10 L6,10 C5.37702528,10 4.68100304,10.4217444 4.50564488,11.0361379 L4.21274624,12.0863081 L2.28586301,11.5504714 L2.58241476,10.4873338 C3.01002084,8.98915197 4.42834507,8.07811104 5.81886872,8.00479198 L6,8 L19.584,8 L19.584,7.99889322 L18.585,7 L16,7 L16,5 L19.4142136,5 L20.999,6.58389322 L22.584,4.99889322 L19.2928932,1.70710678 L20.7071068,0.292893219 Z M17.7870275,15 L3.21297247,15 C2.57212502,15 2,15.6462548 2,16.4998331 C2,17.3537111 2.57210242,18 3.21297247,18 L3.21297247,18 L17.7870275,18 C18.4280679,18 19,17.3538439 19,16.4998331 C19,15.646122 18.4280453,15 17.7870275,15 L17.7870275,15 Z" id="Combined-Shape"></path>
            </g>
        </g>
    </g>
</svg>