<?xml version="1.0" encoding="UTF-8"?>
<svg width="40px" height="40px" viewBox="0 0 40 40" version="1.1" xmlns="http://www.w3.org/2000/svg" xmlns:xlink="http://www.w3.org/1999/xlink">
    <!-- Generator: Sketch 63.1 (92452) - https://sketch.com -->
    <title>Icons/40px/star-40</title>
    <desc>Created with Sketch.</desc>
    <g id="Icons/40px/star-40" stroke="none" stroke-width="1" fill="none" fill-rule="evenodd">
        <g>
            <polygon id="invisible-40" points="0 0.832837597 40 0.832837597 40 39.8572278 0 39.8572278"></polygon>
            <g id="outlines" transform="translate(1.375463, 1.471501)" fill="#FF0000" fill-rule="nonzero">
                <path d="M28.7287078,32.9342531 L23.3267239,21.2361141 L24.0187201,20.7578858 L32.5015442,14.8974253 L21.8432344,14.8974253 L21.6140354,14.2163922 L18.4666542,4.86436224 L15.2552081,14.8974253 L4.61567061,14.8974253 L13.8060477,21.1820338 L13.4336755,21.9561168 L8.17732379,32.8820111 L18.4109262,26.530985 L28.7287078,32.9342531 Z M25.8477529,21.9249988 L31.7771255,34.7663256 C31.9453973,35.1025216 31.9321771,35.5015517 31.7416134,35.8259365 C31.4284645,36.3589908 30.7371143,36.5345291 30.2074378,36.2058091 L18.4109262,28.8848335 L6.62484501,36.199336 C6.28605738,36.4095893 5.86045004,36.4208301 5.51097406,36.2283915 C4.98078292,35.9364422 4.78632434,35.2752832 5.0490635,34.7723354 L11.2590526,21.8630825 L1.05066965,14.8800739 C0.780544321,14.669127 0.624537307,14.3459183 0.624537307,14.0057061 C0.624537307,13.3996678 1.1131846,12.8974253 1.72988704,12.8974253 L13.7954234,12.8974253 L17.3926598,1.65909317 C17.4968055,1.33305049 17.7463131,1.07139494 18.0713494,0.954225289 C18.6567937,0.743183338 19.2929531,1.05748502 19.4925151,1.64234349 L23.2803681,12.8974253 L35.3596061,12.8974253 C35.709582,12.8974253 36.0368657,13.0633431 36.2445991,13.3416781 C36.6032583,13.8222336 36.5158405,14.5039851 35.9922573,14.9142827 L25.8477529,21.9249988 Z" id="Path-3"></path>
            </g>
        </g>
    </g>
</svg>