<?xml version="1.0" encoding="UTF-8"?>
<svg width="40px" height="40px" viewBox="0 0 40 40" version="1.1" xmlns="http://www.w3.org/2000/svg" xmlns:xlink="http://www.w3.org/1999/xlink">
    <!-- Generator: Sketch 50.2 (55047) - http://www.bohemiancoding.com/sketch -->
    <title>sustainability-40</title>
    <desc>Created with Sketch.</desc>
    <defs></defs>
    <g id="sustainability-40" stroke="none" stroke-width="1" fill="none" fill-rule="evenodd">
        <g id="sustainability-40-crop" transform="translate(4.000000, 2.000000)" fill="#FF0000">
            <path d="M31.5755,2.7197 L31.0765,2.7527 L31.5755,2.7127 L31.5605,2.5297 C31.5255,2.0977 31.4965,1.7397 31.4785,1.4717 L31.3755,-0.0003 L29.1125,0.9977 C25.9355,2.3797 18.4965,5.6157 15.9665,7.9317 C13.1055,10.5477 12.1125,14.6037 13.4355,18.2647 L13.6055,18.7357 L15.5525,18.0307 L15.3825,17.5607 C14.3445,14.6897 15.1215,11.5097 17.3635,9.4597 C19.5435,7.4647 26.2535,4.5007 29.5275,3.0747 C29.8045,6.5287 30.3985,14.1377 29.6575,16.9957 C29.1545,18.9347 27.9235,20.5607 26.1895,21.5747 C24.4415,22.5987 22.4025,22.8757 20.4465,22.3617 C20.0455,22.2557 19.5785,22.0777 19.1155,21.8577 L20.7715,19.2007 L26.8975,17.7047 L26.4075,15.6937 L22.3385,16.6877 L25.4955,11.6207 L23.7395,10.5267 L20.4775,15.7577 L19.4745,11.6427 L17.4635,12.1337 L18.9455,18.2157 L13.0205,27.7227 L9.9935,23.5617 C10.1105,23.4417 10.2175,23.3237 10.3085,23.2087 C11.2925,21.9797 11.7545,20.3767 11.5775,18.8097 C11.4135,17.3597 10.7195,16.0797 9.6215,15.2087 C8.2625,14.1297 4.8355,13.0107 2.4905,12.2457 C2.0425,12.0997 1.6815,11.9827 1.4595,11.9027 L0.0715,11.3997 L0.0725,12.8757 C0.0725,13.1087 0.0625,13.4777 0.0495,13.9357 C-0.0335,16.9587 -0.0715,20.0397 0.4445,21.5777 C1.1315,23.6247 3.1295,25.0577 5.5355,25.2277 L6.0345,25.2627 L6.1795,23.1967 L5.6805,23.1607 C4.3955,23.0717 2.8855,22.3427 2.4075,20.9187 C1.9895,19.6717 2.0625,16.1087 2.1105,14.2997 C3.9135,14.8877 7.3025,16.0117 8.3345,16.8307 C8.9975,17.3577 9.4185,18.1427 9.5205,19.0417 C9.6325,20.0347 9.3455,21.0467 8.7405,21.8397 L6.4845,18.7377 L4.8105,19.9547 L11.8385,29.6177 L8.2785,35.3297 L10.0355,36.4237 L18.0145,23.6227 C18.6635,23.9487 19.3265,24.2077 19.9195,24.3637 C22.3745,25.0137 25.0325,24.6537 27.2355,23.3627 C29.4485,22.0677 31.0195,19.9907 31.6615,17.5167 C32.5045,14.2687 31.8765,6.4677 31.5755,2.7197" id="Fill-1"></path>
        </g>
    </g>
</svg>