<?xml version="1.0" encoding="UTF-8"?>
<svg width="40px" height="40px" viewBox="0 0 40 40" version="1.1" xmlns="http://www.w3.org/2000/svg" xmlns:xlink="http://www.w3.org/1999/xlink">
    <!-- Generator: Sketch 50.2 (55047) - http://www.bohemiancoding.com/sketch -->
    <title>tag-40</title>
    <desc>Created with Sketch.</desc>
    <defs></defs>
    <g id="tag-40" stroke="none" stroke-width="1" fill="none" fill-rule="evenodd">
        <g id="tag-40-crop" transform="translate(22.277669, 17.941883) rotate(-315.000000) translate(-22.277669, -17.941883) translate(10.777669, 0.441883)" fill="#FF0000" fill-rule="nonzero">
            <path d="M2.52690309,8.19233537 L2.52690309,32.3110868 L20.1875082,32.3110879 L20.1875082,8.19190102 L14.9656305,2.96396389 L7.75757224,2.96336204 L2.52690309,8.19233537 Z M15.7948062,0.964033117 L22.1875082,7.36415317 L22.1875082,34.311088 L0.526903087,34.3110867 L0.526903087,7.36371829 L6.92940423,0.963292887 L15.7948062,0.964033117 Z" id="Polygon"></path>
            <path d="M12.7589665,13.4947961 C13.5317469,12.7220157 13.5317469,11.4391494 12.7589665,10.666369 C11.9861861,9.89358858 10.7033198,9.89358858 9.93053936,10.666369 C9.15775895,11.4391494 9.15775895,12.7220157 9.93053936,13.4947961 C10.23559,13.7998467 10.3487824,13.8878853 10.497676,13.9375165 L10.6286618,13.9917726 C10.7455978,14.0502406 10.931215,14.0914888 11.1477307,14.0944344 C11.7754049,14.142717 12.301242,13.9525206 12.7589665,13.4947961 Z M8.5163258,14.9090097 C6.9624968,13.3551807 6.9624968,10.8059844 8.5163258,9.25215543 C10.0701548,7.69832643 12.6193511,7.69832643 14.17318,9.25215543 C15.727009,10.8059844 15.727009,13.3551807 14.17318,14.9090097 C13.2988066,15.7833831 12.198945,16.1812054 11.0710342,16.0914888 C10.6533649,16.0914888 10.1910118,15.9938198 9.80114937,15.812867 C9.30530675,15.6371626 9.01147578,15.4041597 8.5163258,14.9090097 Z" id="Shape"></path>
        </g>
    </g>
</svg>