<?xml version="1.0" encoding="UTF-8"?>
<svg width="40px" height="40px" viewBox="0 0 40 40" version="1.1" xmlns="http://www.w3.org/2000/svg" xmlns:xlink="http://www.w3.org/1999/xlink">
    <!-- Generator: Sketch 57.1 (83088) - https://sketch.com -->
    <title>Icons/40px/triangle-40</title>
    <desc>Created with Sketch.</desc>
    <g id="Icons/40px/triangle-40" stroke="none" stroke-width="1" fill="none" fill-rule="evenodd">
        <g id="Icons/40px/thumbup-40">
            <g>
                <rect id="invisible-40" x="0" y="0" width="40" height="40"></rect>
                <g id="outlines" transform="translate(2.000000, 2.000000)" fill="#FF0000" fill-rule="nonzero">
                    <path d="M20.2312495,0.360451238 C20.5676923,-0.0439598102 21.1599361,-0.118553748 21.5861526,0.189799311 C22.4465435,0.812262787 23.0395543,2.04940076 23.4840002,3.92134004 C23.5228367,4.0849134 23.5198064,4.25563813 23.4751895,4.41773023 L23.4751895,4.41773023 L21.1128631,13 L35.0220947,13 C35.5743795,13 36.0220947,13.4477153 36.0220947,14 L36.0220947,14 L36.0220947,20 C36.0220947,20.1276463 35.9976564,20.2541124 35.9500993,20.3725688 L35.9500993,20.3725688 L29.9280046,35.3725688 C29.7758319,35.7516046 29.4084418,36 29,36 L29,36 L13,36 C12.802575,36 12.6095673,35.941562 12.4452998,35.8320503 L12.4452998,35.8320503 L9.4452998,33.8320503 C9.16710114,33.6465845 9,33.3343532 9,33 L9,33 L9,14.2222222 C9,13.9885699 9.08181742,13.7622938 9.23124947,13.5826735 L9.23124947,13.5826735 Z M20.9635214,2.6074504 L11,14.5838045 L11,32.4648162 L13.3027756,34 L28.3238921,34 L34.0220947,19.8067594 L34.0220947,15 L19.800415,15 C19.1400653,15 18.661025,14.3712845 18.8362729,13.7346135 L18.8362729,13.7346135 L21.4777774,4.13809687 C21.316255,3.50412584 21.1409613,2.99325393 20.9635214,2.6074504 L20.9635214,2.6074504 Z M7.02209473,15 L7.02209473,34 L0.0220947266,34 L0.0220947266,15 L7.02209473,15 Z M5.02209473,17 L2.02209473,17 L2.02209473,32 L5.02209473,32 L5.02209473,17 Z" id="Combined-Shape"></path>
                </g>
            </g>
        </g>
    </g>
</svg>