<?xml version="1.0" encoding="UTF-8"?>
<svg width="40px" height="40px" viewBox="0 0 40 40" version="1.1" xmlns="http://www.w3.org/2000/svg" xmlns:xlink="http://www.w3.org/1999/xlink">
    <!-- Generator: Sketch 63.1 (92452) - https://sketch.com -->
    <title>Icons/40px/tractor-40</title>
    <desc>Created with Sketch.</desc>
    <g id="Icons/40px/tractor-40" stroke="none" stroke-width="1" fill="none" fill-rule="evenodd">
        <g>
            <rect id="invisible-40" x="0" y="0" width="40" height="40"></rect>
            <g id="outlines" transform="translate(2.000000, 5.000000)" fill="#FF0000" fill-rule="nonzero">
                <path d="M10.1628453,17.4785185 C13.7195591,17.4785185 16.6028453,20.3618047 16.6028453,23.9185185 C16.6028453,27.4752323 13.7195591,30.3585185 10.1628453,30.3585185 C6.60613149,30.3585185 3.72284528,27.4752323 3.72284528,23.9185185 C3.72284528,20.3618047 6.60613149,17.4785185 10.1628453,17.4785185 Z M19.4641112,0.148148148 L23.641,13.398 L26.7486209,13.3971481 L26.7487575,6.25475117 C26.7487575,6.11693247 26.7265296,5.95597622 26.6868866,5.80356821 C26.5038438,5.0998573 25.8931387,4.58616614 25.1684658,4.52470362 L25.0221045,4.51851852 L25.0221045,2.51851852 C26.7259712,2.51851852 28.1993479,3.67336446 28.6224794,5.3000995 C28.6831238,5.53324779 28.723833,5.77653388 28.7403973,6.01645365 L28.7487575,6.25475117 L28.7486209,13.3981481 L32.9135869,13.3985185 L32.9822612,20.8105538 C34.5669276,21.6704686 35.6428453,23.3488465 35.6428453,25.2785185 C35.6428453,28.084125 33.3684518,30.3585185 30.5628453,30.3585185 C27.7572387,30.3585185 25.4828453,28.084125 25.4828453,25.2785185 C25.4828453,25.1573766 25.4870856,25.037225 25.495426,24.9182042 L18.6828453,24.9185185 L18.6828453,23.9185185 C18.6828453,19.2130525 14.8683113,15.3985185 10.1628453,15.3985185 C6.41379994,15.3985185 3.1451337,17.8414986 2.03777756,21.3460023 L1.96237908,21.5981107 L0.0376209212,21.05469 C0.663072783,18.8393831 1.98018372,16.9480564 3.72261185,15.5994411 L3.72284528,0.148148148 L19.4641112,0.148148148 Z M10.1628453,19.4785185 C7.71070099,19.4785185 5.72284528,21.4663742 5.72284528,23.9185185 C5.72284528,26.3706628 7.71070099,28.3585185 10.1628453,28.3585185 C12.6149896,28.3585185 14.6028453,26.3706628 14.6028453,23.9185185 C14.6028453,21.4663742 12.6149896,19.4785185 10.1628453,19.4785185 Z M30.5628453,22.1985185 C28.8618082,22.1985185 27.4828453,23.5774815 27.4828453,25.2785185 C27.4828453,26.9795555 28.8618082,28.3585185 30.5628453,28.3585185 C32.2638823,28.3585185 33.6428453,26.9795555 33.6428453,25.2785185 C33.6428453,23.5774815 32.2638823,22.1985185 30.5628453,22.1985185 Z M10.4226209,2.14714815 L5.722,2.148 L5.7233293,14.3799318 C7.07978274,13.7480511 8.58689082,13.3985185 10.1628453,13.3985185 C15.5918949,13.3985185 20.0604148,17.5110352 20.6231057,22.7907692 L20.635,22.918 L26.0633571,22.9181207 C26.9133257,21.3012094 28.6093118,20.1985185 30.5628453,20.1985185 C30.7023319,20.1985185 30.8405055,20.2041403 30.9771518,20.2151698 L30.931,15.398 L22.17473,15.3985185 L17.998,2.148 L12.4226209,2.14714815 L12.4233753,11.0740741 L10.4233753,11.0740741 L10.4226209,2.14714815 Z" id="Combined-Shape"></path>
            </g>
        </g>
    </g>
</svg>