<?xml version="1.0" encoding="UTF-8"?>
<svg width="40px" height="40px" viewBox="0 0 40 40" version="1.1" xmlns="http://www.w3.org/2000/svg" xmlns:xlink="http://www.w3.org/1999/xlink">
    <!-- Generator: Sketch 63.1 (92452) - https://sketch.com -->
    <title>Icons/40px/trailer-40</title>
    <desc>Created with Sketch.</desc>
    <g id="Icons/40px/trailer-40" stroke="none" stroke-width="1" fill="none" fill-rule="evenodd">
        <g>
            <rect id="invisible-40" x="0" y="0" width="40" height="40"></rect>
            <g id="lines" transform="translate(2.000000, 15.000000)" fill="#FF0000" fill-rule="nonzero">
                <path d="M8.99987595,4 C11.2090581,4 13,5.79081134 13,8 C13,10.2091887 11.2090581,12 8.99987595,12 C7.46098586,12 6.07876749,11.1224937 5.41031305,9.76654614 C5.1417222,9.22121303 5,8.61973092 5,8 C5,5.7907896 6.79071555,4 8.99987595,4 Z M8.99987595,6 C7.89530356,6 7,6.89534058 7,8 C7,8.31151043 7.07053562,8.61087011 7.20433776,8.88253527 C7.53900042,9.56139228 8.22988055,10 8.99987595,10 C10.1045212,10 11,9.10458652 11,8 C11,6.89541348 10.1045212,6 8.99987595,6 Z M36,9.09494702e-13 L36,3 L34,3 L34,2 L27,2 L27,9 L14,9 L14,7 L25,6.999 L25,2 L23,2 L23,1.999 L3,1.999 L3,6.999 L4,7 L4,9 L1,9 L1,3 L0,3 L0,9.09494702e-13 L36,9.09494702e-13 Z" id="Combined-Shape"></path>
            </g>
        </g>
    </g>
</svg>