<?xml version="1.0" encoding="UTF-8"?>
<svg width="40px" height="40px" viewBox="0 0 40 40" version="1.1" xmlns="http://www.w3.org/2000/svg" xmlns:xlink="http://www.w3.org/1999/xlink">
    <!-- Generator: Sketch 50.2 (55047) - http://www.bohemiancoding.com/sketch -->
    <title>travel-40</title>
    <desc>Created with Sketch.</desc>
    <defs></defs>
    <g id="travel-40" stroke="none" stroke-width="1" fill="none" fill-rule="evenodd">
        <g id="travel-40-crop" transform="translate(3.000000, 2.000000)" fill="#FF0000" fill-rule="nonzero">
            <polygon id="Stroke-1" points="16.1023706 24.9964074 21.354759 26.1319445 21.7773839 24.1771073 16.0287654 22.9342881 10.0346494 24.6857014 13.458915 27.8988969 14.827465 26.4404488 13.9566926 25.6233504"></polygon>
            <path d="M14.1421438,33.3279992 L5.02668039,32.2915429 L0.223458261,27.7794613 L6.48669956,26.0161506 L9.64662765,27.7171712 L11.9952523,27.0308681 L28.7441257,22.1369492 L34.393333,23.3513093 L34.5604811,23.9232305 C35.078908,25.6971016 34.0610034,27.5553429 32.2873563,28.0733174 L24.9847313,30.2083015 L19.9442521,35.5786281 L13.9319428,37.3357579 L15.0100964,33.0880172 L14.1421438,33.3279992 Z M15.7601748,30.1328363 L17.6987058,30.6248705 L16.7319351,34.4337817 L18.8594199,33.8120128 L23.8998294,28.4417606 L24.1616685,28.3652098 L31.7264148,26.1535923 C32.2571106,25.9986083 32.6195865,25.5453791 32.6846617,25.0296979 L28.8189398,24.1987178 L12.5562036,28.9505904 L9.42059358,29.8668623 L6.25053518,28.1603884 L4.17277257,28.7453477 L5.91220016,30.3793423 L13.9828562,31.2970008 L15.5765307,30.8563625 L15.7601748,30.1328363 Z" id="Stroke-2"></path>
            <path d="M20.989025,19.0000637 C20.6939866,19.0035573 20.4237205,19.1333953 20.2366247,19.3543563 C20.0818221,19.5369173 19.9973702,19.7667537 20.000052,20.0111442 C20.0066522,20.5639807 20.4595862,21.0065188 21.0119053,20.9999199 C21.5637256,20.9936016 22.0062538,20.5406433 21.9999317,19.9883523 C21.9936127,19.4363297 21.5407179,18.9937469 20.989025,19.0000637 Z M21.0353015,22.999783 C19.3786834,23.019576 18.0199774,21.6920556 18.0001835,20.0340569 C17.9921611,19.3031172 18.2478128,18.6073598 18.710747,18.0614152 C19.2684201,17.4027995 20.0847433,17.0106313 20.9657354,17.0001993 C22.6222588,16.9812322 23.9808379,18.3088777 23.9998007,19.9654599 C24.0187639,21.6220675 22.691297,22.980822 21.0353015,22.999783 Z" id="Stroke-8"></path>
            <path d="M16.9202148,4.73320162 C16.4482494,2.03664763 13.9659931,0 11.001,0 C8.03526786,0 5.55278622,2.03651073 5.080789,4.73317091 C2.21355598,5.14987163 0,7.48532353 0,10.333 C0,13.4786005 2.70088644,16 6,16 L7.9645,16 L7.9645,14 L6,14 C3.77589113,14 2,12.3421254 2,10.333 C2,8.32413638 3.77562592,6.667 6,6.667 L7,6.667 L7,5.667 C7,3.65749978 8.7762431,2 11.001,2 C13.2248831,2 15.001,3.65761096 15.001,5.667 L15.001,6.667 L16.001,6.667 C18.2247479,6.667 20.001,8.32449181 20.001,10.333 C20.001,11.3044167 19.587174,12.2170817 18.8535379,12.902079 L20.2184621,14.363921 C21.3491157,13.3082278 22.001,11.8705413 22.001,10.333 C22.001,7.48563925 19.7869681,5.15000966 16.9202148,4.73320162 Z" id="Stroke-1"></path>
            <path d="M16,15 C16,13.8951817 15.1046122,13 13.999,13 C13.4111425,13 12.866849,13.2540154 12.4871732,13.6916755 C12.1744976,14.0507746 12,14.5100425 12,15 C12,16.1046121 12.8951817,17 13.999,17 C15.1046122,17 16,16.1048183 16,15 Z M18,15 C18,17.2094909 16.2090786,19 13.999,19 C11.7905091,19 10,17.2090786 10,15 C10,14.0237422 10.3513802,13.0989291 10.9776255,12.3797067 C11.7319709,11.5101521 12.8251033,11 13.999,11 C16.2090786,11 18,12.7905091 18,15 Z" id="Stroke-3"></path>
        </g>
    </g>
</svg>