<?xml version="1.0" encoding="UTF-8"?>
<svg width="40px" height="40px" viewBox="0 0 40 40" version="1.1" xmlns="http://www.w3.org/2000/svg" xmlns:xlink="http://www.w3.org/1999/xlink">
    <!-- Generator: Sketch 50.2 (55047) - http://www.bohemiancoding.com/sketch -->
    <title>twitter-40</title>
    <desc>Created with Sketch.</desc>
    <defs></defs>
    <g id="twitter-40" stroke="none" stroke-width="1" fill="none" fill-rule="evenodd">
        <g id="twitter-40-crop" transform="translate(3.000000, 3.000000)" fill="#FF0000">
            <path d="M2,2 L2,32 L32,32 L32,2 L2,2 Z M0,0 L34,0 L34,34 L0,34 L0,0 Z" id="Rectangle-3" fill-rule="nonzero"></path>
            <path d="M13.7643993,23.7972 C20.1709236,23.7972 23.6742319,18.4899218 23.6742319,13.8873674 C23.6742319,13.7907372 23.673001,13.6947224 23.6705391,13.5987076 C23.6674617,13.4983845 23.7130071,13.4023697 23.792404,13.3420527 C24.312484,12.948146 24.7777864,12.4816126 25.1704622,11.9596862 C25.2393959,11.8679797 25.145843,11.742422 25.0381341,11.7830436 C24.5531364,11.965841 24.0422886,12.0957071 23.5123609,12.1677182 C23.4871262,12.1714111 23.4742012,12.1369442 23.4957429,12.1234037 C24.0589065,11.7608863 24.5118993,11.2414218 24.7907114,10.6259425 C24.8454891,10.5040776 24.714392,10.3809817 24.59622,10.4431451 C24.0625994,10.7207263 23.4895881,10.9318357 22.8870339,11.0660102 C22.7867107,11.0881674 22.6820793,11.056778 22.6082217,10.9853824 C21.9810483,10.3760579 21.1230701,10 20.1795403,10 C18.255552,10 16.6959274,11.5602401 16.6959274,13.4829975 C16.6959274,13.6799509 16.7119298,13.8732114 16.7427038,14.0609326 C16.7611682,14.1723343 16.6731546,14.2714265 16.5605219,14.2634253 C13.8696463,14.0670874 11.4778937,12.797969 9.81056017,10.87952 C9.70962156,10.7638098 9.52128489,10.7871981 9.45665956,10.9269119 C9.25047398,11.3719034 9.13537935,11.8667488 9.13537935,12.3886753 C9.13537935,13.556855 9.70962156,14.5920912 10.5928344,15.223573 C10.6186845,15.2426529 10.605144,15.2845055 10.5725236,15.282659 C10.1244546,15.254347 9.69977389,15.1404833 9.31386835,14.9583014 C9.2172381,14.9121405 9.10768278,14.9890754 9.11383757,15.0961688 C9.12060785,15.2149563 9.13230195,15.3337438 9.14891989,15.4377598 C9.36741505,16.8361288 10.4180383,17.9599941 11.7782476,18.2843517 C11.8090215,18.2917374 11.8084061,18.3354365 11.7776321,18.3422068 C11.5222082,18.4019082 11.2563211,18.4339132 10.9830483,18.4339132 C10.8254856,18.4339132 10.6710003,18.4228345 10.5189769,18.4019082 C10.4315788,18.3902141 10.3626451,18.4751503 10.3940346,18.5576245 C10.8544131,19.7541163 11.957352,20.6324053 13.2800171,20.7715036 C13.3828022,20.7819668 13.4197309,20.9142948 13.3354103,20.9746118 C12.1856949,21.7968922 10.7774782,22.2812744 9.2560133,22.2812744 L9.1846177,22.2806589 C8.99320363,22.2806589 8.9285783,22.5366983 9.09721963,22.6271738 C10.4882029,23.3725193 12.0755241,23.7972 13.7643993,23.7972" id="Fill-2"></path>
        </g>
    </g>
</svg>