<?xml version="1.0" encoding="UTF-8"?>
<svg width="40px" height="40px" viewBox="0 0 40 40" version="1.1" xmlns="http://www.w3.org/2000/svg" xmlns:xlink="http://www.w3.org/1999/xlink">
    <!-- Generator: Sketch 50.2 (55047) - http://www.bohemiancoding.com/sketch -->
    <title>umbrella-40</title>
    <desc>Created with Sketch.</desc>
    <defs></defs>
    <g id="umbrella-40" stroke="none" stroke-width="1" fill="none" fill-rule="evenodd">
        <g id="umbrella-40-crop" transform="translate(4.000000, 2.000000)" fill="#FF0000" fill-rule="nonzero">
            <path d="M23.5,14.4778589 C25.7992927,14.4778589 27.9402291,15.2821554 29.6252441,16.6721871 C28.1484357,10.548316 22.4885937,5.90348244 15.9013158,5.90348244 C9.29245779,5.90348244 3.75581693,10.5087886 2.34681774,16.7150893 C4.05164496,15.3070053 6.22789189,14.4778589 8.5,14.4778589 C11.4849151,14.4778589 14.2029534,15.8333342 16.0030938,18.0661106 C17.8091123,15.8518586 20.5751291,14.4778589 23.5,14.4778589 Z M23.5,16.4778589 C20.7767825,16.4778589 18.2079379,17.9968791 16.8664958,20.325385 L15.1335042,20.325385 C13.7723855,17.9627241 11.2852162,16.4778589 8.5,16.4778589 C5.77678251,16.4778589 3.20793791,17.9968791 1.86649576,20.325385 L0,19.8262006 C0,11.0059019 7.12476624,3.90348244 15.9013158,3.90348244 C24.6780951,3.90348244 32,11.1043804 32,19.8262006 L30.1335042,20.325385 C28.7723855,17.9627241 26.2852162,16.4778589 23.5,16.4778589 Z" id="Shape"></path>
            <path d="M15.0036367,31.4292929 C15.0036367,32.6566322 14.0255028,33.6452657 12.8218185,33.6452657 C11.6181342,33.6452657 10.6400003,32.6566322 10.6400003,31.4292929 L8.64000034,31.4292929 C8.64000034,33.7564498 10.5087564,35.6452657 12.8218185,35.6452657 C15.1348806,35.6452657 17.0036367,33.7564498 17.0036367,31.4292929 L15.0036367,31.4292929 Z" id="Shape"></path>
            <polygon id="Shape" points="15 19.335527 15 31.6767677 17 31.6767677 17 19.335527"></polygon>
            <polygon id="Shape" points="17 4.94949495 17 1.36380703e-14 15 0 15 4.94949495"></polygon>
        </g>
    </g>
</svg>