<?xml version="1.0" encoding="UTF-8"?>
<svg width="40px" height="40px" viewBox="0 0 40 40" version="1.1" xmlns="http://www.w3.org/2000/svg" xmlns:xlink="http://www.w3.org/1999/xlink">
    <!-- Generator: Sketch 50.2 (55047) - http://www.bohemiancoding.com/sketch -->
    <title>user-40</title>
    <desc>Created with Sketch.</desc>
    <defs></defs>
    <g id="user-40" stroke="none" stroke-width="1" fill="none" fill-rule="evenodd">
        <g id="user-40-crop" transform="translate(3.000000, 0.500000)" fill="#FF0000" fill-rule="nonzero">
            <path d="M28,22.5 C28,29.6942065 22.174982,35.5 15,35.5 C7.84893547,35.5 2,29.6510645 2,22.5 C2,15.3057935 7.82501799,9.5 15,9.5 C18.8302189,9.5 22.4046626,11.1713834 24.8950286,14.0448827 L26.4064068,12.7350216 C23.5403893,9.42807831 19.4169743,7.5 15,7.5 C6.72192583,7.5 0,14.1997413 0,22.5 C0,30.755634 6.74436597,37.5 15,37.5 C23.2780742,37.5 30,30.8002587 30,22.5 C30,20.8264328 29.7283017,19.1781298 29.2118412,17.6287483 L29.0393004,17.1572042 L28.7987724,16.5016657 L18.2822967,16.5016657 C15.3974859,16.5016657 13.4034436,15.7421582 12.0969828,14.4998587 C11.6552858,14.0798537 11.3265542,13.6337461 11.0941303,13.1927553 C10.9624783,12.9429647 10.8950044,12.7640667 10.8757855,12.6914741 L8.94239632,13.2033396 C9.13702102,13.938465 9.67232367,14.9541245 10.7188066,15.9492139 C12.4057669,17.5533262 14.8955763,18.5016657 18.2822967,18.5016657 L27.3929621,18.5016657 C27.7880646,19.761517 28,21.1208955 28,22.5 Z" id="Shape"></path>
            <path d="M10,22.1096823 C10,21.7749024 10.2561708,21.5 10.5,21.5 C10.7438292,21.5 11,21.7749024 11,22.1096823 L13,22.1096823 C13,20.7006397 11.8811708,19.5 10.5,19.5 C9.1188292,19.5 8,20.7006397 8,22.1096823 L10,22.1096823 Z" id="Shape"></path>
            <path d="M19,22.1096823 C19,21.7749024 19.2561708,21.5 19.5,21.5 C19.7438292,21.5 20,21.7749024 20,22.1096823 L22,22.1096823 C22,20.7006397 20.8811708,19.5 19.5,19.5 C18.1188292,19.5 17,20.7006397 17,22.1096823 L19,22.1096823 Z" id="Shape"></path>
            <path d="M19.3052967,27.3943411 C18.1410033,28.5188267 16.6014254,29.1257404 15,29.1257404 C13.3985746,29.1257404 11.8589967,28.5188267 10.6947033,27.3943411 L9.30529675,28.832934 C10.846942,30.3218695 12.8861476,31.1257404 15,31.1257404 C17.1138524,31.1257404 19.153058,30.3218695 20.6947033,28.832934 L19.3052967,27.3943411 Z" id="Shape"></path>
            <g id="Group" transform="translate(27.330379, 6.979901) rotate(3.000000) translate(-27.330379, -6.979901) translate(20.330379, 0.979901)">
                <polygon id="Shape" points="1.98745504 5.25987776 2.64338775 1.15790045 0.668477673 0.842099551 0.0125449639 4.94407686"></polygon>
                <polygon id="Shape" points="7.23381158 7.57846524 9.58782716 4.12971521 7.93595123 3.00219317 5.58193566 6.45094321"></polygon>
                <polygon id="Shape" points="10.3832502 11.9940778 13.9948204 9.85609657 12.9759947 8.13505209 9.36442444 10.2730333"></polygon>
            </g>
        </g>
    </g>
</svg>