<?xml version="1.0" encoding="UTF-8"?>
<svg width="40px" height="40px" viewBox="0 0 40 40" version="1.1" xmlns="http://www.w3.org/2000/svg" xmlns:xlink="http://www.w3.org/1999/xlink">
    <!-- Generator: Sketch 61.2 (89653) - https://sketch.com -->
    <title>Icons/40px/user-happy-40</title>
    <desc>Created with Sketch.</desc>
    <g id="Icons/40px/user-happy-40" stroke="none" stroke-width="1" fill="none" fill-rule="evenodd">
        <g>
            <rect id="invisible-40" x="0" y="0" width="40" height="40"></rect>
            <g id="outlines" transform="translate(2.000000, 2.000000)" fill="#FF0000" fill-rule="nonzero">
                <path d="M18,-1.0658141e-14 C23.0988405,-1.0658141e-14 27.857786,2.13254778 31.2442147,5.81008459 L29.7729697,7.16486807 C26.7613753,3.89438747 22.533903,2 18,2 C9.163444,2 2,9.163444 2,18 C2,26.836556 9.163444,34 18,34 C26.836556,34 34,26.836556 34,18 C34,16.1635627 33.690885,14.3713404 33.094136,12.678749 L20.8333333,12.678749 C16.5412273,12.678749 11.9261534,10.1940582 10.6801389,6.79394177 L12.5580155,6.10577078 C13.4785835,8.6178109 17.3065776,10.678749 20.8333333,10.678749 L34.4624555,10.678749 L34.714146,11.3067171 C35.5599309,13.4169513 36,15.6787584 36,18 C36,27.9411255 27.9411255,36 18,36 C8.0588745,36 -1.0658141e-14,27.9411255 -1.0658141e-14,18 C-1.0658141e-14,8.0588745 8.0588745,-1.0658141e-14 18,-1.0658141e-14 Z M24.2806982,25.3053022 L25.7193018,26.6946978 C23.6908717,28.7949684 20.935202,30 17.9944868,30 C15.0597872,30 12.3092601,28.7999158 10.28179,26.7072254 L11.71821,25.3155726 C13.3742314,27.0248654 15.6091864,28 17.9944868,28 C20.3846813,28 22.6238513,27.0208294 24.2806982,25.3053022 Z M24,15 C25.6568542,15 27,16.3431458 27,18 L25,18 C25,17.4477153 24.5522847,17 24,17 C23.4477153,17 23,17.4477153 23,18 L21,18 C21,16.3431458 22.3431458,15 24,15 Z M12,15 C13.6568542,15 15,16.3431458 15,18 L13,18 C13,17.4477153 12.5522847,17 12,17 C11.4477153,17 11,17.4477153 11,18 L9,18 C9,16.3431458 10.3431458,15 12,15 Z" id="Combined-Shape"></path>
            </g>
        </g>
    </g>
</svg>