<?xml version="1.0" encoding="UTF-8"?>
<svg width="40px" height="40px" viewBox="0 0 40 40" version="1.1" xmlns="http://www.w3.org/2000/svg" xmlns:xlink="http://www.w3.org/1999/xlink">
    <!-- Generator: Sketch 61.2 (89653) - https://sketch.com -->
    <title>Icons/40px/wallet-40</title>
    <desc>Created with Sketch.</desc>
    <g id="Icons/40px/wallet-40" stroke="none" stroke-width="1" fill="none" fill-rule="evenodd">
        <g>
            <rect id="invisible-40" x="0" y="0" width="40" height="40"></rect>
            <g id="outlines" transform="translate(2.000000, 5.000000)" fill="#FF0000" fill-rule="nonzero">
                <path d="M31.8571429,0 L31.8571429,2 L3,2 C2.44771525,2 2,2.44771525 2,3 L2,28 C2,28.5522847 2.44771525,29 3,29 L32,29 L32,23.04 L34,23.04 L34,31 L3,31 C1.34314575,31 0,29.6568542 0,28 L0,3 C0,1.34314575 1.34314575,0 3,0 L31.8571429,0 Z M34,4 L34,12 L36,12 L36,23 L28,23 L28,21 L34,21 L34,14 L28,14 L28,12 L32,12 L32,6 L4,6 L4,4 L34,4 Z" id="Combined-Shape"></path>
            </g>
        </g>
    </g>
</svg>