<?xml version="1.0" encoding="UTF-8"?>
<svg width="40px" height="40px" viewBox="0 0 40 40" version="1.1" xmlns="http://www.w3.org/2000/svg" xmlns:xlink="http://www.w3.org/1999/xlink">
    <!-- Generator: Sketch 56.3 (81716) - https://sketch.com -->
    <title>Icons/40px/world-40</title>
    <desc>Created with Sketch.</desc>
    <g id="Icons/40px/world-40" stroke="none" stroke-width="1" fill="none" fill-rule="evenodd">
        <g>
            <rect id="invisible-40" x="0" y="0" width="40" height="40"></rect>
            <g id="lines" transform="translate(2.000000, 2.000000)" fill="#FF0000">
                <path d="M18,36 C27.9411255,36 36,27.9411255 36,18 C36,8.0588745 27.9411255,0 18,0 C8.0588745,0 0,8.0588745 0,18 C0,27.9411255 8.0588745,36 18,36 Z M18,34 C9.163444,34 2,26.836556 2,18 C2,9.163444 9.163444,2 18,2 C26.836556,2 34,9.163444 34,18 C34,26.836556 26.836556,34 18,34 Z" id="Oval-2" fill-rule="nonzero"></path>
                <polygon id="Path-3" fill-rule="nonzero" points="16.1021559 2.92726764 11.8154671 4.72793779 9.84462769 7.97375943 11.6721965 11.2854935 14.9133126 9.84950127 18 9.84950127 18 7.84950127 14.4900968 7.84950127 12.5377308 8.71450651 12.1553723 8.0216354 13.1882442 6.32057451 18.1021559 4.25643255 18.1021559 1 16.1021559 1"></polygon>
                <path d="M10.7369914,14.1801726 L10.8629224,14.067671 L10.7951905,14.1185864 L10.7369914,14.1801726 Z M8.82875254,15.5967965 L10.8868882,21.9490601 L14.5008221,21.9490601 L15.147218,21.7861581 L15.147218,22.3977513 L16.5119622,24.0901429 L15.8254406,26.0301878 L18.013794,32.2791396 L22.5073056,30.6797678 L23.1729939,28.4294428 L25.2996673,26.470357 L25.2996673,23.3298228 L28.6467983,19.2906512 L25.0423874,17.8537582 L23.0498165,13.4960536 L19.5740624,11.8554705 L18.3505695,12.6643331 L16.4561819,12.0489262 L15.8382541,13.9510738 L18.6494305,14.8643068 L19.7381721,14.1445295 L21.5349667,14.9926306 L23.5569471,19.4146532 L25.3532017,20.1307273 L23.2996673,22.6088429 L23.2996673,25.5934837 L21.4117892,27.3325919 L20.8780868,29.1367453 L19.2369877,29.7208604 L17.9457452,26.033653 L18.7700469,23.7042545 L17.147218,21.6918174 L17.147218,19.219592 L14.2526855,19.9490601 L12.3412445,19.9490601 L11.1712475,16.3379621 L12.0646812,15.6663504 L12.1906122,15.5538488 L13.9549432,13.6868381 L12.5013223,12.3131619 L10.7951905,14.1185864 L8.82875254,15.5967965 Z" id="Path-4" fill-rule="nonzero"></path>
                <polygon id="Path-6" fill-rule="nonzero" points="26.0441057 15.523393 29.563432 14.0079276 30.0060324 12.7833389 30.3504626 12.6463013 34.2103756 17.6135905 35.7896244 16.3864095 31.0075401 10.2323858 28.4308698 11.2575594 27.9769185 12.5135536 27.0617248 12.9076473 25.4583425 9.33780091 21.4864668 7.12630092 20.5135332 8.87369908 23.9057466 10.762449"></polygon>
                <polygon id="Path-7" points="26 29.1573787 26.5603093 27.290848 28 25 28 27.7121587 27 30"></polygon>
                <polygon id="Path-8" fill-rule="nonzero" points="9 25.3402033 9 22.156204 6.07006905 20.7121702 3.20368853 18.8923256 0.65898064 19.8154561 1.34101936 21.6955687 2.96161258 21.1076744 5.04361938 22.4295258 5.13753104 22.4822781 7 23.4002069 7 24.9360334 5.84919899 27.6670739 5.84919899 31 7.84919899 31 7.84919899 28.0712438"></polygon>
                <polygon id="Path-9" fill-rule="nonzero" points="4.94299301 10.3681895 3.33028389 14.3787746 0.754673068 15.0305596 1.24532693 16.9694404 4.80657039 16.0682309 7.05700699 10.4717055 5.95981003 6.71934948 4.04018997 7.28065052"></polygon>
            </g>
        </g>
    </g>
</svg>