<?xml version="1.0" encoding="UTF-8"?>
<svg width="40px" height="40px" viewBox="0 0 40 40" version="1.1" xmlns="http://www.w3.org/2000/svg" xmlns:xlink="http://www.w3.org/1999/xlink">
    <!-- Generator: Sketch 54.1 (76490) - https://sketchapp.com -->
    <title>Icons/40px/common-camera-40</title>
    <desc>Created with Sketch.</desc>
    <g id="Icons/40px/common-camera-40" stroke="none" stroke-width="1" fill="none" fill-rule="evenodd">
        <g id="Icons/40px/wristwatch-40">
            <g>
                <rect id="invisible-40" x="0" y="0" width="40" height="40"></rect>
                <g id="outlines" transform="translate(8.000000, 2.000000)" fill="#FF0000" fill-rule="nonzero">
                    <path d="M4.06717597,8.99589869 L5.56776127,-3.19744231e-14 L18.4842288,-3.19744231e-14 L19.9349291,8.99775517 C22.4276656,11.1966435 24,14.4147025 24,18 C24,21.5816351 22.4308762,24.7967817 19.9425651,26.9955032 L18.4478885,35.9559797 L5.53142093,35.9559797 L4.09157668,27.0255572 C1.58348556,24.8261344 0,21.5979886 0,18 C0,14.4136934 1.57321967,11.194832 4.06717597,8.99589869 Z M6.36014424,7.40523864 C8.04145981,6.5083637 9.96136255,6 12,6 C14.0441614,6 15.9689438,6.51112241 17.6535178,7.41253784 L16.780859,2 L7.26177975,2 L6.36014424,7.40523864 Z M6.37137044,28.6007422 L7.23479072,33.9559797 L16.75387,33.9559797 L17.6489749,28.5898918 C15.9654837,29.489796 14.0423241,30 12,30 C9.96589847,30 8.05000387,29.493896 6.37137044,28.6007422 Z M12,28 C17.5228475,28 22,23.5228475 22,18 C22,12.4771525 17.5228475,8 12,8 C6.4771525,8 2,12.4771525 2,18 C2,23.5228475 6.4771525,28 12,28 Z M17.7235854,20.9007375 L16.552486,22.5220105 L11,18.5112653 L11,9.5 L13,9.5 L13,17.4887347 L17.7235854,20.9007375 Z" id="Combined-Shape"></path>
                </g>
            </g>
        </g>
    </g>
</svg>