<?xml version="1.0" encoding="UTF-8"?>
<svg width="32px" height="32px" viewBox="0 0 32 32" version="1.1" xmlns="http://www.w3.org/2000/svg" xmlns:xlink="http://www.w3.org/1999/xlink">
    <title>Icons/32px/apartment-32</title>
    <g id="Icons/32px/apartment-32" stroke="none" stroke-width="1" fill="none" fill-rule="evenodd">
        <g>
            <rect id="invisible-32" x="0" y="0" width="32" height="32"></rect>
            <g id="outlines" transform="translate(2.000000, 2.000000)" fill="#FF0000" fill-rule="nonzero">
                <path d="M27,0 L27,26 L28,26 L28,28 L0,28 L0,26 L1,26 L1,0 L27,0 Z M25,2 L3,2 L3,26 L11,26 L11,18 L17,18 L17,26 L25,26 L25,2 Z M15,20 L13,20 L13,26 L15,26 L15,20 Z M9,18 L9,23 L4,23 L4,18 L9,18 Z M24,18 L24,23 L19,23 L19,18 L24,18 Z M7,20 L6,20 L6,21 L7,21 L7,20 Z M22,20 L21,20 L21,21 L22,21 L22,20 Z M9,11 L9,16 L4,16 L4,11 L9,11 Z M24,11 L24,16 L19,16 L19,11 L24,11 Z M17,11 L17,16 L11,16 L11,11 L17,11 Z M7,13 L6,13 L6,14 L7,14 L7,13 Z M22,13 L21,13 L21,14 L22,14 L22,13 Z M15,13 L13,13 L13,14 L15,14 L15,13 Z M9,4 L9,9 L4,9 L4,4 L9,4 Z M24,4 L24,9 L19,9 L19,4 L24,4 Z M17,4 L17,9 L11,9 L11,4 L17,4 Z M7,6 L6,6 L6,7 L7,7 L7,6 Z M22,6 L21,6 L21,7 L22,7 L22,6 Z M15,6 L13,6 L13,7 L15,7 L15,6 Z" id="Combined-Shape"></path>
            </g>
        </g>
    </g>
</svg>