<?xml version="1.0" encoding="UTF-8"?>
<svg width="32px" height="32px" viewBox="0 0 32 32" version="1.1" xmlns="http://www.w3.org/2000/svg" xmlns:xlink="http://www.w3.org/1999/xlink">
    <!-- Generator: Sketch 56.3 (81716) - https://sketch.com -->
    <title>Icons/32px/attach-32</title>
    <desc>Created with Sketch.</desc>
    <g id="Icons/32px/attach-32" stroke="none" stroke-width="1" fill="none" fill-rule="evenodd">
        <g>
            <rect id="invisible-32" x="0" y="0" width="32" height="32"></rect>
            <g id="lines" transform="translate(6.000000, 2.000000)" fill="#FF0000" fill-rule="nonzero">
                <path d="M10.6764604,18.5564184 C10.5793089,19.4793632 10.3598473,19.7690083 10,19.7690083 C9.64534567,19.7690083 9.42627054,19.4878436 9.32083023,18.5045377 L9.32083023,8.69899728 L7.32083023,8.69899728 L7.32083023,18.5564184 L7.32590167,18.6570025 C7.52075188,20.5843647 8.41979677,21.7690083 10,21.7690083 C11.580798,21.7690083 12.4789766,20.5835935 12.6715101,18.6557963 L12.6764604,5.43110902 L12.671398,5.33061528 C12.3912299,2.55681206 10.8686652,1 8.32083023,1 C5.76896901,1 4.25651322,2.56268172 4.00410262,5.3406192 L4,18.5564184 C4.21856395,23.3791239 6.25227458,26 10,26 C13.7477254,26 15.781436,23.3791239 15.9989649,18.6019059 L16,8.69899728 L14,8.69899728 L14,18.5564184 C13.8273558,22.325155 12.5277331,24 10,24 C7.4722669,24 6.1726442,22.325155 5.99896491,18.5109309 L6,5.43110902 C6.15916606,3.7247243 6.8605971,3 8.32083023,3 C9.77185744,3 10.4866365,3.7174492 10.6764604,5.48303883 L10.6764604,18.5564184 Z" id="Path-3" transform="translate(10.000000, 13.500000) rotate(-25.000000) translate(-10.000000, -13.500000) "></path>
            </g>
        </g>
    </g>
</svg>