<?xml version="1.0" encoding="UTF-8"?>
<svg width="32px" height="32px" viewBox="0 0 32 32" version="1.1" xmlns="http://www.w3.org/2000/svg" xmlns:xlink="http://www.w3.org/1999/xlink">
    <title>Icons/32px/ATV-32</title>
    <g id="Icons/32px/ATV-32" stroke="none" stroke-width="1" fill="none" fill-rule="evenodd">
        <g>
            <rect id="invisible-32" x="0" y="0" width="32" height="32"></rect>
            <g id="lines" transform="translate(2.000000, 4.000000)" fill="#FF0000" fill-rule="nonzero">
                <path d="M15.3312766,0.835481929 L20.469,7 L23.5351838,7 L25.6361539,10.1485269 C26.2794905,10.2667492 26.9055719,10.4545701 27.5054304,10.7084781 L27.8323921,10.8546466 L26.9798467,12.663836 C26.0563454,12.2286539 25.0453747,12 24,12 C22.6110871,12 21.3166522,12.4045086 20.2280783,13.102143 L21.4927265,14.4713827 C22.0970116,14.1697115 22.7786867,14 23.5,14 C25.9852814,14 28,16.0147186 28,18.5 C28,20.9852814 25.9852814,23 23.5,23 C21.0147186,23 19,20.9852814 19,18.5 C19,17.4606594 19.3523539,16.5036155 19.9441241,15.7418057 L18.7143092,14.4105596 C17.695428,15.5830067 17.0601935,17.0977547 17.004059,18.7593502 L17,19 L15,19 C15,18.662029 15.0186291,18.3284091 15.0549165,18.0001111 L12.5857864,18 L9.214,14.6284819 L8.09340295,15.7908028 C8.62278348,16.4918544 8.95175202,17.3527104 8.99510201,18.2881643 L9,18.5 C9,20.9852814 6.98528137,23 4.5,23 C2.01471863,23 0,20.9852814 0,18.5 C0,16.0147186 2.01471863,14 4.5,14 C5.24217442,14 5.9423847,14.1796699 6.55950806,14.4978868 L7.799,13.2134819 L6.29289322,11.7071068 L7.70710678,10.2928932 L13.415,16 L15.5122698,15.9995682 C16.6583146,12.7576384 19.6091439,10.368334 23.1574982,10.0389144 L22.464,9 L19.5316251,9 L17.994,7.15448193 L10.6857123,11.3313441 L8.464,8 L2,8 L2,10 L5,10 L5,12 L1.0125234e-13,12 L1.0125234e-13,6 L9.53518376,6 L11.314,8.668 L16.693,5.59448193 L14.668,3.164 L12.3162278,3.9486833 L11.6837722,2.0513167 L15.3312766,0.835481929 Z M23.5,16 C22.1192881,16 21,17.1192881 21,18.5 C21,19.8807119 22.1192881,21 23.5,21 C24.8807119,21 26,19.8807119 26,18.5 C26,17.1192881 24.8807119,16 23.5,16 Z M4.5,16 C3.11928813,16 2,17.1192881 2,18.5 C2,19.8807119 3.11928813,21 4.5,21 C5.88071187,21 7,19.8807119 7,18.5 C7,17.1192881 5.88071187,16 4.5,16 Z" id="Combined-Shape"></path>
            </g>
        </g>
    </g>
</svg>