<?xml version="1.0" encoding="UTF-8"?>
<svg width="32px" height="32px" viewBox="0 0 32 32" version="1.1" xmlns="http://www.w3.org/2000/svg" xmlns:xlink="http://www.w3.org/1999/xlink">
    <title>Icons/32px/baby-32</title>
    <g id="Icons/32px/baby-32" stroke="none" stroke-width="1" fill="none" fill-rule="evenodd">
        <g>
            <rect id="invisible-32" x="0" y="0" width="32" height="32"></rect>
            <g id="lines" transform="translate(4.000000, 2.000000)" fill="#FF0000" fill-rule="nonzero">
                <path d="M15.7498596,0.287813526 L15.885,0.321 L15.9200065,0.328858441 L15.919,0.331 L16.0711347,0.378085899 C17.6860901,0.942769635 18.6217706,2.63649661 18.2402425,4.30401599 L18.1923975,4.48912937 C17.7141742,6.14921188 16.070612,7.15701825 14.4069755,6.87956357 L14.4011076,6.90147571 C13.5798254,6.68021109 12.7278785,6.56677571 11.8614314,6.56677571 C6.48297514,6.56677571 2.12228857,10.9273301 2.12228857,16.3059186 C2.12228857,21.6841018 6.48304126,26.04459 11.8614314,26.04459 C17.2400199,26.04459 21.6001029,21.6843749 21.6001029,16.3059186 C21.6001029,13.2356363 20.1704658,10.406793 17.7885508,8.57781875 L17.5387684,8.39221234 L18.7061801,6.76828195 C21.754846,8.95990805 23.6001029,12.4790486 23.6001029,16.3059186 C23.6001029,22.7889308 18.344603,28.04459 11.8614314,28.04459 C5.37849891,28.04459 0.122288571,22.7886984 0.122288571,16.3059186 C0.122288571,9.82274699 5.37841922,4.56677571 11.8614314,4.56677571 C12.7551542,4.56677571 13.637252,4.66722594 14.4947468,4.86396093 L14.5732886,4.88306078 L14.5777507,4.87084415 C15.3037082,5.08024449 16.0613859,4.66158545 16.270647,3.93516643 C16.4677567,3.25181863 16.1083841,2.54010597 15.4601631,2.28438118 L15.368,2.252 L15.292016,2.23847419 C15.1128299,2.22038981 14.9453494,2.2885255 14.8903775,2.34567462 L14.872734,2.3728836 C14.8180935,2.56291269 14.8448873,2.63808996 15.1695125,2.58850688 L15.3774184,2.54902909 L15.8006159,4.50374234 C13.6885231,4.96101265 12.4953093,3.40366585 12.950943,1.81906233 C13.2796701,0.680898081 14.5570925,0.0437583128 15.7498596,0.287813526 Z M12.6179866,21.1711742 L14.0317877,22.5858001 C13.0550958,23.5619225 11.7484405,24.0910014 10.3930729,24.0910014 C9.12170238,24.0910014 7.89423231,23.6262406 6.94106056,22.7634412 L6.75415179,22.5855939 L8.16836535,21.1713804 C8.7657441,21.7687591 9.56171739,22.0910014 10.3930729,22.0910014 C11.1545055,22.0910014 11.8873747,21.8199474 12.4645352,21.3147367 L12.6179866,21.1711742 Z M9.56113288,16.0267997 L9.574116,16.1911209 L7.57627828,16.2840963 C7.56330502,16.0053295 7.326757,15.789921 7.04758485,15.8029131 C6.79979213,15.8144449 6.60206034,16.0026284 6.5703039,16.2403761 L6.56640172,16.3316066 L4.568564,16.424582 C4.50423275,15.0422446 5.57225709,13.8694074 6.95460943,13.8050754 C8.28165329,13.7433174 9.41562187,14.7251383 9.56113288,16.0267997 Z M16.01565,15.785334 L16.0286331,15.9496551 L14.0307954,16.0426306 C14.0178222,15.7638637 13.7812741,15.5484553 13.502102,15.5614474 C13.2543704,15.5729764 13.0568308,15.7609983 13.0252157,15.9984584 L13.0213638,16.0895752 L11.0235791,16.183682 C10.9584536,14.8011385 12.0265533,13.6279519 13.4091266,13.5636097 C14.7361704,13.5018517 15.870139,14.4836726 16.01565,15.785334 Z" id="Combined-Shape"></path>
            </g>
        </g>
    </g>
</svg>