<?xml version="1.0" encoding="UTF-8"?>
<svg width="32px" height="32px" viewBox="0 0 32 32" version="1.1" xmlns="http://www.w3.org/2000/svg" xmlns:xlink="http://www.w3.org/1999/xlink">
    <title>Icons/32px/bell-32</title>
    <g id="Icons/32px/bell-32" stroke="none" stroke-width="1" fill="none" fill-rule="evenodd">
        <g>
            <rect id="invisible-32" x="0" y="0" width="32" height="32"></rect>
            <g id="lines" transform="translate(4.000000, 2.000000)" fill="#FF0000" fill-rule="nonzero">
                <path d="M10,24 C10,25.1045695 10.8954305,26 12,26 C13.1045695,26 14,25.1045695 14,24 L14,24 L16,24 C16,26.209139 14.209139,28 12,28 C9.790861,28 8,26.209139 8,24 L8,24 Z M12,0 C13.1045695,0 14,0.8954305 14,2 L14,2 L14.0002247,2.13058498 C18.584109,2.76622645 21,5.71244318 21,10.7503255 L21,10.7503255 L21,18.1280756 L23.516539,24 L0.483460985,24 L3,18.1280756 L3,10.7503255 C3,5.71271091 5.41563422,2.7665396 9.99904449,2.13068634 L10,2 C10,0.8954305 10.8954305,0 12,0 Z M12,4 C7.21198062,4 5,6.14294624 5,10.7503255 L5,10.7503255 L4.99946098,17.5 L17.0043945,17.5 L17.0043945,19.5 L4.58746098,19.5 L3.51653902,22 L20.483461,22 L19,18.538591 L19,10.7503255 C19,6.14294624 16.7880194,4 12,4 Z" id="Combined-Shape"></path>
            </g>
        </g>
    </g>
</svg>