<?xml version="1.0" encoding="UTF-8"?>
<svg width="32px" height="32px" viewBox="0 0 32 32" version="1.1" xmlns="http://www.w3.org/2000/svg" xmlns:xlink="http://www.w3.org/1999/xlink">
    <!-- Generator: Sketch 50.2 (55047) - http://www.bohemiancoding.com/sketch -->
    <title>bills-coins-32</title>
    <desc>Created with Sketch.</desc>
    <defs></defs>
    <g id="bills-coins-32" stroke="none" stroke-width="1" fill="none" fill-rule="evenodd">
        <g id="bills-coins-32-crop" transform="translate(4.000000, 2.500000)" fill="#FF0000" fill-rule="nonzero">
            <path d="M19.6836,16.5352 L12.4026,14.9542 C12.4036,14.9212 12.4126,14.8912 12.4126,14.8582 C12.4126,12.4822 10.4796,10.5492 8.1036,10.5492 C6.3186,10.5492 4.7846,11.6402 4.1316,13.1902 L2.3826,12.8312 L4.3116,3.9132 L21.5526,7.6112 L19.6836,16.5352 Z M8.1036,17.1672 C6.8296,17.1672 5.7946,16.1322 5.7946,14.8582 C5.7946,13.5852 6.8296,12.5492 8.1036,12.5492 C9.3766,12.5492 10.4126,13.5852 10.4126,14.8582 C10.4126,16.1322 9.3766,17.1672 8.1036,17.1672 Z M19.6886,2.3632 L20.3246,5.3032 L13.0586,3.7442 L19.6886,2.3632 Z M22.4696,5.7632 L21.2236,0.0002 L8.2286,2.7082 L2.7786,1.5382 L-0.0004,14.3842 L3.8266,15.1692 C3.9886,17.3982 5.8336,19.1672 8.1036,19.1672 C9.7416,19.1672 11.1526,18.2372 11.8806,16.8882 L21.2286,18.9162 L23.9176,6.0742 L22.4696,5.7632 Z" id="Fill-1"></path>
            <path d="M12.2207,24.5928 C11.7087,24.5928 11.3177,24.4138 10.9357,23.9728 C10.8667,23.9038 10.7897,23.7828 10.7617,23.6988 L10.7077,23.5688 C10.6507,23.4528 10.6477,23.2928 10.6477,23.0198 C10.6477,22.1668 11.3677,21.4468 12.2207,21.4468 C13.0747,21.4468 13.7947,22.1668 13.7947,23.0198 C13.7947,23.8718 13.0747,24.5928 12.2207,24.5928 M12.2207,19.4468 C10.2497,19.4468 8.6477,21.0488 8.6477,23.0198 C8.6477,23.3848 8.6477,23.8788 8.8887,24.3998 C9.0197,24.7568 9.2447,25.1108 9.4697,25.3298 C10.1767,26.1558 11.1287,26.5928 12.2207,26.5928 C14.1917,26.5928 15.7947,24.9898 15.7947,23.0198 C15.7947,21.0488 14.1917,19.4468 12.2207,19.4468" id="Fill-4"></path>
        </g>
    </g>
</svg>