<?xml version="1.0" encoding="UTF-8"?>
<svg width="32px" height="32px" viewBox="0 0 32 32" version="1.1" xmlns="http://www.w3.org/2000/svg" xmlns:xlink="http://www.w3.org/1999/xlink">
    <!-- Generator: Sketch 50.2 (55047) - http://www.bohemiancoding.com/sketch -->
    <title>boat-32</title>
    <desc>Created with Sketch.</desc>
    <defs></defs>
    <g id="boat-32" stroke="none" stroke-width="1" fill="none" fill-rule="evenodd">
        <g id="boat-32-crop" transform="translate(1.000000, 2.000000)" fill="#FF0000" fill-rule="nonzero">
            <path d="M21.7901702,4.65160622 C22.0362244,4.81122333 22.2276396,4.99761965 22.372588,5.21165141 C22.4300736,5.296535 22.4764208,5.37952471 22.5187853,5.46806065 C22.5389975,5.51030126 22.5612578,5.56063824 22.5754244,5.59298555 C22.5761902,5.59463779 22.5761902,5.59463779 22.6064683,5.66453739 L24.432098,10.3625942 L22.567902,11.0870068 C21.857935,9.25998467 21.857935,9.25998467 20.7727424,6.45925607 C20.7649855,6.44294682 20.7649855,6.44294682 20.7582177,6.42830569 C20.6975412,6.29630636 20.7343422,6.35064695 20.701719,6.32948401 C20.2273331,6.02174655 18.7425493,5.78857526 15.8620769,5.78857526 L14.8620769,5.78857526 L14.1461652,5.78857404 C11.2716826,5.79307495 9.78634651,6.02713817 9.30700611,6.33549237 C9.27247172,6.35770795 9.3065709,6.30709165 9.25082324,6.42834307 L7.43199872,11.105093 L5.56800128,10.3801699 C6.28011763,8.54910259 6.28011763,8.54910259 7.43171077,5.59713987 C7.44668843,5.56335585 7.46927161,5.51281304 7.48975784,5.47042748 C7.53268209,5.38161819 7.57960165,5.29841021 7.63773946,5.21335597 C7.78411605,4.99921053 7.97709243,4.81292723 8.22497751,4.65346559 C9.02885648,4.13633943 10.5302829,3.85760233 13.1445994,3.79986052 L13.1445994,2.42491179 C13.1445994,1.37771526 13.9595183,0.5 15.0033381,0.5 C16.047158,0.5 16.8620769,1.37771526 16.8620769,2.42491179 L16.8620769,3.79834325 C19.4844481,3.85234027 20.9875072,4.130913 21.7901702,4.65160622 Z M0.455730191,25.483151 L1.54426981,23.8053305 C2.71054988,24.5619919 4.14857431,24.5700572 5.30747161,23.8358634 C7.66836431,22.2838753 10.6368439,22.2727504 13.0077941,23.8071955 L11.9211414,25.4862386 C10.2158932,24.3826264 8.10461166,24.3905387 6.39203965,25.5161706 C4.55878688,26.6778496 2.27745719,26.6650545 0.455730191,25.483151 Z M11.8989232,25.483151 L12.9874628,23.8053305 C14.1537429,24.5619919 15.5917673,24.5700572 16.7506646,23.8358634 C19.1115573,22.2838753 22.080037,22.2727504 24.4509871,23.8071955 L23.3643344,25.4862386 C21.6590862,24.3826264 19.5478047,24.3905387 17.8352327,25.5161706 C16.0019799,26.6778496 13.7206502,26.6650545 11.8989232,25.483151 Z M23.3361663,25.483151 L24.4247059,23.8053305 C25.590986,24.5619919 27.0290104,24.5700572 28.2019646,23.8267903 L29.2724758,25.5161706 C27.439223,26.6778496 25.1578933,26.6650545 23.3361663,25.483151 Z M26.7001809,12.8356941 C27.0472885,13.4091136 27.095625,14.1275229 26.8137332,14.784897 L23.2696466,22.1804768 L21.4660498,21.3161628 L24.9923603,13.9598243 C25.0032791,13.93427 25.0018962,13.8982686 24.9862959,13.8670869 L24.8936347,13.8614489 L14.996173,12.5092863 L5.15921815,13.8527871 L4.97756649,13.8609114 C4.99830486,13.8874125 4.99562857,13.9288668 4.99258835,13.9235908 L8.51650624,21.2882164 L6.71240046,22.1514675 L3.17306907,14.7530296 C2.90388808,14.1322246 2.95062095,13.4083562 3.3003853,12.8301852 C3.66020463,12.2366375 4.28328046,11.8678754 4.96243693,11.8610958 L14.9962129,10.4907137 L25.1038898,11.8715954 C25.766268,11.8935617 26.3658053,12.2644405 26.7001809,12.8356941 Z" id="boat"></path>
            <polygon id="Path-2" points="14 14 16 14 16 20.6076642 14 20.6076642"></polygon>
        </g>
    </g>
</svg>