<?xml version="1.0" encoding="UTF-8"?>
<svg width="32px" height="32px" viewBox="0 0 32 32" version="1.1" xmlns="http://www.w3.org/2000/svg" xmlns:xlink="http://www.w3.org/1999/xlink">
    <title>Icons/32px/briefcase-first-aid-32</title>
    <defs>
        <path d="M4.5,10 C4.22385763,10 4,10.2238576 4,10.5 L4,25.5 C4,25.7761424 4.22385763,26 4.5,26 L27.5,26 C27.7761424,26 28,25.7761424 28,25.5 L28,10.5 C28,10.2238576 27.7761424,10 27.5,10 L4.5,10 Z M22,4 L22,8 L27.5,8 C28.8807119,8 30,9.11928813 30,10.5 L30,25.5 C30,26.8807119 28.8807119,28 27.5,28 L4.5,28 C3.11928813,28 2,26.8807119 2,25.5 L2,10.5 C2,9.11928813 3.11928813,8 4.5,8 L10,8 L10,4 L22,4 Z M8,10 L6,10 L6,26 L8,26 L8,10 Z M26,10 L24,10 L24,26 L26,26 L26,10 Z M17,14 L15,14 L15,17 L12,17 L12,19 L15,19 L15,22 L17,22 L17,19 L20,19 L20,17 L17,17 L17,14 Z M20,6 L12,6 L12,8 L20,8 L20,6 Z" id="path-1"></path>
    </defs>
    <g id="Icons/32px/briefcase-first-aid-32" stroke="none" stroke-width="1" fill="none" fill-rule="evenodd">
        <g id="outlines">
            <rect id="invisible-32" x="0" y="0" width="32" height="32"></rect>
            <mask id="mask-2" fill="white">
                <use xlink:href="#path-1"></use>
            </mask>
            <use id="Combined-Shape" fill="#FF0000" fill-rule="nonzero" xlink:href="#path-1"></use>
        </g>
    </g>
</svg>