<?xml version="1.0" encoding="UTF-8"?>
<svg width="32px" height="32px" viewBox="0 0 32 32" version="1.1" xmlns="http://www.w3.org/2000/svg" xmlns:xlink="http://www.w3.org/1999/xlink">
    <!-- Generator: Sketch 50.2 (55047) - http://www.bohemiancoding.com/sketch -->
    <title>calendar-cross-32</title>
    <desc>Created with Sketch.</desc>
    <defs></defs>
    <g id="calendar-cross-32" stroke="none" stroke-width="1" fill="none" fill-rule="evenodd">
        <g id="calendar-cross-32-crop" transform="translate(4.000000, 2.000000)" fill="#FF0000">
            <path d="M20.6934,25 L3.3064,25 C2.5614,25 2.0004,24.459 2.0004,23.741 L2.0004,11 L22.0004,11 L22.0004,23.741 C22.0004,24.459 21.4384,25 20.6934,25 M3.3064,4 L6.0004,4 L6.0004,6 L8.0004,6 L8.0004,4 L16.0004,3.999 L16.0004,6 L18.0004,6 L18.0004,3.999 L20.6584,3.999 C21.4114,4.025 22.0004,4.57 22.0004,5.24 L22.0004,9 L2.0004,9 L2.0004,5.24 C2.0004,4.57 2.5894,4.025 3.3064,4 M20.6934,2 L18.0004,2 L18.0004,0 L16.0004,0 L16.0004,2 L8.0004,2.001 L8.0004,0 L6.0004,0 L6.0004,2.001 L3.2714,2.001 C1.4374,2.064 0.0004,3.487 0.0004,5.24 L0.0004,23.741 C0.0004,25.568 1.4524,27 3.3064,27 L20.6934,27 C22.5474,27 24.0004,25.568 24.0004,23.741 L24.0004,5.24 C24.0004,3.487 22.5624,2.064 20.6934,2" id="Fill-1"></path>
            <polygon id="Fill-4" points="15.9961 12.585 12.0001 16.585 8.0051 12.585 6.5901 13.998 10.5871 18 6.5791 22.012 7.9941 23.425 12.0001 19.415 15.9961 23.415 17.4111 22.002 13.4131 18 17.4111 13.998"></polygon>
        </g>
    </g>
</svg>