<?xml version="1.0" encoding="UTF-8"?>
<svg width="32px" height="32px" viewBox="0 0 32 32" version="1.1" xmlns="http://www.w3.org/2000/svg" xmlns:xlink="http://www.w3.org/1999/xlink">
    <title>Icons/32px/car-damage-32</title>
    <g id="Icons/32px/car-damage-32" stroke="none" stroke-width="1" fill="none" fill-rule="evenodd">
        <g>
            <rect id="invisible-32" x="0" y="0" width="32" height="32"></rect>
            <g id="outlines" transform="translate(0.000000, 4.000000)" fill="#FF0000" fill-rule="nonzero">
                <path d="M16,0 C22.625,0 25.094,2.187 25.664,3 L25.664,3 L27.083,6.019 C29.316,6.09 32,6.661 32,9 L32,9 L32,10 C32,10.672 31.551,11.961 29.853,12.025 C29.773,12.028 29.677,12.03 29.57,12.031 L29.57,12.031 L29.95,13.495 L30,13.749 L30,15.013 L29.988,16.882 L29.988,16.882 L30,17 L30,19 C30,19.734 29.605,20.376 29.016,20.724 L29.016,20.724 L29,22 C29,23.1045695 28.1045695,24 27,24 L27,24 L25,24 C23.8954305,24 23,23.1045695 23,22 L23,22 L23,21 L9,21 L9,22 C9,23.1045695 8.1045695,24 7,24 L7,24 L5,24 C3.8954305,24 3,23.1045695 3,22 L3,22 L3.013,20.74 C2.408,20.396 2.001,19.746 2.001,19 L2.001,19 L2.001,13.754 L2.061,13.515 L2.431,12.031 C2.323,12.03 2.227,12.028 2.147,12.025 C0.45,11.961 0,10.672 0,10 L0,10 L0,9 C0,6.661 2.75,6.089 4.917,6.019 L4.917,6.019 L6.232,3 C6.62,2.344 9.375,0.004 16,0 Z M16,2 C10.282566,2.00362264 8.35947312,3.64112496 8.04751036,3.95005541 L8.01674839,3.98153778 C8.00540513,3.99360484 8,4 8,4 L8,4 L6,8 L6,8 L5.94554922,8.00075313 C5.46730083,8.00886564 2,8.09875862 2,9 L2,9 L2,10 C2,10.025 2.333,10.033 2.778,10.033 C3.667,10.033 5,10 5,10 L5,10 L4,14 L4,15 L18,15 L18,17 L4,17 L4,19 L5,19 L5,22 L7,22 L7,19 L25,19 L25,22 L27,22 L27,19 L28,19 L28.044,14 L27,10 C27,10 28.333,10.033 29.222,10.033 C29.667,10.033 30,10.025 30,10 L30,10 L30,9 C30,8.09875862 26.5326992,8.00886564 26.0544508,8.00075313 L26,8 L24,4 C24,4 23.986334,3.98285322 23.9564475,3.951735 L23.9126343,3.90789006 C23.5058807,3.51508916 21.5755926,2 16,2 Z M24.414,15 L26.68,17.258 L25.266,18.672 L23.586,17 L20,17 L20,15 L24.414,15 Z M7.5,11 C8.327,11 9,11.673 9,12.5 C9,13.327 8.327,14 7.5,14 C6.673,14 6,13.327 6,12.5 C6,11.673 6.673,11 7.5,11 Z M24.5,11 C25.327,11 26,11.673 26,12.5 C26,13.327 25.327,14 24.5,14 C23.673,14 23,13.327 23,12.5 C23,11.673 23.673,11 24.5,11 Z M17.539,2.854 L18.462,4.134 L22.025,3.664 L24.59,9 L9,9 L9,7 L21.41,7 L20.85,5.836 L17.538,6.273 L15.916,4.024 L17.539,2.854 Z" id="Combined-Shape"></path>
            </g>
        </g>
    </g>
</svg>