<?xml version="1.0" encoding="UTF-8"?>
<svg width="32px" height="32px" viewBox="0 0 32 32" version="1.1" xmlns="http://www.w3.org/2000/svg" xmlns:xlink="http://www.w3.org/1999/xlink">
    <title>Icons/32px/caravan-32</title>
    <g id="Icons/32px/caravan-32" stroke="none" stroke-width="1" fill="none" fill-rule="evenodd">
        <g>
            <rect id="invisible-32" x="0" y="0" width="32" height="32"></rect>
            <g id="lines" transform="translate(1.000000, 6.000000)" fill="#FF0000" fill-rule="nonzero">
                <path d="M13.9998812,13 C15.6567306,13 17,14.3433797 17,16.0001188 C17,16.4649319 16.8935856,16.9164445 16.6918922,17.3253022 C16.190882,18.3419292 15.1540661,19.0002377 13.9998812,19.0002377 C12.3431506,19.0002377 11,17.6569768 11,16.0001188 C11,14.3434348 12.3432143,13 13.9998812,13 Z M25.7440307,0 L29.0581745,11.0471462 L27.4769807,14.999 L29,15 L29,17 L26.6769807,16.999 L26.677033,17 L18,17 L18,15 L25.322,15 L26.941,10.952 L24.256,2 L4.496,2 L3.031,10.887 L4.677,15 L10,15 L10,17 L3.32296704,17 L0.967980731,11.1125342 L2.79872366,0 L25.7440307,0 Z M13.9998812,15 C13.4478573,15 13,15.4479308 13,16.0001188 C13,16.5524441 13.4477568,17.0002377 13.9998812,17.0002377 C14.3850838,17.0002377 14.7304886,16.7809288 14.8980879,16.4408441 C14.9648932,16.3054215 15,16.1564644 15,16.0001188 C15,15.4479124 14.5521243,15 13.9998812,15 Z M10,4 L10,14 L8,14 L8,5.999 L7,5.999 L7,14 L5,14 L5,4 L10,4 Z M17,10 L17,12 L13,12 L13,10 L17,10 Z M21,4 L21,9 L13,9 L13,4 L21,4 Z M19,6 L15,6 L15,7 L19,7 L19,6 Z" id="Combined-Shape"></path>
            </g>
        </g>
    </g>
</svg>