<?xml version="1.0" encoding="UTF-8"?>
<svg width="32px" height="32px" viewBox="0 0 32 32" version="1.1" xmlns="http://www.w3.org/2000/svg" xmlns:xlink="http://www.w3.org/1999/xlink">
    <!-- Generator: Sketch 50.2 (55047) - http://www.bohemiancoding.com/sketch -->
    <title>card-32</title>
    <desc>Created with Sketch.</desc>
    <defs></defs>
    <g id="card-32" stroke="none" stroke-width="1" fill="none" fill-rule="evenodd">
        <g id="card-32-crop" transform="translate(3.000000, 7.000000)" fill="#FF0000">
            <path d="M23.8027,15.6875 C23.6157,15.8885 23.3317,15.9995 23.0037,15.9995 L3.0147,15.9995 C2.4927,15.9995 1.9997,15.5585 1.9997,15.0905 L1.9997,6.9995 L23.9947,6.9995 L23.9957,15.1625 C24.0137,15.4065 23.9007,15.5825 23.8027,15.6875 L23.8027,15.6875 Z M3.0147,1.9995 L23.0037,1.9995 C23.3057,1.9995 23.6027,2.1245 23.7967,2.3335 C23.8787,2.4205 24.0127,2.6035 23.9937,2.9085 L23.9937,4.9995 L1.9997,4.9995 L1.9997,2.9085 C1.9997,2.4415 2.4927,1.9995 3.0147,1.9995 L3.0147,1.9995 Z M25.9907,2.9795 C26.0437,2.2465 25.7847,1.5325 25.2607,0.9705 C24.6867,0.3535 23.8647,-0.0005 23.0037,-0.0005 L3.0147,-0.0005 C1.3807,-0.0005 -0.0003,1.3325 -0.0003,2.9085 L-0.0003,15.0905 C-0.0003,16.6675 1.3807,18.0005 3.0147,18.0005 L23.0037,18.0005 C23.8797,18.0005 24.7047,17.6535 25.2667,17.0495 C25.7877,16.4905 26.0447,15.7695 25.9937,15.0905 L25.9907,2.9795 Z" id="Fill-1"></path>
            <polygon id="Fill-4" points="3.994 11 9.994 11 9.994 9 3.994 9"></polygon>
        </g>
    </g>
</svg>