<?xml version="1.0" encoding="UTF-8"?>
<svg width="32px" height="32px" viewBox="0 0 32 32" version="1.1" xmlns="http://www.w3.org/2000/svg" xmlns:xlink="http://www.w3.org/1999/xlink">
    <!-- Generator: Sketch 50.2 (55047) - http://www.bohemiancoding.com/sketch -->
    <title>navigation-card-32</title>
    <desc>Created with Sketch.</desc>
    <defs></defs>
    <g id="navigation-card-32" stroke="none" stroke-width="1" fill="none" fill-rule="evenodd">
        <g id="navigation-card-crop" transform="translate(2.000000, 6.000000)" fill="#FF0000" fill-rule="nonzero">
            <path d="M2,16 L2,3 C2,2.55228475 2.55228475,2 3,2 L25,2 C25.4477153,2 26,2.55228475 26,3 L26,16 C26,16.4477153 25.4477153,17 25,17 L3,17 C2.55228475,17 2,16.4477153 2,16 Z M25,19 C26.5522847,19 28,17.5522847 28,16 L28,3 C28,1.44771525 26.5522847,0 25,0 L3,0 C1.44771525,0 0,1.44771525 0,3 L0,16 C0,17.5522847 1.44771525,19 3,19 L25,19 Z" id="Shape"></path>
            <polygon id="Shape" points="2 4 2 6 26 6 26 4"></polygon>
            <polygon id="Shape" points="9.99999998 11 9.99999998 9 3.99999998 9 3.99999998 11"></polygon>
        </g>
    </g>
</svg>