<?xml version="1.0" encoding="UTF-8"?>
<svg width="32px" height="32px" viewBox="0 0 32 32" version="1.1" xmlns="http://www.w3.org/2000/svg" xmlns:xlink="http://www.w3.org/1999/xlink">
    <!-- Generator: Sketch 50.2 (55047) - http://www.bohemiancoding.com/sketch -->
    <title>chat-32</title>
    <desc>Created with Sketch.</desc>
    <defs></defs>
    <g id="chat-32" stroke="none" stroke-width="1" fill="none" fill-rule="evenodd">
        <g id="chat-32-crop" transform="translate(2.000000, 5.000000)" fill="#FF0000">
            <path d="M25.5439,2.8134 C23.7869,1.0254 21.2579,0.0004 18.6049,0.0004 L9.4419,0.0004 C4.1719,0.0004 0.0239,3.9514 -0.0001,9.0044 C0.0239,14.1324 3.9469,18.0004 9.1249,18.0004 L10.5659,18.0004 L16.9999,24.4074 L16.9999,16.0844 L14.9999,16.0844 L14.9999,19.5924 L11.3929,16.0004 L9.1249,16.0004 C5.0159,16.0004 2.0199,13.0544 1.9999,9.0044 C2.0199,5.0114 5.2189,2.0004 9.4419,2.0004 L18.6049,2.0004 C20.7249,2.0004 22.7339,2.8074 24.1169,4.2154 C25.3819,5.5014 26.0319,7.1504 25.9999,9.0174 C26.0329,10.8634 25.3509,12.5934 24.0779,13.8884 C22.7599,15.2304 20.9079,16.0004 18.9999,16.0004 L18.9999,18.0004 C21.4409,18.0004 23.8129,17.0114 25.5049,15.2904 C27.1559,13.6084 28.0419,11.3684 27.9999,9.0174 C28.0409,6.6704 27.1689,4.4674 25.5439,2.8134" id="Fill-1"></path>
        </g>
    </g>
</svg>