<?xml version="1.0" encoding="UTF-8"?>
<svg width="32px" height="32px" viewBox="0 0 32 32" version="1.1" xmlns="http://www.w3.org/2000/svg" xmlns:xlink="http://www.w3.org/1999/xlink">
    <!-- Generator: Sketch 50.2 (55047) - http://www.bohemiancoding.com/sketch -->
    <title>check-enclosed-32</title>
    <desc>Created with Sketch.</desc>
    <defs></defs>
    <g id="check-enclosed-32" stroke="none" stroke-width="1" fill="none" fill-rule="evenodd">
        <g id="check-enclosed-32-crop" transform="translate(3.000000, 3.000000)" fill="#FF0000">
            <path d="M13,24 C6.935,24 2,19.065 2,13 C2,6.935 6.935,2 13,2 C19.065,2 24,6.935 24,13 C24,19.065 19.065,24 13,24 M13,0 C5.832,0 0,5.832 0,13 C0,20.168 5.832,26 13,26 C20.168,26 26,20.168 26,13 C26,5.832 20.168,0 13,0" id="Fill-1"></path>
            <polygon id="Fill-3" points="11.5449 15.5928 8.2579 12.2508 6.8339 13.6548 11.5309 18.4268 19.5679 10.4368 18.1579 9.0188"></polygon>
        </g>
    </g>
</svg>