<?xml version="1.0" encoding="UTF-8"?>
<svg width="32px" height="32px" viewBox="0 0 32 32" version="1.1" xmlns="http://www.w3.org/2000/svg" xmlns:xlink="http://www.w3.org/1999/xlink">
    <title>Icons/32px/circlediagram-32</title>
    <g id="Icons/32px/circlediagram-32" stroke="none" stroke-width="1" fill="none" fill-rule="evenodd">
        <g>
            <rect id="invisible-32" x="0" y="0" width="32" height="32"></rect>
            <g id="outlines" transform="translate(2.000000, 2.000000)" fill="#FF0000" fill-rule="nonzero">
                <path d="M15,2 C22.1797017,2 28,7.82029825 28,15 C28,22.1797017 22.1797017,28 15,28 C7.82029825,28 2,22.1797017 2,15 L2,14 L14,14 L14,2 L15,2 Z M16,4.04484302 L16,16 L4.04484302,16 C4.55007179,21.6065 9.26195744,26 15,26 C21.0751322,26 26,21.0751322 26,15 C26,9.26195744 21.6065,4.55007179 16,4.04484302 Z M13,0 L13,13 L0,13 L0,12 C0,5.372583 5.372583,0 12,0 L13,0 Z M11,2.04937524 C6.27558355,2.51844387 2.51844387,6.27558355 2.04937524,11 L11,11 L11,2.04937524 Z" id="Combined-Shape"></path>
            </g>
        </g>
    </g>
</svg>