<?xml version="1.0" encoding="UTF-8"?>
<svg width="32px" height="32px" viewBox="0 0 32 32" version="1.1" xmlns="http://www.w3.org/2000/svg" xmlns:xlink="http://www.w3.org/1999/xlink">
    <!-- Generator: Sketch 50.2 (55047) - http://www.bohemiancoding.com/sketch -->
    <title>clipboard-32</title>
    <desc>Created with Sketch.</desc>
    <defs></defs>
    <g id="clipboard-32" stroke="none" stroke-width="1" fill="none" fill-rule="evenodd">
        <g id="clipboard-32-crop" transform="translate(5.000000, 2.000000)" fill="#FF0000" fill-rule="nonzero">
            <path d="M20,24.1895 C20,24.6515 19.645,25.0005 19.174,25.0005 L2.826,25.0005 C2.355,25.0005 2,24.6515 2,24.1895 L2,5.8065 C2,5.3675 2.372,5.0165 2.826,5.0065 L6,5.0065 L6,9.0005 L16,9.0005 L16,5.0065 L19.153,5.0065 C19.628,5.0165 20,5.3675 20,5.8065 L20,24.1895 Z M10,2 L12,2 L12,5 L14,5 L14,7 L8,7 L8,5 L10,5 L10,2 Z M14,3.0065 L14,0.0005 L8,0.0005 L8,3.0065 L2.806,3.0065 C1.232,3.0395 0,4.2695 0,5.8065 L0,24.1895 C0,25.7655 1.241,27.0005 2.826,27.0005 L19.174,27.0005 C20.759,27.0005 22,25.7655 22,24.1895 L22,5.8065 C22,4.2695 20.768,3.0395 19.174,3.0065 L14,3.0065 Z" id="Fill-1"></path>
            <polygon id="Fill-4" points="6 14 16 14 16 12 6 12"></polygon>
            <polygon id="Fill-6" points="6 18 16 18 16 16 6 16"></polygon>
            <polygon id="Fill-7" points="6 22 16 22 16 20 6 20"></polygon>
        </g>
    </g>
</svg>