<?xml version="1.0" encoding="UTF-8"?>
<svg width="32px" height="32px" viewBox="0 0 32 32" version="1.1" xmlns="http://www.w3.org/2000/svg" xmlns:xlink="http://www.w3.org/1999/xlink">
    <!-- Generator: Sketch 50.2 (55047) - http://www.bohemiancoding.com/sketch -->
    <title>clock-32</title>
    <desc>Created with Sketch.</desc>
    <defs></defs>
    <g id="clock-32" stroke="none" stroke-width="1" fill="none" fill-rule="evenodd">
        <g id="clock-32-crop" transform="translate(3.000000, 3.000000)" fill="#FF0000" fill-rule="nonzero">
            <path d="M13,0 C5.83370671,0 0,5.8337071 0,13 C0,20.1662929 5.83370671,26 13,26 C20.1662933,26 26,20.1662929 26,13 C26,5.8337071 20.1662933,0 13,0 Z M13,2 C19.0866667,2 24,6.91333333 24,13 C24,19.0866667 19.0866667,24 13,24 C6.91333333,24 2,19.0866667 2,13 C2,6.91333333 6.91333333,2 13,2 Z" id="Page-1"></path>
            <polygon id="Line" points="19.080279 16.7964483 17.794721 18.3285517 12 13.4663145 12 5 14 5 14 12.5336855"></polygon>
        </g>
    </g>
</svg>