<?xml version="1.0" encoding="UTF-8"?>
<svg width="32px" height="32px" viewBox="0 0 32 32" version="1.1" xmlns="http://www.w3.org/2000/svg" xmlns:xlink="http://www.w3.org/1999/xlink">
    <!-- Generator: Sketch 57.1 (83088) - https://sketch.com -->
    <title>Icons/32px/coins-32</title>
    <desc>Created with Sketch.</desc>
    <g id="Icons/32px/coins-32" stroke="none" stroke-width="1" fill="none" fill-rule="evenodd">
        <g id="outlines">
            <g>
                <rect id="invisible-32" x="0" y="0" width="32" height="32"></rect>
                <path d="M15,28 L15,30 L4,30 L4,28 L15,28 Z M21.5,13 C26.1944204,13 30,16.8055796 30,21.5 C30,26.1944204 26.1944204,30 21.5,30 C16.8055796,30 13,26.1944204 13,21.5 C13,16.8055796 16.8055796,13 21.5,13 Z M21.5,15 C17.9101491,15 15,17.9101491 15,21.5 C15,25.0898509 17.9101491,28 21.5,28 C25.0898509,28 28,25.0898509 28,21.5 C28,17.9101491 25.0898509,15 21.5,15 Z M13,25 L13,27 L4,27 L4,25 L13,25 Z M27,21.5 C27,24.5375661 24.5375661,27 21.5,27 L21.5,25 C23.4329966,25 25,23.4329966 25,21.5 L27,21.5 Z M12,22 L12,24 L4,24 L4,22 L12,22 Z M12,19 L12,21 L4,21 L4,19 L12,19 Z M13,16 L13,18 L4,18 L4,16 L13,16 Z M15,13 L15,15 L4,15 L4,13 L15,13 Z M19,10 L19,12 L4,12 L4,10 L19,10 Z M21,7 L21,9 L6,9 L6,7 L21,7 Z M17,4 L17,6 L2,6 L2,4 L17,4 Z" id="Combined-Shape" fill="#FF0000" fill-rule="nonzero"></path>
            </g>
        </g>
    </g>
</svg>