<?xml version="1.0" encoding="UTF-8"?>
<svg width="32px" height="32px" viewBox="0 0 32 32" version="1.1" xmlns="http://www.w3.org/2000/svg" xmlns:xlink="http://www.w3.org/1999/xlink">
    <title>Icons/32px/computer-32</title>
    <g id="Icons/32px/computer-32" stroke="none" stroke-width="1" fill="none" fill-rule="evenodd">
        <g>
            <rect id="invisible-32" x="0" y="0" width="32" height="32"></rect>
            <g id="outlines" transform="translate(2.000000, 2.000000)" fill="#FF0000" fill-rule="nonzero">
                <path d="M24,21 C22.8954305,21 22,21.8954305 22,23 L22,25 C22,26.1045695 22.8954305,27 24,27 C25.1045695,27 26,26.1045695 26,25 L26,23 C26,21.8954305 25.1045695,21 24,21 Z M25,22 L25,24 L23,24 L23,22 L25,22 Z M21.1428571,17 L22.5714286,17 C23.9118678,17 24.6930008,17.8017882 24.9207166,18.9661859 L24.9467435,19.112702 C26.6989284,19.5379476 28,21.117033 28,23 L28,25 C28,27.209139 26.209139,29 24,29 C21.790861,29 20,27.209139 20,25 L20,23 C20,21.1708112 21.2278148,19.6283939 22.9042513,19.1519412 C22.8536123,19.0250339 22.7724404,19 22.5714286,19 L21.1428571,19 C19.0920596,19 18,18.0695779 18,16 L14,16 L14,18 L17,18 L17,20 L6,20 L6,18 L9,18 L9,16 L0,16 L0,0 L23,0 L23,16 L20,16 C20,16.8876065 20.1319191,17 21.1428571,17 Z M12,16 L11,16 L11,18 L12,18 L12,16 Z M21,2 L2,2 L2,14 L21,14 L21,2 Z M8.34655236,3.51435687 L9.76076592,4.92857044 L4.92857044,9.76076592 L3.51435687,8.34655236 L8.34655236,3.51435687 Z M5.13578759,2.69845155 L6.52860337,4.13374393 L4.03882208,6.54984167 L2.6460063,5.1145493 L5.13578759,2.69845155 Z" id="Combined-Shape"></path>
            </g>
        </g>
    </g>
</svg>