<?xml version="1.0" encoding="UTF-8"?>
<svg width="32px" height="32px" viewBox="0 0 32 32" version="1.1" xmlns="http://www.w3.org/2000/svg" xmlns:xlink="http://www.w3.org/1999/xlink">
    <!-- Generator: Sketch 50.2 (55047) - http://www.bohemiancoding.com/sketch -->
    <title>contact-menu-32</title>
    <desc>Created with Sketch.</desc>
    <defs></defs>
    <g id="contact-menu-32" stroke="none" stroke-width="1" fill="none" fill-rule="evenodd">
        <g id="contact-menu-32-crop" transform="translate(0.750000, 3.000000)" fill="#FF0000" fill-rule="nonzero">
            <path d="M15.2440951,25.7797101 C13.3268491,25.7797101 11.7784924,24.2089134 11.7784924,22.2783741 C11.7784924,20.3478347 13.3268491,18.777038 15.2440951,18.777038 C17.161341,18.777038 18.7096978,20.3478347 18.7096978,22.2783741 C18.7096978,24.2089134 17.161341,25.7797101 15.2440951,25.7797101 Z M15.2440951,23.7797101 C16.0502787,23.7797101 16.7096978,23.1107342 16.7096978,22.2783741 C16.7096978,21.4460139 16.0502787,20.777038 15.2440951,20.777038 C14.4379115,20.777038 13.7784924,21.4460139 13.7784924,22.2783741 C13.7784924,23.1107342 14.4379115,23.7797101 15.2440951,23.7797101 Z" id="Oval"></path>
            <path d="M15.2440951,0.204617481 C18.5995844,0.204617481 21.7393963,1.70574364 23.8964108,4.24696686 L22.3716368,5.54120957 C20.5888871,3.44091536 18.0029999,2.20461748 15.2440951,2.20461748 C11.362603,2.20461748 7.92032085,4.62350608 6.5291593,8.16677841 L6.38779966,8.66200753 C6.06037569,9.60315373 5.88856367,10.6780164 5.88856367,11.7727625 C5.88856367,13.1091847 6.15766649,14.4167247 6.67269932,15.6358845 L7.25954402,17.0250338 L5.56660442,17.0250338 C2.79203081,17.0250338 0.56,14.7606547 0.56,11.9603627 C0.56,9.39369251 2.43513978,7.27724542 4.88448522,6.94196931 C6.7341395,2.87755452 10.7424079,0.204617481 15.2440951,0.204617481 Z M2.56,11.9603627 C2.56,13.1830571 3.25305117,14.2305376 4.26007743,14.7236061 C4.01473819,13.7653334 3.88856367,12.7756741 3.88856367,11.7727625 C3.88856367,10.9092935 3.97823398,10.0527781 4.14914702,9.25435681 C3.20250639,9.76826932 2.56,10.7830982 2.56,11.9603627 Z" id="Shape"></path>
            <path d="M23.9590309,8.16677841 L25.8841406,7.62460464 L25.9893413,8.00484315 C26.3923521,9.16325594 26.5996265,10.4599726 26.5996265,11.7727625 C26.5996265,16.0705535 24.2420349,20.0121733 20.5930609,21.9678357 C19.7228963,22.4431764 18.7727019,22.7937093 17.7988473,23.0054168 L17.373988,21.0510641 C18.1635754,20.8794146 18.9338357,20.5952606 19.6412719,20.208849 C22.6472911,18.5977477 24.5996265,15.3336692 24.5996265,11.7727625 C24.5996265,10.6780164 24.4278145,9.60315373 24.082311,8.60451223 L23.9590309,8.16677841 Z" id="Shape"></path>
            <path d="M10.4566983,4.71596804 L12.3881234,4.19674076 C12.4599845,4.46405012 12.7155981,4.95027153 13.2406307,5.45536294 C14.1679944,6.34750436 15.5827444,6.89569153 17.6480577,6.89569153 L25,6.89569153 L25,8.89569153 L17.6480577,8.89569153 C15.0749559,8.89569153 13.1611423,8.15412727 11.8540535,6.89668299 C11.0384147,6.11202298 10.6159875,5.30849296 10.4566983,4.71596804 Z" id="Shape"></path>
            <path d="M18.0454035,14.3224979 L19.4697544,15.7265009 C18.3201673,16.8927487 16.7808625,17.525301 15.182455,17.525301 C13.5840475,17.525301 12.0447428,16.8927487 10.8951556,15.7265009 L12.3195065,14.3224979 C13.0899419,15.104099 14.1149296,15.525301 15.182455,15.525301 C16.2499804,15.525301 17.2749681,15.104099 18.0454035,14.3224979 Z" id="Shape"></path>
            <path d="M24.9215858,8.89569153 L24.9215858,6.89569153 C27.6961594,6.89569153 29.9281902,9.16007061 29.9281902,11.9603627 C29.9281902,14.7606547 27.6961594,17.0250338 24.9215858,17.0250338 L24.9215858,15.0250338 C26.585097,15.0250338 27.9281902,13.6624756 27.9281902,11.9603627 C27.9281902,10.2582498 26.585097,8.89569153 24.9215858,8.89569153 Z" id="Shape"></path>
        </g>
    </g>
</svg>