<?xml version="1.0" encoding="UTF-8"?>
<svg width="32px" height="32px" viewBox="0 0 32 32" version="1.1" xmlns="http://www.w3.org/2000/svg" xmlns:xlink="http://www.w3.org/1999/xlink">
    <title>Icons/32px/cup-32</title>
    <g id="Icons/32px/cup-32" stroke="none" stroke-width="1" fill="none" fill-rule="evenodd">
        <g>
            <rect id="invisible-32" x="0" y="0" width="32" height="32"></rect>
            <g id="outlines" transform="translate(2.000000, 2.000000)" fill="#FF0000" fill-rule="nonzero">
                <path d="M21,28 L7,28 L7,26 L9,26 C10.1320646,26 11,25.2405565 11,24.375 L11.0004159,20.4880298 C7.50462151,19.252638 5,15.9188119 5,12 C2.32021592,12 0,9.99709967 0,7.5 C0,4.99187345 2.19512585,3 4.85714286,3 L5,3 L5,0 L23,0 L23,3 C25.7339287,3 28,4.98281241 28,7.5 C28,10.0171876 25.7339287,12 23,12 C23,15.9184405 20.4958532,19.2520062 17.000578,20.4876786 L17,24.375 C17,25.2405565 17.8679354,26 19,26 L21,26 L21,28 Z M14,21 C13.6620949,21 13.3285393,20.9813782 13.0003032,20.9451047 L13,24.375 C13,24.963239 12.8479064,25.5144342 12.5789183,26.0008103 L15.4210817,26.0008103 C15.1520936,25.5144342 15,24.963239 15,24.375 L15.0006955,20.9449943 C14.6721373,20.9813404 14.3382478,21 14,21 Z M21,2 L7,2 L7,3 L13,3 L13,5 L7,5 L7,12 C7,15.8659932 10.1340068,19 14,19 C17.8659932,19 21,15.8659932 21,12 L21,2 Z M23,5 L23,10 C24.6843493,10 26,8.84880566 26,7.5 C26,6.15119434 24.6843493,5 23,5 Z M5,5 L4.85714286,5 C3.25867751,5 2,6.1421333 2,7.5 C2,8.82184865 3.36480356,10 5,10 L5,5 Z" id="Combined-Shape"></path>
            </g>
        </g>
    </g>
</svg>