<?xml version="1.0" encoding="UTF-8"?>
<svg width="32px" height="32px" viewBox="0 0 32 32" version="1.1" xmlns="http://www.w3.org/2000/svg" xmlns:xlink="http://www.w3.org/1999/xlink">
    <title>Icons/32px/digital-services-32</title>
    <g id="Icons/32px/digital-services-32" stroke="none" stroke-width="1" fill="none" fill-rule="evenodd">
        <g>
            <rect id="invisible-32" x="0" y="0" width="32" height="32"></rect>
            <g id="lines" transform="translate(3.000000, 4.000000)" fill="#FF0000" fill-rule="nonzero">
                <path d="M17,0 C18.8182746,0 19.9194176,1.03620461 19.9957514,2.80093628 L20,3 L20,9 L23,9 C24.8182746,9 25.9194176,10.0362046 25.9957514,11.8009363 L26,12 L26,21 C26,22.8856181 24.8856181,24 23,24 L23,24 L18,24 C16.1143819,24 15,22.8856181 15,21 L15,21 L15,15 L11,15 L11,17 L14,17 L14,19 L6,19 L6,17 L9,17 L9,15 L3,15 C1.18172542,15 0.0805824279,13.9637954 0.00424858488,12.1990637 L0,12 L0,3 C0,1.18172542 1.03620461,0.0805824279 2.80093628,0.00424858488 L3,0 L17,0 Z M23,11 L18,11 C17.2189514,11 17,11.2189514 17,12 L17,12 L17,21 C17,21.7810486 17.2189514,22 18,22 L18,22 L23,22 C23.7810486,22 24,21.7810486 24,21 L24,21 L24,12 C24,11.2189514 23.7810486,11 23,11 L23,11 Z M20.5,18 C21.3284271,18 22,18.6715729 22,19.5 C22,20.3284271 21.3284271,21 20.5,21 C19.6715729,21 19,20.3284271 19,19.5 C19,18.6715729 19.6715729,18 20.5,18 Z M17,2 L3,2 C2.26489545,2 2.02770396,2.19395004 2.0023427,2.86793297 L2,3 L2,12 C2,12.7351045 2.19395004,12.972296 2.86793297,12.9976573 L3,13 L15,13 L15,12 C15,10.1817254 16.0362046,9.08058243 17.8009363,9.00424858 L18,9 L18,3 C18,2.26489545 17.80605,2.02770396 17.132067,2.0023427 L17,2 Z" id="Combined-Shape"></path>
            </g>
        </g>
    </g>
</svg>