<?xml version="1.0" encoding="UTF-8"?>
<svg width="32px" height="32px" viewBox="0 0 32 32" version="1.1" xmlns="http://www.w3.org/2000/svg" xmlns:xlink="http://www.w3.org/1999/xlink">
    <title>Icons/32px/e-invoice-32</title>
    <g id="Icons/32px/e-invoice-32" stroke="none" stroke-width="1" fill="none" fill-rule="evenodd">
        <g>
            <rect id="invisible-32" x="0" y="0" width="32" height="32"></rect>
            <g id="outlines" transform="translate(3.000000, 3.000000)" fill="#FF0000" fill-rule="nonzero">
                <path d="M26,0 L26,25.5629093 L18.537,22.118 L13,25.1390876 L7.462,22.118 L0,25.5629093 L0,0 L26,0 Z M23.999,2 L1.999,2 L1.999,22.437 L7.53745487,19.8813423 L13,22.861 L18.4625451,19.8813423 L23.999,22.437 L23.999,2 Z M12.9236984,6 C15.6649124,6 16.7936476,8.11413889 16.2024054,11.2315979 L11.3828854,11.2315979 C11.5083004,12.4857481 12.2070412,13.023241 13.3357764,13.023241 C14.1778486,13.023241 15.1274195,12.772411 15.8799096,12.4499152 L16.1307396,14.2236419 C15.2528345,14.7073856 14.2495144,14.9940485 13.2461942,14.9940485 C10.7916431,14.9940485 9,13.2740711 9,10.3895257 C9,7.3795652 11.0066403,6 12.9236984,6 Z M12.9416149,7.80955955 C12.0457933,7.80955955 11.4008018,8.54413324 11.3649689,9.69078483 L14.2853472,9.69078483 C14.3570129,8.5262168 13.9091022,7.80955955 12.9416149,7.80955955 Z" id="Combined-Shape"></path>
            </g>
        </g>
    </g>
</svg>