<?xml version="1.0" encoding="UTF-8"?>
<svg width="32px" height="32px" viewBox="0 0 32 32" version="1.1" xmlns="http://www.w3.org/2000/svg" xmlns:xlink="http://www.w3.org/1999/xlink">
    <!-- Generator: Sketch 50.2 (55047) - http://www.bohemiancoding.com/sketch -->
    <title>ellipsis-enclosed-32</title>
    <desc>Created with Sketch.</desc>
    <defs></defs>
    <g id="ellipsis-enclosed-32" stroke="none" stroke-width="1" fill="none" fill-rule="evenodd">
        <g id="ellipsis-enclosed-32-crop" transform="translate(3.000000, 3.000000)" fill="#FF0000">
            <path d="M13,24 C6.935,24 2,19.065 2,13 C2,6.935 6.935,2 13,2 C19.065,2 24,6.935 24,13 C24,19.065 19.065,24 13,24 M13,0 C5.832,0 0,5.832 0,13 C0,20.168 5.832,26 13,26 C20.168,26 26,20.168 26,13 C26,5.832 20.168,0 13,0" id="Fill-1"></path>
            <path d="M7.149,10.9998 C5.992,10.9998 5.182,11.8348 5.182,12.9088 C5.182,13.9828 6.108,14.8178 7.149,14.8178 C8.19,14.8178 9,13.9828 9,12.9088 C9,11.8348 8.306,10.9998 7.149,10.9998" id="Fill-3"></path>
            <path d="M18.9672,10.9998 C17.8102,10.9998 17.0002,11.8348 17.0002,12.9088 C17.0002,13.9828 17.9262,14.8178 18.9672,14.8178 C20.0082,14.8178 20.8182,13.9828 20.8182,12.9088 C20.8182,11.8348 20.1242,10.9998 18.9672,10.9998" id="Fill-5"></path>
            <path d="M13.058,11.0907 C11.901,11.0907 11.091,11.9257 11.091,12.9997 C11.091,14.0737 12.017,14.9087 13.058,14.9087 C14.099,14.9087 14.909,14.0737 14.909,12.9997 C14.909,11.9257 14.215,11.0907 13.058,11.0907" id="Fill-7"></path>
        </g>
    </g>
</svg>