<?xml version="1.0" encoding="UTF-8"?>
<svg width="32px" height="32px" viewBox="0 0 32 32" version="1.1" xmlns="http://www.w3.org/2000/svg" xmlns:xlink="http://www.w3.org/1999/xlink">
    <title>Icons/32px/family-32</title>
    <g id="Icons/32px/family-32" stroke="none" stroke-width="1" fill="none" fill-rule="evenodd">
        <g>
            <rect id="invisible-32" x="0" y="0" width="32" height="32"></rect>
            <g id="outlines" transform="translate(2.000000, 2.000000)" fill="#FF0000" fill-rule="nonzero">
                <path d="M10.5,0 C12.8638035,0 15.0621617,1.03247927 16.5720319,2.79112027 L15.0545696,4.09392804 C13.9207321,2.77327608 12.2742702,2 10.5,2 C7.1862915,2 4.5,4.6862915 4.5,8 C4.5,11.3137085 7.1862915,14 10.5,14 C13.8137085,14 16.5,11.3137085 16.5,8 C16.5,7.8893562 16.4970159,7.77913943 16.4910744,7.66942563 L11.9183165,7.66942563 C10.149095,7.66942563 8.39004276,6.38399358 7.53114046,4.58955061 L9.33513865,3.72607476 C9.88186619,4.8683134 10.9781499,5.66942563 11.9183165,5.66942563 L18.1996161,5.66942563 L18.3556844,6.48046172 C18.4514267,6.97800336 18.5,7.48616437 18.5,8 C18.5,9.97765156 17.7823952,11.7876975 16.593369,13.1839545 C17.5299294,12.4417936 18.7133715,12 20,12 C23.0375661,12 25.5,14.4624339 25.5,17.5 C25.5,18.321262 25.3199983,19.1004824 24.997295,19.8003611 C26.8184946,20.8509606 28,22.8123 28,25 L28,28 L26,28 L26,25 C26,23.4767397 25.1406543,22.1178076 23.8339887,21.4436591 C22.8431999,22.4068088 21.4908736,23 20,23 C18.5091264,23 17.1568001,22.4068088 16.1661657,21.4435709 C14.8594664,22.1175492 14,23.4766333 14,25 L14,28 L12,28 L12,25 C12,22.8125469 13.1812464,20.8513035 15.0026988,19.800696 C14.6801745,19.1012302 14.5,18.3216561 14.5,17.5 C14.5,16.2133715 14.9417936,15.0299294 15.6819563,14.0930983 C14.2876975,15.2823952 12.4776516,16 10.5,16 C8.47517678,16 6.62605007,15.2477538 5.21684303,14.0074844 L5.42893545,13.9033351 C3.08376913,15.016903 2,16.4188954 2,18.174506 L2,28 L3.34399175e-13,28 L3.34399175e-13,18.174506 C3.34399175e-13,15.7792598 1.33182661,13.8582162 3.85839041,12.46169 C3.00113558,11.1882827 2.5,9.65266458 2.5,8 C2.5,3.581722 6.081722,0 10.5,0 Z M20,14 C18.0670034,14 16.5,15.5670034 16.5,17.5 C16.5,19.4329966 18.0670034,21 20,21 C21.9329966,21 23.5,19.4329966 23.5,17.5 C23.5,15.5670034 21.9329966,14 20,14 Z" id="Combined-Shape"></path>
            </g>
        </g>
    </g>
</svg>