<?xml version="1.0" encoding="UTF-8"?>
<svg width="32px" height="32px" viewBox="0 0 32 32" version="1.1" xmlns="http://www.w3.org/2000/svg" xmlns:xlink="http://www.w3.org/1999/xlink">
    <title>Icons/32px/farm-32</title>
    <g id="Icons/32px/farm-32" stroke="none" stroke-width="1" fill="none" fill-rule="evenodd">
        <g>
            <rect id="invisible-32" x="0" y="0" width="32" height="32"></rect>
            <g id="outlines" transform="translate(1.000000, 1.000000)" fill="#FF0000" fill-rule="nonzero">
                <path d="M18,0.643431617 L30.6757246,12.2628459 L29.3242754,13.7371541 L27.9995556,12.5224316 L27.9995556,26.9994316 L29,27 L29,29 L1,29 L1,27 L3.88855556,26.9994316 L3.88899067,25.3344898 C3.17103677,25.1798943 2.50411053,24.8529626 1.94189493,24.3820094 L1.75984875,24.2210431 C0.854911844,23.3763591 0.330555556,22.1969289 0.330555556,20.9360772 C0.330555556,18.4497325 2.3532245,16.4360772 4.84622243,16.4360772 C6.04423422,16.4360772 7.16778909,16.9045628 8.00132899,17.7163923 L7.99955556,12.5224316 L6.67572463,13.7371541 L5.32427537,12.2628459 L18,0.643431617 Z M7.99970086,24.1572057 C7.41443712,24.7265818 6.68605389,25.1272046 5.889156,25.3151193 L5.88855556,26.9994316 L7.99955556,26.9994316 Z M18,3.356 L9.99955556,10.6894316 L10,27 L12.9995556,26.9994316 L13,18.1111111 L23,18.1111111 L22.9995556,26.9994316 L26,27 L25.9995556,15.9994316 L12,16 L12,14 L25.9995556,13.9994316 L25.9995556,10.6894316 L18,3.356 Z M17.9995556,25.0034316 L16.2255556,26.9994316 L19.7735556,26.9994316 L17.9995556,25.0034316 Z M20.9995556,21.6284316 L19.3365556,23.4994316 L20.9995556,25.3704316 L20.9995556,21.6284316 Z M14.9995556,21.6284316 L14.9995556,25.3704316 L16.6625556,23.4994316 L14.9995556,21.6284316 Z M4.84622243,18.4360772 C3.45579933,18.4360772 2.33055556,19.5563066 2.33055556,20.9360772 C2.33055556,21.6363741 2.62046976,22.2884757 3.12436187,22.7588174 C3.58833174,23.1916705 4.19673822,23.4360772 4.84622243,23.4360772 C5.606379,23.4360772 6.30893819,23.1003038 6.80519341,22.5058919 L6.80519341,22.5058919 L6.999,22.287 L6.999,19.806 L6.695,19.243 L6.63657514,19.1795346 C6.2113199,18.7509753 5.64550163,18.4871871 5.03170739,18.4427675 L5.03170739,18.4427675 Z M19.6745556,20.1104316 L16.3245556,20.1104316 L17.9995556,21.9954316 L19.6745556,20.1104316 Z M18,7 C20.2089949,7 22,8.7908733 22,11 L22,11 L22,12 L14,12 L14,11 C14,8.79077939 15.7907794,7 18,7 Z M18,9 C17.2970402,9 16.6788392,9.3625793 16.3221918,9.91094301 L16.3221918,9.91094301 L16.268,10 L19.731,10 L19.6777596,9.91099905 C19.3465493,9.40179984 18.7898219,9.05275202 18.1492485,9.005486 L18.1492485,9.005486 Z" id="Combined-Shape"></path>
            </g>
        </g>
    </g>
</svg>