<?xml version="1.0" encoding="UTF-8"?>
<svg width="32px" height="32px" viewBox="0 0 32 32" version="1.1" xmlns="http://www.w3.org/2000/svg" xmlns:xlink="http://www.w3.org/1999/xlink">
    <!-- Generator: Sketch 50.2 (55047) - http://www.bohemiancoding.com/sketch -->
    <title>gear-32</title>
    <desc>Created with Sketch.</desc>
    <defs></defs>
    <g id="gear-32" stroke="none" stroke-width="1" fill="none" fill-rule="evenodd">
        <g id="gear-32-crop" transform="translate(3.000000, 2.900000)" fill="#FF0000">
            <path d="M13.002,15.2793 C11.827,15.2793 10.871,14.3233 10.871,13.1483 C10.871,11.9733 11.827,11.0173 13.002,11.0173 C14.177,11.0173 15.133,11.9733 15.133,13.1483 C15.133,14.3233 14.177,15.2793 13.002,15.2793 M13.002,9.0173 C10.724,9.0173 8.871,10.8703 8.871,13.1483 C8.871,15.4263 10.724,17.2793 13.002,17.2793 C15.28,17.2793 17.133,15.4263 17.133,13.1483 C17.133,10.8703 15.28,9.0173 13.002,9.0173" id="Fill-1"></path>
            <path d="M20.7871,15.5557 C20.3911,16.6117 19.7811,17.6437 19.0221,18.5407 L18.5671,19.0777 L20.0611,21.6587 L16.9421,23.4817 L15.4391,20.8847 L14.7241,21.0437 C14.0921,21.1837 13.5771,21.2427 13.0021,21.2427 C12.4001,21.2427 11.8141,21.1767 11.3061,21.0497 L10.5761,20.8667 L9.0611,23.4817 L5.9431,21.6587 L7.4531,19.0497 L6.9531,18.5087 C6.0861,17.5697 5.5421,16.6527 5.2401,15.6247 L5.0291,14.9067 L2.0001,14.9067 L2.0001,11.3157 L4.9731,11.3157 L5.2171,10.6667 C5.6131,9.6107 6.2231,8.5787 6.9821,7.6817 L7.4361,7.1437 L5.9431,4.5637 L9.0611,2.7407 L10.5661,5.3387 L11.2811,5.1797 C11.9101,5.0387 12.4241,4.9797 13.0021,4.9797 C13.6051,4.9797 14.1911,5.0467 14.6981,5.1737 L15.4291,5.3567 L16.9421,2.7407 L20.0611,4.5637 L18.5511,7.1727 L19.0511,7.7137 C19.9171,8.6527 20.4621,9.5697 20.7641,10.5977 L20.9751,11.3157 L24.0041,11.3157 L24.0041,14.9067 L21.0311,14.9067 L20.7871,15.5557 Z M26.0041,16.9067 L26.0041,9.3157 L22.4371,9.3157 C22.1061,8.4747 21.6401,7.6927 21.0091,6.9187 L22.7901,3.8427 L16.2181,-0.0003 L14.4331,3.0847 C13.5181,2.9467 12.5441,2.9397 11.5741,3.0887 L9.7861,-0.0003 L3.2141,3.8427 L5.0111,6.9467 C4.4541,7.6867 3.9801,8.4897 3.6101,9.3157 L0.0001,9.3157 L0.0001,16.9067 L3.5671,16.9067 C3.8981,17.7477 4.3651,18.5307 4.9951,19.3037 L3.2141,22.3807 L9.7861,26.2227 L11.5721,23.1387 C12.4871,23.2767 13.4581,23.2847 14.4301,23.1337 L16.2181,26.2227 L22.7901,22.3807 L20.9931,19.2757 C21.5491,18.5357 22.0231,17.7337 22.3931,16.9067 L26.0041,16.9067 Z" id="Fill-3"></path>
        </g>
    </g>
</svg>