<?xml version="1.0" encoding="UTF-8"?>
<svg width="28px" height="29px" viewBox="0 0 28 29" version="1.1" xmlns="http://www.w3.org/2000/svg" xmlns:xlink="http://www.w3.org/1999/xlink">
    <!-- Generator: Sketch 52.2 (67145) - http://www.bohemiancoding.com/sketch -->
    <title>outlines</title>
    <desc>Created with Sketch.</desc>
    <g id="Page-1" stroke="none" stroke-width="1" fill="none" fill-rule="evenodd">
        <g id="outlines" fill="#FF0000" fill-rule="nonzero">
            <path d="M15.8361379,10.2804958 C19.7348064,12.0832802 22.0885892,14.3207813 22.7830515,17 L26,17 L26,9.72727273 C26,7.186219 24.0605472,4.96909247 19.9804662,3.08820056 C17.7448716,4.03717342 16.0362104,5.38331111 15.0919487,6.62887806 L13.498165,5.42063397 C14.71432,3.81641525 16.8616432,2.15956223 19.6340461,1.06936701 L20.0222944,0.916695688 L20.4039327,1.08521129 C25.394508,3.28884195 28,6.16503441 28,9.72727273 L28,19 L23,19 L23,29 L7,29 L7,23 L0,23 L0,12.7272727 C0,9.16541082 2.60239951,6.28912618 7.58712245,4.0853935 L7.99146754,3.90663362 L8.39581263,4.0853935 C12.644966,5.96393282 15.1901261,8.01763317 15.8361379,10.2804958 Z M13.7741598,10.4646322 C13.1519027,9.08566452 11.2400532,7.58265498 7.99258328,6.09693615 C3.93088763,7.97581726 2,10.1898736 2,12.7272727 L2,21 L7,21 L7,18.7272727 C7,15.3660207 9.3197755,12.6155832 13.7741598,10.4646322 Z M9,18.7272727 L9,27 L21,27 L21,18.7272727 C21,16.1902776 19.0667377,13.9761757 15,12.0972157 C10.9332623,13.9761757 9,16.1902776 9,18.7272727 Z" id="Combined-Shape"></path>
        </g>
    </g>
</svg>