<svg width="32" height="32" viewBox="0 0 32 32" fill="none" xmlns="http://www.w3.org/2000/svg">
<g clip-path="url(#clip0_2_18)">
<path fill-rule="evenodd" clip-rule="evenodd" d="M9 4C6.79086 4 5 5.79086 5 8C5 10.2091 6.79086 12 9 12C11.2091 12 13 10.2091 13 8H10C9.95432 8 9.90472 8.00062 9.85172 8.00127L9.85166 8.00127C9.44563 8.00631 8.84029 8.01383 8.27418 7.76616C7.56852 7.45743 7.05468 6.84543 6.60557 5.94721L8.39443 5.05279C8.74532 5.75457 8.98148 5.89257 9.07582 5.93384C9.22761 6.00025 9.37925 6.0002 9.91068 6.00002H9.91069L10 6H14.7174L14.88 6.80107C14.9588 7.18928 15 7.59035 15 8C15 9.2401 14.6238 10.3923 13.9793 11.3488C14.6107 11.123 15.291 11 16 11C16.5499 11 17.2563 11.0739 17.9895 11.3019C17.3641 10.3548 17 9.21991 17 8C17 4.68629 19.6863 2 23 2C24.2738 2 26.3867 2.39657 27.7286 4.18571L26.1286 5.38571C25.3276 4.31772 23.9779 4 23 4C20.7909 4 19 5.79086 19 8C19 10.2091 20.7909 12 23 12C25.2091 12 27 10.2091 27 8H24C23.9543 8 23.9047 8.00062 23.8517 8.00127L23.8517 8.00127C23.4456 8.00631 22.8403 8.01383 22.2742 7.76616C21.5685 7.45743 21.0547 6.84543 20.6056 5.94721L22.3944 5.05279C22.7453 5.75457 22.9815 5.89257 23.0758 5.93384C23.2276 6.00025 23.3792 6.0002 23.9107 6.00002L24 6H28.7174L28.88 6.80107C28.9588 7.18928 29 7.59035 29 8C29 9.32928 28.5677 10.5576 27.8361 11.552C28.401 11.8456 28.8479 12.2248 29.1875 12.6587C29.7971 13.4376 30 14.3149 30 15V21H28V15C28 14.6851 27.9029 14.2624 27.6125 13.8913C27.3741 13.5867 26.9588 13.2566 26.2161 13.0661C25.2866 13.6575 24.1833 14 23 14C22.076 14 21.2007 13.7911 20.4189 13.418L19.1286 14.3857C18.3276 13.3177 16.9779 13 16 13C13.7909 13 12 14.7909 12 17C12 19.2091 13.7909 21 16 21C18.2091 21 20 19.2091 20 17H17C16.9544 17 16.9048 17.0006 16.8518 17.0013H16.8518H16.8517H16.8517C16.4456 17.0063 15.8403 17.0138 15.2742 16.7662C14.5685 16.4574 14.0547 15.8454 13.6056 14.9472L15.3944 14.0528C15.7453 14.7546 15.9815 14.8926 16.0758 14.9338C16.2276 15.0002 16.3792 15.0002 16.9106 15H16.9106H16.9107H16.9107H16.9107H16.9107H16.9107L17 15H21.7174L21.88 15.8011C21.9588 16.1893 22 16.5903 22 17C22 18.3293 21.5677 19.5576 20.8361 20.552C21.401 20.8456 21.8479 21.2248 22.1875 21.6587C22.7971 22.4376 23 23.3149 23 24V30H21V24C21 23.6851 20.9029 23.2624 20.6125 22.8913C20.3741 22.5867 19.9588 22.2566 19.2161 22.0661C18.2866 22.6575 17.1833 23 16 23C14.8167 23 13.7134 22.6575 12.7839 22.0661C12.0412 22.2566 11.6259 22.5867 11.3875 22.8913C11.0971 23.2624 11 23.6851 11 24V30H9V24C9 23.3149 9.20295 22.4376 9.81249 21.6587C10.1521 21.2248 10.599 20.8456 11.1639 20.552C10.4323 19.5576 10 18.3293 10 17C10 15.7599 10.3762 14.6077 11.0207 13.6512C10.3893 13.877 9.70903 14 9 14C7.81671 14 6.71343 13.6575 5.78389 13.0661C5.04115 13.2566 4.62589 13.5867 4.38751 13.8913C4.09705 14.2624 4 14.6851 4 15V21H2V15C2 14.3149 2.20295 13.4376 2.81249 12.6587C3.15205 12.2248 3.59901 11.8456 4.16391 11.552C3.43227 10.5576 3 9.32928 3 8C3 4.68629 5.68629 2 9 2C10.2738 2 12.3867 2.39657 13.7286 4.18571L12.1286 5.38571C11.3276 4.31772 9.97785 4 9 4Z" fill="#FF0000"/>
</g>
<defs>
<clipPath id="clip0_2_18">
<rect width="32" height="32" fill="white"/>
</clipPath>
</defs>
</svg>
