<?xml version="1.0" encoding="UTF-8"?>
<svg width="32px" height="32px" viewBox="0 0 32 32" version="1.1" xmlns="http://www.w3.org/2000/svg" xmlns:xlink="http://www.w3.org/1999/xlink">
    <!-- Generator: Sketch 50.2 (55047) - http://www.bohemiancoding.com/sketch -->
    <title>guide-32</title>
    <desc>Created with Sketch.</desc>
    <defs></defs>
    <g id="guide-32" stroke="none" stroke-width="1" fill="none" fill-rule="evenodd">
        <g id="guide-32-crop" transform="translate(3.000000, 3.000000)" fill="#FF0000">
            <polygon id="Fill-1" points="12.0003 24 14.0003 24 14.0003 0 12.0003 0"></polygon>
            <polygon id="Fill-2" points="13 2 13 4.001 19.172 4.001 20.6698001 5.4999 19.172 7.001 15 7.001 15 9 20 9 23.4998 5.4999 20 2"></polygon>
            <polygon id="Fill-2-Copy" points="13 10 13 12.001 21.172 12.001 22.6698001 13.4999 21.172 15.001 15 15.001 15 17 22 17 25.4998 13.4999 22 10"></polygon>
            <polygon id="Fill-2" transform="translate(6.749900, 8.500100) rotate(-180.000000) translate(-6.749900, -8.500100) " points="2.5 5.0001 2.5 7.0011 8.672 7.0011 10.1698001 8.5 8.672 10.0011 0.5 10.0011 0.5 12.0001 9.5 12.0001 12.9998 8.5 9.5 5.0001"></polygon>
            <rect id="Rectangle-4" x="8" y="24" width="10" height="2"></rect>
        </g>
    </g>
</svg>