<?xml version="1.0" encoding="UTF-8"?>
<svg width="32px" height="32px" viewBox="0 0 32 32" version="1.1" xmlns="http://www.w3.org/2000/svg" xmlns:xlink="http://www.w3.org/1999/xlink">
    <!-- Generator: Sketch 50.2 (55047) - http://www.bohemiancoding.com/sketch -->
    <title>heart-32</title>
    <desc>Created with Sketch.</desc>
    <defs></defs>
    <g id="heart-32" stroke="none" stroke-width="1" fill="none" fill-rule="evenodd">
        <g id="heart-32-crop" transform="translate(3.000000, 5.000000)" fill="#FF0000">
            <path d="M22.5083,10.8901 L13.0153,20.3821 L3.5223,10.8901 C1.5263,8.8931 1.5263,5.5191 3.5223,3.5221 C4.5213,2.5241 5.8633,2.0241 7.2063,2.0241 C8.5483,2.0241 9.8913,2.5241 10.8903,3.5221 L13.0153,5.6471 L15.1403,3.5221 C17.1393,1.5261 20.5113,1.5271 22.5083,3.5221 C24.5053,5.5191 24.5053,8.8931 22.5083,10.8901 M23.9223,2.1081 C21.1123,-0.7019 16.5373,-0.7039 13.7263,2.1081 L13.0153,2.8191 L12.3043,2.1081 C9.4923,-0.7039 4.9173,-0.7019 2.1083,2.1081 C-0.7027,4.9191 -0.7027,9.4931 2.1083,12.3041 L13.0153,23.2101 L23.9223,12.3041 C25.2723,10.9541 26.0163,9.1441 26.0163,7.2051 C26.0163,5.2681 25.2723,3.4571 23.9223,2.1081" id="Fill-1"></path>
        </g>
    </g>
</svg>