<?xml version="1.0" encoding="UTF-8"?>
<svg width="32px" height="32px" viewBox="0 0 32 32" version="1.1" xmlns="http://www.w3.org/2000/svg" xmlns:xlink="http://www.w3.org/1999/xlink">
    <!-- Generator: Sketch 50.2 (55047) - http://www.bohemiancoding.com/sketch -->
    <title>heartbeat-32</title>
    <desc>Created with Sketch.</desc>
    <defs></defs>
    <g id="heartbeat-32" stroke="none" stroke-width="1" fill="none" fill-rule="evenodd">
        <g id="heartbeat-32-crop" transform="translate(2.000000, 3.000000)" fill="#FF0000">
            <path d="M3.7622,2.7666 C4.2502,2.2716 4.9072,1.9996 5.6112,1.9996 C6.3162,1.9996 6.9732,2.2716 7.4612,2.7666 L9.0002,4.3276 L10.5392,2.7666 C11.5142,1.7766 13.2622,1.7766 14.2382,2.7666 C15.2512,3.7936 15.2512,5.5286 14.2382,6.5556 L9.0002,11.8676 L3.7622,6.5556 C2.7492,5.5286 2.7492,3.7936 3.7622,2.7666 L3.7622,2.7666 Z M9.0002,14.7146 L15.6622,7.9596 C17.4562,6.1406 17.4562,3.1816 15.6622,1.3626 C14.7962,0.4836 13.6332,-0.0004 12.3892,-0.0004 C11.1442,-0.0004 9.9822,0.4836 9.1162,1.3626 L9.0002,1.4796 L8.8852,1.3626 C8.0182,0.4836 6.8562,-0.0004 5.6112,-0.0004 C4.3672,-0.0004 3.2042,0.4836 2.3382,1.3626 C0.5442,3.1816 0.5442,6.1406 2.3382,7.9596 L9.0002,14.7146 Z" id="Fill-1"></path>
            <polygon id="Fill-4" points="26.6138 17 22.0568 9.105 14.1228 21.012 11.1708 15.113 7.4718 20 -0.0002 20 -0.0002 22 8.4658 22 10.8228 18.887 13.8768 24.988 21.9348 12.895 25.4598 19 28.0498 19 28.0498 17"></polygon>
        </g>
    </g>
</svg>