<?xml version="1.0" encoding="UTF-8"?>
<svg width="32px" height="32px" viewBox="0 0 32 32" version="1.1" xmlns="http://www.w3.org/2000/svg" xmlns:xlink="http://www.w3.org/1999/xlink">
    <!-- Generator: Sketch 50.2 (55047) - http://www.bohemiancoding.com/sketch -->
    <title>house-sun-32</title>
    <desc>Created with Sketch.</desc>
    <defs></defs>
    <g id="house-sun-32" stroke="none" stroke-width="1" fill="none" fill-rule="evenodd">
        <g id="house-sun-32-crop" transform="translate(3.000000, 3.000000)" fill="#FF0000">
            <path d="M21,0 L19,0 C19,3.859 22.14,7 26,7 L26,5 C23.196,5 21,2.804 21,0 L21,0 Z" id="Fill-1"></path>
            <polygon id="Fill-3" points="15.6865 8.8604 17.0965 10.2784 20.1835 7.2094 18.7735 5.7914"></polygon>
            <polygon id="Fill-5" points="12.957 3 17 3 17 1 12.957 1"></polygon>
            <polygon id="Fill-7" points="23 13 25 13 25 9 23 9"></polygon>
            <polygon id="Fill-8" points="0 14.9492 0 26.0002 2 26.0002 2 15.9492 9.684 10.1782 17 15.9342 17 26.0002 19 26.0002 19 14.9642 9.712 7.6572"></polygon>
            <polygon id="Fill-9" points="6 26 8 26 8 20 11 20 11 26 13 26 13 18 6 18"></polygon>
        </g>
    </g>
</svg>