<?xml version="1.0" encoding="UTF-8"?>
<svg width="32px" height="32px" viewBox="0 0 32 32" version="1.1" xmlns="http://www.w3.org/2000/svg" xmlns:xlink="http://www.w3.org/1999/xlink">
    <!-- Generator: Sketch 50.2 (55047) - http://www.bohemiancoding.com/sketch -->
    <title>id-card-32</title>
    <desc>Created with Sketch.</desc>
    <defs></defs>
    <g id="id-card-32" stroke="none" stroke-width="1" fill="none" fill-rule="evenodd">
        <g id="id-card-32-crop" transform="translate(3.000000, 7.000000)" fill="#FF0000" fill-rule="nonzero">
            <path d="M24,14.5996 C24,15.34375 23.343375,15.9996 22.6,15.9996 C10.9604167,15.9996 4.49475,15.9996 3.203,15.9996 C2.53125,15.9996 2,15.3125 2,14.5996 L2,3.3996 C2,2.6276 2.628,1.9996 3.4,1.9996 L22.6,1.9996 C23.372,1.9996 24,2.6276 24,3.3996 L24,14.5996 Z M3.4,-0.0004 C1.525,-0.0004 0,1.5256 0,3.3996 L0,14.5996 C0,16.1326 1.53125,17.9806 3.203,17.9806 L22.6,18 C24.40625,18 26,16.328125 26,14.5996 L26,3.3996 C26,1.5256 24.475,-0.0004 22.6,-0.0004 L3.4,-0.0004 Z" id="Fill-1"></path>
            <polygon id="Fill-4" points="15 8 22 8 22 6 15 6"></polygon>
            <polygon id="Fill-6" points="15 12 22 12 22 10 15 10"></polygon>
            <path d="M9,9.4932 C8.175,9.4932 7.504,8.8222 7.504,7.9972 C7.504,7.1722 8.175,6.5002 9,6.5002 C9.825,6.5002 10.496,7.1722 10.496,7.9972 C10.496,8.8222 9.825,9.4932 9,9.4932 M9,4.5002 C7.073,4.5002 5.504,6.0682 5.504,7.9972 C5.504,9.9252 7.073,11.4932 9,11.4932 C10.928,11.4932 12.496,9.9252 12.496,7.9972 C12.496,6.0682 10.928,4.5002 9,4.5002" id="Fill-7"></path>
            <path d="M15,16 L13,16 C13,13.790861 11.209139,12 9,12 C6.790861,12 5,13.790861 5,16 L3,16 C3,12.6862915 5.6862915,10 9,10 C12.3137085,10 15,12.6862915 15,16 Z" id="Oval-5"></path>
        </g>
    </g>
</svg>