<?xml version="1.0" encoding="UTF-8"?>
<svg width="32px" height="32px" viewBox="0 0 32 32" version="1.1" xmlns="http://www.w3.org/2000/svg" xmlns:xlink="http://www.w3.org/1999/xlink">
    <!-- Generator: Sketch 50.2 (55047) - http://www.bohemiancoding.com/sketch -->
    <title>instagram-32</title>
    <desc>Created with Sketch.</desc>
    <defs></defs>
    <g id="instagram-32" stroke="none" stroke-width="1" fill="none" fill-rule="evenodd">
        <g transform="translate(2.000000, 2.000000)" fill="#FF0000">
            <path d="M2,2 L2,26 L26,26 L26,2 L2,2 Z M0,0 L28,0 L28,28 L0,28 L0,0 Z" id="Rectangle-3" fill-rule="nonzero"></path>
            <g id="Group" transform="translate(6.000000, 6.000000)">
                <path d="M5.33194667,7.99712 C5.33194667,9.46965333 6.52501333,10.6632533 7.99754667,10.6632533 C9.47008,10.6632533 10.6631467,9.46965333 10.6631467,7.99712 C10.6631467,6.52512 9.47008,5.33152 7.99754667,5.33152 C6.52501333,5.33152 5.33194667,6.52512 5.33194667,7.99712 Z" id="Fill-1"></path>
                <path d="M11.285821,3.71473491 C11.285821,3.16220573 11.7332918,2.71417905 12.285821,2.71417905 C12.8383501,2.71417905 13.285821,3.16220573 13.285821,3.71473491 C13.285821,4.26670823 12.8383501,4.71473491 12.285821,4.71473491 C11.7332918,4.71473491 11.285821,4.26670823 11.285821,3.71473491 Z M3.89183422,7.99973325 C3.89183422,5.7307859 5.7313194,3.89183422 7.99973325,3.89183422 C10.2686806,3.89183422 12.1081658,5.7307859 12.1081658,7.99973325 C12.1081658,10.2686806 10.2686806,12.1076323 7.99973325,12.1076323 C5.7313194,12.1076323 3.89183422,10.2686806 3.89183422,7.99973325 Z M15.5796072,2.75976126 C15.3752793,2.23320329 15.1021306,1.78720283 14.6571972,1.34280284 C14.2122637,0.897869361 13.7662632,0.624187256 13.2402387,0.419859291 C12.7312861,0.221933247 12.1497783,0.0869594212 11.2983228,0.0480144043 C10.4452669,0.00906938748 10.1726518,-3.01980663e-14 7.99973325,-3.01980663e-14 C5.8273482,-3.01980663e-14 5.55473309,0.00906938748 4.70167717,0.0480144043 C3.85022173,0.0869594212 3.26871395,0.221933247 2.75976126,0.419859291 C2.23373679,0.624187256 1.78773632,0.897869361 1.34280284,1.34280284 C0.897869361,1.78720283 0.62472075,2.23320329 0.419859291,2.75976126 C0.22246674,3.26818045 0.0869594212,3.84968824 0.0480144043,4.70167717 C0.00906938748,5.55473309 3.01980663e-14,5.8273482 3.01980663e-14,7.99973325 C3.01980663e-14,10.1726518 0.00906938748,10.4447334 0.0480144043,11.2983228 C0.0869594212,12.1497783 0.22246674,12.7312861 0.419859291,13.2402387 C0.62472075,13.7662632 0.897869361,14.2122637 1.34280284,14.6571972 C1.78773632,15.1015971 2.23373679,15.3752793 2.75976126,15.5796072 C3.26871395,15.7775333 3.85022173,15.9125071 4.70167717,15.9514521 C5.55473309,15.9903971 5.8273482,15.9994665 7.99973325,15.9994665 C10.1726518,15.9994665 10.4452669,15.9903971 11.2983228,15.9514521 C12.1497783,15.9125071 12.7312861,15.7775333 13.2402387,15.5796072 C13.7662632,15.3752793 14.2122637,15.1015971 14.6571972,14.6571972 C15.1021306,14.2122637 15.3752793,13.7662632 15.5796072,13.2402387 C15.7775333,12.7312861 15.9130406,12.1497783 15.9519856,11.2983228 C15.9909306,10.4447334 16,10.1726518 16,7.99973325 C16,5.8273482 15.9909306,5.55473309 15.9519856,4.70167717 C15.9130406,3.84968824 15.7775333,3.26818045 15.5796072,2.75976126 Z" id="Fill-3"></path>
            </g>
        </g>
    </g>
</svg>