<?xml version="1.0" encoding="UTF-8"?>
<svg width="32px" height="32px" viewBox="0 0 32 32" version="1.1" xmlns="http://www.w3.org/2000/svg" xmlns:xlink="http://www.w3.org/1999/xlink">
    <!-- Generator: Sketch 50.2 (55047) - http://www.bohemiancoding.com/sketch -->
    <title>login-device-32</title>
    <desc>Created with Sketch.</desc>
    <defs></defs>
    <g id="login-device-32" stroke="none" stroke-width="1" fill="none" fill-rule="evenodd">
        <g id="login-device-crop" transform="translate(7.000000, 4.000000)" fill="#FF0000">
            <path d="M14.8689987,0.924144502 L14.9507591,0.00443455945 L15.0325194,0.010100941 L15.1137556,0.0180667233 L15.1942431,0.0281676643 L15.2745061,0.0404037638 L15.3542448,0.0549392643 L15.4327856,0.07144568 L15.5109521,0.0900872543 L15.5887442,0.110946107 L15.6658625,0.133775877 L15.741633,0.158576561 L15.8168794,0.18534816 L15.8913772,0.214090675 L15.9650513,0.244804106 L16.0377522,0.27740633 L16.1094048,0.311733104 L16.1803086,0.348112917 L16.2502392,0.38621728 L16.3192712,0.426210436 L16.3869556,0.467681778 L16.4536666,0.510959794 L16.5193295,0.555880235 L16.583944,0.602525238 L16.6475854,0.650894781 L16.7098789,0.700824639 L16.7709746,0.752068437 L16.8310219,0.805118904 L16.8900212,0.859893922 L16.9475978,0.915900772 L17.0037519,0.97330368 L17.0589326,1.03234901 L17.1125411,1.09262617 L17.1648767,1.15421728 L17.2162389,1.21769718 L17.265954,1.28216253 L17.3140219,1.34761334 L17.3610415,1.41487083 L17.4067135,1.48352438 L17.4506634,1.55316338 L17.4931159,1.6239521 L17.5341458,1.69597262 L17.5736783,1.7693071 L17.6115635,1.84370915 L17.6479514,1.9192609 L17.682692,1.99596236 L17.7157106,2.07348502 L17.7470821,2.15223952 L17.7768063,2.23197947 L17.8048085,2.31270487 L17.8310136,2.39449785 L17.855422,2.47702993 L17.8780334,2.56021899 L17.8989227,2.64472198 L17.9177904,2.72988195 L17.9347863,2.81545252 L17.9499106,2.90200855 L17.9631629,2.98955004 L17.9743188,3.07742001 L17.9835281,3.16561847 L17.9907907,3.25463815 L17.9959569,3.34447903 L17.9990266,3.43431993 L18,3.51676989 L18,20.0233436 L18,20.4832301 L17.9990266,20.5656801 L17.9959569,20.6555209 L17.9907907,20.7452797 L17.9835281,20.8342994 L17.9743188,20.9226621 L17.9631629,21.0104499 L17.9499854,21.0978272 L17.9347863,21.1844653 L17.9177904,21.270118 L17.8988477,21.355278 L17.8780334,21.4396167 L17.855422,21.52297 L17.8310136,21.6055021 L17.8048085,21.6871309 L17.7768063,21.7679384 L17.7470821,21.8477605 L17.7157106,21.9264328 L17.6826172,22.0041197 L17.6479514,22.0806569 L17.6116385,22.1561265 L17.5736034,22.2308571 L17.5341458,22.3040274 L17.4932657,22.3758836 L17.4505886,22.4470008 L17.4065638,22.5165577 L17.3611913,22.5848828 L17.3141716,22.6521403 L17.2658042,22.7180017 L17.2162389,22.7822207 L17.1650264,22.8456184 L17.1125411,22.9073738 L17.0589326,22.9676509 L17.0037519,23.0266963 L16.9473732,23.0842635 L16.8898714,23.1402703 L16.8312466,23.1946347 L16.7711243,23.2476852 L16.7098789,23.2991753 L16.6475854,23.3491052 L16.583944,23.3974747 L16.5193295,23.4441197 L16.4536666,23.4890402 L16.3869556,23.5323182 L16.3190466,23.5739537 L16.2500146,23.6138648 L16.1803086,23.6518871 L16.1096294,23.6880205 L16.0377522,23.7225937 L15.9650513,23.7551138 L15.8913772,23.7859093 L15.8168794,23.8146518 L15.7419325,23.8413413 L15.665563,23.8663062 L15.5887442,23.8890538 L15.5112516,23.9098306 L15.4327856,23.9285543 L15.3539453,23.9450607 L15.2745061,23.959514 L15.1945427,23.9718323 L15.1137556,23.9819332 L15.0325194,23.9898991 L14.9507591,23.9955654 L14.8686993,23.9989324 L14.7935277,24 L3.20647227,24 L3.13137556,23.9989324 L3.04924087,23.9955654 L2.96755542,23.9898991 L2.88624433,23.9819332 L2.80545734,23.9718323 L2.72541907,23.959514 L2.64605465,23.9450607 L2.56728921,23.9285543 L2.48874838,23.9098306 L2.41125577,23.8890538 L2.334437,23.8663062 L2.25806746,23.8413413 L2.1831205,23.8146518 L2.10869764,23.7859093 L2.03494863,23.7551138 L1.96224782,23.7225937 L1.89044548,23.6881027 L1.81969135,23.6518871 L1.75006031,23.6138648 L1.68102824,23.5740359 L1.61296951,23.5322361 L1.54633334,23.4890402 L1.48067052,23.4441197 L1.41613078,23.3974747 L1.35241462,23.3491052 L1.29004617,23.2990932 L1.22887567,23.2476852 L1.16882825,23.1946347 L1.11027827,23.1403524 L1.05262676,23.0842635 L0.996173202,23.0266142 L0.941142214,22.9677331 L0.887458923,22.9073738 L0.834898713,22.8454542 L0.783835949,22.7823849 L0.734345489,22.7180838 L0.685753503,22.6520581 L0.638808701,22.5847185 L0.593436212,22.5165577 L0.54948629,22.4470008 L0.506884075,22.3759658 L0.465929037,22.3040274 L0.426396572,22.2306929 L0.388361548,22.1561265 L0.352123455,22.0808212 L0.317457676,22.004284 L0.284289339,21.9264328 L0.25284306,21.8475962 L0.223193711,21.7678562 L0.195191547,21.6871309 L0.169061187,21.6056664 L0.144578013,21.5231343 L0.121891768,21.4394525 L0.101152198,21.355278 L0.0822095585,21.2703644 L0.0651387212,21.1843011 L0.0500145587,21.0976629 L0.0369119417,21.0106142 L0.0256811277,20.9228263 L0.0164718602,20.8341351 L0.00928413928,20.7451155 L0.00411796484,20.6556852 L0.000973336914,20.5656801 L0,20.4830658 L0,3.51693412 L0.000973336914,3.43431993 L0.00411796484,3.3443148 L0.00928413928,3.25480239 L0.0164718602,3.16578272 L0.0256811277,3.07725577 L0.0369119417,2.9893858 L0.0500894305,2.90217279 L0.065213593,2.81561677 L0.0822095585,2.7297177 L0.101152198,2.64472198 L0.12196664,2.56038323 L0.144578013,2.4768657 L0.169061187,2.39433362 L0.195266419,2.31270487 L0.223193711,2.23214371 L0.25284306,2.15240376 L0.284289339,2.07348502 L0.317382804,1.99579812 L0.352123455,1.91917878 L0.38843642,1.84370915 L0.4263217,1.76938922 L0.465929037,1.69597262 L0.506958944,1.62378785 L0.549336552,1.55316338 L0.593361343,1.48352438 L0.63888357,1.41503507 L0.68590325,1.34777759 L0.734195751,1.28208041 L0.783835949,1.21761505 L0.83504846,1.1542994 L0.887458923,1.09262617 L0.941142214,1.03226689 L0.996173202,0.973385798 L1.05240214,0.915900772 L1.11005366,0.859811804 L1.16905287,0.805118904 L1.22910028,0.752068437 L1.29004617,0.700824639 L1.35241462,0.650894781 L1.41613078,0.602525238 L1.48067052,0.555880235 L1.54633334,0.510959794 L1.61296951,0.4677639 L1.68080362,0.426128315 L1.74976082,0.38621728 L1.81969135,0.348112917 L1.89074498,0.311733104 L1.96224782,0.27740633 L2.03494863,0.244804106 L2.10869764,0.214090675 L2.1831205,0.18534816 L2.25836695,0.158576561 L2.33413751,0.133775877 L2.41125577,0.110946107 L2.48904787,0.0900872543 L2.56728921,0.07144568 L2.64575516,0.0549392643 L2.72541907,0.0404037638 L2.80575682,0.0281676643 L2.88624433,0.0180667233 L2.96755542,0.010100941 L3.04924087,0.00443455945 L3.1310012,0.0010675788 L3.20617278,0 L14.7938272,0 L14.8689987,0.0010675788 L14.8689987,0.924144502 Z M2.94991408,2.00155005 L2.89877501,2.00585576 L2.84856715,2.01291712 L2.7991353,2.02273412 L2.75117787,2.03504844 L2.70399645,2.04994618 L2.65782385,2.06725511 L2.61281525,2.08697525 L2.56858267,2.10910656 L2.52566931,2.13347686 L2.48360955,2.16034446 L2.44279142,2.18945102 L2.4035253,2.22036598 L2.365268,2.25369214 L2.32887312,2.28874058 L2.29371986,2.32594188 L2.26019622,2.36495156 L2.22853501,2.40551131 L2.18453523,2.46923573 L2.1444931,2.5367492 L2.10910704,2.60693218 L2.07845463,2.67978471 L2.05253589,2.75556513 L2.03158362,2.83349838 L2.01583061,2.91401507 L2.00535447,2.99720129 L2.00046561,3.08314317 L2,20.8793111 L2.00139682,20.9457051 L2.0082257,21.0306135 L2.02048667,21.1130247 L2.0380245,21.1928525 L2.06060639,21.2700107 L2.08807715,21.3446717 L2.12051439,21.4170075 L2.15737487,21.4861572 L2.19881381,21.5524649 L2.24421041,21.61507 L2.27672524,21.6547685 L2.31110248,21.6929171 L2.34672135,21.7288267 L2.38428025,21.7632723 L2.42308076,21.7953929 L2.46304528,21.8253606 L2.50456183,21.8533477 L2.54669918,21.8787513 L2.59062136,21.9022604 L2.63516434,21.9231862 L2.68079374,21.9417007 L2.72743196,21.957804 L2.77515659,21.9714101 L2.82373482,21.9824327 L2.87363228,21.9908718 L2.92415055,21.9966416 L2.97591042,21.9994833 L14.9901003,22 L15.0501635,21.9984499 L15.101225,21.9941442 L15.1515104,21.9869967 L15.2008647,21.9771797 L15.2488221,21.9649515 L15.2956931,21.9501399 L15.3421761,21.9327448 L15.3872623,21.9130247 L15.4314173,21.8908073 L15.4744858,21.8663508 L15.5163904,21.8396555 L15.5572862,21.8105489 L15.5965523,21.7795478 L15.6345768,21.7463939 L15.6713597,21.7110871 L15.7062025,21.6741442 L15.7397262,21.6351345 L15.7715425,21.5944026 L15.81562,21.5305059 L15.8555069,21.4632508 L15.8908929,21.3931539 L15.9216229,21.3200431 L15.9474641,21.2445209 L15.9684164,21.1663294 L15.984247,21.0858127 L15.9947231,21.0026264 L15.999612,20.9168568 L16,3.12086114 L15.9986032,3.05412271 L15.9917742,2.96912809 L15.9795909,2.88714747 L15.9620531,2.80740581 L15.9393935,2.73007535 L15.9119228,2.65532831 L15.8795632,2.58316469 L15.8427027,2.51392895 L15.801419,2.44779332 L15.7713874,2.40533907 L15.7398813,2.36503767 L15.7062025,2.32585575 L15.6711268,2.28874058 L15.634732,2.25369214 L15.5965523,2.2204521 L15.5572862,2.18945102 L15.5163904,2.16034446 L15.474253,2.13347686 L15.4314173,2.10910656 L15.3872623,2.08697525 L15.3421761,2.06725511 L15.2960811,2.04994618 L15.2488221,2.03504844 L15.2008647,2.02273412 L15.1515104,2.01291712 L15.101225,2.00585576 L15.0501635,2.00155005 L14.9897899,2 L3.01021007,2 L2.94991408,2.00155005 Z" id="Fill-1"></path>
            <path d="M8,11.9999999 C8,13.1049412 7.10494117,14 6,14 C4.89505883,14 4,13.1049412 4,11.9999999 C4,10.8950588 4.89505883,10 6,10 C7.10494117,10 8,10.8950588 8,11.9999999" id="Fill-2"></path>
            <path d="M12.0514355,14.0514355 C10.9464943,14.0514355 10.0514355,13.1563767 10.0514355,12.0514354 C10.0514355,10.9464943 10.9464943,10.0514355 12.0514355,10.0514355 C13.1563766,10.0514355 14.0514355,10.9464943 14.0514355,12.0514354 C14.0514355,13.1563767 13.1563766,14.0514355 12.0514355,14.0514355 L12.0514355,14.0514355 Z" id="Fill-3" transform="translate(12.051435, 12.051435) rotate(-2.000000) translate(-12.051435, -12.051435) "></path>
            <path d="M8,17.0000001 C8,18.1049412 7.10494117,19 6,19 C4.89505883,19 4,18.1049412 4,17.0000001 C4,15.8950588 4.89505883,15 6,15 C7.10494117,15 8,15.8950588 8,17.0000001" id="Fill-4"></path>
            <path d="M14,17.0000001 C14,18.1049412 13.1049412,19 12,19 C10.8950588,19 10,18.1049412 10,17.0000001 C10,15.8950588 10.8950588,15 12,15 C13.1049412,15 14,15.8950588 14,17.0000001" id="Fill-5"></path>
            <polygon id="Fill-6" points="4 7 14 7 14 5 4 5"></polygon>
        </g>
    </g>
</svg>