<?xml version="1.0" encoding="UTF-8"?>
<svg width="32px" height="32px" viewBox="0 0 32 32" version="1.1" xmlns="http://www.w3.org/2000/svg" xmlns:xlink="http://www.w3.org/1999/xlink">
    <!-- Generator: Sketch 50.2 (55047) - http://www.bohemiancoding.com/sketch -->
    <title>login-bankid-32</title>
    <desc>Created with Sketch.</desc>
    <defs></defs>
    <g id="login-bankid-32" stroke="none" stroke-width="1" fill="none" fill-rule="evenodd">
        <g id="login-bankid-crop" transform="translate(2.000000, 2.000000)" fill="#FF0000">
            <path d="M28.1909397,9.0161893 C28.1748742,9.58493629 28.0913333,10.145307 27.9925302,10.7031649 C27.8503501,11.508122 27.6294488,12.2896256 27.3314329,13.046838 C26.9338106,14.057013 26.4100738,14.9884514 25.750583,15.8378026 C25.4565834,16.2155712 25.1416988,16.5723992 24.8027157,16.9049362 C24.1215364,17.5733604 23.3680623,18.1370816 22.5430964,18.5986127 C21.6924257,19.0735458 20.7975746,19.425348 19.8601499,19.6615581 C19.4119211,19.7737998 18.9604793,19.8667762 18.5010045,19.9136831 C18.2576115,19.9371366 18.0134152,19.9689663 17.7684156,19.9823682 C17.4519243,19.9982831 17.1338264,20.0033089 16.8165318,20.0066593 C16.4566636,20.0100099 16.0967953,20.007497 15.7361238,20.007497 L15.6003699,20.007497 C15.9024022,18.0055746 16.2028279,16.0128661 16.5040569,14.0134566 C16.6349912,14.005918 16.7594991,13.999217 16.8832039,13.9908408 C17.4101539,13.9564982 17.9242514,13.8593337 18.4238899,13.6775692 C19.055266,13.4472225 19.6127405,13.0920698 20.0681987,12.5769307 C20.4320834,12.1656572 20.6939518,11.6890489 20.8690662,11.1605078 C21.0321316,10.6654718 21.1124594,10.1545209 21.1478035,9.63268088 C21.178328,9.17952607 21.1478035,8.7347475 21.0313283,8.29834517 C20.8465745,7.61065553 20.4537719,7.09300362 19.8464941,6.75544099 C19.4994783,6.56278737 19.1291674,6.44468233 18.7443976,6.37348425 C18.3564146,6.30144855 17.9660218,6.27464457 17.5716127,6.27464457 C17.0189577,6.27548219 16.4654996,6.27548219 15.9128448,6.27464457 C15.679091,6.27464457 15.4541734,6.23276334 15.2396984,6.13559891 C15.0854691,6.06523846 14.9497152,5.9672364 14.8356499,5.83656699 C14.6340272,5.6070579 14.6436665,5.28959824 14.8123548,5.01569506 C14.9304366,4.82304144 15.0935019,4.67729479 15.2694196,4.54578776 C15.461403,4.40255397 15.6397305,4.24591821 15.7923532,4.05745272 C15.9763038,3.83213174 16.1048281,3.57749392 16.1096478,3.278462 C16.1144674,2.98529345 16.0212873,2.72144176 15.8228777,2.50449703 C15.5971568,2.25823545 15.3103867,2.13426704 14.9995184,2.06055609 C14.6878467,1.98600751 14.3713555,1.9617164 14.0532577,1.9927085 C13.4757012,2.04799171 12.9575873,2.25320971 12.5430961,2.6921249 C12.3478997,2.89901814 12.2105393,3.14109159 12.1888508,3.44012351 C12.1768016,3.61351176 12.2161622,3.77684853 12.2852441,3.93264667 C12.3896701,4.16801914 12.5567519,4.34727076 12.7527515,4.50139366 C12.8684235,4.59269472 12.9736528,4.69572253 13.0355052,4.8356058 C13.1503738,5.09359413 13.0828986,5.32812897 12.9407184,5.54926182 C12.8129974,5.74610355 12.6402927,5.89268783 12.4418832,6.00576713 C12.1928672,6.14648803 11.9285889,6.23611384 11.6450321,6.25705445 C11.520524,6.26710595 11.3968193,6.27296932 11.2723113,6.27464457 C10.961443,6.27715744 10.6505746,6.27464457 10.3405095,6.27464457 L10.2031491,6.27464457 C10.214395,6.17748013 10.2208212,6.09204244 10.2336736,6.00828 C10.3380997,5.31975273 10.4449356,4.63122545 10.5493617,3.94353579 C10.6939516,2.9869687 10.8377382,2.02956398 10.9823281,1.07299689 C11.031328,0.74967386 11.0835411,0.427188457 11.1325411,0.105540678 C11.1373607,0.0703604517 11.1373607,0.0343426014 11.1397705,0 L18.9604793,0 C18.9902005,0.00418812212 19.0199217,0.0125643664 19.049643,0.0134019908 C19.4384292,0.0209406107 19.825609,0.0519327143 20.2127886,0.0921386868 C20.648165,0.13820803 21.0819348,0.200192237 21.5124915,0.285629929 C22.4129655,0.464043932 23.2877346,0.727895625 24.1223397,1.1316306 C25.0131744,1.5638448 25.8108289,2.12756603 26.4759425,2.88812901 C26.9257778,3.40243042 27.2840395,3.9778784 27.560367,4.61028483 C27.7668093,5.08186738 27.9210386,5.57187767 28.0246613,6.07780283 C28.110612,6.49745266 28.182907,6.920453 28.191743,7.35099195 C28.1933495,7.42972864 28.2053987,7.50762771 28.2142348,7.58552679 C28.2134315,7.98088552 28.2134315,8.37540663 28.2134315,8.77076535 C28.2053987,8.85285255 28.1925462,8.93410212 28.1909397,9.0161893 Z" id="Fill-1"></path>
            <path d="M3.12683757,6.78090477 L3.23447674,6.78090477 C3.6055909,6.78090477 3.97750833,6.78258001 4.34862249,6.78006715 C4.73740874,6.77755427 5.11655567,6.7097067 5.47321084,6.54301944 C5.85878398,6.36460543 6.18089821,6.1066171 6.39617655,5.71963463 C6.6789302,5.21287184 6.60904506,4.68684371 6.22588174,4.27892061 C6.15439006,4.20353442 6.07084922,4.13987496 5.99614441,4.0695145 C5.93670189,4.01423129 5.87484953,3.96062333 5.82343978,3.89863912 C5.60976799,3.63730031 5.61137455,3.35837136 5.82584961,3.09703255 C6.03711156,2.84071947 6.30781605,2.68157083 6.61386473,2.58608165 C7.07494596,2.44201024 7.54004356,2.45541224 8.00273134,2.57351728 C8.15374749,2.61204801 8.29512431,2.67989558 8.41882903,2.78292339 C8.65017292,2.97725225 8.69033679,3.30978916 8.55056652,3.56275173 C8.41963231,3.80063706 8.22282935,3.97318769 8.01156739,4.12982347 C7.80592838,4.28143349 7.61796147,4.45230886 7.46935515,4.66422785 C7.29263412,4.9163528 7.19142117,5.19611935 7.21150311,5.51357901 C7.22676538,5.75900297 7.31994556,5.97175957 7.47337154,6.1543617 C7.74648585,6.47852236 8.09992791,6.65358586 8.49996004,6.73567304 C8.59153366,6.75410079 8.68712368,6.76331466 8.78110714,6.76415228 C9.17471305,6.76666515 9.56912226,6.76498991 9.96272817,6.76498991 L10.0984821,6.76498991 C10.0800067,6.90654843 10.0639411,7.03470497 10.0446625,7.16202388 C9.979597,7.59004996 9.91292498,8.01807605 9.8478595,8.44610212 C9.76431866,8.98636987 9.68158109,9.52663764 9.5996468,10.067743 C9.51369611,10.6356524 9.42854871,11.2035617 9.34259803,11.7723087 C9.26387685,12.2933111 9.18274583,12.8143135 9.10402465,13.3353158 C9.04779523,13.7013577 8.98031993,14.0657244 8.94176261,14.4334416 C8.86464798,15.1814402 8.72728755,15.9202249 8.62045166,16.6631977 C8.51682887,17.3843924 8.40758314,18.1030741 8.29994398,18.8234311 C8.24532112,19.1886354 8.19150153,19.5555148 8.13607539,19.9207192 C8.13205899,19.9466855 8.12322295,19.9734894 8.11599346,20.001131 L1.13711947,20.001131 C1.79982333,15.5952266 2.46172389,11.1968607 3.12683757,6.78090477" id="Fill-4"></path>
            <path d="M2.17527518,24.7607643 C2.34797981,24.7833802 2.77532338,24.7783545 2.9062576,24.7490376 C3.25166688,24.6719761 3.4677485,24.4558691 3.51915825,24.0831261 C3.56333851,23.7715299 3.41714203,23.5470465 3.11912612,23.4917633 C2.98256895,23.4666346 2.84038886,23.4683099 2.70142187,23.4632841 C2.59217614,23.459096 2.48293042,23.4624464 2.36886503,23.4624464 C2.30299628,23.900524 2.24034064,24.3277125 2.17527518,24.7607643 M1.85155439,26.9486393 C1.87645599,26.9536651 1.89091498,26.9595284 1.90537397,26.9595284 C2.11342282,26.9595284 2.32227494,26.9637165 2.52952051,26.9553403 C2.62270068,26.9511523 2.71748742,26.929374 2.8066512,26.8983819 C2.97132307,26.8405857 3.10948678,26.7417461 3.20347024,26.5825974 C3.27737176,26.458629 3.31030613,26.3237715 3.32797823,26.1813754 C3.35528967,25.9644306 3.25568327,25.7575373 3.09261796,25.6720997 C2.97533945,25.6117907 2.85404457,25.57326 2.72230708,25.57326 C2.53273361,25.5724224 2.34396343,25.5724224 2.15438997,25.57326 C2.12145559,25.57326 2.08932449,25.579961 2.05317701,25.5841491 C1.98489844,26.0440049 1.91822641,26.4938092 1.85155439,26.9486393 M0,27.6413547 C0.0136557157,27.6011487 0.0337376504,27.5634557 0.0401638695,27.5224121 C0.120491609,26.9896829 0.197606238,26.4561162 0.2771307,25.9233871 C0.335769949,25.5305412 0.395212477,25.1376953 0.454655003,24.7448495 C0.52052375,24.3009086 0.587999051,23.8578052 0.653867797,23.4147019 C0.689212002,23.1743037 0.722949653,22.9322302 0.759097135,22.6801053 C0.793638062,22.6775923 0.825769158,22.671729 0.858703531,22.671729 C1.83147246,22.6708914 2.80584792,22.6658656 3.77861685,22.6742419 C4.10233764,22.6775923 4.41882893,22.7446024 4.69113996,22.9464698 C4.90722158,23.1056185 5.0309263,23.3217256 5.05341807,23.5989793 C5.09438521,24.0973658 4.90159865,24.4776473 4.51281238,24.7557386 C4.43810759,24.8093466 4.35537002,24.8503901 4.27664883,24.8964595 C4.24451774,24.9157248 4.21238664,24.9341525 4.16659983,24.9609566 C4.24853412,25.0036754 4.31841926,25.0388556 4.38669784,25.0757111 C4.60358273,25.1929785 4.7859267,25.347939 4.89677897,25.579961 C4.98674605,25.7684265 5.00923782,25.9686187 4.99156571,26.1780249 C4.9706805,26.4251241 4.90963142,26.6588213 4.79154964,26.8740908 C4.5441402,27.3238951 4.16740311,27.5952854 3.68704322,27.707527 C3.54084674,27.7418697 3.38822403,27.7577845 3.23801116,27.7577845 C2.15920963,27.7619727 1.07960481,27.7602974 0,27.7602974 L0,27.6413547" id="Fill-2"></path>
            <path d="M7.53241243,26.9830656 C7.31713409,27.1195985 7.08016726,27.2293273 6.80303655,27.2243016 C6.61828275,27.2209511 6.4463814,27.0685034 6.47529938,26.8222418 C6.49698787,26.6371268 6.59177461,26.5056197 6.74680713,26.4268831 C6.8616758,26.3682494 6.98377396,26.3238553 7.10426558,26.2786235 C7.19262609,26.2459562 7.28500299,26.2233403 7.37497005,26.1915106 C7.46333057,26.1596808 7.54928126,26.1219878 7.64969092,26.0817818 C7.61113362,26.3774633 7.57337957,26.6672813 7.53241243,26.9830656 M9.15824586,26.7175387 C9.05301653,26.69241 9.00241006,26.6270753 9.00160678,26.5165089 C9.0008035,26.4377721 9.00241006,26.3581978 9.01365593,26.2802988 C9.07470502,25.8522728 9.14860654,25.4259219 9.19840974,24.9962206 C9.23134411,24.7139412 9.17431141,24.446739 8.99036089,24.2214179 C8.85380373,24.053893 8.67868926,23.94919 8.48509941,23.875479 C8.14370652,23.743972 7.78785463,23.7364334 7.43200275,23.7590493 C6.84480698,23.7967424 6.32749634,24.0337901 5.85034957,24.3805666 C5.81179226,24.4082082 5.80054637,24.4433885 5.79412015,24.4886201 C5.753153,24.7734125 5.70897275,25.0565296 5.66639905,25.3404842 C5.65515316,25.416708 5.64712039,25.4929319 5.63587451,25.5859082 C5.67362855,25.5641299 5.69612031,25.5524032 5.7178088,25.5381636 C5.80375948,25.4803675 5.88810361,25.4208961 5.97485756,25.3647753 C6.26966037,25.1771474 6.5741025,25.0112978 6.9187085,24.9468007 C7.10506886,24.9116205 7.29303576,24.8973809 7.48100268,24.9367493 C7.66254337,24.9744423 7.75411699,25.0766324 7.76937926,25.2634228 C7.77580548,25.3413218 7.75813337,25.403306 7.67941219,25.4334605 C7.50911738,25.4979576 7.34203569,25.5716685 7.16933104,25.6261141 C6.85203648,25.7257914 6.52831569,25.8095538 6.21102111,25.9092312 C5.87364462,26.0156095 5.59651392,26.2107759 5.42380927,26.5433129 C5.31777666,26.7493685 5.28243246,26.9688261 5.33223565,27.19666 C5.408547,27.5451117 5.65675972,27.7000722 5.96521824,27.7813218 C6.02305421,27.796399 6.08089018,27.8139892 6.13872615,27.8307416 L6.61587293,27.8307416 C6.87452825,27.7796465 7.13398684,27.7319019 7.37497005,27.6154721 C7.47377317,27.5677275 7.57016647,27.5149572 7.67298597,27.4621869 C7.75492027,27.5911811 7.86255944,27.6933712 8.00634609,27.7419535 C8.10113283,27.7746207 8.20234577,27.7930485 8.30034561,27.8181773 C8.31480461,27.8223653 8.3292636,27.8265534 8.34372259,27.8307416 L8.88995121,27.8307416 C8.94537736,27.8198525 8.97750845,27.7888604 9.00000022,27.7302267 C9.09960662,27.4747512 9.20563923,27.2217886 9.30845874,26.9671508 C9.33577017,26.9001408 9.36227833,26.8314557 9.39199959,26.7569071 C9.30524563,26.7426675 9.23054083,26.7359664 9.15824586,26.7175387" id="Fill-3"></path>
            <path d="M25.8215124,25.9214605 C25.6480045,26.2498093 25.3668574,26.4298985 25.0190383,26.5019343 C24.7531534,26.5572175 24.4848589,26.533764 24.1988921,26.5354392 C24.3250067,25.6517454 24.4591539,24.7797784 24.5884817,23.8910589 C24.8864975,23.8868708 25.1756774,23.8600668 25.4552179,23.9480174 C25.8070534,24.0585838 26.0038564,24.3190849 26.0528563,24.6901526 C26.109889,25.1248797 26.0239383,25.5395038 25.8215124,25.9214605 M27.6521816,24.0359679 C27.4690344,23.491512 27.1171988,23.1087176 26.6103308,22.8825591 C26.2874133,22.7376501 25.9452171,22.6748282 25.5941849,22.6739906 C24.783678,22.6723153 23.9723678,22.6739906 23.1618609,22.6739906 L23.0494021,22.6739906 C22.7979763,24.3685048 22.5473537,26.0563181 22.2943214,27.7592085 L22.3818786,27.7592085 C23.2574509,27.7592085 24.1330233,27.7575332 25.0077924,27.7592085 C25.2431527,27.7592085 25.4761031,27.7391055 25.7050372,27.6846599 C26.1741512,27.5732558 26.5822161,27.3445844 26.9260188,26.995295 C27.2208216,26.6962631 27.4377065,26.341948 27.5855095,25.9440764 C27.8168535,25.3166957 27.8698698,24.6792635 27.6521816,24.0359679" id="Fill-5"></path>
            <path d="M13.7498598,27.7545178 C13.7578926,27.7260386 13.7659254,27.7009098 13.7707449,27.6741059 C13.8101056,27.4094165 13.8494662,27.1447272 13.8888267,26.8808755 C13.9699578,26.3280434 14.0510888,25.7752113 14.1338263,25.2223792 C14.167564,24.9962206 14.1852361,24.7692244 14.1402525,24.5422281 C14.0816133,24.2406834 13.927384,24.0153623 13.6614993,23.8763167 C13.3811554,23.7305701 13.0823363,23.7322453 12.7843204,23.7691008 C12.4935339,23.804281 12.2356819,23.9366257 12.0019282,24.1192278 C11.9304365,24.174511 11.8581415,24.2289566 11.7713875,24.2951289 C11.7930761,24.1242536 11.8123546,23.9743187 11.8324366,23.8151701 L10.3359308,23.8151701 C10.1415377,25.1285652 9.94714459,26.4377721 9.75194819,27.7536802 L11.2492572,27.7536802 C11.2564867,27.7185 11.2637162,27.6875078 11.2685359,27.6573534 C11.3255686,27.2753966 11.3826013,26.8942775 11.4388307,26.5131583 C11.4854208,26.197374 11.5304043,25.8824272 11.5794042,25.5674804 C11.5858305,25.5214111 11.5906502,25.4686407 11.6155517,25.4334605 C11.7561253,25.2341059 11.9288299,25.0766324 12.172223,25.0397771 C12.3850914,25.0079473 12.5995665,25.1042742 12.5883206,25.4024684 C12.583501,25.5197358 12.5682387,25.6370033 12.5505666,25.753433 C12.4863044,26.2015621 12.4188292,26.6488535 12.3529604,27.096145 C12.3216326,27.3130897 12.2895014,27.5308721 12.2557638,27.7545178 L13.7498598,27.7545178" id="Fill-6"></path>
            <path d="M15.2712671,22.6774249 C15.2632344,22.7142803 15.2560049,22.7444348 15.2511852,22.7737516 C15.1796935,23.2562233 15.1090052,23.738695 15.0375134,24.2211667 C14.9346939,24.909694 14.8326777,25.5982213 14.7298582,26.2867485 C14.6720222,26.6754062 14.6101698,27.0640639 14.5563502,27.4535593 C14.5434979,27.5507238 14.5057438,27.6495634 14.5290389,27.7551042 L16.0134955,27.7551042 C16.1018559,27.1620661 16.1910198,26.5698656 16.2825934,25.9575621 C16.3066917,25.9893918 16.3195441,26.0027938 16.3291835,26.0187087 C16.6729862,26.5707032 17.016789,27.1226977 17.3581818,27.6763674 C17.3951326,27.7358388 17.4328866,27.7618051 17.503575,27.7618051 C18.0674757,27.7584546 18.6321797,27.7592923 19.1968837,27.7592923 C19.2217854,27.7592923 19.2466869,27.7567793 19.2956868,27.7551042 C18.8016713,26.9937035 18.3189015,26.2482177 17.8329188,25.498544 C18.4434096,24.9373356 19.0434578,24.3861787 19.6659977,23.8157565 C19.6009323,23.8124059 19.5647848,23.8090554 19.5286373,23.8090554 C19.0330151,23.8090554 18.5365897,23.8182693 18.0401643,23.8040298 C17.8658531,23.7998416 17.7437549,23.8568 17.6224601,23.9782556 C17.3027557,24.2965529 16.9742152,24.6047986 16.6472813,24.9163949 C16.5765929,24.9842425 16.5026913,25.0495773 16.4295932,25.1157496 C16.5227733,24.2982281 16.6537076,23.4941086 16.7645598,22.6782624 C16.2601016,22.6774249 15.7725123,22.6774249 15.2712671,22.6774249" id="Fill-7"></path>
            <path d="M20.51458,22.6802728 C20.2623509,24.3789752 20.0125316,26.0651131 19.7627124,27.7529263 L21.4825292,27.7529263 C21.7339551,26.0617626 21.9837744,24.3756247 22.2360035,22.6802728 L20.51458,22.6802728 L20.51458,22.6802728 Z" id="Fill-8"></path>
        </g>
    </g>
</svg>