<?xml version="1.0" encoding="UTF-8"?>
<svg width="32px" height="32px" viewBox="0 0 32 32" version="1.1" xmlns="http://www.w3.org/2000/svg" xmlns:xlink="http://www.w3.org/1999/xlink">
    <title>Icons/32px/mc-32</title>
    <g id="Icons/32px/mc-32" stroke="none" stroke-width="1" fill="none" fill-rule="evenodd">
        <g>
            <rect id="invisible-32" x="0" y="0" width="32" height="32"></rect>
            <g id="lines" transform="translate(2.000000, 5.000000)" fill="#FF0000" fill-rule="nonzero">
                <path d="M18.7682213,0.3598156 L25.1350416,8 L23,8 C22.0131252,8 20.8325701,8.59638809 19.780733,9.46676603 L20.5242397,10.2036228 C21.2840284,9.70306435 22.1938716,9.41176471 23.1717302,9.41176471 C25.8331932,9.41176471 27.9907436,11.5693151 27.9907436,14.2307782 C27.9907436,16.8922412 25.8331932,19.0497916 23.1717302,19.0497916 C20.5104478,19.0497916 18.3529412,16.8921974 18.3529412,14.2307782 C18.3529412,13.2714244 18.6332799,12.3775359 19.1165003,11.6265715 L18.3757787,10.8924059 C17.6024708,11.856475 17.0649761,12.9175263 17.0054942,13.8333602 L17,14 L17,14.4142136 L15.4142136,16 L10.5857864,16 L7.49902562,12.9148156 L5.70710678,14.7071068 L4.29289322,13.2928932 L6.08502562,11.4998156 L3.584,8.999 L1,9 L1,7 L4.41421356,7 L11.414,13.999 L14.585,13.999 L15.022,13.562 L15.0420478,13.3935695 C15.4098451,10.6780114 18.1323139,7.59731292 20.9046408,6.45628717 L21.161,6.356 L17.2317787,1.6401844 L18.7682213,0.3598156 Z M2.86222301,9.7262429 L3.67384761,11.5541558 C3.3606517,11.6932201 3.074058,11.8893209 2.8255565,12.1377157 C1.7248145,13.2386234 1.7248145,15.023598 2.82550329,16.1244525 C3.92639881,17.2253481 5.71129137,17.2253481 6.8121869,16.1244525 C7.02884166,15.9077978 7.20553983,15.6624756 7.33922663,15.3961601 L7.43137936,15.1926072 L9.28494306,15.9438074 C9.04479248,16.5363717 8.68738779,17.0776788 8.22640046,17.5386661 C6.34445635,19.4206102 3.29323384,19.4206102 1.41123651,17.5386129 C-0.47041217,15.6566809 -0.47041217,12.6055405 1.41144145,10.7234037 C1.76401446,10.3709819 2.16371509,10.078959 2.59776985,9.85348918 L2.86222301,9.7262429 Z M23.1717302,11.4117647 C22.7528463,11.4117647 22.3552936,11.5031528 21.9979223,11.6670801 L23.4632109,13.1201963 L22.0548105,14.5401991 L20.5932577,13.0901001 C20.4387655,13.4388478 20.3529412,13.8247922 20.3529412,14.2307782 C20.3529412,15.7876461 21.6150355,17.0497916 23.1717302,17.0497916 C24.7286237,17.0497916 25.9907436,15.7876717 25.9907436,14.2307782 C25.9907436,12.6738846 24.7286237,11.4117647 23.1717302,11.4117647 Z M6.28910767,4 L11.217,7.109 L15,7 C16.20607,7 16.9319568,6.24998574 16.9954546,5.15824373 L17,5 L19,5 C19,7.16718508 17.514973,8.8925934 15.2441443,8.99479074 L10.6654033,9.12606048 L5.71,5.999 L1,6 L1,4 L6.28910767,4 Z M17,3 L17,5 L15,5 L15,3 L17,3 Z" id="Combined-Shape"></path>
            </g>
        </g>
    </g>
</svg>