<?xml version="1.0" encoding="UTF-8"?>
<svg width="32px" height="32px" viewBox="0 0 32 32" version="1.1" xmlns="http://www.w3.org/2000/svg" xmlns:xlink="http://www.w3.org/1999/xlink">
    <title>Icons/32px/moped-32</title>
    <g id="Icons/32px/moped-32" stroke="none" stroke-width="1" fill="none" fill-rule="evenodd">
        <g>
            <rect id="invisible-32" x="0" y="0" width="32" height="32"></rect>
            <g id="lines" transform="translate(2.000000, 6.000000)" fill="#FF0000" fill-rule="nonzero">
                <path d="M23.9998737,11 C26.2091551,11 28,12.7908737 28,15 C28,17.2091263 26.2091551,19 23.9998737,19 C21.7907928,19 20,17.2090742 20,15 C20,12.7909258 21.7907928,11 23.9998737,11 Z M1.67375253,11.9554495 L2.7447045,13.6445505 L2.557,13.763 L2.4854161,13.8358416 C2.2154661,14.1345579 2.0462819,14.5171569 2.00820382,14.9321346 L2,15.1118144 C2,16.1472902 2.80835237,16.9764706 3.79269956,16.9764706 C4.29320143,16.9764706 4.75978076,16.7625892 5.09562529,16.3927204 L5.158,16.316 L5.32905381,15.9826514 L7.10991103,16.8928972 L6.89042861,17.3223052 L6.79740136,17.4706316 C6.0854055,18.411467 4.98507409,18.9764706 3.79269956,18.9764706 C1.69223561,18.9764706 8.31335001e-13,17.2406329 8.31335001e-13,15.1118144 C8.31335001e-13,14.0778755 0.401886837,13.1065521 1.10042165,12.3895222 L1.25460987,12.2398351 L1.39542387,12.1319201 L1.67375253,11.9554495 Z M23.9998737,13 C22.8953956,13 22,13.895462 22,15 C22,16.104538 22.8953956,17 23.9998737,17 C25.1045784,17 26,16.104564 26,15 C26,13.895436 25.1045784,13 23.9998737,13 Z M18.618034,1.25766064e-12 L22.482094,7.72738023 C22.7015228,7.69043869 22.9225248,7.66671155 23.1442192,7.6572406 L23.362714,7.65255917 C23.8737603,7.65255917 24.5110218,7.70012988 25.2803379,7.79427918 L25.6181468,7.83747775 L25.3542653,9.81999296 C24.5119477,9.70787679 23.8451918,9.65255917 23.362714,9.65255917 C21.1250674,9.65255917 18.7436626,12.0725209 18.6130889,14.079384 L18.607465,14.2503231 L18.607465,14.6046178 L17.4767835,16 L7.63171336,16 L1.43440815e-12,9.49659415 L1.43440815e-12,4 L13,4 L13,5 C13,7.14792289 11.4767613,8.99750053 9.43159114,9.95331487 C10.0632022,10.5794201 11.0963536,11 12.2722667,11 C14.3646261,11 15.7638756,10.1938548 15.8611531,9.12035107 L15.8665729,9 L17.8665729,9 C17.8665729,11.5013074 15.4041729,13 12.2722667,13 C10.1815198,13 8.29984957,12.0478688 7.37494178,10.57056 C7.11292944,10.6103902 6.84629314,10.6346191 6.57843697,10.6433695 L6.35294118,10.6470588 L6.35294118,8.64705882 C8.22472577,8.64705882 10.0275421,7.56934651 10.7114259,6.18168115 L10.793,6 L2,6 L2,8.573 L8.369,14 L16.522,14 L16.623,13.876 L16.6253034,13.849963 C16.8131962,11.719659 18.4642963,9.50321335 20.5750253,8.38770295 L17.381,2 L15,2 L15,1.25766064e-12 L18.618034,1.25766064e-12 Z M22.8675842,2.50270968 L24.265355,4.94129301 L22.5301866,5.93587365 L21.1324158,3.49729032 L22.8675842,2.50270968 Z" id="Combined-Shape"></path>
            </g>
        </g>
    </g>
</svg>