<?xml version="1.0" encoding="UTF-8"?>
<svg width="32px" height="32px" viewBox="0 0 32 32" version="1.1" xmlns="http://www.w3.org/2000/svg" xmlns:xlink="http://www.w3.org/1999/xlink">
    <!-- Generator: Sketch 50.2 (55047) - http://www.bohemiancoding.com/sketch -->
    <title>navigation-piggybank-32</title>
    <desc>Created with Sketch.</desc>
    <defs></defs>
    <g id="navigation-piggybank-32" stroke="none" stroke-width="1" fill="none" fill-rule="evenodd">
        <g id="navigation-piggybank-crop" transform="translate(1.000000, 5.000000)" fill="#FF0000" fill-rule="nonzero">
            <path d="M2.75329167,6.84507905 C2.27742747,6.36866387 2.27742747,5.51488664 2.75492095,5.03629167 L1.33907905,3.62370833 C0.0825725281,4.88311336 0.0825725281,7.00133613 1.33948578,8.25969911 C2.60018143,9.51749538 4.47600986,9.37573584 5.73339846,8.11834725 L4.29289325,6.84589327 C3.81628186,7.32250465 3.23181859,7.32250464 2.75329167,6.84507905 Z" id="Shape"></path>
            <path d="M21,17.369997 L21,21 L19,21 L19,18 L10.9903913,18 L10.9903913,21 L9,21 L9,17.369997 C6.90148634,16.3655541 5,13.8430312 5,11 C5,7.83972687 7.85852619,4.96985889 10.9903912,4.99995383 L17.4889269,4.99995375 C17.5235673,4.9220749 17.5521851,4.01260233 18.5010653,3 C19.4499454,1.98739767 19.9730034,1.86180695 21,1.86180695 L21,3 L21,5.62444878 C23,6.24884033 23.90625,7.78057861 24.1537342,10 L27,10 L27,12 L24.067749,12 C24,15.7794189 22.3993825,16.6832277 21,17.369997 Z M28,14 L29,14 L29,13 L29,11 L29,9 L29,8 L28,8 L25.766922,8 C25.4782391,6.44166756 24.3230076,5 23,4.43731689 L23,1.59872116e-14 C20.2400627,1.59872116e-14 19.1798611,-5.76718005e-08 17.9785633,1 C16.8957212,1.90139361 16.5927014,2.47875026 16.3608503,3 L11,3 C10.0912784,3.01275049 9.0391802,3.20015988 8.21147285,3.52847062 C5.23967737,4.70723553 3,7.70712388 3,11 C3,14.5926997 4.76757812,17.5733032 7,18.5347672 L7,23 L13,23 L13,20 L17,20 L17,23 L23,23 L23,18.5347672 C25,17.571991 26.0598755,15.517395 26.0618286,14 C26.0598755,14 27.5,14 28,14 Z" id="Shape"></path>
            <polygon id="Shape" points="11.033 6.924 11.033 8.924 17 8.924 17 6.924"></polygon>
        </g>
    </g>
</svg>