<?xml version="1.0" encoding="UTF-8"?>
<svg width="32px" height="32px" viewBox="0 0 32 32" version="1.1" xmlns="http://www.w3.org/2000/svg" xmlns:xlink="http://www.w3.org/1999/xlink">
    <!-- Generator: Sketch 50.2 (55047) - http://www.bohemiancoding.com/sketch -->
    <title>navigation-bank-32</title>
    <desc>Created with Sketch.</desc>
    <defs></defs>
    <g id="navigation-bank-32" stroke="none" stroke-width="1" fill="none" fill-rule="evenodd">
        <g id="navigation-bank-32-crop" transform="translate(3.000000, 3.900000)" fill="#FF0000">
            <polygon id="Fill-1" points="4 17.0999999 6 17.0999999 6 7.0999999 4 7.0999999"></polygon>
            <polygon id="Fill-2" points="0 23.0999999 26 23.0999999 26 21.0999999 0 21.0999999"></polygon>
            <polygon id="Fill-3" points="2 20.0999999 24 20.0999999 24 18.0999999 2 18.0999999"></polygon>
            <polygon id="Fill-4" points="12.9897 0 4.7977 4.114 0.9997 4.114 0.9997 6.114 5.2727 6.114 13.0107 2.227 21.1177 6.114 24.9997 6.114 24.9997 4.114 21.5717 4.114"></polygon>
            <polygon id="Fill-5" points="8 17.0999999 10 17.0999999 10 7.0999999 8 7.0999999"></polygon>
            <polygon id="Fill-6" points="12 17.0999999 14 17.0999999 14 7.0999999 12 7.0999999"></polygon>
            <polygon id="Fill-7" points="16 17.0999999 18 17.0999999 18 7.0999999 16 7.0999999"></polygon>
            <polygon id="Fill-8" points="20 17.0999999 22 17.0999999 22 7.0999999 20 7.0999999"></polygon>
        </g>
    </g>
</svg>