<?xml version="1.0" encoding="UTF-8"?>
<svg width="32px" height="32px" viewBox="0 0 32 32" version="1.1" xmlns="http://www.w3.org/2000/svg" xmlns:xlink="http://www.w3.org/1999/xlink">
    <!-- Generator: Sketch 50.2 (55047) - http://www.bohemiancoding.com/sketch -->
    <title>navigation-accounts-32</title>
    <desc>Created with Sketch.</desc>
    <defs></defs>
    <g id="navigation-accounts-32" stroke="none" stroke-width="1" fill="none" fill-rule="evenodd">
        <g id="navigation-accounts-32-crop" transform="translate(2.000000, 4.000000)" fill="#FF0000" fill-rule="nonzero">
            <path d="M8,20 L8,9.98893642 L25,10 L24.8516595,9.98893635 C25.4421033,10.0775029 26,10.6029193 26,11 L26,20 C26,20.4477153 25.4477153,21 25,21 L3,21 C2.55228475,21 2,20.4477153 2,20 L2,3 C2,2.55228475 2.55228475,2 3,2 L8,2 C8.44771525,2 9,2.55228475 9,3 L9,6 L23,6 C23.578311,6 23.9502135,6.33865729 24.0025413,7.07124705 L24,8 L26,8.28125 L26,7 C25.8696736,5.13976194 24.6180241,4 23,4 L11,4 L11,3 C11,1.44771525 9.55228475,0 8,0 L3,0 C1.44771525,0 0,1.44771525 0,3 L0,20 C0,21.5522847 1.44771525,23 3,23 L25,23 C26.5522847,23 28,21.5522847 28,20 L28,11 C28,9.51351904 26.5943604,8.28125 25.1483405,8.01106365 L24.0357177,8.00001966 L6,8 L6,20 C6,20.4987317 5.48384843,21 5,21 L8,21 C8,21 8,21.671875 8,20 Z" id="Shape"></path>
        </g>
    </g>
</svg>