<?xml version="1.0" encoding="UTF-8"?>
<svg width="32px" height="32px" viewBox="0 0 32 32" version="1.1" xmlns="http://www.w3.org/2000/svg" xmlns:xlink="http://www.w3.org/1999/xlink">
    <!-- Generator: Sketch 50.2 (55047) - http://www.bohemiancoding.com/sketch -->
    <title>navigation-mortgage-32</title>
    <desc>Created with Sketch.</desc>
    <defs></defs>
    <g id="navigation-mortgage-32" stroke="none" stroke-width="1" fill="none" fill-rule="evenodd">
        <g id="navigation-mortgage-crop" transform="translate(2.000000, 1.000000)" fill="#FF0000" fill-rule="nonzero">
            <polygon id="Shape" points="24.3905333 13.2615409 21.7527184 0.725086228 0.982214711 5.14449499 3.70488102 17.6798478 13.8711156 15.4660467 13.445568 13.5118437 5.24135198 15.3221274 3.38151356 6.6787596 20.2148539 3.12955964 22.0576672 11.7068887 18.7912735 12.3912513 19.201401 14.3487485"></polygon>
            <path d="M20.5,13.25 C20.5,11.1789322 18.8210678,9.5 16.75,9.5 C14.6789322,9.5 13,11.1789322 13,13.25 C13,15.3210678 14.6789322,17 16.75,17 C18.8210678,17 20.5,15.3210678 20.5,13.25 Z M15,13.25 C15,12.2835017 15.7835017,11.5 16.75,11.5 C17.7164983,11.5 18.5,12.2835017 18.5,13.25 C18.5,14.2164983 17.7164983,15 16.75,15 C15.7835017,15 15,14.2164983 15,13.25 Z" id="Oval"></path>
            <path d="M25.5,20.25 C25.5,18.4550746 24.0449254,17 22.25,17 C20.4550746,17 19,18.4550746 19,20.25 C19,22.0449254 20.4550746,23.5 22.25,23.5 C24.0449254,23.5 25.5,22.0449254 25.5,20.25 Z M21,20.25 C21,19.5596441 21.5596441,19 22.25,19 C22.9403559,19 23.5,19.5596441 23.5,20.25 C23.5,20.9403559 22.9403559,21.5 22.25,21.5 C21.5596441,21.5 21,20.9403559 21,20.25 Z" id="Oval"></path>
            <polygon id="Shape" points="18 23.1877918 11 17.7321563 4 23.1877918 4 29 6 29 6 24.2700005 11 20.2733354 16 24.2700005 16 29 18 29"></polygon>
            <polygon id="Shape" points="10 29 12 29 12 25 10 25"></polygon>
        </g>
    </g>
</svg>