<?xml version="1.0" encoding="UTF-8"?>
<svg width="32px" height="32px" viewBox="0 0 32 32" version="1.1" xmlns="http://www.w3.org/2000/svg" xmlns:xlink="http://www.w3.org/1999/xlink">
    <!-- Generator: Sketch 50.2 (55047) - http://www.bohemiancoding.com/sketch -->
    <title>navigation-filetransfer-32</title>
    <desc>Created with Sketch.</desc>
    <defs></defs>
    <g id="navigation-filetransfer-32" stroke="none" stroke-width="1" fill="none" fill-rule="evenodd">
        <g id="navigation-filetransfer-crop" transform="translate(5.000000, 3.000000)" fill="#FF0000">
            <polygon id="Fill-1" points="12.9742878 7 16.1710446 10.198 10.0460377 16.777 11.199589 17.931 7.00022214 17.931 7.00022214 13.731 8.18776032 14.918 12.375 10.53125 10.9355598 9.14225 8.16277003 12.065 5 8.903 5 19.931 16.0257122 19.931 12.829955 16.734 18.954962 10.155 17.8014106 9 22.0007775 9 22.0007775 13.201 20.7942467 11.994 16.5 16.59375 17.9744266 17.94475 20.8562226 14.885 24 18.03 24 7"></polygon>
            <polygon id="Fill-2" points="14.4144 0.0002 0.0004 0.0012 0.0004 26 18.9994 26 18.9994 21.0002 17.0004 21.0002 17.0004 24 1.9994 24 1.9994 2.0022 13.5854 2.0002 16.4375 4.8125 17.8515 3.3985"></polygon>
        </g>
    </g>
</svg>