<?xml version="1.0" encoding="UTF-8"?>
<svg width="32px" height="32px" viewBox="0 0 32 32" version="1.1" xmlns="http://www.w3.org/2000/svg" xmlns:xlink="http://www.w3.org/1999/xlink">
    <!-- Generator: Sketch 50.2 (55047) - http://www.bohemiancoding.com/sketch -->
    <title>navigation-globe-32</title>
    <desc>Created with Sketch.</desc>
    <defs></defs>
    <g id="navigation-globe-32" stroke="none" stroke-width="1" fill="none" fill-rule="evenodd">
        <g id="navigation-globe-32-crop" transform="translate(4.000000, 3.000000)" fill="#FF0000" fill-rule="nonzero">
            <path d="M5.32765838,17.8593763 C1.39078054,13.9224984 1.39078054,7.45601926 5.32765838,3.51914142 L3.91344482,2.10492786 C-0.804481607,6.82285429 -0.804481607,14.5556634 3.91344482,19.2735898 C8.63137125,23.9915162 16.3641804,23.9915162 21.0821068,19.2735898 L19.6678932,17.8593763 C15.7310154,21.7962541 9.26453623,21.7962541 5.32765838,17.8593763 Z" id="Shape"></path>
            <polygon id="Shape" points="21.7800834 21.2951227 23.1825614 19.8692701 19.0293818 15.7841754 17.6269038 17.210028"></polygon>
            <polygon id="Shape" points="6.11468609 5.62977366 7.52889966 4.2155601 3.443805 0.130465442 2.02959144 1.544679"></polygon>
            <path d="M20.9987054,10.6483455 C21.0806343,5.95464006 17.3420508,2.08322352 12.6483455,2.00129459 C7.95464006,1.91936566 4.08322352,5.65794915 4.00129459,10.3516545 C3.91936566,15.0453599 7.65794915,18.9167765 12.3516545,18.9987054 C17.0453599,19.0806343 20.9167765,15.3420508 20.9987054,10.6483455 Z M6.00098998,10.3865594 C6.06364152,6.79725524 9.02413652,3.93833844 12.6134406,4.00098998 C16.2027448,4.06364152 19.0616616,7.02413652 18.99901,10.6134406 C18.9363585,14.2027448 15.9758635,17.0616616 12.3865594,16.99901 C8.79725524,16.9363585 5.93833844,13.9758635 6.00098998,10.3865594 Z" id="Oval"></path>
            <polygon id="Shape" points="11 27 13 27 13 22 11 22"></polygon>
            <polygon id="Shape" points="15.9999998 27 15.9999998 25 8.00000002 25 8.00000002 27"></polygon>
        </g>
    </g>
</svg>