<?xml version="1.0" encoding="UTF-8"?>
<svg width="32px" height="32px" viewBox="0 0 32 32" version="1.1" xmlns="http://www.w3.org/2000/svg" xmlns:xlink="http://www.w3.org/1999/xlink">
    <!-- Generator: Sketch 50.2 (55047) - http://www.bohemiancoding.com/sketch -->
    <title>navigation-wages-32</title>
    <desc>Created with Sketch.</desc>
    <defs></defs>
    <g id="navigation-wages-32" stroke="none" stroke-width="1" fill="none" fill-rule="evenodd">
        <g id="navigation-wages-crop" transform="translate(3.000000, 1.000000)" fill="#FF0000">
            <path d="M23,26.0058 L3.898,26.0058 C2.852,26.0058 2,25.1828 2,24.1708 L2,10.8408 C2,9.82880002 2.852,9.00580002 3.898,9.00580002 L8.041,9.00580002 L5.897,11.0058 L4.067,11.0058 L4.067,13.0058 L23,13.0058 L23,16.0058 L20,16.0058 L20,18.0058 L24,18.0058 L24,21.0058 L20,21.0058 L20,23.0058 L23,23.0058 L23,26.0058 Z M22.68,9.02780002 L20.559,11.0058 L8.829,11.0058 L17.224,3.17680002 L22.68,9.02780002 Z M26,16.0058 L25,16.0058 L25,11.0058 L23.492,11.0058 L25.506,9.12680002 L17.323,0.349800024 L10.186,7.00580002 L3.898,7.00580002 C1.749,7.00580002 0,8.72580002 0,10.8408 L0,24.1708 C0,26.2858 1.749,28.0058 3.898,28.0058 L25,28.0058 L25,23.0058 L26,23.0058 L26,16.0058 Z" id="Page-1"></path>
        </g>
    </g>
</svg>