<?xml version="1.0" encoding="UTF-8"?>
<svg width="32px" height="32px" viewBox="0 0 32 32" version="1.1" xmlns="http://www.w3.org/2000/svg" xmlns:xlink="http://www.w3.org/1999/xlink">
    <!-- Generator: Sketch 50.2 (55047) - http://www.bohemiancoding.com/sketch -->
    <title>padlock-32</title>
    <desc>Created with Sketch.</desc>
    <defs></defs>
    <g id="padlock-32" stroke="none" stroke-width="1" fill="none" fill-rule="evenodd">
        <g id="padlock-32-crop" transform="translate(6.000000, 2.000000)" fill="#FF0000" fill-rule="nonzero">
            <path d="M0,26 L0,11.0091066 L20,11.0091066 L20,26 L0,26 Z M18,24 L18,13.0091066 L2,13.0091066 L2,24 L18,24 Z" id="Stroke-1"></path>
            <path d="M17.9937381,12.5 L17.9937381,7.82634785 C17.9937381,3.49827929 14.4080723,0 9.996869,0 C5.58584469,0 2,3.49836244 2,7.82634785 L2,12.5 L4,12.5 L4,7.82634785 C4,4.61413868 6.67950948,2 9.996869,2 C13.3143961,2 15.9937381,4.61404352 15.9937381,7.82634785 L15.9937381,12.5 L17.9937381,12.5 Z" id="Stroke-3"></path>
            <path d="M15,12.5422376 L15,7.90263284 C15,5.18947133 12.755929,3 10.00012,3 C7.24411712,3 5,5.18942559 5,7.90263284 L5,12.5422376 L7,12.5422376 L7,7.90263284 C7,6.30518982 8.33779327,5 10.00012,5 C11.6622348,5 13,6.30521651 13,7.90263284 L13,12.5422376 L15,12.5422376 Z" id="Stroke-4"></path>
            <path d="M11.4915093,20 L10.7798133,17.8498322 C11.0731765,17.674217 11.2695164,17.3593401 11.2695164,16.9988814 C11.2695164,16.4471477 10.8111991,16 10.245683,16 C9.68031032,16 9.22184967,16.4471477 9.22184967,16.9988814 C9.22184967,17.3593401 9.4183328,17.674217 9.71169605,17.8498322 L9,20 L11.4915093,20 Z M7.22184967,16.9988814 C7.22184967,15.3313873 8.58662675,14 10.245683,14 C11.9048752,14 13.2695164,15.3313834 13.2695164,16.9988814 C13.2695164,17.4291371 13.1772509,17.8426831 13.0084412,18.2181654 L14.2602117,22 L6.23129757,22 L7.4830266,18.2182909 C7.31416023,17.842789 7.22184967,17.4292036 7.22184967,16.9988814 Z" id="Stroke-5"></path>
        </g>
    </g>
</svg>