<?xml version="1.0" encoding="UTF-8"?>
<svg width="32px" height="32px" viewBox="0 0 32 32" version="1.1" xmlns="http://www.w3.org/2000/svg" xmlns:xlink="http://www.w3.org/1999/xlink">
    <!-- Generator: Sketch 50.2 (55047) - http://www.bohemiancoding.com/sketch -->
    <title>navigation-payment-32</title>
    <desc>Created with Sketch.</desc>
    <defs></defs>
    <g id="navigation-payment-32" stroke="none" stroke-width="1" fill="none" fill-rule="evenodd">
        <g id="navigation-payment-crop" transform="translate(1.000000, 2.000000)" fill="#FF0000">
            <polygon id="Fill-2" points="29.4818571 18.8140714 20.6563571 27.6395714 16.253 23.2362143 17.7682857 21.721 20.6563571 24.6091429 27.9665714 17.2988571"></polygon>
            <polygon id="Shape" fill-rule="nonzero" points="22.7910623 0.460093179 9.07091276 3.12729877 9.45256918 5.09054567 21.2889408 2.82812492 22.2727252 7.17889534 24.2226098 6.73397935"></polygon>
            <path d="M3.3364868,13.134888 L5.32286237,4.33881041 L23.2144165,7.99999987 L21.3043289,16.7864487 C21.3043289,16.7864487 12.8542167,14.8778059 11.845026,14.673733 L11.4486205,16.634055 C12.4392434,16.8343733 22.7911042,19.1849017 22.7911042,19.1849017 L25.5817729,6.47354404 L3.79054971,1.98239838 L0.918352113,14.6562811 L6.18572884,15.7973311 L6.60915934,13.8426683 L3.3364868,13.134888 Z" id="Shape" fill-rule="nonzero"></path>
            <path d="M13.5,23 C13.5,21.2050746 12.0449254,19.75 10.25,19.75 C8.45507456,19.75 7,21.2050746 7,23 C7,24.7949254 8.45507456,26.25 10.25,26.25 C12.0449254,26.25 13.5,24.7949254 13.5,23 Z M9,23 C9,22.3096441 9.55964406,21.75 10.25,21.75 C10.9403559,21.75 11.5,22.3096441 11.5,23 C11.5,23.6903559 10.9403559,24.25 10.25,24.25 C9.55964406,24.25 9,23.6903559 9,23 Z" id="Oval" fill-rule="nonzero"></path>
            <path d="M12.5,14.25 C12.5,12.1789322 10.8210678,10.5 8.75,10.5 C6.67893219,10.5 5,12.1789322 5,14.25 C5,16.3210678 6.67893219,18 8.75,18 C10.8210678,18 12.5,16.3210678 12.5,14.25 Z M7,14.25 C7,13.2835017 7.78350169,12.5 8.75,12.5 C9.71649831,12.5 10.5,13.2835017 10.5,14.25 C10.5,15.2164983 9.71649831,16 8.75,16 C7.78350169,16 7,15.2164983 7,14.25 Z" id="Oval" fill-rule="nonzero"></path>
        </g>
    </g>
</svg>