<?xml version="1.0" encoding="UTF-8"?>
<svg width="32px" height="32px" viewBox="0 0 32 32" version="1.1" xmlns="http://www.w3.org/2000/svg" xmlns:xlink="http://www.w3.org/1999/xlink">
    <!-- Generator: Sketch 50.2 (55047) - http://www.bohemiancoding.com/sketch -->
    <title>pdf-doc-32</title>
    <desc>Created with Sketch.</desc>
    <defs></defs>
    <g id="pdf-doc-32" stroke="none" stroke-width="1" fill="none" fill-rule="evenodd">
        <g id="pdf-doc-32-crop" transform="translate(5.000000, 3.000000)" fill="#FF0000">
            <polygon id="Stroke-1" fill-rule="nonzero" points="2 24 2 2 13.5857864 2 17 5.41421356 17 9 19 9 19 4.58578644 14.4142136 0 0 0 0 26 19.002322 26 18.9930393 20.9976834 16.9930447 21.002322 16.997678 24"></polygon>
            <path d="M6.35240036,11.0200003 L6.35240036,18.9886 L7.9712003,18.9886 L7.9712003,16.7314001 L9.14540026,16.7314001 C10.6730002,16.7314001 11.7332002,15.6028001 11.7332002,13.9156002 C11.7332002,12.1828002 10.6502002,11.0200003 9.07700027,11.0200003 L6.35240036,11.0200003 Z M7.9370003,15.2722001 L7.9370003,12.5020002 L9.14540026,12.5020002 C9.74960024,12.5020002 10.1828002,13.0492002 10.1828002,13.8700002 C10.1828002,14.7136001 9.74960024,15.2722001 9.14540026,15.2722001 L7.9370003,15.2722001 Z M12.7136001,11.0200003 L12.7136001,19 L15.2672001,19 C17.285,19 18.6301999,17.3926001 18.6301999,14.9872001 C18.6301999,12.6046002 17.285,11.0200003 15.2672001,11.0200003 L12.7136001,11.0200003 Z M14.3210001,17.4610001 L14.3210001,12.5590002 L15.2444001,12.5590002 C16.316,12.5590002 17.0228,13.5394002 17.0228,14.9986001 C17.0228,16.4806001 16.316,17.4610001 15.2444001,17.4610001 L14.3210001,17.4610001 Z M21.3889999,16.1614001 L23.6917998,16.1614001 L23.6917998,14.6680001 L21.3889999,14.6680001 L21.3889999,12.5134002 L23.9767998,12.5134002 L23.9767998,11.0200003 L19.7815999,11.0200003 L19.7815999,19 L21.3889999,19 L21.3889999,16.1614001 Z" id="PDF"></path>
        </g>
    </g>
</svg>