<?xml version="1.0" encoding="UTF-8"?>
<svg width="32px" height="32px" viewBox="0 0 32 32" version="1.1" xmlns="http://www.w3.org/2000/svg" xmlns:xlink="http://www.w3.org/1999/xlink">
    <!-- Generator: Sketch 50.2 (55047) - http://www.bohemiancoding.com/sketch -->
    <title>navigation-pension-32</title>
    <desc>Created with Sketch.</desc>
    <defs></defs>
    <g id="navigation-pension-32" stroke="none" stroke-width="1" fill="none" fill-rule="evenodd">
        <g id="navigation-pension-32-crop" transform="translate(1.000000, 3.000000)" fill="#FF0000">
            <path d="M15.004,-0.0003 L9.81200004,8.9997 L20.197,8.9997 L15.004,-0.0003 Z M15.004,4.0017 L16.734,6.9997 L13.275,6.9997 L15.004,4.0017 Z M9.23500004,9.9997 L5.19700004,16.9997 L24.812,16.9997 L20.774,9.9997 L9.23500004,9.9997 Z M10.39,12.0007 L19.618,12.0007 L21.349,14.9997 L8.66000004,14.9997 L10.39,12.0007 Z M4.62000004,17.9997 L0.580000043,25.0027 L29.428,25.0007 L25.389,17.9997 L4.62000004,17.9997 Z M5.77400004,19.9997 L24.233,19.9997 L25.965,23.0007 L4.04300004,23.0027 L5.77400004,19.9997 Z" id="Page-1"></path>
        </g>
    </g>
</svg>