<?xml version="1.0" encoding="UTF-8"?>
<svg width="32px" height="32px" viewBox="0 0 32 32" version="1.1" xmlns="http://www.w3.org/2000/svg" xmlns:xlink="http://www.w3.org/1999/xlink">
    <!-- Generator: Sketch 50.2 (55047) - http://www.bohemiancoding.com/sketch -->
    <title>pension-32</title>
    <desc>Created with Sketch.</desc>
    <defs></defs>
    <g id="pension-32" stroke="none" stroke-width="1" fill="none" fill-rule="evenodd">
        <g id="pension-32-crop" transform="translate(0.000000, 2.000000)" fill="#FF0000" fill-rule="nonzero">
            <polygon id="Stroke-1" points="23.5 0 20 0 20 2 23.5 2"></polygon>
            <path d="M30,5 C27.2385763,5 25,2.76142375 25,0 L27,0 C27,1.65685425 28.3431458,3 30,3 L30,5 Z" id="Oval"></path>
            <polygon id="Stroke-2" transform="translate(29.000000, 8.250000) rotate(90.000000) translate(-29.000000, -8.250000) " points="30.75 7.25 27.25 7.25 27.25 9.25 30.75 9.25"></polygon>
            <polygon id="Stroke-2" transform="translate(23.894544, 6.144543) rotate(135.000000) translate(-23.894544, -6.144543) " points="25.6445444 5.14454346 22.1445444 5.14454346 22.1445444 7.14454346 25.6445444 7.14454346"></polygon>
            <g id="Page-1" transform="translate(12.258290, 14.684952) rotate(-6.000000) translate(-12.258290, -14.684952) translate(1.258290, 4.184952)">
                <path d="M14.0293996,7.90650546 L16.0186433,8.11364997 C15.9822396,8.4644722 16.6259143,9.39828818 17.1139425,9.44837257 L18.6438817,9.61702946 C18.7440825,9.62731322 18.8961959,9.49394103 18.9125422,9.336414 L19.0285358,8.22582445 L11.5987666,2.3332308 L3.11112152,6.55248336 L2.98330777,7.76854428 C2.9687755,7.90859146 3.01444583,7.9667398 3.13245167,7.97885393 L4.70401056,8.14403362 C5.20231086,8.19535502 6.0298514,7.4282163 6.07294222,7.07363462 L8.06029806,7.2974856 C8.02508922,7.63679256 8.67679973,8.56279836 9.16734783,8.61314708 L12.6593892,8.98017542 C13.1470841,9.02917377 13.9943352,8.24205702 14.0293996,7.90650546 Z M12.4544044,10.9696441 L8.96072411,10.6024436 C8.13323035,10.5175166 7.37455582,9.98464636 6.84090409,9.30023101 C6.17768914,9.85641821 5.32694648,10.2187701 4.49703112,10.1332936 L2.92582795,9.96815045 C1.69535632,9.84186525 0.866883132,8.78703729 0.99412657,7.56080307 L1.24409884,5.18247577 L11.8386187,0.0489587681 L21.1389148,7.27315159 L21.0783153,7.85336621 L20.9017915,9.54350493 C20.7748976,10.7663798 19.672349,11.7330883 18.4342052,11.6060004 L16.9043027,11.4373473 C16.075517,11.3523186 15.3212001,10.8169815 14.7918346,10.1296071 C14.126074,10.6881566 13.2748709,11.0538193 12.4544044,10.9696441 Z" id="Stroke-1"></path>
                <polygon id="Stroke-7" points="9.8202001 9.6872729 8.67038701 20.6270137 10.6594308 20.8360707 11.8092439 9.8963298"></polygon>
            </g>
            <path d="M30,26 C28.625,26 27.6004428,25.6126624 25.9400005,24.3544652 C24.0373074,22.912703 22.6556626,22.4000015 20.4853334,22.4000015 C18.3135416,22.4000015 16.9284342,22.91244 15.0200005,24.353648 C13.3531734,25.6123998 12.3506444,26 10.5500002,26 L2,26 L2,28 L10.9511667,28 C13.1224554,28 14.2532523,27.4876399 16.1614774,26.0465895 C17.8285124,24.7876806 18.6841738,24.4000015 20.4853334,24.4000015 C22.2841599,24.4000015 23.1368749,24.7872601 24.7971107,26.0453008 C26.7000109,27.48722 27.8291681,28 30,28 L30,26 Z" id="Page-1"></path>
        </g>
    </g>
</svg>