<?xml version="1.0" encoding="UTF-8"?>
<svg width="32px" height="32px" viewBox="0 0 32 32" version="1.1" xmlns="http://www.w3.org/2000/svg" xmlns:xlink="http://www.w3.org/1999/xlink">
    <!-- Generator: Sketch 50.2 (55047) - http://www.bohemiancoding.com/sketch -->
    <title>percent-32</title>
    <desc>Created with Sketch.</desc>
    <defs></defs>
    <g id="percent-32" stroke="none" stroke-width="1" fill="none" fill-rule="evenodd">
        <g id="percent-32-crop" transform="translate(6.000000, 5.000000)" fill="#FF0000" fill-rule="nonzero">
            <path d="M15.5,22 C17.9852814,22 20,19.9852814 20,17.5 C20,15.0147186 17.9852814,13 15.5,13 C13.0147186,13 11,15.0147186 11,17.5 C11,19.9852814 13.0147186,22 15.5,22 Z M15.5,20 C14.1192881,20 13,18.8807119 13,17.5 C13,16.1192881 14.1192881,15 15.5,15 C16.8807119,15 18,16.1192881 18,17.5 C18,18.8807119 16.8807119,20 15.5,20 Z" id="Oval-2"></path>
            <path d="M4.5,9 C6.98528137,9 9,6.98528137 9,4.5 C9,2.01471863 6.98528137,0 4.5,0 C2.01471863,0 0,2.01471863 0,4.5 C0,6.98528137 2.01471863,9 4.5,9 Z M4.5,7 C3.11928813,7 2,5.88071187 2,4.5 C2,3.11928813 3.11928813,2 4.5,2 C5.88071187,2 7,3.11928813 7,4.5 C7,5.88071187 5.88071187,7 4.5,7 Z" id="Oval-2"></path>
            <polygon id="Line" points="17.7380607 0.35235158 0.738060682 20.3523516 2.26193932 21.6476484 19.2619393 1.64764842"></polygon>
        </g>
    </g>
</svg>