<?xml version="1.0" encoding="UTF-8"?>
<svg width="32px" height="32px" viewBox="0 0 32 32" version="1.1" xmlns="http://www.w3.org/2000/svg" xmlns:xlink="http://www.w3.org/1999/xlink">
    <!-- Generator: Sketch 57.1 (83088) - https://sketch.com -->
    <title>Icons/32px/mobile-phone-32</title>
    <desc>Created with Sketch.</desc>
    <defs>
        <path d="M15,0 C16.6568542,0 18,1.34314575 18,3 L18,25 C18,26.6568542 16.6568542,28 15,28 L3,28 C1.34314575,28 0,26.6568542 0,25 L0,3 C0,1.34314575 1.34314575,0 3,0 L15,0 Z M16,21 L2,21 L2,25 C2,25.5522847 2.44771525,26 3,26 L15,26 C15.5522847,26 16,25.5522847 16,25 L16,21 Z M9,22 C9.82842712,22 10.5,22.6715729 10.5,23.5 C10.5,24.3284271 9.82842712,25 9,25 C8.17157288,25 7.5,24.3284271 7.5,23.5 C7.5,22.6715729 8.17157288,22 9,22 Z M2,6 L2,19 L16,19 L16,6 L2,6 Z M2,4 L16,4 L16,3 C16,2.44771525 15.5522847,2 15,2 L3,2 C2.44771525,2 2,2.44771525 2,3 L2,4 Z" id="path-1"></path>
    </defs>
    <g id="Icons/32px/mobile-phone-32" stroke="none" stroke-width="1" fill="none" fill-rule="evenodd">
        <g>
            <rect id="invisible-32" x="0" y="0" width="32" height="32"></rect>
            <g id="outlines" transform="translate(7.000000, 2.000000)">
                <mask id="mask-2" fill="white">
                    <use xlink:href="#path-1"></use>
                </mask>
                <use id="Combined-Shape" fill="#FF0000" fill-rule="nonzero" xlink:href="#path-1"></use>
            </g>
        </g>
    </g>
</svg>