<?xml version="1.0" encoding="UTF-8"?>
<svg width="32px" height="32px" viewBox="0 0 32 32" version="1.1" xmlns="http://www.w3.org/2000/svg" xmlns:xlink="http://www.w3.org/1999/xlink">
    <title>Icons/32px/phone_landscape-32</title>
    <g id="Icons/32px/phone_landscape-32" stroke="none" stroke-width="1" fill="none" fill-rule="evenodd">
        <g>
            <rect id="invisible-32" x="0" y="0" width="32" height="32"></rect>
            <g id="outlineslines" transform="translate(3.000000, 2.000000)" fill="#FF0000" fill-rule="nonzero">
                <path d="M25.1518529,17.9092172 C25.1518529,22.1410646 22.9613266,24.4436578 18.9172923,24.6233939 L19.9142136,25.6213203 L18.5,27.0355339 L14.9644661,23.5 L18.5,19.9644661 L19.9142136,21.3786797 L18.6555361,22.637976 C21.6871664,22.5812543 23.0801605,21.1446487 23.1491511,18.1474159 L23.1518529,17.9092172 L25.1518529,17.9092172 Z M14.0606602,3.10710678 C15.232233,1.93553391 17.131728,1.93553391 18.3033009,3.10710678 L18.3033009,3.10710678 L23.9601551,8.76396103 C25.131728,9.93553391 25.131728,11.8350288 23.9601551,13.0066017 L23.9601551,13.0066017 L11.9393398,25.027417 C10.767767,26.1989899 8.86827202,26.1989899 7.69669914,25.027417 L7.69669914,25.027417 L2.03984489,19.3705627 C0.868272016,18.1989899 0.868272016,16.2994949 2.03984489,15.1279221 L2.03984489,15.1279221 Z M16.8890873,4.52132034 C16.498563,4.13079605 15.865398,4.13079605 15.4748737,4.52132034 L15.4748737,4.52132034 L3.45405845,16.5421356 C3.06353416,16.9326599 3.06353416,17.5658249 3.45405845,17.9563492 L3.45405845,17.9563492 L9.1109127,23.6132034 C9.501437,24.0037277 10.134602,24.0037277 10.5251263,23.6132034 L10.5251263,23.6132034 L22.5459415,11.5923882 C22.9364658,11.2018639 22.9364658,10.5686989 22.5459415,10.1781746 L22.5459415,10.1781746 Z M6.98959236,17.8606602 C7.5753788,17.2748737 8.52512627,17.2748737 9.1109127,17.8606602 C9.69669914,18.4464466 9.69669914,19.3961941 9.1109127,19.9819805 C8.52512627,20.567767 7.5753788,20.567767 6.98959236,19.9819805 C6.40380592,19.3961941 6.40380592,18.4464466 6.98959236,17.8606602 Z M7.43829643,0.965004573 L11.0349954,4.43829643 L7.56170357,8.03499543 L6.12302397,6.64567869 L7.41167248,5.30977705 C4.32030796,5.39434455 2.92644158,6.85416815 2.90961075,9.88085513 L2.91106651,10.1190648 L0.911371118,10.1539696 C0.837617862,5.92864839 2.9815489,3.5888048 7.01096539,3.33306326 L6.04897968,2.40368417 L7.43829643,0.965004573 Z" id="Combined-Shape"></path>
            </g>
        </g>
    </g>
</svg>