<?xml version="1.0" encoding="UTF-8"?>
<svg width="32px" height="32px" viewBox="0 0 32 32" version="1.1" xmlns="http://www.w3.org/2000/svg" xmlns:xlink="http://www.w3.org/1999/xlink">
    <!-- Generator: Sketch 50.2 (55047) - http://www.bohemiancoding.com/sketch -->
    <title>phone-32</title>
    <desc>Created with Sketch.</desc>
    <defs></defs>
    <g id="phone-32" stroke="none" stroke-width="1" fill="none" fill-rule="evenodd">
        <g id="phone-32-crop" transform="translate(16.000000, 16.000000) rotate(-72.000000) translate(-16.000000, -16.000000) translate(5.000000, 5.000000)" fill="#FF0000">
            <path d="M16.610088,8.35736 C16.390088,8.57736 15.901688,8.57736 15.675528,8.35384 L13.674408,6.37824 L13.474648,6.31488 C12.796168,6.09576 11.276408,6.10808 8.731448,8.62488 C6.111688,11.21208 6.218168,12.77144 6.385368,13.32056 L6.450488,13.53352 L8.457768,15.51616 C8.579208,15.63672 8.645208,15.796 8.646088,15.9676 C8.646088,16.13744 8.579208,16.29672 8.460408,16.41464 L5.200008,19.6372 C4.972088,19.86248 4.487208,19.86424 4.259288,19.63896 L2.357608,17.75752 C1.962488,17.3668 1.445048,16.12512 2.015288,13.94448 C2.440328,12.31296 3.83196004,10.10108 6.94100004,7.02899996 C11.40788,2.61315996 14.650328,1.76 15.937768,1.76 C16.849448,1.76 17.590408,1.97648 17.972328,2.354 L19.875768,4.23456 C19.998968,4.356 20.064088,4.51176 20.064088,4.68336 C20.064088,4.85496 19.998968,5.00984 19.874888,5.13216 L16.610088,8.35736 Z M19.209608,1.10264 C18.491528,0.3916 17.329048,0 15.937768,0 C14.432968,0 10.63524,0.902439958 5.70372004,5.77763996 C2.31044004,9.12955996 0.792088,11.65648 0.312488,13.50008 C-0.301752,15.84528 0.000968,17.90536 1.120328,19.00976 L3.022008,20.89032 C3.463768,21.3268 4.085928,21.57672 4.727448,21.57672 C5.370728,21.57672 5.992888,21.3268 6.436408,20.89032 L9.699448,17.66424 C10.155288,17.21192 10.406088,16.60824 10.406088,15.96672 C10.405208,15.32344 10.154408,14.72064 9.695928,14.2648 L8.080248,12.66936 C8.125128,12.32616 8.406728,11.41976 9.968728,9.87624 C11.571208,8.29224 12.487288,8.0344 12.807608,7.99568 L14.438248,9.60696 C15.323528,10.47992 16.978808,10.47464 17.850008,9.60608 L21.112168,6.38352 C21.571528,5.93032 21.824088,5.32664 21.824088,4.68336 C21.824088,4.0392 21.570648,3.43376 21.112168,2.9832 L19.209608,1.10264 Z" id="Fill-1"></path>
        </g>
    </g>
</svg>