<?xml version="1.0" encoding="UTF-8"?>
<svg width="32px" height="32px" viewBox="0 0 32 32" version="1.1" xmlns="http://www.w3.org/2000/svg" xmlns:xlink="http://www.w3.org/1999/xlink">
    <!-- Generator: Sketch 50.2 (55047) - http://www.bohemiancoding.com/sketch -->
    <title>pin-32</title>
    <desc>Created with Sketch.</desc>
    <defs></defs>
    <g id="pin-32" stroke="none" stroke-width="1" fill="none" fill-rule="evenodd">
        <g id="pin-32-crop" transform="translate(6.000000, 3.000000)" fill="#FF0000">
            <path d="M2,9.7959 C2,5.4969 5.579,1.9999 9.978,1.9999 C14.376,1.9999 17.954,5.4969 17.954,9.7959 C17.954,11.8109 17.124,13.7749 15.633,15.3089 L9.978,20.8499 L4.339,15.3249 C2.831,13.7739 2,11.8099 2,9.7959 L2,9.7959 Z M17.05,16.7199 C18.923,14.7929 19.954,12.3339 19.954,9.7959 C19.954,4.3949 15.479,-0.0001 9.978,-0.0001 C4.476,-0.0001 0,4.3949 0,9.7959 C0,12.3329 1.031,14.7919 2.922,16.7359 L9.314,22.9999 L1,22.9999 L1,24.9999 L19,24.9999 L19,22.9999 L10.641,22.9999 L17.05,16.7199 Z" id="Fill-1"></path>
            <path d="M9.9775,11.9131 C8.7075,11.9131 7.7125,10.9571 7.7125,9.7361 C7.7125,8.5161 8.7075,7.5591 9.9775,7.5591 C11.2475,7.5591 12.2415,8.5161 12.2415,9.7361 L14.2415,9.7361 C14.2415,7.3931 12.3685,5.5591 9.9775,5.5591 C7.5855,5.5591 5.7125,7.3931 5.7125,9.7361 C5.7125,12.0781 7.5855,13.9131 9.9775,13.9131 L9.9775,11.9131 Z" id="Fill-4"></path>
        </g>
    </g>
</svg>