<?xml version="1.0" encoding="UTF-8"?>
<svg width="32px" height="32px" viewBox="0 0 32 32" version="1.1" xmlns="http://www.w3.org/2000/svg" xmlns:xlink="http://www.w3.org/1999/xlink">
    <title>Icons/32px/pregnant-32</title>
    <g id="Icons/32px/pregnant-32" stroke="none" stroke-width="1" fill="none" fill-rule="evenodd">
        <g>
            <rect id="invisible-32" x="0" y="0" width="32" height="32"></rect>
            <g id="lines" transform="translate(6.000000, 2.000000)" fill="#FF0000" fill-rule="nonzero">
                <path d="M15,23 L15,28 L13,28 L13,23 L15,23 Z M10,0 C13.0375661,0 15.5,2.46243388 15.5,5.5 C15.5,6.60749449 15.1726621,7.63853513 14.6094585,8.50164978 C16.0007805,9.09771773 16.9187535,10.2481446 16.9948718,11.7905078 L17,12 L17,19 C17,20.5967489 15.7500636,21.9035943 14.1761639,21.9949037 L14,22 L9,22 C7.62875085,22 6.97472165,20.8412998 7.00016773,19.4816853 C7.02407651,18.1764611 7.59424887,17.0937299 8.83442771,17.0057684 L9,17 L12,16.999 L12,13 L14,13 L14,19 L9.089,18.999 L9.07335289,19.0348797 C9.04262328,19.1204796 9.018669,19.2384481 9.00708216,19.3756229 L8.99982491,19.5187123 C8.99637833,19.702868 9.02054539,19.8633785 9.05783702,19.9689133 L9.071,19.999 L14,20 C14.5118599,20 14.9353677,19.6130901 14.9932573,19.1164347 L15,19 L15,12 C15,11.0362775 14.3310743,10.3702485 13.1480902,10.1319641 L13.0056078,10.1068734 C12.141688,10.6716603 11.1091879,11 10,11 C9.00435333,11 8.07049787,10.7354404 7.26489661,10.2727841 C6.55159406,10.6437151 6.06760275,11.3636963 6.006541,12.1841721 L6,12.3604543 L5.99939795,13.3255081 C6.21865836,13.2949018 6.44057658,13.2752808 6.66453826,13.2672733 L6.89473684,13.2631579 L6.89473684,15.2631579 C4.30252649,15.2631579 2,17.5505525 2,20.0328608 C2,21.1267826 2.42951382,22.1585898 3.20017113,22.9635669 C3.96655264,23.7642646 5.21330215,24.252131 6.6128805,24.3099866 L6.89473684,24.3157895 L6.89473684,26.3157895 C6.59296057,26.3157895 6.29420851,26.3004746 6.00022883,26.2701781 L6,28 L4,28 L3.99971557,25.8014087 C3.13133503,25.4691562 2.36182706,24.9801289 1.75541584,24.3465644 C0.634510506,23.1757417 -1.14752652e-12,21.6514775 -1.14752652e-12,20.0328608 C-1.14752652e-12,17.436277 1.67465834,15.0541873 3.99921205,13.934789 L4,12.3604543 C4,10.9788513 4.64897312,9.72076548 5.689841,8.91451615 C4.94464237,7.97768827 4.5,6.79077003 4.5,5.5 C4.5,2.46243388 6.96243388,0 10,0 Z M10,2 C8.06700338,2 6.5,3.56700338 6.5,5.5 C6.5,7.43299662 8.06700338,9 10,9 C11.9329966,9 13.5,7.43299662 13.5,5.5 C13.5,3.56700338 11.9329966,2 10,2 Z" id="Combined-Shape"></path>
            </g>
        </g>
    </g>
</svg>