<?xml version="1.0" encoding="UTF-8"?>
<svg width="32px" height="32px" viewBox="0 0 32 32" version="1.1" xmlns="http://www.w3.org/2000/svg" xmlns:xlink="http://www.w3.org/1999/xlink">
    <!-- Generator: Sketch 50.2 (55047) - http://www.bohemiancoding.com/sketch -->
    <title>radio-round-32</title>
    <desc>Created with Sketch.</desc>
    <defs></defs>
    <g id="radio-round-32" stroke="none" stroke-width="1" fill="none" fill-rule="evenodd">
        <g id="radio-round-32-crop" transform="translate(3.000000, 3.000000)" fill="#FF0000">
            <path d="M13,24 C6.935,24 2,19.065 2,13 C2,6.935 6.935,2 13,2 C19.065,2 24,6.935 24,13 C24,19.065 19.065,24 13,24 M13,0 C5.832,0 0,5.832 0,13 C0,20.168 5.832,26 13,26 C20.168,26 26,20.168 26,13 C26,5.832 20.168,0 13,0" id="Fill-1"></path>
            <path d="M13.0002,14.9089 C11.9262,14.9089 11.0912,14.0739 11.0912,12.9999 C11.0912,11.9259 11.9262,11.0909 13.0002,11.0909 C14.0742,11.0909 14.9092,11.9259 14.9092,12.9999 C14.9092,14.0739 14.0742,14.9089 13.0002,14.9089 M13.0002,7.0909 C9.7412,7.0909 7.0912,9.7409 7.0912,12.9999 C7.0912,16.2589 9.7412,18.9089 13.0002,18.9089 C16.2592,18.9089 18.9092,16.2589 18.9092,12.9999 C18.9092,9.7409 16.2592,7.0909 13.0002,7.0909" id="Fill-3"></path>
        </g>
    </g>
</svg>