<?xml version="1.0" encoding="UTF-8"?>
<svg width="32px" height="32px" viewBox="0 0 32 32" version="1.1" xmlns="http://www.w3.org/2000/svg" xmlns:xlink="http://www.w3.org/1999/xlink">
    <title>Icons/32px/RV-32</title>
    <g id="Icons/32px/RV-32" stroke="none" stroke-width="1" fill="none" fill-rule="evenodd">
        <g>
            <rect id="invisible-32" x="0" y="0" width="32" height="32"></rect>
            <g id="lines" transform="translate(0.000000, 7.000000)" fill="#FF0000" fill-rule="nonzero">
                <path d="M9.99988117,13 C11.656781,13 13,14.3431392 13,16 C13,16.4644861 12.893729,16.9157482 12.6919916,17.3254112 C12.1906788,18.3418511 11.1539531,19 9.99988117,19 C8.34316389,19 7,17.6568057 7,16 C7,14.3431943 8.34316389,13 9.99988117,13 Z M22.9998812,13 C24.656781,13 26,14.3431392 26,16 C26,16.4643821 25.8935524,16.9156244 25.6918817,17.325152 C25.1908648,18.3417323 24.1540516,19 22.9998812,19 C21.3431639,19 20,17.6568057 20,16 C20,14.3431943 21.3431639,13 22.9998812,13 Z M27.7207592,0 L31.0540926,10 L28.7207592,17 L27,17 L27,15 L27.279,15 L28.946,9.999 L26.279,2 L4.802,2 L3.24672668,8.999 L6,9 L6,11 L3.38672668,10.999 L4.72,15 L6,15 L6,17 L3.27924078,17 L0.963726681,10.0534577 L3.19782839,0 L27.7207592,0 Z M9.99988117,15 C9.44774354,15 9,15.4477537 9,16 C9,16.5522463 9.44774354,17 9.99988117,17 C10.385128,17 10.7306454,16.7806537 10.8980187,16.4412954 C10.9648703,16.3055415 11,16.1563689 11,16 C11,15.4477353 10.5522381,15 9.99988117,15 Z M22.9998812,15 C22.4477435,15 22,15.4477537 22,16 C22,16.5522463 22.4477435,17 22.9998812,17 C23.3850983,17 23.7305058,16.7807025 23.897781,16.4412954 C23.964806,16.3051894 24,16.1559984 24,16 C24,15.4477353 23.5522381,15 22.9998812,15 Z M19,15 L19,17 L14,17 L14,15 L19,15 Z M19,4 L19,14 L17,14 L17,6 L16,6 L16,14 L14,14 L14,4 L19,4 Z M25.6412431,4 L27.3177137,10 L21,10 L21,4 L25.6412431,4 Z M24.123,6 L23,6 L23,8 L24.682,8 L24.123,6 Z M12,4 L12,8 L10,8 L10,6 L8,6 L8,8 L6,8 L6,4 L12,4 Z" id="Combined-Shape"></path>
            </g>
        </g>
    </g>
</svg>