<?xml version="1.0" encoding="UTF-8"?>
<svg width="32px" height="32px" viewBox="0 0 32 32" version="1.1" xmlns="http://www.w3.org/2000/svg" xmlns:xlink="http://www.w3.org/1999/xlink">
    <!-- Generator: Sketch 50.2 (55047) - http://www.bohemiancoding.com/sketch -->
    <title>save-32</title>
    <desc>Created with Sketch.</desc>
    <defs></defs>
    <g id="save-32" stroke="none" stroke-width="1" fill="none" fill-rule="evenodd">
        <g id="save-32-crop" transform="translate(5.500000, 1.000000)" fill="#FF0000" fill-rule="nonzero">
            <path d="M7.60934307,4.00531495 C7.74995312,3.5786872 7.98759526,3.18604691 8.31283067,2.85752629 C9.44475591,1.71416746 11.2753192,1.71416746 12.407005,2.85746894 C12.7332544,3.18701376 12.9714537,3.58093796 13.1119671,4.00941793 L15.1749454,4.0209022 C14.9949706,3.05777915 14.5337521,2.16295028 13.828364,1.45043709 C11.9140866,-0.48348859 8.80611488,-0.48348859 6.89152846,1.45043709 C6.19208069,2.15694998 5.73320582,3.04246124 5.55000264,3.99458885 L7.60934307,4.00531495 Z" id="Combined-Shape"></path>
            <path d="M20.6248284,15.0786001 C20.6248284,17.627332 19.7054092,20.0323176 18.076472,21.903639 L18.9054916,28 L13.3651874,28 L12.3305466,25.2382926 C11.6865769,25.3651729 11.0302085,25.4299274 10.3670143,25.4299274 C9.70382404,25.4299274 9.04737133,25.3651723 8.4034744,25.2383129 L7.36884123,28 L1.82853704,28 L2.65755668,21.903639 C1.02861947,20.0323176 0.109200268,17.627332 0.109200268,15.0786001 C0.109200268,13.3082092 0.551429678,11.6008553 1.37985656,10.0855498 L0.151242041,4.44464341 L6.13254026,5.64993312 C7.45185164,5.04531694 8.88810181,4.72727273 10.3670143,4.72727273 C11.8459268,4.72727273 13.282177,5.04531694 14.6014884,5.64993312 L20.5828729,4.44462603 L19.3539522,10.0855098 C20.1825456,11.6007345 20.6248284,13.3081014 20.6248284,15.0786001 Z M15.9667742,21.2323179 L16.3000815,20.8839661 C17.7822308,19.3349171 18.6248284,17.2753262 18.6248284,15.0786001 C18.6248284,13.5341687 18.2101864,12.0535695 17.4370036,10.7617589 L17.2337098,10.4221019 L17.9770865,7.00991942 L14.3314123,7.7445582 L14.0236434,7.59049771 C12.8945696,7.02531496 11.6522338,6.72727273 10.3670143,6.72727273 C9.08179488,6.72727273 7.83945901,7.02531496 6.71038523,7.59049771 L6.40261636,7.7445582 L2.75685592,7.00990204 L3.5000379,10.4220544 L3.29684264,10.7616472 C2.52379849,12.0536077 2.10920027,13.534254 2.10920027,15.0786001 C2.10920027,17.2753262 2.95179785,19.3349171 4.4339471,20.8839661 L4.7672544,21.2323179 L4.11891648,26 L5.98237052,26 L7.16797057,22.8353457 L8.05996818,23.0972284 C8.80821154,23.3169061 9.58163227,23.4299274 10.3670143,23.4299274 C11.1523139,23.4299274 11.925502,23.3169319 12.6741391,23.0972053 L13.5660849,22.8354172 L14.7516581,26 L16.6151122,26 L15.9667742,21.2323179 Z" id="Stroke-15"></path>
            <path d="M12.48,17.5455876 C12.48,16.3550972 11.5284538,15.3939394 10.3598683,15.3939394 C9.19151868,15.3939394 8.24,16.3551254 8.24,17.5455876 C8.24,18.7359732 9.19144203,19.6969697 10.3598683,19.6969697 C11.5285304,19.6969697 12.48,18.7360014 12.48,17.5455876 Z M14.48,17.5455876 C14.48,19.836148 12.6375717,21.6969697 10.3598683,21.6969697 C8.0823744,21.6969697 6.24,19.836094 6.24,17.5455876 C6.24,15.2550563 8.08239825,13.3939394 10.3598683,13.3939394 C12.6375478,13.3939394 14.48,15.2550022 14.48,17.5455876 Z" id="Stroke-17"></path>
            <path d="M7.46,12.4242424 C7.46,12.3216327 7.53841639,12.2424242 7.63,12.2424242 C7.72158361,12.2424242 7.8,12.3216327 7.8,12.4242424 L9.8,12.4242424 C9.8,11.2215377 8.83067764,10.2424242 7.63,10.2424242 C6.42932236,10.2424242 5.46,11.2215377 5.46,12.4242424 L7.46,12.4242424 Z" id="Stroke-19"></path>
            <path d="M12.92,12.4242424 C12.92,12.3216327 12.9984164,12.2424242 13.09,12.2424242 C13.1815836,12.2424242 13.26,12.3216327 13.26,12.4242424 L15.26,12.4242424 C15.26,11.2215377 14.2906776,10.2424242 13.09,10.2424242 C11.8893224,10.2424242 10.92,11.2215377 10.92,12.4242424 L12.92,12.4242424 Z" id="Stroke-21"></path>
        </g>
    </g>
</svg>