<?xml version="1.0" encoding="UTF-8"?>
<svg width="32px" height="32px" viewBox="0 0 32 32" version="1.1" xmlns="http://www.w3.org/2000/svg" xmlns:xlink="http://www.w3.org/1999/xlink">
    <!-- Generator: Sketch 50.2 (55047) - http://www.bohemiancoding.com/sketch -->
    <title>screen-32</title>
    <desc>Created with Sketch.</desc>
    <defs></defs>
    <g id="screen-32" stroke="none" stroke-width="1" fill="none" fill-rule="evenodd">
        <g id="screen-32-crop" transform="translate(2.000000, 5.000000)" fill="#FF0000">
            <path d="M4.4375,17.0205 C3.6455,17.0205 3.0005,16.3755 3.0005,15.5835 L3.0005,3.4375 C3.0005,2.6455 3.6455,1.9995 4.4375,1.9995 L23.5625,1.9995 C24.3545,1.9995 24.9995,2.6455 24.9995,3.4375 L24.9995,15.5835 C24.9995,16.3755 24.3545,17.0205 23.5625,17.0205 L4.4375,17.0205 Z M4.4375,-0.0005 C2.5415,-0.0005 0.9995,1.5415 0.9995,3.4375 L0.9995,15.5835 C0.9995,17.4785 2.5415,19.0205 4.4375,19.0205 L13.0005,19.0205 L13.0005,20.9995 L7.0005,20.9995 L7.0005,22.9995 L20.9995,22.9995 L20.9995,20.9995 L15.0005,20.9995 L15.0005,19.0205 L23.5625,19.0205 C25.4585,19.0205 26.9995,17.4785 26.9995,15.5835 L26.9995,3.4375 C26.9995,1.5415 25.4585,-0.0005 23.5625,-0.0005 L4.4375,-0.0005 Z" id="Fill-1"></path>
        </g>
    </g>
</svg>