<?xml version="1.0" encoding="UTF-8"?>
<svg width="32px" height="32px" viewBox="0 0 32 32" version="1.1" xmlns="http://www.w3.org/2000/svg" xmlns:xlink="http://www.w3.org/1999/xlink">
    <!-- Generator: Sketch 50.2 (55047) - http://www.bohemiancoding.com/sketch -->
    <title>shield-32</title>
    <desc>Created with Sketch.</desc>
    <defs></defs>
    <g id="shield-32" stroke="none" stroke-width="1" fill="none" fill-rule="evenodd">
        <g transform="translate(5.000000, 4.000000)" fill="#FF0000">
            <path d="M18.25,0 L3.75,0 C3.75,1.912 1.952,3.75 0,3.75 L0,13.242 C0,20.062 11,25 11,25 C11,25 22,20.062 22,13.242 L22,3.75 C20.163,3.75 18.25,1.874 18.25,0 M16.669,2 C17.288,3.467 18.533,4.712 20,5.331 L20,13.242 C20,17.357 14.11,21.2 11,22.781 C7.889,21.199 2,17.356 2,13.242 L2,5.362 C3.515,4.761 4.761,3.515 5.362,2 L16.669,2" id="Fill-1"></path>
            <polygon id="Line" fill-rule="nonzero" points="6.5 8.41421356 7.91421356 7 15.5710678 14.6568542 14.1568542 16.0710678"></polygon>
            <polygon id="Line" fill-rule="nonzero" points="14.1568542 7 15.5710678 8.41421356 7.91421356 16.0710678 6.5 14.6568542"></polygon>
        </g>
    </g>
</svg>