<?xml version="1.0" encoding="UTF-8"?>
<svg width="32px" height="32px" viewBox="0 0 32 32" version="1.1" xmlns="http://www.w3.org/2000/svg" xmlns:xlink="http://www.w3.org/1999/xlink">
    <title>Icons/32px/smalltruck-32</title>
    <g id="Icons/32px/smalltruck-32" stroke="none" stroke-width="1" fill="none" fill-rule="evenodd">
        <g>
            <rect id="invisible-32" x="0" y="0" width="32" height="32"></rect>
            <g id="lines" transform="translate(2.000000, 5.000000)" fill="#FF0000" fill-rule="nonzero">
                <path d="M21,0 L21,14 L2.219,14 L2.819,17 L4.03489342,17.000078 C4.45667092,15.6944531 5.68214462,14.75 7.12801452,14.75 C8.57405554,14.75 9.79960214,15.6944135 10.2214015,17.0000549 L18.5096833,17.000078 C18.9314608,15.6944531 20.1569345,14.75 21.6028044,14.75 C23.0488455,14.75 24.2743921,15.6944135 24.6961914,17.0000549 L26,17 L26,14.183 L23.306,7 L22,7 L22,5 L24.6930005,5 L28,13.8186654 L28,19 L24.6957315,19.000741 C24.6475847,19.1496452 24.5886516,19.2949581 24.5193101,19.4356871 C23.9763127,20.5369904 22.8531552,21.25 21.6028044,21.25 C20.1573029,21.25 18.9320853,20.306028 18.5100059,19.0009198 L10.2209416,19.000741 C10.1727948,19.1496452 10.1138617,19.2949581 10.0445202,19.4356871 C9.50152283,20.5369904 8.37836525,21.25 7.12801452,21.25 C5.68251299,21.25 4.45729538,20.306028 4.03521595,19.0009198 L1.1801961,19 L0.18,14 L0,14 L0,0 L21,0 Z M21.6028044,16.75 C20.9126638,16.75 20.3529412,17.3097356 20.3529412,18 C20.3529412,18.6902644 20.9126638,19.25 21.6028044,19.25 C22.0842945,19.25 22.5161472,18.9758487 22.7253831,18.551478 C22.8089764,18.3818248 22.8529412,18.1951586 22.8529412,18 C22.8529412,17.3097121 22.2931951,16.75 21.6028044,16.75 Z M7.12801452,16.75 C6.43787384,16.75 5.87815126,17.3097356 5.87815126,18 C5.87815126,18.6902644 6.43787384,19.25 7.12801452,19.25 C7.60950455,19.25 8.04135725,18.9758487 8.25059316,18.551478 C8.33418653,18.3818248 8.37815126,18.1951586 8.37815126,18 C8.37815126,17.3097121 7.81840518,16.75 7.12801452,16.75 Z M19,2 L2,2 L2,12 L19,12 L19,2 Z M16,9 L16,11 L14,11 L14,9 L16,9 Z M6,9 L6,11 L4,11 L4,9 L6,9 Z M11,9 L11,11 L9,11 L9,9 L11,9 Z" id="Combined-Shape"></path>
            </g>
        </g>
    </g>
</svg>