<?xml version="1.0" encoding="UTF-8"?>
<svg width="32px" height="32px" viewBox="0 0 32 32" version="1.1" xmlns="http://www.w3.org/2000/svg" xmlns:xlink="http://www.w3.org/1999/xlink">
    <title>Icons/32px/snowmobile-32</title>
    <g id="Icons/32px/snowmobile-32" stroke="none" stroke-width="1" fill="none" fill-rule="evenodd">
        <g>
            <rect id="invisible-32" x="0" y="0" width="32" height="32"></rect>
            <g id="lines" transform="translate(2.000000, 7.000000)" fill="#FF0000" fill-rule="nonzero">
                <path d="M13.3693887,11.0285714 C14.8724826,11.0285714 16,12.4114744 16,14.0284379 C16,15.645612 14.8725407,17.0285714 13.3693887,17.0285714 L13.3693887,17.0285714 L2.63061129,17.0285714 C1.12762623,17.0285714 0,15.6455349 0,14.0284379 C0,12.4115516 1.12768428,11.0285714 2.63061129,11.0285714 L2.63061129,11.0285714 Z M15.7071068,0.292893219 L25.3971011,9.98288751 L23.1458427,12.3455582 L22.96,12.5168932 L24.9890394,14.5465235 C25.4071291,14.2483675 25.9096004,13.7542571 26.7022003,12.9354613 L27.3075391,12.3070986 L28.7496038,13.6929014 L28.2752541,14.1841353 C25.8636752,16.6662442 25.2756689,16.9823581 23.1991369,16.9992373 L18,17 L18,15 L22.614,14.9988932 L21.3061125,13.692213 C20.9110981,13.8747984 20.5425503,13.9655572 20.1775673,13.9922041 L19.9632332,14.0004471 L16.998653,13.9999991 L17.001347,12.0000009 L19.9745681,12.0003234 C20.1246012,11.9965066 20.2198221,11.978737 20.4128306,11.8937985 C20.7230557,11.7572758 21.1044171,11.4996627 21.5409534,11.1083475 L21.7313719,10.9324184 L22.602,10.017 L18.999,6.41489322 L16.4142136,9 L5,9 C4.65731052,9 4.03716645,9.40892218 3.9241559,9.80487154 L3.7464006,10.4413803 L1.81951737,9.90554353 L2.00092579,9.25606746 C2.35824367,8.00415081 3.68810847,7.08305268 4.84361883,7.00532377 L5,7 L15.584,7 L15.584,6.99889322 L14.584,5.999 L13,6 L13,4 L15.4142136,4 L16.999,5.58489322 L17.585,4.99989322 L14.2928932,1.70710678 L15.7071068,0.292893219 Z M13.3693887,13.0285714 L2.63061129,13.0285714 C2.33255306,13.0285714 2,13.436411 2,14.0284379 C2,14.6207056 2.33254377,15.0285714 2.63061129,15.0285714 L2.63061129,15.0285714 L13.3693887,15.0285714 C13.6675744,15.0285714 14,14.6208129 14,14.0284379 C14,13.4363037 13.6675651,13.0285714 13.3693887,13.0285714 L13.3693887,13.0285714 Z" id="Combined-Shape"></path>
            </g>
        </g>
    </g>
</svg>