<?xml version="1.0" encoding="UTF-8"?>
<svg width="32px" height="32px" viewBox="0 0 32 32" version="1.1" xmlns="http://www.w3.org/2000/svg" xmlns:xlink="http://www.w3.org/1999/xlink">
    <!-- Generator: Sketch 50.2 (55047) - http://www.bohemiancoding.com/sketch -->
    <title>star-32</title>
    <desc>Created with Sketch.</desc>
    <defs></defs>
    <g id="star-32" stroke="none" stroke-width="1" fill="none" fill-rule="evenodd">
        <g id="star-32-crop" transform="translate(4.000000, 3.900000)" fill="#FF0000">
            <path d="M15.5881,13.3535 C15.2411,13.6085 15.0971,14.0555 15.2291,14.4645 L16.8931,19.6415 L12.5971,16.4495 C12.4191,16.3175 12.2101,16.2515 12.0001,16.2515 C11.7901,16.2515 11.5811,16.3175 11.4031,16.4495 L7.1091,19.6415 L8.7731,14.4645 C8.9041,14.0555 8.7591,13.6085 8.4131,13.3535 L4.0541,10.1445 L9.4151,10.1565 L9.4171,10.1565 C9.8531,10.1565 10.2381,9.8745 10.3701,9.4575 L12.0001,4.3115 L13.6311,9.4575 C13.7631,9.8745 14.1491,10.1565 14.5841,10.1565 L14.5861,10.1565 L19.9461,10.1445 L15.5881,13.3535 Z M23.9501,8.8245 C23.8151,8.4155 23.4321,8.1375 23.0001,8.1375 L22.9981,8.1375 L15.3161,8.1545 L12.9531,0.6985 C12.8211,0.2825 12.4361,-0.0005 12.0001,-0.0005 C11.5651,-0.0005 11.1791,0.2825 11.0471,0.6985 L8.6861,8.1545 L1.0021,8.1375 L1.0001,8.1375 C0.5681,8.1375 0.1861,8.4155 0.0501,8.8245 C-0.0849,9.2355 0.0591,9.6865 0.4071,9.9435 L6.6491,14.5385 L4.2501,21.9985 C4.1171,22.4115 4.2671,22.8645 4.6201,23.1175 C4.7941,23.2415 4.9981,23.3035 5.2021,23.3035 C5.4121,23.3035 5.6221,23.2385 5.7991,23.1065 L12.0001,18.4985 L18.2021,23.1065 C18.5501,23.3665 19.0271,23.3695 19.3811,23.1175 C19.7341,22.8635 19.8841,22.4115 19.7511,21.9985 L17.3531,14.5385 L23.5931,9.9435 C23.9421,9.6865 24.0851,9.2355 23.9501,8.8245 L23.9501,8.8245 Z" id="Fill-1"></path>
        </g>
    </g>
</svg>