<?xml version="1.0" encoding="UTF-8"?>
<svg width="28px" height="30px" viewBox="0 0 28 30" version="1.1" xmlns="http://www.w3.org/2000/svg" xmlns:xlink="http://www.w3.org/1999/xlink">
    <!-- Generator: Sketch 54.1 (76490) - https://sketchapp.com -->
    <title>Icons/32px/sustainability-32</title>
    <desc>Created with Sketch.</desc>
    <g id="Page-1" stroke="none" stroke-width="1" fill="none" fill-rule="evenodd">
        <g id="Icons/32px/sustainability-32" transform="translate(-2.000000, -1.000000)">
            <g>
                <rect id="invisible-32" x="0" y="0" width="32" height="32"></rect>
                <g id="outlines" transform="translate(2.000000, 1.000000)" fill="#FF0000" fill-rule="nonzero">
                    <path d="M9.41565454,19.3207062 L12.2547889,23.5794077 L16.9864131,16.1215169 L15.0513167,10.3162278 L16.9486833,9.68377223 L18.3684731,13.9431417 L21.3320762,9.27197022 L23.020865,10.3434144 L20.5550595,14.2299673 L23.7252789,13.3241903 L24.2747211,15.2472382 L18.9432138,16.770526 L17.8706889,18.4610181 C18.5670551,18.8211824 19.3596464,19 20.2627374,19 C22.8879178,19 26,16.441669 26,13.4545455 C26,11.0257571 25.771961,7.69432058 25.3150494,3.46785014 C19.9046332,5.87939037 16.4217252,7.58829096 14.9112554,8.56660238 C12.7547976,9.96331173 12.2942973,13.3187369 14.222298,15.191848 L12.8286516,16.6263338 C9.9513989,13.8309957 10.6194142,8.96351753 13.8240099,6.88794307 C15.5691592,5.75763282 19.5271845,3.83496214 25.7538741,1.08522691 L26.9969588,0.536274895 L27.1513657,1.88637358 C27.7167475,6.82994305 28,10.6825805 28,13.4545455 C28,17.6422471 23.9154608,21 20.2627374,21 C18.9765468,21 17.8155644,20.7171783 16.7962933,20.1544588 L10.8443944,29.5357221 L9.15560563,28.4642779 L11.0827016,25.4268281 L5.16794971,16.5547002 L6.83205029,15.4452998 L8.28348778,17.622456 C9.19226049,16.6508845 9.28987974,15.9167723 8.4397813,14.7729896 C7.54791726,13.5730125 5.44700771,12.661702 2.1325021,12.1330833 C1.79835136,15.0738676 2.10148481,17.1499134 2.97106352,18.3565022 C3.45423258,19.0269261 4.1730795,19.188124 5.38656106,18.7860455 L6.01561461,20.6845427 C4.03354392,21.3412878 2.39152923,20.9730739 1.3485273,19.5258508 C0.0134011719,17.6732891 -0.308749036,14.7836642 0.28570197,10.850557 L0.431811132,9.88384481 L1.40157315,10.0081102 C5.77821799,10.5689338 8.66134879,11.7183171 10.0449792,13.5799516 C11.7511422,15.8755442 11.217204,17.5644451 9.41565454,19.3207062 Z" id="Combined-Shape"></path>
                </g>
            </g>
        </g>
    </g>
</svg>