<?xml version="1.0" encoding="UTF-8"?>
<svg width="32px" height="32px" viewBox="0 0 32 32" version="1.1" xmlns="http://www.w3.org/2000/svg" xmlns:xlink="http://www.w3.org/1999/xlink">
    <title>Icons/32px/notification-swish-32</title>
    <defs>
        <path d="M6.931375,21.2465 L7.40025,20.669 C10.5875,21.5655 14.095125,20.403625 16.234625,17.788375 C19.097375,14.271125 18.6065,8.955375 15.008125,6.010125 L14.353625,5.51925 L17.329125,2.033625 L17.931375,2.486 C20.493,4.521 22,7.60925 22,11 C22,17.10225 17.10225,22 11,22 C9.64425,22 8.287125,21.7745 6.931375,21.2465 L6.931375,21.2465 Z M4.14425,19.589625 C1.507,17.479 0,14.315125 0,11 C0,4.89775 4.89775,0 11,0 C12.582625,0 14.08825,0.301125 15.445375,0.979 L14.949,1.52625 C11.528,0.462 7.90625,1.43275 5.682875,4.21025 C2.820125,7.81 3.3935,12.9635 6.991875,15.989875 L7.646375,16.48075 L4.670875,20.040625 L4.14425,19.589625 Z" id="path-1"></path>
    </defs>
    <g id="Icons/32px/notification-swish-32" stroke="none" stroke-width="1" fill="none" fill-rule="evenodd">
        <g>
            <rect id="invisible-32" x="0" y="0" width="32" height="32"></rect>
            <g id="outlines" transform="translate(5.000000, 5.000000)">
                <mask id="mask-2" fill="white">
                    <use xlink:href="#path-1"></use>
                </mask>
                <use id="swish" fill="#FF0000" fill-rule="nonzero" xlink:href="#path-1"></use>
            </g>
        </g>
    </g>
</svg>