<?xml version="1.0" encoding="UTF-8"?>
<svg width="32px" height="32px" viewBox="0 0 32 32" version="1.1" xmlns="http://www.w3.org/2000/svg" xmlns:xlink="http://www.w3.org/1999/xlink">
    <!-- Generator: Sketch 50.2 (55047) - http://www.bohemiancoding.com/sketch -->
    <title>tag-32</title>
    <desc>Created with Sketch.</desc>
    <defs></defs>
    <g id="tag-32" stroke="none" stroke-width="1" fill="none" fill-rule="evenodd">
        <g id="tag-32-crop" transform="translate(4.000000, 4.000000)" fill="#FF0000">
            <path d="M10.9141,21.6637 L2.4141,13.1637 L13.5701,2 L18.5,2 L22,5.5517 L22,10.5137 L10.9141,21.6637 Z M23.8931,5.1057 C23.8851,4.8587 23.7871,4.6247 23.6161,4.4467 L19.75,0.309999943 C19.5661,0.2107 19.3111,0.0997 19.0451,-1.08420217e-19 L13.1801,-0.0003 C12.8691,-0.0053 12.6471,0.1017 12.4561,0.2927 L0.2931,12.4557 C-0.0979,12.8467 -0.0979,13.4797 0.2931,13.8707 L10.2071,23.7847 C10.3941,23.9727 10.6481,24.0777 10.9141,24.0777 C11.1801,24.0777 11.4341,23.9727 11.6211,23.7847 L23.7000008,11.6217 C23.9791,11.4267 24.0851,11.1587 24,10.8827 L23.8931,5.1057 Z" id="Fill-1"></path>
            <path d="M16.0361,9.09800038 C15.6691,9.09800038 15.3881,8.97000038 15.0991,8.63700038 C15.0601,8.59800038 15.0121,8.52400038 14.9981,8.48100038 L14.9441,8.35000038 C14.9121,8.28600038 14.9121,8.14100038 14.9121,7.97400038 C14.9121,7.36500038 15.4271,6.85000038 16.0361,6.85000038 C16.6451,6.85000038 17.1601,7.36500038 17.1601,7.97400038 C17.1601,8.58300038 16.6451,9.09800038 16.0361,9.09800038 M16.0361,4.85000038 C14.3131,4.85000038 12.9121,6.25100038 12.9121,7.97400038 C12.9121,8.29000038 12.9121,8.71800038 13.1241,9.17900038 C13.2401,9.49400038 13.4391,9.80600038 13.6331,9.99500038 C14.2511,10.7170004 15.0821,11.0980004 16.0361,11.0980004 C17.7591,11.0980004 19.1601,9.69700038 19.1601,7.97400038 C19.1601,6.25100038 17.7591,4.85000038 16.0361,4.85000038" id="Fill-4"></path>
        </g>
    </g>
</svg>