<?xml version="1.0" encoding="UTF-8"?>
<svg width="32px" height="32px" viewBox="0 0 32 32" version="1.1" xmlns="http://www.w3.org/2000/svg" xmlns:xlink="http://www.w3.org/1999/xlink">
    <!-- Generator: Sketch 50.2 (55047) - http://www.bohemiancoding.com/sketch -->
    <title>text-3-round-32</title>
    <desc>Created with Sketch.</desc>
    <defs></defs>
    <g id="text-3-round-32" stroke="none" stroke-width="1" fill="none" fill-rule="evenodd">
        <g id="text-3-round-32-crop" transform="translate(3.000000, 3.000000)" fill="#FF0000">
            <path d="M13,24 C6.935,24 2,19.065 2,13 C2,6.935 6.935,2 13,2 C19.065,2 24,6.935 24,13 C24,19.065 19.065,24 13,24 M13,0 C5.832,0 0,5.832 0,13 C0,20.168 5.832,26 13,26 C20.168,26 26,20.168 26,13 C26,5.832 20.168,0 13,0" id="Fill-1"></path>
            <path d="M14.4395,11.4902 L16.2245,7.8152 L16.2245,7.5002 L10.5405,7.5002 L10.5405,9.2852 L13.4805,9.2852 L11.9955,12.6302 L11.9955,12.9452 C13.0895,12.7052 14.4555,12.9452 14.4845,14.6252 C14.4845,15.5852 14.0045,16.2152 13.2995,16.2152 C12.5805,16.2152 12.0855,15.7052 12.0545,14.9252 L10.1955,14.9252 C10.2405,16.8602 11.4855,18.1502 13.3305,18.1502 C15.2345,18.1502 16.4955,16.7402 16.4955,14.6102 C16.4955,13.1552 15.8495,11.7752 14.4395,11.4902" id="Fill-3"></path>
        </g>
    </g>
</svg>