<?xml version="1.0" encoding="UTF-8"?>
<svg width="32px" height="32px" viewBox="0 0 32 32" version="1.1" xmlns="http://www.w3.org/2000/svg" xmlns:xlink="http://www.w3.org/1999/xlink">
    <!-- Generator: Sketch 63.1 (92452) - https://sketch.com -->
    <title>Icons/special/thumbs-down-32</title>
    <desc>Created with Sketch.</desc>
    <g id="Icons/special/thumbs-down-32" stroke="none" stroke-width="1" fill="none" fill-rule="evenodd">
        <g>
            <rect id="invisible-32" x="0" y="0" width="32" height="32"></rect>
            <g id="outlines" transform="translate(16.000000, 16.500000) rotate(-180.000000) translate(-16.000000, -16.500000) translate(4.000000, 5.000000)" fill="#FF0000" fill-rule="nonzero">
                <path d="M18.1530097,0 L17.462953,4.83039665 L16.223,7 L24,7 L24,13 L23.499,13 L23.5,16 L22.999,16 L23,19 L22.499,19 L22.5,22 L9.83772234,22 L5,20.387 L5,23 L-8.52651283e-14,23 L-8.52651283e-14,6 L5,6 L5,9 L6.381,9 L7.66062732,6.44267739 L10.685,2.913 L12.4338096,0 L18.1530097,0 Z M2.999,8 L1.999,8 L1.999,21 L2.999,21 L2.999,8 Z M15.847,2 L13.565,2 L12.3574929,4.01449576 L12.2592566,4.15079137 L9.339,7.556 L7.61803399,11 L5,11 L5,18.279 L10.163,20 L20.499,20 L20.499,19.414 L18.0857864,17 L20.999,17 L20.999,16.414 L18.579519,14 L21.499,14 L21.499,13.414 L19.079519,11 L21.999,11 L21.999,9 L12.7768203,9 L15.537,4.167 L15.847,2 Z" id="Combined-Shape"></path>
            </g>
        </g>
    </g>
</svg>