<?xml version="1.0" encoding="UTF-8"?>
<svg width="32px" height="32px" viewBox="0 0 32 32" version="1.1" xmlns="http://www.w3.org/2000/svg" xmlns:xlink="http://www.w3.org/1999/xlink">
    <title>Icons/32px/trailer-32</title>
    <g id="Icons/32px/trailer-32" stroke="none" stroke-width="1" fill="none" fill-rule="evenodd">
        <g>
            <rect id="invisible-32" x="0" y="0" width="32" height="32"></rect>
            <g id="lines" transform="translate(2.000000, 12.000000)" fill="#FF0000" fill-rule="nonzero">
                <path d="M7.9999173,4 C9.65679488,4 11,5.34310721 11,7 C11,8.65689279 9.65679488,10 7.9999173,10 C6.84584146,10 5.8091395,9.34184605 5.30784437,8.32497803 C5.1063459,7.91586584 5,7.46452403 5,7 C5,5.34310123 6.34304569,4 7.9999173,4 Z M7.9999173,6 C7.44763371,6 7,6.44765222 7,7 C7,7.15630354 7.03515932,7.30552292 7.10186908,7.44096716 C7.26937244,7.78074461 7.61473615,8 7.9999173,8 C8.55225801,8 9,7.55229065 9,7 C9,6.44770935 8.55225801,6 7.9999173,6 Z M28,3.50830476e-13 L28,3 L26,3 L26,2 L20.999,2 L21,8 L12,8 L12,6 L18.999,5.999 L18.999,2 L18,2 L18,1.999 L2.999,1.999 L2.999,5.999 L4,6 L4,8 L1,8 L0.999,3 L-4.67625938e-13,3 L-4.67625938e-13,2.98872038e-13 L28,3.50830476e-13 Z" id="Combined-Shape"></path>
            </g>
        </g>
    </g>
</svg>