<?xml version="1.0" encoding="UTF-8"?>
<svg width="32px" height="32px" viewBox="0 0 32 32" version="1.1" xmlns="http://www.w3.org/2000/svg" xmlns:xlink="http://www.w3.org/1999/xlink">
    <!-- Generator: Sketch 50.2 (55047) - http://www.bohemiancoding.com/sketch -->
    <title>trash-32</title>
    <desc>Created with Sketch.</desc>
    <defs></defs>
    <g id="trash-32" stroke="none" stroke-width="1" fill="none" fill-rule="evenodd">
        <g id="trash-32-crop" transform="translate(7.000000, 3.000000)" fill="#FF0000">
            <path d="M0,5.9999 L2,24.9999 L16,24.9999 L18,5.9999 L0,5.9999 Z M2.222,7.9999 L15.778,7.9999 L14.199,22.9999 L3.801,22.9999 L2.222,7.9999 Z" id="Fill-1"></path>
            <path d="M6.0003,-0.0004 L6.0003,3.0006 L0.0003,3.0006 L0.0003,4.9996 L6.0003,4.9996 L8.0003,4.9996 L10.0093,4.9996 L10.0093,5.0096 L11.0093,4.9996 L18.0003,4.9996 L18.0003,3.0006 L11.9903,3.0006 L11.9613,-0.0004 L6.0003,-0.0004 Z M8.0003,2.0006 L9.9803,2.0006 L9.9903,3.0006 L8.0003,3.0006 L8.0003,2.0006 Z" id="Fill-2"></path>
        </g>
    </g>
</svg>