<?xml version="1.0" encoding="UTF-8"?>
<svg width="32px" height="32px" viewBox="0 0 32 32" version="1.1" xmlns="http://www.w3.org/2000/svg" xmlns:xlink="http://www.w3.org/1999/xlink">
    <!-- Generator: Sketch 50.2 (55047) - http://www.bohemiancoding.com/sketch -->
    <title>travel-32</title>
    <desc>Created with Sketch.</desc>
    <defs></defs>
    <g id="travel-32" stroke="none" stroke-width="1" fill="none" fill-rule="evenodd">
        <g id="travel-32-crop" transform="translate(0.000000, 1.000000)" fill="#FF0000" fill-rule="nonzero">
            <path d="M13.4626783,26.1458504 L12.8461727,26.3163093 L4.65393061,25.3848261 L0.202173134,21.2029057 L6.01734398,19.5657417 L8.83723147,21.083715 L10.8912494,20.4835005 L25.8667709,16.1077442 L30.9982236,17.2108072 L31.1653717,17.7827284 C31.6447471,19.4229791 30.7035172,21.1412463 29.0634912,21.6201983 L22.5735772,23.5175794 L18.0746334,28.3109327 L12.4995858,29.9402705 L13.4626783,26.1458504 Z M14.177673,23.3288936 L16.1162039,23.8209278 L15.299578,27.0382943 L16.9898012,26.5443174 L21.4886753,21.7510385 L21.7505144,21.6744876 L28.5025497,19.7004731 C28.9003069,19.5843124 29.1817918,19.2620014 29.2646568,18.8838441 L25.941585,18.1695128 L11.4522007,22.4032228 L8.6111974,23.2334061 L5.7811796,21.7099795 L4.15148744,22.1687921 L5.53945038,23.4726256 L12.6868852,24.285311 L14.0291127,23.9141957 L14.177673,23.3288936 Z" id="Stroke-2"></path>
            <polygon id="Stroke-1" points="13.4567741 18.7347607 18.564601 19.971899 19.0353975 18.028101 13.408497 16.6652408 7.77737228 18.3105921 11.4634484 21.5623997 12.7865516 20.0626003 11.8226281 19.2122398"></polygon>
            <path d="M19.9999652,14.4941258 C19.9968064,14.2181788 19.7703458,13.9968745 19.4947289,14.0000302 C19.3466453,14.0017837 19.2122029,14.066371 19.1181461,14.1774523 C19.0406178,14.2688826 18.9986788,14.3830198 19.0000212,14.5053737 C19.0033235,14.7819762 19.2298025,15.003257 19.5060666,14.9999563 C19.7818478,14.9967986 20.0031266,14.7703044 19.9999652,14.4941258 Z M21.9998342,14.4712334 C22.0156366,15.8517287 20.9094192,16.9840191 19.5294629,16.9998194 C18.1488997,17.0163141 17.0166487,15.9100511 17.0001527,14.5282864 C16.9934697,13.9193834 17.2066084,13.3393252 17.5922684,12.8845112 C18.0569025,12.3357752 18.7374021,12.0088577 19.4714392,12.0001659 C20.8518867,11.9843598 21.9840315,13.0907267 21.9998342,14.4712334 Z" id="Stroke-8"></path>
            <path d="M10.0004,-1.77635684e-15 C7.59153503,-1.77635684e-15 5.55751602,1.59502381 5.09727827,3.7428861 C2.77865026,4.13780531 1,6.026965 1,8.33307143 C1,10.9307216 3.25676952,13 5.99980001,13 L8,13 L8,11 L5.99980001,11 C4.32447347,11 3,9.78556303 3,8.33307143 C3,6.88080184 4.32425065,5.66692857 5.99980001,5.66692857 L6.99980001,5.66692857 L6.99980001,4.66692857 C6.99980001,3.21416587 8.32453976,2 10.0004,2 C11.6755562,2 13.0002,3.21424561 13.0002,4.66692857 L13.0002,5.66692857 L14.0002,5.66692857 C15.6752534,5.66692857 17,6.88108873 17,8.33307143 C17,8.77140629 16.8813001,9.19314634 16.6553903,9.57325548 L18.3746628,10.5950687 C18.7821701,9.90940902 19,9.13546029 19,8.33307143 C19,6.02721032 17.2209929,4.13793159 14.9027273,3.74291934 C14.4425231,1.5951331 12.4086924,-1.77635684e-15 10.0004,-1.77635684e-15 Z" id="Stroke-1"></path>
            <path d="M14,11.5 C14,10.6713741 13.3284713,10 12.4991667,10 C12.058122,10 11.6502807,10.1903348 11.3650065,10.5191755 C11.1306744,10.7882993 11,11.1322271 11,11.5 C11,12.3284713 11.6713741,13 12.4991667,13 C13.3284713,13 14,12.3286259 14,11.5 Z M16,11.5 C16,13.4332984 14.4329377,15 12.4991667,15 C10.5667015,15 9,13.4329377 9,11.5 C9,10.6459268 9.30755703,9.83645377 9.85545883,9.20720666 C10.5154026,8.4464715 11.4720828,8 12.4991667,8 C14.4329377,8 16,9.56670155 16,11.5 Z" id="Stroke-3"></path>
        </g>
    </g>
</svg>