<?xml version="1.0" encoding="UTF-8"?>
<svg width="29px" height="25px" viewBox="0 0 29 25" version="1.1" xmlns="http://www.w3.org/2000/svg" xmlns:xlink="http://www.w3.org/1999/xlink">
    <!-- Generator: Sketch 54.1 (76490) - https://sketchapp.com -->
    <title>Icons/32px/truck-32</title>
    <desc>Created with Sketch.</desc>
    <g id="Page-1" stroke="none" stroke-width="1" fill="none" fill-rule="evenodd">
        <g id="Icons/32px/truck-32" transform="translate(-1.000000, -4.000000)">
            <g>
                <rect id="invisible-32" x="0" y="0" width="32" height="32"></rect>
                <g id="outllines" transform="translate(1.262614, 4.000000)" fill="#FF0000" fill-rule="nonzero">
                    <path d="M23.2416603,10.64 L26.5471188,10.64 L26.6026575,16.6108767 C27.8665322,17.3448824 28.7163771,18.7131952 28.7163771,20.28 C28.7163771,22.6216873 26.8180645,24.52 24.4763771,24.52 C22.1346898,24.52 20.2363771,22.6216873 20.2363771,20.28 C20.2363771,20.2532749 20.2366244,20.2266075 20.2371167,20.2 L14.8363771,20.2 L14.8363771,19.2 C14.8363771,15.577012 11.8993651,12.64 8.27637713,12.64 C5.32106708,12.64 2.75335451,14.6116837 1.96237908,17.4132635 L0.0376209212,16.8698428 C0.536987221,15.1011222 1.57813587,13.586241 2.95637713,12.4932864 L2.95637713,0.117647059 L15.8136431,0.117647059 L19.1307922,10.64 L21.2416603,10.64 L21.2416603,5.17289064 C21.2416603,5.08167535 21.2263961,4.97114415 21.1991578,4.86642595 C21.0675685,4.36052921 20.6075978,4 20.0763771,4 L20.0763771,2 C21.5237583,2 22.7752755,2.98095043 23.1347505,4.36295723 C23.2032051,4.62613182 23.2416603,4.9045939 23.2416603,5.17289064 L23.2416603,10.64 Z M10.2773862,2.11764706 L10.2773862,9 L8.27738623,9 L8.27738623,2.11764706 L4.95637713,2.11764706 L4.95637713,11.3089593 C5.98266917,10.876831 7.10619519,10.64 8.27637713,10.64 C12.6656596,10.64 16.2833421,13.9436124 16.7785874,18.2 L20.7807643,18.2 C21.5080177,16.910635 22.8905236,16.04 24.4763771,16.04 C24.5168117,16.04 24.557114,16.040566 24.5972766,16.0416905 L24.5656355,12.64 L17.6642603,12.64 L14.3471112,2.11764706 L10.2773862,2.11764706 Z M8.27637713,24.52 C5.33822226,24.52 2.95637713,22.1381549 2.95637713,19.2 C2.95637713,16.2618451 5.33822226,13.88 8.27637713,13.88 C11.214532,13.88 13.5963771,16.2618451 13.5963771,19.2 C13.5963771,22.1381549 11.214532,24.52 8.27637713,24.52 Z M8.27637713,22.52 C10.1099625,22.52 11.5963771,21.0335854 11.5963771,19.2 C11.5963771,17.3664146 10.1099625,15.88 8.27637713,15.88 C6.44279176,15.88 4.95637713,17.3664146 4.95637713,19.2 C4.95637713,21.0335854 6.44279176,22.52 8.27637713,22.52 Z M24.4763771,22.52 C25.713495,22.52 26.7163771,21.5171178 26.7163771,20.28 C26.7163771,19.0428822 25.713495,18.04 24.4763771,18.04 C23.2392593,18.04 22.2363771,19.0428822 22.2363771,20.28 C22.2363771,21.5171178 23.2392593,22.52 24.4763771,22.52 Z" id="Combined-Shape"></path>
                </g>
            </g>
        </g>
    </g>
</svg>