<?xml version="1.0" encoding="UTF-8"?>
<svg width="32px" height="32px" viewBox="0 0 32 32" version="1.1" xmlns="http://www.w3.org/2000/svg" xmlns:xlink="http://www.w3.org/1999/xlink">
    <!-- Generator: Sketch 50.2 (55047) - http://www.bohemiancoding.com/sketch -->
    <title>twitter-32</title>
    <desc>Created with Sketch.</desc>
    <defs></defs>
    <g id="twitter-32" stroke="none" stroke-width="1" fill="none" fill-rule="evenodd">
        <g id="twitter-32-crop" transform="translate(2.000000, 2.000000)" fill="#FF0000" fill-rule="nonzero">
            <path d="M2,2 L2,26 L26,26 L26,2 L2,2 Z M0,0 L28,0 L28,28 L0,28 L0,0 Z" id="Rectangle-3"></path>
            <path d="M11.4200499,20.8000002 C17.3635393,20.8000002 20.6136442,15.8763083 20.6136442,11.6064059 C20.6136442,11.5167597 20.6125022,11.4276844 20.6102182,11.3386091 C20.6073632,11.2455369 20.6496169,11.1564617 20.7232753,11.1005041 C21.2057662,10.7350672 21.6374386,10.3022528 22.0017336,9.81804883 C22.0656851,9.73297054 21.9788938,9.61648751 21.8789696,9.6541732 C21.4290254,9.82375878 20.9550993,9.94423878 20.4634724,10.0110452 C20.4400616,10.0144712 20.4280707,9.98249546 20.4480556,9.96993356 C20.9705162,9.63361737 21.3907687,9.15169739 21.6494295,8.58070215 C21.7002481,8.4676451 21.5786261,8.35344605 21.468995,8.41111657 C20.9739422,8.66863542 20.4423456,8.86448679 19.8833413,8.98896375 C19.7902691,9.00951958 19.6931999,8.98039882 19.6246804,8.91416337 C19.0428363,8.34887809 18.2468689,8 17.3715332,8 C15.5866021,8 14.1397002,9.44747292 14.1397002,11.231262 C14.1397002,11.4139805 14.1545461,11.593273 14.1830958,11.7674266 C14.2002257,11.8707767 14.1185734,11.9627069 14.0140813,11.955284 C11.5176901,11.7731365 9.2988026,10.5957443 7.75197651,8.81595219 C7.65833329,8.70860509 7.48360875,8.73030291 7.42365425,8.85991882 C7.23237085,9.27274838 7.12559474,9.73182855 7.12559474,10.2160325 C7.12559474,11.2997815 7.65833329,12.2601955 8.47771145,12.8460366 C8.50169325,12.8637374 8.48913136,12.9025651 8.45886861,12.9008521 C8.04318408,12.8745863 7.64919737,12.7689522 7.29118335,12.5999376 C7.2015371,12.557113 7.09989995,12.6284874 7.1056099,12.7278405 C7.11189085,12.8380426 7.12273976,12.9482447 7.13815663,13.0447429 C7.34085994,14.3420441 8.31554881,15.3846814 9.57744828,15.6855959 C9.60599804,15.6924478 9.60542704,15.7329885 9.57687728,15.7392694 C9.33991426,15.794656 9.09324432,15.8243477 8.83972243,15.8243477 C8.69354765,15.8243477 8.55022785,15.8140698 8.40919203,15.794656 C8.3281107,15.783807 8.26415924,15.8626044 8.29327999,15.9391178 C8.72038443,17.0491325 9.74360789,17.8639427 10.9706767,17.9929876 C11.0660329,18.0026945 11.1002926,18.1254585 11.0220662,18.181416 C9.95544712,18.9442657 8.64901002,19.3936389 7.2375098,19.3936389 L7.17127436,19.3930679 C6.99369484,19.3930679 6.93374034,19.6306019 7.09019303,19.7145382 C8.38064226,20.4060135 9.85323898,20.8000002 11.4200499,20.8000002" id="Fill-2"></path>
        </g>
    </g>
</svg>