<?xml version="1.0" encoding="UTF-8"?>
<svg width="32px" height="32px" viewBox="0 0 32 32" version="1.1" xmlns="http://www.w3.org/2000/svg" xmlns:xlink="http://www.w3.org/1999/xlink">
    <!-- Generator: Sketch 50.2 (55047) - http://www.bohemiancoding.com/sketch -->
    <title>umbrella-32</title>
    <desc>Created with Sketch.</desc>
    <defs></defs>
    <g id="umbrella-32" stroke="none" stroke-width="1" fill="none" fill-rule="evenodd">
        <g id="umbrella-32-crop" transform="translate(3.000000, 2.000000)" fill="#FF0000" fill-rule="nonzero">
            <path d="M14,4 L12,4 C7.43018168,4 3.13464614,7.85407357 2.19127579,12.236221 C3.51989815,11.2286207 5.20843652,10.727273 7.06918764,10.727273 C9.38048934,10.727273 11.538665,11.78909 13.0074696,13.5234228 C14.4990587,11.8235112 16.7952853,10.727273 19,10.727273 C20.8785313,10.727273 22.5113285,11.1999485 23.7890079,12.1605058 C22.8028846,7.82389439 18.5060509,4 14,4 Z M26,15.5272732 L24,15.5272732 C23.0428715,13.5320654 21.2409337,12.727273 19,12.727273 C17.1139495,12.727273 15.0317459,13.8727277 13.9999998,15.5272732 L11.9999998,15.5272732 C10.9682538,13.8727277 9.1326797,12.727273 7.06918764,12.727273 C5.00569558,12.727273 3.02812886,13.5054951 2,15.5272732 L0,15.5272732 L0,14 C0,8 5.5625,2 12,2 L14,2 C20.375,2 26,8 26,14 L26,15.5272732 Z" id="Shape"></path>
            <path d="M11.7911988,25.0788575 C11.4852295,25.5822754 11.0396825,25.9636364 10.0079365,25.9636364 C8.97619048,25.9636364 8.0734127,25.0727273 8.0734127,23.9272727 L6.13888889,23.9272727 C6.13888889,26.0909091 7.81547619,27.8727273 10.0079365,27.8727273 C11.9424603,27.8727273 14.0000001,26.4795044 14.0000001,24 C14.0000001,21.5204956 12.0000001,24 12.0000001,24 C12.0000001,24 12.097168,24.5754395 11.7911988,25.0788575 Z" id="Shape"></path>
            <polygon id="Shape" points="12 14 12 15 12 24 12 24 14 24 14 24 14 15 14 14"></polygon>
            <polygon id="Shape" points="14 3 14 2.19230769 14 0 12 0 12 2.30769231 12 3"></polygon>
        </g>
    </g>
</svg>