<?xml version="1.0" encoding="UTF-8"?>
<svg width="32px" height="32px" viewBox="0 0 32 32" version="1.1" xmlns="http://www.w3.org/2000/svg" xmlns:xlink="http://www.w3.org/1999/xlink">
    <!-- Generator: Sketch 50.2 (55047) - http://www.bohemiancoding.com/sketch -->
    <title>user-32</title>
    <desc>Created with Sketch.</desc>
    <defs></defs>
    <g id="user-32" stroke="none" stroke-width="1" fill="none" fill-rule="evenodd">
        <g id="user-32-crop" transform="translate(1.500000, 0.500000)" fill="#FF0000" fill-rule="nonzero">
            <path d="M22.4626548,14.1206204 C22.8088576,15.1630133 23,16.3226102 23,17.5 C23,23.3107721 18.2952449,28 12.5,28 C6.72453355,28 2,23.2754664 2,17.5 C2,11.6892279 6.70475515,7 12.5,7 C15.5938624,7 18.4809972,8.35000288 20.4931147,10.6716769 L22.0044929,9.36181587 C19.6167239,6.6066978 16.1806177,5 12.5,5 C5.60166299,5 0,10.5831757 0,17.5 C0,24.3800359 5.61996405,30 12.5,30 C19.398337,30 25,24.4168243 25,17.5 C25,16.1059384 24.7736782,14.7329197 24.3434201,13.4421454 L24.0320824,12.6377528 L23.7842243,12 L15.1961722,12 C12.8560926,12 11.2867272,11.4551519 10.305871,10.5803225 C9.76845305,10.1009974 9.52860109,9.65251292 9.47203113,9.41837504 L7.52796887,9.88807913 C7.67355202,10.4906345 8.10490222,11.2971898 8.97463141,12.0729046 C10.3390204,13.2898082 12.3846371,14 15.1961722,14 L22.4157765,14 L22.4626548,14.1206204 Z" id="Shape"></path>
            <path d="M8.58823529,17.3256207 C8.58823529,17.1447075 8.72308257,17 8.82352941,17 C8.92397626,17 9.05882353,17.1447075 9.05882353,17.3256207 L11.0588235,17.3256207 C11.0588235,16.0704448 10.0613179,15 8.82352941,15 C7.58574096,15 6.58823529,16.0704448 6.58823529,17.3256207 L8.58823529,17.3256207 Z" id="Shape"></path>
            <path d="M16,17.3256207 C16,17.1447075 16.1348473,17 16.2352941,17 C16.335741,17 16.4705882,17.1447075 16.4705882,17.3256207 L18.4705882,17.3256207 C18.4705882,16.0704448 17.4730826,15 16.2352941,15 C14.9975057,15 14,16.0704448 14,17.3256207 L16,17.3256207 Z" id="Shape"></path>
            <path d="M15.9523556,21.1095816 C15.0268214,22.0034711 13.8030185,22.4859039 12.5294118,22.4859039 C11.255805,22.4859039 10.0320021,22.0034711 9.10646796,21.1095816 L7.71706145,22.5481745 C9.01994739,23.8065139 10.743378,24.4859039 12.5294118,24.4859039 C14.3154455,24.4859039 16.0388761,23.8065139 17.3417621,22.5481745 L15.9523556,21.1095816 Z" id="Shape"></path>
            <polygon id="Shape" points="18.7120387 4.65081947 19.486547 1.31863043 17.5384769 0.865836045 16.7639686 4.19802508"></polygon>
            <polygon id="Shape" points="22.8554186 6.92643777 24.987416 4.22843911 23.4182159 2.98843462 21.2862185 5.68643328"></polygon>
            <polygon id="Shape" points="25.12972 10.7832364 28.2195288 9.23430705 27.3232388 7.44638525 24.23343 8.99531458"></polygon>
        </g>
    </g>
</svg>