<?xml version="1.0" encoding="UTF-8"?>
<svg width="32px" height="32px" viewBox="0 0 32 32" version="1.1" xmlns="http://www.w3.org/2000/svg" xmlns:xlink="http://www.w3.org/1999/xlink">
    <!-- Generator: Sketch 50.2 (55047) - http://www.bohemiancoding.com/sketch -->
    <title>user-happy-32</title>
    <desc>Created with Sketch.</desc>
    <defs></defs>
    <g id="user-happy-32" stroke="none" stroke-width="1" fill="none" fill-rule="evenodd">
        <g id="user-happy-32-crop" transform="translate(3.000000, 3.000000)" fill="#FF0000" fill-rule="nonzero">
            <path d="M24,13 C24,19.0753172 19.0750663,24 12.9996532,24 C6.92483541,24 2,19.0752189 2,13 C2,6.92478111 6.92483541,2 12.9996532,2 C16.247704,2 19.2632807,3.41398911 21.3413017,5.82870221 L22.8572475,4.52413016 C20.4031931,1.6724566 16.8363896,0 12.9996532,0 C5.82027085,0 0,5.82020668 0,13 C0,20.1797933 5.82027085,26 12.9996532,26 C20.179613,26 26,20.1799095 26,13 C26,11.5385478 25.7583727,10.1086257 25.2903814,8.75431768 L25.1024964,8.25834706 L24.8575423,7.6134104 L15.7692841,7.6134104 C13.3392393,7.6134104 11.6683082,6.9753692 10.5754499,5.93510194 C10.208257,5.58557935 9.93510479,5.21490054 9.74213652,4.84928638 C9.63411272,4.64461527 9.57966111,4.5007275 9.56561448,4.448002 L7.63302139,4.96286505 C7.80715383,5.61648964 8.27887669,6.51025605 9.19652203,7.38374199 C10.66963,8.78596028 12.8365937,9.6134104 15.7692841,9.6134104 L23.4698351,9.6134104 C23.8166565,10.6800174 24,11.8269 24,13 Z" id="Stroke-1"></path>
            <path d="M17.2928932,17.2928932 C16.140688,18.4450984 14.6021821,19.0680318 13,19.0680318 C11.3978179,19.0680318 9.85931201,18.4450984 8.70710678,17.2928932 L7.29289322,18.7071068 C8.82430797,20.2385215 10.8730126,21.0680318 13,21.0680318 C15.1269874,21.0680318 17.175692,20.2385215 18.7071068,18.7071068 L17.2928932,17.2928932 Z" id="Stroke-3"></path>
            <path d="M11.3921,13.263 L9.3921,13.263 C9.3921,13.13 9.2621,13 9.1291,13 C8.9961,13 8.8661,13.13 8.8661,13.263 L6.8661,13.263 C6.8661,12.036 7.9021,11 9.1291,11 C10.3551,11 11.3921,12.036 11.3921,13.263" id="Fill-3"></path>
            <path d="M18.7246,13.263 L16.7246,13.263 C16.7246,13.13 16.5946,13 16.4616,13 C16.3286,13 16.1986,13.13 16.1986,13.263 L14.1986,13.263 C14.1986,12.036 15.2346,11 16.4616,11 C17.6876,11 18.7246,12.036 18.7246,13.263" id="Fill-5"></path>
        </g>
    </g>
</svg>