<?xml version="1.0" encoding="UTF-8"?>
<svg width="32px" height="32px" viewBox="0 0 32 32" version="1.1" xmlns="http://www.w3.org/2000/svg" xmlns:xlink="http://www.w3.org/1999/xlink">
    <!-- Generator: Sketch 50.2 (55047) - http://www.bohemiancoding.com/sketch -->
    <title>wallet-32</title>
    <desc>Created with Sketch.</desc>
    <defs></defs>
    <g id="wallet-32" stroke="none" stroke-width="1" fill="none" fill-rule="evenodd">
        <path d="M29,14 L28,14 L28,9 L8.067,9 L8.067,11 L26,11 L26,14 L23,14 L23,16 L27,16 L27,19 L23,19 L23,21 L26,21 L26,24 L7.898,24 C6.852,24 6,23.177 6,22.165 L6,8.835 C6,7.823 6.852,7 7.898,7 L26,7 L26,5 L7.898,5 C5.749,5 4,6.721 4,8.835 L4,22.165 C4,24.279 5.749,26 7.898,26 L28,26 L28,21 L29,21 L29,14 Z" id="wallet-32-crop" fill="#FF0000"></path>
    </g>
</svg>