<?xml version="1.0" encoding="UTF-8"?>
<svg width="32px" height="32px" viewBox="0 0 32 32" version="1.1" xmlns="http://www.w3.org/2000/svg" xmlns:xlink="http://www.w3.org/1999/xlink">
    <!-- Generator: Sketch 50.2 (55047) - http://www.bohemiancoding.com/sketch -->
    <title>world-32</title>
    <desc>Created with Sketch.</desc>
    <defs></defs>
    <g id="world-32" stroke="none" stroke-width="1" fill="none" fill-rule="evenodd">
        <g id="world-32-crop" transform="translate(3.000000, 3.000000)" fill="#FF0000">
            <path d="M13,0 C5.82,0 0,5.82 0,13 C0,20.18 5.82,26 13,26 C20.18,26 26,20.18 26,13 C26,5.82 20.18,0 13,0 M13,2 C19.065,2 24,6.935 24,13 C24,19.065 19.065,24 13,24 C6.935,24 2,19.065 2,13 C2,6.935 6.935,2 13,2" id="Fill-1"></path>
            <path d="M13.9365,21.3037 C13.8315,21.3037 13.7245,21.2947 13.6175,21.2777 C12.7765,21.1397 11.7415,20.4377 11.5865,17.8777 C11.4365,15.3997 10.4415,14.9657 9.2895,14.4647 C8.3095,14.0377 6.9685,13.4537 7.0105,11.5067 C7.0295,10.6407 7.3085,9.9477 7.8395,9.4457 C8.8695,8.4727 10.5145,8.5327 12.1085,8.5907 C14.5525,8.6767 15.3985,8.5387 15.5715,7.5357 C15.6305,7.1927 15.6015,6.9517 15.4845,6.8227 C15.0065,6.2907 13.1275,6.4137 12.1165,6.4807 C10.8835,6.5617 10.1385,6.6117 9.6475,6.0897 C9.4105,5.8387 9.2995,5.4967 9.3425,5.1527 C9.4555,4.2497 10.2635,3.6387 11.1995,2.9317 C11.8575,2.4347 12.6025,1.8707 12.9155,1.3117 C13.1865,0.8287 13.7945,0.6577 14.2775,0.9287 C14.7585,1.1987 14.9305,1.8077 14.6605,2.2897 C14.1635,3.1767 13.2925,3.8547 12.5035,4.4517 C14.0635,4.3647 15.9585,4.3597 16.9715,5.4847 C17.3475,5.9037 17.7525,6.6577 17.5415,7.8757 C17.0415,10.7707 14.1495,10.6637 12.0365,10.5887 C10.9705,10.5517 9.6345,10.5027 9.2115,10.9007 C9.1655,10.9447 9.0205,11.0807 9.0105,11.5497 C8.9995,12.0997 9.0995,12.1997 10.0875,12.6307 C11.3905,13.1987 13.3585,14.0557 13.5825,17.7567 C13.6625,19.0547 13.9795,19.3177 13.9825,19.3197 C14.1565,19.2967 14.9765,18.6617 15.5695,17.2007 C15.6285,17.0547 15.6985,16.8947 15.7735,16.7207 C16.1905,15.7587 16.7605,14.4417 16.7605,12.7917 C16.7605,11.7667 17.6905,10.8107 19.1295,10.3567 C20.9935,9.7687 23.6415,10.0647 25.4655,12.6697 C25.7825,13.1217 25.6725,13.7447 25.2195,14.0627 C24.7695,14.3787 24.1425,14.2697 23.8275,13.8167 C22.6645,12.1557 21.1885,12.0477 20.4105,12.1237 C19.4225,12.2267 18.8225,12.6997 18.7485,12.8687 C18.7605,14.8567 18.0675,16.4567 17.6085,17.5157 C17.5405,17.6747 17.4765,17.8207 17.4225,17.9537 C16.7245,19.6717 15.4015,21.3037 13.9365,21.3037" id="Fill-3"></path>
            <path d="M4.0273,21.211 C3.6923,21.211 3.3663,21.043 3.1763,20.738 C2.8853,20.269 3.0303,19.652 3.4993,19.361 C3.9093,19.107 4.1653,18.799 4.2593,18.446 C4.5893,17.229 3.0093,15.607 0.7383,14.832 C0.2153,14.653 -0.0637,14.085 0.1153,13.563 C0.2943,13.04 0.8613,12.759 1.3843,12.94 C4.7983,14.106 6.8203,16.641 6.1903,18.968 C5.9633,19.814 5.3963,20.538 4.5533,21.061 C4.3893,21.162 4.2073,21.211 4.0273,21.211" id="Fill-5"></path>
        </g>
    </g>
</svg>