<?xml version="1.0" encoding="UTF-8"?>
<svg width="32px" height="32px" viewBox="0 0 32 32" version="1.1" xmlns="http://www.w3.org/2000/svg" xmlns:xlink="http://www.w3.org/1999/xlink">
    <!-- Generator: Sketch 50.2 (55047) - http://www.bohemiancoding.com/sketch -->
    <title>youtube-32</title>
    <desc>Created with Sketch.</desc>
    <defs></defs>
    <g id="youtube-32" stroke="none" stroke-width="1" fill="none" fill-rule="evenodd">
        <g transform="translate(2.000000, 2.000000)" fill="#FF0000">
            <path d="M2,2 L2,26 L26,26 L26,2 L2,2 Z M0,0 L28,0 L28,28 L0,28 L0,0 Z" id="Rectangle-3" fill-rule="nonzero"></path>
            <path d="M12.2140612,16.2377457 L12.2135085,11.3768538 L16.8875705,13.815591 L12.2140612,16.2377457 Z M22.4769881,10.5350141 C22.4769881,10.5350141 22.3078463,9.34273031 21.7893659,8.81761691 C21.1315923,8.12888922 20.3942225,8.12557272 20.0559389,8.0852219 C17.6348898,7.90999985 14.0038688,7.90999985 14.0038688,7.90999985 L13.9961303,7.90999985 C13.9961303,7.90999985 10.3651093,7.90999985 7.94406011,8.0852219 C7.60577653,8.12557272 6.86895952,8.12888922 6.21063313,8.81761691 C5.69215274,9.34273031 5.52301095,10.5350141 5.52301095,10.5350141 C5.52301095,10.5350141 5.3499999,11.9351323 5.3499999,13.3346977 L5.3499999,14.6474812 C5.3499999,16.0470466 5.52301095,17.4471647 5.52301095,17.4471647 C5.52301095,17.4471647 5.69215274,18.6394485 6.21063313,19.1645619 C6.86895952,19.8532896 7.733462,19.8317323 8.11817666,19.90359 C9.50226504,20.0362502 13.9999995,20.0777065 13.9999995,20.0777065 C13.9999995,20.0777065 17.6348898,20.072179 20.0559389,19.896957 C20.3942225,19.8566061 21.1315923,19.8532896 21.7893659,19.1645619 C22.3078463,18.6394485 22.4769881,17.4471647 22.4769881,17.4471647 C22.4769881,17.4471647 22.6499991,16.0470466 22.6499991,14.6474812 L22.6499991,13.3346977 C22.6499991,11.9351323 22.4769881,10.5350141 22.4769881,10.5350141 L22.4769881,10.5350141 Z" id="Fill-2"></path>
        </g>
    </g>
</svg>