<svg width="24" height="24" xmlns="http://www.w3.org/2000/svg"><g fill="none" fill-rule="evenodd"><path d="M0 0h24v24H0z"/><path d="M10.67 16.812c1.311 2.45 2.842 3.061 4.965 2.07 2.124-.99 2.64-2.555 1.628-5.083l-2.981-6.392 1.813-.845 3.002 6.443c1.411 3.519.519 6.228-2.616 7.69-3.136 1.462-5.785.404-7.599-2.988L4.647 8.625l-.04-.102c-.731-2.157.066-3.904 2.2-4.899 2.13-.993 3.985-.49 5.19 1.44l.058.107 4.235 9.082.044.112c.498 1.522.098 2.789-1.219 3.403-1.315.613-2.543.107-3.392-1.252l-.058-.107-2.98-6.392 1.812-.845 2.954 6.334c.334.522.518.59.82.45.3-.141.366-.325.18-.915L10.27 6.074c-.652-1.012-1.405-1.203-2.618-.637C6.442 6 6.113 6.69 6.485 7.832l4.185 8.98z" fill="currentColor" fill-rule="nonzero"/></g></svg>