<svg width="24" height="24" xmlns="http://www.w3.org/2000/svg"><g fill="none" fill-rule="evenodd"><path d="M0 0h24v24H0z"/><path d="M14.744 1.209l.181.042.143.045a2.722 2.722 0 011.74 3.15l-.042.167a2.722 2.722 0 01-3.087 1.928l-.004.014a6.81 6.81 0 102.411 1.205l-.217-.162 1.167-1.624A8.81 8.81 0 113.09 13.132a8.81 8.81 0 0110.733-8.6l.125.03.003-.009a.722.722 0 00.577-1.31l-.033-.018-.237.19a2.91 2.91 0 01-.27.192l-.136.078-.921-1.775.046-.032.157-.125c.246-.2.397-.307.622-.409.311-.141.645-.193.99-.135zM8.717 15.302c.362.402.86.635 1.392.663.473.024.936-.115 1.316-.4l.139-.114 1.337 1.487c-.8.72-1.84 1.08-2.896 1.024a4.004 4.004 0 01-2.616-1.155l-.158-.167 1.486-1.338zm1.458-3.278l.013.149-1.998.093a.095.095 0 00-.184-.028L8 12.275l-1.998.093a2.095 2.095 0 014.173-.344zm4.695-.176l.012.15-1.998.092a.095.095 0 00-.184-.028l-.005.037-1.998.094a2.094 2.094 0 014.173-.345z" fill="currentColor" fill-rule="nonzero"/></g></svg>