<svg width="24" height="24" xmlns="http://www.w3.org/2000/svg"><g fill="none" fill-rule="evenodd"><path d="M0 0h24v24H0z"/><g fill="currentColor" fill-rule="nonzero"><path d="M18.296 3.474l.808 3.648 1.952-.432-1.22-5.511-11.195 1.93.34 1.97zM12 14.5a3.5 3.5 0 10-7 0 3.5 3.5 0 007 0zm-5 0a1.5 1.5 0 113 0 1.5 1.5 0 01-3 0zM11.842 23.008a2.75 2.75 0 100-5.5 2.75 2.75 0 000 5.5zm0-2a.75.75 0 110-1.5.75.75 0 010 1.5z"/><path d="M4.424 11.566l1.517-6.85 13.32 2.718-1.517 6.85-6.468-1.32-.4 1.96 8.395 1.714L21.652 5.88 4.413 2.362 2.033 13.12l4.133.844.4-1.96z"/></g></g></svg>