<svg width="24" height="24" xmlns="http://www.w3.org/2000/svg"><g fill="none" fill-rule="evenodd"><path d="M0 0h24v24H0z"/><path d="M11.998 2c2.418-.001 4.13.212 5.294.605.939.318 1.59.785 1.935 1.384L21.733 8H23a1 1 0 010 2h-.673l.721 2.758-.004.271L23 18.5c0 1.666-1.392 3-3 3-1.439 0-2.707-1.095-2.956-2.499l-10.086.004A3.009 3.009 0 014 21.5c-1.632 0-3-1.14-3-3v-5.746L1.687 10H1a1 1 0 110-2h1.265l2.509-4.012c.346-.6 1-1.067 1.944-1.384C7.881 2.214 9.588 2 11.998 2zM12 4c-5.063.003-5.5 1-5.5 1L4 9l-1 4-.001 1H15v2H2.999L3 18.5c0 .75.5 1 1 1s1-.406 1-1V17h14v1.5c0 .531.5 1 1 1s1-.438 1-1l.044-5.5L20 9l-2.5-4s-.438-1.003-5.5-1zm8 10v2h-4v-2h4zM6.5 10a1.5 1.5 0 110 3 1.5 1.5 0 010-3zm11 0a1.5 1.5 0 110 3 1.5 1.5 0 010-3zM14 4.6l2.414 2.414H18v2h-2.414L14 7.428l-1.586 1.586H6v-2h5.586L14 4.6z" fill="currentColor" fill-rule="nonzero"/></g></svg>