<svg width="24" height="24" xmlns="http://www.w3.org/2000/svg"><g fill="currentColor" fill-rule="nonzero"><path d="M9.704 6L8.378 8H4.744A.76.76 0 004 8.75v8.513c0 .4.338.737.744.737h14.512a.749.749 0 00.744-.737V8.75a.76.76 0 00-.744-.75h-3.634l-1.326-2H9.704zM8.399 4.35A.635.635 0 018.901 4a.644.644 0 01.066 0h6.066c.24 0 .46.136.568.35L16.696 6h2.56A2.76 2.76 0 0122 8.75v8.513A2.748 2.748 0 0119.256 20H4.744A2.748 2.748 0 012 17.263V8.75A2.76 2.76 0 014.744 6h2.56L8.4 4.35z"/><path d="M12 15a2.5 2.5 0 100-5 2.5 2.5 0 000 5zm0 2a4.5 4.5 0 110-9 4.5 4.5 0 010 9z"/></g></svg>