<svg width="24" height="24" xmlns="http://www.w3.org/2000/svg"><g fill="none" fill-rule="evenodd"><path d="M0 0h24v24H0z"/><path d="M20 19h-2v1a1 1 0 002 0v-1zm-1-2a1 1 0 00-1 1h2a1 1 0 00-1-1zm-7-3v2H6v-2h6zm3.954.424h1.303c.614 0 1.06.222 1.354.602A3 3 0 0122 18v2a3 3 0 01-6 0v-2c0-1.085.576-2.036 1.44-2.562a1.11 1.11 0 00-.183-.014h-1.303c-1.66 0-2.454-.713-2.454-2.424H9.999L10 14H8l-.001-1H2V2h14v11h-1.5c0 1.134.323 1.424 1.454 1.424zM14 4H4v7h10V4zm-4.3.868l.707.707-4.832 4.832-.707-.707L9.7 4.868zm-2.216.19l.696.717L5.69 8.19l-.696-.718 2.49-2.416z" fill="currentColor" fill-rule="nonzero"/></g></svg>