<svg width="24" height="24" xmlns="http://www.w3.org/2000/svg"><g fill="currentColor" fill-rule="nonzero"><path d="M12 22.283c-1.535 0-2.775-1.258-2.775-2.804 0-1.547 1.24-2.805 2.776-2.805 1.535 0 2.775 1.258 2.775 2.805 0 1.546-1.24 2.804-2.775 2.804zm0-1.5c.702 0 1.276-.581 1.276-1.304 0-.723-.574-1.305-1.275-1.305-.702 0-1.276.582-1.276 1.305s.574 1.304 1.276 1.304zM12 1.418c2.735 0 5.295 1.224 7.053 3.295l-1.143.971c-1.478-1.74-3.622-2.766-5.91-2.766-3.218 0-6.071 2.005-7.227 4.95l-.115.402a7.939 7.939 0 00-.414 2.58c0 1.106.223 2.19.65 3.2l.44 1.042H4.051c-2.24 0-4.041-1.828-4.041-4.089 0-2.086 1.534-3.803 3.53-4.056C5.04 3.613 8.318 1.418 12 1.418zM1.51 11.003c0 1.088.65 2.012 1.575 2.397a9.82 9.82 0 01-.096-4.751 2.585 2.585 0 00-1.479 2.354z"/><path d="M19.228 7.868l1.444-.407.087.316c.329.944.498 2.001.498 3.072 0 3.504-1.922 6.718-4.897 8.312a8.56 8.56 0 01-2.276.845l-.319-1.466a7.072 7.072 0 001.881-.698c2.493-1.336 4.11-4.042 4.11-6.993 0-.907-.142-1.798-.427-2.622l-.101-.36z"/><path d="M8.137 5.034l1.449-.39c.062.232.278.642.72 1.067.775.746 1.955 1.203 3.67 1.203h5.974v1.5h-5.975c-2.095 0-3.65-.602-4.71-1.622-.66-.634-1-1.283-1.128-1.758zM14.352 12.994l1.069 1.053a4.86 4.86 0 01-3.471 1.456 4.86 4.86 0 01-3.471-1.456l1.068-1.053a3.36 3.36 0 002.403 1.009 3.36 3.36 0 002.402-1.01z"/><path d="M19.95 8.414v-1.5c2.24 0 4.041 1.828 4.041 4.09 0 2.26-1.802 4.088-4.041 4.088v-1.5c1.406 0 2.541-1.151 2.541-2.589 0-1.437-1.135-2.589-2.541-2.589z"/></g></svg>