<svg width="24" height="24" xmlns="http://www.w3.org/2000/svg"><g fill="none" fill-rule="evenodd"><path d="M0 0h24v24H0z"/><path d="M22 2v19.553l-5.838-2.655L12 21.135l-4.163-2.237L2 21.553V2h20zm-2 2H4v14.446l3.912-1.779 4.087 2.197 4.089-2.197L20 18.446V4zm-8.076 2c2.74 0 3.87 2.114 3.278 5.232h-4.82c.126 1.254.825 1.791 1.954 1.791.842 0 1.791-.25 2.544-.573l.25 1.774c-.877.483-1.88.77-2.884.77C9.792 14.994 8 13.274 8 10.39 8 7.38 10.007 6 11.924 6zm.018 1.81c-.896 0-1.541.734-1.577 1.88h2.92c.072-1.164-.376-1.88-1.343-1.88z" fill="currentColor" fill-rule="nonzero"/></g></svg>