<svg width="24" height="24" xmlns="http://www.w3.org/2000/svg"><g fill="currentColor" fill-rule="nonzero"><path d="M14.75 18.436v.004h-.009c-.842.36-1.769.56-2.741.56-.972 0-1.899-.2-2.741-.56H9.16v-.047a7.042 7.042 0 01-3.6-3.652A6.954 6.954 0 015 12c0-.972.2-1.898.56-2.74a7.034 7.034 0 013.6-3.652V5.56h.099a6.98 6.98 0 015.482 0h.009v.005a7.038 7.038 0 013.69 3.695c.36.842.56 1.768.56 2.74 0 .973-.2 1.899-.56 2.74a7.038 7.038 0 01-3.69 3.696m3.69-12.71a8.967 8.967 0 00-12.88 0 8.963 8.963 0 000 12.548c.055.056.11.112.166.166A8.962 8.962 0 0012 21a8.962 8.962 0 006.274-2.56c.056-.054.111-.11.166-.166a8.965 8.965 0 000-12.547"/><path d="M9.16 10.801a1.497 1.497 0 00-.85-.24c-.9 0-1.53.63-1.53 1.44 0 .81.72 1.44 1.53 1.44.322 0 .613-.104.85-.275.359-.259.59-.679.59-1.166 0-.507-.211-.943-.59-1.199M12 10.56c-.81 0-1.44.63-1.44 1.44 0 .81.63 1.44 1.44 1.44.81 0 1.44-.63 1.44-1.44 0-.81-.63-1.44-1.44-1.44M15.69 10.56c-.368 0-.687.109-.94.289a1.39 1.39 0 00-.59 1.15c0 .463.238.86.59 1.123.265.197.592.318.94.318.81 0 1.53-.63 1.53-1.44 0-.81-.72-1.44-1.53-1.44"/></g></svg>