<svg width="24" height="24" xmlns="http://www.w3.org/2000/svg"><g fill="none" fill-rule="evenodd"><path d="M0 0h24v24H0z"/><path d="M21.305 13.28l1.39 1.44-7.943 7.668-4.445-4.267 1.386-1.442 3.055 2.932 6.557-6.33zM8.5 2a3.75 3.75 0 013.392 5.352 8.501 8.501 0 011.813 2.027c.6.951 1.006 2.266 1.24 3.954l.048.368.078.651-.566.331c-1.548.906-3.302 1.234-6.001 1.234-2.57 0-4.282-.295-5.775-1.102l-.234-.132-.566-.331.078-.651c.225-1.866.645-3.303 1.288-4.322A8.535 8.535 0 015.108 7.35 3.75 3.75 0 018.5 2zm2.086 6.866l-.087.057A3.732 3.732 0 018.5 9.5a3.733 3.733 0 01-2.085-.632 6.526 6.526 0 00-1.429 1.578c-.36.573-.649 1.417-.85 2.527l-.047.281.203.085c.972.384 2.16.554 3.843.575l.369.003c1.876 0 3.163-.167 4.204-.578l.202-.085-.047-.281c-.182-1.01-.436-1.799-.753-2.364l-.096-.163a6.57 6.57 0 00-1.428-1.58zM8.5 4a1.75 1.75 0 100 3.5 1.75 1.75 0 000-3.5z" fill="currentColor" fill-rule="nonzero"/></g></svg>