<svg width="24" height="24" xmlns="http://www.w3.org/2000/svg"><g fill="none" fill-rule="evenodd"><path d="M0 0h24v24H0z"/><path d="M3.388 14.234l1.077 1.685-.121.078-.04.04a1.24 1.24 0 00-.297.694L4 16.863c0 .678.518 1.214 1.14 1.214.306 0 .593-.129.806-.355l.042-.05.12-.236 1.784.904-.168.332-.092.148a3.111 3.111 0 01-2.492 1.257C3.398 20.077 2 18.63 2 16.863c0-.847.324-1.645.888-2.24l.146-.144.14-.108.214-.137zM20 14a3 3 0 110 6 3 3 0 010-6zm0 2a1 1 0 100 2 1 1 0 000-2zM16.66 4l3.003 7.008.099-.004L20 11h2v2h-2c-2.235 0-3.887 1.352-3.994 2.845L16 16v2H8.648L2 12.66V8h10v1c0 1.749-1.032 2.981-2.588 3.583.257.532.762.879 1.318.879.753 0 1.214-.454 1.265-1.299L12 12h2c0 2.017-1.325 3.462-3.27 3.462-1.525 0-2.832-1.026-3.308-2.474l-.183.008L7 13v-2c1.249 0 2.186-.357 2.659-.971L9.678 10H4v1.701L9.352 16H14c0-2.05 1.49-3.84 3.652-4.605L15.34 6H14V4h2.66z" fill="currentColor" fill-rule="nonzero"/></g></svg>