<svg width="24" height="24" xmlns="http://www.w3.org/2000/svg" xmlns:xlink="http://www.w3.org/1999/xlink"><defs><path d="M6.5 12.733l5.5 4.278V21h-2v-3.01l-3.5-2.723L3 17.989V21H1v-3.99l5.5-4.277zM7.5 18v3h-2v-3h2zm7-5a2.5 2.5 0 110 5 2.5 2.5 0 010-5zm0 1.886a.614.614 0 100 1.228.614.614 0 000-1.228zM14.9.539l1.872 8.803-2.773.589L14 10a3 3 0 01-5.768 1.158L2.099 12.46.23 3.658 14.9.539zM11 9a1 1 0 100 2 1 1 0 000-2zm2.36-6.089L2.6 5.198l1.04 4.89 4.487-.954a3.001 3.001 0 015.145-1.093L14.4 7.8l-1.04-4.89z" id="a"/></defs><g fill="none" fill-rule="evenodd"><path d="M0 0h24v24H0z"/><use fill="currentColor" fill-rule="nonzero" xlink:href="#a" transform="translate(3 1)"/></g></svg>