<svg width="24" height="24" xmlns="http://www.w3.org/2000/svg" xmlns:xlink="http://www.w3.org/1999/xlink"><defs><path d="M5.041 15.452l.341-.42c2.318.652 4.869-.193 6.425-2.095 2.082-2.558 1.725-6.424-.892-8.566l-.476-.357 2.164-2.535.438.329C14.904 3.288 16 5.534 16 8c0 4.438-3.562 8-8 8a8.063 8.063 0 01-2.959-.548zm-2.027-1.205A8.002 8.002 0 010 8c0-4.438 3.562-8 8-8 1.151 0 2.246.219 3.233.712l-.361.398C8.384.336 5.75 1.042 4.133 3.062c-2.082 2.618-1.665 6.366.952 8.567l.476.357-2.164 2.589-.383-.328z" id="a"/></defs><g fill="none" fill-rule="evenodd"><path d="M0 0h24v24H0z"/><use fill="currentColor" fill-rule="nonzero" xlink:href="#a" transform="translate(4 4)"/></g></svg>