<svg width="24" height="24" xmlns="http://www.w3.org/2000/svg"><g fill="none" fill-rule="evenodd"><path d="M0 0h24v24H0z"/><path d="M16.414 2L20 5.586V8h-2V6.414L15.586 4H6v16h11.998l-.005-3.998 2-.004.01 6.002H4V2h12.414zm-1.767 7.05c1.504 0 2.507 1.181 2.507 2.958 0 1.794-1.003 2.992-2.507 2.992h-1.904V9.05zm6.494 0v1.114h-1.93v1.606h1.718v1.114h-1.717V15h-1.199V9.05h3.128zm-11.11 0c1.173 0 1.981.867 1.981 2.159 0 1.258-.79 2.1-1.93 2.1h-.875v1.683H8V9.05zm4.599 1.147h-.689v3.655h.689c.799 0 1.326-.73 1.326-1.835 0-1.088-.527-1.82-1.326-1.82zm-4.548-.042h-.9v2.066h.9c.451 0 .774-.417.774-1.046 0-.612-.323-1.02-.774-1.02z" fill="currentColor" fill-rule="nonzero"/></g></svg>