<svg width="24" height="24" xmlns="http://www.w3.org/2000/svg"><g fill="none" fill-rule="evenodd"><path d="M0 0h24v24H0z"/><path d="M17.77 3l-.06 4.213A7.18 7.18 0 0119.702 10H22v6h-2.292c-.394 1.006-.997 1.662-1.943 2.093L17.753 22h-4.869v-2.217H10.54V22H5.722v-3.391c-1.922-1.307-3.257-3.686-3.257-6.055 0-.64.072-1.265.208-1.863A2.997 2.997 0 011 8c0-1.665 1.35-3 2.998-3v2c-.584 0-1.045.455-1.045 1 0 .32.16.61.41.794 1.095-2.12 3.098-3.577 5.484-3.577h3.715C13.475 3.631 14.616 3 16.78 3h.992zm-1.983 2.065c-.88.149-1.275.58-1.767 1.597l-.27.555H8.848c-2.469 0-4.428 2.412-4.428 5.337 0 1.823 1.17 3.743 2.742 4.609l.514.283V20h.912v-2.217h6.25V20h.969l.01-3.356.698-.21c.943-.285 1.272-.647 1.544-1.692l.193-.742h1.796v-2h-1.793l-.195-.739c-.284-1.075-.983-2.076-1.903-2.753l-.414-.305.045-3.138zM14.186 9v2H9.302V9h4.884z" fill="currentColor" fill-rule="nonzero"/></g></svg>