<svg width="24" height="24" xmlns="http://www.w3.org/2000/svg"><g fill="none" fill-rule="evenodd"><path d="M0 0h24v24H0z"/><g fill="currentColor" fill-rule="nonzero"><path d="M6.273 2h11.454c0 1.636 1.637 3.273 3.273 3.273v7.363c0 3.819-3 7.091-9 9.819-6-2.728-9-6-9-9.819V5.273c1.636 0 3.273-1.637 3.273-3.273zM5 6.825v5.811c0 2.72 2.21 5.275 7 7.608 4.79-2.333 7-4.888 7-7.608v-5.81A5.788 5.788 0 0116.175 4h-8.35A5.788 5.788 0 015 6.825z"/><path d="M8.43 9.352l5.727 5.728 1.414-1.415-5.728-5.727z"/><path d="M9.843 15.08l5.728-5.728-1.414-1.414-5.728 5.727z"/></g></g></svg>