<svg width="24" height="24" xmlns="http://www.w3.org/2000/svg"><g fill="none" fill-rule="evenodd"><path d="M0 0h24v24H0z"/><path d="M12.707 3.293l8.44 8.44-1.865 1.957-.092.085 1.746 1.75c.302-.226.676-.56 1.175-1.052l.182-.18 1.414 1.414c-1.27 1.27-2.001 1.829-2.827 2.096-.448.144-.775.185-1.47.195l-.42.002h-3.932v-2l3.526-.002-1.073-1.072a1.87 1.87 0 01-.363.067l-.15.007h-2l.004-2h1.973l.033-.006c.073-.024.224-.127.62-.492l.24-.225.484-.51-2.853-2.852L13.414 11H5.75c-.134 0-.436.19-.538.36l-.029.062-1.923-.549c.297-1.038 1.37-1.79 2.331-1.867L5.75 9h5.835l-1.292-1.293 1.414-1.414L13.5 8.085l.585-.585-2.792-2.793 1.414-1.414zM11.37 12C12.872 12 14 13.383 14 15s-1.127 3-2.63 3H4.63C3.129 18 2 16.617 2 15s1.128-3 2.63-3zm0 2H4.631C4.333 14 4 14.408 4 15c0 .592.333 1 .63 1h6.74c.298 0 .63-.408.63-1 0-.592-.332-1-.63-1z" fill="currentColor" fill-rule="nonzero"/></g></svg>