<svg width="24" height="24" xmlns="http://www.w3.org/2000/svg"><path d="M12 9.814a5.007 5.007 0 00-3.5-1.443c-1.438 0-2.438.473-3.11.957.053-.208.126-.402.221-.58.972-2.02 4.002-3.413 6.343-3.413 2.32 0 5.386 1.402 6.395 3.396.111.2.21.4.3.597-.727-.58-2-.957-3.149-.957A5.007 5.007 0 0012 9.814zM13 2h-2v1.4c-3.937.482-8 3.902-8 8.042a1 1 0 001.871.492c.536-.95 2.568-1.563 3.629-1.563 1.022 0 1.932.525 2.5 1.39V19c0 .292-.224.53-.5.53s-.5-.238-.5-.53H8c0 1.394 1.122 2.53 2.5 2.53 1.325 0 2.402-1.053 2.484-2.374l.016-7.42c.562-.834 1.516-1.366 2.5-1.366 1.094 0 3.077.584 3.629 1.562A1.001 1.001 0 0021 11.442c0-4.112-4.057-7.51-8-8.03V2z" fill="currentColor" fill-rule="nonzero"/></svg>