<svg width="24" height="24" xmlns="http://www.w3.org/2000/svg" xmlns:xlink="http://www.w3.org/1999/xlink"><defs><path d="M9.994 0a9.968 9.968 0 017.353 3.226L15.876 4.58a7.994 7.994 0 101.763 3.07l-6.146-.001c-2.451 0-5.078-1.415-5.814-3.423l1.878-.688c.41 1.12 2.25 2.11 3.936 2.11h7.529l.252.629a9.969 9.969 0 01.714 3.716c0 5.52-4.475 9.994-9.994 9.994C4.474 19.988 0 15.513 0 9.994 0 4.474 4.474 0 9.994 0zm3.01 12.989l1.418 1.41a6.229 6.229 0 01-4.428 1.841 6.229 6.229 0 01-4.422-1.834l1.416-1.413a4.23 4.23 0 003.006 1.247 4.23 4.23 0 003.01-1.251zm-.012-4.739a2.249 2.249 0 012.249 2.249h-1.5a.749.749 0 10-1.498 0h-1.5a2.249 2.249 0 012.249-2.249zm-5.996 0a2.249 2.249 0 012.249 2.249h-1.5a.749.749 0 10-1.498 0h-1.5A2.249 2.249 0 016.996 8.25z" id="a"/></defs><g fill="none" fill-rule="evenodd"><path d="M0 0h24v24H0z"/><use fill="currentColor" fill-rule="nonzero" xlink:href="#a" transform="translate(2 2)"/></g></svg>