<?xml version="1.0" encoding="UTF-8" standalone="no"?>
<svg width="56px" height="56px" viewBox="0 0 56 56" version="1.1" xmlns="http://www.w3.org/2000/svg" xmlns:xlink="http://www.w3.org/1999/xlink">
    <!-- Generator: Sketch 41.2 (35397) - http://www.bohemiancoding.com/sketch -->
    <title>icon_facebook-56</title>
    <desc>Created with Sketch.</desc>
    <defs></defs>
    <g id="Page-1" stroke="none" stroke-width="1" fill="none" fill-rule="evenodd">
        <g id="icon_facebook-56" fill="#FF0000">
            <g id="icon_facebook-56-crop">
                <path d="M0,56 L56,56 L56,0 L0,0 L0,56 Z M2.887,53.113 L53.113,53.113 L53.113,2.887 L2.887,2.887 L2.887,53.113 Z" id="Fill-1"></path>
                <path d="M25.2424,41.8033 L25.2424,28.7363 L20.8454,28.7363 L20.8454,23.6433 L25.2424,23.6433 L25.2424,19.8873 C25.2424,15.5293 27.9044,13.1563 31.7924,13.1563 C33.6544,13.1563 35.2554,13.2943 35.7224,13.3563 L35.7224,17.9113 L33.0254,17.9123 C30.9104,17.9123 30.5014,18.9173 30.5014,20.3923 L30.5014,23.6433 L35.5444,23.6433 L34.8874,28.7363 L30.5014,28.7363 L30.5014,41.8033 L25.2424,41.8033 Z" id="Fill-2"></path>
            </g>
        </g>
    </g>
</svg>