<?xml version="1.0" encoding="UTF-8" standalone="no"?>
<svg width="56px" height="56px" viewBox="0 0 56 56" version="1.1" xmlns="http://www.w3.org/2000/svg" xmlns:xlink="http://www.w3.org/1999/xlink">
    <!-- Generator: Sketch 41.2 (35397) - http://www.bohemiancoding.com/sketch -->
    <title>icon_instagram-56</title>
    <desc>Created with Sketch.</desc>
    <defs></defs>
    <g id="Page-1" stroke="none" stroke-width="1" fill="none" fill-rule="evenodd">
        <g id="icon_instagram-56" fill="#FF0000">
            <g id="icon_instagram-56-crop">
                <path d="M0,56 L56,56 L56,0 L0,0 L0,56 Z M2.887,53.113 L53.113,53.113 L53.113,2.887 L2.887,2.887 L2.887,53.113 Z" id="Fill-1"></path>
                <g id="Group-2" transform="translate(14.000000, 14.000000)">
                    <path d="M9.33072,13.9951467 C9.33072,16.57208 11.4185867,18.66088 13.99552,18.66088 C16.5724533,18.66088 18.66032,16.57208 18.66032,13.9951467 C18.66032,11.4191467 16.5724533,9.33034667 13.99552,9.33034667 C11.4185867,9.33034667 9.33072,11.4191467 9.33072,13.9951467 Z" id="Fill-1"></path>
                    <path d="M19.75,6.50097276 C19.75,5.53404669 20.5330739,4.75 21.5,4.75 C22.4669261,4.75 23.25,5.53404669 23.25,6.50097276 C23.25,7.46692607 22.4669261,8.25097276 21.5,8.25097276 C20.5330739,8.25097276 19.75,7.46692607 19.75,6.50097276 Z M6.81052321,13.9997199 C6.81052321,10.029062 10.0296223,6.81089655 13.9993465,6.81089655 C17.9700044,6.81089655 21.1891035,10.029062 21.1891035,13.9997199 C21.1891035,17.9703777 17.9700044,21.1885432 13.9993465,21.1885432 C10.0296223,21.1885432 6.81052321,17.9703777 6.81052321,13.9997199 Z M27.264126,4.82976887 C26.906552,3.90829243 26.428542,3.12779161 25.6499084,2.35009164 C24.8712748,1.57145805 24.090774,1.09251436 23.1702311,0.734940426 C22.2795639,0.388569848 21.2619253,0.152365654 19.7718783,0.0842118742 C18.2790304,0.0160580948 17.801954,0.000186666667 13.9993465,0.000186666667 C10.1976727,0.000186666667 9.72059623,0.0160580948 8.22774838,0.0842118742 C6.73770137,0.152365654 5.72006274,0.388569848 4.82939554,0.734940426 C3.90885271,1.09251436 3.12835189,1.57145805 2.3497183,2.35009164 C1.57108471,3.12779161 1.09307465,3.90829243 0.734567093,4.82976887 C0.389130128,5.71950246 0.15199232,6.73714109 0.0838385409,8.22812171 C0.0156847614,9.72096957 -0.000186666667,10.198046 -0.000186666667,13.9997199 C-0.000186666667,17.8023273 0.0156847614,18.2784702 0.0838385409,19.7722516 C0.15199232,21.2622986 0.389130128,22.2799373 0.734567093,23.1706045 C1.09307465,24.0911473 1.57108471,24.8716481 2.3497183,25.6502817 C3.12835189,26.4279817 3.90885271,26.9069254 4.82939554,27.2644993 C5.72006274,27.6108699 6.73770137,27.8470741 8.22774838,27.9152278 C9.72059623,27.9833816 10.1976727,27.9992531 13.9993465,27.9992531 C17.801954,27.9992531 18.2790304,27.9833816 19.7718783,27.9152278 C21.2619253,27.8470741 22.2795639,27.6108699 23.1702311,27.2644993 C24.090774,26.9069254 24.8712748,26.4279817 25.6499084,25.6502817 C26.428542,24.8716481 26.906552,24.0911473 27.264126,23.1706045 C27.6104965,22.2799373 27.8476343,21.2622986 27.9157881,19.7722516 C27.9839419,18.2784702 27.9998133,17.8023273 27.9998133,13.9997199 C27.9998133,10.198046 27.9839419,9.72096957 27.9157881,8.22812171 C27.8476343,6.73714109 27.6104965,5.71950246 27.264126,4.82976887 Z" id="Fill-3"></path>
                </g>
            </g>
        </g>
    </g>
</svg>