<?xml version="1.0" encoding="UTF-8" standalone="no"?>
<svg width="56px" height="56px" viewBox="0 0 56 56" version="1.1" xmlns="http://www.w3.org/2000/svg" xmlns:xlink="http://www.w3.org/1999/xlink">
    <!-- Generator: Sketch 41.2 (35397) - http://www.bohemiancoding.com/sketch -->
    <title>icon_twitter-56</title>
    <desc>Created with Sketch.</desc>
    <defs></defs>
    <g id="Page-1" stroke="none" stroke-width="1" fill="none" fill-rule="evenodd">
        <g id="icon_twitter-56" fill="#FF0000">
            <g id="icon_twitter-56-crop">
                <path d="M0,56 L56,56 L56,0 L0,0 L0,56 Z M2.887,53.113 L53.113,53.113 L53.113,2.887 L2.887,2.887 L2.887,53.113 Z" id="Fill-1"></path>
                <path d="M23.3284206,40.3099 C34.3782959,40.3099 40.4207486,31.1559875 40.4207486,23.217572 C40.4207486,23.0509056 40.4186254,22.8853008 40.4143792,22.719696 C40.4090713,22.5466602 40.4876274,22.3810553 40.6245699,22.2770215 C41.521596,21.5976172 42.3241424,20.7929476 43.0014236,19.8927368 C43.1203194,19.734563 42.9589609,19.5180028 42.7731862,19.5880664 C41.9366696,19.9033525 41.055567,20.1273436 40.1415558,20.2515472 C40.0980315,20.2579166 40.0757385,20.1984688 40.1128935,20.1751142 C41.0842294,19.5498499 41.8655444,18.6538854 42.3464354,17.592316 C42.440915,17.3821253 42.2148008,17.1698114 42.0109794,17.2770299 C41.0905988,17.7557977 40.1022778,18.119916 39.0630014,18.3513381 C38.8899656,18.3895546 38.7094988,18.3354146 38.5821105,18.2122725 C37.5003713,17.1613189 36.0205436,16.5127 34.3931578,16.5127 C31.0746921,16.5127 28.3846753,19.2037783 28.3846753,22.5201209 C28.3846753,22.8598231 28.4122761,23.1931559 28.4653546,23.5169345 C28.4972017,23.7090786 28.3453973,23.8799913 28.1511301,23.8661909 C23.5099489,23.5275502 19.3846904,21.3385942 16.5088991,18.0296826 C16.3348017,17.8301076 16.0099615,17.8704472 15.8984967,18.1114234 C15.542871,18.8789381 15.3443575,19.7324398 15.3443575,20.6326506 C15.3443575,22.6475092 16.3348017,24.4330689 17.8581537,25.522239 C17.9027396,25.5551477 17.8793851,25.6273344 17.8231219,25.6241497 C17.0502994,25.5753175 16.3178166,25.3789272 15.6522126,25.0647026 C15.4855462,24.9850849 15.2965869,25.1177811 15.3072026,25.3024942 C15.3188798,25.5073771 15.3390497,25.7122599 15.367712,25.8916652 C15.7445692,28.3035507 17.556668,30.2419763 19.9027363,30.8014234 C19.9558147,30.8141622 19.9547532,30.8895336 19.9016747,30.9012109 C19.4611234,31.0041831 19.0025255,31.0593847 18.5311887,31.0593847 C18.2594269,31.0593847 17.992973,31.0402765 17.7307654,31.0041831 C17.5800225,30.9840133 17.4611268,31.1305099 17.5152668,31.2727602 C18.3093207,33.336451 20.211653,34.8513104 22.4929655,35.0912251 C22.6702476,35.1092718 22.7339417,35.3375092 22.5885067,35.441543 C20.6054952,36.8597996 18.1766245,37.6952547 15.5524251,37.6952547 L15.4292831,37.6941931 C15.099135,37.6941931 14.9876702,38.135806 15.2785402,38.2918567 C17.6776869,39.5774172 20.4154743,40.3099 23.3284206,40.3099" id="Fill-2"></path>
            </g>
        </g>
    </g>
</svg>