<?xml version="1.0" encoding="UTF-8" standalone="no"?>
<svg width="56px" height="56px" viewBox="0 0 56 56" version="1.1" xmlns="http://www.w3.org/2000/svg" xmlns:xlink="http://www.w3.org/1999/xlink">
    <!-- Generator: Sketch 41.2 (35397) - http://www.bohemiancoding.com/sketch -->
    <title>icon_youtube-56</title>
    <desc>Created with Sketch.</desc>
    <defs></defs>
    <g id="Page-1" stroke="none" stroke-width="1" fill="none" fill-rule="evenodd">
        <g id="icon_youtube-56" fill="#FF0000">
            <g id="icon_youtube-56-crop">
                <path d="M0,56 L56,56 L56,0 L0,0 L0,56 Z M2.887,53.113 L53.113,53.113 L53.113,2.887 L2.887,2.887 L2.887,53.113 Z" id="Fill-1"></path>
                <path d="M24.7689,31.7761 L24.7679,22.9821 L33.2239,27.3941 L24.7689,31.7761 Z M43.3359,21.4591 C43.3359,21.4591 43.0299,19.3021 42.0919,18.3521 C40.9019,17.1061 39.5679,17.1001 38.9559,17.0271 C34.5759,16.7101 28.0069,16.7101 28.0069,16.7101 L27.9929,16.7101 C27.9929,16.7101 21.4239,16.7101 17.0439,17.0271 C16.4319,17.1001 15.0989,17.1061 13.9079,18.3521 C12.9699,19.3021 12.6639,21.4591 12.6639,21.4591 C12.6639,21.4591 12.3509,23.9921 12.3509,26.5241 L12.3509,28.8991 C12.3509,31.4311 12.6639,33.9641 12.6639,33.9641 C12.6639,33.9641 12.9699,36.1211 13.9079,37.0711 C15.0989,38.3171 16.6629,38.2781 17.3589,38.4081 C19.8629,38.6481 27.9999,38.7231 27.9999,38.7231 C27.9999,38.7231 34.5759,38.7131 38.9559,38.3961 C39.5679,38.3231 40.9019,38.3171 42.0919,37.0711 C43.0299,36.1211 43.3359,33.9641 43.3359,33.9641 C43.3359,33.9641 43.6489,31.4311 43.6489,28.8991 L43.6489,26.5241 C43.6489,23.9921 43.3359,21.4591 43.3359,21.4591 L43.3359,21.4591 Z" id="Fill-2"></path>
            </g>
        </g>
    </g>
</svg>