<?xml version="1.0" encoding="UTF-8" standalone="no"?>
<svg width="70px" height="50px" viewBox="0 0 70 50" version="1.1" xmlns="http://www.w3.org/2000/svg" xmlns:xlink="http://www.w3.org/1999/xlink">
    <!-- Generator: Sketch 41.2 (35397) - http://www.bohemiancoding.com/sketch -->
    <title>icon-report-building-50</title>
    <desc>Created with Sketch.</desc>
    <defs></defs>
    <g id="Page-1" stroke="none" stroke-width="1" fill="none" fill-rule="evenodd">
        <g id="icon-report-building-50">
            <g id="icon-report-building-50-crop" transform="translate(10.000000, 0.000000)">
                <polygon id="Stroke-1" fill="#005AA0" points="44.5082059 33.1629794 45.6502958 31.5211418 25.0394049 17.1838595 4.42894684 31.5211475 5.57105316 33.1629737 25.0394171 19.6201626"></polygon>
                <polygon id="Stroke-3" fill="#005AA0" points="9 28.6968547 9 45.4457587 11 45.4457587 11 28.6968547"></polygon>
                <polygon id="Stroke-5" fill="#005AA0" points="39 28.6968547 39 45.4457587 41 45.4457587 41 28.6968547"></polygon>
                <polygon id="Stroke-7" fill="#005AA0" points="33 34 33 45.0100002 35 45.0100002 35 32 27 32 27 45.0100002 29 45.0100002 29 34"></polygon>
                <path d="M15,41 L15,32 L24,32 L24,41 L15,41 Z M22,39 L22,34 L17,34 L17,39 L22,39 Z" id="Stroke-10" fill="#005AA0"></path>
                <polygon id="Stroke-11" fill="#005AA0" points="6 47 17 47 17 45 6 45"></polygon>
                <polygon id="Stroke-13" fill="#005AA0" points="23 47 45 47 45 45 23 45"></polygon>
                <path d="M11.3703398,5.04064749 C13.4050187,6.58301368 14.657481,8.62919554 14.7972887,11.2968861 L16.7956089,11.219676 C16.7849428,10.3752739 17.0340127,9.11574021 17.7864076,7.88366913 C18.1627259,7.26743571 18.6389215,6.71955683 19.2284288,6.25195476 C19.4782931,7.89983256 19.9718409,9.11484127 20.7200323,10.2096827 C20.9131848,10.492326 21.4905971,11.2532824 21.5433519,11.3275166 C21.8873998,11.8116453 22.0244328,12.1442176 22.049668,12.625733 C22.1182877,13.9350755 21.8048627,14.7100477 20.9075045,15.5572094 L22.2804576,17.0115133 C23.6027703,15.7631682 24.1463942,14.419008 24.046927,12.5210611 C23.9994772,11.6156649 23.7204172,10.9384004 23.1736147,10.1689644 C23.0921232,10.0542931 22.5299136,9.31337197 22.3712866,9.08125046 C21.6033943,7.95758029 21.1783613,6.67751142 21.0644645,4.50423143 L20.9854877,2.99726465 L19.6284508,3.65729263 C18.0620265,4.41916129 16.8914741,5.51169812 16.0795127,6.84131129 C15.9872208,6.99244229 15.9004054,7.14516777 15.8188811,7.29924411 C15.0874132,5.78824397 13.9776634,4.50742089 12.5785243,3.44681873 C11.6714323,2.75920751 10.7042154,2.21331792 9.73648309,1.79206975 C9.1504322,1.53696525 8.68631006,1.37773364 8.40288405,1.30009713 L7.0676078,0.93433609 L7.14006511,2.3169039 C7.32378091,5.82241023 6.44867485,7.91117022 4.07231896,11.0611191 C4.05093475,11.0894647 3.42566041,11.9130874 3.24620594,12.1535545 C1.26054911,14.8143137 0.453042939,16.6927704 0.594991604,19.4013123 C0.739613436,22.1608613 1.70169353,24.2735311 3.22026801,25.7874999 C4.23069704,26.7948644 5.25234102,27.3426844 5.98386644,27.5664124 L6.56879702,25.6538601 C6.48139937,25.6271306 6.284292,25.5473868 6.01451051,25.4027262 C5.54591637,25.1514594 5.07388382,24.8113527 4.63233211,24.3711401 C3.46070893,23.2030704 2.71065901,21.556006 2.59225067,19.2966404 C2.47987374,17.1523609 3.11656166,15.6712692 4.84906766,13.3497293 C5.02266474,13.1171111 5.64317238,12.2997672 5.66893218,12.2656216 C7.95977347,9.2290255 9.05083883,6.94093474 9.1556889,3.72299573 C9.91312969,4.07003767 10.6666173,4.50719831 11.3703398,5.04064749 Z" id="Stroke-15" fill="#005AA0"></path>
                <path d="M9.99938748,15.6722996 L11.2437608,17.2380375 C14.5870169,14.580978 14.1121603,10.9145914 11.5747576,7.93293387 L10.4242139,6.58095002 L9.8642455,8.26560034 C9.44474889,9.52764505 8.88498538,10.4749318 7.82615441,11.8695912 C7.68053569,12.0613956 7.14501824,12.756628 7.15467778,12.7440325 C4.91282805,15.6660352 4.18544644,17.0036803 4.28779529,18.9566127 C4.44004267,21.8616659 6.71518787,24.0740261 8.43159494,24.6565355 L9.07434306,22.7626309 C8.05252609,22.4158495 6.38695062,20.7962373 6.28505436,18.8519408 C6.21759499,17.5647393 6.80330345,16.4876292 8.74158485,13.9612941 C8.72821323,13.9787301 9.26847951,13.2773325 9.41908942,13.0789538 C10.1062679,12.1738237 10.6176795,11.4160125 11.0240282,10.6429324 C11.9674835,12.4406614 11.7894832,14.2496174 9.99938748,15.6722996 Z" id="Stroke-17" fill="#E30613"></path>
            </g>
        </g>
    </g>
</svg>