<?xml version="1.0" encoding="UTF-8" standalone="no"?>
<svg width="70px" height="50px" viewBox="0 0 70 50" version="1.1" xmlns="http://www.w3.org/2000/svg" xmlns:xlink="http://www.w3.org/1999/xlink">
    <!-- Generator: Sketch 41.2 (35397) - http://www.bohemiancoding.com/sketch -->
    <title>icon-report-other-50</title>
    <desc>Created with Sketch.</desc>
    <defs></defs>
    <g id="Page-1" stroke="none" stroke-width="1" fill="none" fill-rule="evenodd">
        <g id="icon-report-other-50">
            <g id="icon-report-other-50-crop" transform="translate(16.000000, 3.000000)">
                <polygon id="Rectangle-4" fill="#005AA0" points="36 2 2 2 2 42 9 42 9 44 0 44 0 0 38 0 38 44 19.0588235 44 19.0588235 42 36 42"></polygon>
                <path d="M5,39 L33,39 L33,5 L5,5 L5,39 Z M3,3 L35,3 L35,41 L3,41 L3,3 Z" id="Rectangle-4" fill="#005AA0"></path>
                <polygon id="Polygon" fill="#005AA0" points="15.8770558 27.018498 13.9791573 32.4714048 19.6385821 34.7076936 19.6385821 39.4137745 21.6385821 39.4137745 21.6385821 33.347504 16.4987881 31.3165443 18.3367561 26.0358255 12.9903605 23.2816481 9.57452437 24.5705532 4 24.5705532 4 26.5705532 9.93930426 26.5705532 12.8647156 25.4667012"></polygon>
                <polygon id="Polygon" fill="#005AA0" points="27.1930376 12.6023657 20.3885819 12.6002763 18.6337675 9.55902045 15.1613 8.66165565 14.9993908 4.02518374 13.0006092 4.09498273 13.2146496 10.2242999 17.3208624 11.285439 19.2333296 14.5999216 25.1936461 14.6017518 25.1952314 19.8097378 33.0031744 25.1639306 34.1732962 23.5419518 27.1949199 18.786222"></polygon>
                <polygon id="Line" fill="#E30613" points="11 44 17 44 17 42 11 42"></polygon>
            </g>
        </g>
    </g>
</svg>