<?xml version="1.0" encoding="UTF-8" standalone="no"?>
<svg width="70px" height="50px" viewBox="0 0 70 50" version="1.1" xmlns="http://www.w3.org/2000/svg" xmlns:xlink="http://www.w3.org/1999/xlink">
    <!-- Generator: Sketch 43.1 (39012) - http://www.bohemiancoding.com/sketch -->
    <title>icon-report-transportation-50</title>
    <desc>Created with Sketch.</desc>
    <defs></defs>
    <g id="Page-1" stroke="none" stroke-width="1" fill="none" fill-rule="evenodd">
        <g id="icon-report-transportation-50" fill-rule="nonzero">
            <g id="icon-report-transportation-50-crop" transform="translate(0.000000, 3.000000)">
                <polygon id="Stroke-1" fill="#005AA0" points="50 15 50 32 52 32 52 15"></polygon>
                <polygon id="Stroke-2" fill="#005AA0" points="66 29.83195 66 37 61 37 61 39 68 39 68 29.3680469 60.9556198 15 53 15 53 17 59.7087389 17"></polygon>
                <polygon id="Stroke-4" fill="#005AA0" points="16.7684271 31.7376459 14.8565729 32.3248541 16.9067821 39 20 39 20 37 18.3847104 37"></polygon>
                <path d="M53,28 L53,18 L58.8685274,18 L63.5760102,28 L53,28 Z M55,26 L60.4239898,26 L57.5995001,20 L55,20 L55,26 Z" id="Stroke-5" fill="#005AA0"></path>
                <g id="Group-24" transform="translate(0.000000, 0.396910)">
                    <path d="M26,42.6030897 C27.6568542,42.6030897 29,41.2599439 29,39.6030897 C29,37.9462354 27.6568542,36.6030897 26,36.6030897 C24.3431458,36.6030897 23,37.9462354 23,39.6030897 C23,41.2599439 24.3431458,42.6030897 26,42.6030897 Z M26,44.6030897 C23.2385763,44.6030897 21,42.3645134 21,39.6030897 C21,36.8416659 23.2385763,34.6030897 26,34.6030897 C28.7614237,34.6030897 31,36.8416659 31,39.6030897 C31,42.3645134 28.7614237,44.6030897 26,44.6030897 Z" id="Oval" fill="#005AA0"></path>
                    <path d="M55,42.6030897 C56.6568542,42.6030897 58,41.2599439 58,39.6030897 C58,37.9462354 56.6568542,36.6030897 55,36.6030897 C53.3431458,36.6030897 52,37.9462354 52,39.6030897 C52,41.2599439 53.3431458,42.6030897 55,42.6030897 Z M55,44.6030897 C52.2385763,44.6030897 50,42.3645134 50,39.6030897 C50,36.8416659 52.2385763,34.6030897 55,34.6030897 C57.7614237,34.6030897 60,36.8416659 60,39.6030897 C60,42.3645134 57.7614237,44.6030897 55,44.6030897 Z" id="Oval" fill="#005AA0"></path>
                    <polygon id="Stroke-10" fill="#005AA0" points="32 38.6030897 49 38.6030897 49 36.6030897 32 36.6030897"></polygon>
                    <polygon id="Stroke-12" fill="#005AA0" points="47 30.6030897 14 30.6030897 14 25.6030897 12 25.6030897 12 32.6030897 49 32.6030897 49 10.6030897 31 10.6030897 31 12.6030897 47 12.6030897"></polygon>
                    <polygon id="Stroke-14" fill="#005AA0" points="22.3747457 6.41033184 19.8320526 11.6070282 12.4102714 6.85198386 13.8232019 15.1110672 8.03852609 15.1282564 10.5671829 19.3494774 6.84661516 22.1195209 13.8608241 23.4443825 14.2320256 21.479132 11.6985379 21.0006004 13.212453 19.8734578 11.5617167 17.117796 16.1932064 17.1040335 15.1454749 10.9796686 20.6423971 14.5014793 22.6122833 10.4754723 24.4440676 13.3221689 26.3019551 12.4989609 25.7447599 14.5932543 27.6775242 15.107474 29.3078877 8.97953287 25.1993752 10.7999662"></polygon>
                    <polygon id="Stroke-16" fill="#005AA0" points="5.47608983 15.9214235 1.27348294 15.2286511 0.948186029 17.2020193 5.15079293 17.8947917"></polygon>
                    <polygon id="Stroke-18" fill="#005AA0" points="23.0109158 4.5343519 23.7036882 0.331745006 21.7303201 0.00644809782 21.0375476 4.20905499"></polygon>
                    <polygon id="Stroke-20" fill="#005AA0" points="8.85860727 7.92032116 5.28413831 5.57891426 4.18824514 7.25194091 7.7627141 9.59334781"></polygon>
                    <polygon id="Stroke-22" fill="#E30613" points="15.1267737 4.2888117 13.7357668 0.248701352 11.8447132 0.899789682 13.2357201 4.93990003"></polygon>
                </g>
            </g>
        </g>
    </g>
</svg>