<svg width="48" height="48" xmlns="http://www.w3.org/2000/svg"><g fill-rule="nonzero" fill="none"><path fill="#E30613" d="M36.36 19.833H13.26v-1.666h21.93z"/><path fill="#E30613" d="M30.654 12.722l-4.546-.17-.53-.749-1.345.97 1.003 1.414 3.062.115-1.2 3.214 5.276-.614 1.716 2.577 1.371-.93-2.276-3.419-3.586.418z"/><path d="M13.674 24a1.243 1.243 0 000 2.488 1.243 1.243 0 000-2.488m0 4.155c-1.594 0-2.891-1.306-2.891-2.911s1.297-2.91 2.89-2.91c1.595 0 2.892 1.305 2.892 2.91 0 1.605-1.297 2.91-2.891 2.91M35.565 25.25a1.243 1.243 0 01-1.239 1.238 1.243 1.243 0 010-2.488v-1.667c-1.594 0-2.891 1.306-2.891 2.911s1.297 2.911 2.891 2.911c1.592 0 2.888-1.302 2.89-2.905h-1.651z" fill="#005AA0"/><path d="M41.348 20.667c0 .02-.275.027-.643.027-.734 0-1.835-.027-1.835-.027L39.732 24l-.036 5.833V34h-.826v3.333h-3.305V34h-23.13v3.333H9.13V34h-.827v-2.5h19v-1.667h-19V24l.827-3.333s-1.102.027-1.836.027c-.368 0-.643-.006-.643-.027V19c0-.807 4.13-.833 4.13-.833l3.305-5s.804-2.495 9.5-2.5c8.699 0 10.326 2.5 10.326 2.5l3.304 5s4.13.026 4.13.833v1.667zm-6.06-8.425C34.94 11.71 32.716 9 23.614 9c-8.267.005-10.425 2.175-10.987 3.373l-2.739 4.143C7.25 16.6 5 17.05 5 19v1.667c0 .56.371 1.634 1.774 1.687.066.003.145.004.234.005l-.306 1.237-.05.199V34c0 .617.333 1.156.827 1.444v1.89c0 .92.739 1.666 1.652 1.666h3.304c.913 0 1.652-.746 1.652-1.667v-1.666h19.826v1.666c0 .921.74 1.667 1.652 1.667h3.305c.912 0 1.652-.746 1.652-1.667l-.002-1.888c.495-.288.828-.827.828-1.445v-2.5c0-.033-.008-.065-.01-.098l.01-1.558v-6.053l-.041-.212-.315-1.22c.09 0 .168-.002.234-.005C42.63 22.301 43 21.227 43 20.667V19c0-1.95-2.25-2.4-4.888-2.484l-2.824-4.273z" fill="#005AA0"/><path fill="#E30613" d="M37.361 33.196l1.155-1.192-2.201-2.17H29.37V31.5h6.272z"/></g></svg>