<svg width="48" height="48" xmlns="http://www.w3.org/2000/svg"><g fill="none" fill-rule="evenodd"><path d="M12 24.5c0 .826.674 1.5 1.5 1.5s1.5-.674 1.5-1.5-.674-1.5-1.5-1.5-1.5.674-1.5 1.5zM33 24.5c0 .826.674 1.5 1.5 1.5s1.5-.674 1.5-1.5-.674-1.5-1.5-1.5-1.5.674-1.5 1.5z" stroke="#005AA0" stroke-width="2"/><path fill="#005AA0" fill-rule="nonzero" d="M15 18.027v2h19.858l-3.555-5.556-1.684 1.078 1.585 2.478z"/><path d="M41 22c0 .025-.333.033-.778.033C39.333 22.033 38 22 38 22l1.044 4L39 29h-4v2h4v2h-1v3h-3v-3H13v3h-3v-3H9v-2h17v-2H9v-3l1-4s-1.333.033-2.222.033C7.333 22.033 7 22.025 7 22v-1c0-.968 4-1 4-1l4-6s1-1.995 9-2c8.02 0 9 2 9 2l4 6s4 .032 4 1v1zm-6.336-9c-.81-1.208-2.997-3-10.664-3-6.625.004-9.875 1.688-10.768 3-.893 1.313-3.315 5.019-3.315 5.019C7.75 18.089 5 18.661 5 21v1c0 .672.45 1.961 2.147 2.025.08.003.176.005.284.006l-.37 1.484-.06.239V33c0 .755.381 1.412.999 1.753V36a2 2 0 002 2h3a2 2 0 002-2v-1h18v1a2 2 0 002 2h3a2 2 0 002-2v-1.285c.582-.35 1-.986 1-1.715v-2c0-.04-.01-.078-.012-.118L41 29.013V25.749l-.05-.254-.38-1.464c.107-.001.203-.003.283-.006C42.551 23.961 43 22.672 43 22v-1c0-2.339-2.684-2.91-4.917-2.981L34.664 13z" fill="#005AA0"/><path fill="#E30613" fill-rule="nonzero" d="M28 31h5v-2h-5z"/></g></svg>