<?xml version="1.0" encoding="UTF-8" standalone="no"?>
<svg width="70px" height="50px" viewBox="0 0 70 50" version="1.1" xmlns="http://www.w3.org/2000/svg" xmlns:xlink="http://www.w3.org/1999/xlink">
    <!-- Generator: Sketch 41.2 (35397) - http://www.bohemiancoding.com/sketch -->
    <title>icon-report-legal-50</title>
    <desc>Created with Sketch.</desc>
    <defs></defs>
    <g id="Page-1" stroke="none" stroke-width="1" fill="none" fill-rule="evenodd">
        <g id="icon-report-legal-50">
            <g id="icon-report-legal-50-crop" transform="translate(12.000000, 3.000000)">
                <path d="M23,10 C25.2092153,10 27,8.20921525 27,6 C27,3.79078475 25.2092153,2 23,2 C20.7907847,2 19,3.79078475 19,6 C19,8.20921525 20.7907847,10 23,10 Z M23,12 C19.6862153,12 17,9.31378475 17,6 C17,2.68621525 19.6862153,-6.66133815e-16 23,0 C26.3137847,6.66133815e-16 29,2.68621525 29,6 C29,9.31378475 26.3137847,12 23,12 Z" id="Stroke-1" fill="#005AA0"></path>
                <polygon id="Stroke-5" fill="#005AA0" points="18.877405 5 5 5 5 7 18.877405 7"></polygon>
                <path d="M2,28 L2,29.0884537 C2,30.6937625 3.32137867,32 4.95653287,32 L11.0434671,32 C12.6789369,32 14,30.6939577 14,29.0884537 L14,28 L2,28 Z M11.0434671,34 L4.95653287,34 C2.22193586,34 0,31.8035245 0,29.0884537 L0,26 L16,26 L16,29.0884537 C16,31.8036791 13.7784192,34 11.0434671,34 Z" id="Stroke-7" fill="#005AA0"></path>
                <polygon id="Stroke-9" fill="#005AA0" points="14.0536011 27.1871778 15.9463989 26.5411772 8.94639887 6.03100223 7.05360113 6.03100223 0.0536011283 26.5411772 1.94639887 27.1871778 8 9.44997513"></polygon>
                <path d="M32,29.0884537 C32,30.6937625 33.3213787,32 34.9565329,32 L41.0434671,32 C42.6789369,32 44,30.6939577 44,29.0884537 L44,28 L32,28 L32,29.0884537 Z M41.0434671,34 L34.9565329,34 C32.2219359,34 30,31.8035245 30,29.0884537 L30,26 L46,26 L46,29.0884537 C46,31.8036791 43.7784192,34 41.0434671,34 Z" id="Stroke-7" fill="#005AA0"></path>
                <polygon id="Stroke-9" fill="#005AA0" points="44.0536011 27.1871778 45.9463989 26.5411772 38.9463989 6.03100223 37.0536011 6.03100223 30.0536011 26.5411772 31.9463989 27.1871778 38 9.44997513"></polygon>
                <polygon id="Stroke-15" fill="#005AA0" points="27.4813025 7 41 7 41 5 27.4813025 5"></polygon>
                <polygon id="Stroke-17" fill="#005AA0" points="35 42 12 42 12 41 22 41 22 12.632405 24 12.632405 24 41 26 41 26 10.632405 20 10.632405 20 39 10 39 10 44 37 44 37 39 28 39 28 41 35 41"></polygon>
                <path d="M25.5,6 C25.5,4.61928813 24.3807119,3.5 23,3.5 C21.6192881,3.5 20.5,4.61928813 20.5,6 C20.5,7.38071187 21.6192881,8.5 23,8.5 L23,6.5 C22.7238576,6.5 22.5,6.27614237 22.5,6 C22.5,5.72385763 22.7238576,5.5 23,5.5 C23.2761424,5.5 23.5,5.72385763 23.5,6 L25.5,6 Z" id="Oval-3" fill="#E30613"></path>
            </g>
        </g>
    </g>
</svg>