<?xml version="1.0" encoding="UTF-8" standalone="no"?>
<svg width="70px" height="50px" viewBox="0 0 70 50" version="1.1" xmlns="http://www.w3.org/2000/svg" xmlns:xlink="http://www.w3.org/1999/xlink">
    <!-- Generator: Sketch 41.2 (35397) - http://www.bohemiancoding.com/sketch -->
    <title>icon-report-person-50</title>
    <desc>Created with Sketch.</desc>
    <defs></defs>
    <g id="Page-1" stroke="none" stroke-width="1" fill="none" fill-rule="evenodd">
        <g id="icon-report-person-50">
            <g id="icon-report-person-50-crop" transform="translate(19.000000, 1.000000)">
                <path d="M28.2557138,32.0002551 C28.2557138,39.1799655 22.4355328,45 15.2559689,45 C8.07596805,45 2.25571383,39.1800388 2.25571383,32.0002551 C2.25571383,24.8203628 8.07607663,19 15.2559689,19 C19.0937078,19 22.6581649,20.6716353 25.114015,23.5251642 L26.6299085,22.2205315 C23.7980643,18.9301231 19.6824291,17 15.2559689,17 C6.97150713,17 0.255713826,23.7157933 0.255713826,32.0002551 C0.255713826,40.2846308 6.97142108,47 15.2559689,47 C23.5400911,47 30.2557138,40.2845463 30.2557138,32.0002551 C30.2557138,30.3136911 29.9772435,28.6642157 29.4377757,27.1019838 L29.220387,26.5277809 L28.9755574,25.8825405 L18.4866793,25.8825405 C15.6100468,25.8825405 13.6193855,25.1224072 12.3126427,23.8786391 C11.8705842,23.4578843 11.5411482,23.0108837 11.3078502,22.568947 C11.175629,22.3184801 11.1076765,22.1389713 11.0881971,22.0658866 L9.15566264,22.5809697 C9.35156085,23.3159581 9.88781313,24.3317817 10.9337677,25.3273295 C12.6207439,26.9330067 15.1074132,27.8825405 18.4866793,27.8825405 L27.5914038,27.8825405 C28.0263768,29.179017 28.2557138,30.5730878 28.2557138,32.0002551 Z" id="Stroke-1" fill="#005AA0"></path>
                <path d="M17,37.1920783 C16.6090559,37.1920783 16.4676108,37.1355766 16.0542662,36.8603854 C15.3426743,36.3866309 14.8591545,36.193484 14.0001691,36.193484 C13.1413151,36.193484 12.6577647,36.3866018 11.9462639,36.8602155 C11.53267,37.1355261 11.3910554,37.1920783 10.9998309,37.1920783 C10.6088867,37.1920783 10.4674417,37.1355766 10.0540971,36.8603854 C9.34250512,36.3866309 8.85898539,36.193484 8,36.193484 L8,38.193484 C8.39094414,38.193484 8.53238917,38.2499857 8.94573379,38.5251769 C9.65732574,38.9989314 10.1408455,39.1920783 10.9998309,39.1920783 C11.8589798,39.1920783 12.3426789,38.9989186 13.054307,38.5252202 C13.4677744,38.2499937 13.6092698,38.193484 14.0001691,38.193484 C14.3911133,38.193484 14.5325583,38.2499857 14.9459029,38.5251769 C15.6574949,38.9989314 16.1410146,39.1920783 17,39.1920783 L17,37.1920783 Z" id="Stroke-7" fill="#005AA0"></path>
                <path d="M17,39.1885929 C17.8589737,39.1885929 18.3424875,38.9954429 19.0540656,38.5216843 C19.4673924,38.2464972 19.6088257,38.1899986 19.9997463,38.1899986 C20.3906221,38.1899986 20.5321058,38.2465052 20.9453651,38.5216009 C21.6571696,38.9954301 22.1408627,39.1885929 23,39.1885929 L23,37.1885929 C22.608799,37.1885929 22.4671962,37.1320438 22.0538104,36.8568639 C21.3421331,36.3831194 20.8585887,36.1899986 19.9997463,36.1899986 C19.1407726,36.1899986 18.6572588,36.3831486 17.9456807,36.8569072 C17.5323539,37.1320943 17.3909206,37.1885929 17,37.1885929 L17,39.1885929 Z" id="Stroke-9" fill="#005AA0"></path>
                <path d="M8,29 C8,29.3527598 8.07042655,29.6973244 8.20538892,30.0164806 C8.61086769,30.9750393 9.55255415,31.6112633 10.6112633,31.6112633 C12.0532486,31.6112633 13.2225265,30.4422419 13.2225265,29 L11.2225265,29 C11.2225265,29.3375741 10.9487773,29.6112633 10.6112633,29.6112633 C10.3631158,29.6112633 10.1425064,29.4622147 10.0474135,29.2374137 C10.016307,29.1638536 10,29.084071 10,29 L8,29 Z" id="Stroke-11" fill="#005AA0"></path>
                <path d="M17,29 C17,30.4423695 18.1688938,31.6112633 19.6112633,31.6112633 C21.0532486,31.6112633 22.2225265,30.4422419 22.2225265,29 L20.2225265,29 C20.2225265,29.3375741 19.9487773,29.6112633 19.6112633,29.6112633 C19.2734633,29.6112633 19,29.3378 19,29 L17,29 Z" id="Stroke-13" fill="#005AA0"></path>
                <path d="M9.99644204,1.84639131 C10.4956157,2.26089301 10.4956157,3.02744128 9.99620447,3.44240091 C8.53345352,4.65729257 8.53295844,6.9014929 9.99541836,8.11588421 C10.4959813,8.53141147 10.4962348,9.29735688 9.9967163,9.71240564 C8.53297768,10.928505 8.5314931,13.1719455 9.99368546,14.3867487 L11.2717614,12.8483983 C10.7726224,12.4337089 10.7731294,11.6675462 11.274836,11.2507196 C12.7372118,10.0356349 12.7364693,7.79197824 11.272983,6.57710917 C10.7738676,6.16265583 10.7740367,5.39623005 11.2742037,4.98081496 C12.7363094,3.76595474 12.7363094,1.52187706 11.2741232,0.307713043 L9.99644204,1.84639131 Z" id="Stroke-15" fill="#E30613"></path>
                <path d="M14.6644989,1.84639131 C15.1636726,2.26089301 15.1636726,3.02744128 14.6642614,3.44240091 C13.2015104,4.65729257 13.2010153,6.9014929 14.6634753,8.11588421 C15.1640382,8.53141147 15.1642917,9.29735688 14.6647732,9.71240564 C13.2010346,10.928505 13.19955,13.1719455 14.6617424,14.3867487 L15.9398183,12.8483983 C15.4406793,12.4337089 15.4411863,11.6675462 15.9428929,11.2507196 C17.4052688,10.0356349 17.4045262,7.79197824 15.9410399,6.57710917 C15.4419245,6.16265583 15.4420936,5.39623005 15.9422607,4.98081496 C17.4043663,3.76595474 17.4043663,1.52187706 15.9421801,0.307713043 L14.6644989,1.84639131 Z" id="Stroke-17" fill="#005AA0"></path>
                <path d="M19.3325559,1.84639131 C19.8317295,2.26089301 19.8317295,3.02744128 19.3323183,3.44240091 C17.8695673,4.65729257 17.8690723,6.9014929 19.3315322,8.11588421 C19.8320951,8.53141147 19.8323486,9.29735688 19.3328301,9.71240564 C17.8690915,10.928505 17.8676069,13.1719455 19.3297993,14.3867487 L20.6078752,12.8483983 C20.1087362,12.4337089 20.1092432,11.6675462 20.6109498,11.2507196 C22.0733257,10.0356349 22.0725831,7.79197824 20.6090968,6.57710917 C20.1099814,6.16265583 20.1101505,5.39623005 20.6103176,4.98081496 C22.0724232,3.76595474 22.0724232,1.52187706 20.610237,0.307713043 L19.3325559,1.84639131 Z" id="Stroke-19" fill="#005AA0"></path>
            </g>
        </g>
    </g>
</svg>