<svg width="70" height="50" xmlns="http://www.w3.org/2000/svg"><g fill="none" fill-rule="evenodd"><path fill="#005AA0" d="M52 5H18v40h7v2h-9V3h38v44H35.059v-2H52z"/><path d="M21 42h28V8H21v34zM19 6h32v38H19V6z" fill="#005AA0"/><path fill="#005AA0" d="M31.877 30.018l-1.898 5.453 5.66 2.237v4.706h2v-6.066l-5.14-2.031 1.838-5.281-5.347-2.754-3.415 1.289H20v2h5.94l2.925-1.104zM43.193 15.602l-6.804-.002-1.755-3.041-3.473-.897L31 7.025l-1.998.07.214 6.13 4.106 1.06 1.912 3.315 5.96.002.002 5.208 7.808 5.354 1.17-1.622-6.978-4.756z"/><path fill="#E30613" d="M27 47h6v-2h-6z"/></g></svg>