<?xml version="1.0" encoding="UTF-8"?>
<svg width="32px" height="32px" viewBox="0 0 32 32" version="1.1" xmlns="http://www.w3.org/2000/svg" xmlns:xlink="http://www.w3.org/1999/xlink">
    <!-- Generator: Sketch 53.2 (72643) - https://sketchapp.com -->
    <title>Icons/32px/bankid-mc-32</title>
    <desc>Created with Sketch.</desc>
    <g id="Icons/32px/bankid-mc-32" stroke="none" stroke-width="1" fill="none" fill-rule="evenodd">
        <rect id="invisible-32" x="0" y="0" width="32" height="32"></rect>
        <g id="bankid_vector_rgb" transform="translate(2.000000, 3.000000)" fill-rule="nonzero">
            <path d="M8.86112957,13.8413463 L9.98906506,6.43264685 C9.54472684,6.43264685 8.78422488,6.43264685 8.78422488,6.43264685 C8.22025713,6.43264685 7.49393504,6.10317344 7.28031089,5.49765473 C7.21195117,5.29284693 7.04959682,4.58937667 7.98099809,3.90371578 C8.31425176,3.66328924 8.5278759,3.39614863 8.57060073,3.19134083 C8.61332556,2.97762835 8.56205577,2.79062992 8.41679135,2.64815493 C8.21171217,2.44334714 7.81009877,2.32758621 7.29740082,2.32758621 C6.43435927,2.32758621 5.8276667,2.84405805 5.76785194,3.21805489 C5.72512711,3.49410019 5.93020629,3.71671736 6.10965057,3.85919235 C6.64798342,4.27771263 6.77615791,4.88323134 6.44290424,5.4531313 C6.10110561,6.04084063 5.35769358,6.42374217 4.56301176,6.43264685 C4.56301176,6.43264685 3.7768749,6.43264685 3.33253668,6.43264685 C3.22999709,7.15392649 1.55518378,18.2135476 1.42700929,19.0862069 L8.10062761,19.0862069 C8.16044237,18.6944007 8.46806114,16.6017993 8.88676447,13.8413463 L8.86112957,13.8413463 Z" id="Path" fill="#479CBE"></path>
            <path d="M18.0629576,0 L10.9389348,0 L9.98906506,5.97442662 L11.1988048,5.97442662 C11.8619214,5.97442662 12.4891938,5.67259824 12.7580249,5.23761026 C12.8476352,5.09557338 12.8834794,4.9712911 12.8834794,4.85588613 C12.8834794,4.60732157 12.7132197,4.42089816 12.54296,4.29661588 C12.0769862,3.95040096 11.9784148,3.58643144 11.9784148,3.32898957 C11.9784148,3.27572574 11.9784148,3.23133921 11.9873759,3.18695269 C12.0859473,2.55666399 12.9462066,1.87311147 14.0842581,1.87311147 C14.7652967,1.87311147 15.2850368,2.03290297 15.598673,2.32585405 C15.8764651,2.58329591 15.9839975,2.94726544 15.9033482,3.32898957 C15.8047768,3.78173216 15.347764,4.15457899 15.087894,4.34100241 C14.3978943,4.8203769 14.4875047,5.23761026 14.5323098,5.36189254 C14.6756864,5.73473937 15.2223095,5.97442662 15.6434782,5.97442662 L17.4804904,5.97442662 C17.4804904,5.97442662 17.4804904,5.97442662 17.4804904,5.98330393 C19.9895802,6.00105854 21.3337354,7.14623095 20.9125668,9.80942261 C20.5182812,12.2861909 18.6006197,13.3514675 16.3155558,13.3692221 L15.4104913,19.0862069 L16.7456855,19.0862069 C22.3821765,19.0862069 26.9881485,15.4997755 27.8932131,9.83605453 C29.0133425,2.80522855 24.5149029,0 18.0629576,0 Z" id="Path" fill="#00A5C3"></path>
            <path d="M18.0629576,0 L10.9389348,0 L9.98906506,5.97442662 L11.1988048,5.97442662 C11.8619214,5.97442662 12.4891938,5.67259824 12.7580249,5.23761026 C12.8476352,5.09557338 12.8834794,4.9712911 12.8834794,4.85588613 C12.8834794,4.60732157 12.7132197,4.42089816 12.54296,4.29661588 C12.0769862,3.95040096 11.9784148,3.58643144 11.9784148,3.32898957 C11.9784148,3.27572574 11.9784148,3.23133921 11.9873759,3.18695269 C12.0859473,2.55666399 12.9462066,1.87311147 14.0842581,1.87311147 C14.7652967,1.87311147 15.2850368,2.03290297 15.598673,2.32585405 C15.8764651,2.58329591 15.9839975,2.94726544 15.9033482,3.32898957 C15.8047768,3.78173216 15.347764,4.15457899 15.087894,4.34100241 C14.3978943,4.8203769 14.4875047,5.23761026 14.5323098,5.36189254 C14.6756864,5.73473937 15.2223095,5.97442662 15.6434782,5.97442662 L17.4804904,5.97442662 C17.4804904,5.97442662 17.4804904,5.97442662 17.4804904,5.98330393 C19.9895802,6.00105854 21.3337354,7.14623095 20.9125668,9.80942261 C20.5182812,12.2861909 18.6006197,13.3514675 16.3155558,13.3692221 L15.4104913,19.0862069 L16.7456855,19.0862069 C22.3821765,19.0862069 26.9881485,15.4997755 27.8932131,9.83605453 C29.0133425,2.80522855 24.5149029,0 18.0629576,0 Z" id="Path" fill="#235971"></path>
            <g id="Group" transform="translate(0.000000, 20.948276)" fill="#235971">
                <path d="M0.77123366,0.0182881773 L3.59909041,0.0182881773 C4.80469705,0.0182881773 5.09723396,0.649230296 5.00858641,1.22530788 C4.93766837,1.6916564 4.62740196,2.03913177 4.09551668,2.26773399 C4.76923803,2.53291256 5.03518067,2.94439655 4.93766837,3.59362685 C4.81356181,4.40745074 4.13097569,5.01096059 3.23563547,5.01096059 L0.0177295094,5.01096059 L0.77123366,0.0182881773 Z M2.6416969,2.08485222 C3.1913117,2.08485222 3.44838958,1.78309729 3.50157811,1.42647783 C3.55476664,1.04242611 3.3863363,0.777247537 2.83672151,0.777247537 L2.34916,0.777247537 L2.15413539,2.08485222 L2.6416969,2.08485222 L2.6416969,2.08485222 Z M2.34029524,4.24285714 C2.90763954,4.24285714 3.23563547,4.00511084 3.31541826,3.52047414 C3.37747154,3.09984606 3.14698792,2.85295567 2.59737313,2.85295567 L2.03889358,2.85295567 L1.82613947,4.25200123 L2.34029524,4.25200123 L2.34029524,4.24285714 Z" id="Shape"></path>
                <path d="M8.90021373,5.04753695 C8.16443909,5.10240148 7.8098489,5.02010468 7.6325538,4.69091749 C7.2425046,4.93780788 6.80813162,5.06582512 6.34716437,5.06582512 C5.51387743,5.06582512 5.22134052,4.61776478 5.30112332,4.12398399 C5.33658234,3.88623768 5.46955366,3.65763547 5.68230777,3.46560961 C6.14327501,3.05412562 7.27796362,2.99926108 7.72120135,2.68836207 C7.75666037,2.3408867 7.62368905,2.21286946 7.20704558,2.21286946 C6.71948407,2.21286946 6.31170535,2.37746305 5.61138973,2.87124384 L5.77982007,1.73737685 C6.38262339,1.2893165 6.9676972,1.07900246 7.64141856,1.07900246 C8.50129977,1.07900246 9.26366867,1.44476601 9.1218326,2.41403941 L8.95340226,3.51133005 C8.89134897,3.89538177 8.90907848,4.01425493 9.32572195,4.02339901 L8.90021373,5.04753695 Z M7.62368905,3.32844828 C7.23363984,3.58448276 6.50672996,3.53876232 6.42694716,4.06911946 C6.39148815,4.31600985 6.54218898,4.49889163 6.78153735,4.49889163 C7.01202098,4.49889163 7.29569313,4.39830665 7.52617675,4.23371305 C7.50844724,4.14227217 7.51731199,4.05083128 7.54390626,3.8770936 L7.62368905,3.32844828 Z" id="Shape"></path>
                <path d="M10.2742507,1.14301108 L11.7458,1.14301108 L11.6660172,1.64593596 C12.1358492,1.23445197 12.4904394,1.07900246 12.9514066,1.07900246 C13.7758288,1.07900246 14.1570133,1.60021552 14.024042,2.45061576 L13.6428575,5.0018165 L12.1713082,5.0018165 L12.4904394,2.88953202 C12.5524927,2.5054803 12.4372509,2.32259852 12.1535787,2.32259852 C11.9230951,2.32259852 11.710341,2.45061576 11.5064516,2.73408251 L11.1695909,4.99267241 L9.69804165,4.99267241 L10.2742507,1.14301108 Z" id="Path"></path>
                <polygon id="Path" points="15.1675953 0.0182881773 16.6391446 0.0182881773 16.2668249 2.46890394 17.6763209 1.14301108 19.4935956 1.14301108 17.6851856 2.78894704 19.1390054 5.0018165 17.2862717 5.0018165 16.1693126 3.21871921 16.1515831 3.21871921 15.8856404 5.0018165 14.4140912 5.0018165"></polygon>
            </g>
            <g id="Group" transform="translate(19.978130, 20.948276)" fill="#479CBE">
                <polygon id="Path" points="0.744344775 0.0186206897 2.34175884 0.0186206897 1.63923119 5.09275862 0.0418171222 5.09275862"></polygon>
                <path d="M3.11955732,0.0186206897 L5.40277219,0.0186206897 C7.16745474,0.0186206897 7.67762363,1.44310345 7.51035515,2.62551724 C7.35145008,3.78 6.53183449,5.09275862 4.98460096,5.09275862 L2.40866624,5.09275862 L3.11955732,0.0186206897 Z M4.59988344,3.88241379 C5.37768191,3.88241379 5.80421656,3.45413793 5.92966793,2.55103448 C6.0216656,1.88068966 5.83767026,1.21965517 4.97623754,1.21965517 L4.54970289,1.21965517 L4.18171222,3.88241379 L4.59988344,3.88241379 L4.59988344,3.88241379 Z" id="Shape"></path>
            </g>
        </g>
    </g>
</svg>