<?xml version="1.0" encoding="UTF-8"?>
<svg width="32px" height="32px" viewBox="0 0 32 32" version="1.1" xmlns="http://www.w3.org/2000/svg" xmlns:xlink="http://www.w3.org/1999/xlink">
    <!-- Generator: Sketch 50.2 (55047) - http://www.bohemiancoding.com/sketch -->
    <title>damage-multicolor-32</title>
    <desc>Created with Sketch.</desc>
    <defs></defs>
    <g id="damage-multicolor-32" stroke="none" stroke-width="1" fill="none" fill-rule="evenodd">
        <g transform="translate(5.000000, 4.000000)" fill-rule="nonzero">
            <polygon id="Rectangle-4" fill="#005AA0" points="20 2 2 2 2 22 5.01028808 22 5.01028808 24 0 24 0 0 22 0 22 24 13.0308642 24 13.0308642 22 20 22"></polygon>
            <polygon id="Polygon" fill="#005AA0" points="11.0870762 14.9468804 9.65890614 18.5998632 14 20.1269629 14 23 16 23 16 18.7103789 12.275368 17.4001368 13.6374437 13.9162106 9.25739194 11.9074754 6.67020957 13 1.82608696 13 1.82608696 15 7.07517944 15 9.2241512 14.0925246"></polygon>
            <polygon id="Polygon" fill="#005AA0" points="17 6 12.6006352 6 11.5667801 4.01749947 9.56721675 3.49438765 9.47830807 0.948376345 7.47952642 1.01817534 7.62040412 5.05238487 10.2032153 5.72808191 11.387999 8 15 8 15 10.7992602 20.330629 14.8020586 21.5315556 13.202754 17 9.79998417"></polygon>
            <polygon id="Line" fill="#E30613" points="7 24 11 24 11 22 7 22"></polygon>
        </g>
    </g>
</svg>