<?xml version="1.0" encoding="UTF-8"?>
<svg width="32px" height="32px" viewBox="0 0 32 32" version="1.1" xmlns="http://www.w3.org/2000/svg" xmlns:xlink="http://www.w3.org/1999/xlink">
    <!-- Generator: Sketch 50.2 (55047) - http://www.bohemiancoding.com/sketch -->
    <title>car-damaged-multicolor-32</title>
    <desc>Created with Sketch.</desc>
    <defs></defs>
    <g id="car-damaged-multicolor-32" stroke="none" stroke-width="1" fill="none" fill-rule="evenodd">
        <g transform="translate(0.000000, 4.000000)" fill-rule="nonzero">
            <path d="M6,12.5 C6,11.6729173 6.67285714,11 7.5,11 C8.32714286,11 9,11.6729173 9,12.5 C9,13.3270827 8.32714286,14 7.5,14 C6.67285714,14 6,13.3270827 6,12.5 Z" id="Fill-2" fill="#005AA0"></path>
            <path d="M23,12.5 C23,11.6729173 23.6728571,11 24.5,11 C25.3271429,11 26,11.6729173 26,12.5 C26,13.3270827 25.3271429,14 24.5,14 C23.6728571,14 23,13.3270827 23,12.5 Z" id="Fill-4" fill="#005AA0"></path>
            <path d="M30.0001,10 C30.0001,10.025 29.6671,10.033 29.2221,10.033 C28.3331,10.033 27.0001,10 27.0001,10 L28.0441,14 L28.0001,19 L27.0001,19 L27.0001,22 L25.0001,22 L25,21 L25.0001,19 L7.0001,19 L7.0001,21 L7.0001,22 L5.0001,22 L5.0001,19 L4.0001,19 L4.0001,17 L18,17 L18,15 L4.0001,15 L4.0001,14 L5.0001,10 C5.0001,10 3.6671,10.033 2.7781,10.033 C2.3331,10.033 2.0001,10.025 2.0001,10 L2.0001,9 C2.0001,8.032 6.0001,8 6.0001,8 L8.0001,4 C8.0001,4 9.68746643,2.00359791 16,2 C22.40625,2 24.0001,4 24.0001,4 L26.0001,8 C26.0001,8 30.0001,8.032 30.0001,9 L30.0001,10 Z M25.6641,3 C25.09375,2.1875 22.625,1.19949614e-24 16,-3.55271368e-15 C9.37500248,0.00397182106 6.62045,2.34375 6.2321,3 L4.9171,6.019 C2.74882651,6.08826524 0.0001,6.661 0.0001,9 L0.0001,10 C0.0001,10.672 0.4491,11.961 2.1471,12.025 C2.2271,12.028 2.3231,12.03 2.4311,12.031 L2.0601,13.515 L2.0001,13.754 L2.0001,14 L2.0001,15 L2.0001,17 L2.0001,19 C2.0001,19.7457988 2.40780101,20.3959358 3.01259802,20.7398062 L3.0001,22 C3.0001,23.105 3.8951,24 5.0001,24 L7.0001,24 C8.1051,24 9.0001,23.105 9.0001,22 L9.0001,21 L23.0001,21 L23.0001,22 C23.0001,23.105 23.8951,24 25.0001,24 L27.0001,24 C28.1051,24 29.0001,23.105 29.0001,22 L29.0156884,20.7235336 C29.6049872,20.3756815 30.0001,19.7341948 30.0001,19 L30.0001,17 C30.0001,16.96 29.9901,16.922 29.9881,16.882 L30.0001,15.013 L30,14.013 L30,13.749 L29.9500008,13.495 L29.5691,12.031 C29.6771,12.03 29.7731,12.028 29.8531,12.025 C31.5511,11.961 32.0001,10.672 32.0001,10 L32.0001,9 C32.0001,6.661 29.3156045,6.09031709 27.0831,6.019 L25.6641,3 Z" id="Fill-6" fill="#005AA0"></path>
            <polygon id="Line-2" fill="#E30613" points="22.0249122 3.6639178 24.5903363 9 9 9 9 7 21.4096637 7 20.8500878 5.8360822 17.5384371 6.27261799 15.9164653 4.02397534 17.5385247 2.85396531 18.4615629 4.13363201"></polygon>
            <polygon id="Line-3" fill="#E30613" points="20 17 20 15 24.4142136 15 26.6798386 17.2576614 25.265625 18.671875 23.5857864 17"></polygon>
        </g>
    </g>
</svg>