<?xml version="1.0" encoding="UTF-8"?>
<svg width="32px" height="32px" viewBox="0 0 32 32" version="1.1" xmlns="http://www.w3.org/2000/svg" xmlns:xlink="http://www.w3.org/1999/xlink">
    <!-- Generator: Sketch 50.2 (55047) - http://www.bohemiancoding.com/sketch -->
    <title>card-multicolor-32</title>
    <desc>Created with Sketch.</desc>
    <defs></defs>
    <g id="card-multicolor-32" stroke="none" stroke-width="1" fill="none" fill-rule="evenodd">
        <g transform="translate(3.000000, 7.000000)" fill-rule="nonzero" id="Shape">
            <path d="M23.0038392,16.0000005 C23.622661,16.0000005 24.028012,15.6029184 23.993839,15.0909096 L23.9964043,2.83750894 C24.0259513,2.42579929 23.5803229,2.00000052 23.0038392,2.00000052 L3.01522533,2.00000078 C2.47618881,2.00000078 2.00000041,2.4511102 2.00000041,2.90909172 L2,15.0909099 C2,15.5488914 2.4761884,16.0000008 3.01522491,16.0000008 L23.0038392,16.0000005 Z M2.66453526e-14,15.0909098 L4.11830027e-07,2.90909169 C4.11830027e-07,1.32161863 1.39509229,7.80278568e-07 3.01522531,7.80278568e-07 L23.0038392,5.20185495e-07 C24.6908683,5.20185494e-07 26.1080087,1.35408091 25.993839,2.90909143 L25.9912737,15.0193275 C26.1091636,16.6620214 24.7433222,18.0000005 23.0038392,18.0000005 L3.01522493,18.0000008 C1.39509188,18.0000008 2.66453526e-14,16.6783829 2.66453526e-14,15.0909098 Z" fill="#005AA0"></path>
            <polygon fill="#005AA0" points="25.0387543 5 1.21591696 5 1.21591696 7 25.0387543 7"></polygon>
            <polygon fill="#E30613" points="4.99999999 11 11 11 11 9 4.99999999 9"></polygon>
        </g>
    </g>
</svg>