<?xml version="1.0" encoding="UTF-8"?>
<svg width="32px" height="32px" viewBox="0 0 32 32" version="1.1" xmlns="http://www.w3.org/2000/svg" xmlns:xlink="http://www.w3.org/1999/xlink">
    <!-- Generator: Sketch 50.2 (55047) - http://www.bohemiancoding.com/sketch -->
    <title>house-multicolor-32</title>
    <desc>Created with Sketch.</desc>
    <defs></defs>
    <g id="house-multicolor-32" stroke="none" stroke-width="1" fill="none" fill-rule="evenodd">
        <g transform="translate(0.000000, 2.000000)" fill-rule="nonzero">
            <polygon id="Shape" fill="#005AA0" points="30.3924383 14.2650495 31.6075617 12.6765045 16.0042867 0.74111384 0.392648848 12.6763435 1.60735115 14.2652105 16.003953 3.25888616"></polygon>
            <polygon id="Shape" fill="#E30613" points="18.3924383 10.0884279 19.6075617 8.49988293 16.0009908 5.74111384 12.3926488 8.49972191 13.6073512 10.0885889 16.0006571 8.25888616"></polygon>
            <polygon id="Shape" fill="#005AA0" points="14 17 18 17 18 25 20 25 20 15 12 15 12 25 14 25"></polygon>
            <polygon id="Line" fill="#005AA0" points="4 10 4 25 6 25 6 10"></polygon>
            <polygon id="Line" fill="#005AA0" points="26 10 26 25 28 25 28 10"></polygon>
        </g>
    </g>
</svg>