<?xml version="1.0" encoding="UTF-8"?>
<svg width="32px" height="32px" viewBox="0 0 32 32" version="1.1" xmlns="http://www.w3.org/2000/svg" xmlns:xlink="http://www.w3.org/1999/xlink">
    <!-- Generator: Sketch 50.2 (55047) - http://www.bohemiancoding.com/sketch -->
    <title>loan-multicolor-32</title>
    <desc>Created with Sketch.</desc>
    <defs></defs>
    <g id="loan-multicolor-32" stroke="none" stroke-width="1" fill="none" fill-rule="evenodd">
        <g transform="translate(4.000000, 2.000000)" fill-rule="nonzero">
            <polygon id="Shape" fill="#005AA0" points="20.9637623 7.65250926 22.9185906 7.22984368 21.5323753 0.818597972 8.20781045 3.59454899 8.61571896 5.55250983 19.9970364 3.18140203"></polygon>
            <polygon id="Shape" fill="#005AA0" points="4.6193569 4.73131822 21.8613455 8.43074872 19.9924513 17.3532113 11.4915269 15.5080494 11.0672966 17.4625388 21.5369604 19.735024 24.2268898 6.89278069 3.08652545 2.35691708 0.308997386 15.2029844 4.16670292 15.9943086 4.5685912 14.0351032 2.69100261 13.6499568"></polygon>
            <path d="M15.1029412,23.8382353 C15.1029412,22.9792297 14.3884173,22.2647059 13.5294118,22.2647059 C12.6704062,22.2647059 11.9558824,22.9792297 11.9558824,23.8382353 C11.9558824,24.1870993 11.9690831,24.2927055 12.0163437,24.3872266 L12.0705998,24.5182125 C12.0988737,24.603034 12.1744754,24.7218368 12.2962585,24.8477855 C12.6209436,25.2265847 13.0159942,25.4117647 13.5294118,25.4117647 C14.3884173,25.4117647 15.1029412,24.6972409 15.1029412,23.8382353 Z M9.9558824,23.8382353 C9.9558824,21.8746602 11.5658367,20.2647059 13.5294118,20.2647059 C15.4929868,20.2647059 17.1029412,21.8746602 17.1029412,23.8382353 C17.1029412,25.8018104 15.4929868,27.4117647 13.5294118,27.4117647 C12.4267635,27.4117647 11.4790026,26.9675018 10.8298951,26.2056836 C10.5638622,25.9396508 10.3324018,25.585137 10.1980068,25.2211795 C9.9943653,24.7921628 9.9558824,24.456821 9.9558824,23.8382353 Z" id="Shape" fill="#E30613"></path>
            <path d="M8.41176471,19.9852941 C6.03206718,19.9852941 4.10294118,18.0561681 4.10294118,15.6764706 C4.10294118,13.2967731 6.03206718,11.3676471 8.41176471,11.3676471 C10.7914622,11.3676471 12.7205882,13.2967731 12.7205882,15.6764706 C12.7205882,18.0561681 10.7914622,19.9852941 8.41176471,19.9852941 Z M8.41176471,17.9852941 C9.6868927,17.9852941 10.7205882,16.9515986 10.7205882,15.6764706 C10.7205882,14.4013426 9.6868927,13.3676471 8.41176471,13.3676471 C7.13663668,13.3676471 6.10294118,14.4013426 6.10294118,15.6764706 C6.10294118,16.9515986 7.13663668,17.9852941 8.41176471,17.9852941 Z" id="Oval" fill="#005AA0"></path>
        </g>
    </g>
</svg>