<?xml version="1.0" encoding="UTF-8"?>
<svg width="32px" height="32px" viewBox="0 0 32 32" version="1.1" xmlns="http://www.w3.org/2000/svg" xmlns:xlink="http://www.w3.org/1999/xlink">
    <!-- Generator: Sketch 50.2 (55047) - http://www.bohemiancoding.com/sketch -->
    <title>moose-multicolor-32</title>
    <desc>Created with Sketch.</desc>
    <defs></defs>
    <g id="moose-multicolor-32" stroke="none" stroke-width="1" fill="none" fill-rule="evenodd">
        <g transform="translate(2.000000, 3.000000)">
            <path d="M26.8069,11.2065 L26.7839,11.1875 C26.3009,10.7705 25.7029,10.5515 25.0479,10.5515 C24.9389,10.5515 24.8279,10.5575 24.7129,10.5695 C24.9019,10.3785 25.1249,10.1555 25.3949,9.8895 L25.5049,9.7795 C26.5799,8.7145 27.1989,8.0465 27.5959,7.3515 L27.6379,7.2795 C27.7889,7.0205 28.2469,6.2325 27.8359,5.2735 C27.5649,4.6395 27.0469,4.2275 26.2969,4.0485 L26.2439,4.0355 L26.0049,3.9765 L25.7089,3.9705 C25.0589,3.9705 24.1689,4.1965 22.5129,5.8695 C22.3899,5.9945 22.2629,6.1255 22.1279,6.2685 L22.1799,6.0715 C22.8639,3.4755 23.0199,2.7315 22.8619,1.9645 C22.6229,0.8085 21.6139,0.0005 20.4069,-0.0005 C19.8899,-0.0005 19.3669,0.1535 18.8929,0.4455 C18.2729,0.8265 18.0329,1.4245 17.8929,1.9025 C17.7799,2.2935 17.7059,2.7285 17.6259,3.3025 L17.5709,3.7045 L17.5469,3.8795 C17.5159,4.1045 17.4899,4.2865 17.4609,4.4665 C17.3899,4.9215 17.3169,5.2925 17.2329,5.6345 C16.8819,7.0475 16.3499,7.7655 15.8319,8.1795 C15.2409,7.9475 14.6309,7.8295 14.0199,7.8295 C13.5359,7.8295 13.0609,7.9245 12.5919,8.0695 L13.0949,9.9935 C13.4099,9.8865 13.7189,9.8295 14.0199,9.8295 C14.4109,9.8295 14.7889,9.9125 15.1499,10.0605 C15.3519,10.1435 15.4909,10.2215 15.5499,10.2635 L15.8599,10.4825 L16.1969,10.3095 C17.7879,9.4935 18.6869,8.0815 19.1729,6.1155 C19.2769,5.7015 19.3599,5.2695 19.4369,4.7755 C19.4669,4.5855 19.4949,4.3935 19.5279,4.1535 C19.5369,4.0845 19.5909,3.6885 19.6069,3.5805 C19.6839,3.0305 19.7419,2.7095 19.8139,2.4625 C19.8739,2.2525 19.9309,2.1545 19.9399,2.1485 C20.1119,2.0435 20.2699,1.9995 20.4069,1.9995 C20.6749,1.9995 20.8619,2.1675 20.9029,2.3675 C20.9669,2.6815 20.8049,3.4365 20.2449,5.5635 C20.2119,5.6905 20.2119,5.6905 20.1779,5.8185 C19.5279,8.3065 19.3519,9.3475 19.7069,10.0395 C19.8649,10.3435 20.1199,10.4765 20.3949,10.4765 C20.5519,10.4765 20.7159,10.4325 20.8719,10.3525 C21.0849,10.2435 21.3119,10.0605 21.5909,9.7895 C21.8019,9.5835 22.0369,9.3355 22.3669,8.9735 C22.4149,8.9195 23.0389,8.2285 23.2299,8.0205 C23.4929,7.7335 23.7189,7.4945 23.9339,7.2765 C24.7889,6.4125 25.4329,5.9705 25.7089,5.9705 C25.7279,5.9705 25.7439,5.9725 25.7579,5.9765 C26.0699,6.0545 26.0579,6.0135 25.8599,6.3585 C25.5999,6.8145 25.1149,7.3525 24.0979,8.3585 L23.9889,8.4675 C22.7719,9.6705 22.3619,10.1065 21.9999,10.6565 C21.3629,11.6255 21.4809,12.5425 22.6119,12.8525 C22.7859,12.9005 22.9419,12.9235 23.1079,12.9235 C23.3999,12.9235 23.7229,12.8515 24.2309,12.7115 C24.3339,12.6825 24.3879,12.6675 24.4479,12.6525 C24.7029,12.5855 24.8949,12.5515 25.0479,12.5515 C25.2389,12.5515 25.3699,12.6035 25.4899,12.7125 L25.5389,12.7535 C25.5429,12.7565 25.5759,12.7875 25.6119,12.8385 C25.7679,13.0565 25.7679,13.3035 25.4219,13.7345 C24.7729,14.4265 23.9219,14.7565 23.0139,14.7565 C21.6109,14.7565 20.0689,13.9655 18.9199,12.4905 L18.8919,12.5125 C18.8889,12.5095 18.8869,12.5055 18.8839,12.5025 L17.8799,13.2485 C18.1709,13.6405 18.3289,14.1375 18.3679,14.7265 C18.4099,15.3815 18.3009,16.1045 18.0909,16.8245 C18.0289,17.0405 17.9609,17.2405 17.8939,17.4175 C17.8549,17.5205 17.8259,17.5915 17.8109,17.6245 L17.7559,17.7465 L17.7559,22.2575 L17.7599,22.3235 C17.7629,22.3805 17.7089,22.5355 17.4919,22.7305 C16.9709,23.1975 15.8649,23.5085 14.0019,23.5085 C12.1389,23.5085 11.0329,23.1975 10.5119,22.7305 C10.2939,22.5355 10.2409,22.3805 10.2439,22.3235 L10.2459,22.2575 L10.2459,17.7465 L10.1929,17.6245 C10.1779,17.5915 10.1489,17.5205 10.1099,17.4175 C10.0419,17.2405 9.9749,17.0405 9.9119,16.8245 C9.7029,16.1045 9.5939,15.3815 9.6359,14.7265 C9.6739,14.1375 9.8319,13.6405 10.1229,13.2485 L9.1199,12.5025 C9.1169,12.5055 9.1149,12.5095 9.1119,12.5125 L9.0829,12.4905 C7.9349,13.9655 6.3929,14.7565 4.9889,14.7565 C4.0809,14.7565 3.2309,14.4265 2.5809,13.7345 C2.2359,13.3035 2.2359,13.0565 2.3909,12.8385 C2.4279,12.7875 2.4599,12.7565 2.4639,12.7535 L2.5139,12.7125 C2.6329,12.6035 2.7649,12.5515 2.9549,12.5515 C3.1089,12.5515 3.3009,12.5855 3.5549,12.6525 C3.6159,12.6675 3.6689,12.6825 3.7729,12.7115 C4.2799,12.8515 4.6039,12.9235 4.8959,12.9235 C5.0619,12.9235 5.2179,12.9005 5.3919,12.8525 C6.5229,12.5425 6.6409,11.6255 6.0029,10.6565 C5.6419,10.1065 5.2319,9.6705 4.0149,8.4675 C3.9599,8.4135 3.9599,8.4135 3.9059,8.3585 C2.8889,7.3525 2.4039,6.8145 2.1429,6.3585 C1.9459,6.0135 1.9339,6.0545 2.2449,5.9765 C2.2599,5.9725 2.2759,5.9705 2.2939,5.9705 C2.5709,5.9705 3.2139,6.4135 4.0699,7.2765 C4.2849,7.4945 4.5109,7.7335 4.7739,8.0205 C4.9649,8.2285 5.5879,8.9195 5.6369,8.9735 C5.9659,9.3355 6.2019,9.5835 6.4119,9.7895 C6.6919,10.0605 6.9179,10.2435 7.1309,10.3525 C7.2869,10.4325 7.4519,10.4765 7.6099,10.4765 C7.8839,10.4765 8.1389,10.3435 8.2959,10.0395 C8.6509,9.3505 8.4769,8.3115 7.8299,5.8405 L5.8749,6.2685 C5.7409,6.1255 5.6149,5.9945 5.4909,5.8705 C3.8339,4.1965 2.9459,3.9705 2.2939,3.9705 L2.0479,3.9705 L1.7609,4.0355 L1.7059,4.0485 C0.9559,4.2275 0.4389,4.6395 0.1659,5.2735 C-0.2441,6.2325 0.2149,7.0205 0.3659,7.2795 L0.4079,7.3515 C0.8049,8.0465 1.4229,8.7145 2.4979,9.7795 L2.6089,9.8895 C2.8779,10.1555 3.1019,10.3785 3.2899,10.5695 C3.1749,10.5575 3.0649,10.5515 2.9549,10.5515 C2.2999,10.5515 1.7019,10.7705 1.2189,11.1875 L1.1959,11.2065 C1.0039,11.3655 0.8579,11.5445 0.7639,11.6755 C0.4999,12.0435 -0.2671,13.3795 1.0209,14.9865 L1.0709,15.0475 L1.1239,15.1045 C2.1249,16.1705 3.4979,16.7565 4.9889,16.7565 C5.9069,16.7565 6.8339,16.5335 7.7109,16.1195 C7.7729,16.5295 7.8659,16.9515 7.9919,17.3835 C8.0709,17.6545 8.1549,17.9035 8.2389,18.1245 C8.2419,18.1325 8.2449,18.1395 8.2459,18.1465 L8.2459,22.2055 L8.2459,22.2185 C8.2139,22.9485 8.5449,23.6525 9.1759,24.2185 C10.1429,25.0865 11.7219,25.5085 14.0019,25.5085 C16.2819,25.5085 17.8599,25.0865 18.8279,24.2195 C19.4589,23.6515 19.7889,22.9475 19.7579,22.2355 L19.7559,22.2065 L19.7559,18.1465 C19.7589,18.1395 19.7619,18.1325 19.7639,18.1255 C19.8479,17.9035 19.9329,17.6545 20.0119,17.3835 C20.1379,16.9515 20.2309,16.5295 20.2909,16.1195 C21.1689,16.5335 22.0969,16.7565 23.0139,16.7565 C24.5049,16.7565 25.8779,16.1705 26.8789,15.1045 L26.9329,15.0475 L26.9829,14.9855 C28.2709,13.3795 27.5029,12.0445 27.2379,11.6735 C27.1069,11.4905 26.9619,11.3335 26.8069,11.2065" id="Fill-1" fill="#005AA0"></path>
            <path d="M11,14 C11,13.4486115 11.4485714,13 12,13 C12.5514286,13 13,13.4486115 13,14 C13,14.5513885 12.5514286,15 12,15 C11.4485714,15 11,14.5513885 11,14 Z" id="Fill-4" fill="#005AA0" fill-rule="nonzero"></path>
            <path d="M15,14 C15,13.4486115 15.4485714,13 16,13 C16.5514286,13 17,13.4486115 17,14 C17,14.5513885 16.5514286,15 16,15 C15.4485714,15 15,14.5513885 15,14 Z" id="Fill-4" fill="#005AA0" fill-rule="nonzero"></path>
            <path d="M7.4964,4.5531 C7.1514,3.1921 7.0484,2.6251 7.1004,2.3671 C7.1424,2.1681 7.3284,2.0001 7.5974,2.0001 C7.7334,2.0001 7.8924,2.0441 8.0624,2.1491 C8.0724,2.1551 8.1294,2.2521 8.1894,2.4631 C8.2624,2.7101 8.3194,3.0311 8.3964,3.5801 C8.4124,3.6891 8.4664,4.0851 8.4754,4.1531 C8.5094,4.3931 8.5364,4.5851 8.5664,4.7761 C8.6434,5.2701 8.7264,5.7011 8.8304,6.1151 C9.2224,7.6991 9.8904,8.9181 10.9654,9.7611 L12.0644,8.0861 C11.5814,7.6601 11.0984,6.9511 10.7714,5.6351 C10.6864,5.2921 10.6134,4.9211 10.5424,4.4661 C10.5144,4.2861 10.4874,4.1051 10.4564,3.8791 L10.4344,3.7181 L10.3774,3.3031 C10.2974,2.7291 10.2254,2.2951 10.1104,1.9041 C9.9704,1.4231 9.7294,0.8231 9.1054,0.4421 C8.6374,0.1541 8.1134,0.0001 7.5974,0.0001 C6.3904,0.0001 5.3804,0.8071 5.1424,1.9641 C5.0094,2.6111 5.1024,3.2541 5.5444,4.9911 L7.4964,4.5531 Z" id="Fill-4" fill="#E30613"></path>
        </g>
    </g>
</svg>