<svg xmlns="http://www.w3.org/2000/svg" xmlns:xlink="http://www.w3.org/1999/xlink"><symbol id="icon-arrow-enclosed-32" viewBox="0 0 32 32"><g fill="currentColor" fill-rule="evenodd"><path d="M13 24C6.935 24 2 19.065 2 13S6.935 2 13 2s11 4.935 11 11-4.935 11-11 11m0-24C5.832 0 0 5.832 0 13s5.832 13 13 13 13-5.832 13-13S20.168 0 13 0" transform="translate(3 3)"/><path d="M13.033 9.197L15.757 12H7v2h8.757l-2.724 2.802 1.435 1.395L19.518 13l-5.05-5.198z" transform="translate(3 3)"/></g></symbol><symbol id="icon-arrows-apart-32" viewBox="0 0 32 32"><path fill="currentColor" d="M12 3.8L1.47 13 12 22.484v-5.5h10v-2.868L27.451 19 22 23.81v-2.825h-8v2h6v5.174L30.517 19 20 9.74v5.245H10v3.024L4.498 13 10 8.17v2.815h8v-2h-6z" fill-rule="evenodd"/></symbol><symbol id="icon-arrows-apart2-32" viewBox="0 0 32 32"><path d="M8.8 2.857v-5.19L-1.507 7.483 8.8 15.977V11h10.4V8.263l5.293 4.362-5.293 5.042v-2.524h-7.5v2h5.5v5.19l10.307-9.816L17.2 4.023V9H6.8v2.737L1.507 7.375 6.8 2.333v2.524h7.5v-2z" transform="translate(3 6)" fill="currentColor" fill-rule="nonzero"/></symbol><symbol id="icon-attach-32" viewBox="0 0 32 32"><g fill="none" fill-rule="evenodd"><path d="M0 0h32v32H0z"/><path d="M12.75 17.797c.302.877.226 1.233-.1 1.385-.322.15-.64-.013-1.15-.86L7.354 9.437l-1.812.845 4.166 8.934.047.089c.991 1.664 2.306 2.358 3.739 1.69 1.432-.668 1.745-2.122 1.105-3.95L9.016 5.056l-.047-.089C7.542 2.572 5.505 1.804 3.195 2.881.883 3.959.172 6.015 1.118 8.639l5.581 11.98c2.236 4.278 5.187 5.794 8.584 4.21 3.396-1.584 4.132-4.819 2.31-9.24L13.41 6.613l-1.813.845 4.166 8.934c1.436 3.489.966 5.556-1.325 6.624-2.29 1.068-4.176.1-5.945-3.284L2.965 7.878C2.388 6.264 2.717 5.31 4.04 4.693c1.315-.613 2.266-.265 3.184 1.255l5.525 11.849z" transform="translate(6 2)" fill="currentColor" fill-rule="nonzero"/></g></symbol><symbol id="icon-bills-coins-32" viewBox="0 0 32 32"><path d="M19.684 16.535l-7.281-1.58c0-.034.01-.064.01-.097a4.314 4.314 0 00-4.31-4.309 4.314 4.314 0 00-3.971 2.641l-1.75-.359 1.93-8.918 17.24 3.698-1.868 8.924zm-11.58.632a2.31 2.31 0 01-2.31-2.309 2.311 2.311 0 012.31-2.309 2.312 2.312 0 012.309 2.31 2.311 2.311 0 01-2.31 2.308zM19.689 2.363l.636 2.94-7.266-1.559 6.63-1.38zm2.78 3.4L21.225 0 8.229 2.708l-5.45-1.17-2.78 12.846 3.828.785c.162 2.23 2.007 3.998 4.277 3.998 1.638 0 3.049-.93 3.777-2.279l9.348 2.028 2.689-12.842-1.448-.31zM12.22 24.593c-.511 0-.902-.18-1.284-.62a.831.831 0 01-.174-.274l-.054-.13c-.057-.116-.06-.276-.06-.55 0-.852.72-1.572 1.573-1.572.854 0 1.574.72 1.574 1.573 0 .852-.72 1.573-1.574 1.573m0-5.146a3.576 3.576 0 00-3.573 3.573c0 .365 0 .859.24 1.38.132.357.357.71.582.93a3.523 3.523 0 002.75 1.263 3.577 3.577 0 003.575-3.573 3.577 3.577 0 00-3.574-3.573" transform="translate(4 2.5)" fill="currentColor" fill-rule="nonzero"/></symbol><symbol id="icon-boat-32" viewBox="0 0 32 32"><g fill="currentColor" fill-rule="nonzero"><path d="M21.79 4.652c.246.16.438.346.583.56.057.085.103.168.146.256a4.396 4.396 0 01.087.197l1.826 4.698-1.864.724c-.71-1.827-.71-1.827-1.795-4.628l-.015-.03c-.06-.133-.024-.078-.056-.1-.475-.307-1.96-.54-4.84-.54h-1.716c-2.874.004-4.36.238-4.839.546-.035.023 0-.028-.056.093l-1.819 4.677-1.864-.725c.712-1.83.712-1.83 1.864-4.783.015-.034.037-.084.058-.127a1.95 1.95 0 01.148-.257c.146-.214.34-.4.587-.56.804-.517 2.305-.795 4.92-.853V2.425c0-1.047.815-1.925 1.858-1.925 1.044 0 1.86.878 1.86 1.925v1.373c2.621.054 4.125.333 4.927.854zM.456 25.483l1.088-1.678a3.446 3.446 0 003.763.03 6.983 6.983 0 017.7-.028l-1.086 1.68c-1.705-1.104-3.816-1.096-5.529.03a5.452 5.452 0 01-5.936-.034zm11.443 0l1.088-1.678a3.446 3.446 0 003.764.03 6.983 6.983 0 017.7-.028l-1.087 1.68c-1.705-1.104-3.816-1.096-5.529.03a5.452 5.452 0 01-5.936-.034zm11.437 0l1.089-1.678a3.452 3.452 0 003.777.022l1.07 1.69a5.452 5.452 0 01-5.936-.034zM26.7 12.836c.347.573.396 1.292.114 1.949L23.27 22.18l-1.804-.864 3.526-7.356a.115.115 0 00-.006-.093l-.092-.006-9.898-1.352-9.837 1.344-.181.008c.02.026.018.068.015.063l3.524 7.364-1.805.863-3.539-7.398A2.112 2.112 0 013.3 12.83c.36-.593.983-.962 1.662-.969l10.034-1.37 10.108 1.38a1.932 1.932 0 011.596.965z" transform="translate(1 2)"/><path d="M14 14h2v6.608h-2z" transform="translate(1 2)"/></g></symbol><symbol id="icon-briefcase-32" viewBox="0 0 32 32"><g fill="none" fill-rule="evenodd"><path d="M0 0h32v32H0z"/><path d="M22 4v4h5.5a2.5 2.5 0 012.5 2.5v15a2.5 2.5 0 01-2.5 2.5h-23A2.5 2.5 0 012 25.5v-15A2.5 2.5 0 014.5 8H10V4h12zm6 9.079L24.35 16H7.65L4 13.08V25.5a.5.5 0 00.5.5H8V16h2v10h12V16h2v10h3.5a.5.5 0 00.5-.5V13.079zM18 16v2h-4v-2h4zm9.5-6h-23a.5.5 0 00-.5.5v.02L8.35 14h15.3L28 10.519V10.5a.5.5 0 00-.5-.5zM20 6h-8v2h8V6z" fill="currentColor" fill-rule="nonzero"/></g></symbol><symbol id="icon-calendar-32" viewBox="0 0 32 32"><path d="M20.693 25H3.306C2.561 25 2 24.459 2 23.742V11h20v12.742c0 .717-.562 1.258-1.307 1.258M3.306 4H6v2h2V4h8v2h2V4h2.658c.753.025 1.342.57 1.342 1.24V9H2V5.24c0-.67.59-1.215 1.306-1.24m17.387-2H18V0h-2v2H8V0H6v2H3.271C1.437 2.064.001 3.487.001 5.24v18.502C0 25.569 1.451 27 3.305 27h17.387C22.547 27 24 25.569 24 23.742V5.24c0-1.753-1.438-3.176-3.307-3.24" transform="translate(4 2)" fill="currentColor" fill-rule="evenodd"/></symbol><symbol id="icon-calendar-check-32" viewBox="0 0 32 32"><g fill="currentColor" fill-rule="evenodd"><path d="M20.693 25H3.306C2.561 25 2 24.459 2 23.742V11h20v12.742c0 .717-.562 1.258-1.307 1.258M3.306 4H6v2h2V4h8v2h2V4h2.658c.753.025 1.342.57 1.342 1.24V9H2V5.24c0-.67.59-1.215 1.306-1.24m17.387-2H18V0h-2v2H8V0H6v2H3.271C1.437 2.064.001 3.487.001 5.24v18.502C0 25.569 1.451 27 3.305 27h17.387C22.547 27 24 25.569 24 23.742V5.24c0-1.753-1.438-3.176-3.307-3.24" transform="translate(4 2)"/><path d="M10.531 19.183l-2.819-2.869-1.424 1.406 4.23 4.296 7.35-7.307-1.41-1.418z" transform="translate(4 2)"/></g></symbol><symbol id="icon-calendar-cross-32" viewBox="0 0 32 32"><g fill="currentColor" fill-rule="evenodd"><path d="M20.693 25H3.306C2.561 25 2 24.459 2 23.741V11h20v12.741c0 .718-.562 1.259-1.307 1.259M3.306 4H6v2h2V4l8-.001V6h2V3.999h2.658C21.411 4.025 22 4.57 22 5.24V9H2V5.24c0-.67.59-1.215 1.306-1.24m17.387-2H18V0h-2v2l-8 .001V0H6v2.001H3.271C1.437 2.064.001 3.487.001 5.24v18.501C0 25.568 1.451 27 3.305 27h17.387C22.547 27 24 25.568 24 23.741V5.24c0-1.753-1.438-3.176-3.307-3.24" transform="translate(4 2)"/><path d="M15.996 12.585l-3.996 4-3.995-4-1.415 1.413L10.587 18 6.58 22.012l1.415 1.413L12 19.415l3.996 4 1.415-1.413L13.413 18l3.998-4.002z" transform="translate(4 2)"/></g></symbol><symbol id="icon-car-32" viewBox="0 0 32 32"><g fill="currentColor" fill-rule="nonzero"><path d="M6 12.5c0-.827.673-1.5 1.5-1.5s1.5.673 1.5 1.5S8.327 14 7.5 14 6 13.327 6 12.5zm17 0c0-.827.673-1.5 1.5-1.5s1.5.673 1.5 1.5-.673 1.5-1.5 1.5-1.5-.673-1.5-1.5zM9 7.027v2h15.658l-2.655-5.246-1.784.903 1.185 2.343z" transform="translate(0 4)"/><path d="M30 10c0 .025-.333.033-.778.033C28.333 10.033 27 10 27 10l1.044 4L28 15h-6v2h6v2h-1v3h-2v-3H7v3H5v-3H4v-2h16v-2H4v-1l1-4s-1.333.033-2.222.033C2.333 10.033 2 10.025 2 10V9c0-.968 4-1 4-1l2-4s1.687-1.996 8-2c6.406 0 8 2 8 2l2 4s4 .032 4 1v1zm-4.336-7c-.57-.813-3.039-3-9.664-3-6.625.004-9.38 2.344-9.768 3L4.917 6.019C2.75 6.089 0 6.661 0 9v1c0 .672.45 1.961 2.147 2.025.08.003.176.005.284.006l-.37 1.484-.06.239V19c0 .746.407 1.396 1.012 1.74L3 22a2 2 0 002 2h2a2 2 0 002-2v-1h14v1a2 2 0 002 2h2a2 2 0 002-2l.016-1.276A2 2 0 0030 19v-2c0-.04-.01-.078-.012-.118L30 15.013v-1.264l-.05-.254-.38-1.464c.107-.001.203-.003.283-.006C31.551 11.961 32 10.672 32 10V9c0-2.339-2.684-2.91-4.917-2.981L25.664 3z" transform="translate(0 4)"/></g></symbol><symbol id="icon-card-32" viewBox="0 0 32 32"><g fill="currentColor" fill-rule="evenodd"><path d="M23.803 15.688c-.187.2-.471.311-.8.311H3.016C2.493 16 2 15.56 2 15.09V7h21.995v8.163a.685.685 0 01-.192.524zM3.015 1.998h19.989c.302 0 .599.125.793.334.082.087.216.27.197.575V5H2V2.909c0-.467.493-.91 1.015-.91zm22.976.98A2.648 2.648 0 0025.26.97 3.086 3.086 0 0023.004 0H3.014C1.382 0 0 1.333 0 2.908V15.09C0 16.669 1.38 18 3.015 18h19.989c.876 0 1.7-.346 2.263-.95.52-.56.778-1.28.727-1.96L25.99 2.98z" transform="translate(3 7)"/><path d="M3.994 11h6V9h-6z" transform="translate(3 7)"/></g></symbol><symbol id="icon-card-block-32" viewBox="0 0 32 32"><g fill="currentColor" fill-rule="nonzero"><path d="M1 4v2h22V4zm9 6V8H4v2z" transform="translate(2 5)"/><path d="M14 16H3c-.552 0-1-.447-1-.994V2.994c0-.55.443-.994.991-.994H21.01c.55 0 .991.442.991 1.006V11h2V3.006A2.991 2.991 0 0021.009 0H2.99A2.991 2.991 0 000 2.994v12.012A2.998 2.998 0 003 18h11v-2z" transform="translate(2 5)"/><path d="M14.586 12l9.765 9.765 1.414-1.414L16 10.586z" transform="translate(2 5)"/><path d="M20.5 22a5.5 5.5 0 100-11 5.5 5.5 0 000 11zm0 2a7.5 7.5 0 110-15 7.5 7.5 0 010 15z" transform="translate(2 5)"/></g></symbol><symbol id="icon-chat-32" viewBox="0 0 32 32"><path d="M25.544 2.813C23.787 1.025 21.258 0 18.604 0H9.443C4.172 0 .024 3.951 0 9.004.024 14.132 3.947 18 9.125 18h1.44L17 24.407v-8.323h-2v3.508L11.393 16H9.125C5.015 16 2.02 13.054 2 9.004 2.02 5.011 5.219 2 9.442 2h9.163c2.12 0 4.129.807 5.512 2.215C25.382 5.501 26.032 7.15 26 9.017c.033 1.846-.65 3.576-1.922 4.871A7.154 7.154 0 0119 16v2a9.172 9.172 0 006.505-2.71A8.687 8.687 0 0028 9.017c.04-2.347-.831-4.55-2.456-6.204" transform="translate(2 5)" fill="currentColor" fill-rule="evenodd"/></symbol><symbol id="icon-check-32" viewBox="0 0 32 32"><path d="M18.49.8L7.481 11.768 1.924 6.153.5 7.557l6.967 7.045L19.899 2.218z" transform="translate(6 9)" fill="currentColor" fill-rule="evenodd"/></symbol><symbol id="icon-check-bold-32" viewBox="0 0 32 32"><path d="M18.072.234L7.77 10.494 2.92 5.588.789 7.697l6.967 7.046L20.188 2.359z" transform="translate(6 9.3)" fill="currentColor" fill-rule="evenodd"/></symbol><symbol id="icon-check-enclosed-32" viewBox="0 0 32 32"><g fill="currentColor" fill-rule="evenodd"><path d="M13 24C6.935 24 2 19.065 2 13S6.935 2 13 2s11 4.935 11 11-4.935 11-11 11m0-24C5.832 0 0 5.832 0 13s5.832 13 13 13 13-5.832 13-13S20.168 0 13 0" transform="translate(3 3)"/><path d="M11.545 15.593L8.258 12.25l-1.424 1.404 4.697 4.772 8.037-7.99-1.41-1.418z" transform="translate(3 3)"/></g></symbol><symbol id="icon-chevron-32" viewBox="0 0 32 32"><path d="M1.814.91L.4 2.324l7.071 7.071-7.07 7.073 1.414 1.414 7.071-7.072L10.3 9.395 8.886 7.982z" transform="translate(11.6 6.6)" fill="currentColor" fill-rule="evenodd"/></symbol><symbol id="icon-chevron-down-32" viewBox="0 0 32 32"><path d="M17.892 1.774L16.478.36 9.406 7.431 2.334.361.92 1.775l7.071 7.071 1.415 1.413 1.413-1.413z" transform="translate(6.6 11.6)" fill="currentColor" fill-rule="evenodd"/></symbol><symbol id="icon-chevron-left-32" viewBox="0 0 32 32"><path d="M8.885.91L10.3 2.324 3.228 9.395l7.07 7.073-1.414 1.414-7.071-7.072L.4 9.395l1.413-1.413z" transform="translate(9.6 6.6)" fill="currentColor" fill-rule="evenodd"/></symbol><symbol id="icon-chevron-right-32" viewBox="0 0 32 32"><path d="M1.814.91L.4 2.324l7.071 7.071-7.07 7.073 1.414 1.414 7.071-7.072L10.3 9.395 8.886 7.982z" transform="translate(11.6 6.6)" fill="currentColor" fill-rule="evenodd"/></symbol><symbol id="icon-chevron-up-32" viewBox="0 0 32 32"><path d="M17.892 9.021l-1.414 1.414-7.072-7.07-7.072 7.07L.92 9.02l7.071-7.07L9.406.535 10.82 1.95z" transform="translate(6.6 9.6)" fill="currentColor" fill-rule="evenodd"/></symbol><symbol id="icon-clipboard-32" viewBox="0 0 32 32"><g fill="currentColor" fill-rule="nonzero"><path d="M20 24.19c0 .461-.355.81-.826.81H2.826C2.355 25 2 24.651 2 24.19V5.805c0-.439.372-.79.826-.8H6V9h10V5.007h3.153c.475.01.847.36.847.8V24.19zM10 2h2v3h2v2H8V5h2V2zm4 1.006V.002H8v3.005H2.806C1.232 3.04 0 4.27 0 5.806V24.19C0 25.765 1.241 27 2.826 27h16.348C20.759 27 22 25.765 22 24.19V5.805c0-1.537-1.232-2.767-2.826-2.8H14z" transform="translate(5 2)"/><path d="M6 14h10v-2H6zm0 4h10v-2H6zm0 4h10v-2H6z" transform="translate(5 2)"/></g></symbol><symbol id="icon-clock-32" viewBox="0 0 32 32"><g fill="currentColor" fill-rule="nonzero"><path d="M13 0C5.834 0 0 5.834 0 13s5.834 13 13 13 13-5.834 13-13S20.166 0 13 0zm0 2c6.087 0 11 4.913 11 11s-4.913 11-11 11S2 19.087 2 13 6.913 2 13 2z" transform="translate(3 3)"/><path d="M19.08 16.796l-1.285 1.533L12 13.466V5h2v7.534z" transform="translate(3 3)"/></g></symbol><symbol id="icon-coins-32" viewBox="0 0 32 32"><g fill="none" fill-rule="evenodd"><path d="M0 0h32v32H0z"/><path d="M15 28v2H4v-2h11zm6.5-15a8.5 8.5 0 110 17 8.5 8.5 0 010-17zm0 2a6.5 6.5 0 100 13 6.5 6.5 0 000-13zM13 25v2H4v-2h9zm14-3.5a5.5 5.5 0 01-5.5 5.5v-2a3.5 3.5 0 003.5-3.5h2zM12 22v2H4v-2h8zm0-3v2H4v-2h8zm1-3v2H4v-2h9zm2-3v2H4v-2h11zm4-3v2H4v-2h15zm2-3v2H6V7h15zm-4-3v2H2V4h15z" fill="currentColor" fill-rule="nonzero"/></g></symbol><symbol id="icon-contact-menu-32-copy" viewBox="0 0 32 32"><g fill="currentColor" fill-rule="nonzero"><path d="M15.244 25.78c-1.917 0-3.466-1.571-3.466-3.502 0-1.93 1.549-3.501 3.466-3.501 1.917 0 3.466 1.57 3.466 3.501 0 1.93-1.549 3.502-3.466 3.502zm0-2c.806 0 1.466-.67 1.466-1.502s-.66-1.501-1.466-1.501c-.806 0-1.466.669-1.466 1.501 0 .833.66 1.502 1.466 1.502zm0-23.575c3.356 0 6.495 1.5 8.652 4.042l-1.524 1.294c-1.783-2.1-4.369-3.336-7.128-3.336-3.881 0-7.324 2.419-8.715 5.962l-.141.495c-.328.941-.5 2.016-.5 3.11 0 1.337.27 2.645.785 3.864l.587 1.389H5.567C2.792 17.025.56 14.761.56 11.96c0-2.566 1.875-4.683 4.324-5.018C6.734 2.878 10.742.205 15.244.205zM2.56 11.96a3.06 3.06 0 001.7 2.764 12.123 12.123 0 01-.11-5.47 3.064 3.064 0 00-1.59 2.706z" transform="translate(.75 3)"/><path d="M23.959 8.167l1.925-.542.105.38c.403 1.158.61 2.455.61 3.768 0 4.298-2.357 8.24-6.006 10.195-.87.475-1.82.826-2.794 1.037l-.425-1.954a8.524 8.524 0 002.267-.842c3.006-1.611 4.959-4.875 4.959-8.436 0-1.095-.172-2.17-.518-3.168l-.123-.438z" transform="translate(.75 3)"/><path d="M10.457 4.716l1.931-.52c.072.268.328.754.853 1.26.927.892 2.342 1.44 4.407 1.44H25v2h-7.352c-2.573 0-4.487-.742-5.794-2-.816-.784-1.238-1.588-1.397-2.18zm7.588 9.606l1.425 1.405a6.003 6.003 0 01-4.288 1.798 6.003 6.003 0 01-4.287-1.798l1.425-1.405a4.003 4.003 0 002.862 1.203 4.003 4.003 0 002.863-1.203z" transform="translate(.75 3)"/><path d="M24.922 8.896v-2c2.774 0 5.006 2.264 5.006 5.064 0 2.8-2.232 5.065-5.006 5.065v-2c1.663 0 3.006-1.363 3.006-3.065s-1.343-3.064-3.006-3.064z" transform="translate(.75 3)"/></g></symbol><symbol id="icon-contact-menu-32" viewBox="0 0 32 32"><g fill="currentColor" fill-rule="nonzero"><path d="M15.244 25.78c-1.917 0-3.466-1.571-3.466-3.502 0-1.93 1.549-3.501 3.466-3.501 1.917 0 3.466 1.57 3.466 3.501 0 1.93-1.549 3.502-3.466 3.502zm0-2c.806 0 1.466-.67 1.466-1.502s-.66-1.501-1.466-1.501c-.806 0-1.466.669-1.466 1.501 0 .833.66 1.502 1.466 1.502zm0-23.575c3.356 0 6.495 1.5 8.652 4.042l-1.524 1.294c-1.783-2.1-4.369-3.336-7.128-3.336-3.881 0-7.324 2.419-8.715 5.962l-.141.495c-.328.941-.5 2.016-.5 3.11 0 1.337.27 2.645.785 3.864l.587 1.389H5.567C2.792 17.025.56 14.761.56 11.96c0-2.566 1.875-4.683 4.324-5.018C6.734 2.878 10.742.205 15.244.205zM2.56 11.96a3.06 3.06 0 001.7 2.764 12.123 12.123 0 01-.11-5.47 3.064 3.064 0 00-1.59 2.706z" transform="translate(.75 3)"/><path d="M23.959 8.167l1.925-.542.105.38c.403 1.158.61 2.455.61 3.768 0 4.298-2.357 8.24-6.006 10.195-.87.475-1.82.826-2.794 1.037l-.425-1.954a8.524 8.524 0 002.267-.842c3.006-1.611 4.959-4.875 4.959-8.436 0-1.095-.172-2.17-.518-3.168l-.123-.438z" transform="translate(.75 3)"/><path d="M10.457 4.716l1.931-.52c.072.268.328.754.853 1.26.927.892 2.342 1.44 4.407 1.44H25v2h-7.352c-2.573 0-4.487-.742-5.794-2-.816-.784-1.238-1.588-1.397-2.18zm7.588 9.606l1.425 1.405a6.003 6.003 0 01-4.288 1.798 6.003 6.003 0 01-4.287-1.798l1.425-1.405a4.003 4.003 0 002.862 1.203 4.003 4.003 0 002.863-1.203z" transform="translate(.75 3)"/><path d="M24.922 8.896v-2c2.774 0 5.006 2.264 5.006 5.064 0 2.8-2.232 5.065-5.006 5.065v-2c1.663 0 3.006-1.363 3.006-3.065s-1.343-3.064-3.006-3.064z" transform="translate(.75 3)"/></g></symbol><symbol id="icon-contract-32" viewBox="0 0 32 32"><g fill="currentColor" fill-rule="evenodd"><path fill-rule="nonzero" d="M2 24V2h16v5h2V0H0v26h20v-5h-2v3z" transform="translate(5 3)"/><path fill-rule="nonzero" d="M5 8h10V6H5zm0 4h10v-2H5zm0 4h7v-2H5zm3 6h7v-2H8z" transform="translate(5 3)"/><path d="M21.378 10.214l-8.364 8.364v1.414h1.414l8.364-8.364-1.414-1.414zm-6.121 11.778h-4.243V17.75L21.378 7.386l4.243 4.242-10.364 10.364z" fill-rule="nonzero" transform="translate(5 3)"/><path d="M19.914 10.5l2.829 2.828-1.415 1.414-2.828-2.828z" transform="translate(5 3)"/></g></symbol><symbol id="icon-cross-32" viewBox="0 0 32 32"><path d="M14.286.3l-6.28 6.281L1.725.301.311 1.713l6.281 6.282L.3 14.29l1.414 1.414L8.006 9.41l6.28 6.282 1.414-1.414-6.281-6.282L15.7 1.714z" transform="translate(8 8)" fill="currentColor" fill-rule="evenodd"/></symbol><symbol id="icon-cross-enclosed-32" viewBox="0 0 32 32"><g fill="currentColor" fill-rule="evenodd"><path d="M13 24C6.935 24 2 19.065 2 13S6.935 2 13 2s11 4.935 11 11-4.935 11-11 11m0-24C5.832 0 0 5.832 0 13s5.832 13 13 13 13-5.832 13-13S20.168 0 13 0" transform="translate(3 3)"/><path d="M17.364 7.222L13 11.586 8.636 7.222 7.222 8.636 11.586 13l-4.375 4.375 1.414 1.414L13 14.414l4.364 4.364 1.414-1.414L14.414 13l4.364-4.364z" transform="translate(3 3)"/></g></symbol><symbol id="icon-document-32" viewBox="0 0 32 32"><g fill="currentColor" fill-rule="evenodd"><path d="M0 0v26h20l-.007-20.914L14.915 0H0zm2 2h12.085l3.908 3.915L18 24H2V2z" transform="translate(6 3)"/><path d="M5 10h10V8H5zm0 4h10v-2H5zm0 4h10v-2H5z" transform="translate(6 3)"/></g></symbol><symbol id="icon-dog-32" viewBox="0 0 32 32"><g fill="currentColor" fill-rule="nonzero"><path d="M12.308 21.281l-.458 1.947c-1.88-.442-3.24-2.102-3.24-4.06A4.17 4.17 0 0112.779 15c.876 0 1.731.29 2.46.795l-1.137 1.645a2.353 2.353 0 00-1.323-.44 2.17 2.17 0 00-2.169 2.169c0 1.015.708 1.88 1.698 2.112zM7.97 25v2H2v-3.7c0-1.302.937-2.3 2.192-2.3H8v2H4.192c-.121 0-.192.076-.192.3V25h3.97zM2.156 5.016l-.134.685a2.82 2.82 0 00.396 1.808c.806 1.42 2.622 1.898 4.074 1.074l.987 1.74c-2.404 1.363-5.444.563-6.788-1.805a4.83 4.83 0 01-.642-3.14l.459-2.362H3.98A6.752 6.752 0 019.005.789c3.541 0 6.687 2.744 6.995 6.281v1.092c0 1.588-1.485 2.864-3.084 2.864-1.59 0-2.916-1.277-2.916-2.864V7h2v1.162c0 .465.414.864.916.864.556 0 1.084-.453 1.084-.864v-.363l.004-.64c-.211-2.397-2.474-4.37-4.999-4.37-1.5 0-2.884.692-3.765 1.836l-.3.39H2.156z" transform="translate(4 2)"/><path d="M5 12h2v10.91H5zm17.332 4.719h2a5.619 5.619 0 01-5.608 5.609v-2a3.619 3.619 0 003.608-3.61z" transform="translate(4 2)"/><path d="M17.723 21.327c0-4.088-1.945-7.9-5.164-10.357l1.213-1.59c3.708 2.829 5.951 7.226 5.951 11.947 0 1.774-.278 3.453-.834 5.01l-.237.663H7.866v-2h9.355c.334-1.149.502-2.376.502-3.673z" transform="translate(4 2)"/></g></symbol><symbol id="icon-ellipsis-enclosed-32" viewBox="0 0 32 32"><g fill="currentColor" fill-rule="evenodd"><path d="M13 24C6.935 24 2 19.065 2 13S6.935 2 13 2s11 4.935 11 11-4.935 11-11 11m0-24C5.832 0 0 5.832 0 13s5.832 13 13 13 13-5.832 13-13S20.168 0 13 0" transform="translate(3 3)"/><path d="M7.149 11c-1.157 0-1.967.835-1.967 1.909s.926 1.909 1.967 1.909S9 13.983 9 12.908C9 11.836 8.306 11 7.149 11m11.818 0C17.81 11 17 11.835 17 12.909s.926 1.909 1.967 1.909 1.851-.835 1.851-1.91c0-1.073-.694-1.908-1.85-1.908m-5.91.09c-1.157 0-1.967.836-1.967 1.91 0 1.074.926 1.909 1.967 1.909s1.851-.835 1.851-1.91c0-1.073-.694-1.908-1.851-1.908" transform="translate(3 3)"/></g></symbol><symbol id="icon-external-link-32" viewBox="0 0 32 32"><g fill="currentColor" fill-rule="evenodd"><path d="M15 0v2h4.598l-8.235 8.296 1.42 1.408L21 3.427V8h2V0z" transform="translate(4 5)"/><path d="M0 2v21h21V11h-2v10H2V4h10V2z" transform="translate(4 5)"/></g></symbol><symbol id="icon-facebook-32" viewBox="0 0 32 32"><g fill="currentColor" fill-rule="nonzero"><path d="M2 2v24h24V2H2zM0 0h28v28H0V0z" transform="translate(2 2)"/><path d="M12.012 22.984V14.97H10v-2.91h2.012V9.913c0-2.49 1.521-3.846 3.743-3.846 1.063 0 1.978.079 2.245.114v2.603h-1.54c-1.21 0-1.443.575-1.443 1.417v1.858h2.881l-.375 2.91h-2.506v8.015h-3.005z" transform="translate(2 2)"/></g></symbol><symbol id="icon-flag-32" viewBox="0 0 32 32"><path d="M15 13.613c-2.189.27-3.725-.325-5.468-1.005-1.958-.763-4.175-1.612-7.532-1.263V3.397c2.91-.596 4.78.184 6.758 1.014 1.808.76 3.678 1.543 6.242 1.276v7.926zm.789-10.074c-2.606.56-4.298-.15-6.257-.972C7.542 1.731 5.285.81 2 1.374V0H0v24h2V13.351c2.986-.355 4.848.356 6.806 1.12 1.53.597 3.099 1.21 5.13 1.21.695 0 1.445-.073 2.266-.242l.798-.165V3.278l-1.211.261z" transform="translate(8 4)" fill="currentColor" fill-rule="evenodd"/></symbol><symbol id="icon-gear-32" viewBox="0 0 32 32"><g fill="currentColor" fill-rule="evenodd"><path d="M13.002 15.28a2.133 2.133 0 01-2.131-2.132c0-1.175.956-2.13 2.131-2.13 1.175 0 2.131.955 2.131 2.13a2.133 2.133 0 01-2.131 2.131m0-6.262a4.135 4.135 0 00-4.131 4.131 4.135 4.135 0 004.131 4.131 4.135 4.135 0 004.131-4.13 4.135 4.135 0 00-4.131-4.132" transform="translate(3 2.9)"/><path d="M20.787 15.556a10.262 10.262 0 01-1.765 2.985l-.455.537 1.494 2.58-3.119 1.824-1.503-2.597-.715.159a7.575 7.575 0 01-1.722.199 7.116 7.116 0 01-1.696-.193l-.73-.183-1.515 2.615-3.118-1.823 1.51-2.61-.5-.54c-.867-.94-1.41-1.856-1.713-2.884l-.21-.718H2v-3.591h2.973l.244-.65a10.262 10.262 0 011.765-2.984l.454-.538-1.493-2.58L9.061 2.74l1.505 2.598.715-.16a7.477 7.477 0 011.721-.2c.603 0 1.19.068 1.696.195l.731.183 1.513-2.616 3.12 1.823-1.51 2.609.5.54c.865.94 1.41 1.857 1.712 2.885l.211.718h3.03v3.59H21.03l-.244.65zm5.217 1.35v-7.59h-3.567a8.935 8.935 0 00-1.428-2.397l1.781-3.076L16.218 0l-1.785 3.085a9.548 9.548 0 00-2.859.004L9.786-.001 3.214 3.844l1.797 3.104a12.37 12.37 0 00-1.4 2.369H0v7.59h3.566a8.946 8.946 0 001.428 2.398l-1.78 3.077 6.571 3.842 1.786-3.084a9.477 9.477 0 002.858-.005l1.788 3.089 6.572-3.842-1.797-3.105c.556-.74 1.03-1.542 1.4-2.37h3.611z" transform="translate(3 2.9)"/></g></symbol><symbol id="icon-globe-32" viewBox="0 0 32 32"><g fill="currentColor" fill-rule="nonzero"><path d="M5.303 17.654c-3.937-3.936-3.937-10.403 0-14.34L3.888 1.9c-4.717 4.718-4.717 12.45 0 17.169 4.718 4.718 12.451 4.718 17.17 0l-1.415-1.415c-3.937 3.937-10.403 3.937-14.34 0z" transform="translate(4 3)"/><path d="M21.78 21.295l1.403-1.426-4.154-4.085-1.402 1.426zM6.115 5.63l1.414-1.414L3.444.13 2.03 1.545z" transform="translate(4 3)"/><path d="M20.999 10.648A8.5 8.5 0 104 10.352a8.5 8.5 0 0017 .296zM6 10.387a6.5 6.5 0 1112.998.226A6.5 6.5 0 016 10.387zM11 27h2v-5h-2z" transform="translate(4 3)"/><path d="M16 27v-2H8v2z" transform="translate(4 3)"/></g></symbol><symbol id="icon-gravestone-32" viewBox="0 0 28 29"><path d="M15.836 10.28c3.899 1.803 6.253 4.04 6.947 6.72H26V9.727c0-2.54-1.94-4.758-6.02-6.639-2.235.95-3.944 2.295-4.888 3.54l-1.594-1.207c1.216-1.605 3.364-3.261 6.136-4.352l.388-.152.382.168C25.394 3.29 28 6.165 28 9.727V19h-5v10H7v-6H0V12.727C0 9.165 2.602 6.29 7.587 4.085l.404-.178.405.178c4.249 1.879 6.794 3.933 7.44 6.195zm-2.062.185c-.622-1.38-2.534-2.882-5.781-4.368C3.93 7.976 2 10.19 2 12.727V21h5v-2.273c0-3.361 2.32-6.111 6.774-8.262zM9 18.727V27h12v-8.273c0-2.537-1.933-4.75-6-6.63-4.067 1.88-6 4.093-6 6.63z" fill="currentColor" fill-rule="nonzero"/></symbol><symbol id="icon-growth-arrow-32" viewBox="0 0 32 32"><path fill="currentColor" d="M19.017 8v2h5.586l-7.586 7.586-5-5.001-8.707 8.708 1.414 1.414 7.293-7.293 5 5 9-9V17h2V8z" fill-rule="evenodd"/></symbol><symbol id="icon-guide-32" viewBox="0 0 32 32"><g fill="currentColor" fill-rule="evenodd"><path d="M12 24h2V0h-2z" transform="translate(3 3)"/><path d="M13 2v2.001h6.172L20.67 5.5 19.172 7H15v2h5l3.5-3.5L20 2zm0 8v2.001h8.172L22.67 13.5 21.172 15H15v2h7l3.5-3.5L22 10zm-2 2v-2H4.828L3.33 8.5 4.828 7H13V5H4L.5 8.5 4 12zM8 24h10v2H8z" transform="translate(3 3)"/></g></symbol><symbol id="icon-heart-32" viewBox="0 0 32 32"><path d="M22.508 10.89l-9.493 9.492-9.493-9.492c-1.996-1.997-1.996-5.37 0-7.368 1-.998 2.341-1.498 3.684-1.498 1.342 0 2.685.5 3.684 1.498l2.125 2.125 2.125-2.125c2-1.996 5.371-1.995 7.368 0 1.997 1.997 1.997 5.371 0 7.368m1.414-8.782c-2.81-2.81-7.385-2.812-10.196 0l-.71.711-.712-.71c-2.812-2.813-7.387-2.81-10.196 0-2.81 2.81-2.81 7.384 0 10.195L13.015 23.21l10.907-10.906a7.154 7.154 0 002.094-5.099 7.151 7.151 0 00-2.094-5.097" transform="translate(3 5)" fill="currentColor" fill-rule="evenodd"/></symbol><symbol id="icon-heartbeat-32" viewBox="0 0 32 32"><path d="M3.762 2.767A2.575 2.575 0 015.612 2c.704 0 1.361.272 1.85.767L9 4.327l1.54-1.56c.974-.99 2.722-.99 3.698 0 1.013 1.027 1.013 2.762 0 3.789L9 11.868 3.762 6.556c-1.013-1.027-1.013-2.762 0-3.79zM9 14.715l6.662-6.755c1.794-1.82 1.794-4.778 0-6.597A4.559 4.559 0 0012.39 0a4.557 4.557 0 00-3.273 1.363L9 1.48l-.115-.117A4.561 4.561 0 005.611 0a4.559 4.559 0 00-3.273 1.363C.544 3.182.544 6.14 2.338 7.96L9 14.715zM26.614 17l-4.557-7.895-7.934 11.907-2.952-5.899L7.47 20H0v2h8.466l2.357-3.113 3.054 6.101 8.058-12.093L25.46 19h2.59v-2z" transform="translate(2 3)" fill="currentColor" fill-rule="evenodd"/></symbol><symbol id="icon-house-32" viewBox="0 0 32 32"><g fill="currentColor" fill-rule="evenodd"><path d="M13.004.99L0 10.931v14.318h2v-13.33l11.004-8.412L24 11.919v13.33h2V10.931z" transform="translate(3 2.75)"/><path d="M9 15.259v10h2v-8h4v8h2v-10z" transform="translate(3 2.75)"/></g></symbol><symbol id="icon-house-sun-32" viewBox="0 0 32 32"><g fill="currentColor" fill-rule="evenodd"><path d="M21 0h-2c0 3.859 3.14 7 7 7V5c-2.804 0-5-2.196-5-5zm-5.313 8.86l1.41 1.418 3.086-3.069-1.41-1.418zM12.957 3H17V1h-4.043zM23 13h2V9h-2zM0 14.95V26h2V15.95l7.684-5.772L17 15.934V26h2V14.964L9.712 7.657z" transform="translate(3 3)"/><path d="M6 26h2v-6h3v6h2v-8H6z" transform="translate(3 3)"/></g></symbol><symbol id="icon-id-card-32" viewBox="0 0 32 32"><g fill="currentColor" fill-rule="nonzero"><path d="M24 14.6c0 .744-.657 1.4-1.4 1.4H3.203C2.531 16 2 15.312 2 14.6V3.4C2 2.628 2.628 2 3.4 2h19.2c.772 0 1.4.628 1.4 1.4v11.2zM3.4 0A3.404 3.404 0 000 3.4v11.2c0 1.533 1.531 3.38 3.203 3.38L22.6 18c1.806 0 3.4-1.672 3.4-3.4V3.4C26 1.526 24.475 0 22.6 0H3.4z" transform="translate(3 7)"/><path d="M15 8h7V6h-7zm0 4h7v-2h-7zM9 9.493A1.498 1.498 0 019 6.5a1.498 1.498 0 010 2.993M9 4.5a3.5 3.5 0 00-3.496 3.497A3.5 3.5 0 009 11.493a3.5 3.5 0 003.496-3.496A3.5 3.5 0 009 4.5" transform="translate(3 7)"/><path d="M15 16h-2a4 4 0 10-8 0H3a6 6 0 1112 0z" transform="translate(3 7)"/></g></symbol><symbol id="icon-info-enclosed-32" viewBox="0 0 32 32"><g fill="currentColor" fill-rule="evenodd"><path d="M12 20h2v-9h-2zm1.017-13.938a1.5 1.5 0 100 3 1.5 1.5 0 000-3" transform="translate(3 3)"/><path d="M13 24C6.935 24 2 19.065 2 13S6.935 2 13 2s11 4.935 11 11-4.935 11-11 11m0-24C5.832 0 0 5.832 0 13s5.832 13 13 13 13-5.832 13-13S20.168 0 13 0" transform="translate(3 3)"/></g></symbol><symbol id="icon-instagram-32" viewBox="0 0 32 32"><g fill="currentColor" fill-rule="evenodd"><path d="M2 2v24h24V2H2zM0 0h28v28H0V0z" fill-rule="nonzero" transform="translate(2 2)"/><path d="M5.332 7.997a2.666 2.666 0 105.331.001 2.666 2.666 0 00-5.331 0z" transform="translate(8 8)"/><path d="M11.286 3.715a1 1 0 112-.001 1 1 0 01-2 0zM3.892 8a4.108 4.108 0 118.216 0 4.108 4.108 0 01-8.216 0zM15.58 2.76a3.91 3.91 0 00-.923-1.417A3.92 3.92 0 0013.24.42c-.509-.198-1.09-.333-1.942-.372C10.445.009 10.173 0 8 0S5.555.01 4.702.048C3.85.087 3.269.222 2.76.42a3.92 3.92 0 00-1.417.923c-.445.444-.718.89-.923 1.417-.198.508-.333 1.09-.372 1.942C.009 5.555 0 5.827 0 8s.01 2.445.048 3.298c.039.852.174 1.433.372 1.942.205.526.478.972.923 1.417.445.445.89.718 1.417.923.509.198 1.09.333 1.942.371.853.04 1.125.048 3.298.048s2.445-.009 3.298-.048c.852-.038 1.433-.173 1.942-.371a3.925 3.925 0 001.417-.923 3.92 3.92 0 00.923-1.417c.198-.509.333-1.09.372-1.942.039-.853.048-1.125.048-3.298s-.01-2.445-.048-3.298c-.039-.852-.174-1.434-.372-1.942z" transform="translate(8 8)"/></g></symbol><symbol id="icon-institution-32" viewBox="0 0 32 32"><path d="M4 17.1h2v-10H4zm-4 6h26v-2H0zm2-3h22v-2H2zM12.99 0L4.798 4.114H1v2h4.273l7.738-3.887 8.107 3.887H25v-2h-3.428zM8 17.1h2v-10H8zm4 0h2v-10h-2zm4 0h2v-10h-2zm4 0h2v-10h-2z" transform="translate(3 3.9)" fill="currentColor" fill-rule="evenodd"/></symbol><symbol id="icon-letter-32" viewBox="0 0 32 32"><g fill="currentColor" fill-rule="nonzero"><path d="M2 18h22V2H2v16zM26 0v20H0V0h26z" transform="translate(3 6)"/><path d="M13.038 10.962L1.678.587.322 2.06l12.72 11.625L25.679 2.057 24.321.59zm11.695 6.358l-5.5-6-1.466 1.36 5.5 6zm-22 1.36l5.5-6-1.466-1.36-5.5 6z" transform="translate(3 6)"/></g></symbol><symbol id="icon-linkedin-32" viewBox="0 0 32 32"><g fill="currentColor" fill-rule="evenodd"><path d="M2 2v24h24V2H2zM0 0h28v28H0V0z" fill-rule="nonzero" transform="translate(2 2)"/><path d="M2.493 0a1.733 1.733 0 100 3.466 1.733 1.733 0 000-3.466zM6 4.75v9.621h2.99v-4.76c0-1.254.237-2.47 1.793-2.47 1.532 0 1.554 1.435 1.554 2.551v4.679h2.987V9.094c0-2.591-.56-4.584-3.585-4.584-1.454 0-2.43.798-2.83 1.555h-.04V4.75H6zm-5 9.621h3V4.75H1z" transform="translate(8 8.25)"/></g></symbol><symbol id="icon-list-32" viewBox="0 0 32 32"><g transform="translate(4 7)" fill="currentColor" fill-rule="evenodd"><path fill-rule="nonzero" d="M7 3h16V1H7zm0 7h16V8H7zm0 7h16v-2H7z"/><circle cx="2" cy="2" r="1.5"/><circle cx="2" cy="9" r="1.5"/><circle cx="2" cy="16" r="1.5"/></g></symbol><symbol id="icon-login-bankid-32" viewBox="0 0 32 32"><path d="M28.19 9.016c-.015.569-.099 1.13-.197 1.687a12.161 12.161 0 01-.662 2.344 11.224 11.224 0 01-1.58 2.79 10.604 10.604 0 01-3.207 2.76c-.852.477-1.746.828-2.684 1.065a9.62 9.62 0 01-1.359.252c-.243.023-.488.055-.733.068-.316.016-.634.021-.951.025-.36.003-.72 0-1.08 0H15.6l.904-5.994.38-.022a5.524 5.524 0 001.54-.313 3.964 3.964 0 001.644-1.101c.364-.411.626-.888.801-1.416a6.187 6.187 0 00.279-1.528c.03-.453 0-.898-.117-1.335-.184-.687-.577-1.205-1.185-1.543a3.591 3.591 0 00-1.102-.382 6.398 6.398 0 00-1.172-.098h-1.66c-.233 0-.458-.042-.672-.14a1.177 1.177 0 01-.404-.298c-.202-.23-.192-.547-.024-.821a1.72 1.72 0 01.457-.47c.192-.143.37-.3.523-.489.184-.225.313-.48.318-.779a1.087 1.087 0 00-.287-.774c-.226-.246-.513-.37-.823-.443a2.857 2.857 0 00-.947-.068c-.577.055-1.095.26-1.51.7-.195.206-.332.448-.354.747a1.03 1.03 0 00.096.493 1.5 1.5 0 00.468.568.92.92 0 01.283.335c.114.258.047.492-.095.713-.128.197-.3.344-.5.457a1.89 1.89 0 01-.796.251c-.124.01-.248.016-.373.018-.31.002-.621 0-.931 0h-.138c.011-.098.018-.183.03-.267.105-.688.212-1.377.316-2.064l.433-2.871c.05-.323.102-.646.15-.967.005-.036.005-.072.008-.106h7.82c.03.004.06.013.09.013.388.008.776.039 1.163.08.435.045.869.107 1.3.193.9.178 1.775.442 2.61.846.89.432 1.688.996 2.353 1.756.45.514.808 1.09 1.084 1.722.207.472.361.962.465 1.468.086.42.158.842.167 1.273.001.079.013.157.022.235V8.77c-.009.082-.021.163-.023.245zM3.127 6.78h.107c.372 0 .744.003 1.115 0 .388-.002.768-.07 1.124-.237.386-.178.708-.436.923-.823.283-.507.213-1.033-.17-1.441-.072-.075-.155-.14-.23-.21-.06-.055-.121-.108-.173-.17-.213-.262-.212-.54.003-.802.211-.256.482-.415.788-.51.46-.145.926-.132 1.389-.013.15.038.292.106.416.209a.625.625 0 01.132.78c-.131.238-.328.41-.54.567a2.344 2.344 0 00-.542.534 1.306 1.306 0 00-.257.85c.015.245.108.458.261.64.273.325.627.5 1.027.582.092.018.187.027.281.028.394.003.788.001 1.182.001h.135c-.018.142-.034.27-.053.397l-.197 1.284c-.084.54-.166 1.08-.248 1.622l-.257 1.704-.239 1.563c-.056.366-.124.73-.162 1.098-.077.748-.215 1.487-.322 2.23-.103.721-.212 1.44-.32 2.16-.055.366-.108.733-.164 1.098-.004.026-.013.052-.02.08H1.137l1.99-13.22M2.175 24.76c.173.023.6.018.731-.011.346-.077.562-.293.613-.666.044-.311-.102-.536-.4-.591-.136-.025-.279-.024-.418-.029-.109-.004-.218 0-.332 0l-.194 1.298m-.323 2.188c.024.005.039.01.053.01.208 0 .417.005.625-.004a.99.99 0 00.277-.057.718.718 0 00.396-.315c.074-.124.107-.26.125-.402.027-.217-.072-.423-.235-.509a.801.801 0 00-.37-.099h-.569c-.033 0-.065.007-.1.011-.07.46-.136.91-.202 1.365M0 27.64c.014-.04.034-.078.04-.119.08-.532.158-1.066.237-1.599l.178-1.178.199-1.33.105-.735c.035-.002.067-.008.1-.008.972-.001 1.947-.006 2.92.002.323.004.64.07.912.272.216.16.34.376.362.653.041.498-.151.879-.54 1.157-.075.053-.158.094-.236.14l-.11.065.22.115c.217.117.399.272.51.504.09.188.112.389.095.598a1.73 1.73 0 01-.2.696 1.64 1.64 0 01-1.105.834c-.146.034-.299.05-.449.05-1.079.004-2.158.002-3.238.002v-.119m7.532-.657c-.215.137-.452.246-.729.241-.185-.003-.357-.155-.328-.402a.482.482 0 01.272-.395c.115-.059.237-.103.357-.148.089-.033.181-.056.271-.087.088-.032.174-.07.275-.11l-.118.901m1.626-.265c-.105-.026-.156-.09-.156-.201-.001-.08 0-.159.012-.237.06-.428.135-.854.184-1.284a.999.999 0 00-.208-.775 1.16 1.16 0 00-.505-.346c-.341-.131-.697-.139-1.053-.116-.587.038-1.105.275-1.582.622-.038.027-.05.062-.056.108-.04.284-.085.568-.128.851l-.03.246.082-.048c.086-.058.17-.117.257-.173.295-.188.6-.354.944-.418.186-.035.374-.05.562-.01.182.037.273.14.288.326.007.078-.01.14-.09.17-.17.065-.337.139-.51.193-.317.1-.64.184-.958.283-.337.107-.614.302-.787.634a.952.952 0 00-.092.654c.077.348.325.503.633.584.058.015.116.033.174.05h.477c.259-.051.518-.1.759-.216.099-.047.195-.1.298-.153.082.13.19.231.333.28.095.033.196.051.294.076l.044.013h.546c.055-.011.088-.042.11-.1.1-.256.206-.51.308-.764.028-.067.054-.136.084-.21-.087-.014-.161-.021-.234-.04m16.664-.796c-.174.329-.455.509-.803.58-.266.056-.534.033-.82.034.126-.883.26-1.755.39-2.644.297-.004.587-.03.866.057.352.11.549.371.598.742.057.435-.03.85-.231 1.231m1.83-1.885a1.86 1.86 0 00-1.042-1.153 2.471 2.471 0 00-1.016-.209c-.81-.002-1.622 0-2.432 0h-.113l-.755 5.085h2.714a3 3 0 00.697-.074c.47-.112.877-.34 1.221-.69.295-.299.512-.653.66-1.05.23-.628.284-1.266.066-1.909M13.75 27.755c.008-.029.016-.054.02-.08l.119-.794c.081-.553.162-1.106.245-1.659.034-.226.051-.453.006-.68a.9.9 0 00-.479-.666c-.28-.145-.579-.144-.877-.107-.29.035-.548.168-.782.35l-.23.176.06-.48h-1.496l-.584 3.939h1.497c.007-.036.015-.066.02-.097l.17-1.144c.046-.316.091-.63.14-.946.007-.046.012-.098.037-.134.14-.199.313-.356.556-.393.213-.032.428.064.416.362a3.23 3.23 0 01-.037.351c-.065.449-.132.896-.198 1.343-.031.217-.063.435-.097.659h1.494m1.521-5.078c-.008.037-.015.067-.02.097l-.213 1.447-.308 2.066c-.058.388-.12.777-.174 1.167-.013.097-.05.196-.027.301h1.484l.27-1.797c.024.031.037.045.046.06.344.553.688 1.105 1.03 1.658.036.06.074.086.145.086.563-.004 1.128-.003 1.693-.003.025 0 .05-.002.099-.004L17.833 25.5c.61-.562 1.21-1.113 1.833-1.683-.065-.004-.101-.007-.137-.007-.496 0-.992.01-1.489-.005a.526.526 0 00-.418.174c-.32.319-.648.627-.975.938-.07.068-.144.134-.217.2.093-.818.224-1.622.335-2.438H15.27m5.245.001c-.253 1.699-.502 3.385-.752 5.073h1.72c.251-1.691.5-3.377.753-5.073h-1.721z" transform="translate(2 2)" fill="currentColor" fill-rule="evenodd"/></symbol><symbol id="icon-login-device-32" viewBox="0 0 32 32"><g fill="currentColor" fill-rule="evenodd"><path d="M14.869.924l.082-.92.082.006.08.008.081.01.08.012.08.015.079.016.078.02.078.02.077.023.076.025.075.026.074.03.074.03.073.032.071.035.071.036.07.038.07.04.067.042.067.043.065.045.065.047.064.048.062.05.061.051.06.053.059.055.058.056.056.057.055.06.054.06.052.061.051.064.05.064.048.066.047.067.046.069.044.07.042.07.041.072.04.073.038.075.036.075.035.077.033.077.031.08.03.079.028.08.026.082.024.083.023.083.02.085.02.085.017.085.015.087.013.088.011.087.01.089.007.089.005.09.003.09.001.082v16.966l-.001.083-.003.09-.005.09-.007.088-.01.089-.01.087-.014.088-.015.086-.017.086-.02.085-.02.085-.023.083-.024.083-.026.081-.028.08-.03.08-.031.08-.033.077-.035.077-.036.075-.038.075-.04.073-.04.072-.043.071-.044.07-.046.068-.047.067-.048.066-.05.064-.051.064-.052.061-.054.06-.055.06-.057.057-.057.056-.059.055-.06.053-.061.051-.062.05-.064.048-.065.047-.065.045-.067.043-.068.042-.069.04-.07.038-.07.036-.072.035-.073.032-.074.03-.074.03-.075.026-.076.025-.077.023-.078.02-.078.02-.08.016-.078.015-.08.012-.081.01-.081.008-.082.006-.082.003-.075.001H3.206l-.075-.001-.082-.003-.081-.006-.082-.008-.08-.01-.08-.012-.08-.015-.079-.016-.078-.02-.078-.02-.077-.023-.076-.025-.075-.026-.074-.03-.074-.03-.073-.032-.072-.035-.07-.036-.07-.038-.069-.04-.068-.042-.067-.043-.065-.045-.065-.047-.064-.048-.062-.05-.061-.051-.06-.053-.059-.055-.057-.056-.057-.057-.055-.06-.054-.06-.052-.062-.051-.063-.05-.064-.048-.066-.047-.067-.046-.068-.044-.07-.042-.071-.041-.072-.04-.073-.038-.075-.036-.075-.035-.077-.033-.078-.031-.078-.03-.08-.028-.08-.026-.082-.024-.083-.023-.084-.02-.084-.02-.085-.017-.086-.015-.086-.013-.087-.011-.088-.01-.089-.007-.089-.005-.09-.003-.09L0 20.484V3.517l.001-.083.003-.09.005-.09.007-.088.01-.089.01-.088.014-.087.015-.086.017-.086.02-.085.02-.085.023-.083.024-.083.026-.081.028-.08.03-.08.031-.08.033-.077.035-.077.036-.075.038-.075.04-.073.041-.072.042-.07.044-.07.046-.069.047-.067.048-.066.05-.064.051-.064.052-.061.054-.06.055-.06.056-.057L1.11.86l.06-.055.06-.053.06-.051.062-.05.064-.048.065-.047.065-.045.067-.043.068-.042.069-.04.07-.038.07-.036.072-.035.073-.032.074-.03.074-.03.075-.026.076-.025.077-.023.078-.02.078-.02.079-.016.08-.015.08-.012.08-.01.082-.008.081-.006.082-.003L3.206 0h11.588l.075.001v.923zM2.949 2.002l-.05.004-.05.007-.05.01-.048.012-.047.015-.046.017-.045.02-.044.022-.043.024-.042.027-.041.03-.04.03-.038.034-.036.035-.035.037-.034.039-.031.04-.044.064-.04.068-.036.07-.03.073-.026.076-.021.077-.016.081-.01.083L2 3.083V20.88l.001.067.007.085.012.082.018.08.023.077.027.075.033.072.036.07.042.065.045.063.033.04.034.038.036.036.037.034.04.032.039.03.042.028.042.026.044.023.044.021.046.019.046.016.048.013.049.011.05.009.05.006.052.002H14.99l.06-.002.051-.004.05-.007.05-.01.048-.012.047-.015.046-.017.045-.02.044-.022.043-.025.042-.026.041-.03.04-.03.038-.034.036-.035.035-.037.034-.039.032-.04.044-.064.04-.068.035-.07.03-.073.026-.075.021-.079.016-.08.01-.083.006-.086V3.12l-.001-.067-.007-.085-.012-.082-.018-.08-.023-.077-.027-.075-.032-.072-.037-.07-.042-.065-.03-.043-.031-.04-.034-.04-.035-.036-.036-.035-.038-.034-.04-.03-.04-.03-.043-.027-.043-.024-.044-.022-.045-.02-.046-.017-.047-.015-.048-.012-.05-.01-.05-.007-.05-.004L14.99 2H3.01l-.06.002z" transform="translate(7 4)"/><path d="M8 12a2 2 0 11-3.999.001A2 2 0 018 12m4.121 2.05a2 2 0 11-.14-3.996 2 2 0 01.14 3.996zM8 17a2 2 0 11-3.999.001A2 2 0 018 17m6 0a2 2 0 11-3.999.001A2 2 0 0114 17M4 7h10V5H4z" transform="translate(7 4)"/></g></symbol><symbol id="icon-login-pincode-32" viewBox="0 0 32 32"><g fill="currentColor" fill-rule="evenodd"><path d="M23 11V0H0v11h23zm-2-2V2H2v7h19z" transform="translate(2 9)"/><path d="M29.482 9.814l-8.826 8.826-4.403-4.404 1.515-1.515 2.888 2.888 7.31-7.31zM7 5.5a1.5 1.5 0 11-3 0 1.5 1.5 0 013 0M9.5 7a1.5 1.5 0 110-3 1.5 1.5 0 010 3zM15 5.5a1.5 1.5 0 11-3 0 1.5 1.5 0 013 0m4 0a1.5 1.5 0 11-3 0 1.5 1.5 0 013 0" transform="translate(2 9)"/></g></symbol><symbol id="icon-logout-32" viewBox="0 0 32 32"><g fill="currentColor" fill-rule="evenodd"><path d="M20.155 7.4l2.961 3.013H12.5v2h10.617l-2.96 3.012 1.425 1.403 5.32-5.415-5.319-5.415z" transform="translate(3.5 4.6)"/><path d="M11.387 20.825a9.32 9.32 0 01-6.641-2.752c-3.663-3.673-3.663-9.648 0-13.32A9.316 9.316 0 0111.387 2c2.512 0 4.87.977 6.641 2.752l1.416-1.412A11.303 11.303 0 0011.387 0 11.303 11.303 0 003.33 3.34c-4.44 4.451-4.44 11.694 0 16.145a11.303 11.303 0 008.057 3.34c3.047 0 5.908-1.186 8.057-3.34l-1.416-1.412a9.32 9.32 0 01-6.641 2.752" transform="translate(3.5 4.6)"/></g></symbol><symbol id="icon-menu-32" viewBox="0 0 32 32"><path d="M0 3h18V.999H0zm0 6h18V7H0zm0 6h18v-2H0z" transform="translate(7 8)" fill="currentColor" fill-rule="evenodd"/></symbol><symbol id="icon-menu-envelope-32" viewBox="0 0 32 32"><g fill="currentColor" fill-rule="nonzero"><path d="M2 18h22V2H2v16zM26 0v20H0V0h26z" transform="translate(3 6)"/><path d="M13.038 10.962L1.678.587.322 2.06l12.72 11.625L25.679 2.057 24.321.59zm11.695 6.358l-5.5-6-1.466 1.36 5.5 6zm-22 1.36l5.5-6-1.466-1.36-5.5 6z" transform="translate(3 6)"/></g></symbol><symbol id="icon-mobile-phone-32" viewBox="0 0 32 32"><defs><path d="M15 0a3 3 0 013 3v22a3 3 0 01-3 3H3a3 3 0 01-3-3V3a3 3 0 013-3h12zm1 21H2v4a1 1 0 001 1h12a1 1 0 001-1v-4zm-7 1a1.5 1.5 0 110 3 1.5 1.5 0 010-3zM2 6v13h14V6H2zm0-2h14V3a1 1 0 00-1-1H3a1 1 0 00-1 1v1z" id="a"/></defs><g fill="none" fill-rule="evenodd"><path d="M0 0h32v32H0z"/><use fill="currentColor" fill-rule="nonzero" xmlns:xlink="http://www.w3.org/1999/xlink" xlink:href="#a" transform="translate(7 2)"/></g></symbol><symbol id="icon-navigation-accounts-32" viewBox="0 0 32 32"><path d="M8 20V9.989L25 10l-.148-.011c.59.089 1.148.614 1.148 1.011v9c0 .448-.552 1-1 1H3c-.448 0-1-.552-1-1V3c0-.448.552-1 1-1h5c.448 0 1 .552 1 1v3h14c.578 0 .95.339 1.003 1.071L24 8l2 .281V7c-.13-1.86-1.382-3-3-3H11V3c0-1.552-1.448-3-3-3H3C1.448 0 0 1.448 0 3v17c0 1.552 1.448 3 3 3h22c1.552 0 3-1.448 3-3v-9c0-1.486-1.406-2.719-2.852-2.989L24.036 8H6v12c0 .499-.516 1-1 1h3v-1z" transform="translate(2 4)" fill="currentColor" fill-rule="nonzero"/></symbol><symbol id="icon-navigation-bank-32" viewBox="0 0 32 32"><path d="M4 17.1h2v-10H4zm-4 6h26v-2H0zm2-3h22v-2H2zM12.99 0L4.798 4.114H1v2h4.273l7.738-3.887 8.107 3.887H25v-2h-3.428zM8 17.1h2v-10H8zm4 0h2v-10h-2zm4 0h2v-10h-2zm4 0h2v-10h-2z" transform="translate(3 3.9)" fill="currentColor" fill-rule="evenodd"/></symbol><symbol id="icon-navigation-card-32" viewBox="0 0 32 32"><g fill="currentColor" fill-rule="nonzero"><path d="M2 16V3c0-.448.552-1 1-1h22c.448 0 1 .552 1 1v13c0 .448-.552 1-1 1H3c-.448 0-1-.552-1-1zm23 3c1.552 0 3-1.448 3-3V3c0-1.552-1.448-3-3-3H3C1.448 0 0 1.448 0 3v13c0 1.552 1.448 3 3 3h22z" transform="translate(2 6)"/><path d="M2 4v2h24V4zm8 7V9H4v2z" transform="translate(2 6)"/></g></symbol><symbol id="icon-navigation-filetransfer-32" viewBox="0 0 32 32"><g fill="currentColor" fill-rule="evenodd"><path d="M12.974 7l3.197 3.198-6.125 6.579 1.154 1.154H7v-4.2l1.188 1.187 4.187-4.387-1.44-1.389-2.772 2.923L5 8.903v11.028h11.026l-3.196-3.197 6.125-6.579L17.801 9h4.2v4.201l-1.207-1.207-4.294 4.6 1.474 1.35 2.882-3.059L24 18.03V7z" transform="translate(5 3)"/><path d="M14.414 0L0 .001V26h19v-5h-2v3H2V2.002L13.584 2l2.852 2.813 1.415-1.414z" transform="translate(5 3)"/></g></symbol><symbol id="icon-navigation-globe-32" viewBox="0 0 32 32"><g fill="currentColor" fill-rule="nonzero"><path d="M5.328 17.86c-3.937-3.938-3.937-10.404 0-14.34L3.913 2.104c-4.717 4.718-4.717 12.45 0 17.169 4.718 4.718 12.451 4.718 17.17 0l-1.415-1.415c-3.937 3.937-10.403 3.937-14.34 0z" transform="translate(4 3)"/><path d="M21.78 21.295l1.403-1.426-4.154-4.085-1.402 1.426zM6.115 5.63l1.414-1.414L3.444.13 2.03 1.545z" transform="translate(4 3)"/><path d="M20.999 10.648A8.5 8.5 0 104 10.352a8.5 8.5 0 0017 .296zM6 10.387a6.5 6.5 0 1112.998.226A6.5 6.5 0 016 10.387zM11 27h2v-5h-2z" transform="translate(4 3)"/><path d="M16 27v-2H8v2z" transform="translate(4 3)"/></g></symbol><symbol id="icon-navigation-home-32" viewBox="0 0 32 32"><g fill="currentColor" fill-rule="evenodd"><path d="M13.004.99L0 10.931v14.318h2v-13.33l11.004-8.412L24 11.919v13.33h2V10.931z" transform="translate(3 2.75)"/><path d="M9 15.259v10h2v-8h4v8h2v-10z" transform="translate(3 2.75)"/></g></symbol><symbol id="icon-navigation-mortgage-32" viewBox="0 0 32 32"><g fill="currentColor" fill-rule="nonzero"><path d="M24.39 13.262L21.754.725.983 5.145 3.704 17.68l10.166-2.214-.425-1.954-8.205 1.81-1.86-8.643 16.834-3.55 1.843 8.578-3.267.684.41 1.958z" transform="translate(2 1)"/><path d="M20.5 13.25a3.75 3.75 0 10-7.5 0 3.75 3.75 0 007.5 0zm-5.5 0a1.75 1.75 0 113.5 0 1.75 1.75 0 01-3.5 0zm10.5 7a3.25 3.25 0 10-6.5 0 3.25 3.25 0 006.5 0zm-4.5 0a1.25 1.25 0 112.5 0 1.25 1.25 0 01-2.5 0zm-3 2.938l-7-5.456-7 5.456V29h2v-4.73l5-3.997 5 3.997V29h2z" transform="translate(2 1)"/><path d="M10 29h2v-4h-2z" transform="translate(2 1)"/></g></symbol><symbol id="icon-navigation-payment-32" viewBox="0 0 32 32"><g fill="currentColor" fill-rule="evenodd"><path d="M29.482 18.814l-8.826 8.826-4.403-4.404 1.515-1.515 2.888 2.888 7.31-7.31z" transform="translate(1 2)"/><path fill-rule="nonzero" d="M22.791.46L9.071 3.127l.382 1.964 11.836-2.263.984 4.35 1.95-.444z" transform="translate(1 2)"/><path d="M3.336 13.135l1.987-8.796L23.214 8l-1.91 8.786s-8.45-1.908-9.459-2.112l-.396 1.96c.99.2 11.342 2.55 11.342 2.55l2.79-12.71-21.79-4.492L.918 14.656l5.268 1.141.423-1.954-3.273-.708zM13.5 23A3.25 3.25 0 107 23a3.25 3.25 0 006.5 0zM9 23a1.25 1.25 0 112.5 0A1.25 1.25 0 019 23z" fill-rule="nonzero" transform="translate(1 2)"/><path d="M12.5 14.25a3.75 3.75 0 10-7.5 0 3.75 3.75 0 007.5 0zm-5.5 0a1.75 1.75 0 113.5 0 1.75 1.75 0 01-3.5 0z" fill-rule="nonzero" transform="translate(1 2)"/></g></symbol><symbol id="icon-navigation-pension-32" viewBox="0 0 32 32"><path d="M15.004 0L9.812 9h10.385l-5.193-9zm0 4.002L16.734 7h-3.459l1.729-2.998zM9.235 10l-4.038 7h19.615l-4.038-7H9.235zm1.155 2h9.228l1.731 3H8.66l1.73-3zm-5.77 6L.58 25.003 29.428 25l-4.039-7H4.62zm1.154 2h18.459l1.732 3-21.922.003L5.774 20z" transform="translate(1 3)" fill="currentColor" fill-rule="evenodd"/></symbol><symbol id="icon-navigation-phone-32" viewBox="0 0 32 32"><g fill="currentColor" fill-rule="evenodd"><path d="M2 3.319C2 2.628 2.625 2 3.308 2h11.384C15.375 2 16 2.628 16 3.319V24.68c0 .691-.624 1.319-1.308 1.319H3.308A1.31 1.31 0 012 24.681V3.32zM3.308 28h11.384C16.482 28 18 26.474 18 24.681V3.32C18 1.525 16.482 0 14.692 0H3.308C1.518 0 0 1.525 0 3.319V24.68A3.31 3.31 0 003.308 28z" fill-rule="nonzero" transform="translate(7 2)"/><path fill-rule="nonzero" d="M16 8V6H2v2zm0 13v-2H2v2z" transform="translate(7 2)"/><path d="M9 22a1.5 1.5 0 110 3 1.5 1.5 0 010-3" transform="translate(7 2)"/></g></symbol><symbol id="icon-navigation-piggybank-32" viewBox="0 0 32 32"><g fill="currentColor" fill-rule="nonzero"><path d="M2.753 6.845c-.476-.476-.476-1.33.002-1.809L1.339 3.624C.083 4.884.083 7 1.34 8.26c1.26 1.257 3.136 1.116 4.393-.142l-1.44-1.272c-.477.477-1.061.477-1.54 0z" transform="translate(1 5)"/><path d="M21 17.37V21h-2v-3h-8.01v3H9v-3.63C6.901 16.366 5 13.843 5 11c0-3.16 2.859-6.03 5.99-6h6.499c.035-.078.063-.987 1.012-2C19.45 1.987 19.973 1.862 21 1.862v3.762c2 .625 2.906 2.157 3.154 4.376H27v2h-2.932C24 15.78 22.399 16.683 21 17.37zM28 14h1V8h-3.233C25.478 6.442 24.323 5 23 4.437V0c-2.76 0-3.82 0-5.021 1-1.083.901-1.386 1.479-1.618 2H11c-.909.013-1.96.2-2.789.528C5.24 4.708 3 7.708 3 11c0 3.593 1.768 6.573 4 7.535V23h6v-3h4v3h6v-4.465c2-.963 3.06-3.018 3.062-4.535H28z" transform="translate(1 5)"/><path d="M11.033 6.924v2H17v-2z" transform="translate(1 5)"/></g></symbol><symbol id="icon-navigation-transfer-32" viewBox="0 0 32 32"><path d="M19 23v4.204L29.519 18 19 8.796V13H9v1.83L3.52 10 9 5.23V7h9V5h-7V.796L.481 10 11 19.204V15h10v-1.821L26.473 18 21 22.802V21h-9v2z" transform="translate(1 2)" fill="currentColor" fill-rule="nonzero"/></symbol><symbol id="icon-navigation-umbrella-32" viewBox="0 0 32 32"><g fill="currentColor" fill-rule="nonzero"><path d="M14 4h-2c-4.57 0-8.865 3.854-9.809 8.236 1.329-1.007 3.017-1.509 4.878-1.509 2.311 0 4.47 1.062 5.938 2.796 1.492-1.7 3.788-2.796 5.993-2.796 1.879 0 3.511.473 4.789 1.434C22.803 7.824 18.506 4 14 4zm12 11.527h-2c-.957-1.995-2.76-2.8-5-2.8-1.886 0-3.968 1.146-5 2.8h-2c-1.032-1.654-2.867-2.8-4.93-2.8-2.064 0-4.042.778-5.07 2.8H0V14C0 8 5.563 2 12 2h2c6.375 0 12 6 12 12v1.527zm-14.209 9.552c-.306.503-.751.885-1.783.885s-1.935-.891-1.935-2.037H6.14c0 2.164 1.676 3.946 3.869 3.946C11.942 27.873 14 26.48 14 24c0-2.48-2 0-2 0s.097.575-.209 1.079z" transform="translate(3 2)"/><path d="M12 14v10h2V14zm2-11V0h-2v3z" transform="translate(3 2)"/></g></symbol><symbol id="icon-navigation-wages-32" viewBox="0 0 32 32"><path d="M23 26.006H3.898C2.852 26.006 2 25.183 2 24.17V10.84c0-1.012.852-1.835 1.898-1.835h4.143l-2.144 2h-1.83v2H23v3h-3v2h4v3h-4v2h3v3zm-.32-16.978l-2.121 1.978H8.829l8.395-7.83 5.456 5.852zM26 16.006h-1v-5h-1.508l2.014-1.88L17.323.35l-7.137 6.656H3.898C1.749 7.006 0 8.726 0 10.84v13.33c0 2.115 1.749 3.835 3.898 3.835H25v-5h1v-7z" transform="translate(3 1)" fill="currentColor" fill-rule="evenodd"/></symbol><symbol id="icon-padlock-32" viewBox="0 0 32 32"><g fill="currentColor" fill-rule="nonzero"><path d="M0 26V11.01h20V26H0zm18-2V13.01H2V24h16z" transform="translate(6 2)"/><path d="M17.994 12.5V7.826C17.994 3.498 14.408 0 9.997 0S2 3.498 2 7.826V12.5h2V7.826C4 4.614 6.68 2 9.997 2c3.317 0 5.997 2.614 5.997 5.826V12.5h2z" transform="translate(6 2)"/><path d="M15 12.542v-4.64C15 5.19 12.756 3 10 3S5 5.19 5 7.903v4.64h2v-4.64C7 6.305 8.338 5 10 5s3 1.305 3 2.903v4.64h2zM11.492 20l-.712-2.15a.992.992 0 00.49-.851c0-.552-.459-.999-1.024-.999-.566 0-1.024.447-1.024.999 0 .36.196.675.49.85L9 20h2.492zm-4.27-3.001C7.222 15.33 8.587 14 10.246 14s3.024 1.331 3.024 2.999c0 .43-.093.844-.262 1.22L14.26 22H6.231l1.252-3.782a2.968 2.968 0 01-.261-1.22z" transform="translate(6 2)"/></g></symbol><symbol id="icon-paper-32" viewBox="0 0 32 32"><path d="M6 3v26h20V10.584l-7.586-7.585H6zm2 2h9v6.998h7V27H8V5zm11 1.413l3.585 3.585H19V6.414z" fill="currentColor" fill-rule="evenodd"/></symbol><symbol id="icon-pdf-doc-32" viewBox="0 0 32 32"><g fill="currentColor" fill-rule="evenodd"><path fill-rule="nonzero" d="M2 24V2h11.586L17 5.414V9h2V4.586L14.414 0H0v26h19.002l-.009-5.002-2 .004.005 2.998z" transform="translate(5 3)"/><path d="M6.352 11.02v7.969h1.62V16.73h1.173c1.528 0 2.588-1.128 2.588-2.815 0-1.733-1.083-2.896-2.656-2.896H6.352zm1.585 4.252v-2.77h1.208c.605 0 1.038.547 1.038 1.368 0 .844-.433 1.402-1.038 1.402H7.937zm4.777-4.252V19h2.553c2.018 0 3.363-1.607 3.363-4.013 0-2.382-1.345-3.967-3.363-3.967h-2.553zm1.607 6.441v-4.902h.923c1.072 0 1.779.98 1.779 2.44 0 1.482-.707 2.462-1.779 2.462h-.923zm7.068-1.3h2.303v-1.493h-2.303v-2.155h2.588V11.02h-4.195V19h1.607v-2.839z" transform="translate(5 3)"/></g></symbol><symbol id="icon-pencil-32" viewBox="0 0 32 32"><g fill="currentColor" fill-rule="evenodd"><path d="M0 .874v26h19v-10h-2v8H2v-22h15v-2z" transform="translate(5 2.1)"/><path d="M21.364 5.128L11 15.492v1.415h1.414L22.778 6.543l-1.414-1.415zm-8.121 13.779H9v-4.243L21.364 2.3l4.243 4.243-12.364 12.364z" fill-rule="nonzero" transform="translate(5 2.1)"/><path d="M19.414 5.5l2.829 2.828-1.415 1.414L18 6.914z" transform="translate(5 2.1)"/></g></symbol><symbol id="icon-pension-32" viewBox="0 0 32 32"><g fill="currentColor" fill-rule="nonzero"><path d="M23.5 0H20v2h3.5zM30 5a5 5 0 01-5-5h2a3 3 0 003 3v2zm0 5V6.5h-2V10zm-6.636-1.91l2.475-2.476L24.425 4.2 21.95 6.675z" transform="translate(0 2)"/><path d="M14.03 7.907l1.989.207c-.037.35.607 1.284 1.095 1.334l1.53.169c.1.01.252-.123.269-.28l.116-1.111-7.43-5.893-8.488 4.22-.128 1.216c-.014.14.031.198.15.21l1.571.165c.498.051 1.326-.716 1.369-1.07l1.987.223c-.035.34.617 1.266 1.107 1.316l3.492.367c.488.05 1.335-.738 1.37-1.073zm-1.576 3.063l-3.493-.368c-.828-.084-1.586-.617-2.12-1.302-.663.556-1.514.919-2.344.833l-1.571-.165C1.696 9.842.866 8.787.994 7.561l.25-2.379L11.84.05l9.3 7.224-.06.58-.177 1.69c-.127 1.223-1.23 2.19-2.468 2.063l-1.53-.169c-.828-.085-1.583-.62-2.112-1.307-.666.558-1.517.924-2.338.84z" transform="rotate(-6 70.637 1.588)"/><path d="M9.82 9.687l-1.15 10.94 1.99.21 1.15-10.94z" transform="rotate(-6 70.637 1.588)"/><path d="M30 26c-1.375 0-2.4-.387-4.06-1.646-1.903-1.441-3.284-1.954-5.455-1.954-2.171 0-3.557.512-5.465 1.954C13.353 25.612 12.35 26 10.55 26H2v2h8.951c2.171 0 3.302-.512 5.21-1.953 1.668-1.26 2.523-1.647 4.324-1.647 1.8 0 2.652.387 4.312 1.645C26.7 27.487 27.83 28 30 28v-2z" transform="translate(0 2)"/></g></symbol><symbol id="icon-pension-capital-32" viewBox="0 0 32 32"><path d="M15.004 0L9.812 9h10.385l-5.193-9zM9.235 10l-4.038 7h19.615l-4.038-7H9.235zM4.62 18L.58 25.003 29.428 25l-4.039-7H4.62zm1.154 2h18.459l1.732 3-21.922.003L5.774 20z" transform="translate(1 3)" fill="currentColor" fill-rule="evenodd"/></symbol><symbol id="icon-pension-occupational-32" viewBox="0 0 32 32"><path d="M15.004 0L9.812 9h10.385l-5.193-9zm0 4.002L16.734 7h-3.459l1.729-2.998zM9.235 10l-4.038 7h19.615l-4.038-7H9.235zM4.62 18L.58 25.003 29.428 25l-4.039-7H4.62zm1.154 2h18.459l1.732 3-21.922.003L5.774 20z" transform="translate(1 3)" fill="currentColor" fill-rule="evenodd"/></symbol><symbol id="icon-pension-private-32" viewBox="0 0 32 32"><path d="M15.004 0L9.812 9h10.385l-5.193-9zM9.235 10l-4.038 7h19.615l-4.038-7H9.235zm1.155 2h9.228l1.731 3H8.66l1.73-3zm-5.77 6L.58 25.003 29.428 25l-4.039-7H4.62zm1.154 2h18.459l1.732 3-21.922.003L5.774 20z" transform="translate(1 3)" fill="currentColor" fill-rule="evenodd"/></symbol><symbol id="icon-pension-state-32" viewBox="0 0 32 32"><path d="M15.004 0L9.812 9h10.385l-5.193-9zm0 4.002L16.734 7h-3.459l1.729-2.998zM9.235 10l-4.038 7h19.615l-4.038-7H9.235zm1.155 2h9.228l1.731 3H8.66l1.73-3zm-5.77 6L.58 25.003 29.428 25l-4.039-7H4.62z" transform="translate(1 3)" fill="currentColor" fill-rule="evenodd"/></symbol><symbol id="icon-percent-32" viewBox="0 0 32 32"><path d="M15.5 22a4.5 4.5 0 100-9 4.5 4.5 0 000 9zm0-2a2.5 2.5 0 110-5 2.5 2.5 0 010 5zM4.5 9a4.5 4.5 0 100-9 4.5 4.5 0 000 9zm0-2a2.5 2.5 0 110-5 2.5 2.5 0 010 5zM17.738.352l-17 20 1.524 1.296 17-20z" transform="translate(6 5)" fill="currentColor" fill-rule="nonzero"/></symbol><symbol id="icon-phone-32" viewBox="0 0 32 32"><path d="M16.61 8.357c-.22.22-.708.22-.934-.003l-2.002-1.976-.2-.063c-.678-.22-2.198-.207-4.743 2.31-2.62 2.587-2.513 4.146-2.346 4.696l.065.213 2.008 1.982a.634.634 0 01.002.899L5.2 19.637c-.228.225-.713.227-.94.002l-1.902-1.881c-.396-.391-.913-1.633-.343-3.814.425-1.631 1.817-3.843 4.926-6.915 4.467-4.416 7.71-5.269 8.997-5.269.911 0 1.652.216 2.034.594l1.904 1.88a.619.619 0 01.188.45.617.617 0 01-.19.448L16.61 8.357zm2.6-7.254C18.492.392 17.329 0 15.938 0c-1.505 0-5.303.902-10.234 5.778C2.31 9.13.792 11.656.312 13.5c-.614 2.345-.311 4.405.808 5.51l1.902 1.88a2.44 2.44 0 001.705.687c.644 0 1.266-.25 1.71-.687l3.262-3.226a2.376 2.376 0 00.707-1.697c0-.644-.252-1.246-.71-1.702L8.08 12.669c.045-.343.327-1.25 1.889-2.793 1.602-1.584 2.518-1.842 2.839-1.88l1.63 1.611c.886.873 2.54.868 3.412 0l3.262-3.223a2.37 2.37 0 00.712-1.7c0-.645-.253-1.25-.712-1.7L19.21 1.102z" transform="rotate(-72 16.941 10.059)" fill="currentColor" fill-rule="evenodd"/></symbol><symbol id="icon-pin-32" viewBox="0 0 32 32"><g fill="currentColor" fill-rule="evenodd"><path d="M2 9.796C2 5.496 5.579 2 9.978 2c4.398 0 7.976 3.497 7.976 7.796 0 2.015-.83 3.979-2.321 5.513l-5.655 5.54-5.639-5.524C2.831 13.774 2 11.81 2 9.795zm15.05 6.924c1.873-1.927 2.904-4.386 2.904-6.924C19.954 4.395 15.479 0 9.978 0 4.476 0 0 4.395 0 9.796c0 2.537 1.031 4.996 2.922 6.94L9.314 23H1v2h18v-2h-8.359l6.409-6.28z" transform="translate(6 3)"/><path d="M9.977 11.913c-1.27 0-2.264-.956-2.264-2.177 0-1.22.994-2.177 2.264-2.177 1.27 0 2.264.957 2.264 2.177h2c0-2.343-1.873-4.177-4.264-4.177-2.392 0-4.264 1.834-4.264 4.177 0 2.342 1.872 4.177 4.264 4.177v-2z" transform="translate(6 3)"/></g></symbol><symbol id="icon-plus-32" viewBox="0 0 32 32"><path fill="currentColor" d="M15 8v7H8v2h7v7h2v-7h7v-2h-7V8z" fill-rule="evenodd"/></symbol><symbol id="icon-print-32" viewBox="0 0 32 32"><g fill="none" fill-rule="evenodd"><path d="M0 0h32v32H0z"/><g fill="currentColor" fill-rule="nonzero"><path d="M1 18v-5.786C1 10.99 1.984 10 3.194 10h19.612c1.21 0 2.194.99 2.194 2.214V18h-5.824v2H27v-7.786C27 9.888 25.123 8 22.806 8H3.194C.877 8-1 9.888-1 12.214V20h7.02v-2H1z" transform="translate(3 2)"/><path d="M5 0h15v10H5V0zm2 2v6h11V2H7zM5 14h16v14H5V14zm2 2v10h12V16H7z" transform="translate(3 2)"/><path d="M9 24h8.065v-2H9zm0-4h8.065v-2H9z" transform="translate(3 2)"/></g></g></symbol><symbol id="icon-radio-enclosed-32" viewBox="0 0 32 32"><g fill="currentColor" fill-rule="evenodd"><path d="M13 24C6.935 24 2 19.065 2 13S6.935 2 13 2s11 4.935 11 11-4.935 11-11 11m0-24C5.832 0 0 5.832 0 13s5.832 13 13 13 13-5.832 13-13S20.168 0 13 0" transform="translate(3 3)"/><path d="M13.058 11.09c-1.157 0-1.967.836-1.967 1.91 0 1.074.926 1.909 1.967 1.909s1.851-.835 1.851-1.91c0-1.073-.694-1.908-1.851-1.908" transform="translate(3 3)"/></g></symbol><symbol id="icon-radio-round-32" viewBox="0 0 32 32"><g fill="currentColor" fill-rule="evenodd"><path d="M13 24C6.935 24 2 19.065 2 13S6.935 2 13 2s11 4.935 11 11-4.935 11-11 11m0-24C5.832 0 0 5.832 0 13s5.832 13 13 13 13-5.832 13-13S20.168 0 13 0" transform="translate(3 3)"/><path d="M13 14.909a1.884 1.884 0 01-1.909-1.91c0-1.073.835-1.908 1.91-1.908 1.073 0 1.908.835 1.908 1.909A1.884 1.884 0 0113 14.909m0-7.818A5.915 5.915 0 007.091 13a5.915 5.915 0 005.91 5.909 5.915 5.915 0 005.908-5.91A5.915 5.915 0 0013 7.092" transform="translate(3 3)"/></g></symbol><symbol id="icon-save-32" viewBox="0 0 32 32"><g fill="currentColor" fill-rule="nonzero"><path d="M7.61 4.005c.14-.426.378-.819.703-1.147a2.872 2.872 0 014.094 0c.326.329.564.723.705 1.151l2.063.012a4.934 4.934 0 00-1.347-2.57 4.872 4.872 0 00-6.936 0A4.934 4.934 0 005.55 3.994l2.06.01zm13.015 11.074c0 2.548-.92 4.953-2.549 6.825l.83 6.096h-5.54l-1.035-2.762a10.148 10.148 0 01-3.928 0L7.37 28H1.83l.829-6.096A10.365 10.365 0 01.11 15.079c0-1.77.442-3.478 1.27-4.993L.152 4.445 6.133 5.65a10.138 10.138 0 014.234-.923c1.479 0 2.915.318 4.234.923l5.982-1.205-1.229 5.64a10.38 10.38 0 011.27 4.994zm-4.658 6.153l.333-.348a8.366 8.366 0 002.325-5.805 8.376 8.376 0 00-1.188-4.317l-.203-.34.743-3.412-3.646.735-.307-.155a8.14 8.14 0 00-3.657-.863 8.14 8.14 0 00-3.657.863l-.307.155-3.646-.735.743 3.412-.203.34a8.378 8.378 0 00-1.188 4.317c0 2.196.843 4.256 2.325 5.805l.333.348L4.12 26h1.863l1.186-3.165.892.262a8.173 8.173 0 004.614 0l.892-.262L14.752 26h1.863l-.648-4.768z" transform="translate(5.5 1)"/><path d="M12.48 17.546c0-1.19-.952-2.152-2.12-2.152-1.168 0-2.12.961-2.12 2.152 0 1.19.951 2.151 2.12 2.151s2.12-.961 2.12-2.151zm2 0c0 2.29-1.842 4.151-4.12 4.151s-4.12-1.86-4.12-4.151c0-2.29 1.842-4.152 4.12-4.152s4.12 1.861 4.12 4.152zm-7.02-5.122c0-.102.078-.182.17-.182.092 0 .17.08.17.182h2c0-1.202-.97-2.182-2.17-2.182s-2.17.98-2.17 2.182h2zm5.46 0c0-.102.078-.182.17-.182.092 0 .17.08.17.182h2c0-1.202-.97-2.182-2.17-2.182s-2.17.98-2.17 2.182h2z" transform="translate(5.5 1)"/></g></symbol><symbol id="icon-screen-32" viewBox="0 0 32 32"><path d="M4.438 17.02A1.44 1.44 0 013 15.584V3.438a1.44 1.44 0 011.437-1.439h19.125A1.44 1.44 0 0125 3.438v12.147a1.44 1.44 0 01-1.438 1.436H4.438zm0-17.02A3.442 3.442 0 001 3.438v12.146a3.441 3.441 0 003.438 3.436H13V21H7v2h14v-2h-6v-1.98h8.563A3.44 3.44 0 0027 15.584V3.438a3.44 3.44 0 00-3.438-3.439H4.438z" transform="translate(2 5)" fill="currentColor" fill-rule="evenodd"/></symbol><symbol id="icon-search-32" viewBox="0 0 32 32"><path d="M22.07 23.485L17 18.415 18.414 17l5.071 5.07zM1.984 9.5c0 4.145 3.371 7.516 7.516 7.516 4.144 0 7.516-3.371 7.516-7.516S13.644 1.984 9.5 1.984c-4.145 0-7.516 3.371-7.516 7.516zM0 9.5C0 4.262 4.262 0 9.5 0S19 4.262 19 9.5c0 5.239-4.262 9.5-9.5 9.5S0 14.739 0 9.5z" transform="translate(4 4)" fill="currentColor" fill-rule="evenodd"/></symbol><symbol id="icon-shield-32" viewBox="0 0 32 32"><g fill="currentColor" fill-rule="evenodd"><path d="M18.25 0H3.75c0 1.912-1.798 3.75-3.75 3.75v9.492C0 20.062 11 25 11 25s11-4.938 11-11.758V3.75c-1.837 0-3.75-1.876-3.75-3.75m-1.581 2A6.393 6.393 0 0020 5.331v7.911c0 4.115-5.89 7.958-9 9.539-3.111-1.582-9-5.425-9-9.539v-7.88A6.072 6.072 0 005.362 2h11.307" transform="translate(5 4)"/><path fill-rule="nonzero" d="M6.5 8.414L7.914 7l7.657 7.657-1.414 1.414z" transform="translate(5 4)"/><path fill-rule="nonzero" d="M14.157 7l1.414 1.414-7.657 7.657L6.5 14.657z" transform="translate(5 4)"/></g></symbol><symbol id="icon-snailmail-32" viewBox="0 0 32 32"><g fill="none" fill-rule="evenodd"><path d="M0 0h32v32H0z"/><g fill="currentColor" fill-rule="nonzero"><path d="M0 23h28v-2H0zM18 1h2v-2h-4v11.343h2z" transform="translate(2 3)"/><path d="M17 3H6v2h11zm-4 20v4h2v-4z" transform="translate(2 3)"/><path d="M11 22V8A5 5 0 101 8v11h2V8a3 3 0 116 0v14h2zm17 0V8a5 5 0 00-5-5h-3v2h3a3 3 0 013 3v14h2z" transform="translate(2 3)"/></g></g></symbol><symbol id="icon-star-32" viewBox="0 0 32 32"><path d="M15.588 13.354a.997.997 0 00-.359 1.11l1.664 5.178-4.296-3.192a1 1 0 00-1.194 0L7.11 19.642l1.664-5.178a1.001 1.001 0 00-.36-1.11l-4.359-3.21 5.361.012h.002a.999.999 0 00.953-.699L12 4.311l1.631 5.146a1 1 0 00.953.7h.002l5.36-.012-4.358 3.209zm8.362-4.53a1.001 1.001 0 00-.95-.687h-.002l-7.682.018L12.953.699a1 1 0 00-1.906 0l-2.36 7.456-7.685-.018H1a1.002 1.002 0 00-.593 1.806L6.65 14.54 4.251 22a1 1 0 001.55 1.108l6.2-4.608 6.202 4.608A1.001 1.001 0 0019.753 22l-2.399-7.46 6.24-4.595a1 1 0 00.357-1.12z" transform="translate(4 3.9)" fill="currentColor" fill-rule="evenodd"/></symbol><symbol id="icon-sustainability-32" viewBox="0 0 28 30"><g fill="none" fill-rule="evenodd"><path d="M0 0h32v32H0z" transform="translate(-2 -1)"/><path d="M9.416 19.32l2.839 4.26 4.731-7.458-1.935-5.806 1.898-.632 1.42 4.26 2.963-4.672 1.689 1.071-2.466 3.887 3.17-.906.55 1.923-5.332 1.524-1.072 1.69c.696.36 1.489.539 2.392.539C22.888 19 26 16.442 26 13.455c0-2.43-.228-5.76-.685-9.987-5.41 2.411-8.893 4.12-10.404 5.099-2.156 1.396-2.617 4.752-.689 6.625l-1.393 1.434c-2.878-2.795-2.21-7.662.995-9.738 1.745-1.13 5.703-3.053 11.93-5.803l1.243-.549.154 1.35c.566 4.944.849 8.797.849 11.569C28 17.642 23.915 21 20.263 21c-1.286 0-2.447-.283-3.467-.846l-5.952 9.382-1.688-1.072 1.927-3.037-5.915-8.872 1.664-1.11 1.451 2.177c.91-.971 1.007-1.705.157-2.849-.892-1.2-2.993-2.111-6.307-2.64-.335 2.94-.032 5.017.838 6.224.483.67 1.202.831 2.416.429l.629 1.899c-1.982.656-3.624.288-4.667-1.16C.013 17.674-.31 14.785.286 10.852l.146-.967.97.124c4.376.56 7.26 1.71 8.643 3.572 1.706 2.296 1.172 3.984-.63 5.74z" fill="currentColor" fill-rule="nonzero"/></g></symbol><symbol id="icon-tag-32" viewBox="0 0 32 32"><g fill="currentColor" fill-rule="evenodd"><path d="M10.914 21.664l-8.5-8.5L13.57 2h4.93L22 5.552v4.962l-11.086 11.15zm12.98-16.558a.996.996 0 00-.278-.66L19.75.31c-.184-.1-.439-.21-.705-.31H13.18a.938.938 0 00-.724.293L.293 12.456a1 1 0 000 1.415l9.914 9.914a.996.996 0 001.414 0L23.7 11.622c.28-.195.385-.463.3-.74l-.107-5.776z" transform="translate(4 4)"/><path d="M16.036 9.098c-.367 0-.648-.128-.937-.461a.5.5 0 01-.1-.156l-.055-.131c-.032-.064-.032-.209-.032-.376a1.14 1.14 0 011.124-1.124 1.14 1.14 0 011.124 1.124 1.14 1.14 0 01-1.124 1.124m0-4.248a3.127 3.127 0 00-3.124 3.124c0 .316 0 .744.212 1.205.116.315.315.627.51.816a3.076 3.076 0 002.402 1.103 3.127 3.127 0 003.124-3.124 3.127 3.127 0 00-3.124-3.124" transform="translate(4 4)"/></g></symbol><symbol id="icon-text-1-round-32" viewBox="0 0 32 32"><g fill="currentColor" fill-rule="evenodd"><path d="M13 24C6.935 24 2 19.065 2 13S6.935 2 13 2s11 4.935 11 11-4.935 11-11 11m0-24C5.832 0 0 5.832 0 13s5.832 13 13 13 13-5.832 13-13S20.168 0 13 0" transform="translate(3 3)"/><path d="M13.979 7.5h-3.3v1.755h1.26v7.02H10.5V18h4.964v-1.725h-1.485z" transform="translate(3 3)"/></g></symbol><symbol id="icon-text-2-round-32" viewBox="0 0 32 32"><g fill="currentColor" fill-rule="evenodd"><path d="M13 24C6.935 24 2 19.065 2 13S6.935 2 13 2s11 4.935 11 11-4.935 11-11 11m0-24C5.832 0 0 5.832 0 13s5.832 13 13 13 13-5.832 13-13S20.168 0 13 0" transform="translate(3 3)"/><path d="M15.04 13.125c1.71-2.79.555-5.774-1.905-5.774-1.77 0-2.85 1.184-2.835 3.239h1.785c0-.869.33-1.319.96-1.319.585 0 .9.434.9 1.29 0 .614-.345 1.214-.645 1.724l-3.105 5.235V18h5.79v-1.95h-2.73l1.785-2.925z" transform="translate(3 3)"/></g></symbol><symbol id="icon-text-3-round-32" viewBox="0 0 32 32"><g fill="currentColor" fill-rule="evenodd"><path d="M13 24C6.935 24 2 19.065 2 13S6.935 2 13 2s11 4.935 11 11-4.935 11-11 11m0-24C5.832 0 0 5.832 0 13s5.832 13 13 13 13-5.832 13-13S20.168 0 13 0" transform="translate(3 3)"/><path d="M14.44 11.49l1.784-3.675V7.5H10.54v1.785h2.94l-1.485 3.345v.315c1.095-.24 2.46 0 2.49 1.68 0 .96-.48 1.59-1.185 1.59-.72 0-1.215-.51-1.245-1.29h-1.86c.046 1.935 1.29 3.225 3.136 3.225 1.904 0 3.165-1.41 3.165-3.54 0-1.455-.646-2.835-2.056-3.12" transform="translate(3 3)"/></g></symbol><symbol id="icon-thumbs-down-32" viewBox="0 0 32 32"><g fill="none" fill-rule="evenodd"><path d="M0 0h32v32H0z"/><path d="M18.153 0l-.69 4.83L16.223 7H24v6h-.501l.001 3h-.501L23 19h-.501l.001 3H9.838L5 20.387V23H0V6h5v3h1.381l1.28-2.557 3.024-3.53L12.434 0h5.719zM2.999 8h-1v13h1V8zm12.848-6h-2.282l-1.208 2.014-.098.137-2.92 3.405L7.618 11H5v7.279L10.163 20h10.336v-.586L18.086 17h2.913v-.586L18.579 14h2.92v-.586L19.079 11H22V9h-9.222l2.76-4.833.31-2.167z" transform="rotate(-180 14 14)" fill="currentColor" fill-rule="nonzero"/></g></symbol><symbol id="icon-thumbs-up-32" viewBox="0 0 32 32"><g fill="none" fill-rule="evenodd"><path d="M0 0h32v32H0z"/><path d="M18.153 0l-.69 4.83L16.223 7H24v6h-.501l.001 3h-.501L23 19h-.501l.001 3H9.838L5 20.387V23H0V6h5v3h1.381l1.28-2.557 3.024-3.53L12.434 0h5.719zM2.999 8h-1v13h1V8zm12.848-6h-2.282l-1.208 2.014-.098.137-2.92 3.405L7.618 11H5v7.279L10.163 20h10.336v-.586L18.086 17h2.913v-.586L18.579 14h2.92v-.586L19.079 11H22V9h-9.222l2.76-4.833.31-2.167z" transform="translate(4 4)" fill="currentColor" fill-rule="nonzero"/></g></symbol><symbol id="icon-trash-32" viewBox="0 0 32 32"><path d="M0 6l2 19h14l2-19H0zm2.222 2h13.556l-1.579 15H3.801L2.222 8zM6 0v3H0v2h10.01v.01l1-.01H18V3h-6.01l-.029-3h-5.96zm2 2h1.98l.01 1H8V2z" transform="translate(7 3)" fill="currentColor" fill-rule="evenodd"/></symbol><symbol id="icon-travel-32" viewBox="0 0 32 32"><g fill="currentColor" fill-rule="nonzero"><path d="M13.463 26.146l-.617.17-8.192-.931-4.452-4.182 5.815-1.637 2.82 1.518 2.054-.6 14.976-4.376 5.131 1.103.167.572a3.094 3.094 0 01-2.102 3.837l-6.49 1.898-4.498 4.793-5.575 1.63.963-3.795zm.715-2.817l1.938.492-.816 3.217 1.69-.494 4.499-4.793.262-.077 6.752-1.974c.397-.116.679-.438.762-.816l-3.323-.714-14.49 4.233-2.84.83-2.83-1.523-1.63.459 1.387 1.304 7.148.812 1.342-.37.149-.586z" transform="translate(0 1)"/><path d="M13.457 18.735l5.108 1.237.47-1.944-5.627-1.363-5.63 1.646 3.685 3.251 1.324-1.5-.964-.85zM20 14.494a.5.5 0 10-1 .012.5.5 0 001-.012zm2-.023a2.5 2.5 0 11-5 .058 2.5 2.5 0 015-.058zM10 0C7.592 0 5.558 1.595 5.097 3.743 2.78 4.138 1 6.027 1 8.333 1 10.931 3.257 13 6 13h2v-2H6c-1.676 0-3-1.214-3-2.667 0-1.452 1.324-2.666 3-2.666h1v-1C7 3.214 8.325 2 10 2c1.676 0 3 1.214 3 2.667v1h1c1.675 0 3 1.214 3 2.666 0 .438-.119.86-.345 1.24l1.72 1.022A4.41 4.41 0 0019 8.333c0-2.306-1.779-4.195-4.097-4.59C14.443 1.595 12.409 0 10 0z" transform="translate(0 1)"/><path d="M14 11.5a1.5 1.5 0 10-3 0 1.5 1.5 0 003 0zm2 0a3.5 3.5 0 11-7 0 3.5 3.5 0 017 0z" transform="translate(0 1)"/></g></symbol><symbol id="icon-triangle-32" viewBox="0 0 32 32"><path d="M2 20.259l13.055-8.24L2 3.777v16.48zM0 .15l18.802 11.868L0 23.886V.15z" transform="translate(8 4)" fill="currentColor" fill-rule="nonzero"/></symbol><symbol id="icon-truck-32" viewBox="0 0 29 25"><g fill="none" fill-rule="evenodd"><path d="M0 0h32v32H0z" transform="translate(-1 -4)"/><path d="M23.242 10.64h3.305l.056 5.97a4.24 4.24 0 11-6.366 3.59h-5.4v-1a6.56 6.56 0 00-12.875-1.787L.038 16.87a8.546 8.546 0 012.918-4.377V.118h12.858L19.13 10.64h2.11V5.173a1.29 1.29 0 00-.042-.307A1.16 1.16 0 0020.076 4V2a3.16 3.16 0 013.059 2.363c.068.263.107.542.107.81v5.467zM10.277 2.118V9h-2V2.118h-3.32v9.191A8.561 8.561 0 0116.778 18.2h4.002a4.239 4.239 0 013.816-2.158l-.031-3.402h-6.902L14.347 2.118h-4.07zm-2 22.402a5.32 5.32 0 110-10.64 5.32 5.32 0 010 10.64zm0-2a3.32 3.32 0 100-6.64 3.32 3.32 0 000 6.64zm16.2 0a2.24 2.24 0 100-4.48 2.24 2.24 0 000 4.48z" transform="translate(.263)" fill="currentColor" fill-rule="nonzero"/></g></symbol><symbol id="icon-twitter-32" viewBox="0 0 32 32"><g fill="currentColor" fill-rule="nonzero"><path d="M2 2v24h24V2H2zM0 0h28v28H0V0z" transform="translate(2 2)"/><path d="M11.42 20.8c5.944 0 9.194-4.924 9.194-9.194 0-.09-.001-.178-.004-.267a.288.288 0 01.113-.238 6.555 6.555 0 001.279-1.283c.064-.085-.023-.202-.123-.164-.45.17-.924.29-1.416.357-.023.003-.035-.029-.015-.041a3.251 3.251 0 001.201-1.39.131.131 0 00-.18-.169 6.49 6.49 0 01-1.586.578.285.285 0 01-.258-.075 3.232 3.232 0 00-5.442 2.853.16.16 0 01-.169.188 9.17 9.17 0 01-6.262-3.139.198.198 0 00-.328.044 3.227 3.227 0 001.054 3.986c.024.018.011.057-.02.055a3.204 3.204 0 01-1.167-.301.131.131 0 00-.185.128 3.235 3.235 0 002.472 2.958c.028.006.027.047-.001.053a3.235 3.235 0 01-1.168.056.108.108 0 00-.116.144 3.237 3.237 0 002.678 2.054c.095.01.13.132.051.188a6.483 6.483 0 01-3.784 1.213H7.17c-.177 0-.237.237-.08.32a9.137 9.137 0 004.33 1.086" transform="translate(2 2)"/></g></symbol><symbol id="icon-umbrella-32" viewBox="0 0 32 32"><g fill="currentColor" fill-rule="nonzero"><path d="M14 4h-2c-4.57 0-8.865 3.854-9.809 8.236 1.329-1.007 3.017-1.509 4.878-1.509 2.311 0 4.47 1.062 5.938 2.796 1.492-1.7 3.788-2.796 5.993-2.796 1.879 0 3.511.473 4.789 1.434C22.803 7.824 18.506 4 14 4zm12 11.527h-2c-.957-1.995-2.76-2.8-5-2.8-1.886 0-3.968 1.146-5 2.8h-2c-1.032-1.654-2.867-2.8-4.93-2.8-2.064 0-4.042.778-5.07 2.8H0V14C0 8 5.563 2 12 2h2c6.375 0 12 6 12 12v1.527zm-14.209 9.552c-.306.503-.751.885-1.783.885s-1.935-.891-1.935-2.037H6.14c0 2.164 1.676 3.946 3.869 3.946C11.942 27.873 14 26.48 14 24c0-2.48-2 0-2 0s.097.575-.209 1.079z" transform="translate(3 2)"/><path d="M12 14v10h2V14zm2-11V0h-2v3z" transform="translate(3 2)"/></g></symbol><symbol id="icon-user-32" viewBox="0 0 32 32"><g fill="currentColor" fill-rule="nonzero"><path d="M22.463 14.12c.346 1.043.537 2.203.537 3.38C23 23.31 18.295 28 12.5 28 6.725 28 2 23.275 2 17.5 2 11.69 6.705 7 12.5 7c3.094 0 5.981 1.35 7.993 3.672l1.511-1.31C19.617 6.607 16.181 5 12.5 5 5.602 5 0 10.583 0 17.5 0 24.38 5.62 30 12.5 30 19.398 30 25 24.417 25 17.5c0-1.394-.226-2.767-.657-4.058l-.31-.804-.249-.638h-8.588c-2.34 0-3.91-.545-4.89-1.42-.538-.479-.777-.927-.834-1.162l-1.944.47c.146.603.577 1.41 1.447 2.185C10.339 13.29 12.385 14 15.196 14h7.22l.047.12z" transform="translate(1.5 .5)"/><path d="M8.588 17.326c0-.181.135-.326.236-.326.1 0 .235.145.235.326h2c0-1.256-.998-2.326-2.235-2.326-1.238 0-2.236 1.07-2.236 2.326h2zm7.412 0c0-.181.135-.326.235-.326.1 0 .236.145.236.326h2c0-1.256-.998-2.326-2.236-2.326C14.998 15 14 16.07 14 17.326h2zm-.048 3.784a4.91 4.91 0 01-3.423 1.376 4.91 4.91 0 01-3.423-1.376l-1.389 1.438a6.91 6.91 0 004.812 1.938 6.91 6.91 0 004.813-1.938l-1.39-1.438zm2.76-16.46l.775-3.331-1.949-.453-.774 3.332zm4.143 2.276l2.132-2.698-1.569-1.24-2.132 2.698zm2.275 3.857l3.09-1.549-.897-1.788-3.09 1.55z" transform="translate(1.5 .5)"/></g></symbol><symbol id="icon-user-happy-32" viewBox="0 0 32 32"><g fill="currentColor" fill-rule="nonzero"><path d="M24 13c0 6.075-4.925 11-11 11S2 19.075 2 13 6.925 2 13 2a10.97 10.97 0 018.341 3.829l1.516-1.305A12.97 12.97 0 0013 0C5.82 0 0 5.82 0 13s5.82 13 13 13 13-5.82 13-13c0-1.461-.242-2.891-.71-4.246l-.188-.496-.244-.645h-9.089c-2.43 0-4.1-.638-5.194-1.678-.367-.35-.64-.72-.833-1.086a2.348 2.348 0 01-.176-.401l-1.933.515c.174.653.646 1.547 1.564 2.42 1.473 1.403 3.64 2.23 6.572 2.23h7.7C23.818 10.68 24 11.827 24 13z" transform="translate(3 3)"/><path d="M17.293 17.293A6.048 6.048 0 0113 19.068a6.048 6.048 0 01-4.293-1.775l-1.414 1.414A8.048 8.048 0 0013 21.068c2.127 0 4.176-.83 5.707-2.36l-1.414-1.415zm-5.901-4.03h-2A.28.28 0 009.13 13a.28.28 0 00-.263.263h-2C6.866 12.036 7.902 11 9.13 11c1.226 0 2.263 1.036 2.263 2.263m7.332 0h-2a.28.28 0 00-.263-.263.28.28 0 00-.263.263h-2c0-1.227 1.036-2.263 2.263-2.263 1.226 0 2.263 1.036 2.263 2.263" transform="translate(3 3)"/></g></symbol><symbol id="icon-wallet-32" viewBox="0 0 32 32"><path d="M29 14h-1V9H8.067v2H26v3h-3v2h4v3h-4v2h3v3H7.898C6.852 24 6 23.177 6 22.165V8.835C6 7.823 6.852 7 7.898 7H26V5H7.898C5.749 5 4 6.721 4 8.835v13.33C4 24.279 5.749 26 7.898 26H28v-5h1v-7z" fill="currentColor" fill-rule="evenodd"/></symbol><symbol id="icon-wallet-minus-32" viewBox="0 0 32 32"><g fill="currentColor" fill-rule="evenodd"><path d="M9 26c-3.86 0-7-3.092-7-6.893 0-3.801 3.14-6.893 7-6.893 3.823 0 6.936 3.035 6.995 6.786h-.009v.373C15.843 23.05 12.769 26 9 26zM27 8.995V4H8v2h17v2.995h-2.941v2H26V14h-3.941v2h2.983v3h-7.047c-.059-4.854-4.069-8.786-8.995-8.786-1.057 0-2.067.19-3.01.522V4.092c0-1.142.947-2.071 2.114-2.071L25.001 2l-.002-2L8.103.021C5.835.021 3.99 1.847 3.99 4.092v7.632C1.585 13.322 0 16.035 0 19.107 0 24.011 4.038 28 9 28c4.305 0 7.909-3.003 8.79-7h9.252v-5H28V8.995h-1z" transform="translate(2 2)"/><path d="M5 18v2h8v-2z" transform="translate(2 2)"/></g></symbol><symbol id="icon-wallet-plus-32" viewBox="0 0 32 32"><g fill="currentColor" fill-rule="evenodd"><path d="M9 26c-3.86 0-7-3.092-7-6.893 0-3.801 3.14-6.893 7-6.893 3.823 0 6.936 3.035 6.995 6.786h-.009v.373C15.843 23.05 12.769 26 9 26zM27 8.995V4H8v2h17v2.995h-2.941v2H26V14h-3.941v2h2.983v3h-7.047c-.059-4.854-4.069-8.786-8.995-8.786-1.057 0-2.067.19-3.01.522V4.092c0-1.142.947-2.071 2.114-2.071L25.001 2l-.002-2L8.103.021C5.835.021 3.99 1.847 3.99 4.092v7.632C1.585 13.322 0 16.035 0 19.107 0 24.011 4.038 28 9 28c4.305 0 7.909-3.003 8.79-7h9.252v-5H28V8.995h-1z" transform="translate(2 2)"/><path d="M10 15H8v3H5v2h3v3h2v-3h3v-2h-3z" transform="translate(2 2)"/></g></symbol><symbol id="icon-world-32" viewBox="0 0 32 32"><g fill="currentColor" fill-rule="evenodd"><path d="M13 0C5.82 0 0 5.82 0 13s5.82 13 13 13 13-5.82 13-13S20.18 0 13 0m0 2c6.065 0 11 4.935 11 11s-4.935 11-11 11S2 19.065 2 13 6.935 2 13 2" transform="translate(3 3)"/><path d="M13.937 21.304a2.19 2.19 0 01-.32-.026c-.84-.138-1.876-.84-2.03-3.4-.15-2.478-1.146-2.912-2.297-3.413-.98-.427-2.321-1.011-2.28-2.958.02-.866.299-1.56.83-2.061 1.03-.973 2.675-.913 4.268-.855 2.444.086 3.29-.052 3.463-1.055.06-.343.03-.584-.086-.713-.478-.532-2.357-.41-3.368-.342-1.234.08-1.979.13-2.47-.391a1.152 1.152 0 01-.305-.937c.114-.903.921-1.514 1.857-2.221.659-.497 1.403-1.061 1.716-1.62a1 1 0 011.745.978c-.496.887-1.367 1.565-2.156 2.162 1.56-.087 3.455-.092 4.467 1.033.377.419.782 1.173.57 2.39-.5 2.896-3.392 2.789-5.505 2.714-1.066-.037-2.402-.086-2.825.312-.046.044-.19.18-.2.649-.011.55.089.65 1.077 1.08 1.303.569 3.27 1.426 3.495 5.127.08 1.298.396 1.56.4 1.563.173-.023.993-.658 1.586-2.12.06-.145.13-.305.204-.48.418-.961.988-2.278.988-3.928 0-1.025.93-1.981 2.369-2.435 1.864-.588 4.512-.292 6.335 2.313a1 1 0 11-1.637 1.147c-1.163-1.661-2.64-1.77-3.418-1.693-.988.103-1.587.576-1.662.745.012 1.988-.68 3.588-1.14 4.647-.067.159-.131.305-.186.438-.698 1.718-2.02 3.35-3.486 3.35m-9.909-.093a1 1 0 01-.528-1.85c.41-.254.666-.562.76-.915.33-1.217-1.25-2.839-3.52-3.614a1 1 0 11.645-1.892c3.414 1.166 5.436 3.701 4.806 6.028-.227.846-.794 1.57-1.637 2.093-.164.101-.346.15-.526.15" transform="translate(3 3)"/></g></symbol><symbol id="icon-youtube-32" viewBox="0 0 32 32"><g fill="currentColor" fill-rule="evenodd"><path d="M2 2v24h24V2H2zM0 0h28v28H0V0z" fill-rule="nonzero" transform="translate(2 2)"/><path d="M12.214 16.238v-4.861l4.674 2.439-4.674 2.422zm10.263-5.703s-.17-1.192-.688-1.717c-.657-.69-1.395-.692-1.733-.733-2.421-.175-6.052-.175-6.052-.175h-.008s-3.63 0-6.052.175c-.338.04-1.075.044-1.733.733-.519.525-.688 1.717-.688 1.717s-.173 1.4-.173 2.8v1.312c0 1.4.173 2.8.173 2.8s.17 1.192.688 1.718c.658.688 1.522.667 1.907.739 1.384.132 5.882.174 5.882.174s3.635-.006 6.056-.181c.338-.04 1.076-.044 1.733-.732.519-.526.688-1.718.688-1.718s.173-1.4.173-2.8v-1.312c0-1.4-.173-2.8-.173-2.8z" transform="translate(2 2)"/></g></symbol></svg>