<svg width="32" height="32" xmlns="http://www.w3.org/2000/svg"><g fill="currentColor" fill-rule="evenodd"><path d="M19.5 5h-6.995A8.505 8.505 0 004 13.505v1C4 19.201 7.806 23 12.504 23h1.081L19 28.414v-7.416h-2v2.588L14.414 21h-1.91A6.496 6.496 0 016 14.505v-1A6.505 6.505 0 0112.505 7H19.5a6.5 6.5 0 016.5 6.505v1a6.491 6.491 0 01-5.94 6.471l.015 2.005A8.492 8.492 0 0028 14.505v-1C28 8.807 24.196 5 19.5 5"/><path fill-rule="nonzero" d="M18 12h-3v-2h5v8h-2z"/><path fill-rule="nonzero" d="M14 16h3v2h-5v-8h2z"/><path d="M15 13h2v2h-2z"/></g></svg>