<svg width="32" height="32" xmlns="http://www.w3.org/2000/svg"><g fill="currentColor" fill-rule="evenodd"><path d="M19 17H5.5a.507.507 0 01-.5-.5v-10c0-.271.229-.5.5-.5h15c.271 0 .5.229.5.5V14h2V6.5C23 5.122 21.878 4 20.5 4h-15A2.503 2.503 0 003 6.5v10C3 17.878 4.122 19 5.5 19H12v1H9v2h8v-2h-3v-1h5v-2z"/><path d="M20 16.319c0-.691.625-1.319 1.308-1.319h4.384c.683 0 1.308.628 1.308 1.319v8.362c0 .691-.624 1.319-1.308 1.319h-4.384A1.31 1.31 0 0120 24.681V16.32zM21.308 28h4.384C27.482 28 29 26.474 29 24.681V16.32C29 14.525 27.482 13 25.692 13h-4.384C19.518 13 18 14.525 18 16.319v8.362A3.31 3.31 0 0021.308 28z" fill-rule="nonzero"/><path d="M25 23.499a1.5 1.5 0 11-3 .001 1.5 1.5 0 013-.001z" fill-rule="nonzero"/></g></svg>