<svg width="32" height="32" xmlns="http://www.w3.org/2000/svg"><g fill="currentColor" fill-rule="nonzero"><path d="M25.791 3.46l-13.72 2.667.382 1.964 11.836-2.263.984 4.35 1.95-.444z"/><path d="M6.336 16.135l1.987-8.796L26.214 11l-1.91 8.786s-8.45-1.908-9.459-2.112l-.396 1.96c.99.2 11.342 2.55 11.342 2.55l2.79-12.71-21.79-4.492-2.873 12.674 5.268 1.141.423-1.954-3.273-.708zM18.5 25a3.25 3.25 0 10-6.5 0 3.25 3.25 0 006.5 0zM14 25a1.25 1.25 0 112.5 0 1.25 1.25 0 01-2.5 0z"/><path d="M15.5 17.25a3.75 3.75 0 10-7.5 0 3.75 3.75 0 007.5 0zm-5.5 0a1.75 1.75 0 113.5 0 1.75 1.75 0 01-3.5 0z"/></g></svg>