<svg width="32" height="32" xmlns="http://www.w3.org/2000/svg"><g fill="currentColor" fill-rule="nonzero"><path d="M12.911 24v-2h8v2zM20 10h-6.96V8H22v11H3v-4.647h2V17h15z"/><path d="M8.193 7.2l2.97-2.855.658 5.462-1.986.24-.178-1.48L8.38 9.797 6.905 8.738l.144 1.914-1.691.588 1.114.733-1.099 1.671-4.502-2.959L4.94 9.268l-.348-4.653zM23 14v-2h3.897L30 18.624V23h-4.452v-2H28v-1.93L25.625 14zM7.439 21v2H5.312l-.955-4.16 1.95-.448L6.904 21z"/><path d="M21.75 23.5a1.75 1.75 0 103.5 0 1.75 1.75 0 00-3.5 0zm-1.75 0a3.5 3.5 0 117 0 3.5 3.5 0 01-7 0zM8.25 23.5a1.75 1.75 0 103.5 0 1.75 1.75 0 00-3.5 0zm-1.75 0a3.5 3.5 0 117 0 3.5 3.5 0 01-7 0z"/></g></svg>