<svg width="32" height="32" xmlns="http://www.w3.org/2000/svg"><g fill="currentColor" fill-rule="nonzero"><path d="M7 16.5c0-.827.673-1.5 1.5-1.5s1.5.673 1.5 1.5S9.327 18 8.5 18 7 17.327 7 16.5zM22 16.5c0-.827.673-1.5 1.5-1.5s1.5.673 1.5 1.5-.673 1.5-1.5 1.5-1.5-.673-1.5-1.5zM9 11.027v2h14.658l-2.655-5.246-1.784.903 1.185 2.343z"/><path d="M29 14c0 .025-.333.033-.778.033C27.333 14.033 26 14 26 14l1.044 4L27 19h-6v2h6v2h-1v3h-2v-3H8v3H6v-3H5v-2h6v-2H5v-1l1-4s-1.333.033-2.222.033C3.333 14.033 3 14.025 3 14v-1c0-.968 4-1 4-1l2-3.531s.687-1.997 7-2c6.406 0 7 2 7 2L25 12s4 .032 4 1v1zm-4.336-6.531c-.57-.813-2.039-3-8.664-3-6.625.004-8.38 2.343-8.768 3l-1.315 2.55C3.75 10.089 1 10.661 1 13v1c0 .672.45 1.961 2.147 2.025.08.003.176.005.284.006l-.37 1.484-.06.239V23c0 .746.407 1.396 1.012 1.74L4 26a2 2 0 002 2h2a2 2 0 002-2v-1h12v1a2 2 0 002 2h2a2 2 0 002-2l.016-1.276c.589-.348.984-.99.984-1.724v-2c0-.04-.01-.078-.012-.118L29 19.013v-1.264l-.05-.254-.38-1.464c.107-.001.203-.003.283-.006C30.551 15.961 31 14.672 31 14v-1c0-2.339-2.684-2.91-4.917-2.981l-1.419-2.55z"/><path d="M13 21h6v-2h-6z"/></g></svg>