<svg width="32" height="32" xmlns="http://www.w3.org/2000/svg"><g fill="currentColor" fill-rule="nonzero"><path d="M3.753 10.845c-.476-.476-.476-1.33.002-1.809L2.339 7.624c-1.256 1.26-1.256 3.377 0 4.636 1.261 1.257 3.137 1.116 4.394-.142l-1.44-1.272c-.477.477-1.061.477-1.54 0z"/><path d="M22 21.37V25h-2v-3h-8.01v3H10v-3.63C7.901 20.366 6 17.843 6 15c0-3.16 2.859-6.03 5.99-6h6.499c.035-.078.063-.987 1.012-2C20.45 5.987 20.973 5.862 22 5.862v3.762c2 .625 2.906 2.157 3.154 4.376H28v2h-2.932C25 19.78 23.399 20.683 22 21.37zM29 18h1v-6h-3.233c-.289-1.558-1.444-3-2.767-3.563V4c-2.76 0-3.82 0-5.021 1-1.083.901-1.386 1.479-1.618 2H12c-.909.013-1.96.2-2.789.528C6.24 8.708 4 11.708 4 15c0 3.593 1.768 6.573 4 7.535V27h6v-3h4v3h6v-4.465c2-.963 3.06-3.018 3.062-4.535H29z"/><path d="M12 11v2h6v-2z"/></g></svg>