<svg xmlns="http://www.w3.org/2000/svg" xmlns:xlink="http://www.w3.org/1999/xlink"><symbol id="icon-bankid-mc-40" viewBox="0 0 40 40"><g fill="none" fill-rule="evenodd"><path d="M0 0h40v40H0z"/><g fill-rule="nonzero"><path d="M11.367 18.094l1.447-9.685h-1.546c-.723 0-1.655-.43-1.93-1.222-.087-.268-.295-1.187.9-2.084.427-.314.701-.663.756-.931.055-.28-.01-.524-.197-.71-.263-.268-.779-.42-1.436-.42-1.107 0-1.886.676-1.962 1.165-.055.36.208.652.438.838.69.547.855 1.339.428 2.084-.439.768-1.392 1.269-2.412 1.28H4.275c-.132.943-2.28 15.4-2.444 16.542h8.56c.077-.513.471-3.248 1.009-6.857h-.033z" fill="#479CBE" transform="translate(2 3)"/><path d="M23.17 0h-9.138l-1.218 7.81h1.551c.851 0 1.656-.394 2-.963a.938.938 0 00.161-.5c0-.324-.218-.568-.436-.73-.598-.453-.725-.929-.725-1.265 0-.07 0-.128.012-.186.126-.824 1.23-1.717 2.69-1.717.873 0 1.54.209 1.942.591.357.337.495.813.391 1.312-.126.592-.713 1.08-1.046 1.323-.885.626-.77 1.172-.713 1.334.184.488.886.801 1.426.801h2.356v.012c3.219.023 4.943 1.52 4.403 5.001-.506 3.238-2.966 4.63-5.897 4.654l-1.161 7.474h1.713c7.23 0 13.138-4.689 14.3-12.093C37.216 3.668 31.446 0 23.17 0z" fill="#00A5C3" transform="translate(2 3)"/><path d="M23.17 0h-9.138l-1.218 7.81h1.551c.851 0 1.656-.394 2-.963a.938.938 0 00.161-.5c0-.324-.218-.568-.436-.73-.598-.453-.725-.929-.725-1.265 0-.07 0-.128.012-.186.126-.824 1.23-1.717 2.69-1.717.873 0 1.54.209 1.942.591.357.337.495.813.391 1.312-.126.592-.713 1.08-1.046 1.323-.885.626-.77 1.172-.713 1.334.184.488.886.801 1.426.801h2.356v.012c3.219.023 4.943 1.52 4.403 5.001-.506 3.238-2.966 4.63-5.897 4.654l-1.161 7.474h1.713c7.23 0 13.138-4.689 14.3-12.093C37.216 3.668 31.446 0 23.17 0z" fill="#235971" transform="translate(2 3)"/><path d="M.99.024h3.627c1.546 0 1.922.825 1.808 1.578-.091.61-.49 1.064-1.171 1.363.864.346 1.205.884 1.08 1.733C6.174 5.762 5.299 6.55 4.15 6.55H.023L.989.024zm2.399 2.701c.705 0 1.034-.394 1.103-.86.068-.502-.148-.849-.853-.849h-.626l-.25 1.71h.626zm-.387 2.822c.728 0 1.149-.311 1.25-.945.08-.55-.215-.872-.92-.872h-.717l-.273 1.828h.66v-.011zm8.415 1.051c-.944.072-1.399-.035-1.626-.466-.5.323-1.058.49-1.65.49-1.068 0-1.443-.585-1.34-1.23.045-.312.215-.61.488-.862.591-.537 2.047-.61 2.615-1.016.046-.454-.125-.621-.66-.621-.625 0-1.148.215-2.046.86l.216-1.482c.773-.586 1.524-.86 2.388-.86 1.103 0 2.081.478 1.9 1.745l-.217 1.434c-.08.502-.057.658.478.67l-.546 1.338zM9.779 4.351c-.5.335-1.432.275-1.535.968-.045.323.148.562.455.562.296 0 .66-.131.955-.346-.022-.12-.011-.24.023-.467l.102-.717zm3.401-2.857h1.887l-.102.658c.602-.538 1.057-.741 1.649-.741 1.057 0 1.546.68 1.375 1.793L17.5 6.539h-1.887l.41-2.762c.079-.502-.069-.74-.433-.74-.296 0-.568.167-.83.537l-.432 2.953H12.44l.74-5.033zm6.276-1.47h1.888l-.478 3.204 1.808-1.734h2.332l-2.32 2.152 1.865 2.893h-2.377l-1.433-2.331h-.022l-.342 2.33H18.49z" transform="translate(2 30.385)" fill="#235971"/><path d="M.955.024h2.049l-.901 6.634H.053zm3.047 0H6.93c2.264 0 2.919 1.863 2.704 3.408-.204 1.51-1.255 3.226-3.24 3.226H3.09L4.002.024zM5.9 5.075c.997 0 1.544-.56 1.705-1.74.118-.876-.118-1.74-1.223-1.74h-.547l-.472 3.48H5.9z" transform="translate(27.627 30.385)" fill="#479CBE"/></g></g></symbol><symbol id="icon-damage-multicolor-40" viewBox="0 0 28 32"><defs><path d="M22 30h4V19.503l-6.538-4.857v-4.36h-4.829L13.237 7.69 9 6.381V2H2v15.3h7.916l3.01-1.442 5.207 3.324-1.323 3.802L22 25.47V30zm-2 0v-3.27l-5.667-2.714 1.391-3.998-2.936-1.876L10.37 19.3H2V30h3v2H0V0h28v32H17v-2h3zm6-12.989V2H11v2.906l3.61 1.117 1.218 2.263h5.634v5.354L26 17.011z" id="a"/></defs><g fill="none" fill-rule="evenodd"><path fill="#E30613" fill-rule="nonzero" d="M21 34v2h-8v-2z" transform="translate(-6 -4)"/><path d="M0 0h40v40H0z" transform="translate(-6 -4)"/><use fill="red" fill-rule="nonzero" xmlns:xlink="http://www.w3.org/1999/xlink" xlink:href="#a"/></g></symbol></svg>