<svg width="32" height="32" xmlns="http://www.w3.org/2000/svg"><g fill="none" fill-rule="evenodd"><path d="M0 0h32v32H0z"/><path d="M18.75 19.797c.302.877.226 1.233-.1 1.385-.322.15-.64-.013-1.15-.86l-4.145-8.886-1.812.845 4.166 8.934.047.089c.991 1.664 2.306 2.358 3.739 1.69 1.432-.668 1.745-2.122 1.105-3.95L15.016 7.056l-.047-.089c-1.427-2.395-3.464-3.163-5.774-2.086-2.312 1.078-3.023 3.134-2.077 5.758l5.581 11.98c2.236 4.278 5.187 5.794 8.584 4.21 3.396-1.584 4.132-4.819 2.31-9.24L19.41 8.613l-1.813.845 4.166 8.934c1.436 3.489.966 5.556-1.325 6.624-2.29 1.068-4.176.1-5.945-3.284L8.965 9.878c-.577-1.614-.248-2.567 1.076-3.185 1.315-.613 2.266-.265 3.184 1.255l5.525 11.849z" fill="currentColor" fill-rule="nonzero"/></g></svg>