<svg width="32" height="32" xmlns="http://www.w3.org/2000/svg"><g fill="none" fill-rule="evenodd"><path d="M0 0h32v32H0z"/><path d="M17.331 4.835L22.47 11h3.066l2.101 3.149c.643.118 1.27.306 1.87.56l.326.146-.852 1.809A6.969 6.969 0 0026 16a6.967 6.967 0 00-3.772 1.102l1.265 1.37a4.5 4.5 0 11-1.549 1.27l-1.23-1.331a6.971 6.971 0 00-1.71 4.348L19 23h-2c0-.338.019-.672.055-1h-2.47l-3.371-3.372-1.12 1.163c.529.7.858 1.562.901 2.497L11 22.5a4.5 4.5 0 11-2.44-4.002l1.239-1.285-1.506-1.506 1.414-1.414L15.415 20h2.097a9.008 9.008 0 017.645-5.961L24.464 13h-2.932l-1.538-1.846-7.308 4.177L10.464 12H4v2h3v2H2v-6h9.535l1.779 2.668 5.379-3.074-2.025-2.43-2.352.785-.632-1.898 3.647-1.216zM25.5 20a2.5 2.5 0 100 5 2.5 2.5 0 000-5zm-19 0a2.5 2.5 0 100 5 2.5 2.5 0 000-5z" fill="currentColor" fill-rule="nonzero"/></g></svg>