<svg width="32" height="32" xmlns="http://www.w3.org/2000/svg"><g fill="none" fill-rule="evenodd"><path d="M0 0h32v32H0z"/><path d="M19.75 2.288l.135.033.035.008-.001.002.152.047a3.368 3.368 0 012.17 3.926l-.049.185a3.368 3.368 0 01-3.785 2.39l-.006.022a9.752 9.752 0 00-2.54-.334c-5.378 0-9.739 4.36-9.739 9.739 0 5.378 4.361 9.739 9.74 9.739 5.378 0 9.738-4.36 9.738-9.74 0-3.07-1.43-5.898-3.811-7.727l-.25-.186 1.167-1.624a11.723 11.723 0 014.894 9.538c0 6.483-5.255 11.739-11.739 11.739-6.483 0-11.739-5.256-11.739-11.74 0-6.482 5.256-11.738 11.74-11.738.893 0 1.775.1 2.633.297l.078.02.005-.013a1.367 1.367 0 00.882-2.587l-.092-.032-.076-.014c-.18-.018-.347.05-.402.108l-.017.027c-.055.19-.028.265.297.216l.207-.04.424 1.955c-2.112.457-3.306-1.1-2.85-2.685.329-1.138 1.606-1.775 2.799-1.531zM16.618 23.17l1.414 1.415a5.134 5.134 0 01-3.639 1.505 5.131 5.131 0 01-3.452-1.328l-.187-.177 1.414-1.415c.598.598 1.394.92 2.225.92.762 0 1.494-.271 2.072-.776l.153-.144zm-3.057-5.144l.013.164-1.998.093a.505.505 0 00-1.006-.044l-.004.092-1.997.093a2.505 2.505 0 014.992-.398zm6.455-.242l.013.165-1.998.093a.505.505 0 00-1.006-.045l-.004.092-1.997.094a2.505 2.505 0 014.992-.399z" fill="currentColor" fill-rule="nonzero"/></g></svg>