<svg width="32" height="32" xmlns="http://www.w3.org/2000/svg"><g fill="currentColor" fill-rule="nonzero"><path d="M23.684 19.035l-7.281-1.58c0-.034.01-.064.01-.097a4.314 4.314 0 00-4.31-4.309 4.314 4.314 0 00-3.971 2.641l-1.75-.359 1.93-8.918 17.24 3.698-1.868 8.924zm-11.58.632a2.31 2.31 0 01-2.31-2.309 2.311 2.311 0 012.31-2.309 2.312 2.312 0 012.309 2.31 2.311 2.311 0 01-2.31 2.308zM23.689 4.863l.636 2.94-7.266-1.559 6.63-1.38zm2.78 3.4L25.225 2.5 12.229 5.208l-5.45-1.17-2.78 12.846 3.828.785c.162 2.23 2.007 3.998 4.277 3.998 1.638 0 3.049-.93 3.777-2.279l9.348 2.028 2.689-12.842-1.448-.31zM16.22 27.093c-.511 0-.902-.18-1.284-.62a.831.831 0 01-.174-.274l-.054-.13c-.057-.116-.06-.276-.06-.55 0-.852.72-1.572 1.573-1.572.854 0 1.574.72 1.574 1.573 0 .852-.72 1.573-1.574 1.573m0-5.146a3.576 3.576 0 00-3.573 3.573c0 .365 0 .859.24 1.38.132.357.357.71.582.93a3.523 3.523 0 002.75 1.263 3.577 3.577 0 003.575-3.573 3.577 3.577 0 00-3.574-3.573"/></g></svg>