<svg width="32" height="32" xmlns="http://www.w3.org/2000/svg" xmlns:xlink="http://www.w3.org/1999/xlink"><defs><path d="M4.5 10a.5.5 0 00-.5.5v15a.5.5 0 00.5.5h23a.5.5 0 00.5-.5v-15a.5.5 0 00-.5-.5h-23zM22 4v4h5.5a2.5 2.5 0 012.5 2.5v15a2.5 2.5 0 01-2.5 2.5h-23A2.5 2.5 0 012 25.5v-15A2.5 2.5 0 014.5 8H10V4h12zM8 10H6v16h2V10zm18 0h-2v16h2V10zm-9 4h-2v3h-3v2h3v3h2v-3h3v-2h-3v-3zm3-8h-8v2h8V6z" id="a"/></defs><g fill="none" fill-rule="evenodd"><path d="M0 0h32v32H0z"/><use fill="currentColor" fill-rule="nonzero" xlink:href="#a"/></g></svg>