<svg width="32" height="32" xmlns="http://www.w3.org/2000/svg"><g fill="none" fill-rule="evenodd"><path d="M0 0h32v32H0z"/><path d="M16 4c6.625 0 9.094 2.187 9.664 3l1.419 3.019C29.316 10.09 32 10.661 32 13v1c0 .672-.449 1.961-2.147 2.025-.08.003-.176.005-.283.006l.38 1.464.05.254v1.264l-.012 1.869L30 21v2a2 2 0 01-.984 1.724L29 26a2 2 0 01-2 2h-2a2 2 0 01-2-2v-1H9v1a2 2 0 01-2 2H5a2 2 0 01-2-2l.013-1.26A1.998 1.998 0 012.001 23v-5.246l.06-.239.37-1.484a10.325 10.325 0 01-.284-.006C.45 15.961 0 14.672 0 14v-1c0-2.339 2.75-2.911 4.917-2.981L6.232 7C6.62 6.344 9.375 4.004 16 4zm0 2c-5.717.004-7.64 1.641-7.952 1.95l-.031.032L8 8l-2 4h-.054C5.467 12.01 2 12.1 2 13v1c0 .025.333.033.778.033C3.667 14.033 5 14 5 14l-1 4v1h14v2H4v2h1v3h2v-3h18v3h2v-3h1l.044-5L27 14s1.333.033 2.222.033c.445 0 .778-.008.778-.033v-1c0-.901-3.467-.991-3.946-1H26l-2-4s-.014-.017-.044-.048l-.043-.044C23.506 7.515 21.576 6 16 6zm8.414 13l2.266 2.258-1.414 1.414L23.586 21H20v-2h4.414zM7.5 15c.827 0 1.5.673 1.5 1.5S8.327 18 7.5 18 6 17.327 6 16.5 6.673 15 7.5 15zm17 0c.827 0 1.5.673 1.5 1.5s-.673 1.5-1.5 1.5-1.5-.673-1.5-1.5.673-1.5 1.5-1.5zm-6.961-8.146l.923 1.28 3.563-.47L24.59 13H9v-2h12.41l-.56-1.164-3.312.437-1.622-2.249 1.623-1.17z" fill="currentColor" fill-rule="nonzero"/></g></svg>