<svg width="32" height="32" xmlns="http://www.w3.org/2000/svg"><g fill="currentColor" fill-rule="nonzero"><path d="M15.994 28.78c-1.917 0-3.466-1.571-3.466-3.502 0-1.93 1.549-3.501 3.466-3.501 1.917 0 3.466 1.57 3.466 3.501 0 1.93-1.549 3.502-3.466 3.502zm0-2c.806 0 1.466-.67 1.466-1.502s-.66-1.501-1.466-1.501c-.806 0-1.466.669-1.466 1.501 0 .833.66 1.502 1.466 1.502zM15.994 3.205c3.356 0 6.495 1.5 8.652 4.042l-1.524 1.294c-1.783-2.1-4.369-3.336-7.128-3.336-3.881 0-7.324 2.419-8.715 5.962l-.141.495c-.328.941-.5 2.016-.5 3.11 0 1.337.27 2.645.785 3.864l.587 1.389H6.317c-2.775 0-5.007-2.264-5.007-5.065 0-2.566 1.875-4.683 4.324-5.018 1.85-4.064 5.858-6.737 10.36-6.737zM3.31 14.96a3.06 3.06 0 001.7 2.764 12.123 12.123 0 01-.11-5.47 3.064 3.064 0 00-1.59 2.706z"/><path d="M24.709 11.167l1.925-.542.105.38c.403 1.158.61 2.455.61 3.768 0 4.298-2.357 8.24-6.006 10.195-.87.475-1.82.826-2.794 1.037l-.425-1.954a8.524 8.524 0 002.267-.842c3.006-1.611 4.959-4.875 4.959-8.436 0-1.095-.172-2.17-.518-3.168l-.123-.438z"/><path d="M11.207 7.716l1.931-.52c.072.268.328.754.853 1.26.927.892 2.342 1.44 4.407 1.44h7.352v2h-7.352c-2.573 0-4.487-.742-5.794-2-.816-.784-1.238-1.588-1.397-2.18zM18.795 17.322l1.425 1.405a6.003 6.003 0 01-4.288 1.798 6.003 6.003 0 01-4.287-1.798l1.425-1.405a4.003 4.003 0 002.862 1.203 4.003 4.003 0 002.863-1.203z"/><path d="M25.672 11.896v-2c2.774 0 5.006 2.264 5.006 5.064 0 2.8-2.232 5.065-5.006 5.065v-2c1.663 0 3.006-1.363 3.006-3.065s-1.343-3.064-3.006-3.064z"/></g></svg>