<svg width="32" height="32" xmlns="http://www.w3.org/2000/svg"><g fill="none" fill-rule="evenodd"><path d="M0 0h32v32H0z"/><path d="M20 4c1.818 0 2.92 1.036 2.996 2.8L23 7v6h3c1.818 0 2.92 1.036 2.996 2.8L29 16v9c0 1.886-1.114 3-3 3h-5c-1.886 0-3-1.114-3-3v-6h-4v2h3v2H9v-2h3v-2H6c-1.818 0-2.92-1.036-2.996-2.8L3 16V7c0-1.818 1.036-2.92 2.8-2.996L6 4h14zm6 11h-5c-.781 0-1 .219-1 1v9c0 .781.219 1 1 1h5c.781 0 1-.219 1-1v-9c0-.781-.219-1-1-1zm-2.5 7a1.5 1.5 0 110 3 1.5 1.5 0 010-3zM20 6H6c-.735 0-.972.194-.998.868L5 7v9c0 .735.194.972.868.998L6 17h12v-1c0-1.818 1.036-2.92 2.8-2.996L21 13V7c0-.735-.194-.972-.868-.998L20 6z" fill="currentColor" fill-rule="nonzero"/></g></svg>