<svg width="32" height="32" xmlns="http://www.w3.org/2000/svg"><g fill="currentColor" fill-rule="nonzero"><path d="M16.308 23.281l-.458 1.947c-1.88-.442-3.24-2.102-3.24-4.06A4.17 4.17 0 0116.779 17c.876 0 1.731.29 2.46.795l-1.137 1.645a2.353 2.353 0 00-1.323-.44 2.17 2.17 0 00-2.169 2.169c0 1.015.708 1.88 1.698 2.112zM11.97 27v2H6v-3.7c0-1.302.937-2.3 2.192-2.3H12v2H8.192c-.121 0-.192.076-.192.3V27h3.97zM6.156 7.016l-.134.685c-.079.59.053 1.236.396 1.808.806 1.42 2.622 1.898 4.074 1.074l.987 1.74c-2.404 1.363-5.444.563-6.788-1.805a4.83 4.83 0 01-.642-3.14l.459-2.362H7.98a6.752 6.752 0 015.025-2.227c3.541 0 6.687 2.744 6.995 6.281v1.092c0 1.588-1.485 2.864-3.084 2.864-1.59 0-2.916-1.277-2.916-2.864V9h2v1.162c0 .465.414.864.916.864.556 0 1.084-.453 1.084-.864v-.363l.004-.64c-.211-2.397-2.474-4.37-4.999-4.37-1.5 0-2.884.692-3.765 1.836l-.3.39H6.156z"/><path d="M9 14h2v10.91H9zM26.332 18.719h2a5.619 5.619 0 01-5.608 5.609v-2a3.619 3.619 0 003.608-3.61z"/><path d="M21.723 23.327c0-4.088-1.945-7.9-5.164-10.357l1.213-1.59c3.708 2.829 5.951 7.226 5.951 11.947 0 1.774-.278 3.453-.834 5.01l-.237.663H11.866v-2h9.355c.334-1.149.502-2.376.502-3.673z"/></g></svg>