<svg width="32" height="32" xmlns="http://www.w3.org/2000/svg"><g fill="none" fill-rule="evenodd"><path d="M0 0h32v32H0z"/><path d="M12.5 2a7.983 7.983 0 016.072 2.791l-1.517 1.303a6 6 0 101.437 3.575h-4.574c-1.769 0-3.528-1.285-4.387-3.08l1.804-.863c.547 1.142 1.643 1.943 2.583 1.943H20.2l.156.811c.095.498.144 1.006.144 1.52a7.968 7.968 0 01-1.907 5.184 5.5 5.5 0 018.404 6.616A6.002 6.002 0 0130 27v3h-2v-3c0-1.523-.86-2.882-2.166-3.556A5.483 5.483 0 0122 25a5.482 5.482 0 01-3.834-1.556A4.002 4.002 0 0016 27v3h-2v-3a6.002 6.002 0 013.003-5.2 5.481 5.481 0 01-.503-2.3c0-1.287.442-2.47 1.182-3.407A7.958 7.958 0 0112.5 18a7.97 7.97 0 01-5.283-1.993l.212-.104C5.084 17.017 4 18.42 4 20.175V30H2v-9.825c0-2.396 1.332-4.317 3.858-5.713A8 8 0 0112.5 2zM22 16a3.5 3.5 0 100 7 3.5 3.5 0 000-7z" fill="currentColor" fill-rule="nonzero"/></g></svg>