<svg width="32" height="32" xmlns="http://www.w3.org/2000/svg"><g fill="none" fill-rule="evenodd"><path d="M0 0h32v32H0z"/><path d="M19 1.643l12.676 11.62-1.352 1.474L29 13.522V28L30 28v2H2v-2h2.889v-1.666a4.508 4.508 0 01-1.947-.952l-.182-.161a4.483 4.483 0 01-1.43-3.285c0-2.486 2.023-4.5 4.516-4.5 1.198 0 2.322.469 3.155 1.28L9 13.522l-1.324 1.215-1.352-1.474L19 1.643zM9 25.157a4.51 4.51 0 01-2.11 1.158L6.888 28h2.11zM19 4.356l-8 7.333V28h3V19.11h10V28L27 28V17H13v-2h14v-3.31l-8-7.334zm0 21.647L17.226 28h3.548L19 26.003zm3-3.375L20.337 24.5 22 26.37v-3.742zm-6 0v3.742l1.663-1.87L16 22.627zM5.846 19.436a2.508 2.508 0 00-2.515 2.5c0 .7.29 1.352.793 1.823a2.512 2.512 0 001.722.677c.76 0 1.463-.336 1.96-.93l.193-.219v-2.481l-.304-.563-.058-.063a2.51 2.51 0 00-1.605-.737zm14.829 1.674h-3.35L19 22.995l1.675-1.885zM19 8a4 4 0 014 4v1h-8v-1a4 4 0 014-4zm0 2c-.703 0-1.321.363-1.678.91l-.054.09h3.463l-.053-.089a2 2 0 00-1.529-.906z" fill="currentColor" fill-rule="nonzero"/></g></svg>