<svg width="32" height="32" xmlns="http://www.w3.org/2000/svg"><g fill="currentColor" fill-rule="evenodd"><path d="M16.002 18.18a2.133 2.133 0 01-2.131-2.132c0-1.175.956-2.13 2.131-2.13 1.175 0 2.131.955 2.131 2.13a2.133 2.133 0 01-2.131 2.131m0-6.262a4.135 4.135 0 00-4.131 4.131 4.135 4.135 0 004.131 4.131 4.135 4.135 0 004.131-4.13 4.135 4.135 0 00-4.131-4.132"/><path d="M23.787 18.456a10.262 10.262 0 01-1.765 2.985l-.455.537 1.494 2.58-3.119 1.824-1.503-2.597-.715.159a7.575 7.575 0 01-1.722.199 7.116 7.116 0 01-1.696-.193l-.73-.183-1.515 2.615-3.118-1.823 1.51-2.61-.5-.54c-.867-.94-1.41-1.856-1.713-2.884l-.21-.718H5v-3.591h2.973l.244-.65a10.262 10.262 0 011.765-2.984l.454-.538-1.493-2.58 3.118-1.823 1.505 2.598.715-.16a7.477 7.477 0 011.721-.2c.603 0 1.19.068 1.696.195l.731.183 1.513-2.616 3.12 1.823-1.51 2.609.5.54c.865.94 1.41 1.857 1.712 2.885l.211.718h3.03v3.59H24.03l-.244.65zm5.217 1.35v-7.59h-3.567a8.935 8.935 0 00-1.428-2.397l1.781-3.076L19.218 2.9l-1.785 3.085a9.548 9.548 0 00-2.859.004l-1.788-3.09-6.572 3.844 1.797 3.104a12.37 12.37 0 00-1.4 2.369H3v7.59h3.566a8.946 8.946 0 001.428 2.398l-1.78 3.077 6.571 3.842 1.786-3.084a9.477 9.477 0 002.858-.005l1.788 3.089 6.572-3.842-1.797-3.105c.556-.74 1.03-1.542 1.4-2.37h3.611z"/></g></svg>