<svg width="28" height="29" xmlns="http://www.w3.org/2000/svg"><path d="M15.836 10.28c3.899 1.803 6.253 4.04 6.947 6.72H26V9.727c0-2.54-1.94-4.758-6.02-6.639-2.235.95-3.944 2.295-4.888 3.54l-1.594-1.207c1.216-1.605 3.364-3.261 6.136-4.352l.388-.152.382.168C25.394 3.29 28 6.165 28 9.727V19h-5v10H7v-6H0V12.727C0 9.165 2.602 6.29 7.587 4.085l.404-.178.405.178c4.249 1.879 6.794 3.933 7.44 6.195zm-2.062.185c-.622-1.38-2.534-2.882-5.781-4.368C3.93 7.976 2 10.19 2 12.727V21h5v-2.273c0-3.361 2.32-6.111 6.774-8.262zM9 18.727V27h12v-8.273c0-2.537-1.933-4.75-6-6.63-4.067 1.88-6 4.093-6 6.63z" fill="currentColor" fill-rule="nonzero"/></svg>