<svg width="32" height="32" xmlns="http://www.w3.org/2000/svg"><g fill="currentColor" fill-rule="evenodd"><path d="M21.869 4.924l.082-.92.082.006.08.008.081.01.08.012.08.015.079.016.078.02.078.02.077.023.076.025.075.026.074.03.074.03.073.032.071.035.071.036.07.038.07.04.067.042.067.043.065.045.065.047.064.048.062.05.061.051.06.053.059.055.058.056.056.057.055.06.054.06.052.061.051.064.05.064.048.066.047.067.046.069.044.07.042.07.041.072.04.073.038.075.036.075.035.077.033.077.031.08.03.079.028.08.026.082.024.083.023.083.02.085.02.085.017.085.015.087.013.088.011.087.01.089.007.089.005.09.003.09.001.082v16.966l-.001.083-.003.09-.005.09-.007.088-.01.089-.01.087-.014.088-.015.086-.017.086-.02.085-.02.085-.023.083-.024.083-.026.081-.028.08-.03.08-.031.08-.033.077-.035.077-.036.075-.038.075-.04.073-.04.072-.043.071-.044.07-.046.068-.047.067-.048.066-.05.064-.051.064-.052.061-.054.06-.055.06-.057.057-.057.056-.059.055-.06.053-.061.051-.062.05-.064.048-.065.047-.065.045-.067.043-.068.042-.069.04-.07.038-.07.036-.072.035-.073.032-.074.03-.074.03-.075.026-.076.025-.077.023-.078.02-.078.02-.08.016-.078.015-.08.012-.081.01-.081.008-.082.006-.082.003-.075.001H10.206l-.075-.001-.082-.003-.081-.006-.082-.008-.08-.01-.08-.012-.08-.015-.079-.016-.078-.02-.078-.02-.077-.023-.076-.025-.075-.026-.074-.03-.074-.03-.073-.032-.072-.035-.07-.036-.07-.038-.069-.04-.068-.042-.067-.043-.065-.045-.065-.047-.064-.048-.062-.05-.061-.051-.06-.053-.059-.055-.057-.056-.057-.057-.055-.06-.054-.06-.052-.062-.051-.063-.05-.064-.048-.066-.047-.067-.046-.068-.044-.07-.042-.071-.041-.072-.04-.073-.038-.075-.036-.075-.035-.077-.033-.078-.031-.078-.03-.08-.028-.08-.026-.082-.024-.083-.023-.084-.02-.084-.02-.085-.017-.086-.015-.086-.013-.087-.011-.088-.01-.089-.007-.089-.005-.09-.003-.09L7 24.484V7.517l.001-.083.003-.09.005-.09.007-.088.01-.089.01-.088.014-.087.015-.086.017-.086.02-.085.02-.085.023-.083.024-.083.026-.081.028-.08.03-.08.031-.08.033-.077.035-.077.036-.075.038-.075.04-.073.041-.072.042-.07.044-.07.046-.069.047-.067.048-.066.05-.064.051-.064.052-.061.054-.06.055-.06.056-.057.058-.056.06-.055.06-.053.06-.051.062-.05.064-.048.065-.047.065-.045.067-.043.068-.042.069-.04.07-.038.07-.036.072-.035.073-.032.074-.03.074-.03.075-.026.076-.025.077-.023.078-.02.078-.02.079-.016.08-.015.08-.012.08-.01.082-.008.081-.006.082-.003.075-.001h11.588l.075.001v.923zM9.949 6.002l-.05.004-.05.007-.05.01-.048.012-.047.015-.046.017-.045.02-.044.022-.043.024-.042.027-.041.03-.04.03-.038.034-.036.035-.035.037-.034.039-.031.04-.044.064-.04.068-.036.07-.03.073-.026.076-.021.077-.016.081-.01.083L9 7.083V24.88l.001.067.007.085.012.082.018.08.023.077.027.075.033.072.036.07.042.065.045.063.033.04.034.038.036.036.037.034.04.032.039.03.042.028.042.026.044.023.044.021.046.019.046.016.048.013.049.011.05.009.05.006.052.002L21.99 26l.06-.002.051-.004.05-.007.05-.01.048-.012.047-.015.046-.017.045-.02.044-.022.043-.025.042-.026.041-.03.04-.03.038-.034.036-.035.035-.037.034-.039.032-.04.044-.064.04-.068.035-.07.03-.073.026-.075.021-.079.016-.08.01-.083.006-.086V7.12l-.001-.067-.007-.085-.012-.082-.018-.08-.023-.077-.027-.075-.032-.072-.037-.07-.042-.065-.03-.043-.031-.04-.034-.04-.035-.036-.036-.035-.038-.034-.04-.03-.04-.03-.043-.027-.043-.024-.044-.022-.045-.02-.046-.017-.047-.015-.048-.012-.05-.01-.05-.007-.05-.004L21.99 6H10.01l-.06.002z"/><path d="M15 16a2 2 0 11-3.999.001A2 2 0 0115 16M19.121 18.05a2 2 0 11-.14-3.996 2 2 0 01.14 3.996zM15 21a2 2 0 11-3.999.001A2 2 0 0115 21M21 21a2 2 0 11-3.999.001A2 2 0 0121 21M11 11h10V9H11z"/></g></svg>