<svg width="32" height="32" xmlns="http://www.w3.org/2000/svg"><g fill="currentColor" fill-rule="evenodd"><path d="M30.19 11.016c-.015.569-.099 1.13-.197 1.687a12.161 12.161 0 01-.662 2.344 11.224 11.224 0 01-1.58 2.79 10.604 10.604 0 01-3.207 2.76c-.852.477-1.746.828-2.684 1.065a9.62 9.62 0 01-1.359.252c-.243.023-.488.055-.733.068-.316.016-.634.021-.951.025-.36.003-.72 0-1.08 0H17.6l.904-5.994.38-.022a5.524 5.524 0 001.54-.313 3.964 3.964 0 001.644-1.101c.364-.411.626-.888.801-1.416a6.187 6.187 0 00.279-1.528c.03-.453 0-.898-.117-1.335-.184-.687-.577-1.205-1.185-1.543a3.591 3.591 0 00-1.102-.382 6.398 6.398 0 00-1.172-.098h-1.66c-.233 0-.458-.042-.672-.14a1.177 1.177 0 01-.404-.298c-.202-.23-.192-.547-.024-.821a1.72 1.72 0 01.457-.47c.192-.143.37-.3.523-.489.184-.225.313-.48.318-.779a1.087 1.087 0 00-.287-.774c-.226-.246-.513-.37-.823-.443a2.857 2.857 0 00-.947-.068c-.577.055-1.095.26-1.51.7-.195.206-.332.448-.354.747-.012.174.027.337.096.493a1.5 1.5 0 00.468.568c.115.092.22.195.283.335.114.258.047.492-.095.713-.128.197-.3.344-.5.457a1.89 1.89 0 01-.796.251c-.124.01-.248.016-.373.018-.31.002-.621 0-.931 0h-.138c.011-.098.018-.183.03-.267.105-.688.212-1.377.316-2.064l.433-2.871c.05-.323.102-.646.15-.967.005-.036.005-.072.008-.106h7.82c.03.004.06.013.09.013.388.008.776.039 1.163.08.435.045.869.107 1.3.193.9.178 1.775.442 2.61.846.89.432 1.688.996 2.353 1.756.45.514.808 1.09 1.084 1.722.207.472.361.962.465 1.468.086.42.158.842.167 1.273.001.079.013.157.022.235v1.185c-.009.082-.021.163-.023.245zM5.127 8.78h.107c.372 0 .744.003 1.115 0 .388-.002.768-.07 1.124-.237.386-.178.708-.436.923-.823.283-.507.213-1.033-.17-1.441-.072-.075-.155-.14-.23-.21-.06-.055-.121-.108-.173-.17-.213-.262-.212-.54.003-.802.211-.256.482-.415.788-.51.46-.145.926-.132 1.389-.013.15.038.292.106.416.209a.625.625 0 01.132.78c-.131.238-.328.41-.54.567a2.344 2.344 0 00-.542.534 1.306 1.306 0 00-.257.85c.015.245.108.458.261.64.273.325.627.5 1.027.582.092.018.187.027.281.028.394.003.788.001 1.182.001h.135c-.018.142-.034.27-.053.397l-.197 1.284c-.084.54-.166 1.08-.248 1.622l-.257 1.704-.239 1.563c-.056.366-.124.73-.162 1.098-.077.748-.215 1.487-.322 2.23-.103.721-.212 1.44-.32 2.16-.055.366-.108.733-.164 1.098-.004.026-.013.052-.02.08H3.137l1.99-13.22M4.175 26.76c.173.023.6.018.731-.011.346-.077.562-.293.613-.666.044-.311-.102-.536-.4-.591-.136-.025-.279-.024-.418-.029-.109-.004-.218 0-.332 0l-.194 1.298m-.323 2.188c.024.005.039.01.053.01.208 0 .417.005.625-.004a.99.99 0 00.277-.057.718.718 0 00.396-.315c.074-.124.107-.26.125-.402.027-.217-.072-.423-.235-.509a.801.801 0 00-.37-.099h-.569c-.033 0-.065.007-.1.011-.07.46-.136.91-.202 1.365M2 29.64c.014-.04.034-.078.04-.119.08-.532.158-1.066.237-1.599l.178-1.178.199-1.33.105-.735c.035-.002.067-.008.1-.008.972-.001 1.947-.006 2.92.002.323.004.64.07.912.272.216.16.34.376.362.653.041.498-.151.879-.54 1.157-.075.053-.158.094-.236.14l-.11.065.22.115c.217.117.399.272.51.504.09.188.112.389.095.598a1.73 1.73 0 01-.2.696c-.248.45-.625.721-1.105.834-.146.034-.299.05-.449.05-1.079.004-2.158.002-3.238.002v-.119M9.532 28.983c-.215.137-.452.246-.729.241-.185-.003-.357-.155-.328-.402a.482.482 0 01.272-.395c.115-.059.237-.103.357-.148.089-.033.181-.056.271-.087.088-.032.174-.07.275-.11l-.118.901m1.626-.265c-.105-.026-.156-.09-.156-.201-.001-.08 0-.159.012-.237.06-.428.135-.854.184-1.284a.999.999 0 00-.208-.775 1.16 1.16 0 00-.505-.346c-.341-.131-.697-.139-1.053-.116-.587.038-1.105.275-1.582.622-.038.027-.05.062-.056.108-.04.284-.085.568-.128.851l-.03.246.082-.048c.086-.058.17-.117.257-.173.295-.188.6-.354.944-.418.186-.035.374-.05.562-.01.182.037.273.14.288.326.007.078-.01.14-.09.17-.17.065-.337.139-.51.193-.317.1-.64.184-.958.283-.337.107-.614.302-.787.634a.952.952 0 00-.092.654c.077.348.325.503.633.584.058.015.116.033.174.05h.477c.259-.051.518-.1.759-.216.099-.047.195-.1.298-.153.082.13.19.231.333.28.095.033.196.051.294.076l.044.013h.546c.055-.011.088-.042.11-.1.1-.256.206-.51.308-.764.028-.067.054-.136.084-.21-.087-.014-.161-.021-.234-.04M27.822 27.921c-.174.329-.455.509-.803.58-.266.056-.534.033-.82.034.126-.883.26-1.755.39-2.644.297-.004.587-.03.866.057.352.11.549.371.598.742.057.435-.03.85-.231 1.231m1.83-1.885a1.86 1.86 0 00-1.042-1.153 2.471 2.471 0 00-1.016-.209c-.81-.002-1.622 0-2.432 0h-.113l-.755 5.085h2.714a3 3 0 00.697-.074c.47-.112.877-.34 1.221-.69.295-.299.512-.653.66-1.05.23-.628.284-1.266.066-1.909M15.75 29.755c.008-.029.016-.054.02-.08l.119-.794c.081-.553.162-1.106.245-1.659.034-.226.051-.453.006-.68-.058-.301-.213-.527-.479-.666-.28-.145-.579-.144-.877-.107-.29.035-.548.168-.782.35l-.23.176.06-.48h-1.496l-.584 3.939h1.497c.007-.036.015-.066.02-.097l.17-1.144c.046-.316.091-.63.14-.946.007-.046.012-.098.037-.134.14-.199.313-.356.556-.393.213-.032.428.064.416.362a3.23 3.23 0 01-.037.351c-.065.449-.132.896-.198 1.343-.031.217-.063.435-.097.659h1.494M17.271 24.677c-.008.037-.015.067-.02.097l-.213 1.447-.308 2.066c-.058.388-.12.777-.174 1.167-.013.097-.05.196-.027.301h1.484l.27-1.797c.024.031.037.045.046.06.344.553.688 1.105 1.03 1.658.036.06.074.086.145.086.563-.004 1.128-.003 1.693-.003.025 0 .05-.002.099-.004L19.833 27.5c.61-.562 1.21-1.113 1.833-1.683-.065-.004-.101-.007-.137-.007-.496 0-.992.01-1.489-.005a.526.526 0 00-.418.174c-.32.319-.648.627-.975.938-.07.068-.144.134-.217.2.093-.818.224-1.622.335-2.438H17.27M22.515 24.68c-.253 1.699-.502 3.385-.752 5.073h1.72c.251-1.691.5-3.377.753-5.073h-1.721z"/></g></svg>