<svg width="32" height="32" xmlns="http://www.w3.org/2000/svg"><g fill="none" fill-rule="evenodd"><path d="M0 0h32v32H0z"/><path d="M20.768 5.36L27.135 13H25c-.987 0-2.167.596-3.22 1.467l.744.737a4.819 4.819 0 11-1.408 1.423l-.74-.735c-.774.964-1.311 2.026-1.37 2.941L19 19v.414L17.414 21h-4.828l-3.087-3.085-1.792 1.792-1.414-1.414L8.085 16.5l-2.501-2.501L3 14v-2h3.414l7 6.999h3.171l.437-.437.02-.168c.368-2.716 3.09-5.797 5.863-6.938l.256-.1-3.93-4.716 1.537-1.28zM4.862 14.726l.812 1.828a2.82 2.82 0 103.665 3.842l.092-.203 1.854.75a4.819 4.819 0 11-6.687-6.09l.264-.127zm20.31 1.686c-.42 0-.817.091-1.174.255l1.465 1.453-1.408 1.42-1.462-1.45a2.819 2.819 0 102.578-1.678zM8.289 9l4.928 3.109L17 12c1.206 0 1.932-.75 1.995-1.842L19 10h2c0 2.167-1.485 3.893-3.756 3.995l-4.579.131L7.71 11 3 11V9h5.29zM19 8v2h-2V8h2z" fill="currentColor" fill-rule="nonzero"/></g></svg>