<svg width="32" height="32" xmlns="http://www.w3.org/2000/svg"><g fill="none" fill-rule="evenodd"><path d="M0 0h32v32H0z"/><path d="M26 17a4 4 0 110 8 4 4 0 010-8zm-22.326.955l1.07 1.69-.187.118-.072.073c-.27.299-.439.681-.477 1.096l-.008.18c0 1.035.808 1.864 1.793 1.864.5 0 .967-.213 1.303-.583l.062-.077.171-.333 1.78.91-.219.43-.093.148a3.762 3.762 0 01-3.004 1.505c-2.1 0-3.793-1.735-3.793-3.864 0-1.034.402-2.005 1.1-2.722l.155-.15.14-.108.279-.177zM26 19a2 2 0 100 4 2 2 0 000-4zM20.618 6l3.864 7.727c.22-.037.44-.06.662-.07l.219-.004c.51 0 1.148.047 1.917.141l.338.043-.264 1.983c-.842-.112-1.509-.167-1.991-.167-2.238 0-4.62 2.42-4.75 4.426l-.006.171v.355L19.477 22H9.632L2 15.497V10h13v1c0 2.148-1.523 3.998-3.568 4.953.631.626 1.664 1.047 2.84 1.047 2.093 0 3.492-.806 3.59-1.88l.005-.12h2c0 2.501-2.463 4-5.595 4-2.09 0-3.972-.952-4.897-2.43a6.78 6.78 0 01-.797.073l-.225.004v-2c1.872 0 3.675-1.078 4.358-2.465l.082-.182H4v2.573L10.369 20h8.153l.101-.124.002-.026c.188-2.13 1.84-4.347 3.95-5.462L19.381 8H17V6h3.618zm4.25 2.503l1.397 2.438-1.735.995-1.398-2.439 1.736-.994z" fill="currentColor" fill-rule="nonzero"/></g></svg>