<svg width="32" height="32" xmlns="http://www.w3.org/2000/svg"><g fill="currentColor" fill-rule="nonzero"><path d="M23.5 2H20v2h3.5zM30 7a5 5 0 01-5-5h2a3 3 0 003 3v2zM30 12V8.5h-2V12zM23.364 10.09l2.475-2.476L24.425 6.2 21.95 8.675zM15 13.789l2-.002c0 .353.738 1.214 1.229 1.213l1.539.008c.1 0 .238-.149.238-.307v-1.117L12 8.5l-8 5.084v1.222c0 .141.052.194.17.194h1.58c.501-.001 1.244-.85 1.25-1.208l2 .015c0 .341.745 1.194 1.238 1.193h3.512c.49-.002 1.25-.874 1.25-1.211zM13.754 17H10.24c-.832.002-1.642-.449-2.244-1.074-.602.623-1.41 1.072-2.244 1.074h-1.58c-1.237.003-2.171-.96-2.173-2.192v-2.392l10-6.212 10.004 6.212v.583l.002 1.7c.001 1.23-.994 2.306-2.239 2.309L18.228 17c-.833.002-1.639-.451-2.237-1.08-.604.625-1.412 1.078-2.237 1.08z"/><path d="M11 16v11h2V16z"/><path d="M30 28c-1.375 0-2.4-.387-4.06-1.646-1.903-1.441-3.284-1.954-5.455-1.954-2.171 0-3.557.512-5.465 1.954C13.353 27.612 12.35 28 10.55 28H2v2h8.951c2.171 0 3.302-.512 5.21-1.953 1.668-1.26 2.523-1.647 4.324-1.647 1.8 0 2.652.387 4.312 1.645C26.7 29.487 27.83 30 30 30v-2z"/></g></svg>