<svg width="32" height="32" xmlns="http://www.w3.org/2000/svg"><path d="M15.22 9.848c.142.277-.01.742-.292.888l-2.497 1.292-.122.17c-.418.578-.876 2.027.731 5.226 1.651 3.29 3.167 3.671 3.741 3.682l.223.004 2.506-1.297a.634.634 0 01.855.276l2.057 4.096c.144.287-.004.748-.289.895l-2.377 1.228c-.494.255-1.834.363-3.732-.853-1.42-.909-3.094-2.916-5.055-6.822C8.15 13.02 8.34 9.673 8.74 8.45c.28-.867.716-1.505 1.193-1.752l2.376-1.229a.619.619 0 01.485-.04c.164.053.29.162.369.318l2.058 4.102zM9.124 5.134c-.898.463-1.63 1.448-2.06 2.77-.465 1.432-.78 5.323 2.333 11.52 2.139 4.262 4.073 6.487 5.678 7.513 2.04 1.309 4.093 1.658 5.49.934l2.376-1.227a2.44 2.44 0 001.18-1.41 2.448 2.448 0 00-.125-1.837l-2.06-4.1A2.376 2.376 0 0020.54 18.1a2.385 2.385 0 00-1.838.15l-2.017 1.043c-.312-.149-1.087-.697-2.072-2.66-1.012-2.013-.974-2.964-.912-3.28l2.037-1.053c1.103-.573 1.61-2.149 1.053-3.245l-2.057-4.099a2.371 2.371 0 00-1.397-1.202 2.369 2.369 0 00-1.837.151L9.124 5.134z" fill="currentColor" fill-rule="evenodd"/></svg>