<svg width="32" height="32" xmlns="http://www.w3.org/2000/svg"><g fill="none" fill-rule="evenodd"><path d="M0 0h32v32H0z"/><path d="M23 5v14H4.219l.6 3h1.216a3.251 3.251 0 016.186 0h8.289a3.251 3.251 0 016.186 0H28v-2.817L25.306 12H24v-2h2.693L30 18.819V24h-3.304a3.25 3.25 0 01-6.186 0h-8.29a3.25 3.25 0 01-6.186 0H3.181l-1-5H2V5h21zm.603 16.75a1.25 1.25 0 100 2.5 1.25 1.25 0 000-2.5zm-14.475 0a1.25 1.25 0 100 2.5 1.25 1.25 0 000-2.5zM21 7H4v10h17V7zm-3 7v2h-2v-2h2zM8 14v2H6v-2h2zm5 0v2h-2v-2h2z" fill="currentColor" fill-rule="nonzero"/></g></svg>