<svg width="32" height="32" xmlns="http://www.w3.org/2000/svg"><g fill="currentColor" fill-rule="nonzero"><path d="M4 4v24h24V4H4zM2 2h28v28H2V2z"/><path d="M13.42 22.8c5.944 0 9.194-4.924 9.194-9.194 0-.09-.001-.178-.004-.267a.288.288 0 01.113-.238 6.555 6.555 0 001.279-1.283c.064-.085-.023-.202-.123-.164-.45.17-.924.29-1.416.357-.023.003-.035-.029-.015-.041a3.251 3.251 0 001.201-1.39.131.131 0 00-.18-.169 6.49 6.49 0 01-1.586.578.285.285 0 01-.258-.075 3.232 3.232 0 00-5.442 2.853.16.16 0 01-.169.188 9.17 9.17 0 01-6.262-3.139.198.198 0 00-.328.044 3.227 3.227 0 001.054 3.986c.024.018.011.057-.02.055a3.204 3.204 0 01-1.167-.301.131.131 0 00-.185.128 3.235 3.235 0 002.472 2.958c.028.006.027.047-.001.053a3.235 3.235 0 01-1.168.056.108.108 0 00-.116.144 3.237 3.237 0 002.678 2.054c.095.01.13.132.051.188a6.483 6.483 0 01-3.784 1.213H9.17c-.177 0-.237.237-.08.32A9.137 9.137 0 0013.42 22.8"/></g></svg>