<svg width="32" height="32" xmlns="http://www.w3.org/2000/svg"><g fill="currentColor" fill-rule="nonzero"><path d="M23.963 14.62c.346 1.043.537 2.203.537 3.38 0 5.81-4.705 10.5-10.5 10.5-5.775 0-10.5-4.725-10.5-10.5C3.5 12.19 8.205 7.5 14 7.5c3.094 0 5.981 1.35 7.993 3.672l1.511-1.31C21.117 7.107 17.681 5.5 14 5.5 7.102 5.5 1.5 11.083 1.5 18c0 6.88 5.62 12.5 12.5 12.5 6.898 0 12.5-5.583 12.5-12.5 0-1.394-.226-2.767-.657-4.058l-.31-.804-.249-.638h-8.588c-2.34 0-3.91-.545-4.89-1.42-.538-.479-.777-.927-.834-1.162l-1.944.47c.146.603.577 1.41 1.447 2.185 1.364 1.217 3.41 1.927 6.221 1.927h7.22l.047.12z"/><path d="M10.088 17.826c0-.181.135-.326.236-.326.1 0 .235.145.235.326h2c0-1.256-.998-2.326-2.235-2.326-1.238 0-2.236 1.07-2.236 2.326h2zM17.5 17.826c0-.181.135-.326.235-.326.1 0 .236.145.236.326h2c0-1.256-.998-2.326-2.236-2.326-1.237 0-2.235 1.07-2.235 2.326h2zM17.452 21.61a4.91 4.91 0 01-3.423 1.376 4.91 4.91 0 01-3.423-1.376l-1.389 1.438a6.91 6.91 0 004.812 1.938 6.91 6.91 0 004.813-1.938l-1.39-1.438zM20.212 5.15l.775-3.331-1.949-.453-.774 3.332zM24.355 7.426l2.132-2.698-1.569-1.24-2.132 2.698zM26.63 11.283l3.09-1.549-.897-1.788-3.09 1.55z"/></g></svg>