<svg width="32" height="32" xmlns="http://www.w3.org/2000/svg"><g fill="currentColor" fill-rule="nonzero"><path d="M27 16c0 6.075-4.925 11-11 11S5 22.075 5 16 9.925 5 16 5a10.97 10.97 0 018.341 3.829l1.516-1.305A12.97 12.97 0 0016 3C8.82 3 3 8.82 3 16s5.82 13 13 13 13-5.82 13-13c0-1.461-.242-2.891-.71-4.246l-.188-.496-.244-.645h-9.089c-2.43 0-4.1-.638-5.194-1.678-.367-.35-.64-.72-.833-1.086a2.348 2.348 0 01-.176-.401l-1.933.515c.174.653.646 1.547 1.564 2.42 1.473 1.403 3.64 2.23 6.572 2.23h7.7C26.818 13.68 27 14.827 27 16z"/><path d="M20.293 20.293A6.048 6.048 0 0116 22.068a6.048 6.048 0 01-4.293-1.775l-1.414 1.414A8.048 8.048 0 0016 24.068c2.127 0 4.176-.83 5.707-2.36l-1.414-1.415zM14.392 16.263h-2A.28.28 0 0012.13 16a.28.28 0 00-.263.263h-2c0-1.227 1.036-2.263 2.263-2.263 1.226 0 2.263 1.036 2.263 2.263M21.725 16.263h-2a.28.28 0 00-.263-.263.28.28 0 00-.263.263h-2c0-1.227 1.036-2.263 2.263-2.263 1.226 0 2.263 1.036 2.263 2.263"/></g></svg>