<?xml version="1.0" encoding="UTF-8"?>
<svg width="48px" height="48px" viewBox="0 0 48 48" version="1.1" xmlns="http://www.w3.org/2000/svg" xmlns:xlink="http://www.w3.org/1999/xlink">
    <!-- Generator: Sketch 50.2 (55047) - http://www.bohemiancoding.com/sketch -->
    <title>multicolor-bike-48</title>
    <desc>Created with Sketch.</desc>
    <defs></defs>
    <g id="multicolor-bike-48" stroke="none" stroke-width="1" fill="none" fill-rule="evenodd">
        <g id="Group" transform="translate(5.000000, 13.000000)" fill-rule="nonzero">
            <path d="M7.5,22.9563436 C3.35786438,22.9563436 0,19.5984792 0,15.4563436 C0,11.314208 3.35786438,7.95634362 7.5,7.95634362 C11.6421356,7.95634362 15,11.314208 15,15.4563436 C15,19.5984792 11.6421356,22.9563436 7.5,22.9563436 Z M7.5,20.9563436 C10.5375661,20.9563436 13,18.4939097 13,15.4563436 C13,12.4187775 10.5375661,9.95634362 7.5,9.95634362 C4.46243388,9.95634362 2,12.4187775 2,15.4563436 C2,18.4939097 4.46243388,20.9563436 7.5,20.9563436 Z" id="Oval-2" fill="#005C9C"></path>
            <path d="M30.5,22.9563436 C26.3578644,22.9563436 23,19.5984792 23,15.4563436 C23,11.314208 26.3578644,7.95634362 30.5,7.95634362 C34.6421356,7.95634362 38,11.314208 38,15.4563436 C38,19.5984792 34.6421356,22.9563436 30.5,22.9563436 Z M30.5,20.9563436 C33.5375661,20.9563436 36,18.4939097 36,15.4563436 C36,12.4187775 33.5375661,9.95634362 30.5,9.95634362 C27.4624339,9.95634362 25,12.4187775 25,15.4563436 C25,18.4939097 27.4624339,20.9563436 30.5,20.9563436 Z" id="Oval-2" fill="#005C9C"></path>
            <path d="M20.2029484,15.6760843 C19.9893005,15.6402518 19.7840462,15.541101 19.617317,15.378275 L10.4603981,6.43572281 L11.857764,5.00485992 L20.0557234,13.0109022 L22.6074911,6.72029137 L15.0116911,6.72029137 L15.0116911,4.72029137 L24.5895897,4.72029137 L33.0791159,15.9385814 L31.0349087,15.9117345 C27.3565205,15.8634256 24.6318013,15.8271936 22.8606807,15.8030373 C21.974873,15.7909558 21.3275106,15.7818938 20.9184148,15.7758486 C20.6410786,15.7716876 20.6410786,15.7716876 20.4813247,15.7690073 C20.4232764,15.7679466 20.4232764,15.7679466 20.386519,15.7670286 C20.3416864,15.7654605 20.3416864,15.7654605 20.20518,15.7463284 L20.2029484,15.6760843 Z M21.8995753,13.7896201 C22.1870428,13.7936227 22.5165075,13.7981572 22.8879561,13.8032233 C24.3131345,13.8226613 26.3561369,13.8499231 29.0169265,13.8850084 L24.3578219,7.72834129 C23.3235491,10.2812918 22.504148,12.3016829 21.8995753,13.7896201 Z" id="Path-4" fill="#005C9C"></path>
            <path d="M22.5,3.45634362 C21.9477153,3.45634362 21.5,3.00862837 21.5,2.45634362 C21.5,1.90405887 21.9477153,1.45634362 22.5,1.45634362 L27.0061703,1.45634362 C27.558455,1.45634362 28.0061703,1.90405887 28.0061703,2.45634362 C28.0061703,3.00862837 27.558455,3.45634362 27.0061703,3.45634362 L22.5,3.45634362 Z" id="Line-3" fill="#E30613"></path>
            <polygon id="Path-3" fill="#005C9C" points="13.7362626 2 7.92570296 16.3463237 6.07197629 15.5955258 12.3884888 0 17.3642893 0 17.3642893 2"></polygon>
        </g>
    </g>
</svg>