<?xml version="1.0" encoding="UTF-8"?>
<svg width="48px" height="48px" viewBox="0 0 48 48" version="1.1" xmlns="http://www.w3.org/2000/svg" xmlns:xlink="http://www.w3.org/1999/xlink">
    <!-- Generator: Sketch 40.2 (33826) - http://www.bohemiancoding.com/sketch -->
    <title>multicolor-dog-right-48</title>
    <desc>Created with Sketch.</desc>
    <defs></defs>
    <g id="Page-1" stroke="none" stroke-width="1" fill="none" fill-rule="evenodd">
        <g id="multicolor-dog-right-48">
            <g id="multicolor-dog-right-48-crop" transform="translate(24.500000, 24.000000) scale(-1, 1) translate(-24.500000, -24.000000) translate(4.000000, 2.000000)">
                <path d="M19.7526027,37.8666667 C16.2990876,37.1101048 13.9863772,33.9909326 14.3760872,30.6153144 C14.7657973,27.2396962 17.7340226,24.6808829 21.2765228,24.6666667 C22.7710869,24.6856462 24.2244477,25.1390547 25.4444444,25.9669434" id="Shape" stroke="#E30613" stroke-width="2"></path>
                <path d="M10,40 L5,40 C5,40 4,40 3.78337898,40.2302719 C3.56675797,40.4605438 3,41 3,41.9783947 C3,42.9567894 3,44 3,44 L12,44" id="Shape" stroke="#005AA0" stroke-width="2"></path>
                <path d="M11.3703704,12.3064125 C9.78869293,13.1873215 7.90545397,13.4289131 6.13717908,12.9777534 C4.36890419,12.5265938 2.86131011,11.419861 1.94783912,9.90233697 C1.18444908,8.69140389 0.868289407,7.27015529 1.05009595,5.86666667" id="Shape" stroke="#005AA0" stroke-width="2"></path>
                <ellipse id="Oval" stroke="#005AA0" cx="1.24074074" cy="4.03333352" rx="0.740740741" ry="0.733333333"></ellipse>
                <path d="M17.5135453,8.36472562 L17.5135453,10.6222693 C17.5135453,12.4509195 18.9572967,13.9333333 20.7382542,13.9333333 C22.5192117,13.9333333 23.962963,12.4509195 23.962963,10.6222693 L23.962963,9.11724018 C23.6206757,5.02941589 20.8745652,1.57419713 17.0428489,0.410195156 C13.2111327,-0.753806819 9.45332755,0.761429934 7,4 L3,4" id="Shape" stroke="#005AA0" stroke-width="2"></path>
                <path d="M8,16 L8,38" id="Shape" stroke="#005AA0" stroke-width="2" fill="#000000"></path>
                <path d="M41,28.6 C40.9873086,33.0498822 37.3466824,36.6541022 32.8518519,36.6666667" id="Shape" stroke="#005AA0" stroke-width="2"></path>
                <path d="M16,40.0035569 L14.1148887,40.0035569 C13.5811009,39.995638 13.0668284,40.2020894 12.6893411,40.5758336 C12.3118538,40.9495779 12.1033348,41.2715051 12.111333,41.8 L12.111333,44 L30.7965081,44 C34.6492774,32.980774 30.4239683,22.4276443 20,17" id="Shape" stroke="#005AA0" stroke-width="2"></path>
            </g>
        </g>
    </g>
</svg>