<?xml version="1.0" encoding="UTF-8"?>
<svg width="48px" height="48px" viewBox="0 0 48 48" version="1.1" xmlns="http://www.w3.org/2000/svg" xmlns:xlink="http://www.w3.org/1999/xlink">
    <!-- Generator: Sketch 50.2 (55047) - http://www.bohemiancoding.com/sketch -->
    <title>multicolor-moose-48</title>
    <desc>Created with Sketch.</desc>
    <defs></defs>
    <g id="multicolor-moose-48" stroke="none" stroke-width="1" fill="none" fill-rule="evenodd">
        <g transform="translate(4.000000, 7.000000)" fill-rule="nonzero">
            <path d="M5.42557066,16.3862861 C5.29527658,16.3477802 5.2261546,16.3275818 5.14605558,16.3048822 C3.82186813,15.9296147 2.91740723,15.966653 2.06516627,16.775163 C1.93460502,16.8802026 1.78272177,17.0337665 1.63491903,17.2405994 C0.974523809,18.1647464 0.974523809,19.3698649 1.95591805,20.5967104 C4.4072475,23.2647841 9.44563217,22.9050098 13.5804484,19.8840444 L12.5561854,18.4749299 C9.05787635,21.0308526 4.98564093,21.3216374 3.27352359,19.4602725 C2.83161929,18.9045317 2.83161929,18.5597926 3.04867103,18.2560538 C3.09931823,18.1851789 3.14464858,18.1417613 3.14932365,18.1383157 L3.24125789,18.0601643 C3.53759194,17.7705565 3.86825989,17.7546714 4.67299222,17.9827282 C4.74499918,18.0031346 4.80951926,18.0219881 4.93383613,18.0587277 C6.02320564,18.380671 6.5010903,18.4603894 7.16975898,18.2766999 C8.75109296,17.8422926 8.8491233,16.5533878 7.90573527,15.2297934 C7.37612569,14.4867394 6.82359767,13.9306296 5.03765875,12.2459563 C4.92207663,12.1368954 4.92207663,12.1368954 4.80698201,12.0280604 C3.3168343,10.6178545 2.57654555,9.81888798 2.24221304,9.19018657 C2.0441644,8.81776252 2.00459578,8.8212633 2.57233085,8.73698715 C2.58937295,8.74857906 2.60834837,8.76197628 2.62900595,8.77714237 C2.79832418,8.90145012 3.02792127,9.10496043 3.31448454,9.38500047 C3.76697048,9.82718616 3.7196875,9.77689258 5.31662323,11.4945525 C5.43158325,11.6181332 5.43158325,11.6181332 5.54690795,11.7417277 C7.88179853,14.2416463 8.76014096,15.0133667 9.76628504,14.8019785 C10.9695287,14.5491802 11.6359543,13.8261741 11.641145,12.7779242 C11.6442752,12.1458056 11.4927833,11.6885168 10.9942367,10.4954205 C10.9559463,10.4037451 10.9559463,10.4037451 10.918379,10.3132466 C10.8810496,10.2228415 10.8810496,10.2228415 10.8448541,10.1338309 L9.23327096,10.789246 C9.27264878,10.8860802 9.27264878,10.8860802 9.31212617,10.9816846 C9.35131087,11.0760783 9.35131087,11.0760783 9.390178,11.1691333 C9.78143148,12.1054613 9.90349852,12.4739292 9.90203609,12.7692682 C9.90115261,12.9476724 9.85027591,13.0028685 9.40958104,13.0954574 C9.52725687,13.070734 9.51733774,13.0677178 9.44070704,13.0227559 C9.26799374,12.9214191 9.03800148,12.7461235 8.76091557,12.502673 C8.2627719,12.064999 7.67733389,11.4717819 6.81637655,10.5499729 C6.70264398,10.4280846 6.70264398,10.4280846 6.58880622,10.3057105 C6.47051216,10.1784737 6.06665105,9.74303852 6.04848854,9.72347439 C5.83454472,9.49302083 5.6733269,9.32012743 5.51893952,9.15590969 C5.1239931,8.73581572 4.80900207,8.41063668 4.52840388,8.13642591 C3.60780161,7.23677982 3.13223264,6.88763303 2.5025001,6.98442773 C0.587509943,7.27877636 -0.0941778652,8.50282022 0.707566977,10.0104753 C1.16724244,10.8748799 1.96763928,11.738719 3.6131962,13.2959969 C3.7296185,13.4060874 3.7296185,13.4060874 3.84591532,13.5158225 C5.52152321,15.0964207 6.05803359,15.6364091 6.49074003,16.2435058 C6.59507616,16.3898917 6.66627702,16.5101878 6.71028225,16.5950631 C6.47614719,16.6593822 6.18572071,16.6109346 5.42557066,16.3862861 Z" id="Path-9" fill="#005AA0"></path>
            <path d="M17.0354095,12.3477532 C15.6002354,11.4048291 14.5684931,10.3354775 13.8484139,9.13225057 C12.9870663,7.69296927 12.7594903,6.7890368 12.3419121,4.0741446 C12.1437923,2.78606568 11.9755949,2.1800792 11.5372453,1.64966687 C9.91957452,-0.307748916 7.78852954,0.265014174 7.02213183,2.30856615 C6.5098568,3.67451576 6.59311385,3.95701484 8.8433193,9.94417746 L10.4707517,9.32938528 C8.52964234,4.16464032 8.37756519,3.64862809 8.64999792,2.92220308 C8.97633957,2.05203342 9.49585383,1.91240303 10.1980638,2.76209195 C10.3569853,2.95439032 10.4758837,3.38276101 10.6230975,4.33987343 C11.0752869,7.27979022 11.3393541,8.32866626 12.3571161,10.0293105 C13.2130632,11.4595677 14.4293205,12.7201605 16.0821601,13.8060929 L17.0354095,12.3477532 Z" id="Path-9" fill="#E30613"></path>
            <path d="M34.9518856,15.438352 C34.8583397,15.4628794 34.777508,15.4849591 34.626119,15.5269395 C33.8421751,15.744328 33.5432581,15.7903812 33.2990686,15.7233001 C33.1467243,15.6814497 33.1805431,15.7122826 33.1915592,15.7982714 C33.1878603,15.7693988 33.255439,15.5856126 33.4415996,15.301859 C33.847469,14.6832162 34.3959089,14.0985973 35.9757015,12.5318325 C36.0521001,12.4560534 36.0521001,12.4560534 36.128586,12.38011 C37.6676008,10.8514404 38.3927145,10.0466875 38.8646471,9.21926573 C39.668559,7.8097972 39.2908663,6.54334825 37.6353499,6.12857383 C36.4240602,5.82509634 35.1759041,6.65006034 33.441654,8.40642149 C33.1252123,8.72689769 32.7955996,9.07654942 32.416055,9.49138394 C32.145308,9.78730495 31.2752412,10.75423 31.2116718,10.8243188 C30.8419285,11.2319811 30.5653824,11.5276508 30.3301616,11.7634502 C30.4256277,10.9836949 30.6936566,9.74711738 31.1386471,8.04228697 C31.1847246,7.86600518 31.1847246,7.86600518 31.2310186,7.68960528 C32.1575185,4.16137561 32.342746,3.29641645 32.1666396,2.43946365 C31.8556089,0.925955181 30.0462579,-0.127865435 28.2145239,1.00087016 C27.4404185,1.47788277 27.2179463,2.24316192 26.9391029,4.23957948 C26.9174932,4.39429704 26.8420419,4.94815451 26.8292591,5.04066778 C26.7844828,5.36472989 26.7468961,5.62396022 26.7072298,5.87759541 C26.6068726,6.51930202 26.5003783,7.07248195 26.3712142,7.59525827 C25.8504846,9.70284808 24.9806786,11.1797498 23.5285049,12.0814604 C23.4080459,12.0213192 23.272955,11.9595615 23.1239181,11.8984937 C21.5036525,11.234592 19.6629574,11.234592 17.8166252,12.3346595 L18.7051139,13.8335389 C20.0360245,13.040566 21.3142278,13.040566 22.4659643,13.5124885 C22.7467389,13.6275355 22.939275,13.737303 23.022014,13.7959501 L23.4519119,14.1006704 L23.9204907,13.8600004 C26.1339265,12.7231427 27.3825437,10.7536791 28.0593254,8.01448744 C28.20204,7.43686727 28.317752,6.83580622 28.4253693,6.14767691 C28.4668815,5.88223848 28.5058596,5.613412 28.5519394,5.27991654 C28.5651077,5.18461315 28.6403178,4.63252561 28.6614292,4.48137525 C28.7685,3.71478725 28.848596,3.26811292 28.9487635,2.92354848 C29.0341346,2.62988167 29.1121713,2.49433311 29.1251925,2.48630933 C29.8303046,2.05181113 30.3767182,2.37005891 30.4632857,2.79130558 C30.5531113,3.22840635 30.32765,4.28124561 29.5491961,7.24569726 C29.5026614,7.42301425 29.5026614,7.42301425 29.4561708,7.60087626 C28.5511903,11.068002 28.307437,12.5191391 28.8016618,13.4827594 C29.1439955,14.1502281 29.8250301,14.2261585 30.4207206,13.9200908 C30.7175783,13.7675644 31.0315288,13.5125873 31.4197368,13.134858 C31.7136669,12.8488621 32.0404395,12.5022477 32.4983838,11.9973389 C32.566341,11.9224123 33.432791,10.9595066 33.6976731,10.6699959 C34.0634703,10.2701869 34.3786715,9.93582305 34.6776044,9.63307877 C35.9431325,8.35141561 36.8752384,7.73534379 37.2137076,7.82014412 C37.6466781,7.92862092 37.6297573,7.87188337 37.3549187,8.35374761 C36.992821,8.98860005 36.3178503,9.7377027 34.90457,11.1414829 C34.8287028,11.2168121 34.8287028,11.2168121 34.7526347,11.2922634 C33.0615593,12.9693931 32.491735,13.5768072 31.9886015,14.3437039 C31.1027303,15.6939847 31.2665623,16.972811 32.8394759,17.404905 C33.5053923,17.5878386 33.9836317,17.5141576 35.0897409,17.2074323 C35.233587,17.1675437 35.3085872,17.1470569 35.3919138,17.1252089 C36.1849205,16.9172855 36.5392432,16.9360104 36.8402744,17.2097963 L36.9094824,17.2665209 C36.9141575,17.2699665 36.9594878,17.313384 37.010135,17.3842589 C37.2271868,17.6879978 37.2271868,18.0327368 36.7461694,18.6340588 C34.4463443,21.0868543 30.3370863,20.2845389 27.7066633,16.9000602 L26.3348194,17.9717346 C29.559036,22.120228 34.8897293,23.1610236 38.0585718,19.7761038 C39.0842823,18.49807 39.0842823,17.2929515 38.423887,16.3688046 C38.2708532,16.1546515 38.113445,15.9976046 37.9798585,15.8923975 C37.1362907,15.1423919 36.2431356,15.0997911 34.9518856,15.438352 Z" id="Path-9" fill="#005AA0"></path>
            <path d="M19.5394509,19.8204171 C19.5394509,18.7442228 18.6692543,17.8717949 17.5958124,17.8717949 C16.5223705,17.8717949 15.6521739,18.7442228 15.6521739,19.8204171 L17.3913043,19.8204171 C17.3913043,19.7071808 17.4828657,19.6153846 17.5958124,19.6153846 C17.708759,19.6153846 17.8003204,19.7071808 17.8003204,19.8204171 L19.5394509,19.8204171 Z" id="Oval-4" fill="#005AA0"></path>
            <path d="M25.6264074,19.8204171 C25.6264074,18.7442228 24.7562108,17.8717949 23.682769,17.8717949 C22.609327,17.8717949 21.7391304,18.7442228 21.7391304,19.8204171 L23.4782609,19.8204171 C23.4782609,19.7071808 23.5698223,19.6153846 23.682769,19.6153846 C23.7957156,19.6153846 23.887277,19.7071808 23.887277,19.8204171 L25.6264074,19.8204171 Z" id="Oval-4" fill="#005AA0"></path>
            <path d="M27.8286345,24.5878589 C27.9426613,24.3080814 28.0843196,23.9118094 28.2249003,23.4274126 C28.5678432,22.2457397 28.7480056,21.0472464 28.6745141,19.9029488 C28.6016982,18.7691692 28.279469,17.7563029 27.6572063,16.9161588 L26.2609322,17.9556361 C26.6659384,18.5024527 26.8863282,19.1952061 26.9389777,20.0149843 C26.9976917,20.9291923 26.8461947,21.9369958 26.5550193,22.9402943 C26.4674485,23.2420356 26.3737421,23.5199784 26.2805555,23.7665854 C26.2261078,23.9106746 26.1853384,24.0092553 26.1649786,24.0549983 L26.0895041,24.2245689 L26.0895041,30.5128205 L26.0943336,30.6045745 C26.097772,30.6833847 26.0234253,30.8992332 25.7206104,31.1716988 C24.9970497,31.8227414 23.459567,32.2564103 20.8695652,32.2564103 L20.8695652,34 C23.8494592,34 25.7890898,33.4528996 26.8822205,32.4693269 C27.6057815,31.8182841 27.8591713,31.0892461 27.8286345,30.4853135 L27.8286345,24.5878589 Z" id="Path-7-Copy" fill="#005AA0"></path>
            <path d="M13.9052593,30.4853135 C13.8747224,31.0892461 14.1281123,31.8182841 14.8516733,32.4693269 C15.944804,33.4528996 17.8844345,34 20.8643286,34 L20.8643286,32.2564103 C18.2743268,32.2564103 16.7368442,31.8227414 16.0132833,31.1716988 C15.7104684,30.8992332 15.6361218,30.6833847 15.6421923,30.5729637 C15.6414103,30.5854525 15.6443897,30.5128205 15.6443897,30.5128205 L15.6443897,24.2245689 L15.5689152,24.0549983 C15.5485554,24.0092553 15.507786,23.9106746 15.4533383,23.7665854 C15.3601517,23.5199784 15.2664453,23.2420356 15.1788745,22.9402943 C15.070669,22.5674525 14.9799086,22.1854168 14.9123593,21.8013039 L13.1996449,22.1040451 C13.2786767,22.5534521 13.3839183,22.996443 13.5089935,23.4274126 C13.6495743,23.9118094 13.7912325,24.3080814 13.9052593,24.5878589 L13.9052593,30.4853135 Z" id="Path-7-Copy-2" fill="#005AA0"></path>
        </g>
    </g>
</svg>