<?xml version="1.0" encoding="UTF-8"?>
<svg width="48px" height="48px" viewBox="0 0 48 48" version="1.1" xmlns="http://www.w3.org/2000/svg" xmlns:xlink="http://www.w3.org/1999/xlink">
    <!-- Generator: Sketch 50.2 (55047) - http://www.bohemiancoding.com/sketch -->
    <title>multicolor-car-48</title>
    <desc>Created with Sketch.</desc>
    <defs></defs>
    <g id="multicolor-car-48" stroke="none" stroke-width="1" fill="none" fill-rule="evenodd">
        <g id="icon-damage-vehicle-48-crop" transform="translate(5.000000, 10.000000)">
            <path d="M7,14.4998 C7,15.3260273 7.6737541,15.9998 8.5,15.9998 C9.3262459,15.9998 10,15.3260273 10,14.4998 C10,13.6735727 9.3262459,12.9998 8.5,12.9998 C7.6737541,12.9998 7,13.6735727 7,14.4998 Z" id="Fill-2" stroke="#005AA0" stroke-width="2"></path>
            <path d="M28,14.4998 C28,15.3260273 28.6737541,15.9998 29.5,15.9998 C30.3262459,15.9998 31,15.3260273 31,14.4998 C31,13.6735727 30.3262459,12.9998 29.5,12.9998 C28.6737541,12.9998 28,13.6735727 28,14.4998 Z" id="Fill-4" stroke="#005AA0" stroke-width="2"></path>
            <polygon id="Line" fill="#005AA0" fill-rule="nonzero" points="10 8.02702703 10 10.027027 29.8581072 10.027027 26.3034585 4.47075556 24.6187278 5.54856933 26.2043318 8.02702703"></polygon>
            <path d="M36.0001,12 C36.0001,12.025 35.6671,12.033 35.2221,12.033 C34.3331,12.033 33.0001,12 33.0001,12 L34.0441,16 L34.0001,19 L30.0001,19 L30.0001,21 L34.0001,21 L34.0001,23 L33.0001,23 L33.0001,26 L30.0001,26 L30.0001,23 L8.0001,23 L8.0001,26 L5.0001,26 L5.0001,23 L4.0001,23 L4.0001,21 L21.0001,21 L21.0001,19 L4.0001,19 L4.0001,16 L5.0001,12 C5.0001,12 3.6671,12.033 2.7781,12.033 C2.3331,12.033 2.0001,12.025 2.0001,12 L2.0001,11 C2.0001,10.032 6.0001,10 6.0001,10 L10.0001,4 C10.0001,4 10.9998975,2.00455976 19,2 C27.0208333,2 28.0001,4 28.0001,4 L32.0001,10 C32.0001,10 36.0001,10.032 36.0001,11 L36.0001,12 Z M29.6641,3 C28.8541667,1.79166667 26.6666667,7.10542736e-15 19,3.55271368e-15 C12.3750025,0.00397182106 9.125,1.6875 8.2321,3 C7.3392,4.3125 4.9171,8.019 4.9171,8.019 C2.74882651,8.08826524 0.0001,8.661 0.0001,11 L0.0001,12 C0.0001,12.672 0.4491,13.961 2.1471,14.025 C2.2271,14.028 2.3231,14.03 2.4311,14.031 L2.0601,15.515 L2.0001,15.754 L2.0001,16 L2.0001,19 L2.0001,21 L2.0001,23 C2.0001,23.7552959 2.38245237,24.4124782 3,24.7527935 L3.0001,26 C3.0001,27.105 3.8951,28 5.0001,28 L8.0001,28 C9.1051,28 10.0001,27.105 10.0001,26 L10.0001,25 L28.0001,25 L28.0001,26 C28.0001,27.105 28.8951,28 30.0001,28 L33.0001,28 C34.1051,28 35.0001,27.105 35.0001,26 L35,24.7154667 C35.581801,24.3658222 36.0001,23.7285558 36.0001,23 L36.0001,21 C36.0001,20.96 35.9901,20.922 35.9881,20.882 L36.0001,19.013 L36,16.013 L36,15.749 L35.9500008,15.495 L35.5691,14.031 C35.6771,14.03 35.7731,14.028 35.8531,14.025 C37.5511,13.961 38.0001,12.672 38.0001,12 L38.0001,11 C38.0001,8.661 35.3156045,8.09031709 33.0831,8.019 L29.6641,3 Z" id="Fill-6" fill="#005AA0"></path>
            <polygon id="Line-2" fill="#E30613" fill-rule="nonzero" points="23 21 28 21 28 19 23 19"></polygon>
        </g>
    </g>
</svg>