<?xml version="1.0" encoding="UTF-8"?>
<svg width="24px" height="24px" viewBox="0 0 24 24" version="1.1" xmlns="http://www.w3.org/2000/svg" xmlns:xlink="http://www.w3.org/1999/xlink">
    <!-- Generator: Sketch 53.2 (72643) - https://sketchapp.com -->
    <title>Icons/24px/bankid-mc-24</title>
    <desc>Created with Sketch.</desc>
    <g id="Icons/24px/bankid-mc-24" stroke="none" stroke-width="1" fill="none" fill-rule="evenodd">
        <rect id="invisible-24" x="0" y="0" width="24" height="24"></rect>
        <g id="bankid_vector_rgb" transform="translate(2.000000, 3.000000)" fill-rule="nonzero">
            <path d="M6.20958084,9.55738576 L7,4.69447396 C6.68862275,4.69447396 6.15568862,4.69447396 6.15568862,4.69447396 C5.76047904,4.69447396 5.25149701,4.47821467 5.10179641,4.08076514 C5.05389222,3.94633369 4.94011976,3.48459086 5.59281437,3.03453773 C5.82634731,2.87672689 5.9760479,2.70138151 6.00598802,2.56695005 C6.03592814,2.42667375 6,2.30393199 5.89820359,2.21041445 C5.75449102,2.075983 5.47305389,2 5.11377246,2 C4.50898204,2 4.08383234,2.33900106 4.04191617,2.58448459 C4.01197605,2.76567481 4.15568862,2.91179596 4.28143713,3.0053135 C4.65868263,3.28002125 4.74850299,3.67747078 4.51497006,4.05154091 C4.2754491,4.43730074 3.75449102,4.68862912 3.19760479,4.69447396 C3.19760479,4.69447396 2.64670659,4.69447396 2.33532934,4.69447396 C2.26347305,5.16790648 1.08982036,12.4272051 1,13 L5.67664671,13 C5.71856287,12.7428268 5.93413174,11.369288 6.22754491,9.55738576 L6.20958084,9.55738576 Z" id="Path" fill="#479CBE"></path>
            <path d="M12.8068041,0 L7.68315342,0 L7,4.06930233 L7.87005389,4.06930233 C8.34697232,4.06930233 8.79811137,3.86372093 8.99145668,3.56744186 C9.05590512,3.47069767 9.08168449,3.38604651 9.08168449,3.30744186 C9.08168449,3.13813953 8.95923246,3.01116279 8.83678043,2.92651163 C8.50164856,2.69069767 8.43075528,2.4427907 8.43075528,2.26744186 C8.43075528,2.23116279 8.43075528,2.20093023 8.43720013,2.17069767 C8.50809341,1.74139535 9.1267984,1.27581395 9.94529354,1.27581395 C10.4351017,1.27581395 10.8089026,1.38465116 11.0344721,1.58418605 C11.2342623,1.75953488 11.3116004,2.00744186 11.2535968,2.26744186 C11.1827035,2.57581395 10.8540165,2.82976744 10.667116,2.95674419 C10.1708631,3.28325581 10.2353115,3.56744186 10.2675357,3.65209302 C10.3706532,3.90604651 10.7637887,4.06930233 11.0666963,4.06930233 L12.3878893,4.06930233 C12.3878893,4.06930233 12.3878893,4.06930233 12.3878893,4.07534884 C14.1924455,4.08744186 15.159172,4.86744186 14.8562644,6.68139535 C14.5726913,8.36837209 13.1934947,9.09395349 11.5500596,9.10604651 L10.8991304,13 L11.8594121,13 C15.9132187,13 19.2258684,10.5572093 19.8767976,6.69953488 C20.682403,1.91069767 17.4470915,0 12.8068041,0 Z" id="Path" fill="#00A5C3"></path>
            <path d="M12.8068041,0 L7.68315342,0 L7,4.06930233 L7.87005389,4.06930233 C8.34697232,4.06930233 8.79811137,3.86372093 8.99145668,3.56744186 C9.05590512,3.47069767 9.08168449,3.38604651 9.08168449,3.30744186 C9.08168449,3.13813953 8.95923246,3.01116279 8.83678043,2.92651163 C8.50164856,2.69069767 8.43075528,2.4427907 8.43075528,2.26744186 C8.43075528,2.23116279 8.43075528,2.20093023 8.43720013,2.17069767 C8.50809341,1.74139535 9.1267984,1.27581395 9.94529354,1.27581395 C10.4351017,1.27581395 10.8089026,1.38465116 11.0344721,1.58418605 C11.2342623,1.75953488 11.3116004,2.00744186 11.2535968,2.26744186 C11.1827035,2.57581395 10.8540165,2.82976744 10.667116,2.95674419 C10.1708631,3.28325581 10.2353115,3.56744186 10.2675357,3.65209302 C10.3706532,3.90604651 10.7637887,4.06930233 11.0666963,4.06930233 L12.3878893,4.06930233 C12.3878893,4.06930233 12.3878893,4.06930233 12.3878893,4.07534884 C14.1924455,4.08744186 15.159172,4.86744186 14.8562644,6.68139535 C14.5726913,8.36837209 13.1934947,9.09395349 11.5500596,9.10604651 L10.8991304,13 L11.8594121,13 C15.9132187,13 19.2258684,10.5572093 19.8767976,6.69953488 C20.682403,1.91069767 17.4470915,0 12.8068041,0 Z" id="Path" fill="#235971"></path>
            <g id="Group" transform="translate(0.000000, 15.000000)" fill="#235971">
                <path d="M0.539863562,0.0121921182 L2.51936329,0.0121921182 C3.36328794,0.0121921182 3.56806377,0.432820197 3.50601049,0.816871921 C3.45636786,1.12777094 3.23918137,1.35942118 2.86686167,1.51182266 C3.33846662,1.68860837 3.52462647,1.96293103 3.45636786,2.39575123 C3.36949327,2.93830049 2.89168299,3.34064039 2.26494483,3.34064039 L0.0124106566,3.34064039 L0.539863562,0.0121921182 Z M1.84918783,1.38990148 C2.23391819,1.38990148 2.41387271,1.18873153 2.45110468,0.950985222 C2.48833665,0.694950739 2.37043541,0.518165025 1.98570505,0.518165025 L1.644412,0.518165025 L1.50789478,1.38990148 L1.84918783,1.38990148 L1.84918783,1.38990148 Z M1.63820667,2.82857143 C2.03534768,2.82857143 2.26494483,2.67007389 2.32079278,2.34698276 C2.36423008,2.06656404 2.20289155,1.90197044 1.81816119,1.90197044 L1.42722551,1.90197044 L1.27829763,2.83466749 L1.63820667,2.83466749 L1.63820667,2.82857143 Z" id="Shape"></path>
                <path d="M6.23014961,3.36502463 C5.71510736,3.40160099 5.46689423,3.34673645 5.34278766,3.12727833 C5.06975322,3.29187192 4.76569213,3.37721675 4.44301506,3.37721675 C3.8597142,3.37721675 3.65493837,3.07850985 3.71078632,2.74932266 C3.73560763,2.59082512 3.82868756,2.43842365 3.97761544,2.3104064 C4.30029251,2.03608374 5.09457453,1.99950739 5.40484095,1.79224138 C5.42966226,1.56059113 5.33658234,1.47524631 5.04493191,1.47524631 C4.70363885,1.47524631 4.41819375,1.58497537 3.92797281,1.91416256 L4.04587405,1.15825123 C4.46783637,0.859544335 4.87738804,0.719334975 5.34899299,0.719334975 C5.95090984,0.719334975 6.48456807,0.96317734 6.38528282,1.60935961 L6.26738158,2.3408867 C6.22394428,2.59692118 6.23635494,2.67616995 6.52800537,2.68226601 L6.23014961,3.36502463 Z M5.33658234,2.21896552 C5.06354789,2.38965517 4.55471097,2.35917488 4.49886302,2.71274631 C4.4740417,2.8773399 4.57953228,2.99926108 4.74707615,2.99926108 C4.90841468,2.99926108 5.10698519,2.93220443 5.26832372,2.82247537 C5.25591307,2.76151478 5.2621184,2.70055419 5.28073438,2.58472906 L5.33658234,2.21896552 Z" id="Shape"></path>
                <path d="M7.1919755,0.762007389 L8.22205999,0.762007389 L8.16621204,1.09729064 C8.49509444,0.82296798 8.74330757,0.719334975 9.06598464,0.719334975 C9.64308017,0.719334975 9.90990929,1.06681034 9.81682937,1.63374384 L9.55000025,3.33454433 L8.51991575,3.33454433 L8.74330757,1.92635468 C8.78674487,1.6703202 8.7060756,1.54839901 8.50750509,1.54839901 C8.34616656,1.54839901 8.19723868,1.63374384 8.05451613,1.82272167 L7.81871365,3.32844828 L6.78862916,3.32844828 L7.1919755,0.762007389 Z" id="Path"></path>
                <polygon id="Path" points="10.6173167 0.0121921182 11.6474012 0.0121921182 11.3867774 1.64593596 12.3734246 0.762007389 13.6455169 0.762007389 12.37963 1.85929803 13.3973038 3.33454433 12.1003902 3.33454433 11.3185188 2.14581281 11.3061082 2.14581281 11.1199483 3.33454433 10.0898638 3.33454433"></polygon>
            </g>
            <g id="Group" transform="translate(14.000000, 15.000000)" fill="#479CBE">
                <polygon id="Path" points="0.558258581 0.0124137931 1.75631913 0.0124137931 1.22942339 3.39517241 0.0313628416 3.39517241"></polygon>
                <path d="M2.33966799,0.0124137931 L4.05207914,0.0124137931 C5.37559106,0.0124137931 5.75821773,0.962068966 5.63276636,1.75034483 C5.51358756,2.52 4.89887586,3.39517241 3.73845072,3.39517241 L1.80649968,3.39517241 L2.33966799,0.0124137931 Z M3.44991258,2.58827586 C4.03326144,2.58827586 4.35316242,2.30275862 4.44725094,1.70068966 C4.5162492,1.2537931 4.37825269,0.813103448 3.73217816,0.813103448 L3.41227717,0.813103448 L3.13628416,2.58827586 L3.44991258,2.58827586 L3.44991258,2.58827586 Z" id="Shape"></path>
            </g>
        </g>
    </g>
</svg>