<?xml version="1.0" encoding="UTF-8"?>
<svg width="24px" height="24px" viewBox="0 0 24 24" version="1.1" xmlns="http://www.w3.org/2000/svg" xmlns:xlink="http://www.w3.org/1999/xlink">
    <!-- Generator: Sketch 50.2 (55047) - http://www.bohemiancoding.com/sketch -->
    <title>car-multicolor-24</title>
    <desc>Created with Sketch.</desc>
    <defs></defs>
    <g id="car-multicolor-24" stroke="none" stroke-width="1" fill="none" fill-rule="evenodd">
        <g transform="translate(0.000000, 2.000000)">
            <path d="M20,7.00000621 L17.4999,3.00000621 C17.4999,3.00000621 17.062434,1.99712076 11.9999,2.00000621 C6.93736602,2.00289167 6.4999,3.00000621 6.4999,3.00000621 L4,7.00000621 L3,11.0000062 L3,16.5 C3,17.25 3.4998233,17.5 3.99977793,17.5 C4.49973255,17.5 5,17.09375 5,16.5 L5,15.0000062 L19,15.0000062 L19,16.5 C19,17.03125 19.4999204,17.5 19.9999,17.5 C20.4998796,17.5 21,17.0625 21,16.5 L21.044,11.0000062 L20,7.00000621 Z M23,16.5 C23,18.165776 21.6075561,19.5 19.9999,19.5 C18.561368,19.5 17.2928847,18.4046268 17.0440914,17.001168 L6.95807523,17.0046963 C6.71488573,18.4486559 5.44597134,19.5 3.99977793,19.5 C2.36764891,19.5 1,18.3599946 1,16.5 L1,10.753795 L2.13640436,6.2081775 L4.77365797,1.98840294 C5.12013254,1.3870629 5.77405836,0.920769777 6.71847849,0.603889258 C7.88052809,0.2139877 9.58868075,0.00138019519 11.9987601,6.53936487e-06 C14.4164452,-0.0013714515 16.1285365,0.211886643 17.2922221,0.605396937 C18.23094,0.92283246 18.8816285,1.38960581 19.226591,1.98911747 L21.8579815,6.19917387 L23.0477683,10.7577437 L23.0437849,11.0293364 L23,16.5 Z" id="Fill-6" fill="#005AA0" fill-rule="nonzero"></path>
            <polygon id="Line" fill="#005AA0" fill-rule="nonzero" points="14.4909541 3.95107949 16.2727255 3.04262433 18.2904357 7 7 7 7 5 15.0257575 5"></polygon>
            <polygon id="Line-3" fill="#005AA0" fill-rule="nonzero" points="2 14 2 12 9 12 9 14"></polygon>
            <polygon id="Line-3" fill="#005AA0" fill-rule="nonzero" points="15 14 15 12 22 12 22 14"></polygon>
            <polygon id="Line-3" fill="#E30613" fill-rule="nonzero" points="10 14 10 12 14 12 14 14"></polygon>
            <path d="M1,8 C0.44771525,8 0,7.55228475 0,7 C0,6.44771525 0.44771525,6 1,6 L2.5,6 C3.05228475,6 3.5,6.44771525 3.5,7 C3.5,7.55228475 3.05228475,8 2.5,8 L1,8 Z" id="Line" fill="#005AA0" fill-rule="nonzero"></path>
            <path d="M21.5,8 C20.9477153,8 20.5,7.55228475 20.5,7 C20.5,6.44771525 20.9477153,6 21.5,6 L23,6 C23.5522847,6 24,6.44771525 24,7 C24,7.55228475 23.5522847,8 23,8 L21.5,8 Z" id="Line" fill="#005AA0" fill-rule="nonzero"></path>
            <circle id="Oval-6" fill="#005AA0" cx="6.5" cy="9.5" r="1.5"></circle>
            <circle id="Oval-6" fill="#005AA0" cx="17.5" cy="9.5" r="1.5"></circle>
        </g>
    </g>
</svg>