<?xml version="1.0" encoding="UTF-8"?>
<svg width="84px" height="50px" viewBox="0 0 84 50" version="1.1" xmlns="http://www.w3.org/2000/svg" xmlns:xlink="http://www.w3.org/1999/xlink">
    <!-- Generator: Sketch 53 (72520) - https://sketchapp.com -->
    <title>adults</title>
    <desc>Created with Sketch.</desc>
    <g id="adults" stroke="none" stroke-width="1" fill="none" fill-rule="evenodd">
        <g id="vuxna" transform="translate(17.000000, 1.000000)" stroke-width="2">
            <path d="M18.4127,42.4709 L18.4127,49.4629" id="Stroke-1" stroke="#005AA0"></path>
            <path d="M3.5,42.7364 L3.5,49.4629" id="Stroke-1" stroke="#005AA0"></path>
            <path d="M8.0407,2.6408 C8.0407,2.6408 8.7827,5.4258 13.1497,5.4258 L19.1347,5.4258 L19.2617,5.7588 C19.5637,6.6338 19.7277,7.5738 19.7277,8.5518 C19.7277,13.2738 15.8987,17.1028 11.1767,17.1028 C6.4537,17.1028 2.6247,13.2738 2.6247,8.5518 C2.6247,3.8288 6.4537,-0.0002 11.1767,-0.0002 C13.7697,-0.0002 16.0927,1.1538 17.6607,2.9758" id="Stroke-6" stroke="#005AA0"></path>
            <path d="M14.0973,12.1657 C13.2923,12.9707 12.2343,13.3737 11.1763,13.3737 C10.1183,13.3737 9.0613,12.9717 8.2563,12.1657" id="Stroke-8" stroke="#005AA0"></path>
            <path d="M4.7741,24.0021 L4.7741,40.8411 C4.7741,42.1591 3.7051,43.2281 2.3871,43.2281 C1.0681,43.2281 0.0001,42.1591 0.0001,40.8411 L0.0001,25.0861 L0.0001,24.3311 C0.0001,20.0701 3.3001,16.5811 7.4841,16.2801 L7.7811,16.2801" id="Stroke-12" stroke="#005AA0"></path>
            <path d="M17.5792,24.0021 L17.5792,40.8411 C17.5792,42.1591 18.6472,43.2281 19.9662,43.2281 C21.2842,43.2281 22.3532,42.1591 22.3532,40.8411 L22.3532,25.0861 L22.3532,24.3311 C22.3532,20.0701 19.0522,16.5811 14.8692,16.2801 L14.5722,16.2801" id="Stroke-14" stroke="#005AA0"></path>
            <path d="M12.7872,49.4629 L12.7872,46.3024" id="Stroke-16" stroke="#005AA0"></path>
            <path d="M9.5661,49.4629 L9.5661,44.8114 C9.5661,43.5754 10.5681,42.5734 11.8041,42.5734" id="Stroke-18" stroke="#005AA0"></path>
            <path d="M49.5086,50 L47.4744,42.377" id="Stroke-20" stroke="#005AA0"></path>
            <path d="M29.2189,42.3771 L27.1855,50" id="Stroke-22" stroke="#005AA0"></path>
            <path d="M35.215,2.9362 C35.215,2.9362 35.956,5.7172 40.318,5.7172 L46.295,5.7172 L46.421,6.0502 C46.723,6.9242 46.887,7.8622 46.887,8.8392 C46.887,13.5552 43.063,17.3792 38.347,17.3792 C33.63,17.3792 29.807,13.5552 29.807,8.8392 C29.807,4.1222 33.63,0.2992 38.347,0.2992 C40.936,0.2992 43.257,1.4512 44.822,3.2712" id="Stroke-24" stroke="#005AA0"></path>
            <path d="M41.2638,12.4489 C40.4598,13.2529 39.4028,13.6549 38.3468,13.6549 C37.2898,13.6549 36.2338,13.2529 35.4298,12.4489" id="Stroke-26" stroke="#005AA0"></path>
            <path d="M31.8185,24.0764 L31.8185,40.4204 C31.8185,41.6994 30.7815,42.7364 29.5025,42.7364 C28.2225,42.7364 27.1855,41.6994 27.1855,40.4204 L27.1855,25.1284 L27.1855,24.3944 C27.1855,20.2594 30.3885,16.8724 34.4495,16.5804 L34.7375,16.5804" id="Stroke-30" stroke="#005AA0"></path>
            <path d="M44.8746,24.0764 L44.8746,40.4204 C44.8746,41.6994 45.9116,42.7364 47.1916,42.7364 C48.4716,42.7364 49.5086,41.6994 49.5086,40.4204 L49.5086,25.1284 L49.5086,24.3944 C49.5086,20.2594 46.3046,16.8724 42.2436,16.5804 L41.9556,16.5804" id="Stroke-32" stroke="#005AA0"></path>
            <path d="M11.9508,26.6857 L7.4328,26.6857" id="Stroke-10" stroke="#E30613"></path>
            <path d="M39.5299,46.0373 L44.9269,46.0373" id="Stroke-28" stroke="#E30613"></path>
        </g>
    </g>
</svg>