<?xml version="1.0" encoding="UTF-8"?>
<svg width="84px" height="50px" viewBox="0 0 84 50" version="1.1" xmlns="http://www.w3.org/2000/svg" xmlns:xlink="http://www.w3.org/1999/xlink">
    <!-- Generator: Sketch 53 (72520) - https://sketchapp.com -->
    <title>alone</title>
    <desc>Created with Sketch.</desc>
    <g id="alone" stroke="none" stroke-width="1" fill="none" fill-rule="evenodd">
        <g id="Group-15" transform="translate(25.000000, 5.000000)" stroke-width="2">
            <path d="M9.7448,12.7937 C9.7448,12.7937 11.0798,17.8047 18.9388,17.8047 L29.7078,17.8047 L29.9348,18.4037 C30.4788,19.9797 30.7748,21.6697 30.7748,23.4297 C30.7748,31.9277 23.8858,38.8157 15.3878,38.8157 C6.8898,38.8157 -0.0002,31.9277 -0.0002,23.4297 C-0.0002,14.9317 6.8898,8.0417 15.3878,8.0417 C20.0528,8.0417 24.2338,10.1177 27.0558,13.3977" id="Stroke-1" stroke="#005AA0"></path>
            <path d="M8.3112,22.9284 C8.3112,21.9534 9.1022,21.1634 10.0762,21.1634 C11.0512,21.1634 11.8412,21.9534 11.8412,22.9284" id="Stroke-3" stroke="#005AA0"></path>
            <path d="M18.9332,22.9284 C18.9332,21.9534 19.7242,21.1634 20.6982,21.1634 C21.6732,21.1634 22.4632,21.9534 22.4632,22.9284" id="Stroke-5" stroke="#005AA0"></path>
            <path d="M23.6559,4.7449 L23.8729,0.0459" id="Stroke-7" stroke="#005AA0"></path>
            <path d="M29.3082,6.8191 L31.9822,2.9491" id="Stroke-9" stroke="#E30613"></path>
            <path d="M33.0026,11.573 L37.3206,9.708" id="Stroke-11" stroke="#005AA0"></path>
            <path d="M20.7091,30.1941 C19.2421,31.6611 17.3141,32.3941 15.3871,32.3941 C13.4591,32.3941 11.5321,31.6611 10.0651,30.1941" id="Stroke-13" stroke="#005AA0"></path>
        </g>
    </g>
</svg>