<?xml version="1.0" encoding="UTF-8"?>
<svg width="84px" height="50px" viewBox="0 0 84 50" version="1.1" xmlns="http://www.w3.org/2000/svg" xmlns:xlink="http://www.w3.org/1999/xlink">
    <!-- Generator: Sketch 53 (72520) - https://sketchapp.com -->
    <title>children¨</title>
    <desc>Created with Sketch.</desc>
    <g id="children¨" stroke="none" stroke-width="1" fill="none" fill-rule="evenodd">
        <g id="kids" transform="translate(18.000000, 1.000000)" stroke-width="2">
            <path d="M38.4897,49 L38.4897,36.072" id="Stroke-1" stroke="#005AA0"></path>
            <path d="M45.2641,38.2881 L42.8471,32.8431 C41.8841,29.9301 39.5334023,28.6694 36.8374023,28.3004" id="Stroke-3" stroke="#005AA0"></path>
            <path d="M26.599,46.3896 L26.599,48.9996" id="Stroke-5" stroke="#005AA0"></path>
            <path d="M27.8822,34.0684 L27.8822,44.4534 C27.8822,45.6294 26.9292,46.5814 25.7542,46.5814 C24.5792,46.5814 23.6272,45.6294 23.6272,44.4534 L23.6272,33.6864 C23.6272,30.7124 26.0382,28.3004 29.0122,28.3004" id="Stroke-7" stroke="#005AA0"></path>
            <path d="M25.9023,23.1865 C25.3633,19.2345 28.1303,15.5945 32.0823,15.0565 C36.0333,14.5175 39.6733,17.2845 40.2123,21.2365 C40.7503,25.1875 37.9843,28.8275 34.0323,29.3665 C31.0393,29.7735 28.2243,28.2855 26.8013,25.8225" id="Stroke-9" stroke="#005AA0"></path>
            <path d="M44.2846,36.0723 L46.1916,40.2623 C46.6836,41.3433 46.2056,42.6193 45.1226,43.1113 C44.0406,43.6033 42.7636,43.1263 42.2716,42.0443 L40.6586,38.4263" id="Stroke-11" stroke="#005AA0"></path>
            <path d="M46.0365,39.6886918 L46.0365,20.089" id="Stroke-13" stroke="#005AA0"></path>
            <path d="M55.0502,8.7861 C55.0502,13.7636569 46.2642,19.7861 46.2642,19.7861 C46.2642,19.7861 37.4782,13.7636569 37.4782,8.7861" id="Stroke-15" stroke="#005AA0"></path>
            <path d="M37.4779,8.7861 C37.4779,3.9331 41.4119,0.0001 46.2639,0.0001 C51.1169,0.0001 55.0499,3.9331 55.0499,8.7861" id="Stroke-17" stroke="#005AA0"></path>
            <path d="M36.102,24.208 C34.88,25.802 32.597,26.104 31.002,24.882" id="Stroke-19" stroke="#005AA0"></path>
            <path d="M23.8808,24.8066 C25.1648,24.6316 26.0638,23.4496 25.8888,22.1646" id="Stroke-21" stroke="#005AA0"></path>
            <path d="M41.4779,8.584 C41.4779,6.052 43.5299,4 46.0609,4" id="Stroke-23" stroke="#E30613"></path>
            <path d="M3.1923,49 L3.1923,46" id="Stroke-25" stroke="#005AA0"></path>
            <path d="M15.1649,46 L15.1649,49" id="Stroke-27" stroke="#005AA0"></path>
            <path d="M14.1303,34.0684 L14.1303,44.4534 C14.1303,45.6294 15.0833,46.5814 16.2573,46.5814 C17.4333,46.5814 18.3853,45.6294 18.3853,44.4534 L18.3853,33.6864 C18.3853,30.7124 15.9743,28.3004 13.0003,28.3004" id="Stroke-29" stroke="#005AA0"></path>
            <path d="M16.1103,23.1865 C16.6493,19.2345 13.8823,15.5945 9.9303,15.0565 C5.9793,14.5175 2.3393,17.2845 1.8003,21.2365 C1.2623,25.1875 4.0283,28.8275 7.9803,29.3665 C10.9733,29.7735 13.7873,28.2855 15.2113,25.8225" id="Stroke-31" stroke="#005AA0"></path>
            <path d="M5.9101,24.208 C7.1321,25.802 9.4161,26.104 11.0111,24.882" id="Stroke-33" stroke="#005AA0"></path>
            <path d="M4.2553,34.0684 L4.2553,44.4534 C4.2553,45.6294 3.3023,46.5814 2.1283,46.5814 C0.9523,46.5814 0.0003,45.6294 0.0003,44.4534 L0.0003,33.6864 C0.0003,30.7124 2.4113,28.3004 5.3853,28.3004" id="Stroke-35" stroke="#005AA0"></path>
        </g>
    </g>
</svg>