<?xml version="1.0" encoding="UTF-8"?>
<svg width="20px" height="20px" viewBox="0 0 20 20" version="1.1" xmlns="http://www.w3.org/2000/svg" xmlns:xlink="http://www.w3.org/1999/xlink">
    <!-- Generator: Sketch 53.2 (72643) - https://sketchapp.com -->
    <title>Icons/20px/bankid-mc-20</title>
    <desc>Created with Sketch.</desc>
    <g id="Icons/20px/bankid-mc-20" stroke="none" stroke-width="1" fill="none" fill-rule="evenodd">
        <g id="Icons/20px/bankid-20-mc" transform="translate(1.000000, 1.000000)" fill-rule="nonzero">
            <g id="bankid_vector_rgb">
                <path d="M6.20958084,9.55738576 L7,4.69447396 C6.68862275,4.69447396 6.15568862,4.69447396 6.15568862,4.69447396 C5.76047904,4.69447396 5.25149701,4.47821467 5.10179641,4.08076514 C5.05389222,3.94633369 4.94011976,3.48459086 5.59281437,3.03453773 C5.82634731,2.87672689 5.9760479,2.70138151 6.00598802,2.56695005 C6.03592814,2.42667375 6,2.30393199 5.89820359,2.21041445 C5.75449102,2.075983 5.47305389,2 5.11377246,2 C4.50898204,2 4.08383234,2.33900106 4.04191617,2.58448459 C4.01197605,2.76567481 4.15568862,2.91179596 4.28143713,3.0053135 C4.65868263,3.28002125 4.74850299,3.67747078 4.51497006,4.05154091 C4.2754491,4.43730074 3.75449102,4.68862912 3.19760479,4.69447396 C3.19760479,4.69447396 2.64670659,4.69447396 2.33532934,4.69447396 C2.26347305,5.16790648 1.08982036,12.4272051 1,13 L5.67664671,13 C5.71856287,12.7428268 5.93413174,11.369288 6.22754491,9.55738576 L6.20958084,9.55738576 Z" id="Path" fill="#479CBE"></path>
                <path d="M11.3601269,0 L6.63060316,0 L6,4.06930233 L6.80312667,4.06930233 C7.24335906,4.06930233 7.65979511,3.86372093 7.8382677,3.56744186 C7.89775857,3.47069767 7.92155491,3.38604651 7.92155491,3.30744186 C7.92155491,3.13813953 7.80852227,3.01116279 7.69548963,2.92651163 C7.38613714,2.69069767 7.32069719,2.4427907 7.32069719,2.26744186 C7.32069719,2.23116279 7.32069719,2.20093023 7.32664627,2.17069767 C7.39208622,1.74139535 7.96319852,1.27581395 8.71873249,1.27581395 C9.17086306,1.27581395 9.51591007,1.38465116 9.7241281,1.58418605 C9.90854978,1.75953488 9.97993881,2.00744186 9.92639704,2.26744186 C9.86095709,2.57581395 9.55755368,2.82976744 9.38503017,2.95674419 C8.92695052,3.28325581 8.98644138,3.56744186 9.01618681,3.65209302 C9.1113722,3.90604651 9.47426647,4.06930233 9.75387353,4.06930233 L10.9734362,4.06930233 C10.9734362,4.06930233 10.9734362,4.06930233 10.9734362,4.07534884 C12.6391804,4.08744186 13.5315434,4.86744186 13.2519363,6.68139535 C12.9901765,8.36837209 11.717072,9.09395349 10.200055,9.10604651 L9.59919728,13 L10.4856112,13 C14.2275865,13 17.2854169,10.5572093 17.8862747,6.69953488 C18.6299105,1.91069767 15.6434691,0 11.3601269,0 Z" id="Path" fill="#00A5C3"></path>
                <path d="M11.3601269,0 L6.63060316,0 L6,4.06930233 L6.80312667,4.06930233 C7.24335906,4.06930233 7.65979511,3.86372093 7.8382677,3.56744186 C7.89775857,3.47069767 7.92155491,3.38604651 7.92155491,3.30744186 C7.92155491,3.13813953 7.80852227,3.01116279 7.69548963,2.92651163 C7.38613714,2.69069767 7.32069719,2.4427907 7.32069719,2.26744186 C7.32069719,2.23116279 7.32069719,2.20093023 7.32664627,2.17069767 C7.39208622,1.74139535 7.96319852,1.27581395 8.71873249,1.27581395 C9.17086306,1.27581395 9.51591007,1.38465116 9.7241281,1.58418605 C9.90854978,1.75953488 9.97993881,2.00744186 9.92639704,2.26744186 C9.86095709,2.57581395 9.55755368,2.82976744 9.38503017,2.95674419 C8.92695052,3.28325581 8.98644138,3.56744186 9.01618681,3.65209302 C9.1113722,3.90604651 9.47426647,4.06930233 9.75387353,4.06930233 L10.9734362,4.06930233 C10.9734362,4.06930233 10.9734362,4.06930233 10.9734362,4.07534884 C12.6391804,4.08744186 13.5315434,4.86744186 13.2519363,6.68139535 C12.9901765,8.36837209 11.717072,9.09395349 10.200055,9.10604651 L9.59919728,13 L10.4856112,13 C14.2275865,13 17.2854169,10.5572093 17.8862747,6.69953488 C18.6299105,1.91069767 15.6434691,0 11.3601269,0 Z" id="Path" fill="#235971"></path>
                <g id="Group" transform="translate(0.000000, 14.000000)" fill="#235971">
                    <path d="M0.501301879,0.0121921182 L2.33940877,0.0121921182 C3.12305308,0.0121921182 3.31320207,0.432820197 3.25558117,0.816871921 C3.20948444,1.12777094 3.00781127,1.35942118 2.66208584,1.51182266 C3.10000472,1.68860837 3.27286744,1.96293103 3.20948444,2.39575123 C3.12881517,2.93830049 2.6851342,3.34064039 2.10316305,3.34064039 L0.0115241811,3.34064039 L0.501301879,0.0121921182 Z M1.71710299,1.38990148 C2.0743526,1.38990148 2.24145323,1.18873153 2.27602577,0.950985222 C2.31059832,0.694950739 2.20111859,0.518165025 1.84386898,0.518165025 L1.526954,0.518165025 L1.40018801,1.38990148 L1.71710299,1.38990148 L1.71710299,1.38990148 Z M1.52119191,2.82857143 C1.8899657,2.82857143 2.10316305,2.67007389 2.15502187,2.34698276 C2.1953565,2.06656404 2.04554215,1.90197044 1.68829253,1.90197044 L1.32528083,1.90197044 L1.18699066,2.83466749 L1.52119191,2.83466749 L1.52119191,2.82857143 Z" id="Shape"></path>
                    <path d="M5.78513892,3.36502463 C5.30688541,3.40160099 5.07640178,3.34673645 4.96115997,3.12727833 C4.70762799,3.29187192 4.42528555,3.37721675 4.12565684,3.37721675 C3.58402033,3.37721675 3.39387134,3.07850985 3.44573016,2.74932266 C3.46877852,2.59082512 3.55520988,2.43842365 3.69350005,2.3104064 C3.99312876,2.03608374 4.73067635,1.99950739 5.01878088,1.79224138 C5.04182924,1.56059113 4.95539788,1.47524631 4.68457963,1.47524631 C4.36766465,1.47524631 4.10260848,1.58497537 3.64740333,1.91416256 L3.75688305,1.15825123 C4.1487052,0.859544335 4.52900318,0.719334975 4.96692206,0.719334975 C5.52584485,0.719334975 6.02138464,0.96317734 5.92919119,1.60935961 L5.81971147,2.3408867 C5.77937683,2.59692118 5.79090101,2.67616995 6.06171927,2.68226601 L5.78513892,3.36502463 Z M4.95539788,2.21896552 C4.7018659,2.38965517 4.22937447,2.35917488 4.17751566,2.71274631 C4.15446729,2.8773399 4.25242283,2.99926108 4.40799928,2.99926108 C4.55781363,2.99926108 4.74220053,2.93220443 4.89201489,2.82247537 C4.88049071,2.76151478 4.8862528,2.70055419 4.90353907,2.58472906 L4.95539788,2.21896552 Z" id="Shape"></path>
                    <path d="M6.67826296,0.762007389 L7.63476999,0.762007389 L7.58291118,1.09729064 C7.88830198,0.82296798 8.1187856,0.719334975 8.41841431,0.719334975 C8.95428873,0.719334975 9.20205863,1.06681034 9.11562727,1.63374384 L8.86785737,3.33454433 L7.91135034,3.33454433 L8.1187856,1.92635468 C8.15912023,1.6703202 8.08421306,1.54839901 7.89982616,1.54839901 C7.7500118,1.54839901 7.61172163,1.63374384 7.47919355,1.82272167 L7.26023411,3.32844828 L6.30372707,3.32844828 L6.67826296,0.762007389 Z" id="Path"></path>
                    <polygon id="Path" points="9.85893695 0.0121921182 10.815444 0.0121921182 10.5734362 1.64593596 11.4896086 0.762007389 12.6708371 0.762007389 11.4953707 1.85929803 12.4403535 3.33454433 11.2360766 3.33454433 10.5100532 2.14581281 10.498529 2.14581281 10.3256663 3.33454433 9.36915925 3.33454433"></polygon>
                </g>
                <g id="Group" transform="translate(13.000000, 14.000000)" fill="#479CBE">
                    <polygon id="Path" points="0.465215484 0.0124137931 1.46359928 0.0124137931 1.02451949 3.39517241 0.0261357014 3.39517241"></polygon>
                    <path d="M1.94972332,0.0124137931 L3.37673262,0.0124137931 C4.47965921,0.0124137931 4.79851477,0.962068966 4.69397197,1.75034483 C4.5946563,2.52 4.08239655,3.39517241 3.1153756,3.39517241 L1.5054164,3.39517241 L1.94972332,0.0124137931 Z M2.87492715,2.58827586 C3.3610512,2.58827586 3.62763535,2.30275862 3.70604245,1.70068966 C3.763541,1.2537931 3.64854391,0.813103448 3.11014846,0.813103448 L2.84356431,0.813103448 L2.61357014,2.58827586 L2.87492715,2.58827586 L2.87492715,2.58827586 Z" id="Shape"></path>
                </g>
            </g>
        </g>
    </g>
</svg>