<?xml version="1.0" encoding="UTF-8"?>
<svg width="20px" height="20px" viewBox="0 0 20 20" version="1.1" xmlns="http://www.w3.org/2000/svg" xmlns:xlink="http://www.w3.org/1999/xlink">
    <!-- Generator: Sketch 50.2 (55047) - http://www.bohemiancoding.com/sketch -->
    <title>car-damaged-20</title>
    <desc>Created with Sketch.</desc>
    <defs></defs>
    <g id="car-damaged-20" stroke="none" stroke-width="1" fill="none" fill-rule="evenodd">
        <g transform="translate(0.000000, 1.000000)">
            <path d="M3,9.06646887 L3.99195216,5.97154757 L5.51587404,2.9746485 C5.52625702,2.96242531 5.54575287,2.9419472 5.57897952,2.91209305 C5.69001989,2.81232324 5.85912355,2.7034816 6.10434103,2.59290983 C6.90834099,2.23037576 8.17905831,2.00104403 9.9999,2.00000621 C11.8190173,1.99896939 13.0893157,2.22805356 13.8940211,2.59148459 C14.1395625,2.702379 14.3091621,2.81170114 14.4206995,2.91202353 C14.4541693,2.94212796 14.4737792,2.96275172 14.4840841,2.97483587 L16.0025336,5.96265972 L17,9.07079947 L17,15.0000028 L19,15.0000028 L19,8.75774174 L17.8579815,5.19917269 L16.226591,1.98911702 C15.8816285,1.3896055 14.6225186,-0.00262883088 9.99876007,6.53936402e-06 C5.37500158,0.00264190961 4.12013254,1.38706258 3.77365797,1.98840249 L2.13640436,5.20817632 L1,8.75379297 L1,15.0000028 L3,15.0000028 L3,9.06646887 Z" id="Fill-6" fill="#005AA0" fill-rule="nonzero"></path>
            <polygon id="Line-2" fill="#E30613" fill-rule="nonzero" points="11.9185825 5.45634205 10.4242288 7.00250006 6 7.00250006 6 5.00250006 9.57577118 5.00250006 11.8314175 2.66865795 14.6742282 5.26397695 13.3257718 6.74102316"></polygon>
            <polygon id="Line-2" fill="#005AA0" fill-rule="nonzero" points="2 16.0025001 2 14.0025001 18 14.0025001 18 16.0025001"></polygon>
            <polygon id="Line-2" fill="#005AA0" fill-rule="nonzero" points="2 13.0025001 2 11.0025001 12 11.0025001 12 13.0025001"></polygon>
            <polygon id="Line-2" fill="#E30613" fill-rule="nonzero" points="13 13.0025001 13 11.0025001 16 11.0025001 16 13.0025001"></polygon>
            <path d="M1,7 C0.44771525,7 0,6.55228475 0,6 C0,5.44771525 0.44771525,5 1,5 L2.5,5 C3.05228475,5 3.5,5.44771525 3.5,6 C3.5,6.55228475 3.05228475,7 2.5,7 L1,7 Z" id="Line" fill="#005AA0" fill-rule="nonzero"></path>
            <path d="M17.5,7 C16.9477153,7 16.5,6.55228475 16.5,6 C16.5,5.44771525 16.9477153,5 17.5,5 L19,5 C19.5522847,5 20,5.44771525 20,6 C20,6.55228475 19.5522847,7 19,7 L17.5,7 Z" id="Line" fill="#005AA0" fill-rule="nonzero"></path>
            <circle id="Oval-6" fill="#005AA0" cx="5.5" cy="8.75" r="1.25"></circle>
            <circle id="Oval-6" fill="#005AA0" cx="14.5" cy="8.75" r="1.25"></circle>
            <path d="M17,17.5 C16.4477153,17.5 16,17.0522847 16,16.5 C16,16.1318102 16,15.4651435 16,14.5 L19,14.5 C19,15.4651435 19,16.1318102 19,16.5 C19,17.0522847 18.5522847,17.5 18,17.5 L17,17.5 Z" id="Line" fill="#005AA0" fill-rule="nonzero"></path>
            <path d="M2,17.5 C1.44771525,17.5 1,17.0522847 1,16.5 C1,16.1318102 1,15.4651435 1,14.5 L4,14.5 C4,15.4651435 4,16.1318102 4,16.5 C4,17.0522847 3.55228475,17.5 3,17.5 L2,17.5 Z" id="Line" fill="#005AA0" fill-rule="nonzero"></path>
        </g>
    </g>
</svg>