<?xml version="1.0" encoding="utf-8"?><svg xmlns="http://www.w3.org/2000/svg" xmlns:xlink="http://www.w3.org/1999/xlink"><symbol viewBox="0 0 48 48" id="icon-multicolor-bike-48" xmlns="http://www.w3.org/2000/svg"><g fill="none"><path d="M12.5 35.956a7.5 7.5 0 110-15 7.5 7.5 0 010 15zm0-2a5.5 5.5 0 100-11 5.5 5.5 0 000 11zm23 2a7.5 7.5 0 110-15 7.5 7.5 0 010 15zm0-2a5.5 5.5 0 100-11 5.5 5.5 0 000 11z" fill="#005C9C"/><path d="M25.203 28.676a1.095 1.095 0 01-.586-.298l-9.157-8.942 1.398-1.431 8.198 8.006 2.551-6.29h-7.595v-2h9.578l8.49 11.218-2.045-.027a17857.294 17857.294 0 01-10.117-.136l-.437-.007-.094-.002c-.045-.002-.045-.002-.182-.02l-.002-.07zM26.9 26.79l.988.013 6.129.082-4.66-6.157A6772.87 6772.87 0 0126.9 26.79z" fill="#005C9C"/><path d="M27.5 16.456a1 1 0 010-2h4.506a1 1 0 010 2H27.5z" fill="#E30613"/><path fill="#005C9C" d="M18.736 15l-5.81 14.346-1.854-.75L17.388 13h4.976v2z"/></g></symbol><symbol viewBox="0 0 48 48" id="icon-multicolor-car-48" xmlns="http://www.w3.org/2000/svg"><g fill="none" fill-rule="evenodd"><path d="M12 24.5c0 .826.674 1.5 1.5 1.5s1.5-.674 1.5-1.5-.674-1.5-1.5-1.5-1.5.674-1.5 1.5zm21 0c0 .826.674 1.5 1.5 1.5s1.5-.674 1.5-1.5-.674-1.5-1.5-1.5-1.5.674-1.5 1.5z" stroke="#005AA0" stroke-width="2"/><path fill="#005AA0" fill-rule="nonzero" d="M15 18.027v2h19.858l-3.555-5.556-1.684 1.078 1.585 2.478z"/><path d="M41 22c0 .025-.333.033-.778.033C39.333 22.033 38 22 38 22l1.044 4L39 29h-4v2h4v2h-1v3h-3v-3H13v3h-3v-3H9v-2h17v-2H9v-3l1-4s-1.333.033-2.222.033C7.333 22.033 7 22.025 7 22v-1c0-.968 4-1 4-1l4-6s1-1.995 9-2c8.02 0 9 2 9 2l4 6s4 .032 4 1v1zm-6.336-9c-.81-1.208-2.997-3-10.664-3-6.625.004-9.875 1.688-10.768 3a538.732 538.732 0 00-3.315 5.019C7.75 18.089 5 18.661 5 21v1c0 .672.45 1.961 2.147 2.025.08.003.176.005.284.006l-.37 1.484-.06.239V33c0 .755.381 1.412.999 1.753V36a2 2 0 002 2h3a2 2 0 002-2v-1h18v1a2 2 0 002 2h3a2 2 0 002-2v-1.285c.582-.35 1-.986 1-1.715v-2c0-.04-.01-.078-.012-.118L41 29.013v-3.264l-.05-.254-.38-1.464c.107-.001.203-.003.283-.006C42.551 23.961 43 22.672 43 22v-1c0-2.339-2.684-2.91-4.917-2.981L34.664 13z" fill="#005AA0"/><path fill="#E30613" fill-rule="nonzero" d="M28 31h5v-2h-5z"/></g></symbol><symbol viewBox="0 0 48 48" id="icon-multicolor-car-damaged-48" xmlns="http://www.w3.org/2000/svg"><g fill="none"><path fill="#E30613" d="M36.36 19.833h-23.1v-1.666h21.93z"/><path fill="#E30613" d="M30.654 12.722l-4.546-.17-.53-.749-1.345.97 1.003 1.414 3.062.115-1.2 3.214 5.276-.614 1.716 2.577 1.371-.93-2.276-3.419-3.586.418z"/><path d="M13.674 24a1.243 1.243 0 000 2.488 1.243 1.243 0 000-2.488m0 4.155c-1.594 0-2.891-1.306-2.891-2.911s1.297-2.91 2.89-2.91a2.904 2.904 0 012.892 2.91c0 1.605-1.297 2.91-2.891 2.91m21.891-2.904a1.243 1.243 0 01-1.239 1.238 1.243 1.243 0 010-2.488v-1.667c-1.594 0-2.891 1.306-2.891 2.911s1.297 2.911 2.891 2.911c1.592 0 2.888-1.302 2.89-2.905h-1.651z" fill="#005AA0"/><path d="M41.348 20.667c0 .02-.275.027-.643.027-.734 0-1.835-.027-1.835-.027L39.732 24l-.036 5.833V34h-.826v3.333h-3.305V34h-23.13v3.333H9.13V34h-.827v-2.5h19v-1.667h-19V24l.827-3.333s-1.102.027-1.836.027c-.368 0-.643-.006-.643-.027V19c0-.807 4.13-.833 4.13-.833l3.305-5s.804-2.495 9.5-2.5c8.699 0 10.326 2.5 10.326 2.5l3.304 5s4.13.026 4.13.833v1.667zm-6.06-8.425C34.94 11.71 32.716 9 23.614 9c-8.267.005-10.425 2.175-10.987 3.373l-2.739 4.143C7.25 16.6 5 17.05 5 19v1.667c0 .56.371 1.634 1.774 1.687.066.003.145.004.234.005l-.306 1.237-.05.199V34c0 .617.333 1.156.827 1.444v1.89c0 .92.739 1.666 1.652 1.666h3.304c.913 0 1.652-.746 1.652-1.667v-1.666h19.826v1.666c0 .921.74 1.667 1.652 1.667h3.305a1.66 1.66 0 001.652-1.667l-.002-1.888c.495-.288.828-.827.828-1.445v-2.5c0-.033-.008-.065-.01-.098l.01-1.558v-6.053l-.041-.212-.315-1.22c.09 0 .168-.002.234-.005C42.63 22.301 43 21.227 43 20.667V19c0-1.95-2.25-2.4-4.888-2.484l-2.824-4.273z" fill="#005AA0"/><path fill="#E30613" d="M37.361 33.196l1.155-1.192-2.201-2.17H29.37V31.5h6.272z"/></g></symbol><symbol viewBox="0 0 48 48" id="icon-multicolor-dog-left-48" xmlns="http://www.w3.org/2000/svg"><g transform="translate(4 2)" fill="none" fill-rule="evenodd"><path d="M19.753 37.867c-3.454-.757-5.767-3.876-5.377-7.252.39-3.375 3.358-5.934 6.9-5.948a7.6 7.6 0 014.168 1.3" stroke="#E30613" stroke-width="2"/><path d="M10 40H5s-1 0-1.217.23C3.567 40.46 3 41 3 41.978V44h9m-.63-31.694a7.151 7.151 0 01-5.233.672c-1.768-.451-3.276-1.558-4.19-3.076a6.088 6.088 0 01-.897-4.035" stroke="#005AA0" stroke-width="2"/><ellipse stroke="#005AA0" cx="1.241" cy="4.033" rx=".741" ry=".733"/><path d="M17.514 8.365v2.257c0 1.829 1.443 3.311 3.224 3.311 1.781 0 3.225-1.482 3.225-3.31V9.116c-.342-4.088-3.088-7.543-6.92-8.707C13.21-.754 9.453.761 7 4H3" stroke="#005AA0" stroke-width="2"/><path d="M8 16v22" stroke="#005AA0" stroke-width="2" fill="#000"/><path d="M41 28.6c-.013 4.45-3.653 8.054-8.148 8.067M16 40.004h-1.885a1.985 1.985 0 00-1.426.572c-.377.374-.586.696-.578 1.224V44h18.686C34.649 32.98 30.424 22.428 20 17" stroke="#005AA0" stroke-width="2"/></g></symbol><symbol viewBox="0 0 48 48" id="icon-multicolor-dog-right-48" xmlns="http://www.w3.org/2000/svg"><g transform="matrix(-1 0 0 1 45 2)" fill="none" fill-rule="evenodd"><path d="M19.753 37.867c-3.454-.757-5.767-3.876-5.377-7.252.39-3.375 3.358-5.934 6.9-5.948a7.6 7.6 0 014.168 1.3" stroke="#E30613" stroke-width="2"/><path d="M10 40H5s-1 0-1.217.23C3.567 40.46 3 41 3 41.978V44h9m-.63-31.694a7.151 7.151 0 01-5.233.672c-1.768-.451-3.276-1.558-4.19-3.076a6.088 6.088 0 01-.897-4.035" stroke="#005AA0" stroke-width="2"/><ellipse stroke="#005AA0" cx="1.241" cy="4.033" rx=".741" ry=".733"/><path d="M17.514 8.365v2.257c0 1.829 1.443 3.311 3.224 3.311 1.781 0 3.225-1.482 3.225-3.31V9.116c-.342-4.088-3.088-7.543-6.92-8.707C13.21-.754 9.453.761 7 4H3" stroke="#005AA0" stroke-width="2"/><path d="M8 16v22" stroke="#005AA0" stroke-width="2" fill="#000"/><path d="M41 28.6c-.013 4.45-3.653 8.054-8.148 8.067M16 40.004h-1.885a1.985 1.985 0 00-1.426.572c-.377.374-.586.696-.578 1.224V44h18.686C34.649 32.98 30.424 22.428 20 17" stroke="#005AA0" stroke-width="2"/></g></symbol><symbol viewBox="0 0 48 48" id="icon-multicolor-house-48" xmlns="http://www.w3.org/2000/svg"><g fill="none"><path fill="#005AA0" d="M24.005 10.259l17.387 13.3 1.216-1.588L24.005 7.74 5.393 21.971l1.214 1.588z"/><path fill="#E30613" d="M24 15.259l2.992 2.288 1.216-1.588L24 12.74l-4.208 3.218 1.214 1.588z"/><path fill="#005AA0" d="M31 25v11h2V23h-8v13h2V25zm-10 4v-4h-4v4h4zm-6-6h8v8h-8v-8zm-5-4v18h2V19zm26 0v18h2V19z"/><path fill="#005AA0" d="M5 38h12v-2H5zm17 0h21v-2H22z"/></g></symbol><symbol viewBox="0 0 48 48" id="icon-multicolor-moose-48" xmlns="http://www.w3.org/2000/svg"><g fill="none"><path d="M9.426 23.386l-.28-.081c-1.324-.375-2.229-.338-3.08.47a2.352 2.352 0 00-.431.466c-.66.924-.66 2.129.32 3.356 2.452 2.668 7.49 2.308 11.625-.713l-1.024-1.41c-3.498 2.557-7.57 2.848-9.282.986-.442-.555-.442-.9-.225-1.204a.765.765 0 01.1-.118l.092-.078c.297-.29.627-.305 1.432-.077.072.02.137.039.26.076 1.09.322 1.568.401 2.237.218 1.581-.435 1.68-1.724.736-3.047-.53-.743-1.082-1.3-2.868-2.984l-.231-.218c-1.49-1.41-2.23-2.21-2.565-2.838-.198-.372-.237-.369.33-.453l.057.04c.17.124.399.328.685.608.453.442.406.392 2.003 2.11l.23.247c2.335 2.5 3.213 3.271 4.22 3.06 1.203-.253 1.869-.976 1.874-2.024.003-.632-.148-1.09-.647-2.283l-.076-.182-.073-.18-1.612.656.08.193.077.187c.391.936.513 1.305.512 1.6 0 .179-.052.234-.492.326.117-.024.107-.027.03-.072a4.84 4.84 0 01-.68-.52c-.497-.438-1.083-1.031-1.944-1.953l-.227-.244-.54-.583-.53-.567a33.96 33.96 0 00-.99-1.02c-.921-.9-1.397-1.248-2.026-1.152-1.915.295-2.597 1.519-1.795 3.026.46.865 1.26 1.729 2.905 3.286l.233.22c1.676 1.58 2.212 2.12 2.645 2.728.104.146.175.266.22.351-.235.064-.525.016-1.285-.209z" fill="#005AA0"/><path d="M21.035 19.348c-1.435-.943-2.467-2.013-3.187-3.216-.86-1.439-1.089-2.343-1.506-5.058-.198-1.288-.366-1.894-.805-2.424-1.617-1.958-3.748-1.385-4.515.659-.512 1.366-.429 1.648 1.821 7.635l1.628-.615c-1.941-5.164-2.093-5.68-1.821-6.407.326-.87.846-1.01 1.548-.16.159.192.278.62.425 1.578.452 2.94.716 3.989 1.734 5.69.856 1.43 2.072 2.69 3.725 3.776l.953-1.458z" fill="#E30613"/><path d="M38.952 22.438l-.326.089c-.784.217-1.083.263-1.327.196-.152-.042-.118-.01-.107.075-.004-.029.063-.212.25-.496.405-.619.954-1.203 2.534-2.77l.153-.152c1.539-1.529 2.264-2.333 2.736-3.16.804-1.41.426-2.677-1.23-3.091-1.21-.304-2.46.521-4.193 2.277-.317.32-.646.67-1.026 1.085-.27.296-1.14 1.263-1.204 1.333-.37.408-.647.704-.882.94.096-.78.364-2.017.809-3.722l.092-.352c.927-3.529 1.112-4.394.936-5.25-.311-1.514-2.12-2.568-3.952-1.44-.775.478-.997 1.243-1.276 3.24l-.11.8a46.53 46.53 0 01-.122.838c-.1.641-.207 1.194-.336 1.717-.52 2.108-1.39 3.585-2.842 4.486a6.002 6.002 0 00-.405-.183c-1.62-.663-3.461-.663-5.307.437l.888 1.499c1.331-.793 2.61-.793 3.761-.322.28.116.473.225.556.284l.43.305.468-.241c2.214-1.137 3.463-3.106 4.14-5.846.142-.577.258-1.178.365-1.866a53.8 53.8 0 00.127-.868c.013-.095.088-.647.11-.799.107-.766.187-1.213.287-1.557.085-.294.163-.43.176-.438.705-.434 1.252-.116 1.338.305.09.437-.135 1.49-.914 4.455l-.093.355c-.905 3.467-1.149 4.918-.654 5.882.342.667 1.023.743 1.619.437.297-.152.61-.407.999-.785.294-.286.62-.633 1.078-1.138.068-.075.935-1.037 1.2-1.327.365-.4.68-.734.98-1.037 1.265-1.282 2.197-1.898 2.536-1.813.433.109.416.052.14.534-.361.635-1.036 1.384-2.45 2.787l-.151.151c-1.691 1.677-2.261 2.285-2.764 3.052-.886 1.35-.722 2.629.85 3.06.666.184 1.145.11 2.25-.197l.303-.082c.793-.208 1.147-.189 1.448.085l.07.057c.004.003.05.046.1.117.217.304.217.649-.264 1.25-2.3 2.453-6.409 1.65-9.04-1.734l-1.371 1.072c3.224 4.148 8.555 5.189 11.724 1.804 1.025-1.278 1.025-2.483.365-3.407a2.339 2.339 0 00-.444-.477c-.844-.75-1.737-.792-3.028-.454zM23.54 26.82c0-1.076-.87-1.948-1.944-1.948a1.946 1.946 0 00-1.944 1.948h1.74a.205.205 0 11.408 0h1.74zm6.086 0c0-1.076-.87-1.948-1.943-1.948a1.946 1.946 0 00-1.944 1.948h1.74a.205.205 0 11.408 0h1.74z" fill="#005AA0"/><path d="M31.829 31.588c.114-.28.255-.676.396-1.16.343-1.182.523-2.38.45-3.525-.073-1.134-.396-2.147-1.018-2.987l-1.396 1.04c.405.546.625 1.24.678 2.059.059.914-.093 1.922-.384 2.925a11.11 11.11 0 01-.39 1.115l-.075.17v6.288l.004.092c.004.078-.07.294-.373.567-.724.65-2.261 1.084-4.851 1.084V41c2.98 0 4.92-.547 6.012-1.53.724-.652.977-1.38.947-1.985v-5.897zm-13.924 5.897c-.03.604.223 1.333.947 1.984 1.093.984 3.032 1.531 6.012 1.531v-1.744c-2.59 0-4.127-.433-4.85-1.084-.304-.273-.378-.489-.372-.599l.002-.06v-6.288l-.075-.17a11.11 11.11 0 01-.657-2.254l-1.712.303c.079.45.184.892.309 1.323.14.485.282.881.396 1.16v5.898z" fill="#005AA0"/></g></symbol><symbol viewBox="0 0 48 48" id="icon-multicolor-things-48" xmlns="http://www.w3.org/2000/svg"><g fill="none" fill-rule="evenodd"><path d="M22.082 33.018h13.854M17 21.286V14a2 2 0 012-2h20a2 2 0 012 2v13a2 2 0 01-2 2H21.488L17 21.286z" stroke="#005C9C" stroke-width="2"/><path d="M11.633 25l.583-1.963h5.038L17.807 25H18a2 2 0 012 2v6a2 2 0 01-2 2H8a2 2 0 01-2-2v-6a2 2 0 012-2h3.633z" stroke="#005C9C" stroke-width="2"/><circle stroke="#E30613" stroke-width="2" cx="14.7" cy="30" r="2"/><circle fill="#005C9C" cx="9" cy="28" r="1"/><path d="M29.036 29.043v3.997" stroke="#005C9C" stroke-width="2"/></g></symbol><symbol viewBox="0 0 48 48" id="icon-multicolor-travel-48" xmlns="http://www.w3.org/2000/svg"><g fill="none"><path d="M17.5 4c-3.112 0-5.707 2.188-6.175 5.066C8.319 9.494 6 11.978 6 15c0 3.325 2.808 6 6.25 6H15v-2h-2.75C9.892 19 8 17.198 8 15s1.892-4 4.25-4h1v-1c0-2.198 1.892-4 4.25-4s4.25 1.802 4.25 4v1h1c2.358 0 4.25 1.802 4.25 4 0 1.065-.444 2.064-1.228 2.811l1.38 1.448C28.325 18.141 29 16.622 29 15c0-3.02-2.32-5.505-5.325-5.933C23.207 6.188 20.612 4 17.501 4z" fill="#075BA0"/><path d="M23 20a2 2 0 10-4 0 2 2 0 004 0zm2 0a4 4 0 11-8 0 4 4 0 018 0z" fill="#E30613"/><path fill="#005AA0" d="M23.015 30.388l5.586 1.208.423-1.955-6.082-1.315-6.24 1.824 3.553 3.335 1.369-1.459-1-.939z"/><path d="M20.934 39.226l-9.636-1.096-5.002-4.698 6.516-1.835 3.352 1.805 2.515-.735 17.749-5.187 5.941 1.278.167.572a3.488 3.488 0 01-2.37 4.326l-7.76 2.269-5.346 5.696-6.26 1.829 1.144-4.503-1.01.279zm1.576-2.511l.203-.802 1.939.492-1.051 4.143 2.374-.694 5.346-5.696.261-.076 8.024-2.346a1.488 1.488 0 001.065-1.298l-4.168-.896-17.263 5.044-3.302.965-3.362-1.81-2.33.657 1.937 1.82 8.592.977 1.735-.48zm-.566 2.232l.566-2.232-.566 2.232zm6.045-14.917a1.001 1.001 0 00-.755.352.968.968 0 00-.234.644.993.993 0 001.012.974.992.992 0 00.988-.996.993.993 0 00-1.011-.974zm.046 3.97A2.993 2.993 0 0125 25.05a2.968 2.968 0 01.713-1.967 3 3 0 012.253-1.052A2.993 2.993 0 0131 24.98c.019 1.65-1.31 3-2.965 3.019z" fill="#005AA0"/></g></symbol></svg>