<?xml version="1.0" encoding="utf-8"?><svg xmlns="http://www.w3.org/2000/svg" xmlns:xlink="http://www.w3.org/1999/xlink"><symbol viewBox="0 0 26 26" id="icon-calendar-26" xmlns="http://www.w3.org/2000/svg"><path d="M20.2 22H5.244C4.574 22 4 21.44 4 20.767V12h18v8.767c0 .717-.556 1.233-1.227 1.233M5.176 5H8v2h2V5h6v2h2V5h2.793C21.47 5.025 22 5.57 22 6.24V10H4V6.24c0-.67.53-1.215 1.176-1.24M18 3V1h-2v2h-6V1H8v2H4.999C3.318 3.064 2 4.487 2 6.24V21c0 1.827 1.3 3 3 3h15.97c1.7 0 3.031-1.173 3.031-3V6.24C24 4.487 22.682 3.064 20.97 3H18z" fill="currentColor" fill-rule="evenodd"/></symbol><symbol viewBox="0 0 26 26" id="icon-kontakta_oss-26" xmlns="http://www.w3.org/2000/svg"><g fill="currentColor"><path d="M13.018 24.982c-1.633 0-2.951-1.338-2.951-2.983 0-1.646 1.318-2.984 2.95-2.984 1.633 0 2.952 1.338 2.952 2.984 0 1.645-1.319 2.983-2.951 2.983zm0-1.5c.8 0 1.451-.662 1.451-1.483 0-.822-.652-1.484-1.451-1.484-.8 0-1.451.662-1.451 1.484 0 .821.652 1.483 1.45 1.483zm0-21.049c2.953 0 5.717 1.321 7.616 3.559l-1.143.97c-1.619-1.907-3.967-3.03-6.473-3.03-3.525 0-6.651 2.197-7.919 5.428l-.123.434a8.694 8.694 0 00-.454 2.825 8.99 8.99 0 00.711 3.504l.44 1.042H4.377C1.98 17.165.05 15.208.05 12.786c0-2.247 1.66-4.094 3.816-4.35 1.613-3.619 5.163-6.003 9.152-6.003zM1.55 12.786c0 1.257.78 2.318 1.875 2.713a10.472 10.472 0 01-.403-2.88c0-.864.102-1.72.295-2.505a2.871 2.871 0 00-1.767 2.672z"/><path d="M20.937 9.36l1.443-.406.097.347c.354 1.019.537 2.161.537 3.318 0 3.784-2.076 7.255-5.289 8.977a9.24 9.24 0 01-2.456.912l-.319-1.466a7.751 7.751 0 002.061-.765c2.73-1.464 4.503-4.426 4.503-7.658 0-.993-.156-1.969-.467-2.868l-.11-.39z"/><path d="M8.881 6.28l1.449-.389c.012.045.056.162.143.326.153.291.368.586.657.864.855.823 2.154 1.326 4.034 1.326h6.495v1.5h-6.495c-2.26 0-3.934-.648-5.074-1.745-.707-.68-1.073-1.375-1.209-1.881zm6.739 8.715l1.07 1.053a5.217 5.217 0 01-3.727 1.564c-1.39 0-2.727-.55-3.726-1.564l1.068-1.053a3.717 3.717 0 002.658 1.117c.991 0 1.943-.391 2.658-1.117z"/><path d="M21.659 9.907v-1.5c2.397 0 4.327 1.957 4.327 4.379 0 2.422-1.93 4.38-4.327 4.38v-1.5c1.564 0 2.827-1.282 2.827-2.88 0-1.598-1.263-2.88-2.827-2.88z"/></g></symbol></svg>