<?xml version="1.0" encoding="utf-8"?><svg xmlns="http://www.w3.org/2000/svg" xmlns:xlink="http://www.w3.org/1999/xlink"><symbol viewBox="0 0 56 56" id="icon-facebook-56" xmlns="http://www.w3.org/2000/svg"><g fill="currentColor" fill-rule="evenodd"><path d="M0 56h56V0H0v56zm2.887-2.887h50.226V2.887H2.887v50.226z"/><path d="M25.242 41.803V28.736h-4.397v-5.093h4.397v-3.756c0-4.358 2.662-6.73 6.55-6.73 1.862 0 3.463.137 3.93.2v4.554l-2.697.001c-2.115 0-2.524 1.005-2.524 2.48v3.251h5.043l-.657 5.093h-4.386v13.067h-5.259z"/></g></symbol><symbol viewBox="0 0 56 56" id="icon-instagram-56" xmlns="http://www.w3.org/2000/svg"><g fill="currentColor" fill-rule="evenodd"><path d="M0 56h56V0H0v56zm2.887-2.887h50.226V2.887H2.887v50.226z"/><path d="M23.33 27.995a4.665 4.665 0 109.33.002 4.665 4.665 0 00-9.33-.002z"/><path d="M33.75 20.501a1.75 1.75 0 113.5-.001 1.75 1.75 0 01-3.5.001zM20.81 28c0-3.97 3.22-7.19 7.19-7.19A7.19 7.19 0 1120.81 28zm20.454-9.17a6.842 6.842 0 00-1.614-2.48 6.86 6.86 0 00-2.48-1.615c-.89-.346-1.908-.583-3.398-.65-1.493-.069-1.97-.085-5.773-.085-3.801 0-4.278.016-5.771.084-1.49.068-2.508.305-3.399.65a6.86 6.86 0 00-2.48 1.616 6.856 6.856 0 00-1.614 2.48c-.346.89-.583 1.907-.651 3.398C14.016 23.721 14 24.198 14 28c0 3.802.016 4.278.084 5.772.068 1.49.305 2.508.65 3.399.36.92.837 1.7 1.616 2.48a6.87 6.87 0 002.48 1.613c.89.347 1.908.583 3.398.651 1.493.068 1.97.084 5.771.084 3.803 0 4.28-.016 5.773-.084 1.49-.068 2.508-.304 3.398-.65a6.87 6.87 0 002.48-1.615 6.857 6.857 0 001.614-2.48c.346-.89.584-1.908.652-3.398.068-1.494.084-1.97.084-5.772 0-3.802-.016-4.279-.084-5.772-.068-1.49-.306-2.508-.652-3.398z"/></g></symbol><symbol viewBox="0 0 56 56" id="icon-linkedin-56" xmlns="http://www.w3.org/2000/svg"><g fill="currentColor" fill-rule="evenodd"><path d="M0 56h56V0H0v56zm2.887-2.887h50.226V2.887H2.887v50.226z"/><path d="M18.799 15.43a2.888 2.888 0 00-2.888 2.889 2.888 2.888 0 105.777 0 2.891 2.891 0 00-2.89-2.89zm5.619 7.971v16.035H29.4v-7.932c0-2.092.396-4.117 2.989-4.117 2.554 0 2.59 2.391 2.59 4.251v7.798h4.979v-8.795c0-4.319-.932-7.64-5.975-7.64-2.424 0-4.05 1.33-4.716 2.591h-.068v-2.19h-4.781zm-8.112 16.035h4.986V23.401h-4.986z"/></g></symbol><symbol viewBox="0 0 56 56" id="icon-twitter-56" xmlns="http://www.w3.org/2000/svg"><g fill="currentColor" fill-rule="evenodd"><path d="M0 56h56V0H0v56zm2.887-2.887h50.226V2.887H2.887v50.226z"/><path d="M23.328 40.31c11.05 0 17.093-9.154 17.093-17.092 0-.167-.002-.333-.007-.498a.536.536 0 01.21-.443c.898-.68 1.7-1.484 2.377-2.384.12-.158-.042-.375-.228-.305a12.06 12.06 0 01-2.631.664c-.044.006-.066-.054-.03-.077a6.044 6.044 0 002.234-2.583.244.244 0 00-.335-.315c-.92.479-1.909.843-2.948 1.074a.53.53 0 01-.48-.139 6.009 6.009 0 00-10.117 5.305.298.298 0 01-.315.35A17.047 17.047 0 0116.51 18.03a.368.368 0 00-.61.081 5.98 5.98 0 00-.555 2.522c0 2.015.99 3.8 2.514 4.89.045.032.021.104-.035.101a5.956 5.956 0 01-2.17-.56.244.244 0 00-.346.238c.012.205.032.41.06.59a6.015 6.015 0 004.536 4.91c.053.012.052.088-.001.1a6.014 6.014 0 01-2.171.102.2.2 0 00-.216.269 6.018 6.018 0 004.978 3.818c.177.018.24.247.096.35a12.054 12.054 0 01-7.037 2.254h-.123c-.33 0-.441.44-.15.597a16.987 16.987 0 008.05 2.018"/></g></symbol><symbol viewBox="0 0 56 56" id="icon-youtube-56" xmlns="http://www.w3.org/2000/svg"><g fill="currentColor" fill-rule="evenodd"><path d="M0 56h56V0H0v56zm2.887-2.887h50.226V2.887H2.887v50.226z"/><path d="M24.769 31.776l-.001-8.794 8.456 4.412-8.455 4.382zM43.336 21.46s-.306-2.157-1.244-3.107c-1.19-1.246-2.524-1.252-3.136-1.325-4.38-.317-10.95-.317-10.95-.317h-.013s-6.57 0-10.95.317c-.611.073-1.944.08-3.135 1.325-.938.95-1.244 3.107-1.244 3.107s-.313 2.533-.313 5.065V28.9c0 2.532.313 5.065.313 5.065s.306 2.157 1.244 3.107c1.19 1.246 2.755 1.207 3.45 1.337 2.505.24 10.642.315 10.642.315s6.576-.01 10.956-.327c.612-.073 1.946-.079 3.136-1.325.938-.95 1.244-3.107 1.244-3.107s.313-2.533.313-5.065v-2.375c0-2.532-.313-5.065-.313-5.065z"/></g></symbol></svg>