<?xml version="1.0" encoding="UTF-8" standalone="no"?>
<svg width="50px" height="40px" viewBox="0 0 50 40" version="1.1" xmlns="http://www.w3.org/2000/svg" xmlns:xlink="http://www.w3.org/1999/xlink">
    <!-- Generator: Sketch 41.2 (35397) - http://www.bohemiancoding.com/sketch -->
    <title>shortcut-bankid-50</title>
    <desc>Created with Sketch.</desc>
    <defs></defs>
    <g id="Page-1" stroke="none" stroke-width="1" fill="none" fill-rule="evenodd">
        <g id="shortcut-bankid-50">
            <g id="shortcut-bankid-50-crop" transform="translate(7.000000, 0.000000)">
                <path d="M27.4576662,17.8927957 C27.4457024,18.3163333 27.3834908,18.7336332 27.3099136,19.1490618 C27.2040341,19.7485015 27.0395322,20.3304759 26.8176041,20.8943609 C26.5215005,21.6466235 26.1314814,22.340252 25.6403682,22.9727514 C25.4214311,23.2540702 25.1869411,23.5197947 24.9345053,23.7674301 C24.4272411,24.2651959 23.8661399,24.6849909 23.2517999,25.0286863 C22.6183179,25.382362 21.9519353,25.644344 21.2538489,25.8202462 C20.9200594,25.9038309 20.5838773,25.9730691 20.2417132,26.008 C20.060462,26.0254655 19.8786126,26.0491686 19.6961649,26.0591488 C19.4604785,26.0710004 19.2235957,26.074743 18.987311,26.077238 C18.7193224,26.0797332 18.4513337,26.0778618 18.182747,26.0778618 L18.081653,26.0778618 C18.3065721,24.5870595 18.5302947,23.1031186 18.7546155,21.6141876 C18.8521203,21.6085737 18.9448396,21.6035836 19.0369607,21.5973459 C19.4293726,21.5717715 19.8122136,21.4994145 20.184287,21.3640572 C20.6544636,21.1925214 21.0696067,20.9280443 21.4087798,20.5444278 C21.6797594,20.2381584 21.8747689,19.8832352 22.0051741,19.4896384 C22.1266065,19.1209923 22.1864255,18.7404946 22.2127457,18.351888 C22.2354769,18.0144302 22.2127457,17.6832102 22.1260083,17.3582277 C21.9884248,16.8461153 21.6959105,16.4606275 21.2436796,16.2092495 C20.985262,16.0657832 20.7094969,15.9778321 20.4229644,15.9248119 C20.1340392,15.871168 19.8433193,15.8512074 19.5496087,15.8512074 C19.1380546,15.8518312 18.7259025,15.8518312 18.3143485,15.8512074 C18.1402755,15.8512074 17.9727826,15.8200191 17.8130662,15.7476622 C17.6982139,15.6952658 17.59712,15.6222851 17.5121772,15.5249775 C17.3620317,15.3540654 17.36921,15.1176579 17.4948297,14.9136862 C17.5827635,14.7702199 17.7041958,14.6616845 17.8351992,14.5637531 C17.9781664,14.4570889 18.1109643,14.3404446 18.2246202,14.2000971 C18.3616054,14.0323039 18.4573157,13.8426788 18.4609048,13.6199941 C18.4644939,13.4016758 18.395104,13.2051893 18.2473514,13.0436338 C18.0792603,12.8602464 17.8657068,12.7679289 17.6342077,12.7130374 C17.4021104,12.6575222 17.1664239,12.6394329 16.9295412,12.6625123 C16.4994433,12.7036809 16.1136115,12.8565038 15.8049459,13.1833574 C15.659586,13.3374278 15.5572957,13.5176964 15.5411447,13.7403811 C15.5321718,13.8695008 15.5614831,13.9911353 15.6129273,14.1071559 C15.6906918,14.2824343 15.8151152,14.4159204 15.9610732,14.5306935 C16.0472124,14.598684 16.1255752,14.6754073 16.1716358,14.7795764 C16.2571768,14.9716965 16.2069289,15.1463511 16.1010495,15.3110256 C16.0059374,15.4576107 15.8773269,15.5667699 15.7295742,15.6509784 C15.5441356,15.7557712 15.3473314,15.8225142 15.1361708,15.8381084 C15.0434515,15.8455935 14.9513304,15.8499599 14.858611,15.8512074 C14.627112,15.8530788 14.3956129,15.8512074 14.1647119,15.8512074 L14.0624216,15.8512074 C14.0707963,15.7788505 14.0755818,15.7152263 14.0851528,15.6528497 C14.1629174,15.1401135 14.2424765,14.6273773 14.320241,14.1152648 C14.427915,13.4029233 14.5349908,12.6899581 14.6426649,11.9776165 C14.6791544,11.7368426 14.7180367,11.4966924 14.7545262,11.257166 C14.7581154,11.2309678 14.7581154,11.2041458 14.7599099,11.1785714 L20.5838773,11.1785714 C20.6060103,11.1816903 20.6281432,11.1879279 20.6502762,11.1885517 C20.9397996,11.1941656 21.2281267,11.217245 21.5164538,11.2471858 C21.8406721,11.2814929 22.1636943,11.3276517 22.4843235,11.3912759 C23.1548933,11.5241381 23.806321,11.7206247 24.4278393,12.0212802 C25.0912309,12.3431438 25.6852324,12.7629387 26.1805329,13.3293188 C26.5155186,13.7123116 26.7823109,14.1408393 26.9880879,14.6117831 C27.1418225,14.9629637 27.2566747,15.3278672 27.3338411,15.7046223 C27.3978473,16.0171294 27.4516844,16.3321316 27.4582644,16.6527476 C27.4594608,16.7113817 27.4684336,16.769392 27.4750137,16.8274023 C27.4744155,17.1218202 27.4744155,17.4156142 27.4744155,17.7100321 C27.4684336,17.7711612 27.4588626,17.8316666 27.4576662,17.8927957 L27.4576662,17.8927957 Z" id="Fill-1" fill="#005AA0"></path>
                <path d="M8.7927959,16.228212 L8.87295324,16.228212 C9.14931652,16.228212 9.42627803,16.2294596 9.7026413,16.2275883 C9.99216473,16.225717 10.2745099,16.1751919 10.5401058,16.0510623 C10.8272364,15.9182 11.0671102,15.7260799 11.2274248,15.4378997 C11.4379874,15.0605209 11.3859449,14.6687954 11.1006088,14.3650211 C11.04737,14.308882 10.9851583,14.2614757 10.9295267,14.2090794 C10.8852607,14.1679108 10.8392002,14.1279897 10.8009162,14.0818309 C10.6417979,13.8872158 10.6429943,13.6795015 10.8027107,13.4848863 C10.9600344,13.2940136 11.1616241,13.175498 11.389534,13.1043886 C11.7328945,12.9971007 12.0792459,13.007081 12.4238027,13.0950321 C12.5362622,13.1237254 12.6415435,13.1742505 12.7336646,13.2509738 C12.905943,13.3956876 12.9358524,13.643323 12.8317675,13.8317006 C12.7342628,14.0088502 12.5877065,14.1373462 12.4303828,14.2539905 C12.2772464,14.3668923 12.1372702,14.4941407 12.0266053,14.6519537 C11.8950037,14.8397074 11.8196319,15.0480455 11.8345866,15.2844531 C11.8459522,15.4672167 11.9153421,15.6256534 12.0295962,15.7616346 C12.2329804,16.0030323 12.4961836,16.1333995 12.7940816,16.1945286 C12.8622751,16.2082515 12.9334597,16.2151129 13.0034478,16.2157367 C13.2965603,16.217608 13.5902711,16.2163605 13.8833837,16.2163605 L13.9844776,16.2163605 C13.9707193,16.321777 13.9587555,16.4172134 13.944399,16.5120259 C13.8959456,16.8307706 13.8462959,17.1495154 13.7978427,17.4682602 C13.735631,17.8705897 13.6740176,18.2729191 13.6130023,18.6758724 C13.5489961,19.0987862 13.4855881,19.5217 13.4215818,19.9452375 C13.3629593,20.3332204 13.3025422,20.7212032 13.2439197,21.1091861 C13.2020465,21.3817721 13.1517986,21.6531107 13.1230856,21.9269442 C13.0656594,22.4839679 12.9633691,23.03413 12.88381,23.587411 C12.8066436,24.1244742 12.7252899,24.6596659 12.6451326,25.1961053 C12.6044557,25.4680676 12.5643771,25.7412773 12.5231021,26.0132396 C12.5201111,26.0325763 12.513531,26.0525369 12.5081473,26.0731212 L7.31108192,26.0731212 C7.80458785,22.7921086 8.29749549,19.5167098 8.7927959,16.228212" id="Fill-4" fill="#005AA0"></path>
                <path d="M8.08418134,29.6175505 C8.21279193,29.6343922 8.53102842,29.6306496 8.62853324,29.6088178 C8.88575449,29.5514312 9.04666732,29.3904995 9.08495137,29.1129232 C9.11785177,28.8808821 9.00898143,28.7137126 8.78705329,28.672544 C8.68536122,28.653831 8.57948175,28.6550786 8.47599506,28.651336 C8.3946414,28.6482171 8.31328768,28.6507121 8.22834485,28.6507121 C8.17929337,28.9769421 8.13263459,29.2950632 8.08418134,29.6175505 M7.84311117,31.246829 C7.86165503,31.2505716 7.87242247,31.2549379 7.88318984,31.2549379 C8.03812079,31.2549379 8.1936499,31.2580568 8.34798263,31.2518191 C8.41737253,31.2487004 8.48795882,31.2324824 8.55435785,31.209403 C8.67698656,31.166363 8.77987502,31.0927586 8.84986315,30.974243 C8.90489651,30.8819254 8.92942226,30.781499 8.9425824,30.6754587 C8.96292089,30.5139031 8.88874543,30.3598328 8.7673131,30.2962086 C8.6799775,30.2512974 8.58965096,30.2226041 8.49154799,30.2226041 C8.35037541,30.2219804 8.20980099,30.2219804 8.06862841,30.2226041 C8.04410267,30.2226041 8.02017509,30.2275943 7.99325663,30.2307131 C7.94241053,30.573161 7.89276088,30.9081237 7.84311117,31.246829 M6.46428571,31.762684 C6.47445492,31.7327432 6.48940962,31.7046738 6.49419518,31.6741091 C6.55401403,31.2773935 6.61144017,30.8800542 6.67066086,30.4833386 C6.7143287,30.1907921 6.7585947,29.8982454 6.80286063,29.6056989 C6.85191211,29.2751026 6.90215999,28.94513 6.95121147,28.6151574 C6.97753183,28.4361365 7.00265574,28.2558679 7.02957426,28.0681141 C7.05529639,28.0662428 7.0792239,28.0618764 7.10374965,28.0618764 C7.82815647,28.0612527 8.55375962,28.05751 9.27816644,28.0637477 C9.51923654,28.0662428 9.75492299,28.1161442 9.95770904,28.2664719 C10.1186219,28.3849876 10.210743,28.5459194 10.2274922,28.7523861 C10.2579999,29.1235273 10.1144345,29.4067173 9.82491112,29.6138078 C9.76927953,29.6537289 9.70766606,29.6842935 9.64904353,29.7186007 C9.62511601,29.7329473 9.60118843,29.7466701 9.56709164,29.7666307 C9.62810695,29.7984428 9.68014938,29.824641 9.73099541,29.8520868 C9.89250647,29.939414 10.0282953,30.0548109 10.1108454,30.2275943 C10.1778426,30.3679418 10.1945919,30.517022 10.1814317,30.6729637 C10.1658788,30.8569748 10.1204164,31.0310057 10.0324827,31.1913138 C9.84824048,31.5262764 9.56768987,31.7283769 9.20997286,31.8119615 C9.10110253,31.837536 8.98744663,31.8493876 8.87558528,31.8493876 C8.07221751,31.8525064 7.26825165,31.8512589 6.46428571,31.8512589 L6.46428571,31.762684" id="Fill-2" fill="#005AA0"></path>
                <path d="M12.0735631,31.2724658 C11.9132484,31.3741398 11.7367827,31.4558532 11.5304075,31.4521106 C11.3928241,31.4496156 11.2648117,31.33609 11.2863465,31.1527026 C11.3024976,31.0148501 11.3730838,30.9169188 11.4885343,30.8582848 C11.5740753,30.8146211 11.665,30.7815615 11.7547284,30.747878 C11.8205292,30.7235511 11.8893209,30.7067094 11.956318,30.6830063 C12.0221188,30.6593031 12.0861251,30.6312337 12.1608987,30.6012929 C12.1321856,30.8214826 12.1040707,31.0373058 12.0735631,31.2724658 M13.2842974,31.0747317 C13.2059347,31.0560187 13.1682488,31.007365 13.1676506,30.9250278 C13.1670524,30.8663937 13.1682488,30.8071358 13.1766234,30.7491255 C13.2220858,30.4303809 13.2771192,30.1128836 13.3142069,29.7928913 C13.3387326,29.582682 13.2962613,29.3837004 13.1592759,29.2159071 C13.0575839,29.0911537 12.9271787,29.0131829 12.7830151,28.9582915 C12.5287848,28.8603601 12.2637872,28.8547462 11.9987895,28.871588 C11.5615134,28.8996574 11.1762797,29.0761834 10.8209554,29.3344227 C10.7922424,29.3550071 10.7838678,29.3812053 10.7790822,29.4148887 C10.7485746,29.6269694 10.7156742,29.8378025 10.6839702,30.0492594 C10.6755955,30.1060222 10.6696137,30.1627849 10.661239,30.232023 C10.6893539,30.215805 10.7061032,30.2070724 10.7222543,30.1964683 C10.7862605,30.1534284 10.8490704,30.109141 10.9136748,30.0673486 C11.1332101,29.9276249 11.3599237,29.8041191 11.6165467,29.7560891 C11.7553266,29.7298908 11.8953028,29.7192869 12.035279,29.7486039 C12.1704697,29.7766733 12.2386632,29.8527729 12.2500288,29.9918729 C12.2548143,30.0498831 12.2416542,30.0960419 12.1830317,30.1184975 C12.0562156,30.1665275 11.9317923,30.221419 11.8031817,30.2619638 C11.5668971,30.336192 11.3258269,30.3985687 11.0895423,30.4727969 C10.8383029,30.5520153 10.6319278,30.6973529 10.5033172,30.9449883 C10.4243562,31.0984349 10.3980359,31.2618618 10.4351236,31.4315263 C10.4919516,31.6910132 10.6767919,31.8064101 10.9064965,31.8669154 C10.9495661,31.8781432 10.9926357,31.8912424 11.0357053,31.9037176 L11.3910295,31.9037176 C11.5836463,31.8656679 11.7768614,31.8301132 11.956318,31.7434096 C12.0298953,31.7078549 12.1016779,31.6685577 12.1782462,31.6292603 C12.2392614,31.7253204 12.3194187,31.8014199 12.4264945,31.8375984 C12.4970808,31.8619252 12.5724527,31.8756482 12.6454317,31.8943612 C12.6561991,31.8974799 12.6669665,31.9005988 12.6777339,31.9037176 L13.0845023,31.9037176 C13.1257774,31.8956087 13.149705,31.8725293 13.1664542,31.8288657 C13.2406297,31.6386169 13.3195906,31.4502393 13.3961588,31.2606142 C13.4164972,31.2107129 13.4362375,31.1595641 13.4583704,31.1040488 C13.393766,31.0934448 13.3381345,31.0884546 13.2842974,31.0747317" id="Fill-3" fill="#005AA0"></path>
                <path d="M25.6931883,30.481904 C25.5639795,30.7264205 25.3546134,30.8605303 25.0955976,30.9141743 C24.897597,30.9553429 24.697802,30.9378774 24.4848467,30.9391249 C24.5787624,30.281051 24.6786599,29.63171 24.7749684,28.9698936 C24.9968964,28.9667747 25.2122445,28.9468143 25.4204142,29.0123098 C25.6824209,29.0946469 25.8289773,29.2886383 25.8654668,29.564967 C25.9079382,29.8887019 25.8439319,30.1974664 25.6931883,30.481904 M27.0564609,29.0778051 C26.9200739,28.6723568 26.6580671,28.3872955 26.2806099,28.2188784 C26.0401379,28.1109669 25.7853094,28.0641843 25.5239009,28.0635606 C24.9203282,28.0623131 24.3161574,28.0635606 23.7125848,28.0635606 L23.6288383,28.0635606 C23.4416052,29.3254406 23.2549703,30.5823304 23.0665408,31.850448 L23.1317434,31.850448 C23.7837692,31.850448 24.4357952,31.8492004 25.087223,31.850448 C25.2624923,31.850448 25.4359671,31.8354776 25.606451,31.7949327 C25.9557933,31.7119717 26.2596732,31.5416835 26.5156981,31.2815728 C26.7352334,31.0588881 26.8967444,30.7950348 27.0068112,30.4987457 C27.1790897,30.0315445 27.2185701,29.556858 27.0564609,29.0778051" id="Fill-5" fill="#005AA0"></path>
                <path d="M16.7036052,31.8469549 C16.7095871,31.8257468 16.715569,31.8070338 16.7191581,31.7870733 C16.7484693,31.589963 16.7777806,31.3928528 16.8070919,31.1963663 C16.8675089,30.7846803 16.927926,30.3729943 16.9895395,29.9613083 C17.0146634,29.7928913 17.0278236,29.6238506 16.994325,29.4548098 C16.9506572,29.2302538 16.8358049,29.0624605 16.6378044,28.9589153 C16.4290364,28.8503799 16.2065102,28.8516274 15.9845821,28.8790731 C15.7680377,28.9052713 15.5760191,29.0038265 15.4019461,29.1398076 C15.3487073,29.1809762 15.2948703,29.2215211 15.2302658,29.2707986 C15.246417,29.1435502 15.2607735,29.0318959 15.2757282,28.9133802 L14.1613022,28.9133802 C14.0165405,29.8914464 13.8717788,30.8663937 13.7264189,31.8463312 L14.8414431,31.8463312 C14.8468268,31.820133 14.8522104,31.7970535 14.8557996,31.774598 C14.898271,31.4901604 14.9407424,31.2063466 14.9826156,30.9225326 C15.0173106,30.6873727 15.0508091,30.4528364 15.0872986,30.2183002 C15.0920842,30.183993 15.0956734,30.1446957 15.1142172,30.1184975 C15.2189002,29.970041 15.3475109,29.8527729 15.5287622,29.8253272 C15.6872821,29.8016241 15.8469986,29.8733572 15.838624,30.0954181 C15.8350348,30.1827455 15.8236692,30.2700728 15.8105091,30.3567763 C15.762654,30.6904916 15.7124062,31.0235829 15.6633546,31.3566743 C15.6400253,31.5182298 15.6160977,31.6804092 15.5909738,31.8469549 L16.7036052,31.8469549" id="Fill-6" fill="#005AA0"></path>
                <path d="M17.836575,28.066118 C17.8305931,28.0935637 17.8252094,28.1160194 17.8216203,28.1378512 C17.7683815,28.4971408 17.7157409,28.8564304 17.662502,29.21572 C17.5859338,29.7284562 17.5099639,30.2411924 17.4333956,30.7539286 C17.390326,31.0433563 17.3442655,31.332784 17.3041868,31.6228355 C17.2946158,31.6951925 17.266501,31.7687969 17.2838485,31.8473916 L18.3893016,31.8473916 C18.4551023,31.4057647 18.5215013,30.9647618 18.5896949,30.5087882 C18.6076406,30.5324914 18.6172115,30.5424716 18.6243898,30.5543232 C18.8804147,30.9653855 19.1364395,31.3764477 19.3906698,31.7887574 C19.4181865,31.8330449 19.4463014,31.8523817 19.498942,31.8523817 C19.9188706,31.8498866 20.3393975,31.8505104 20.7599243,31.8505104 C20.7784681,31.8505104 20.797012,31.8486391 20.8335015,31.8473916 C20.4656153,31.2803876 20.1061037,30.7252353 19.7441995,30.1669642 C20.1988231,29.7490405 20.6456702,29.338602 21.1092666,28.913817 C21.0608133,28.9113218 21.0338948,28.9088268 21.0069762,28.9088268 C20.6378937,28.9088268 20.2682129,28.9156883 19.8985322,28.9050842 C19.7687252,28.9019654 19.6778005,28.9443815 19.587474,29.0348277 C19.3493948,29.271859 19.1047355,29.5014051 18.8612726,29.7334464 C18.808632,29.7839714 18.7535986,29.8326253 18.6991635,29.8819028 C18.7685533,29.2731065 18.8660581,28.6742905 18.9486083,28.0667418 C18.5729455,28.066118 18.2098449,28.066118 17.836575,28.066118" id="Fill-7" fill="#005AA0"></path>
                <path d="M21.7411934,28.0682389 C21.5533621,29.3332377 21.3673253,30.5888799 21.1812885,31.8457697 L22.462011,31.8457697 C22.6492442,30.5863848 22.835281,29.3307426 23.0231123,28.0682389 L21.7411934,28.0682389 L21.7411934,28.0682389 L21.7411934,28.0682389 Z" id="Fill-8" fill="#005AA0"></path>
                <polygon id="Fill-4" fill="#005AA0" points="0 3 0 38 36 38 36 10 34 10 34 36 2 36 2 5 30 5 30 3"></polygon>
                <polygon id="Fill-1" fill="#E30613" points="37.4497475 0.843145751 36.0355339 2.25735931 37.4497475 3.67157288 38.863961 2.25735931"></polygon>
                <polygon id="Fill-2" fill="#E30613" points="36.7426407 4.37867966 35.3284271 2.96446609 30.3786797 7.91421356 31.7928932 9.32842712"></polygon>
                <polygon id="Fill-3" fill="#E30613" points="28.2573593 11.4497475 31.0857864 10.0355339 29.6715729 8.62132034"></polygon>
            </g>
        </g>
    </g>
</svg>