<svg width="50" height="40" xmlns="http://www.w3.org/2000/svg"><g transform="translate(6 3)" fill="none" fill-rule="evenodd"><path d="M30.44 11.93L28.113.29l-14.01 2.95-1.028.22m-3.245.656L2.853 5.591l2.163 10.766.054.163" stroke="#005AA0" stroke-width="2"/><path d="M22 12l-.6 3" stroke="#0058A0" stroke-width="1.5"/><ellipse stroke="#0058A0" stroke-width="1.5" cx="24.697" cy="14.262" rx="1.028" ry="1.039"/><ellipse stroke="#0058A0" stroke-width="1.5" cx="28.163" cy="14.961" rx="1.028" ry="1.039"/><path d="M18.919 4.06l.594 3.006" stroke="#E30613" stroke-width="1.5"/><ellipse stroke="#E30613" stroke-width="1.5" cx="21.838" cy="4.99" rx="1.028" ry="1.039"/><ellipse stroke="#E30613" stroke-width="1.5" cx="25.302" cy="4.279" rx="1.028" ry="1.039"/><path stroke="#005AA0" stroke-width="2" d="M7.756 22.133L4 21.34 7.005 7.426 32 12.663l-3.004 13.913-12.283-2.592M6 30.902c0 1.622-1.28 2.95-2.845 2.95a2.832 2.832 0 01-2.18-1.034 2.984 2.984 0 01-.427-.738 3.013 3.013 0 01-.237-1.13c0-1.623 1.28-2.95 2.844-2.95C4.72 28 6 29.278 6 30.902h0z"/><circle stroke="#005AA0" stroke-width="2" cx="11.5" cy="26.5" r="3.5"/><path stroke="#005AA0" stroke-width="2" d="M26 29l5 5 10-10"/></g></svg>