<?xml version="1.0" encoding="utf-8"?><svg xmlns="http://www.w3.org/2000/svg" xmlns:xlink="http://www.w3.org/1999/xlink"><symbol viewBox="0 0 32 32" id="icon-about_LF-32" xmlns="http://www.w3.org/2000/svg"><g fill="currentColor" fill-rule="evenodd"><path d="M19.5 5h-6.995A8.505 8.505 0 004 13.505v1C4 19.201 7.806 23 12.504 23h1.081L19 28.414v-7.416h-2v2.588L14.414 21h-1.91A6.496 6.496 0 016 14.505v-1A6.505 6.505 0 0112.505 7H19.5a6.5 6.5 0 016.5 6.505v1a6.491 6.491 0 01-5.94 6.471l.015 2.005A8.492 8.492 0 0028 14.505v-1C28 8.807 24.196 5 19.5 5"/><path fill-rule="nonzero" d="M18 12h-3v-2h5v8h-2z"/><path fill-rule="nonzero" d="M14 16h3v2h-5v-8h2z"/><path d="M15 13h2v2h-2z"/></g></symbol><symbol viewBox="0 0 32 32" id="icon-accont-32" xmlns="http://www.w3.org/2000/svg"><path d="M28 15h-1v-5H9.067v2H25v3h-3v2h4v2h-4v2h3v3H8.898C7.852 24 7 23.177 7 22.165V9.835C7 8.823 7.852 8 8.898 8H25V6H8.898C6.749 6 5 7.721 5 9.835v12.33C5 24.279 6.749 26 8.898 26H27v-5h1v-6z" fill="currentColor" fill-rule="evenodd"/></symbol><symbol viewBox="0 0 32 32" id="icon-apply_job-32" xmlns="http://www.w3.org/2000/svg"><g fill="currentColor"><path d="M18.539 12.98c-2.71 0-4.716-.767-6.083-2.068-.853-.812-1.293-1.645-1.456-2.258l1.933-.515c.01.043.059.169.155.35.172.328.418.66.747.975.986.938 2.497 1.515 4.704 1.515h8.388l.245.645.173.457c.432 1.25.655 2.57.655 3.919 0 6.627-5.373 12-12 12S4 22.627 4 16C4 9.372 9.372 4 16 4c3.541 0 6.834 1.544 9.1 4.177L23.584 9.48A9.975 9.975 0 0016 6C10.477 6 6 10.477 6 16s4.477 10 10 10 10-4.478 10-10c0-1.046-.16-2.07-.463-3.02h-6.998z"/><path d="M11.941 16.262h-2a2.262 2.262 0 114.524 0h-2a.262.262 0 10-.524 0zm7.594 0h-2a2.262 2.262 0 114.523 0h-2a.261.261 0 10-.523 0zm-.438 3.867l1.415 1.414A6.363 6.363 0 0116 23.409a6.363 6.363 0 01-4.512-1.866l1.414-1.414A4.364 4.364 0 0016 21.409a4.363 4.363 0 003.097-1.28z"/></g></symbol><symbol viewBox="0 0 32 32" id="icon-bank-32" xmlns="http://www.w3.org/2000/svg"><path d="M2 27v-2h28v2zm2-3v-2h24v2zm23-3h-2V10h2zm-5 0h-2V10h2zm-5 0h-2V10h2zm-5 0h-2V10h2zm-5 0H5V10h2zm9-15.899L7.553 9H3V7h4.114L16 2.899 24.886 7H29v2h-4.553z" fill="currentColor"/></symbol><symbol viewBox="0 0 32 32" id="icon-card_payment-32" xmlns="http://www.w3.org/2000/svg"><g fill="currentColor"><path d="M5 22V9c0-.448.552-1 1-1h20c.448 0 1 .552 1 1v13c0 .448-.552 1-1 1H6c-.448 0-1-.552-1-1zm21 3c1.552 0 3-1.448 3-3V9c0-1.552-1.448-3-3-3H6C4.448 6 3 7.448 3 9v13c0 1.552 1.448 3 3 3h20z"/><path d="M5 10v2h22v-2zm8 7v-2H7v2z"/></g></symbol><symbol viewBox="0 0 32 32" id="icon-contact-32" xmlns="http://www.w3.org/2000/svg"><g fill="currentColor" fill-rule="evenodd"><path d="M10 7.319C10 6.628 10.625 6 11.308 6h9.384C21.375 6 22 6.628 22 7.319V24.68c0 .691-.624 1.319-1.308 1.319h-9.384A1.31 1.31 0 0110 24.681V7.32zM11.308 28h9.384C22.482 28 24 26.474 24 24.681V7.32C24 5.525 22.482 4 20.692 4h-9.384C9.518 4 8 5.525 8 7.319V24.68A3.31 3.31 0 0011.308 28z" fill-rule="nonzero"/><path fill-rule="nonzero" d="M23 11V9H9v2zm0 10v-2H9v2z"/><path d="M16 22a1.5 1.5 0 110 3 1.5 1.5 0 010-3"/></g></symbol><symbol viewBox="0 0 32 32" id="icon-digital_services-32" xmlns="http://www.w3.org/2000/svg"><g fill="currentColor" fill-rule="evenodd"><path d="M19 17H5.5a.507.507 0 01-.5-.5v-10c0-.271.229-.5.5-.5h15c.271 0 .5.229.5.5V14h2V6.5C23 5.122 21.878 4 20.5 4h-15A2.503 2.503 0 003 6.5v10C3 17.878 4.122 19 5.5 19H12v1H9v2h8v-2h-3v-1h5v-2z"/><path d="M20 16.319c0-.691.625-1.319 1.308-1.319h4.384c.683 0 1.308.628 1.308 1.319v8.362c0 .691-.624 1.319-1.308 1.319h-4.384A1.31 1.31 0 0120 24.681V16.32zM21.308 28h4.384C27.482 28 29 26.474 29 24.681V16.32c0-1.795-1.518-3.32-3.308-3.32h-4.384C19.518 13 18 14.525 18 16.319v8.362A3.31 3.31 0 0021.308 28z" fill-rule="nonzero"/><path d="M25 23.499a1.5 1.5 0 11-3 .001 1.5 1.5 0 013-.001z" fill-rule="nonzero"/></g></symbol><symbol viewBox="0 0 32 32" id="icon-economy-32" xmlns="http://www.w3.org/2000/svg"><g fill="currentColor"><path d="M25.791 3.46l-13.72 2.667.382 1.964 11.836-2.263.984 4.35 1.95-.444z"/><path d="M6.336 16.135l1.987-8.796L26.214 11l-1.91 8.786s-8.45-1.908-9.459-2.112l-.396 1.96c.99.2 11.342 2.55 11.342 2.55l2.79-12.71-21.79-4.492-2.873 12.674 5.268 1.141.423-1.954-3.273-.708zM18.5 25a3.25 3.25 0 10-6.5 0 3.25 3.25 0 006.5 0zM14 25a1.25 1.25 0 112.5 0 1.25 1.25 0 01-2.5 0z"/><path d="M15.5 17.25a3.75 3.75 0 10-7.5 0 3.75 3.75 0 007.5 0zm-5.5 0a1.75 1.75 0 113.5 0 1.75 1.75 0 01-3.5 0z"/></g></symbol><symbol viewBox="0 0 32 32" id="icon-finance-32" xmlns="http://www.w3.org/2000/svg"><path d="M6.25 25A1.252 1.252 0 015 23.75V15h8v3h6v-3h8v8.75c0 .688-.562 1.25-1.25 1.25H6.25zM15 16h2v-1h-2v1zm10.75-6c.688 0 1.25.56 1.25 1.249v1.75H5v-1.75c0-.688.56-1.25 1.25-1.25h19.5zM12 8h8V6h-8v2zm10 0V4H10v4H6.25A3.253 3.253 0 003 11.249V23.75A3.254 3.254 0 006.25 27h19.5A3.254 3.254 0 0029 23.75V11.249a3.254 3.254 0 00-3.25-3.25H22z" fill="currentColor" fill-rule="evenodd"/></symbol><symbol viewBox="0 0 32 32" id="icon-forms-32" xmlns="http://www.w3.org/2000/svg"><g fill="currentColor" fill-rule="evenodd"><path d="M7 4v24h18l-.007-18.914L19.915 4H7zm2 2h10.085l3.908 3.915L23 26H9V6z"/><path d="M12 13h8v-2h-8zm0 4h8v-2h-8zm0 4h8v-2h-8z"/></g></symbol><symbol viewBox="0 0 32 32" id="icon-insurance-32" xmlns="http://www.w3.org/2000/svg"><g fill="currentColor" fill-rule="evenodd"><path d="M21.077 13.077c-1.853 0-3.752.855-5.068 2.216-1.305-1.39-3.134-2.216-5.027-2.216-1.364 0-2.598.313-3.632.9C8.407 10.686 11.703 8 15.154 8h1.693c3.356 0 6.662 2.687 7.767 5.91-.998-.547-2.191-.833-3.537-.833M16.847 6h-1.693C9.707 6 5 11.077 5 16.154v1.292h1.693c.869-1.71 2.543-2.369 4.289-2.369 1.746 0 3.299.97 4.172 2.37h1.693c.873-1.4 2.634-2.37 4.23-2.37 1.896 0 3.42.681 4.23 2.37H27v-1.293C27 11.077 22.24 6 16.847 6"/><path fill-rule="nonzero" d="M15 16v9h2v-9zm2-9V4h-2v3zm-7 18h2a1.5 1.5 0 003 0h2a3.5 3.5 0 01-7 0z"/></g></symbol><symbol viewBox="0 0 32 32" id="icon-insurance_animal-32" xmlns="http://www.w3.org/2000/svg"><g fill="currentColor"><path d="M17.308 23.281l-.458 1.947c-1.88-.442-3.24-2.102-3.24-4.06A4.17 4.17 0 0117.779 17c.876 0 1.731.29 2.46.795l-1.137 1.645a2.353 2.353 0 00-1.323-.44 2.17 2.17 0 00-2.169 2.169c0 1.015.708 1.88 1.698 2.112zM12.97 27v2H7v-3.7c0-1.302.937-2.3 2.192-2.3H13v2H9.192c-.121 0-.192.076-.192.3V27h3.97zM7.156 7.016l-.134.685a2.82 2.82 0 00.396 1.808c.806 1.42 2.622 1.898 4.074 1.074l.987 1.74c-2.404 1.363-5.444.563-6.788-1.805a4.83 4.83 0 01-.642-3.14l.459-2.362H8.98a6.752 6.752 0 015.025-2.227c3.541 0 6.687 2.744 6.995 6.281v1.092c0 1.588-1.485 2.864-3.084 2.864-1.59 0-2.916-1.277-2.916-2.864V9h2v1.162c0 .465.414.864.916.864.556 0 1.084-.453 1.084-.864v-.363l.004-.64c-.211-2.397-2.474-4.37-4.999-4.37-1.5 0-2.884.692-3.765 1.836l-.3.39H7.156z"/><path d="M10 14h2v10.91h-2zm17.332 4.719h2a5.619 5.619 0 01-5.608 5.609v-2a3.619 3.619 0 003.608-3.61z"/><path d="M22.723 23.327c0-4.088-1.945-7.9-5.164-10.357l1.213-1.59c3.708 2.829 5.951 7.226 5.951 11.947 0 1.774-.278 3.453-.834 5.01l-.237.663H12.866v-2h9.355c.334-1.149.502-2.376.502-3.673z"/></g></symbol><symbol viewBox="0 0 32 32" id="icon-insurance_boat-32" xmlns="http://www.w3.org/2000/svg"><g fill="currentColor"><path d="M22.79 6.652c.246.16.438.346.583.56.057.085.103.168.146.256a4.396 4.396 0 01.087.197l1.826 4.698-1.864.724c-.71-1.827-.71-1.827-1.795-4.628l-.015-.03c-.06-.133-.024-.078-.056-.1-.475-.307-1.96-.54-4.84-.54h-1.716c-2.874.004-4.36.238-4.839.546-.035.023 0-.028-.056.093l-1.819 4.677-1.864-.725c.712-1.83.712-1.83 1.864-4.783.015-.034.037-.084.058-.127a1.95 1.95 0 01.148-.257c.146-.214.34-.4.587-.56.804-.517 2.305-.795 4.92-.853V4.425c0-1.047.815-1.925 1.858-1.925 1.044 0 1.86.878 1.86 1.925v1.373c2.621.054 4.125.333 4.927.854zM1.456 27.483l1.088-1.678a3.446 3.446 0 003.763.03 6.983 6.983 0 017.7-.028l-1.086 1.68c-1.705-1.104-3.816-1.096-5.529.03a5.452 5.452 0 01-5.936-.034zm11.443 0l1.088-1.678a3.446 3.446 0 003.764.03 6.983 6.983 0 017.7-.028l-1.087 1.68c-1.705-1.104-3.816-1.096-5.529.03a5.452 5.452 0 01-5.936-.034zm11.437 0l1.089-1.678a3.452 3.452 0 003.777.022l1.07 1.69a5.452 5.452 0 01-5.936-.034zM27.7 14.836c.347.573.396 1.292.114 1.949L24.27 24.18l-1.804-.864 3.526-7.356a.115.115 0 00-.006-.093l-.092-.006-9.898-1.352-9.837 1.344-.181.008c.02.026.018.068.015.063l3.524 7.364-1.805.863-3.539-7.398A2.112 2.112 0 014.3 14.83c.36-.593.983-.962 1.662-.969l10.034-1.37 10.108 1.38a1.932 1.932 0 011.596.965z"/><path d="M15 16h2v6.608h-2z"/></g></symbol><symbol viewBox="0 0 32 32" id="icon-insurance_car-32" xmlns="http://www.w3.org/2000/svg"><g fill="currentColor"><path d="M7 16.5c0-.827.673-1.5 1.5-1.5s1.5.673 1.5 1.5S9.327 18 8.5 18 7 17.327 7 16.5zm15 0c0-.827.673-1.5 1.5-1.5s1.5.673 1.5 1.5-.673 1.5-1.5 1.5-1.5-.673-1.5-1.5zM9 11.027v2h14.658l-2.655-5.246-1.784.903 1.185 2.343z"/><path d="M29 14c0 .025-.333.033-.778.033C27.333 14.033 26 14 26 14l1.044 4L27 19h-6v2h6v2h-1v3h-2v-3H8v3H6v-3H5v-2h6v-2H5v-1l1-4s-1.333.033-2.222.033C3.333 14.033 3 14.025 3 14v-1c0-.968 4-1 4-1l2-3.531s.687-1.997 7-2c6.406 0 7 2 7 2L25 12s4 .032 4 1v1zm-4.336-6.531c-.57-.813-2.039-3-8.664-3-6.625.004-8.38 2.343-8.768 3l-1.315 2.55C3.75 10.089 1 10.661 1 13v1c0 .672.45 1.961 2.147 2.025.08.003.176.005.284.006l-.37 1.484-.06.239V23c0 .746.407 1.396 1.012 1.74L4 26a2 2 0 002 2h2a2 2 0 002-2v-1h12v1a2 2 0 002 2h2a2 2 0 002-2l.016-1.276A2 2 0 0029 23v-2c0-.04-.01-.078-.012-.118L29 19.013v-1.264l-.05-.254-.38-1.464c.107-.001.203-.003.283-.006C30.551 15.961 31 14.672 31 14v-1c0-2.339-2.684-2.91-4.917-2.981l-1.419-2.55z"/><path d="M13 21h6v-2h-6z"/></g></symbol><symbol viewBox="0 0 32 32" id="icon-insurance_home-32" xmlns="http://www.w3.org/2000/svg"><g fill="currentColor"><path d="M29.392 16.265l1.216-1.588L16.004 3.74 1.393 14.676l1.214 1.59L16.004 6.258z"/><path d="M18.392 13.088l1.216-1.588L16 8.74l-3.607 2.76 1.214 1.589 2.394-1.83zM14 19h4v8h2V17h-8v10h2zm-9-6v14h2V13zm20 0v14h2V13z"/></g></symbol><symbol viewBox="0 0 32 32" id="icon-insurance_truck-32" xmlns="http://www.w3.org/2000/svg"><g fill="currentColor"><path d="M12.911 24v-2h8v2zM20 10h-6.96V8H22v11H3v-4.647h2V17h15z"/><path d="M8.193 7.2l2.97-2.855.658 5.462-1.986.24-.178-1.48-1.277 1.23-1.475-1.059.144 1.914-1.691.588 1.114.733-1.099 1.671-4.502-2.959L4.94 9.268l-.348-4.653zM23 14v-2h3.897L30 18.624V23h-4.452v-2H28v-1.93L25.625 14zM7.439 21v2H5.312l-.955-4.16 1.95-.448L6.904 21z"/><path d="M21.75 23.5a1.75 1.75 0 103.5 0 1.75 1.75 0 00-3.5 0zm-1.75 0a3.5 3.5 0 117 0 3.5 3.5 0 01-7 0zm-11.75 0a1.75 1.75 0 103.5 0 1.75 1.75 0 00-3.5 0zm-1.75 0a3.5 3.5 0 117 0 3.5 3.5 0 01-7 0z"/></g></symbol><symbol viewBox="0 0 32 32" id="icon-insurance_vehicle-32" xmlns="http://www.w3.org/2000/svg"><g fill="currentColor"><path d="M5 21a5 5 0 1110 0 5 5 0 01-10 0zm2 0a3 3 0 106 0 3 3 0 00-6 0z"/><path d="M17.938 20h4.067v2H16v-1a6 6 0 00-10.654-3.787 6.375 6.375 0 00-1.153 2.123l-1.91-.593a8.372 8.372 0 011.513-2.794A8.002 8.002 0 0117.938 20z"/><path d="M21 22a4 4 0 118 0 4 4 0 01-8 0zm2 0a2 2 0 104 0 2 2 0 00-4 0z"/><path d="M20.072 13H27v6.798h-2V15h-6.222l-3.146-7H7v7.703H5V6h11.926z"/><path d="M20.3 7V5a2.702 2.702 0 012.701 2.701v7.173h-2V7.7A.702.702 0 0020.3 7zM10 7.64h2V12h-2z"/></g></symbol><symbol viewBox="0 0 32 32" id="icon-investment-32" xmlns="http://www.w3.org/2000/svg"><g fill="currentColor" fill-rule="evenodd"><path d="M21.017 6v2h3.586l-7.586 7.586-4-4.001-8.707 8.708 1.414 1.414 7.293-7.293 4 4 9-9V13h2V6zM7 23l2-2v5H7z"/><path d="M11 19l2-2v9h-2zm4 0l2 2v5h-2zm4 0l2-2v9h-2zm4-4l2-2v13h-2z"/></g></symbol><symbol viewBox="0 0 32 32" id="icon-loan-32" xmlns="http://www.w3.org/2000/svg"><g fill="currentColor"><path d="M26.125 13.521L23.753 2.725 4.918 6.893l2.457 10.794 8.23-1.962-.425-1.954-6.269 1.559-1.594-6.903L22.215 5.13l1.577 6.836-3.266.685.41 1.957z"/><path d="M22.5 14.25a3.75 3.75 0 10-7.5 0 3.75 3.75 0 007.5 0zm-5.5 0a1.75 1.75 0 113.5 0 1.75 1.75 0 01-3.5 0zm10.5 6a3.25 3.25 0 10-6.5 0 3.25 3.25 0 006.5 0zm-4.5 0a1.25 1.25 0 112.5 0 1.25 1.25 0 01-2.5 0zm-3 2.938l-7-5.456-7 5.456V29h2v-4.73l5-3.997 5 3.997V29h2z"/><path d="M12 29h2v-4h-2z"/></g></symbol><symbol viewBox="0 0 32 32" id="icon-offer-32" xmlns="http://www.w3.org/2000/svg"><g fill="currentColor"><path d="M5 24.009V13h10v-2H3v15.009h17v-6.954h-2v4.954z"/><path d="M10 11.009V10h3V8H8v5.009h5v-2zm12.915-1.256l-1.183-2.654-1.158 2.657-2.882-.31 1.722 2.336-1.705 2.348 2.887-.317 1.183 2.654 1.158-2.657 2.882.31-1.722-2.337 1.705-2.347-2.887.317zm7.163-2.8l-3.503 4.822 3.552 4.82-5.944-.64-2.384 5.47-2.436-5.465-5.93.652 3.503-4.821-3.552-4.821 5.944.64 2.384-5.47 2.436 5.465 5.93-.651z"/></g></symbol><symbol viewBox="0 0 32 32" id="icon-other_vehicles-32" xmlns="http://www.w3.org/2000/svg"><g fill="currentColor"><path d="M29 21.584c0-1.745-1.351-3.146-3-3.146s-3 1.4-3 3.146c0 1.745 1.351 3.146 3 3.146s3-1.4 3-3.146zm2 0c0 2.834-2.23 5.146-5 5.146s-5-2.312-5-5.146 2.23-5.146 5-5.146 5 2.312 5 5.146zm-22 0c0-1.745-1.351-3.146-3-3.146s-3 1.4-3 3.146c0 1.745 1.351 3.146 3 3.146s3-1.4 3-3.146zm2 0c0 2.834-2.23 5.146-5 5.146s-5-2.312-5-5.146 2.23-5.146 5-5.146 5 2.312 5 5.146z"/><path d="M19.8 22.244h-2c0-4.905 3.675-8.916 8.253-8.916 1.313 0 2.582.332 3.727.958l-.96 1.755a5.735 5.735 0 00-2.767-.713c-3.433 0-6.253 3.078-6.253 6.916z"/><path d="M24.27 18.35l-1.44 1.388-2.55-2.642 1.44-1.389zM9.139 19.771l-1.44-1.389 1.581-1.638 1.44 1.388z"/><path d="M19 19.547v2h-5.148l-5.719-5.77 1.42-1.408 5.133 5.178zm-5.556-6.06l-.888-1.792 7.63-3.784 2.361 2.657h3.358l1.952 3.245-1.714 1.03-1.369-2.275h-3.125l-1.943-2.187z"/><path d="M16.085 6.145l-1.896.572-.578-1.915 3.138-.947 4.907 5.673-1.512 1.309zM3 13.328h3.983v2H1V9.182h11.071l2.174 3.841-1.74.985-1.6-2.826H3z"/></g></symbol><symbol viewBox="0 0 32 32" id="icon-pension_mega-32" xmlns="http://www.w3.org/2000/svg"><path d="M16.002 4l-5.192 9h10.385l-5.193-9zm0 4.002L17.732 11h-3.46l1.73-2.998zM10.233 18l1.153-2h9.228l1.154 2H10.233zm11.538-4h-11.54L6.77 20h18.462l-3.461-6zM6.193 21L2.73 27.003h26.542L25.809 21H6.193zm1.154 2.001h17.305l1.157 2.002H6.192l1.155-2.002z" fill="currentColor" fill-rule="evenodd"/></symbol><symbol viewBox="0 0 32 32" id="icon-press_Media-32" xmlns="http://www.w3.org/2000/svg"><g fill="currentColor" fill-rule="evenodd"><path fill-rule="nonzero" d="M12 23v-2h12v2zm0-3v-2h12v2z"/><path d="M12 17h8v-7h-8v7zm2.037-2H18v-2.962h-3.963V15z"/><path d="M25.806 25c.74 0 1.194-.546 1.194-1.5V7.135c-.271.084-.565.214-.959.408-1.11.546-1.748.748-2.841.748-1.098 0-1.73-.205-2.805-.755C19.576 7.117 19.215 7 18.5 7c-.717 0-1.088.119-1.927.54-1.092.548-1.728.751-2.823.751-1.094 0-1.748-.206-2.845-.749A7.158 7.158 0 0010 7.147V23.5c0 .56-.087 1.063-.253 1.5h16.059zM6.5 27C4.366 27 3 25.659 3 23.5v-12C3 10.08 4.044 9 5.5 9H7v2H5.5c-.336 0-.5.17-.5.5v12c0 1.046.463 1.5 1.5 1.5 1.066 0 1.5-.419 1.5-1.5V5h1c1.048 0 1.684.202 2.749.728.888.44 1.28.563 2.001.563.717 0 1.088-.119 1.927-.54C16.769 5.205 17.405 5 18.5 5c1.098 0 1.73.205 2.805.755.819.419 1.18.536 1.895.536.72 0 1.1-.12 1.959-.543C26.269 5.202 26.907 5 28 5h1v18.5c0 1.985-1.258 3.5-3.194 3.5H7c-.161-.008-.328 0-.5 0z" fill-rule="nonzero"/></g></symbol><symbol viewBox="0 0 32 32" id="icon-prevent-32" xmlns="http://www.w3.org/2000/svg"><g fill="currentColor" fill-rule="evenodd"><path d="M24 17.242c0 3.41-5.227 6.981-7.988 8.5C13.246 24.183 8 20.554 8 17.241v-6.88A6.075 6.075 0 0011.362 7h9.307A6.393 6.393 0 0024 10.331v6.911zM22.25 5H9.75c0 1.912-1.798 3.75-3.75 3.75v8.492C6 23.048 16 28 16 28s10-4.797 10-10.758V8.75c-1.837 0-3.75-1.876-3.75-3.75z"/><path fill-rule="nonzero" d="M19.907 12.6l-4.64 4.614-2.343-2.295-1.424 1.405 3.753 3.723 6.063-6.029z"/></g></symbol><symbol viewBox="0 0 32 32" id="icon-report_damage-32" xmlns="http://www.w3.org/2000/svg"><g fill="currentColor"><path d="M25 6H7v20h2.01v2H5V4h22v24h-9.97v-2H25z"/><path d="M15.087 18.947L13.66 22.6 18 24.127V27h2v-4.29l-3.725-1.31 1.362-3.484-4.38-2.009L10.67 17H5.826v2h5.25l2.148-.907zM22 10h-4.4l-1.033-1.983-2-.523-.089-2.546-1.998.07.14 4.034 2.583.676L16.388 12H20v2.8l5.33 4.002 1.202-1.6L22 13.8zM11 28h4v-2h-4z"/></g></symbol><symbol viewBox="0 0 32 32" id="icon-save_profile-32" xmlns="http://www.w3.org/2000/svg"><g fill="currentColor"><path d="M3.753 10.845c-.476-.476-.476-1.33.002-1.809L2.339 7.624c-1.256 1.26-1.256 3.377 0 4.636 1.261 1.257 3.137 1.116 4.394-.142l-1.44-1.272c-.477.477-1.061.477-1.54 0z"/><path d="M22 21.37V25h-2v-3h-8.01v3H10v-3.63C7.901 20.366 6 17.843 6 15c0-3.16 2.859-6.03 5.99-6h6.499c.035-.078.063-.987 1.012-2C20.45 5.987 20.973 5.862 22 5.862v3.762c2 .625 2.906 2.157 3.154 4.376H28v2h-2.932C25 19.78 23.399 20.683 22 21.37zM29 18h1v-6h-3.233c-.289-1.558-1.444-3-2.767-3.563V4c-2.76 0-3.82 0-5.021 1-1.083.901-1.386 1.479-1.618 2H12c-.909.013-1.96.2-2.789.528C6.24 8.708 4 11.708 4 15c0 3.593 1.768 6.573 4 7.535V27h6v-3h4v3h6v-4.465c2-.963 3.06-3.018 3.062-4.535H29z"/><path d="M12 11v2h6v-2z"/></g></symbol><symbol viewBox="0 0 32 32" id="icon-subsidiaries-32" xmlns="http://www.w3.org/2000/svg"><g fill="currentColor"><path d="M12 7v6h8V7h-8zm-2-2h12v10H10V5zm5 18v2h2v-2h-2zm-2-2h6v6h-6v-6zm11 2v2h2v-2h-2zm-2-2h6v6h-6v-6zM6 23v2h2v-2H6zm-2-2h6v6H4v-6z"/><path d="M8 19v3H6v-5h20v5h-2v-3z"/><path d="M15 13.5h2V22h-2z"/></g></symbol><symbol viewBox="0 0 32 32" id="icon-travel_plane-32" xmlns="http://www.w3.org/2000/svg"><g fill="currentColor"><path d="M14.52 22.31l-1.45 1.38-2.886-3.035 5.183-1.696 5.365 1.369-.495 1.938-4.8-1.225-1.621.53z"/><path d="M11.391 26.766l5.287-1.532-.85 3.319 1.288-.373 4-4.223.261-.076 6.005-1.739a.853.853 0 00.563-.514l-2.808-.598-12.86 3.723-2.567.743-2.548-1.359-2.076.445.998.928 5.307 1.256zm.052 2.068l-6.334-1.5L.914 23.43l6.544-1.402 2.476 1.321 1.787-.517 13.342-3.862 4.652.99.169.572a2.842 2.842 0 01-1.946 3.531l-5.743 1.664-4.001 4.223-5.173 1.497.85-3.317-2.428.704zM20 16.494a.5.5 0 10-1 .012.5.5 0 001-.012zm2-.023a2.5 2.5 0 11-5 .058 2.5 2.5 0 015-.058zM15.903 5.743C18.22 6.138 20 8.027 20 10.333a4.4 4.4 0 01-.528 2.09l-1.762-.946c.19-.355.29-.742.29-1.144 0-1.452-1.325-2.666-3-2.666h-1v-1C14 5.214 12.676 4 11 4 9.325 4 8 5.214 8 6.667v1H7c-1.676 0-3 1.214-3 2.666C4 11.786 5.324 13 7 13h1.8v2H7c-2.743 0-5-2.07-5-4.667 0-2.306 1.779-4.195 4.097-4.59C6.557 3.595 8.592 2 11 2c2.409 0 4.443 1.595 4.903 3.743z"/><path d="M15 13.5a1.5 1.5 0 10-3 0 1.5 1.5 0 003 0zm2 0a3.5 3.5 0 11-7 0 3.5 3.5 0 017 0z"/></g></symbol></svg>