<?xml version="1.0" encoding="UTF-8"?>
<svg width="70px" height="70px" viewBox="0 0 70 70" version="1.1" xmlns="http://www.w3.org/2000/svg" xmlns:xlink="http://www.w3.org/1999/xlink">
    <!-- Generator: Sketch 61.2 (89653) - https://sketch.com -->
    <title>Icons/70px/apartment-70</title>
    <desc>Created with Sketch.</desc>
    <g id="Icons/70px/apartment-70" stroke="none" stroke-width="1" fill="none" fill-rule="evenodd">
        <g>
            <rect id="invisible-70" x="0" y="0" width="70" height="70"></rect>
            <g id="outlines" transform="translate(8.000000, 6.000000)" fill="#FF0000" fill-rule="nonzero">
                <path d="M16,58 L16,56 L22,56 L22,44 L32,44 L32,56 L48,56 L48,40 L36,40 L36,27 L46,27 L46,32 L48,32 L48,23 L36,23 L36,10 L46,10 L46,15 L48,15 L48,6 L6,6 L6,15 L8,15 L8,10 L18,10 L18,23 L6,23 L6,32 L8,32 L8,27 L18,27 L18,40 L6,40 L6,56 L12,56 L12,58 L1,58 L1,56 L4,56 L4,40 L0,40 L0,32 L4,32 L4,23 L0,23 L0,15 L4,15 L4,6 L1,6 L1,0 L54,0 L54,6 L50,6 L50,15 L54,15 L54,23 L50,23 L50,32 L54,32 L54,40 L50,40 L50,56 L53,56 L53,58 L16,58 Z M30,46 L24,46 L24,56 L30,56 L30,46 Z M46,44 L46,54 L36,54 L36,44 L46,44 Z M18,44 L18,54 L8,54 L8,44 L18,44 Z M44,46 L38,46 L38,52 L44,52 L44,46 Z M16,46 L10,46 L10,52 L16,52 L16,46 Z M52,34 L38,34 L38,38 L52,38 L52,34 Z M16,34 L2,34 L2,38 L16,38 L16,34 Z M32,27 L32,37 L22,37 L22,27 L32,27 Z M30,29 L24,29 L24,35 L30,35 L30,29 Z M44,29 L38,29 L38,32 L44,32 L44,29 Z M16,29 L10,29 L10,32 L16,32 L16,29 Z M16,17 L2,17 L2,21 L16,21 L16,17 Z M52,17 L38,17 L38,21 L52,21 L52,17 Z M32,10 L32,20 L22,20 L22,10 L32,10 Z M30,12 L24,12 L24,18 L30,18 L30,12 Z M16,12 L10,12 L10,15 L16,15 L16,12 Z M44,12 L38,12 L38,15 L44,15 L44,12 Z M52,2 L3,2 L3,4 L52,4 L52,2 Z" id="Combined-Shape"></path>
            </g>
        </g>
    </g>
</svg>