<?xml version="1.0" encoding="UTF-8"?>
<svg width="70px" height="70px" viewBox="0 0 70 70" version="1.1" xmlns="http://www.w3.org/2000/svg" xmlns:xlink="http://www.w3.org/1999/xlink">
    <!-- Generator: Sketch 63.1 (92452) - https://sketch.com -->
    <title>Icons/70px/ATV-70</title>
    <desc>Created with Sketch.</desc>
    <g id="Icons/70px/ATV-70" stroke="none" stroke-width="1" fill="none" fill-rule="evenodd">
        <g>
            <rect id="invisible-70" x="0" y="0" width="70" height="70"></rect>
            <g id="lines" transform="translate(6.000000, 14.000000)" fill="#FF0000" fill-rule="nonzero">
                <path d="M31.3404083,0.824729293 L35.2416786,5.70131716 L39.48,11 L44.5351838,11 L46.6394842,14.1549694 C47.009166,14.1268571 47.3827039,14.112544 47.759584,14.112544 C49.9004203,14.112544 51.9768906,14.5753291 53.8760169,15.4550666 L54.2802169,15.6499471 L53.3839111,17.4378609 C51.6535484,16.5704064 49.74037,16.112544 47.759584,16.112544 C44.6292341,16.112544 41.766149,17.2571471 39.5660307,19.1506512 L42.3828451,21.9677548 C43.9224151,20.7363465 45.875153,20 47.9997666,20 C52.970328,20 57,24.0295545 57,29 C57,33.9704455 52.970328,38 47.9997666,38 C43.0295908,38 39,33.9703643 39,29 C39,26.8753058 39.7363383,24.9225135 40.9677225,23.3829078 L38.1575746,20.5716804 C36.368748,22.6879426 35.2668631,25.403553 35.1960208,28.3744109 L35.192384,28.679744 L33.192384,28.679744 C33.192384,27.4086112 33.3552045,26.1754984 33.6611269,25.0001242 L21.5509339,25 L18.663,21.7507293 L17.0322155,23.3828736 C18.2122054,24.8581589 18.9376156,26.7128407 18.9961627,28.7346438 L19,29 C19,33.9704455 14.970328,38 9.99976665,38 C5.02959083,38 1,33.9703643 1,29 C1,24.0296357 5.02959083,20 9.99976665,20 C12.1249744,20 14.0781814,20.7366292 15.6179665,21.9684759 L17.331,20.2537293 L16.217,18.9997293 L3,19 L3,17 L14.439,16.9997293 L13.2525907,15.6643638 L14.7474093,14.3356362 L22.449,23 L34.3410933,23.0003299 C36.137807,18.7607285 39.8851159,15.5482108 44.4573355,14.4884613 L43.464,13 L38.5193752,13 L34.758,8.298 L23.503871,14.8637789 L22.496129,13.1362211 L33.495,6.71972929 L30.66,3.175 L26.7026198,4.54036708 L26.0503722,2.64971292 L31.3404083,0.824729293 Z M9.99976665,22 C6.13416531,22 3,25.1342002 3,29 C3,32.8657998 6.13416531,36 9.99976665,36 C13.8657715,36 17,32.865863 17,29 C17,27.4281509 16.4818453,25.9772716 15.6070267,24.8088503 L14.1714319,26.242635 C14.6950477,27.0330906 15,27.980972 15,29 C15,31.7611806 12.7610243,34 9.99972073,34 C7.23848052,34 5,31.7612439 5,29 C5,26.2387561 7.23848052,24 9.99972073,24 C11.0187941,24 11.9667255,24.304931 12.757226,24.8285137 L14.1920594,23.3936779 C13.0234281,22.5184346 11.572121,22 9.99976665,22 Z M47.9997666,22 C46.4275765,22 44.9763771,22.5184451 43.807816,23.3936965 L45.2424399,24.8284813 C46.0328411,24.3049161 46.9806812,24 47.9997207,24 C50.7610243,24 53,26.2388194 53,29 C53,31.7611806 50.7610243,34 47.9997207,34 C45.2384805,34 43,31.7612439 43,29 C43,27.9809487 43.3048849,27.0330611 43.8284123,26.242607 L42.3929234,24.8088775 C41.5181443,25.9773021 41,27.4281765 41,29 C41,32.8657998 44.1341653,36 47.9997666,36 C51.8657715,36 55,32.865863 55,29 C55,25.134137 51.8657715,22 47.9997666,22 Z M9.99972073,26 C8.34310514,26 7,27.3432705 7,29 C7,30.6567295 8.34310514,32 9.99972073,32 C11.656486,32 13,30.6565798 13,29 C13,28.5368786 12.8949957,28.0982326 12.7074981,27.7065731 L10.7071068,29.7071068 L9.29289322,28.2928932 L11.292464,26.2920888 C10.9009742,26.1048509 10.4625717,26 9.99972073,26 Z M47.9997207,26 C47.5369115,26 47.0985711,26.1048393 46.707149,26.2920635 L48.7071068,28.2928932 L47.2928932,29.7071068 L45.2924207,27.7065079 C45.1049724,28.0981723 45,28.5368367 45,29 C45,30.6567295 46.3431051,32 47.9997207,32 C49.656486,32 51,30.6565798 51,29 C51,27.3434202 49.656486,26 47.9997207,26 Z M2,13 L2,19 L0,19 L0,13 L2,13 Z M22.618034,9 L23.8944272,11.5527864 L22.1055728,12.4472136 L21.381,11 L5,11 L5,13 L12,13 L12,15 L3,15 L3,9 L22.618034,9 Z M46.8320503,9.4452998 L48.8320503,12.4452998 L47.1679497,13.5547002 L45.1679497,10.5547002 L46.8320503,9.4452998 Z" id="Combined-Shape"></path>
            </g>
        </g>
    </g>
</svg>