<?xml version="1.0" encoding="UTF-8"?>
<svg width="70px" height="70px" viewBox="0 0 70 70" version="1.1" xmlns="http://www.w3.org/2000/svg" xmlns:xlink="http://www.w3.org/1999/xlink">
    <!-- Generator: Sketch 63.1 (92452) - https://sketch.com -->
    <title>Icons/70px/baby-70</title>
    <desc>Created with Sketch.</desc>
    <g id="Icons/70px/baby-70" stroke="none" stroke-width="1" fill="none" fill-rule="evenodd">
        <g>
            <rect id="invisible-70" x="0" y="0" width="70" height="70"></rect>
            <g id="lines" transform="translate(11.000000, 6.000000)" fill="#FF0000" fill-rule="nonzero">
                <path d="M31.6870362,0.580237378 L31.818,0.613 L31.8926642,0.630376578 L32.0417625,0.677017361 C34.9952248,1.62770144 36.7104794,4.66102426 35.9572303,7.62650579 L35.8976912,7.84333997 C35.0602085,10.6829298 32.219818,12.4138805 29.3244429,11.9967625 L29.3099383,12.0475917 C27.4987298,11.5709755 25.6200517,11.3266498 23.7102657,11.3266498 C11.8567198,11.3266498 2.25569429,20.7041113 2.25569429,32.2590219 C2.25569429,43.8131116 11.8568656,53.1904312 23.7102657,53.1904312 C35.5641033,53.1904312 45.1638514,43.8136486 45.1638514,32.2590219 C45.1638514,25.5752624 41.9312224,19.4199237 36.558495,15.4946505 L36.2268878,15.2571286 L37.3761865,13.6203291 C43.4725563,17.9009698 47.1638514,24.7770256 47.1638514,32.2590219 C47.1638514,44.9288741 36.6582902,55.1904312 23.7102657,55.1904312 C10.7627184,55.1904312 0.255694286,44.9283788 0.255694286,32.2590219 C0.255694286,19.5888579 10.7625593,9.32664977 23.7102657,9.32664977 C25.5322921,9.32664977 27.3295857,9.53080118 29.0749844,9.93044284 L29.0815332,9.9051137 C31.1864419,10.4981487 33.3784501,9.31510996 33.9794831,7.27723285 C34.5596385,5.31270139 33.4507968,3.25873642 31.4755805,2.59616949 L31.326,2.55 L31.2079515,2.52345146 C30.2546835,2.34006178 29.2696688,2.78197676 28.9954312,3.41470531 L28.9564335,3.52185235 C28.6267473,4.64177251 29.2844372,5.53331751 31.0986091,5.21951034 L31.2974177,5.18123132 L31.7111994,7.13795938 C28.1722756,7.88632197 26.2922788,5.48966986 27.0381831,2.9558895 C27.5659982,1.17091489 29.7045923,0.149258104 31.6870362,0.580237378 Z M26.0716876,42.9242057 L27.4687495,44.3553654 C25.633459,46.1469295 23.182972,47.1160833 20.6400614,47.1160833 C18.2062201,47.1160833 15.8593849,46.2299279 14.0539605,44.584266 L13.8111648,44.3551618 L15.2086438,42.9244094 C16.6646661,44.3465707 18.6107018,45.1160833 20.6400614,45.1160833 C22.5611934,45.1160833 24.4100711,44.4248519 25.8377083,43.1432544 L26.0716876,42.9242057 Z M17.8231367,31.8686282 L17.8379154,32.0719214 L15.8401817,32.1671056 C15.7858636,31.0270714 14.7845845,30.1364783 13.5931574,30.1906355 C12.4557194,30.2423386 11.5743857,31.1368601 11.5473881,32.2112699 L11.5490583,32.358833 L9.55132457,32.4540172 C9.44391309,30.1996556 11.2182304,28.2965244 13.5023397,28.1926985 C15.7158071,28.0920837 17.6123697,29.7162828 17.8231367,31.8686282 Z M31.3189452,31.3754868 L31.333724,31.57878 L29.3359903,31.6739642 C29.2816721,30.53393 28.2803931,29.6433369 27.088966,29.6974941 C25.9515174,29.7491976 25.0704842,30.6435992 25.0440729,31.7176061 L25.0458248,31.8651126 L23.0481466,31.9614549 C22.9394186,29.7069559 24.7137316,27.803397 26.9981483,27.6995571 C29.2116157,27.5989423 31.1081783,29.2231414 31.3189452,31.3754868 Z" id="Combined-Shape"></path>
            </g>
        </g>
    </g>
</svg>