<?xml version="1.0" encoding="UTF-8"?>
<svg width="70px" height="70px" viewBox="0 0 70 70" version="1.1" xmlns="http://www.w3.org/2000/svg" xmlns:xlink="http://www.w3.org/1999/xlink">
    <!-- Generator: Sketch 63.1 (92452) - https://sketch.com -->
    <title>Icons/70px/bank-70</title>
    <desc>Created with Sketch.</desc>
    <defs>
        <path d="M10,20 L10,23 L18.4264075,23 L35,12.6415047 L51.5735925,23 L60,23 L60,20 L52.4372685,20 L35,9.34389146 L17.5627315,20 L10,20 Z M35,7 L53,18 L62,18 L62,25 L59,25 L59,28 L57,28 L57,33 L55,33 L55,52 L58,52 L58,57 L64,57 L64,64 L6,64 L6,57 L12,57 L12,52 L15,52 L15,33 L13,33 L13,28 L11,28 L11,25 L8,25 L8,18 L17,18 L35,7 Z M62,59 L8,59 L8,62 L62,62 L62,59 Z M30,28 L23,28 L23,33 L21,33 L21,52 L24,52 L24,57 L29,57 L29,52 L32,52 L32,33 L30,33 L30,28 Z M47,28 L40,28 L40,33 L38,33 L38,52 L41,52 L41,57 L46,57 L46,52 L49,52 L49,33 L47,33 L47,28 Z M56,54 L48,54 L48,57 L56,57 L56,54 Z M39,54 L31,54 L31,57 L39,57 L39,54 Z M22,54 L14,54 L14,57 L22,57 L22,54 Z M53,33 L51,33 L51,52 L53,52 L53,33 Z M36,33 L34,33 L34,52 L36,52 L36,33 Z M19,33 L17,33 L17,52 L19,52 L19,33 Z M55,28 L49,28 L49,31 L55,31 L55,28 Z M38,28 L32,28 L32,31 L38,31 L38,28 Z M21,28 L15,28 L15,31 L21,31 L21,28 Z M35,15 L19,25 L13,25 L13,26 L57,26 L57,25 L51,25 L35,15 Z" id="path-1"></path>
    </defs>
    <g id="Icons/70px/bank-70" stroke="none" stroke-width="1" fill="none" fill-rule="evenodd">
        <g id="outlines">
            <g>
                <rect id="invisible-70" x="0" y="0" width="70" height="70"></rect>
                <mask id="mask-2" fill="white">
                    <use xlink:href="#path-1"></use>
                </mask>
                <use id="Combined-Shape" fill="#FF0000" fill-rule="nonzero" xlink:href="#path-1"></use>
            </g>
        </g>
    </g>
</svg>