<?xml version="1.0" encoding="UTF-8"?>
<svg width="70px" height="70px" viewBox="0 0 70 70" version="1.1" xmlns="http://www.w3.org/2000/svg" xmlns:xlink="http://www.w3.org/1999/xlink">
    <!-- Generator: Sketch 61.2 (89653) - https://sketch.com -->
    <title>Icons/70px/boat-70</title>
    <desc>Created with Sketch.</desc>
    <defs>
        <path d="M10.6207723,50.9240505 L11.3456692,52.7880582 C8.55475989,53.8734193 5.47472195,53.9619908 2.6260536,53.0388049 L3.24263604,51.1362208 C5.65304772,51.9173782 8.25923367,51.8424331 10.6207723,50.9240505 Z M47.3792277,50.9240505 C49.7407663,51.8424331 52.3469523,51.9173782 54.757364,51.1362208 L55.3739464,53.0388049 C52.525278,53.9619908 49.4452401,53.8734193 46.6543308,52.7880582 L47.3792277,50.9240505 Z M21.3739464,49.8824701 L25.6087966,51.2548848 L24.9922141,53.1574688 L20.757364,51.7850542 C18.3469523,51.0038968 15.7407663,51.0788419 13.3792277,51.9972244 L12.6543308,50.1332168 C15.4452401,49.0478556 18.525278,48.9592841 21.3739464,49.8824701 Z M45.3456692,50.1332168 L44.6207723,51.9972244 C42.2592337,51.0788419 39.6530477,51.0038968 37.242636,51.7850542 L33.0077859,53.1574688 L32.3912034,51.2548848 L36.6260536,49.8824701 C39.474722,48.9592841 42.5547599,49.0478556 45.3456692,50.1332168 Z M21.3739464,45.8824701 L25.6087966,47.2548848 C27.8131649,47.9692683 30.1868351,47.9692683 32.3912034,47.2548848 L36.6260536,45.8824701 C39.474722,44.9592841 42.5547599,45.0478556 45.3456692,46.1332168 L47.3792277,46.9240505 C49.7407663,47.8424331 52.3469523,47.9173782 54.757364,47.1362208 L56.6917088,46.5093455 L57.3082912,48.4119295 L55.3739464,49.0388049 C52.525278,49.9619908 49.4452401,49.8734193 46.6543308,48.7880582 L44.6207723,47.9972244 C42.2592337,47.0788419 39.6530477,47.0038968 37.242636,47.7850542 L33.0077859,49.1574688 C30.4026233,50.0017403 27.5973767,50.0017403 24.9922141,49.1574688 L20.757364,47.7850542 C18.3469523,47.0038968 15.7407663,47.0788419 13.3792277,47.9972244 L11.3456692,48.7880582 C8.55475989,49.8734193 5.47472195,49.9619908 2.6260536,49.0388049 L0.69170878,48.4119295 L1.30829122,46.5093455 L3.24263604,47.1362208 C5.65304772,47.9173782 8.25923367,47.8424331 10.6207723,46.9240505 L12.6543308,46.1332168 C15.4452401,45.0478556 18.525278,44.9592841 21.3739464,45.8824701 Z M29.1051686,20.0055282 L49.5940462,22.1689008 C50.6925094,22.2848849 51.4889661,23.2693891 51.3729819,24.3678523 C51.3547366,24.5406506 51.3140505,24.7103344 51.2519514,24.8726177 L43.7959341,44.3573866 L41.9280211,43.6426134 L49.3840383,24.1578444 L29.0001646,22.0055589 L8.61629089,24.1578444 L16.0723081,43.6426134 L14.2043951,44.3573866 L6.74837784,24.8726177 C6.35361947,23.8409978 6.86989774,22.6846897 7.90151763,22.2899313 C8.06380085,22.2278323 8.23348472,22.1871462 8.406283,22.1689008 L28.8951607,20.0055282 L29.1051686,20.0055282 Z M29,31 C29.5522847,31 30,31.4477153 30,32 L30,42 C30,42.5522847 29.5522847,43 29,43 C28.4477153,43 28,42.5522847 28,42 L28,32 C28,31.4477153 28.4477153,31 29,31 Z M29,23 C29.5522847,23 30,23.4477153 30,24 L30,28 C30,28.5522847 29.5522847,29 29,29 C28.4477153,29 28,28.5522847 28,28 L28,24 C28,23.4477153 28.4477153,23 29,23 Z M31,0 C32.1045695,0 33,0.8954305 33,2 L32.9997088,5.999 L39.5228507,6 C40.8398653,6 42.0028724,6.85896758 42.3901877,8.11774245 L45.955779,19.7059142 L44.044221,20.2940858 L40.4786297,8.70591415 C40.3495246,8.28632253 39.9618555,8 39.5228507,8 L32.9997088,7.999 L33,8 L25,8 L24.9997088,7.999 L18.4771493,8 C18.0381445,8 17.6504754,8.28632253 17.5213703,8.70591415 L13.955779,20.2940858 L12.044221,19.7059142 L15.6098123,8.11774245 C15.9971276,6.85896758 17.1601347,6 18.4771493,6 L24.9997088,5.999 L25,2 C25,0.8954305 25.8954305,0 27,0 L31,0 Z M27.0002713,10 C27.5525561,10 28.0002713,10.4477153 28.0002713,11 C28.0002713,11.5522847 27.5525561,12 27.0002713,12 L21.4417897,12 C21.0113593,12 20.6292205,12.2754301 20.4931064,12.6837722 L18.9489546,17.3162278 C18.7743068,17.8401711 18.2079869,18.1233311 17.6840435,17.9486833 C17.1601002,17.7740355 16.8769402,17.2077156 17.051588,16.6837722 L18.5957398,12.0513167 C19.004082,10.8262903 20.1504985,10 21.4417897,10 L27.0002713,10 Z M31,2 L27,2 L27,6 L31,6 L31,2 Z" id="path-1"></path>
    </defs>
    <g id="Icons/70px/boat-70" stroke="none" stroke-width="1" fill="none" fill-rule="evenodd">
        <g>
            <rect id="invisible-70" x="0" y="0" width="70" height="70"></rect>
            <g id="outlines" transform="translate(6.000000, 7.000000)">
                <mask id="mask-2" fill="white">
                    <use xlink:href="#path-1"></use>
                </mask>
                <use id="Combined-Shape" fill="#FF0000" fill-rule="nonzero" xlink:href="#path-1"></use>
            </g>
        </g>
    </g>
</svg>