<?xml version="1.0" encoding="UTF-8"?>
<svg width="70px" height="70px" viewBox="0 0 70 70" version="1.1" xmlns="http://www.w3.org/2000/svg" xmlns:xlink="http://www.w3.org/1999/xlink">
    <!-- Generator: Sketch 61 (89581) - https://sketch.com -->
    <title>Icons/70px/briefcase-first-aid-70</title>
    <desc>Created with Sketch.</desc>
    <defs>
        <path d="M8.5,20 C8.22385763,20 8,20.2238576 8,20.5 L8,55.5 C8,55.7761424 8.22385763,56 8.5,56 L61.5,56 C61.7761424,56 62,55.7761424 62,55.5 L62,20.5 C62,20.2238576 61.7761424,20 61.5,20 L8.5,20 Z M42,11 C43.6568542,11 45,12.3431458 45,14 L45,18 L61.5,18 C62.8807119,18 64,19.1192881 64,20.5 L64,55.5 C64,56.8807119 62.8807119,58 61.5,58 L8.5,58 C7.11928813,58 6,56.8807119 6,55.5 L6,20.5 C6,19.1192881 7.11928813,18 8.5,18 L25,18 L25,14 C25,12.3431458 26.3431458,11 28,11 L42,11 Z M14,20 L12,20 L12,56 L14,56 L14,20 Z M58,19.9736669 L56,19.9736669 L56,56 L58,55.9736669 L58,19.9736669 Z M39,28 L31,28 L31,34 L25,34 L25,42 L31,42 L31,48 L39,48 L39,42 L45,42 L45,34 L39,34 L39,28 Z M37,30 L37,36 L43,36 L43,40 L37,40 L37,46 L33,46 L33,40 L27,40 L27,36 L33,36 L33,30 L37,30 Z M43,16 L27,16 L27,18 L43,18 L43,16 Z M42,13 L28,13 C27.4477153,13 27,13.4477153 27,14 L43,14 C43,13.4477153 42.5522847,13 42,13 Z" id="path-1"></path>
    </defs>
    <g id="Icons/70px/briefcase-first-aid-70" stroke="none" stroke-width="1" fill="none" fill-rule="evenodd">
        <g transform="translate(0.000000, 1.000000)" id="outlines">
            <g transform="translate(0.000000, -1.000000)">
                <rect id="invisible-70" x="0" y="0" width="70" height="70"></rect>
                <mask id="mask-2" fill="white">
                    <use xlink:href="#path-1"></use>
                </mask>
                <use id="Combined-Shape" fill="#FF0000" fill-rule="nonzero" xlink:href="#path-1"></use>
            </g>
        </g>
    </g>
</svg>