<?xml version="1.0" encoding="UTF-8"?>
<svg width="70px" height="70px" viewBox="0 0 70 70" version="1.1" xmlns="http://www.w3.org/2000/svg" xmlns:xlink="http://www.w3.org/1999/xlink">
    <!-- Generator: Sketch 57.1 (83088) - https://sketch.com -->
    <title>Icons/70px/briefcase-70</title>
    <desc>Created with Sketch.</desc>
    <g id="Icons/70px/briefcase-70" stroke="none" stroke-width="1" fill="none" fill-rule="evenodd">
        <g>
            <rect id="invisible-70" x="0" y="0" width="70" height="70"></rect>
            <g id="lines" transform="translate(6.000000, 11.000000)" fill="#FF0000" fill-rule="nonzero">
                <path d="M39,0 L39,7 L55.5,7 C56.8807119,7 58,8.11928813 58,9.5 L58,44.5 C58,45.8807119 56.8807119,47 55.5,47 L2.5,47 C1.11928813,47 0,45.8807119 0,44.5 L0,9.5 C0,8.11928813 1.11928813,7 2.5,7 L19,7 L19,0 L39,0 Z M56,13.079 L47.3507811,20 L36,20 L36,30 L22,30 L22,20 L10.6492189,20 L2,13.08 L2,44.5 C2,44.7761424 2.22385763,45 2.5,45 L55.5,45 C55.7761424,45 56,44.7761424 56,44.5 L56,13.079 Z M46,22 L46,42 L44,42 L44,22 L46,22 Z M14,22 L14,42 L12,42 L12,22 L14,22 Z M55.5,9 L2.5,9 C2.22385763,9 2,9.22385763 2,9.5 L2,10.52 L11.3507811,18 L26,18 L26,20 L24,20 L24,28 L34,28 L34,20 L32,20 L32,18 L46.6492189,18 L56,10.519 L56,9.5 C56,9.22385763 55.7761424,9 55.5,9 Z M29,21 C30.6568542,21 32,22.3431458 32,24 C32,25.6568542 30.6568542,27 29,27 C27.3431458,27 26,25.6568542 26,24 C26,22.3431458 27.3431458,21 29,21 Z M29,23 C28.4477153,23 28,23.4477153 28,24 C28,24.5522847 28.4477153,25 29,25 C29.5522847,25 30,24.5522847 30,24 C30,23.4477153 29.5522847,23 29,23 Z M37,5 L21,5 L21,7 L37,7 L37,5 Z M37,2 L21,2 L21,3 L37,3 L37,2 Z" id="Combined-Shape"></path>
            </g>
        </g>
    </g>
</svg>