<?xml version="1.0" encoding="UTF-8"?>
<svg width="70px" height="70px" viewBox="0 0 70 70" version="1.1" xmlns="http://www.w3.org/2000/svg" xmlns:xlink="http://www.w3.org/1999/xlink">
    <!-- Generator: Sketch 61 (89581) - https://sketch.com -->
    <title>Icons/70px/contact-70</title>
    <desc>Created with Sketch.</desc>
    <defs>
        <path d="M18.7932548,6.39111016 C22.2590854,10.9063551 25.1372755,12.3394211 30.2819138,12.3394211 L43.194852,12.3394211 C49.322398,12.3394211 52,15.5455701 52,20.9992196 C52,25.4858742 48.5514225,28.7433125 43.7704031,28.9855215 C41.3531145,33.5145531 37.1386468,37.0172591 31.9790105,38.5413302 C31.9929841,38.6924524 32,38.8454069 32,39 C32,41.7614237 29.7614237,44 27,44 C24.2385763,44 22,41.7614237 22,39 C22,36.2385763 24.2385763,34 27,34 C28.9022428,34 30.5563775,35.0622767 31.4015535,36.6259794 C38.779903,34.4523305 44,27.7881054 44,20.088498 C44,18.1950567 43.6318388,16.6485425 42.7291045,14.3408008 L30.2819138,14.3394211 C24.5127025,14.3394211 21.0493596,12.6150044 17.2067452,7.60888984 L18.7932548,6.39111016 Z M27,36 C25.3431458,36 24,37.3431458 24,39 C24,40.6568542 25.3431458,42 27,42 C28.6568542,42 30,40.6568542 30,39 C30,37.3431458 28.6568542,36 27,36 Z M27.0476941,0.857711782 C32.8483059,0.857711782 38.3447124,3.29870487 41.9458409,7.5549671 L40.4190111,8.84678383 C37.2058827,5.04910859 32.2714945,2.85771178 27.0476941,2.85771178 C17.0564212,2.85771178 8.70498286,11.0136055 8.70498286,20.8133621 C8.70498286,23.1960902 9.43764804,26.0492831 10.5995733,28.5831806 L11.2492595,30 L9.69058399,30 C3.8465877,30 0.22817551,26.3593645 0.22817551,21.6576118 C0.22817551,17.4037154 3.92645823,13.2664602 8.33026511,13.07766 C11.4566281,5.93695003 18.7386402,0.857711782 27.0476941,0.857711782 Z M32.7350395,24.4504418 L34.2160455,25.7945479 C32.2975914,27.9084002 29.7054369,29.1224948 26.9356312,29.1224948 C24.2090242,29.1224948 21.6536762,27.9460979 19.7430273,25.890162 L21.2080578,24.5286608 C22.7498919,26.1877369 24.7803559,27.1224948 26.9356312,27.1224948 C29.1253195,27.1224948 31.1858828,26.1573831 32.7350395,24.4504418 Z M7.54873289,15.1846033 C4.62558076,15.791196 2.22817551,18.7291909 2.22817551,21.6576118 C2.22817551,24.8455302 4.36570954,27.3610377 8.14438852,27.8950634 C7.24608616,25.532808 6.70498286,23.0287607 6.70498286,20.8133621 C6.70498286,18.8636885 7.0003463,16.9738222 7.54873289,15.1846033 Z M44.9069873,14.4446343 L44.9792359,14.646035 C45.6914945,16.6468623 46,18.2057234 46,20.088498 C46,22.4651029 45.5559515,24.752213 44.7401153,26.8689566 C47.9102856,26.3140424 50,24.0371214 50,20.9992196 C50,17.1320203 48.5690703,14.9343772 44.9069873,14.4446343 Z" id="path-1"></path>
    </defs>
    <g id="Icons/70px/contact-70" stroke="none" stroke-width="1" fill="none" fill-rule="evenodd">
        <g>
            <rect id="invisible-70" x="0" y="0" width="70" height="70"></rect>
            <g id="outlines" transform="translate(9.000000, 13.000000)">
                <mask id="mask-2" fill="white">
                    <use xlink:href="#path-1"></use>
                </mask>
                <use id="Combined-Shape" fill="#FF0000" fill-rule="nonzero" xlink:href="#path-1"></use>
            </g>
        </g>
    </g>
</svg>