<?xml version="1.0" encoding="UTF-8"?>
<svg width="70px" height="70px" viewBox="0 0 70 70" version="1.1" xmlns="http://www.w3.org/2000/svg" xmlns:xlink="http://www.w3.org/1999/xlink">
    <!-- Generator: Sketch 61.2 (89653) - https://sketch.com -->
    <title>Icons/70px/car-damage-70</title>
    <desc>Created with Sketch.</desc>
    <g id="Icons/70px/car-damage-70" stroke="none" stroke-width="1" fill="none" fill-rule="evenodd">
        <g>
            <rect id="invisible-70" x="0" y="0" width="70" height="70"></rect>
            <g id="outlines" transform="translate(6.000000, 15.000000)" fill="#FF0000" fill-rule="nonzero">
                <path d="M29,1.24344979e-13 C37.7512833,1.24344979e-13 42.1455254,1.21269669 44.5348078,3.63042292 C45.6956821,4.80511713 47.3072324,7.49740861 49.4429065,11.783648 L55.8743155,13.0852427 C57.1124748,13.3358226 58,14.4313174 58,15.6996732 L58,17.6666667 C58,19.1367942 56.8175378,20.3333333 55.3529412,20.3333333 L53.4321791,20.3333333 C54.276227,23.1181462 54.7058824,26.015876 54.7058824,28.9312004 L54.7058824,34.3333333 C54.7058824,35.4480621 54.0260283,36.4054919 53.0588235,36.8032567 L53.0588235,39.3333333 C53.0588235,40.8034609 51.8763614,42 50.4117647,42 L45.4705882,42 C44.0059916,42 42.8235294,40.8034609 42.8235294,39.3333333 L42.8235294,37 L15.1764706,37 L15.1764706,39.3333333 C15.1764706,40.8034609 13.9940084,42 12.5294118,42 L7.58823529,42 C6.12363864,42 4.94117647,40.8034609 4.94117647,39.3333333 L4.94117647,36.8032567 C3.97397166,36.4054919 3.29411765,35.4480621 3.29411765,34.3333333 L3.29411765,28.9312004 C3.29411765,26.015876 3.72377303,23.1181462 4.56782093,20.3333333 L2.64705882,20.3333333 C1.18246217,20.3333333 1.77635684e-14,19.1367942 1.77635684e-14,17.6666667 L1.77635684e-14,15.6996732 C1.77635684e-14,14.4313174 0.887525193,13.3358226 2.12568451,13.0852427 L8.55709348,11.783648 C10.6927676,7.49740861 12.3043179,4.80511713 13.4651922,3.63042292 C15.8544746,1.21269669 20.2487167,1.24344979e-13 29,1.24344979e-13 Z M13.176,36.999 L6.941,36.999 L6.94117647,39.3333333 C6.94117647,39.7041549 7.23354101,40 7.58823529,40 L12.5294118,40 C12.8841061,40 13.1764706,39.7041549 13.1764706,39.3333333 L13.176,36.999 Z M51.058,36.999 L44.823,36.999 L44.8235294,39.3333333 C44.8235294,39.7041549 45.1158939,40 45.4705882,40 L50.4117647,40 C50.766459,40 51.0588235,39.7041549 51.0588235,39.3333333 L51.058,36.999 Z M29,2 C20.7316754,2 16.821996,3.07896997 14.887749,5.03624375 C13.8917769,6.04407259 12.279418,8.76332882 10.1318208,13.1096563 L9.91449476,13.5494829 L2.52240352,15.0455014 C2.22081254,15.1065376 2,15.3790922 2,15.6996732 L2,17.6666667 C2,18.0374883 2.29236454,18.3333333 2.64705882,18.3333333 L7.32344725,18.3333333 L6.68078008,20.2842872 C5.76236039,23.072347 5.29411765,25.9921393 5.29411765,28.9312004 L5.294,30.999 L18,31 L18,33 L5.294,32.999 L5.29411765,34.3333333 C5.29411765,34.7041549 5.58648219,35 5.94117647,35 L52.0588235,35 C52.4135178,35 52.7058824,34.7041549 52.7058824,34.3333333 L52.7058824,28.9312004 C52.7058824,25.9921393 52.2376396,23.072347 51.3192199,20.2842872 L50.6765527,18.3333333 L55.3529412,18.3333333 C55.7076355,18.3333333 56,18.0374883 56,17.6666667 L56,15.6996732 C56,15.3790922 55.7791875,15.1065376 55.4775965,15.0455014 L48.0855052,13.5494829 L47.8681792,13.1096563 C45.720582,8.76332882 44.1082231,6.04407259 43.112251,5.03624375 C41.178004,3.07896997 37.2683246,2 29,2 Z M47.840996,31 L50.623353,33.2180595 L49.376647,34.7819405 L47.1413621,33 L40,33 L40,31 L47.840996,31 Z M38,31 L38,33 L20,33 L20,31 L38,31 Z M37,26 L37,28 L21,28 L21,26 L37,26 Z M12.5,18 C14.9852814,18 17,20.0147186 17,22.5 C17,24.9852814 14.9852814,27 12.5,27 C10.0147186,27 8,24.9852814 8,22.5 C8,20.0147186 10.0147186,18 12.5,18 Z M45.5,18 L45.5,20 C44.1192881,20 43,21.1192881 43,22.5 C43,23.8807119 44.1192881,25 45.5,25 C46.8807119,25 48,23.8807119 48,22.5 L50,22.5 C50,24.9852814 47.9852814,27 45.5,27 C43.0147186,27 41,24.9852814 41,22.5 C41,20.0147186 43.0147186,18 45.5,18 Z M12.5,20 C11.1192881,20 10,21.1192881 10,22.5 C10,23.8807119 11.1192881,25 12.5,25 C13.8807119,25 15,23.8807119 15,22.5 C15,21.1192881 13.8807119,20 12.5,20 Z M37,23 L37,25 L21,25 L21,23 L37,23 Z M24.8320503,3.4452998 L26.4605716,5.88808178 L37.3533972,3.70951665 L36.3308447,7.79972678 L42.5158805,6.91615024 L46.7661904,14 L13,14 L13,12 L43.2338096,12 L41.4841195,9.08384976 L33.6691553,10.2002732 L34.6466028,6.29048335 L25.5394284,8.11191822 L23.1679497,4.5547002 L24.8320503,3.4452998 Z" id="Combined-Shape"></path>
            </g>
        </g>
    </g>
</svg>