<?xml version="1.0" encoding="UTF-8"?>
<svg width="70px" height="70px" viewBox="0 0 70 70" version="1.1" xmlns="http://www.w3.org/2000/svg" xmlns:xlink="http://www.w3.org/1999/xlink">
    <!-- Generator: Sketch 63.1 (92452) - https://sketch.com -->
    <title>Icons/70px/caravan-70</title>
    <desc>Created with Sketch.</desc>
    <g id="Icons/70px/caravan-70" stroke="none" stroke-width="1" fill="none" fill-rule="evenodd">
        <g>
            <rect id="invisible-70" x="0" y="0" width="70" height="70"></rect>
            <g id="lines" transform="translate(5.000000, 19.000000)" fill="#FF0000" fill-rule="nonzero">
                <path d="M27.9997623,23 C30.761158,23 33,25.2390257 33,28.0002377 C33,28.7756301 32.8228251,29.5273775 32.4867944,30.2085533 C31.6515673,31.9033582 29.9236411,33.0004753 27.9997623,33.0004753 C25.2386043,33.0004753 23,30.7616873 23,28.0002377 C23,25.2391176 25.2387501,23 27.9997623,23 Z M27.9997623,25 C26.3433931,25 25,26.3436136 25,28.0002377 C25,29.6571545 26.3432106,31.0004753 27.9997623,31.0004753 C29.1546587,31.0004753 30.1911739,30.3423578 30.6929902,29.3240952 C30.8941326,28.9163545 31,28.4671625 31,28.0002377 C31,26.3435585 29.6565518,25 27.9997623,25 Z M50.7708886,0 L56.0480481,20.0532063 L53.4425115,26.999 L59,27 L59,29 L52.6925115,28.999 L52.6930005,29 L35,29 L35,27 L50.9995115,27 L51,27 L51.3055115,26.999 L53.951,19.946 L49.228,2 L6.811,2 L3.23151148,19 L8,19 L8,21 L3.44251148,21 L5.693,27 L21,27 L21,29 L4.30699953,29 L0.961511478,20.0786985 L5.1886059,0 L50.7708886,0 Z M21,6 L21,25 L19,25 L19,8 L12,8 L12,25 L10,25 L10,6 L21,6 Z M35,16 L35,18 L26,18 L26,16 L35,16 Z M43,6 L43,14 L26,14 L26,6 L43,6 Z M41,8 L28,8 L28,12 L41,12 L41,8 Z" id="Combined-Shape"></path>
            </g>
        </g>
    </g>
</svg>