<?xml version="1.0" encoding="UTF-8"?>
<svg width="70px" height="70px" viewBox="0 0 70 70" version="1.1" xmlns="http://www.w3.org/2000/svg" xmlns:xlink="http://www.w3.org/1999/xlink">
    <!-- Generator: Sketch 61 (89581) - https://sketch.com -->
    <title>Icons/70px/card-70</title>
    <desc>Created with Sketch.</desc>
    <g id="Icons/70px/card-70" stroke="none" stroke-width="1" fill="none" fill-rule="evenodd">
        <g>
            <rect id="invisible-70" x="0" y="0" width="70" height="70"></rect>
            <g id="outlines" transform="translate(7.000000, 17.000000)" fill="#FF0000" fill-rule="nonzero">
                <path d="M54.5,-1 C55.8807119,-1 57,0.119288125 57,1.5 L57,35.5 C57,36.8807119 55.8807119,38 54.5,38 L1.5,38 C0.119288125,38 -1,36.8807119 -1,35.5 L-1,1.5 C-1,0.119288125 0.119288125,-1 1.5,-1 L54.5,-1 Z M55,13 L1,13 L1,35.5 C1,35.7761424 1.22385763,36 1.5,36 L54.5,36 C54.7761424,36 55,35.7761424 55,35.5 L55,13 Z M15,23 L15,25 L4,25 L4,23 L15,23 Z M23,19 L23,21 L4,21 L4,19 L23,19 Z M52,15 L52,21 L46,21 L46,19 L50,19 L50,15 L52,15 Z M55,5 L1,5 L1,11 L55,11 L55,5 Z M54.5,1 L1.5,1 C1.22385763,1 1,1.22385763 1,1.5 L1,3 L55,3 L55,1.5 C55,1.22385763 54.7761424,1 54.5,1 Z" id="Combined-Shape"></path>
            </g>
        </g>
    </g>
</svg>