<?xml version="1.0" encoding="UTF-8"?>
<svg width="70px" height="70px" viewBox="0 0 70 70" version="1.1" xmlns="http://www.w3.org/2000/svg" xmlns:xlink="http://www.w3.org/1999/xlink">
    <!-- Generator: Sketch 61 (89581) - https://sketch.com -->
    <title>Icons/70px/card-block-70</title>
    <desc>Created with Sketch.</desc>
    <defs>
        <path d="M50.8666667,12 C53.1464152,12 55,13.8284879 55,16.0909091 L55.000887,31.2485186 C60.2981276,33.563391 64,38.8493862 64,45 C64,53.2842712 57.2842712,60 49,60 C41.7432571,60 35.6900836,54.8469068 34.3001295,48.0003703 L10.1333333,48 C7.85358482,48 6,46.1715121 6,43.9090909 L6,16.0909091 C6,13.8284879 7.85358482,12 10.1333333,12 L50.8666667,12 Z M36,45 C36,52.1797017 41.8202983,58 49,58 C52.4808733,58 55.6422163,56.6319283 57.9756736,54.4041403 L39.2343493,36.4188353 C37.2209896,38.7082997 36,41.7115611 36,45 Z M49,32 C45.8292358,32 42.9236044,33.1351685 40.6673387,35.0212725 L59.3133424,52.9152997 C60.9982768,50.7231728 62,47.9785689 62,45 C62,37.8202983 56.1797017,32 49,32 Z M53,26 L8,26 L8,43.9090909 C8,45.0607937 8.95209741,46 10.1333333,46 L34.0328596,46.0008365 C34.011068,45.670039 34,45.336312 34,45 C34,36.7157288 40.7157288,30 49,30 C50.3854453,30 51.7270208,30.1878293 53.0006509,30.5394124 L53,26 Z M22,33 L22,35 L11,35 L11,33 L22,33 Z M30,29 L30,31 L11,31 L11,29 L30,29 Z M53,18 L8,18 L8,24 L53,24 L53,18 Z M50.8666667,14 L10.1333333,14 C8.98311907,14 8.05016607,14.8905232 8.00195687,16.0006237 L52.996,16 L52.99466,15.9419518 C52.9167758,14.8593117 51.9965445,14 50.8666667,14 Z" id="path-1"></path>
    </defs>
    <g id="Icons/70px/card-block-70" stroke="none" stroke-width="1" fill="none" fill-rule="evenodd">
        <g id="outlines">
            <g>
                <rect id="invisible-70" x="0" y="0" width="70" height="70"></rect>
                <mask id="mask-2" fill="white">
                    <use xlink:href="#path-1"></use>
                </mask>
                <use id="Combined-Shape" fill="#FF0000" fill-rule="nonzero" xlink:href="#path-1"></use>
            </g>
        </g>
    </g>
</svg>