<?xml version="1.0" encoding="UTF-8"?>
<svg width="70px" height="70px" viewBox="0 0 70 70" version="1.1" xmlns="http://www.w3.org/2000/svg" xmlns:xlink="http://www.w3.org/1999/xlink">
    <!-- Generator: Sketch 61 (89581) - https://sketch.com -->
    <title>Icons/70px/circlediagram-70</title>
    <desc>Created with Sketch.</desc>
    <g id="Icons/70px/circlediagram-70" stroke="none" stroke-width="1" fill="none" fill-rule="evenodd">
        <g>
            <rect id="invisible-70" x="0" y="0" width="70" height="70"></rect>
            <g id="outlines" transform="translate(6.000000, 6.000000)" fill="#FF0000" fill-rule="nonzero">
                <path d="M31.5,5 C46.1355459,5 58,16.8644541 58,31.5 C58,46.1355459 46.1355459,58 31.5,58 C16.8644541,58 5,46.1355459 5,31.5 L5,30.5 L30.5,30.5 L30.5,5 L31.5,5 Z M32.5,7.02003662 L32.5,32.5 L7.02003662,32.5 C7.54462414,45.5673093 18.3039693,56 31.5,56 C45.0309764,56 56,45.0309764 56,31.5 C56,18.3039693 45.5673093,7.54462414 32.5,7.02003662 Z M27,0 L27,27 L0,27 L0,26 C0,11.6405965 11.6405965,0 26,0 L27,0 Z M25,2.02045558 C12.5405582,2.53112532 2.53112532,12.5405582 2.02045593,25 L25,25 L25,2.02045558 Z" id="Combined-Shape"></path>
            </g>
        </g>
    </g>
</svg>