<?xml version="1.0" encoding="UTF-8"?>
<svg width="70px" height="70px" viewBox="0 0 70 70" version="1.1" xmlns="http://www.w3.org/2000/svg" xmlns:xlink="http://www.w3.org/1999/xlink">
    <!-- Generator: Sketch 61 (89581) - https://sketch.com -->
    <title>Icons/70px/clipboard-70</title>
    <desc>Created with Sketch.</desc>
    <defs>
        <path d="M28,0 C29.2103075,0 30,1.18453869 30,2.5 L30,5 L33,5 C33.7402524,5 34.3865739,5.40216612 34.7323937,5.99992752 L41.8571429,6 C44.1806663,6 46,8.10877311 46,10.6428571 L46,54.3571429 C46,56.8912269 44.1806663,59 41.8571429,59 L4.14285714,59 C1.81933366,59 0,56.8912269 0,54.3571429 L0,10.6428571 C0,8.10877311 1.81933366,6 4.14285714,6 L11.2676063,5.99992752 C11.6134261,5.40216612 12.2597476,5 13,5 L16,5 L16,2.5 C16,1.18453869 16.7896925,0 18,0 L28,0 Z M11,8 L4.14285714,8 C2.99487648,8 2,9.15315229 2,10.6428571 L2,54.3571429 C2,55.8468477 2.99487648,57 4.14285714,57 L41.8571429,57 C43.0051235,57 44,55.8468477 44,54.3571429 L44,10.6428571 C44,9.15315229 43.0051235,8 41.8571429,8 L35,8 L35,10 L40,10 C41.1045695,10 42,10.8954305 42,12 L42,48.4142136 L35.4142136,55 L6,55 C4.8954305,55 4,54.1045695 4,53 L4,12 C4,10.8954305 4.8954305,10 6,10 L11,10 L11,8 Z M11,12 L6,12 L6,53 L34,53 L34,47 L40,47 L40,12 L35,12 L35,13 C35,14.1045695 34.1045695,15 33,15 L13,15 C11.8954305,15 11,14.1045695 11,13 L11,12 Z M38.585,49 L36,49 L36,51.585 L38.585,49 Z M36,35 L36,37 L9,37 L9,35 L36,35 Z M36,30 L36,32 L9,32 L9,30 L36,30 Z M36,25 L36,27 L9,27 L9,25 L36,25 Z M25,20 L25,22 L9,22 L9,20 L25,20 Z M27.8789612,2 L18.1210388,2 C18.0501968,2.11001755 18,2.29177256 18,2.5 L18,7 L13,7 L13,13 L33,13 L33,7 L28,7 L28,2.5 C28,2.29177256 27.9498032,2.11001755 27.8789612,2 Z M23,4 C24.6568542,4 26,5.34314575 26,7 C26,8.65685425 24.6568542,10 23,10 C21.3431458,10 20,8.65685425 20,7 C20,5.34314575 21.3431458,4 23,4 Z M23,6 C22.4477153,6 22,6.44771525 22,7 C22,7.55228475 22.4477153,8 23,8 C23.5522847,8 24,7.55228475 24,7 C24,6.44771525 23.5522847,6 23,6 Z" id="path-1"></path>
    </defs>
    <g id="Icons/70px/clipboard-70" stroke="none" stroke-width="1" fill="none" fill-rule="evenodd">
        <g>
            <rect id="invisible-70" x="0" y="0" width="70" height="70"></rect>
            <g id="outlines" transform="translate(12.000000, 5.000000)">
                <mask id="mask-2" fill="white">
                    <use xlink:href="#path-1"></use>
                </mask>
                <use id="Combined-Shape" fill="#FF0000" fill-rule="nonzero" xlink:href="#path-1"></use>
            </g>
        </g>
    </g>
</svg>