<?xml version="1.0" encoding="UTF-8"?>
<svg width="70px" height="70px" viewBox="0 0 70 70" version="1.1" xmlns="http://www.w3.org/2000/svg" xmlns:xlink="http://www.w3.org/1999/xlink">
    <!-- Generator: Sketch 61 (89581) - https://sketch.com -->
    <title>Icons/70px/coins-70</title>
    <desc>Created with Sketch.</desc>
    <g id="Icons/70px/coins-70" stroke="none" stroke-width="1" fill="none" fill-rule="evenodd">
        <g>
            <rect id="invisible-70" x="0" y="0" width="70" height="70"></rect>
            <g id="outlines" transform="translate(7.000000, 14.000000)" fill="#FF0000" fill-rule="nonzero">
                <path d="M25,0 L25,4 L33,4 L33,10 L28,10 L28,26 L5,26 L5,28 L26,28 L26,30 L5,30 L4.999,32 L25,32 L25,34 L5,34 L5,36 L25,36 L25,38 L5,38 L4.999,40 L26,40 L26,42 L5,42 L5,44 L28,44 L28,50 L3,50 L3,41 L3,41 L3,36 L3,36 L3,33 L3,33 L3,28 L3,28 L3,8 L8,8 L8,6 L0,6 L0,0 L25,0 Z M42,20 C50.2842712,20 57,26.7157288 57,35 C57,43.2842712 50.2842712,50 42,50 C33.7157288,50 27,43.2842712 27,35 C27,26.7157288 33.7157288,20 42,20 Z M26,46 L5,46 L5,48 L26,48 L26,46 Z M42,22 C34.8202983,22 29,27.8202983 29,35 C29,42.1797017 34.8202983,48 42,48 C49.1797017,48 55,42.1797017 55,35 C55,27.8202983 49.1797017,22 42,22 Z M42,24 C48.0751322,24 53,28.9248678 53,35 C53,36.0607374 52.8498592,37.0864075 52.5696697,38.0569181 L52.5336751,38.1780081 L52.525517,38.2058662 C52.3759204,38.6976528 52.1928017,39.1748397 51.9788221,39.6347659 C51.9603683,39.6740266 51.9420853,39.7127343 51.9235847,39.7513161 C51.9013541,39.7980351 51.8784254,39.8449779 51.8551738,39.8917318 C51.8368072,39.9283554 51.8185177,39.9646316 51.8000346,40.0007908 C51.7735535,40.0528623 51.7464489,40.1048419 51.7189433,40.1565758 C51.6957807,40.199924 51.6725772,40.2428804 51.6490982,40.2856621 C51.6360617,40.3095977 51.6227374,40.3336562 51.6093258,40.3576593 C51.5764165,40.4164045 51.5431999,40.4746055 51.5094718,40.5324678 C51.3601569,40.7886506 51.2010668,41.0377493 51.0324998,41.2797541 C51.0205351,41.2969603 51.0085822,41.3140191 50.9965823,41.331042 C50.9512882,41.3952585 50.9051715,41.4592069 50.85839,41.5226349 C50.8384866,41.5496716 50.8188542,41.5760409 50.7991073,41.6023184 C50.7681512,41.6434555 50.73657,41.6848691 50.7047029,41.7260503 C50.6776918,41.761021 50.6506414,41.7955503 50.6233905,41.829912 C50.576501,41.8889614 50.5293208,41.9472179 50.4815619,42.0049784 C50.4766486,42.0109913 50.4717201,42.0169391 50.4667856,42.0228816 L50.4815619,42.0049784 C50.3454011,42.1696537 50.2045367,42.3302973 50.0591745,42.4867032 C50.0310202,42.5170471 50.0024297,42.5474624 49.9736693,42.5777134 C49.9303368,42.6232456 49.8872297,42.6678275 49.8437516,42.7120435 C49.8108761,42.7455082 49.7772265,42.7792904 49.7433606,42.812853 C49.7149492,42.8409935 49.6865737,42.8688155 49.6580488,42.8964844 C49.6155852,42.9376753 49.5729101,42.9784059 49.5299111,43.0187934 C49.2625474,43.269974 48.9824257,43.5080744 48.6907684,43.7318914 C48.6588363,43.7562637 48.6265334,43.7807683 48.5940922,43.8050974 C48.5331763,43.8509291 48.4720479,43.8958018 48.4104433,43.9400535 C48.3988608,43.9482047 48.3868389,43.9568029 48.3747991,43.9653774 C48.3072751,44.0136469 48.2393173,44.0609099 48.170807,44.1074202 C48.1473918,44.123114 48.1240436,44.138831 48.1006324,44.1544604 C47.8720358,44.3073114 47.6372772,44.4516898 47.3969083,44.58729 C47.2346956,44.6785069 47.0700914,44.7659232 46.9030876,44.8492117 C46.8751139,44.8634692 46.8474076,44.877141 46.8196358,44.8906993 C46.777322,44.9110483 46.7343653,44.9316755 46.6912562,44.9520304 C46.6394216,44.9768182 46.5876974,45.0007486 46.5357579,45.0242873 C46.4949675,45.042456 46.4539678,45.0607338 46.4128375,45.0787669 C46.367834,45.0988158 46.3228525,45.118178 46.2777171,45.1372476 C46.2346752,45.1551153 46.1912895,45.1731187 46.1477658,45.1908511 C45.7808124,45.3406772 45.4037685,45.4710002 45.0180816,45.5808041 C44.9812423,45.5910227 44.9450196,45.6011334 44.9087228,45.6110626 C44.8523198,45.6267525 44.7952264,45.6418737 44.737953,45.6565453 C44.7182211,45.6613528 44.6984952,45.6663487 44.6787485,45.6712913 C43.9108958,45.8636776 43.1108802,45.9751243 42.2884075,45.9962926 L42,46 L42,46 C35.9248678,46 31,41.0751322 31,35 C31,34.7340544 31.0094378,34.470313 31.0279966,34.2090927 C31.0316437,34.1583667 31.035655,34.1070045 31.040022,34.0557019 C31.0485718,33.9545245 31.0584967,33.8541891 31.0697606,33.754259 C31.075422,33.7048588 31.0813787,33.6550998 31.087672,33.6054048 C31.1180376,33.3646055 31.1562403,33.126512 31.20195,32.8910988 C31.2027474,32.8879728 31.2034584,32.8843223 31.2041712,32.8806722 C32.0557233,28.5179734 35.4852892,25.078219 39.8420029,24.2115993 L39.8423251,24.2117307 L39.9041374,24.1994265 C40.013716,24.1782877 40.1238739,24.1587752 40.234585,24.1409149 L39.8423251,24.2117307 C39.9864278,24.1830557 40.1311969,24.1572631 40.2765695,24.1343712 C40.3991849,24.1149334 40.5223232,24.0976856 40.6460974,24.0824938 C40.6785346,24.078611 40.7108625,24.0747851 40.7432166,24.0711015 C40.8686296,24.0567468 40.9946711,24.0445926 41.1213162,24.0345832 C41.1242487,24.0344012 41.1272547,24.0341646 41.130261,24.0339291 C41.2622516,24.0235566 41.3948226,24.0155661 41.5280062,24.0099438 C41.5520977,24.0089433 41.5754249,24.0080322 41.5987623,24.0071941 C41.7315023,24.0024151 41.8654691,24 42,24 Z M42,26 L41.6844011,26.00543 C41.6388846,26.0069987 41.593454,26.0089053 41.5481116,26.0111474 C41.4972027,26.0136363 41.4461629,26.0165856 41.3951965,26.0199617 L41.5481116,26.0111474 C41.4414492,26.0164219 41.3352752,26.0235532 41.2296215,26.0325097 L41.3951965,26.0199617 C41.2449906,26.0299114 41.0954233,26.0435669 40.9465846,26.0608977 L41.2296215,26.0325097 C41.1060582,26.0429844 40.9832064,26.0559556 40.8611167,26.0713726 L40.9465846,26.0608977 C40.8381573,26.073523 40.7301166,26.0880986 40.6224973,26.1046129 L40.8611167,26.0713726 C40.7555448,26.0847039 40.6505427,26.0998638 40.5461431,26.1168199 L40.6224973,26.1046129 C40.4982757,26.1236748 40.3746156,26.1453195 40.2515703,26.1695288 L40.5461431,26.1168199 C36.8609554,26.7153491 33.9265569,29.5517712 33.182848,33.1861861 L33.1670933,33.2639952 L33.1142394,33.5621226 C33.1098549,33.589429 33.1055933,33.6167764 33.1014552,33.6441642 C33.0716267,33.8409326 33.0484685,34.0384557 33.0318165,34.2371571 C33.0280558,34.2826748 33.0246055,34.3278655 33.0214901,34.3731483 L33.0318165,34.2371571 C33.0226064,34.347058 33.0153866,34.4573193 33.0101692,34.5679056 L33.0214901,34.3731483 C33.0144758,34.475103 33.0091595,34.5775246 33.0055693,34.6803851 L33.0101692,34.5679056 C33.0033985,34.7114156 33,34.8554729 33,35 C33,39.9705627 37.0294373,44 42,44 C42.8691239,44 43.7094738,43.876804 44.5045397,43.646922 C44.550812,43.6338053 44.5968522,43.6200889 44.6427388,43.6060141 L44.5045397,43.646922 C44.6573361,43.6027431 44.8084601,43.5546239 44.9577943,43.5026817 C45.0692001,43.4641721 45.1794101,43.4233606 45.2885925,43.3804702 C45.3243592,43.3661998 45.3596907,43.3520611 45.3949107,43.3377058 L45.2885925,43.3804702 C45.376374,43.3459867 45.4634911,43.3101593 45.5499181,43.273013 L45.3949107,43.3377058 C45.4737242,43.3055822 45.55198,43.2723736 45.6296595,43.2380986 L45.5499181,43.273013 C45.6386458,43.2348779 45.7266462,43.1953527 45.8138912,43.1544645 L45.6296595,43.2380986 C45.7172228,43.1994625 45.8040538,43.1594713 45.8901262,43.1181516 L45.8138912,43.1544645 C45.8889317,43.119296 45.9634134,43.0831191 46.0373186,43.0459511 L45.8901262,43.1181516 C45.9770359,43.0764298 46.0631721,43.0333536 46.1485073,42.9889502 L46.0373186,43.0459511 C46.1263992,43.001151 46.2146422,42.9549109 46.3020164,42.9072608 L46.1485073,42.9889502 C46.3423174,42.8881029 46.5319961,42.7804099 46.7172229,42.6661918 C46.7570286,42.641678 46.7969631,42.6166155 46.8366868,42.5912489 L46.7172229,42.6661918 C46.8698662,42.5720659 47.0194861,42.4735087 47.1659032,42.3706994 C47.2130424,42.3375855 47.2595621,42.3042499 47.3057501,42.2704836 L47.1659032,42.3706994 C47.2324953,42.3239407 47.298425,42.2763024 47.3636752,42.2278014 L47.3057501,42.2704836 C47.3749213,42.2199152 47.4433486,42.1683811 47.5110119,42.1159008 L47.3636752,42.2278014 C47.4432532,42.1686506 47.5218207,42.1082166 47.599347,42.0465301 L47.5110119,42.1159008 C47.6719283,41.9910924 47.8285238,41.8609321 47.9805269,41.7256822 C48.0441585,41.6690703 48.1066725,41.6118439 48.1683663,41.5537561 C48.1807765,41.5420701 48.1926561,41.5308235 48.204505,41.5195449 L48.1683663,41.5537561 C48.2712698,41.4568673 48.3718915,41.357582 48.4701421,41.2559894 C48.5700821,41.1527045 48.6675508,41.0470178 48.7624823,40.9390299 C48.7892185,40.9085145 48.8158865,40.8777581 48.8423483,40.84682 L48.7624823,40.9390299 C48.826315,40.8664178 48.8890006,40.7927654 48.9505099,40.7181007 L48.8423483,40.84682 C48.8988264,40.7807881 48.9543654,40.7139289 49.0089444,40.6462631 L48.9505099,40.7181007 C49.0080859,40.6482104 49.0646313,40.5774332 49.1201222,40.5057921 L49.0089444,40.6462631 C49.2171234,40.388168 49.4113377,40.1183382 49.5904392,39.8379219 C49.5991768,39.8246171 49.6076841,39.811222 49.616157,39.7978027 L49.5904392,39.8379219 C49.628647,39.7781006 49.6661669,39.7177976 49.702988,39.6570239 L49.616157,39.7978027 C49.6750257,39.7045673 49.7322328,39.6101694 49.7877357,39.5146501 L49.702988,39.6570239 C49.748208,39.5823875 49.7923739,39.5070413 49.8354651,39.4310058 L49.7877357,39.5146501 C49.8245655,39.4512668 49.860645,39.3873898 49.8959616,39.3230311 L49.8354651,39.4310058 C49.879393,39.3534937 49.9222041,39.2752653 49.9638763,39.1963426 L49.8959616,39.3230311 C50.0492201,39.0437428 50.188114,38.7553821 50.3116281,38.4589299 C50.3256698,38.4244914 50.3396689,38.3902933 50.3534628,38.3559906 L50.3116281,38.4589299 C50.3442102,38.3807282 50.375722,38.3019634 50.4061449,38.2226536 L50.3534628,38.3559906 C50.3887468,38.2682464 50.4226884,38.1798179 50.4552623,38.0907306 L50.4061449,38.2226536 C50.4395405,38.1355945 50.471624,38.0478786 50.5023708,37.9595297 L50.4552623,38.0907306 C50.4874363,38.0027366 50.518276,37.9140998 50.5477566,37.8248448 L50.5023708,37.9595297 C50.5435748,37.8411329 50.5823783,37.7215993 50.6187219,37.6009863 L50.6321165,37.5551847 C50.8715103,36.7451906 51,35.8876005 51,35 C51,30.0294373 46.9705627,26 42,26 Z M43.304,28.8 L43.304,38.16 L44.888,38.16 L44.888,40 L39.592,40 L39.592,38.16 L41.128,38.16 L41.128,30.672 L39.784,30.672 L39.784,28.8 L43.304,28.8 Z M26,22 L5,22 L5,24 L26,24 L26,22 Z M26,18 L5,18 L5,20 L26,20 L26,18 Z M26,14 L5,14 L5,16 L26,16 L26,14 Z M26,10 L5,10 L5,12 L26,12 L26,10 Z M31,6 L10,6 L10,8 L31,8 L31,6 Z M23,2 L2,2 L2,4 L23,4 L23,2 Z" id="Combined-Shape"></path>
            </g>
        </g>
    </g>
</svg>