<?xml version="1.0" encoding="UTF-8"?>
<svg width="70px" height="70px" viewBox="0 0 70 70" version="1.1" xmlns="http://www.w3.org/2000/svg" xmlns:xlink="http://www.w3.org/1999/xlink">
    <!-- Generator: Sketch 61 (89581) - https://sketch.com -->
    <title>Icons/70px/computer-70</title>
    <desc>Created with Sketch.</desc>
    <g id="Icons/70px/computer-70" stroke="none" stroke-width="1" fill="none" fill-rule="evenodd">
        <g>
            <rect id="invisible-70" x="0" y="0" width="70" height="70"></rect>
            <g id="outlines" transform="translate(11.000000, 12.000000)" fill="#FF0000" fill-rule="nonzero">
                <path d="M45.5,38 L44.5,38 C43.1192881,38 42,39.1192881 42,40.5 L42,45.5 C42,46.8807119 43.1192881,48 44.5,48 L45.5,48 C46.8807119,48 48,46.8807119 48,45.5 L48,40.5 C48,39.1192881 46.8807119,38 45.5,38 Z M47,40 L47,43 L43,43 L43,40 L47,40 Z M38.7142857,31.5 L41.8571429,31.5 C44.1763794,31.5 45.4509591,32.8380168 45.8486815,34.9179432 C45.9209944,35.2961104 45.9603826,35.6318149 45.9806809,36.0251403 C48.2399104,36.2652349 50,38.177072 50,40.5 L50,45.5 C50,47.9852814 47.9852814,50 45.5,50 L44.5,50 C42.0147186,50 40,47.9852814 40,45.5 L40,40.5 C40,38.191894 41.7376998,36.2896496 43.9762078,36.0301584 C43.9596051,35.7652966 43.9307434,35.5365963 43.8842732,35.2935763 C43.6513371,34.075415 43.1032033,33.5 41.8571429,33.5 L38.7142857,33.5 C34.8223636,33.5 33,31.9120802 33,28 L25,28 L25,36 L32,36 L32,38 L10,38 L10,36 L17,36 L17,28 L0,28 L0,0 L42,0 L42,28 L35,28 C35,30.7415845 35.8703896,31.5 38.7142857,31.5 Z M23,28 L19,28 L19,36 L23,36 L23,28 Z M40,2 L2,2 L2,26 L40,26 L40,2 Z M14.2928932,5.29289322 L15.7071068,6.70710678 L6.70710678,15.7071068 L5.29289322,14.2928932 L14.2928932,5.29289322 Z M9.29289322,4.29289322 L10.7071068,5.70710678 L5.70710678,10.7071068 L4.29289322,9.29289322 L9.29289322,4.29289322 Z" id="Combined-Shape"></path>
            </g>
        </g>
    </g>
</svg>