<?xml version="1.0" encoding="UTF-8"?>
<svg width="70px" height="70px" viewBox="0 0 70 70" version="1.1" xmlns="http://www.w3.org/2000/svg" xmlns:xlink="http://www.w3.org/1999/xlink">
    <!-- Generator: Sketch 61.1 (89650) - https://sketch.com -->
    <title>Icons/70px/contract-70</title>
    <desc>Created with Sketch.</desc>
    <defs>
        <path d="M43,-2.27373675e-13 L43,21.1069031 L41,21.1069031 L41,2 L2,2 L2,56 L41,56 L41,48 L43,48 L43,58 L0,58 L0,-2.27373675e-13 L43,-2.27373675e-13 Z M12.5175123,39.0975613 C14.8882296,40.300177 15.1516591,42.4723016 14.2470375,45.8350699 C14.1532717,46.1836271 14.0540546,46.5261003 13.9059688,47.0200808 C13.3551532,48.8574764 13.2289613,49.3419936 13.1854688,49.9541957 C13.1465666,50.5017857 13.2135716,50.639926 13.4482764,50.7144093 C13.8858825,50.853283 14.495377,50.1118141 15.6559252,47.772512 C15.7221162,47.6389917 15.7221162,47.6389917 15.7887109,47.5045339 C17.4563346,44.1384789 18.3068059,43.0134815 20.1200321,43.1716094 C21.3385089,43.2778703 22.1510099,43.8874058 22.4289453,44.8967367 C22.612176,45.5621446 22.5568166,46.2336842 22.3381682,47.2782561 C22.3175774,47.3766264 22.2971251,47.4714309 22.2657073,47.6150901 C22.094264,48.399022 22.0338881,48.7488146 22.0415848,48.979839 L22.042,48.996 L22.0787463,48.9931161 L22.0787463,48.9931161 L27.0145462,48.9931161 L27.0145462,50.9931161 L22.0787463,50.9931161 C20.9404923,50.9931161 20.1985476,50.3590311 20.0654361,49.328952 C19.992648,48.7656829 20.0550221,48.3623145 20.3118855,47.1877957 C20.3421241,47.0495287 20.3615139,46.9596491 20.3805934,46.8684991 C20.5359098,46.1264898 20.5721343,45.6870669 20.500715,45.4277058 C20.4562625,45.2662749 20.3691527,45.2009255 19.9462756,45.1640472 C19.4256392,45.1186436 18.7788755,45.9741779 17.5808337,48.3923942 C17.5143603,48.5266075 17.5143603,48.5266075 17.4475596,48.6613575 C15.7557765,52.071463 14.7951254,53.2401247 12.8433115,52.6207192 C11.594253,52.2243322 11.0926226,51.1901501 11.1904969,49.8124676 C11.2493192,48.9844819 11.3829147,48.4715381 11.9902007,46.4457705 C12.1332784,45.9684959 12.227946,45.6417265 12.3156994,45.3155187 C13.000007,42.7717284 12.8466408,41.5071379 11.6127133,40.8811921 C9.26990612,39.6927346 7.71546309,42.0598722 7.06216578,49.2154012 L5.07044965,49.0335582 C5.83401505,40.670269 8.2787754,36.9473379 12.5175123,39.0975613 Z M48.8,21.5857864 L57.4142136,30.2 L36.6142136,51 L28,51 L28,42.3857864 L48.8,21.5857864 Z M30,45.415 L30,49 L33.585,49 L30,45.415 Z M44.4,28.815 L30.315,42.9 L36.1,48.685 L50.185,34.6 L44.4,28.815 Z M46.2928932,33.2928932 L47.7071068,34.7071068 L36.7071068,45.7071068 L35.2928932,44.2928932 L46.2928932,33.2928932 Z M48.8,24.4142136 L45.815,27.4 L51.6,33.185 L54.5857864,30.2 L48.8,24.4142136 Z M21,21 L21,23 L8,23 L8,21 L21,21 Z M33,16 L33,18 L8,18 L8,16 L33,16 Z M33,11 L33,13 L8,13 L8,11 L33,11 Z" id="path-1"></path>
    </defs>
    <g id="Icons/70px/contract-70" stroke="none" stroke-width="1" fill="none" fill-rule="evenodd">
        <g>
            <rect id="invisible-70" x="0" y="0" width="70" height="70"></rect>
            <g id="outlines" transform="translate(9.000000, 6.000000)">
                <mask id="mask-2" fill="white">
                    <use xlink:href="#path-1"></use>
                </mask>
                <use id="Combined-Shape" fill="#FF0000" fill-rule="nonzero" xlink:href="#path-1"></use>
            </g>
        </g>
    </g>
</svg>