<?xml version="1.0" encoding="UTF-8"?>
<svg width="70px" height="70px" viewBox="0 0 70 70" version="1.1" xmlns="http://www.w3.org/2000/svg" xmlns:xlink="http://www.w3.org/1999/xlink">
    <!-- Generator: Sketch 61 (89581) - https://sketch.com -->
    <title>Icons/70px/cup-70</title>
    <desc>Created with Sketch.</desc>
    <g id="Icons/70px/cup-70" stroke="none" stroke-width="1" fill="none" fill-rule="evenodd">
        <g>
            <rect id="invisible-70" x="0" y="0" width="70" height="70"></rect>
            <g id="outlines" transform="translate(9.000000, 7.000000)" fill="#FF0000" fill-rule="nonzero">
                <path d="M43,0 L43.0010997,6.04948449 C48.0538953,6.55171825 52,10.8150281 52,16 C52,21.2232349 47.9954391,25.5111545 42.8890574,25.9610187 C42.1100282,32.7374748 37.3466082,38.3024224 31.0005488,40.2526349 L31,49.375 C31,51.9143757 33.2246659,54 36,54 L42,54 L42,56 L10,56 L10,54 L16,54 C18.7753341,54 21,51.9143757 21,49.375 L21.000455,40.2529434 C14.6538941,38.3030092 9.89001283,32.7378321 9.11181411,25.960415 C4.00456088,25.5111545 0,21.2232349 0,16 C0,10.8146864 3.94662476,6.55115644 8.99989907,6.04938526 L9,0 L43,0 Z M26,41 C24.9765337,41 23.9741914,40.9095572 23.0005295,40.736228 L23,49.375 C23,51.1790417 22.2409352,52.8088278 21.0121667,54.0004826 L30.9878333,54.0004826 C29.7590648,52.8088278 29,51.1790417 29,49.375 L29.0004705,40.7360499 C28.0264949,40.9094953 27.0238167,41 26,41 Z M41,2 L11,2 L11,6 L27,6 L27,8 L11,8 L11,10 L22,10 L22,12 L11,12 L11,24 C11,32.2842712 17.7157288,39 26,39 C34.2842712,39 41,32.2842712 41,24 L41,2 Z M43.0009551,8.06201291 L43.0008069,10.0830939 C45.8381232,10.5595044 48,13.0272855 48,16 C48,18.9727145 45.8381232,21.4404956 43.0008069,21.9169061 L43.0009551,23.9379871 C46.9468043,23.445465 50,20.0792885 50,16 C50,11.9207115 46.9468043,8.55453501 43.0009551,8.06201291 Z M2,16 C2,20.0796344 5.05371356,23.4460359 9.00004872,23.9381123 L9.00019152,21.9170737 C6.16238395,21.4410745 4,18.9730632 4,16 C4,13.0269368 6.16238395,10.5589255 9.00019152,10.0829263 L9.00004872,8.06188768 C5.05371356,8.55396414 2,11.9203656 2,16 Z M6,16 C6,17.8639271 7.27489272,19.4300871 9.00024347,19.8740452 L9.00024347,12.1259548 C7.27489272,12.5699129 6,14.1360729 6,16 Z M43.0007613,12.1262135 L43.0007613,19.8737865 C44.7256022,19.429479 46,17.8635652 46,16 C46,14.1364348 44.7256022,12.570521 43.0007613,12.1262135 Z M34,6 L34,8 L29,8 L29,6 L34,6 Z" id="Combined-Shape"></path>
            </g>
        </g>
    </g>
</svg>