<?xml version="1.0" encoding="UTF-8"?>
<svg width="70px" height="70px" viewBox="0 0 70 70" version="1.1" xmlns="http://www.w3.org/2000/svg" xmlns:xlink="http://www.w3.org/1999/xlink">
    <!-- Generator: Sketch 61 (89581) - https://sketch.com -->
    <title>Icons/70px/damage-70</title>
    <desc>Created with Sketch.</desc>
    <defs>
        <path d="M2,49 L6,49 L6,51 L0,51 L0,0 L44,0 L44,51 L27,51 L27,49 L42,49 L42,2 L2,2 L2,49 Z M24,49 L24,51 L9,51 L9,49 L24,49 Z M11.164399,19.0136061 L17.5917364,20.084829 L21.8320503,26.4452998 L21.76,26.493 L28.5493963,30.9902377 L26.3680522,37.4920502 L35,41.7801791 L35,49 L33,49 L33,43.0198209 L23.9176621,38.5079498 L26.1648895,31.8097623 L21.624,28.802 L19.9761871,36.2169305 L18.0238129,35.7830695 L19.711,28.185 L8.56637733,30.0885031 L5.2,25.6 L6.8,24.4 L9.43362267,27.9114969 L19.284,26.229 L16.4082636,21.915171 L10.835601,20.9863939 L11.164399,19.0136061 Z M17,2 L17,7.27073384 L22.928499,9.17370882 L24.9152271,13 L30.919,12.999 L27.7351815,9.01975797 L31.2,4.4 L32.8,5.6 L30.2648185,8.98024203 L33.174,12.618 L36.4,10.2 L37.6,11.8 L33.615,14.787 L33.6153846,21.508043 L43.6102778,29.2078125 L42.3897222,30.7921875 L31.6153846,22.491957 L31.6153846,15 L23.7001575,15 L21.5330395,10.8262912 L15,8.72926616 L15,2 L17,2 Z" id="path-1"></path>
    </defs>
    <g id="Icons/70px/damage-70" stroke="none" stroke-width="1" fill="none" fill-rule="evenodd">
        <g>
            <rect id="invisible-70" x="0" y="0" width="70" height="70"></rect>
            <g id="outlines" transform="translate(13.000000, 10.000000)">
                <mask id="mask-2" fill="white">
                    <use xlink:href="#path-1"></use>
                </mask>
                <use id="Combined-Shape" fill="#FF0000" fill-rule="nonzero" xlink:href="#path-1"></use>
            </g>
        </g>
    </g>
</svg>