<?xml version="1.0" encoding="UTF-8"?>
<svg width="70px" height="70px" viewBox="0 0 70 70" version="1.1" xmlns="http://www.w3.org/2000/svg" xmlns:xlink="http://www.w3.org/1999/xlink">
    <!-- Generator: Sketch 63.1 (92452) - https://sketch.com -->
    <title>Icons/70px/digital-services-70</title>
    <desc>Created with Sketch.</desc>
    <g id="Icons/70px/digital-services-70" stroke="none" stroke-width="1" fill="none" fill-rule="evenodd">
        <g>
            <rect id="invisible-70" x="0" y="0" width="70" height="70"></rect>
            <g id="outlines" transform="translate(8.000000, 12.000000)" fill="#FF0000" fill-rule="nonzero">
                <path d="M44.9555556,0 C46.5722198,0 47.9018989,1.24429018 47.9948139,2.82323116 L48,3 L48,23 L51,23 C52.5976809,23 53.9036609,24.24892 53.9949073,25.8237272 L54,26 L54,43 C54,44.5976809 52.75108,45.9036609 51.1762728,45.9949073 L51,46 L43,46 C41.4023191,46 40.0963391,44.75108 40.0050927,43.1762728 L40,43 L40,32 L27,32 L27,40 L35,40 L35,42 L13,42 L13,40 L21,40 L21,32 L3.04444444,32 C1.41944948,32 0.0975060283,30.8757468 0.00515419402,29.3074013 L0,29.1313477 L0,3 C0,1.39751786 1.27194107,0.0959961736 2.86604434,0.00507432126 L3.04444444,0 L44.9555556,0 Z M51,25 L43,25 C42.4871642,25 42.0644928,25.3860402 42.0067277,25.8833789 L42,26 L42,43 C42,43.5128358 42.3860402,43.9355072 42.8833789,43.9932723 L43,44 L51,44 C51.5128358,44 51.9355072,43.6139598 51.9932723,43.1166211 L52,43 L52,26 C52,25.4477153 51.5522847,25 51,25 Z M47,40 C47.8284271,40 48.5,40.6715729 48.5,41.5 C48.5,42.3284271 47.8284271,43 47,43 C46.1715729,43 45.5,42.3284271 45.5,41.5 C45.5,40.6715729 46.1715729,40 47,40 Z M25,32 L23,32 L23,40 L25,40 L25,32 Z M40,27 L2,27 L2,29.1313477 C2,29.5951251 2.35788479,29.9465926 2.91293028,29.9944361 L3.04444444,30 L40,30 L40,27 Z M46,6 L2,6 L2,25 L40.1706743,25.0000889 C40.5638305,23.8876356 41.5945027,23.0763156 42.8237272,23.0050927 L43,23 L46,23 L46,6 Z M10.2928932,8.29289322 L11.7071068,9.70710678 L6.70710678,14.7071068 L5.29289322,13.2928932 L10.2928932,8.29289322 Z M7.29289322,7.29289322 L8.70710678,8.70710678 L5.70710678,11.7071068 L4.29289322,10.2928932 L7.29289322,7.29289322 Z M44.9555556,2 L3.04444444,2 C2.50153355,2 2.06222917,2.39434706 2.00606818,2.89190645 L2,3 L2,4 L46,4 L46,3 C46,2.48918138 45.5968897,2.06077974 45.0702059,2.00592983 L44.9555556,2 Z" id="Combined-Shape"></path>
            </g>
        </g>
    </g>
</svg>