<?xml version="1.0" encoding="UTF-8"?>
<svg width="70px" height="70px" viewBox="0 0 70 70" version="1.1" xmlns="http://www.w3.org/2000/svg" xmlns:xlink="http://www.w3.org/1999/xlink">
    <!-- Generator: Sketch 61.2 (89653) - https://sketch.com -->
    <title>Icons/70px/dog-70</title>
    <desc>Created with Sketch.</desc>
    <defs>
        <path d="M23.8391281,0.684257591 C28.2380737,1.82438844 31.0932808,4.64596616 32.6526037,8.58868983 C33.6728251,11.1683038 34,13.6902103 34,16.2606582 C34,19.1391153 32.5846037,21.3059055 29.8727102,21.8609404 C37.3404198,29.1389429 41.3782021,36.5085071 41.9335938,43.9654861 C45.7341858,43.6885832 48.2933408,41.6649245 48.874287,37.7809937 C47.7745489,37.3354797 47,36.2581927 47,35 C47,33.3431458 48.3431458,32 50,32 C51.6568542,32 53,33.3431458 53,35 C53,36.3498924 52.1084353,37.4915487 50.8820358,37.8682392 C50.2173537,42.8966139 46.8055236,45.6382498 41.9980993,45.9665451 L42,45.75 C42,48.8720853 41.2299038,52.7225662 39.6986833,57.3162278 L39.4707592,58 L3,58 L3,54 C3,50.1340068 6.13400675,47 10,47 L11,47 L11,23 L13,23 L13,47 L17,47 L17,49 L10,49 C7.23857625,49 5,51.2385763 5,54 L5,56 L38.0252659,56 C39.3443016,51.8985663 40,48.4777034 40,45.75 C40,37.7902823 35.6593278,29.8107824 26.8980371,21.8044709 C24.1277775,21.0320802 23,17.9798745 23,13 L25,13 C25,17.8463014 26.0388436,20 28.4285714,20 C30.8680696,20 32,18.5925409 32,16.2606582 C32,13.91995 31.7020533,11.6233382 30.7927745,9.32424081 C29.4550943,5.94193733 27.0738304,3.58872059 23.3373425,2.62028736 C17.6640318,1.14986306 13.9543605,2.43111016 11.8897874,6.45637521 L11.6109603,7 L2,7 L2,11.017162 C2,16.3838922 11.5787129,20.072479 17.5552019,17.1043691 L18.4447981,18.8956309 C11.2898667,22.4489918 0,18.1014711 0,11.017162 L0,5 L10.4054529,5 C12.9951635,0.495112046 17.567673,-0.941195413 23.8391281,0.684257591 Z M27.0731275,34 C28.6806117,34 30.2212737,34.4486088 31.5339246,35.2775029 L30.4660754,36.9685671 C29.472022,36.3408564 28.3014152,36 27.0731275,36 C23.7066189,36 21,38.5557987 21,41.6789936 C21,44.1115641 22.6553329,46.2619561 25.0899852,47.0484157 L24.4752094,48.9515843 C21.2346873,47.9048065 19,45.0017932 19,41.6789936 C19,37.4247759 22.6268753,34 27.0731275,34 Z M50,34 C49.4477153,34 49,34.4477153 49,35 C49,35.5522847 49.4477153,36 50,36 C50.5522847,36 51,35.5522847 51,35 C51,34.4477153 50.5522847,34 50,34 Z M16,5 C17.6568542,5 19,6.34314575 19,8 C19,9.65685425 17.6568542,11 16,11 C14.3431458,11 13,9.65685425 13,8 C13,6.34314575 14.3431458,5 16,5 Z M16,7 C15.4477153,7 15,7.44771525 15,8 C15,8.55228475 15.4477153,9 16,9 C16.5522847,9 17,8.55228475 17,8 C17,7.44771525 16.5522847,7 16,7 Z" id="path-1"></path>
    </defs>
    <g id="Icons/70px/dog-70" stroke="none" stroke-width="1" fill="none" fill-rule="evenodd">
        <g>
            <rect id="invisible-70" x="0" y="0" width="70" height="70"></rect>
            <g id="outlines" transform="translate(10.000000, 6.000000)">
                <mask id="mask-2" fill="white">
                    <use xlink:href="#path-1"></use>
                </mask>
                <use id="Combined-Shape" fill="#FF0000" fill-rule="nonzero" xlink:href="#path-1"></use>
            </g>
        </g>
    </g>
</svg>