<?xml version="1.0" encoding="UTF-8"?>
<svg width="70px" height="70px" viewBox="0 0 70 70" version="1.1" xmlns="http://www.w3.org/2000/svg" xmlns:xlink="http://www.w3.org/1999/xlink">
    <!-- Generator: Sketch 63.1 (92452) - https://sketch.com -->
    <title>Icons/70px/e-invoice-70</title>
    <desc>Created with Sketch.</desc>
    <g id="Icons/70px/e-invoice-70" stroke="none" stroke-width="1" fill="none" fill-rule="evenodd">
        <g>
            <rect id="invisible-70" x="0" y="0" width="70" height="70"></rect>
            <g id="outlines" transform="translate(14.000000, 8.000000)" fill="#FF0000" fill-rule="nonzero">
                <path d="M42,5.68434189e-14 L42,54.5915349 L30.157,48.888 L21,53.1007601 L11.842,48.888 L0,54.5915349 L0,5.68434189e-14 L42,5.68434189e-14 Z M40,2 L2,2 L2,51.409 L11.823596,46.6773687 L21,50.899 L30.176404,46.6773687 L40,51.409 L40,2 Z M33,38 L33,40 L23,40 L23,38 L33,38 Z M33,32 L33,34 L9,34 L9,32 L33,32 Z M25,27 L25,29 L9,29 L9,27 L25,27 Z M33,27 L33,29 L29,29 L29,27 L33,27 Z M25,22 L25,24 L9,24 L9,22 L25,22 Z M33,22 L33,24 L29,24 L29,22 L33,22 Z M20.7350598,6 C24.3924303,6 25.8984064,8.82071713 25.1095618,12.9800797 L18.6792829,12.9800797 C18.8466135,14.6533865 19.7788845,15.3705179 21.2848606,15.3705179 C22.4083665,15.3705179 23.6752988,15.0358566 24.6792829,14.6055777 L25.0139442,16.9721116 C23.8426295,17.6175299 22.5039841,18 21.1653386,18 C17.8904382,18 15.5,15.7051793 15.5,11.8565737 C15.5,7.84063745 18.1772908,6 20.7350598,6 Z M20.7589641,8.41434263 C19.563745,8.41434263 18.7031873,9.39442231 18.6553785,10.9243028 L22.5517928,10.9243028 C22.6474104,9.37051793 22.0498008,8.41434263 20.7589641,8.41434263 Z" id="Combined-Shape"></path>
            </g>
        </g>
    </g>
</svg>