<?xml version="1.0" encoding="UTF-8"?>
<svg width="70px" height="70px" viewBox="0 0 70 70" version="1.1" xmlns="http://www.w3.org/2000/svg" xmlns:xlink="http://www.w3.org/1999/xlink">
    <!-- Generator: Sketch 61.2 (89653) - https://sketch.com -->
    <title>Icons/70px/family-70</title>
    <desc>Created with Sketch.</desc>
    <g id="Icons/70px/family-70" stroke="none" stroke-width="1" fill="none" fill-rule="evenodd">
        <g>
            <rect id="invisible-70" x="0" y="0" width="70" height="70"></rect>
            <g id="outlines" transform="translate(6.000000, 8.000000)" fill="#FF0000" fill-rule="nonzero">
                <path d="M41.2392534,24 C46.892479,24 51.4785068,28.5499984 51.4785068,34.1666667 C51.4785068,36.0505908 50.9625588,37.81451 50.0634487,39.3269778 C54.3142782,41.0226964 56.9739064,44.5327547 56.9739064,49 L56.9739064,56 L54.9739064,56 L54.9739064,49 C54.9739064,45.2343274 52.6485359,42.3313402 48.8231735,40.9964144 C46.9497446,43.0467634 44.2453809,44.3333333 41.2392534,44.3333333 C38.3521783,44.3333333 35.7434386,43.1466502 33.881722,41.237243 C30.2787598,42.704336 28,45.5375458 28,49 L28,56 L26,56 L26,49 C26,44.8274391 28.5916421,41.4345493 32.5932178,39.6141267 C31.5842822,38.0403742 31,36.1714699 31,34.1666667 C31,28.5499984 35.5860278,24 41.2392534,24 Z M22.3721719,9.23705556e-14 C26.913247,9.23705556e-14 31.1352375,1.96731867 34.0374525,5.32115378 L32.5250833,6.62987056 C29.9993237,3.71107186 26.3272551,2 22.3721719,2 C14.9851674,2 9,7.93814588 9,15.2592593 C9,22.5803726 14.9851674,28.5185185 22.3721719,28.5185185 C29.7591765,28.5185185 35.7443439,22.5803726 35.7443439,15.2592593 C35.7443439,14.6834053 35.7073822,14.1124967 35.6342232,13.54883 L25.2842131,13.54883 C22.0904282,13.54883 18.8277908,11.1833801 17.227896,7.86709466 L19.0292269,6.99806814 C20.3153254,9.66391194 22.9151708,11.54883 25.2842131,11.54883 L37.3097106,11.54883 L37.466735,12.3584238 C37.6508894,13.3078957 37.7443439,14.2779113 37.7443439,15.2592593 C37.7443439,23.6884887 30.8602302,30.5185185 22.3721719,30.5185185 C17.6781621,30.5185185 13.4746766,28.4297328 10.6547224,25.1368237 C4.81942174,26.8607247 2,30.4264534 2,36 L2,56 L-5.68434189e-14,56 L-5.68434189e-14,36 C-5.68434189e-14,29.7369922 3.18944707,25.4986331 9.39221591,23.4358029 C7.87726484,21.0735656 7,18.268308 7,15.2592593 C7,6.83002977 13.8841137,9.23705556e-14 22.3721719,9.23705556e-14 Z M41.2392534,26 C36.6870815,26 33,29.6581145 33,34.1666667 C33,38.6752188 36.6870815,42.3333333 41.2392534,42.3333333 C45.7914253,42.3333333 49.4785068,38.6752188 49.4785068,34.1666667 C49.4785068,29.6581145 45.7914253,26 41.2392534,26 Z" id="Combined-Shape"></path>
            </g>
        </g>
    </g>
</svg>