<?xml version="1.0" encoding="UTF-8"?>
<svg width="70px" height="70px" viewBox="0 0 70 70" version="1.1" xmlns="http://www.w3.org/2000/svg" xmlns:xlink="http://www.w3.org/1999/xlink">
    <!-- Generator: Sketch 63.1 (92452) - https://sketch.com -->
    <title>Icons/70px/farm-70</title>
    <desc>Created with Sketch.</desc>
    <g id="Icons/70px/farm-70" stroke="none" stroke-width="1" fill="none" fill-rule="evenodd">
        <g>
            <rect id="invisible-70" x="0" y="0" width="70" height="70"></rect>
            <g id="lines" transform="translate(6.000000, 10.000000)" fill="#FF0000" fill-rule="nonzero">
                <path d="M34.9993033,0.665048466 L55.4272729,18.839927 L54.0978637,20.3341395 L52,18.4680485 L52,44 L58,44 L58,46 L18,46 L18.0007649,39.1939923 C17.1259775,39.7724991 16.1370278,40.1705046 15.088555,40.3555564 L15.088,43.9990485 L16,44 L16,46 L-4.84678964e-12,46 L-4.84678964e-12,44 L3.5,43.9990485 L3.5000808,38.2002765 C1.48685542,37.6791754 -5.13189491e-12,35.8504658 -5.13189491e-12,33.6745788 C-5.13189491e-12,31.0929204 2.09311783,29 4.67508077,29 C5.39568257,29 6.09250653,29.1641136 6.72149176,29.47077 C7.95223552,26.8302234 10.6307184,25 13.7368115,25 C15.2839446,25 16.7576667,25.4571221 18.0011376,26.2795338 L18,18.5000485 L15.944271,20.3334475 L14.6133078,18.840619 L34.9993033,0.665048466 Z M7.53850295,37.3683235 L7.43941295,37.4447951 C6.86903869,37.8636015 6.20736954,38.1499916 5.50065462,38.2761975 L5.5,43.9990485 L13.088,43.9990485 L13.0882584,40.4467105 C11.3411067,40.3012121 9.71474879,39.5709334 8.44618325,38.3821485 C8.11254113,38.0693271 7.80917046,37.7299484 7.53850295,37.3683235 Z M35,3.343 L20,16.7170485 L20,44 L26,43.9990485 L26,28 L44,28 L44,43.9990485 L50,44 L50,22.9990485 L22,23 L22,21 L50,20.9990485 L50,16.6890485 L35,3.343 Z M38.999,39.2360485 L36.618,43.9990485 L41.381,43.9990485 L38.999,39.2360485 Z M31,39.2360485 L28.618,43.9990485 L33.381,43.9990485 L31,39.2360485 Z M42,33.2350485 L40.118,37.0000485 L42,40.7640485 L42,33.2350485 Z M34,33.2350485 L32.118,37.0000485 L34,40.7640485 L34,33.2350485 Z M36,33.2380485 L36,40.7620485 L37.881,37.0000485 L36,33.2380485 Z M28,33.2370485 L28,40.7620485 L29.881,37.0000485 L28,33.2370485 Z M13.7368115,27 C10.5683405,27 8,29.5683405 8,32.7368115 C8,34.3449258 8.66372514,35.8445199 9.81395102,36.9229668 C10.8710352,37.9135704 12.2589723,38.4736231 13.7368115,38.4736231 C15.3759104,38.4736231 16.9004188,37.7831696 17.9782788,36.5998355 L18,36.5740485 L18,28.8990485 L17.9120239,28.8020278 C16.8379265,27.6616922 15.3423306,27 13.7368115,27 Z M4.67508077,31 C3.19764509,31 2,32.1975321 2,33.6745788 C2,35.1516256 3.19764509,36.3491577 4.67508077,36.3491577 C5.38614494,36.3491577 6.05011177,36.0707946 6.54332248,35.5884919 C6.18863159,34.6947981 6,33.7306334 6,32.7368115 C6,32.2880159 6.0382096,31.8481474 6.11155328,31.4202817 C5.68898373,31.1475019 5.19423129,31 4.67508077,31 Z M33.382,29.9980485 L28.617,29.9980485 L31,34.7630485 L33.382,29.9980485 Z M41.382,29.9980485 L36.617,29.9980485 L39,34.7630485 L41.382,29.9980485 Z M35,9 C38.3134793,9 41,11.686323 41,15 L41,15 L41,16 L29,16 L29,15 C29,11.6861555 31.6861555,9 35,9 Z M35,11 C33.1924113,11 31.6650091,12.1987498 31.1693451,13.8446975 L31.1693451,13.8446975 L31.126,14 L38.873,14 L38.830628,13.8447707 C38.3532527,12.2598427 36.9190551,11.0894194 35.1996236,11.0048955 L35.1996236,11.0048955 Z" id="Combined-Shape"></path>
            </g>
        </g>
    </g>
</svg>