<?xml version="1.0" encoding="UTF-8"?>
<svg width="70px" height="70px" viewBox="0 0 70 70" version="1.1" xmlns="http://www.w3.org/2000/svg" xmlns:xlink="http://www.w3.org/1999/xlink">
    <!-- Generator: Sketch 63.1 (92452) - https://sketch.com -->
    <title>Icons/70px/gravestones-70</title>
    <desc>Created with Sketch.</desc>
    <g id="Icons/70px/gravestones-70" stroke="none" stroke-width="1" fill="none" fill-rule="evenodd">
        <g>
            <rect id="invisible-70" x="0" y="0" width="70" height="70"></rect>
            <g id="outlines" transform="translate(6.000000, 5.000000)" fill="#FF0000" fill-rule="nonzero">
                <path d="M41.5950869,0.917881139 L41.9743515,1.08410496 C52.5839744,5.73408294 58,11.6684125 58,18.9034091 L58,38 L46.9952639,38.0003593 C46.9984209,38.1210726 47,38.2421649 47,38.3636364 L47,59 L15,59 L14.999,45.9998811 L0,46 L0,25.3636364 C0,18.3435703 5.26821314,12.5894148 15.5813618,8.0836396 L15.9817162,7.90872631 L16.3820705,8.0836396 C25.1288838,11.9050889 30.8276772,16.9021009 31.8385247,21.2778365 L31.3999445,21.0834606 C40.5423163,25.0728592 45.7249326,30.0409446 46.7925822,36.0002121 L56,36 L56,18.9034091 C56,12.69627 51.2553214,7.41797543 41.5519795,3.08422162 C36.1864447,5.25039649 32.0707297,8.43116242 29.7947166,11.4111344 L28.2052834,10.1971731 C30.7545112,6.85948248 35.3089277,3.37143761 41.2093371,1.06844352 L41.5950869,0.917881139 Z M31,23.0928476 C21.5951923,27.2814033 17,32.3774204 17,38.3636364 L17,57 L45,57 L45,38.3636364 C45,32.3774204 40.4048077,27.2814033 31,23.0928476 Z M15.98166,10.0930938 C6.58919075,14.2814686 2,19.3772524 2,25.3636364 L2,44 L14.999,43.9998811 L15,38.3636364 C15,31.5229244 20.0079404,25.8845861 29.8169546,21.4319678 C28.8260916,17.9777222 23.8109149,13.5861369 15.98166,10.0930938 Z" id="Combined-Shape"></path>
            </g>
        </g>
    </g>
</svg>