<?xml version="1.0" encoding="UTF-8"?>
<svg width="70px" height="70px" viewBox="0 0 70 70" version="1.1" xmlns="http://www.w3.org/2000/svg" xmlns:xlink="http://www.w3.org/1999/xlink">
    <!-- Generator: Sketch 61 (89581) - https://sketch.com -->
    <title>Icons/70px/heart-70</title>
    <desc>Created with Sketch.</desc>
    <defs>
        <path d="M35,57.6049731 L58.1532289,35.0843649 C58.2374895,35.0024065 58.320611,34.9192851 58.4025693,34.8350245 C63.3047847,29.7951022 63.1931512,21.7354072 58.1532289,16.8331918 C52.9081084,11.7313849 44.5550422,11.7313849 39.3099217,16.8331918 L35,21.0253526 L30.6900783,16.8331918 C25.4449578,11.7313849 17.0918916,11.7313849 11.8467711,16.8331918 C11.7625105,16.9151501 11.679389,16.9982716 11.5974307,17.0825322 C6.69521531,22.1224545 6.8068488,30.1821495 11.8467711,35.0843649 L35,57.6049731 Z M35,18.2352987 L37.91543,15.3995277 C43.9368767,9.54260623 53.5262739,9.54260623 59.5477207,15.3995277 C65.3794338,21.0718996 65.5086053,30.3978032 59.8362334,36.2295163 C59.7413991,36.3270145 59.645219,36.4231947 59.5477207,36.518029 L35,60.3950269 L10.4522793,36.518029 C4.62056622,30.845657 4.49139469,21.5197535 10.1637666,15.6880404 C10.2586009,15.5905421 10.354781,15.494362 10.4522793,15.3995277 C16.4737261,9.54260623 26.0631233,9.54260623 32.08457,15.3995277 L35,18.2352987 Z" id="path-1"></path>
    </defs>
    <g id="Icons/70px/heart-70" stroke="none" stroke-width="1" fill="none" fill-rule="evenodd">
        <g id="outlines">
            <g>
                <rect id="invisible-70" x="0" y="0" width="70" height="70"></rect>
                <mask id="mask-2" fill="white">
                    <use xlink:href="#path-1"></use>
                </mask>
                <use id="Path-10" fill="#FF0000" fill-rule="nonzero" xlink:href="#path-1"></use>
            </g>
        </g>
    </g>
</svg>