<?xml version="1.0" encoding="UTF-8"?>
<svg width="70px" height="70px" viewBox="0 0 70 70" version="1.1" xmlns="http://www.w3.org/2000/svg" xmlns:xlink="http://www.w3.org/1999/xlink">
    <!-- Generator: Sketch 61.2 (89653) - https://sketch.com -->
    <title>Icons/70px/heartbeat-70</title>
    <desc>Created with Sketch.</desc>
    <defs>
        <path d="M48.5097393,24.5415002 L58,46 L64,46 L64,48 L57,48 L48.4902607,29.4584998 L34.9001331,59.6587833 L29.0399376,43.4927267 L24,53 L6,53 L6,51 L23,51 L29.3600624,38.5072733 L35.0998669,54.3412167 L48.5097393,24.5415002 Z M22.4956755,11.2896206 L23.5398305,12.3172162 L24.5839855,11.2896206 C27.6860084,8.23679312 32.6634102,8.23679312 35.7654331,11.2896206 C38.8165232,14.292323 38.8557491,19.1998915 35.8530467,22.2509815 C35.8094733,22.2950217 35.8094733,22.2950217 35.7654331,22.3385951 L23.5398305,34.3703102 L11.3142279,22.3385951 C8.26313786,19.3358927 8.22391191,14.4283243 11.2266143,11.3772342 C11.2701877,11.333194 11.2701877,11.333194 11.3142279,11.2896206 C14.4162508,8.23679312 19.3936526,8.23679312 22.4956755,11.2896206 Z M12.7170929,12.7150924 C12.6844163,12.7474226 12.6844163,12.7474226 12.6520861,12.7800992 C10.4241646,15.043923 10.4532692,18.6852019 12.7170929,20.9131233 L23.5398305,31.5642217 L34.3625681,20.9131233 L34.427575,20.8481165 L34.427575,20.8481165 C36.6554964,18.5842928 36.6263918,14.9430138 34.3625681,12.7150924 C32.0389273,10.4283025 28.3104913,10.4283025 25.9868505,12.7150924 L23.5398305,15.1233048 L21.0928105,12.7150924 C18.7691697,10.4283025 15.0407337,10.4283025 12.7170929,12.7150924 Z" id="path-1"></path>
    </defs>
    <g id="Icons/70px/heartbeat-70" stroke="none" stroke-width="1" fill="none" fill-rule="evenodd">
        <g id="outlines">
            <g>
                <rect id="invisible-70" x="0" y="0" width="70" height="70"></rect>
                <mask id="mask-2" fill="white">
                    <use xlink:href="#path-1"></use>
                </mask>
                <use id="Combined-Shape" fill="#FF0000" fill-rule="nonzero" xlink:href="#path-1"></use>
            </g>
        </g>
    </g>
</svg>