<?xml version="1.0" encoding="UTF-8"?>
<svg width="70px" height="70px" viewBox="0 0 70 70" version="1.1" xmlns="http://www.w3.org/2000/svg" xmlns:xlink="http://www.w3.org/1999/xlink">
    <!-- Generator: Sketch 61.2 (89653) - https://sketch.com -->
    <title>Icons/70px/house-70</title>
    <desc>Created with Sketch.</desc>
    <g id="Icons/70px/house-70" stroke="none" stroke-width="1" fill="none" fill-rule="evenodd">
        <g>
            <rect id="invisible-70" x="0" y="0" width="70" height="70"></rect>
            <g id="outlines" transform="translate(6.000000, 10.000000)" fill="#FF0000" fill-rule="nonzero">
                <path d="M52,22.1868806 L29,3.29411935 L6,22.1858806 L6,49 L17,49 L17,51 L0,51 L0,49 L4,49 L3.999,23.8288806 L1.63473942,25.7727263 L0.365260577,24.2272737 L29,0.705880648 L57.6347394,24.2272737 L56.3652606,25.7727263 L54,23.8288806 L54,49 L58,49 L58,51 L27,51 L27,49 L52,49 L52,22.1868806 Z M45,30 L45,49 L43,49 L43,32 L35,32 L35,49 L33,49 L33,30 L45,30 Z M27,30 L27,42 L13,42 L13,30 L27,30 Z M25,32 L15,32 L15,40 L25,40 L25,32 Z M29,8.69829172 L35.6401844,14.2317787 L34.3598156,15.7682213 L29,11.3017083 L23.6401844,15.7682213 L22.3598156,14.2317787 L29,8.69829172 Z" id="Combined-Shape"></path>
            </g>
        </g>
    </g>
</svg>