<?xml version="1.0" encoding="UTF-8"?>
<svg width="70px" height="70px" viewBox="0 0 70 70" version="1.1" xmlns="http://www.w3.org/2000/svg" xmlns:xlink="http://www.w3.org/1999/xlink">
    <!-- Generator: Sketch 61.2 (89653) - https://sketch.com -->
    <title>Icons/70px/house-sun-70</title>
    <desc>Created with Sketch.</desc>
    <g id="Icons/70px/house-sun-70" stroke="none" stroke-width="1" fill="none" fill-rule="evenodd">
        <g id="lines">
            <g>
                <rect id="invisible-70" x="0" y="0" width="70" height="70"></rect>
                <path d="M46,62 L46,64 L33,64 L33,62 L46,62 Z M26.5,24.7064617 L43.9196834,38.999 L44,39 L43.9996834,39.065 L46.6343166,41.2269266 L45.3656834,42.7730734 L43.9996834,41.653 L44,62 L42,62 L41.9996834,40.012 L26.5,27.2935383 L10.9996834,40.011 L10.9996834,62 L14,62 L14,48 L26,48 L26,62 L28,62 L28,64 L7,64 L7,62 L8.99968339,62 L8.99968339,41.652 L7.63431661,42.7730734 L6.36568339,41.2269266 L8.99968339,39.065 L9,39 L9.07968339,38.999 L26.5,24.7064617 Z M24,62 L24,50 L16,50 L16,62 L24,62 Z M39,48 L39,58 L29,58 L29,48 L39,48 Z M37,50 L31,50 L31,56 L37,56 L37,50 Z M26.5,32.7383677 L33.6097108,38.207376 L32.3902892,39.792624 L26.5,35.2616323 L20.6097108,39.792624 L19.3902892,38.207376 L26.5,32.7383677 Z M64.0510036,25 L64.0510036,34 L62.0510036,34 L62.0510036,25 L64.0510036,25 Z M56.1055313,22.9732644 L57.8965571,23.8633355 L55.5979139,28.4887289 L53.8068882,27.5986578 L56.1055313,22.9732644 Z M50.2928932,18.2928932 L51.7071068,19.7071068 L44.7071068,26.7071068 L43.2928932,25.2928932 L50.2928932,18.2928932 Z M51,6 C51,13.1797017 56.8202983,19 64,19 L64,21 C55.7157288,21 49,14.2842712 49,6 L51,6 Z M45.5465821,12.9401251 L46.5638952,14.6620641 L42.116921,17.2893146 L41.0996079,15.5673756 L45.5465821,12.9401251 Z M44,6 L44,8 L35,8 L35,6 L44,6 Z" id="Combined-Shape" fill="#FF0000" fill-rule="nonzero"></path>
            </g>
        </g>
    </g>
</svg>