<?xml version="1.0" encoding="UTF-8"?>
<svg width="70px" height="70px" viewBox="0 0 70 70" version="1.1" xmlns="http://www.w3.org/2000/svg" xmlns:xlink="http://www.w3.org/1999/xlink">
    <!-- Generator: Sketch 61 (89581) - https://sketch.com -->
    <title>Icons/70px/id-70</title>
    <desc>Created with Sketch.</desc>
    <g id="Icons/70px/id-70" stroke="none" stroke-width="1" fill="none" fill-rule="evenodd">
        <g id="Icons/70px/id-sign-70">
            <rect id="invisible-70" x="0" y="0" width="70" height="70"></rect>
            <g id="outlines" transform="translate(17.000000, 7.000000)" fill="#FF0000" fill-rule="nonzero">
                <path d="M31.6,0 C33.9569838,0 35.8836288,1.84366515 35.994922,4.16288942 L36,4.375 L36,37.1539612 L34,39.1539612 L34,4.375 C34,3.11956658 33.014672,2.08917395 31.7645076,2.00548747 L31.6,2 L4.4,2 C3.12816831,2 2.08984736,2.97808291 2.00552865,4.21258335 L2,4.375 L2,51.625 C2,52.8804334 2.98532796,53.910826 4.23549238,53.9945125 L4.4,54 L31.6,54 C32.8718317,54 33.9101526,53.0219171 33.9944713,51.7874166 L34,51.625 L34,46.5625 L36,44.5625 L36,51.625 C36,53.9717897 34.1426781,55.8844781 31.8130472,55.9949591 L31.6,56 L4.4,56 C2.04301617,56 0.116371194,54.1563349 0.0050780493,51.8371106 L0,51.625 L0,4.375 C0,2.02821026 1.85732193,0.115521884 4.18695279,0.00504089778 L4.4,0 L31.6,0 Z M44.1674039,31.3776266 L45.5825961,32.7908609 L26.7248352,51.6747465 L17.1580051,41.8345784 L18.5919949,40.4404216 L26.744,48.824 L44.1674039,31.3776266 Z M28,34 L28,36 L8,36 L8,34 L28,34 Z M28,29 L28,31 L8,31 L8,29 L28,29 Z M18.0340909,5.4375 C20.8739642,5.4375 23.1761364,7.73967217 23.1761364,10.5795455 C23.1761364,11.5069429 22.930625,12.376998 22.5010513,13.1282618 C23.7194284,14.0742664 24.7023689,15.137363 25.4455869,16.3150829 C26.3169557,17.6958738 26.9111925,19.6424094 27.2532335,22.1642336 L27.3895944,23.2667583 L26.8231682,23.598155 C24.5834577,24.9085333 22.0229673,25.3863636 18.0397232,25.3863636 C14.1941502,25.3863636 11.6771393,24.9436873 9.49532981,23.7403905 L9.24501362,23.598155 L8.67858738,23.2667583 L8.75720105,22.6152352 C9.08803808,19.8733712 9.69996909,17.7770967 10.622595,16.3150829 C11.3658129,15.137363 12.3487534,14.0742664 13.5664266,13.1256799 C13.1373403,12.3762304 12.8920455,11.5065338 12.8920455,10.5795455 C12.8920455,7.73967217 15.1942176,5.4375 18.0340909,5.4375 Z M14.8785893,14.6398254 L14.8619323,14.6520211 C13.7902096,15.476055 12.9426388,16.3862369 12.3139651,17.3824476 C11.6617655,18.4159376 11.1696122,19.9606306 10.8578395,22.0087441 L10.832,22.181 L10.9202375,22.2249098 C12.5899528,23.0234336 14.6084088,23.3570001 17.6224813,23.3844964 L18.0397232,23.3863636 C21.2777686,23.3863636 23.4031681,23.0594524 25.1481624,22.2248136 L25.235,22.181 L25.2103423,22.0087441 C24.9193544,20.0971715 24.471235,18.6241341 23.8825167,17.5959593 L23.7542168,17.3824476 C23.122225,16.3809791 22.2690195,15.4664499 21.1892619,14.6389811 C20.3181981,15.3179014 19.2232878,15.7215909 18.0340909,15.7215909 C16.8447423,15.7215909 15.7497044,15.3177984 14.8785893,14.6398254 Z M18.0340909,7.4375 C16.2987871,7.4375 14.8920455,8.84424167 14.8920455,10.5795455 C14.8920455,12.3148492 16.2987871,13.7215909 18.0340909,13.7215909 C19.7693947,13.7215909 21.1761364,12.3148492 21.1761364,10.5795455 C21.1761364,8.84424167 19.7693947,7.4375 18.0340909,7.4375 Z" id="Combined-Shape"></path>
            </g>
        </g>
    </g>
</svg>