<?xml version="1.0" encoding="UTF-8"?>
<svg width="70px" height="70px" viewBox="0 0 70 70" version="1.1" xmlns="http://www.w3.org/2000/svg" xmlns:xlink="http://www.w3.org/1999/xlink">
    <!-- Generator: Sketch 63.1 (92452) - https://sketch.com -->
    <title>Icons/70px/mc-70</title>
    <desc>Created with Sketch.</desc>
    <g id="Icons/70px/mc-70" stroke="none" stroke-width="1" fill="none" fill-rule="evenodd">
        <g>
            <rect id="invisible-70" x="0" y="0" width="70" height="70"></rect>
            <g id="lines" transform="translate(7.000000, 19.000000)" fill="#FF0000" fill-rule="nonzero">
                <path d="M37.7397961,0.327168829 L49.2655073,13 L47.0043015,13 C44.5817125,13 42.3574571,13.865122 40.6245723,15.3025801 L41.5005519,16.1723161 C43.0076988,14.9626561 44.9215401,14.2389609 47.0043474,14.2389609 C51.8646095,14.2389609 55.8046474,18.1789988 55.8046474,23.0392609 C55.8046474,27.8995231 51.8646095,31.8395609 47.0043474,31.8395609 C42.1444638,31.8395609 38.2045058,27.8994431 38.2045058,23.0392609 C38.2045058,20.9822261 38.9102866,19.0900062 40.0928778,17.5915728 L39.2191704,16.726037 C37.886353,18.3752402 37.0663543,20.4548863 37.003851,22.7205083 L37,23 L37,23.4142136 L32.4142136,28 L19.5400651,28 L12.9333397,20.2921688 L9.44799856,23.7492779 L8.03962936,22.329244 L11.6283397,18.7691688 L7.54,14 L3,14 L3,12 L8.45993492,12 L20.46,26 L31.584,26 L35.008,22.576 L35.0151701,22.3926305 C35.2921805,16.8595341 39.3324089,12.3044298 44.6236994,11.236799 L44.91,11.183 L36.2602039,1.67283117 L37.7397961,0.327168829 Z M7.02819698,14.4685237 L7.48162641,16.4164461 C6.25581021,16.7017866 5.13125229,17.3205542 4.22078868,18.2306271 C1.56548918,20.8863264 1.56548918,25.1921038 4.22073546,27.8477498 C6.87642249,30.5034369 11.1821179,30.5034369 13.8378049,27.8477498 C14.4085402,27.2770146 14.8652229,26.622055 15.1969985,25.9082948 L15.3315091,25.5988716 L17.1850728,26.3500718 C16.7467769,27.4315538 16.0944562,28.4195256 15.2520185,29.2619634 C11.8152829,32.698699 6.24325751,32.698699 2.80646868,29.2619102 C-0.629737485,25.8251867 -0.629737485,20.2532435 2.80667362,16.8163151 C3.8993293,15.7241282 5.23447281,14.9544202 6.69017989,14.5542816 L7.02819698,14.4685237 Z M47.0043474,16.2389609 C45.4772208,16.2389609 44.0676323,16.7424637 42.9325299,17.5925273 L47.7086851,22.3292595 L46.3002847,23.7492624 L41.524681,19.0120191 C40.6948451,20.1393712 40.2045058,21.5320641 40.2045058,23.0392609 C40.2045058,26.7948917 43.2490514,29.8395609 47.0043474,29.8395609 C50.76004,29.8395609 53.8046474,26.7949536 53.8046474,23.0392609 C53.8046474,19.2835683 50.76004,16.2389609 47.0043474,16.2389609 Z M9.14266254,18.2496346 L9.0973484,20.2491212 C8.35988611,20.2324082 7.6462036,20.5031551 7.10231688,21.0230226 C5.98600306,22.0903605 5.94600239,23.8603119 7.01309045,24.9763644 C8.0802187,26.0927967 9.85016361,26.1327972 10.96622,25.0660432 C11.6006934,24.4594083 11.9036223,23.6078043 11.8161548,22.7573355 L11.7890131,22.5612056 L13.7593375,22.217954 C14.0318987,23.782503 13.5187375,25.3925935 12.3482517,26.5117224 C10.4335893,28.3418036 7.39764534,28.2731917 5.56741737,26.3584025 C3.7369888,24.4439828 3.80560106,21.4080247 5.72027877,19.5773496 C6.58962834,18.7463923 7.71766452,18.2850433 8.89068936,18.2504863 L9.14266254,18.2496346 Z M46.8963193,18.2496346 C48.1588495,18.221022 49.3872572,18.6870382 50.3188123,19.577454 C52.2333808,21.4080247 52.3019931,24.4439828 50.4716689,26.3582933 C48.641352,28.2731756 45.6054903,28.3417816 43.6901588,26.5116145 C42.5814721,25.4515731 42.0628579,23.9507785 42.2431123,22.4653117 L42.2796444,22.217954 L44.2499688,22.5612056 C44.090667,23.4756257 44.3892165,24.4129278 45.0720813,25.0658309 C46.1887173,26.1328161 47.9587446,26.0928161 49.0259959,24.9762552 C50.0929795,23.8603119 50.0529788,22.0903605 48.9367742,21.023127 C48.4422325,20.5504253 47.8074539,20.2836946 47.1420604,20.2516615 L46.9416335,20.2491212 L46.8963193,18.2496346 Z M32,20 L32,22 L26,22 L26,20 L32,20 Z M32,17 L32,19 L28,19 L28,17 L32,17 Z M14.259126,8 L23.192,12.962 L34.0314156,11.4171368 C35.6104755,11.2557412 36.8395205,10.0034252 36.9977771,8.45769504 L37.0134055,8.20782029 L37.0151823,8.09384115 L39.0150886,8.11319508 L39.0095142,8.36177406 C38.8937622,10.9022249 36.9838379,13.0104169 34.5015168,13.3737466 L34.2743084,13.4019333 L22.808311,15.037465 L13.739,9.999 L3,10 L3,8 L14.259126,8 Z M38,5 L38,7 L33,7 L33,5 L38,5 Z" id="Combined-Shape"></path>
            </g>
        </g>
    </g>
</svg>