<?xml version="1.0" encoding="UTF-8"?>
<svg width="70px" height="70px" viewBox="0 0 70 70" version="1.1" xmlns="http://www.w3.org/2000/svg" xmlns:xlink="http://www.w3.org/1999/xlink">
    <!-- Generator: Sketch 57.1 (83088) - https://sketch.com -->
    <title>Icons/70px/mobile-phone-70</title>
    <desc>Created with Sketch.</desc>
    <defs>
        <path d="M33,0 C34.6568542,0 36,1.34314575 36,3 L36,55 C36,56.6568542 34.6568542,58 33,58 L3,58 C1.34314575,58 0,56.6568542 0,55 L0,3 C0,1.34314575 1.34314575,0 3,0 L33,0 Z M34,46 L2,46 L2,55 C2,55.5522847 2.44771525,56 3,56 L33,56 C33.5522847,56 34,55.5522847 34,55 L34,46 Z M18,48 C19.6568542,48 21,49.3431458 21,51 C21,52.6568542 19.6568542,54 18,54 C16.3431458,54 15,52.6568542 15,51 C15,49.3431458 16.3431458,48 18,48 Z M18,50 C17.4477153,50 17,50.4477153 17,51 C17,51.5522847 17.4477153,52 18,52 C18.5522847,52 19,51.5522847 19,51 C19,50.4477153 18.5522847,50 18,50 Z M34,10 L2,10 L2,44 L34,44 L34,10 Z M33,2 L3,2 C2.44771525,2 2,2.44771525 2,3 L2,8 L34,8 L34,3 C34,2.44771525 33.5522847,2 33,2 Z M19,4 C19.5522847,4 20,4.44771525 20,5 C20,5.55228475 19.5522847,6 19,6 L13,6 C12.4477153,6 12,5.55228475 12,5 C12,4.44771525 12.4477153,4 13,4 L19,4 Z M23,4 C23.5522847,4 24,4.44771525 24,5 C24,5.55228475 23.5522847,6 23,6 L22,6 C21.4477153,6 21,5.55228475 21,5 C21,4.44771525 21.4477153,4 22,4 L23,4 Z" id="path-1"></path>
    </defs>
    <g id="Icons/70px/mobile-phone-70" stroke="none" stroke-width="1" fill="none" fill-rule="evenodd">
        <g>
            <rect id="invisible-70" x="0" y="0" width="70" height="70"></rect>
            <g id="outlines" transform="translate(17.000000, 6.000000)">
                <mask id="mask-2" fill="white">
                    <use xlink:href="#path-1"></use>
                </mask>
                <use id="Combined-Shape" fill="#FF0000" fill-rule="nonzero" xlink:href="#path-1"></use>
            </g>
        </g>
    </g>
</svg>