<?xml version="1.0" encoding="UTF-8"?>
<svg width="70px" height="70px" viewBox="0 0 70 70" version="1.1" xmlns="http://www.w3.org/2000/svg" xmlns:xlink="http://www.w3.org/1999/xlink">
    <!-- Generator: Sketch 61 (89581) - https://sketch.com -->
    <title>Icons/70px/bills-coins-70</title>
    <desc>Created with Sketch.</desc>
    <g id="Icons/70px/bills-coins-70" stroke="none" stroke-width="1" fill="none" fill-rule="evenodd">
        <g>
            <rect id="invisible-70" x="0" y="0" width="70" height="70"></rect>
            <g id="outlines" transform="translate(7.000000, 5.000000)" fill="#FF0000" fill-rule="nonzero">
                <path d="M25.5,48 C28.5375661,48 31,50.4624339 31,53.5 C31,56.5375661 28.5375661,59 25.5,59 C22.4624339,59 20,56.5375661 20,53.5 C20,50.4624339 22.4624339,48 25.5,48 Z M25.5,50 C23.5670034,50 22,51.5670034 22,53.5 C22,55.4329966 23.5670034,57 25.5,57 C27.4329966,57 29,55.4329966 29,53.5 C29,51.5670034 27.4329966,50 25.5,50 Z M47.5301088,0.809694025 L52.861,23.713694 L55.8028613,24.3395959 L50.3956936,49.7783199 L44.2215389,48.4199396 C43.5763694,51.7427462 40.876866,54.1840606 37.7070639,54.1287315 C34.071818,54.065278 31.2306557,50.765612 31.2996842,46.8109689 C31.3068089,46.4027955 31.3446865,45.9993531 31.4123609,45.6037637 L28.9458953,45.061507 L29.3754328,43.1081772 L48.8581493,47.3924285 L53.4307428,25.8800677 L10.3922483,16.7319533 L7.397,30.819694 L7.42045191,30.9180928 L7.374,30.928694 L5.81819113,38.2512005 L11.7551787,39.5117873 C12.75573,36.7954197 15.3897898,34.8798145 18.4476332,34.9331893 C22.3130377,35.0006602 25.3918711,38.1888856 25.3244002,42.05429 C25.2569294,45.9196945 22.068704,48.9985279 18.2032995,48.9310571 C14.3378951,48.8635862 11.2590616,45.6753608 11.3265325,41.8099563 C11.3285229,41.6959296 11.3332289,41.5825874 11.3405879,41.4699902 L3.44607255,39.7916724 L5.349,30.837694 L1.75650496,15.3251213 L1.12495105,12.5895608 L0.9,11.6151907 L13.5270783,8.7 L13.9769804,10.6487401 L3.29864224,13.1140288 L3.70509313,14.874561 L6.331,26.215694 L8.85177651,14.3598347 L50.7,23.254694 L46.0347832,3.20752536 L18.7499021,9.50673651 L18.3,7.55799638 L47.5301088,0.809694025 Z M33.2993796,46.8458737 C33.2487953,49.743846 35.2653295,52.0858062 37.7419688,52.1290361 C39.9069386,52.1668258 41.8155931,50.4270302 42.2673328,47.9906999 L33.3686143,46.0337729 C33.3274479,46.2999275 33.3041746,46.5711679 33.2993796,46.8458737 Z M18.4127284,36.9328847 C15.6517252,36.8846912 13.3744214,39.083858 13.3262279,41.8448612 C13.2780344,44.6058643 15.4772012,46.8831682 18.2382043,46.9313617 C20.9992075,46.9795552 23.2765114,44.7803884 23.3247049,42.0193852 C23.3728983,39.2583821 21.1737316,36.9810782 18.4127284,36.9328847 Z M48.3313612,26.8185799 C49.9520092,27.1630593 50.9865483,28.7561098 50.6420689,30.3767578 C50.2975896,31.9974058 48.7045391,33.0319449 47.083891,32.6874655 C45.463243,32.3429862 44.428704,30.7499357 44.7731833,29.1292877 C45.1176627,27.5086397 46.7107132,26.4741006 48.3313612,26.8185799 Z M41.484328,25.3631981 C43.104976,25.7076775 44.1395151,27.300728 43.7950357,28.921376 C43.4505563,30.542024 41.8575059,31.5765631 40.2368578,31.2320837 C38.6162098,30.8876043 37.5816707,29.2945538 37.9261501,27.6739058 C38.2706295,26.0532578 39.86368,25.0187187 41.484328,25.3631981 Z M46.7294785,29.545111 C46.6146521,30.085327 46.9594984,30.6163439 47.4997144,30.7311703 C48.0399304,30.8459968 48.5709473,30.5011504 48.6857737,29.9609344 C48.8006002,29.4207184 48.4557538,28.8897016 47.9155378,28.7748751 C47.3753218,28.6600487 46.844305,29.004895 46.7294785,29.545111 Z M35.1263686,24.0117721 L37.0826638,24.4275955 L35.8351936,30.2964811 L33.8788984,29.8806577 L35.1263686,24.0117721 Z M39.8824453,28.0897292 C39.7676189,28.6299452 40.1124652,29.160962 40.6526812,29.2757885 C41.1928972,29.390615 41.7239141,29.0457686 41.8387405,28.5055526 C41.953567,27.9653366 41.6087206,27.4343198 41.0685046,27.3194933 C40.5282886,27.2046668 39.9972718,27.5495132 39.8824453,28.0897292 Z M31.4085065,8.64319707 L32.7582128,14.4894175 L30.8094727,14.9393196 L29.4597664,9.09309918 L31.4085065,8.64319707 Z M39.3911351,9.87917436 C39.7638463,11.4935635 38.7572673,13.1044266 37.1428781,13.4771377 C35.5284889,13.8498488 33.9176259,12.8432699 33.5449148,11.2288807 C33.1722036,9.6144915 34.1787826,8.00362843 35.7931718,7.63091732 C37.407561,7.25820621 39.018424,8.26478517 39.3911351,9.87917436 Z M46.2117256,8.30451698 C46.5844367,9.91890616 45.5778577,11.5297692 43.9634686,11.9024803 C42.3490794,12.2751914 40.7382163,11.2686125 40.3655052,9.6542233 C39.9927941,8.03983412 40.9993731,6.42897105 42.6137622,6.05625994 C44.2281514,5.68354883 45.8390145,6.69012779 46.2117256,8.30451698 Z M36.2430739,9.57965745 C35.7049442,9.70389449 35.3694178,10.2408488 35.4936549,10.7789786 C35.6178919,11.3171083 36.1548463,11.6526346 36.692976,11.5283976 C37.2311057,11.4041605 37.566632,10.8672062 37.442395,10.3290765 C37.318158,9.79094674 36.7812036,9.45542042 36.2430739,9.57965745 Z M43.0636643,8.00500007 C42.5255346,8.12923711 42.1900083,8.66619147 42.3142453,9.20432119 C42.4384824,9.74245092 42.9754367,10.0779772 43.5135665,9.9537402 C44.0516962,9.82950317 44.3872225,9.29254881 44.2629855,8.75441908 C44.1387484,8.21628936 43.6017941,7.88076304 43.0636643,8.00500007 Z" id="Combined-Shape"></path>
            </g>
        </g>
    </g>
</svg>