<?xml version="1.0" encoding="UTF-8"?>
<svg width="70px" height="70px" viewBox="0 0 70 70" version="1.1" xmlns="http://www.w3.org/2000/svg" xmlns:xlink="http://www.w3.org/1999/xlink">
    <!-- Generator: Sketch 63.1 (92452) - https://sketch.com -->
    <title>Icons/70px/moped-70</title>
    <desc>Created with Sketch.</desc>
    <g id="Icons/70px/moped-70" stroke="none" stroke-width="1" fill="none" fill-rule="evenodd">
        <g>
            <rect id="invisible-70" x="0" y="0" width="70" height="70"></rect>
            <g id="lines" transform="translate(7.000000, 17.000000)" fill="#FF0000" fill-rule="nonzero">
                <path d="M4.31565212,20.4781724 L5.64947496,21.9684464 C4.47836406,23.0166123 3.79741771,24.5071986 3.79741771,26.109799 C3.79741771,29.1780767 6.28457746,31.6652365 9.35285521,31.6652365 C11.0057971,31.6652365 12.5367221,30.9402476 13.5830912,29.7116942 L13.7442278,29.5135597 L15.3240868,30.7399549 C13.9024309,32.5713514 11.7172254,33.6652365 9.35285521,33.6652365 C5.18000796,33.6652365 1.79741771,30.2826462 1.79741771,26.109799 C1.79741771,24.0312464 2.64256394,22.0867482 4.10287612,20.6760293 L4.31565212,20.4781724 Z M46.4262388,18.5535885 C50.5686787,18.5535885 53.9265125,21.9114762 53.9265125,26.0535885 C53.9265125,30.1957009 50.5686787,33.5535885 46.4262388,33.5535885 C42.2842486,33.5535885 38.9265125,30.1956032 38.9265125,26.0535885 C38.9265125,21.9115739 42.2842486,18.5535885 46.4262388,18.5535885 Z M46.4262388,20.5535885 C43.3888513,20.5535885 40.9265125,23.0161102 40.9265125,26.0535885 C40.9265125,29.0910669 43.3888513,31.5535885 46.4262388,31.5535885 C49.4641021,31.5535885 51.9265125,29.0911385 51.9265125,26.0535885 C51.9265125,23.0160385 49.4641021,20.5535885 46.4262388,20.5535885 Z M35.5661904,4.03233003e-13 L44.5843543,15.0294685 C45.1089662,14.9434423 45.6448382,14.8924103 46.1891862,14.8789073 L46.4820052,14.8752781 C47.9778049,14.8752781 49.4332962,15.1679083 50.7842754,15.7283834 L51.1500849,15.8878624 L50.3182172,17.7066522 C49.1255987,17.1611792 47.8253606,16.8752781 46.4820052,16.8752781 C41.393145,16.8752781 37.151227,20.8339737 37.0039541,25.73648 L37,26 L37,30 L16.6045525,30 L-9.46798195e-12,14.433232 L-9.46798195e-12,6 L24,6 L24,7 C24,11.9061834 20.6837528,16.1269451 16.1970593,17.5164843 C17.3751961,21.3663756 20.9573725,24.0908188 25.0987135,24.0908188 C30.1063014,24.0908188 33.8637778,20.3242101 33.9963765,15.2765807 L34,15 L34,8 L36,8 L36,15 C36,21.2788734 31.3139594,26.0908188 25.0987135,26.0908188 C20.0060567,26.0908188 15.6104725,22.700486 14.2321005,17.9295895 C13.9203918,17.9654852 13.6045703,17.9878633 13.2856411,17.996248 L13,18 L13,16 C17.4721352,16 21.2632002,12.6082328 21.9045245,8.2933689 L21.942,8 L1.999,8 L1.999,13.566 L17.395,28 L34.999,28 L35,26 C35,21.1961131 38.1841674,17.1092353 42.5632887,15.5503755 L34.434,2 L30,2 L30,4.03233003e-13 L35.5661904,4.03233003e-13 Z M46.4821708,22.3176375 C48.5764243,22.3176375 50.2740562,24.0152694 50.2740562,26.1095229 C50.2740562,28.2037764 48.5764243,29.9014083 46.4821708,29.9014083 C44.4533628,29.9014083 42.7967747,28.3082206 42.6952192,26.3046575 L42.6902854,26.1095229 L44.6902854,26.1095229 C44.6902854,27.0992069 45.4924868,27.9014083 46.4821708,27.9014083 C47.4718548,27.9014083 48.2740562,27.0992069 48.2740562,26.1095229 C48.2740562,25.1693231 47.5500695,24.3983263 46.6291405,24.3235772 L46.4821708,24.3176375 L46.4821708,22.3176375 Z M7.55213646,26.1095781 C7.55213646,27.0992621 8.35433787,27.9014635 9.34402187,27.9014635 C9.68809503,27.9014635 10.0158555,27.8050588 10.2981476,27.6270358 L10.4353697,27.5312913 L11.6546116,29.1166775 C10.9972388,29.6222302 10.1902623,29.9014635 9.34402187,29.9014635 C7.3152138,29.9014635 5.65862578,28.3082758 5.55707029,26.3047127 L5.55213646,26.1095781 L7.55213646,26.1095781 Z M12,11 L12,13 L4,13 L4,11 L12,11 Z M42.8675842,5.50270968 L45.7168863,10.473668 L43.9817179,11.4682487 L41.1324158,6.49729032 L42.8675842,5.50270968 Z" id="Combined-Shape"></path>
            </g>
        </g>
    </g>
</svg>