<?xml version="1.0" encoding="UTF-8"?>
<svg width="70px" height="70px" viewBox="0 0 70 70" version="1.1" xmlns="http://www.w3.org/2000/svg" xmlns:xlink="http://www.w3.org/1999/xlink">
    <!-- Generator: Sketch 61.2 (89653) - https://sketch.com -->
    <title>Icons/70px/mortgage-70</title>
    <desc>Created with Sketch.</desc>
    <g id="Icons/70px/mortgage-70" stroke="none" stroke-width="1" fill="none" fill-rule="evenodd">
        <g>
            <rect id="invisible-70" x="0" y="0" width="70" height="70"></rect>
            <g id="outlines" transform="translate(9.000000, 6.000000)" fill="#FF0000" fill-rule="nonzero">
                <path d="M17.0099818,32.826991 L33.5299989,43.1520017 L32.4700011,44.8479983 L30.9996179,43.9288884 L31,58 L29,58 L28.9996179,42.6788884 L16.9900182,35.173009 L3.99961791,42.9868884 L4,58 L2,58 L1.99961791,44.1898884 L0.892599833,44.856895 L-0.138382092,43.143105 L17.0099818,32.826991 Z M16,47 L16,58 L14,58 L14,49 L9,49 L9,58 L7,58 L7,47 L16,47 Z M26,47 L26,54 L19,54 L19,47 L26,47 Z M24,49 L21,49 L21,52 L24,52 L24,49 Z M47.9657695,35.7042179 C49.2012589,38.4791727 47.9532757,41.73028 45.178321,42.9657695 C42.4033663,44.2012589 39.1522589,42.9532757 37.9167694,40.178321 C36.68128,37.4033663 37.9292632,34.1522589 40.7042179,32.9167694 C43.4791727,31.68128 46.73028,32.9292632 47.9657695,35.7042179 Z M41.5176912,34.7438604 C39.7518109,35.5300809 38.9576398,37.5989674 39.7438604,39.3648477 C40.5300809,41.130728 42.5989674,41.9248991 44.3648477,41.1386786 C46.130728,40.352458 46.9248991,38.2835715 46.1386786,36.5176912 C45.352458,34.7518109 43.2835715,33.9576398 41.5176912,34.7438604 Z M48.2666121,-0.243111595 L53.3291188,23.340292 L42.4865135,25.4672829 L42.101512,23.5046893 L50.9463847,21.769593 L46.7300791,2.12816977 L3.69187677,11.2762221 L7.53590127,29.1577793 L7.91307967,30.9322641 L24.8879621,27.3130606 C25.0898555,24.7979546 26.6488037,22.4780627 29.132298,21.4238819 C32.6909635,19.913318 36.800386,21.5736324 38.3109499,25.132298 C39.8215138,28.6909635 38.1611993,32.800386 34.6025338,34.3109499 C31.0438682,35.8215138 26.9344458,34.1611993 25.4238819,30.6025338 C25.2464211,30.1844624 25.1127233,29.7587897 25.020725,29.3306225 L6.37284461,33.3054966 L6.16481454,32.326792 L5.58008885,29.5758611 L1.31523502,9.73671168 L48.2666121,-0.243111595 Z M29.9137602,23.2648916 C27.3718563,24.3438658 26.1859174,27.2791676 27.2648916,29.8210715 C28.3438658,32.3629755 31.2791676,33.5489144 33.8210715,32.4699402 C36.3629755,31.3909659 37.5489144,28.4556642 36.4699402,25.9137602 C35.3909659,23.3718563 32.4556642,22.1859174 29.9137602,23.2648916 Z M31.8545026,6.5875491 L33.1019728,12.4564347 L31.1456775,12.8722581 L29.8982074,7.00337248 L31.8545026,6.5875491 Z M39.8143447,7.96265422 C40.1588241,9.58330223 39.124285,11.1763527 37.503637,11.5208321 C35.8829889,11.8653115 34.2899384,10.8307724 33.9454591,9.21012437 C33.6009797,7.58947636 34.6355188,5.99642586 36.2561668,5.65194649 C37.8768148,5.30746712 39.4698653,6.34200621 39.8143447,7.96265422 Z M46.6613779,6.50727238 C47.0058573,8.12792039 45.9713182,9.72097089 44.3506702,10.0654503 C42.7300222,10.4099296 41.1369717,9.37539054 40.7924923,7.75474253 C40.4480129,6.13409452 41.482552,4.54104402 43.1032,4.19656465 C44.723848,3.85208529 46.3168985,4.88662438 46.6613779,6.50727238 Z M36.6719902,7.60824169 C36.1317742,7.72306815 35.7869278,8.25408498 35.9017543,8.79430098 C36.0165807,9.33451699 36.5475976,9.67936335 37.0878136,9.56453689 C37.6280296,9.44971044 37.9728759,8.9186936 37.8580495,8.3784776 C37.743223,7.8382616 37.2122062,7.49341524 36.6719902,7.60824169 Z M43.5190234,6.15285986 C42.9788074,6.26768631 42.633961,6.79870314 42.7487875,7.33891915 C42.8636139,7.87913515 43.3946308,8.22398151 43.9348468,8.10915506 C44.4750628,7.9943286 44.8199091,7.46331177 44.7050827,6.92309577 C44.5902562,6.38287976 44.0592394,6.0380334 43.5190234,6.15285986 Z" id="Combined-Shape"></path>
            </g>
        </g>
    </g>
</svg>