<?xml version="1.0" encoding="UTF-8"?>
<svg width="70px" height="70px" viewBox="0 0 70 70" version="1.1" xmlns="http://www.w3.org/2000/svg" xmlns:xlink="http://www.w3.org/1999/xlink">
    <!-- Generator: Sketch 63.1 (92452) - https://sketch.com -->
    <title>Icons/70px/notification-swish-70</title>
    <desc>Created with Sketch.</desc>
    <defs>
        <path d="M42,22.0049846 C42,16.2559513 39.5652446,10.9195645 35.3942644,7.15624077 L32.0091572,11.3629668 C39.1435376,17.8745841 40.067546,28.8836871 33.9373321,36.4988225 C32.5788833,38.1876995 30.9695078,39.5838547 29.1970789,40.6659686 C36.6862905,37.7765973 42,30.5104123 42,22.0049846 Z M44,22.0049846 C44,34.1514359 34.1490977,44 22,44 C19.234579,44 16.5366426,43.4815929 13.9879702,42.4859194 L14.6525071,40.6007413 C21.0533128,42.6185344 28.1081139,40.5549209 32.3791559,35.2449938 C38.0293142,28.2261977 36.9564665,17.9727885 29.9912416,12.2607777 L29.2251367,11.6325138 L35.1143391,4.31390945 L35.8944547,4.95068812 C40.9912116,9.11097663 44,15.305712 44,22.0049846 Z M14.0774215,31.818044 L14.8460707,32.4465067 L8.96831931,39.7412939 L8.18949276,39.1125163 C3.04940363,34.9627182 0,28.7255109 0,21.9950154 C0,9.84856407 9.85090229,0 22,0 C25.0907541,0 28.094093,0.642287075 30.8702377,1.86990577 L30.1225977,3.72373376 C23.5607592,1.32597026 16.1249371,3.32322911 11.6809541,8.84437956 C6.0359707,15.868727 7.10904262,26.1205605 14.0774215,31.818044 Z M10.1222367,7.5912234 C11.6119975,5.74027917 13.4006667,4.24272689 15.3731355,3.12400611 C7.58486413,5.85801474 2,13.2752749 2,21.9950154 C2,27.7735262 4.47093362,33.1494067 8.68253418,36.9083193 L12.0593578,32.7173953 C4.92177917,26.2189263 3.99804603,15.2115351 10.1222367,7.5912234 Z" id="path-1"></path>
    </defs>
    <g id="Icons/70px/notification-swish-70" stroke="none" stroke-width="1" fill="none" fill-rule="evenodd">
        <g>
            <rect id="invisible-70" x="0" y="0" width="70" height="70"></rect>
            <g id="outlines" transform="translate(13.000000, 13.000000)">
                <mask id="mask-2" fill="white">
                    <use xlink:href="#path-1"></use>
                </mask>
                <use id="Fill-1" fill="#FF0000" fill-rule="nonzero" xlink:href="#path-1"></use>
            </g>
        </g>
    </g>
</svg>