<?xml version="1.0" encoding="UTF-8"?>
<svg width="70px" height="70px" viewBox="0 0 70 70" version="1.1" xmlns="http://www.w3.org/2000/svg" xmlns:xlink="http://www.w3.org/1999/xlink">
    <!-- Generator: Sketch 61 (89581) - https://sketch.com -->
    <title>Icons/70px/padlock-70</title>
    <desc>Created with Sketch.</desc>
    <defs>
        <path d="M23,0 C32.9477166,0 41,8.28911525 41,18.5 L41,26 L46,26 L46,58 L0,58 L0,26 L5,26 L5,18.5 C5,8.28911525 13.0522834,0 23,0 Z M44,28 L2,28 L2,56 L44,56 L44,28 Z M23,32 C25.7614237,32 28,34.2385763 28,37 C28,38.0850616 27.6519886,39.1173895 27.0257745,39.9659153 L30.3450917,51 L15.6554896,51 L18.9711004,39.9616733 C18.3468251,39.11391 18,38.0832168 18,37 C18,34.2385763 20.2385763,32 23,32 Z M23,34 C21.3431458,34 20,35.3431458 20,37 C20,37.7740131 20.2930012,38.4994984 20.8119542,39.0524452 L21.2062798,39.4726011 L18.3445104,49 L27.6549083,49 L24.7897778,39.475724 L25.1854085,39.0552518 C25.7059754,38.5019987 26,37.7753514 26,37 C26,35.3431458 24.6568542,34 23,34 Z M23,2 C14.1700351,2 7,9.38091851 7,18.5 L7,26 L12,26 L12,18.8 C12,12.2994986 16.9069432,7 23,7 C29.0930568,7 34,12.2994986 34,18.8 L34,26 L39,26 L39,18.5 C39,9.38091851 31.8299649,2 23,2 Z M23,9 C18.0473618,9 14,13.3711508 14,18.8 L14,26 L32,26 L32,18.8 C32,13.3711508 27.9526382,9 23,9 Z" id="path-1"></path>
    </defs>
    <g id="Icons/70px/padlock-70" stroke="none" stroke-width="1" fill="none" fill-rule="evenodd">
        <g>
            <rect id="invisible-70" x="0" y="0" width="70" height="70"></rect>
            <g id="outlines" transform="translate(12.000000, 6.000000)">
                <mask id="mask-2" fill="white">
                    <use xlink:href="#path-1"></use>
                </mask>
                <use id="Combined-Shape" fill="#FF0000" fill-rule="nonzero" xlink:href="#path-1"></use>
            </g>
        </g>
    </g>
</svg>