<?xml version="1.0" encoding="UTF-8"?>
<svg width="70px" height="70px" viewBox="0 0 70 70" version="1.1" xmlns="http://www.w3.org/2000/svg" xmlns:xlink="http://www.w3.org/1999/xlink">
    <!-- Generator: Sketch 61.1 (89650) - https://sketch.com -->
    <title>Icons/70px/parasol-70</title>
    <desc>Created with Sketch.</desc>
    <g id="Icons/70px/parasol-70" stroke="none" stroke-width="1" fill="none" fill-rule="evenodd">
        <g id="Icons/70px/wallet-minus-70" transform="translate(7.000000, 11.000000)"></g>
        <g>
            <g>
                <rect id="invisible-70" x="0" y="0" width="70" height="70"></rect>
                <g id="outlines" transform="translate(8.000000, 9.000000)" fill="#FF0000" fill-rule="nonzero">
                    <path d="M34,44 C37.1355425,44 39.8036769,45.0190146 41.9518279,47.0449487 L42.2071068,47.2928932 C43.9266825,49.012469 47.0312342,49.9391053 51.5440258,49.9970989 L52,50 L52,52 C46.9190369,52 43.2442963,50.9940651 40.9991835,48.9060324 L40.7928932,48.7071068 C38.9836202,46.8978338 36.7390358,46 34,46 C31.3800528,46 29.2124957,46.8214585 27.4455725,48.4762824 L27.2071068,48.7071068 C25.1006385,50.8135751 22.472084,51.9136077 19.3740182,51.9951095 L19,52 L1,52 L1,50 L19,50 C21.6199472,50 23.7875043,49.1785415 25.5544275,47.5237176 L25.7928932,47.2928932 C27.9836202,45.1021662 30.7390358,44 34,44 Z M16.9985762,15.6347982 C17.3087001,15.4550673 17.6912999,15.4550673 18.0014238,15.6347982 L18.0014238,15.6347982 L32.5602473,24.0722982 C32.7580933,24.1869589 32.910666,24.3659631 32.9925356,24.5794753 L32.9925356,24.5794753 L34.9337121,29.6419753 C35.1848106,30.2968288 34.7013441,31 34,31 L34,31 L29.5,31 C29.3447549,31 29.1916418,30.9638549 29.0527864,30.8944272 L29.0527864,30.8944272 L26.5,29.618 L23.9472136,30.8944272 C23.843072,30.946498 23.7309105,30.9798473 23.6158446,30.9932675 L23.6158446,30.9932675 L23.5,31 L20.5,31 C20.3447549,31 20.1916418,30.9638549 20.0527864,30.8944272 L20.0527864,30.8944272 L18.4990676,30.118 L18.5,48 L16.5,48 L16.4990676,30.118 L14.9472136,30.8944272 C14.8777859,30.929141 14.8047938,30.9555343 14.7297529,30.973249 L14.6158446,30.9932675 L14.5,31 L11.5,31 C11.3447549,31 11.1916418,30.9638549 11.0527864,30.8944272 L11.0527864,30.8944272 L8.5,29.618 L5.9472136,30.8944272 C5.84307202,30.946498 5.73091053,30.9798473 5.6158446,30.9932675 L5.6158446,30.9932675 L5.5,31 L1,31 C0.298655865,31 -0.184810636,30.2968288 0.0662878811,29.6419753 L0.0662878811,29.6419753 L2.00746435,24.5794753 C2.08933397,24.3659631 2.24190673,24.1869589 2.43975269,24.0722982 L2.43975269,24.0722982 Z M13.7540676,19.826 L3.748,25.625 L2.454,29 L5.262,29 L7.84106759,27.71 L13.7540676,19.826 Z M18.4990676,19.5 L18.5,23 L16.5,23 L16.4990676,19.5 L10.0180676,28.141 L11.737,29 L14.262,29 L16.4990676,27.881 L16.5,25 L18.5,25 L18.4990676,27.881 L20.737,29 L23.262,29 L24.9800676,28.141 L18.4990676,19.5 Z M21.2440676,19.826 L27.1560676,27.71 L29.737,29 L32.545,29 L31.251,25.625 L21.2440676,19.826 Z M42.5,19.5 L42.5,24 L40.5,24 L40.5,19.5 L42.5,19.5 Z M47.5104076,16.5961941 L50.6923882,19.7781746 L49.2781746,21.1923882 L46.0961941,18.0104076 L47.5104076,16.5961941 Z M35.4895924,16.5961941 L36.9038059,18.0104076 L33.7218254,21.1923882 L32.3076118,19.7781746 L35.4895924,16.5961941 Z M41.5,6.5 C44.5375661,6.5 47,8.96243388 47,12 C47,15.0375661 44.5375661,17.5 41.5,17.5 C38.4624339,17.5 36,15.0375661 36,12 C36,8.96243388 38.4624339,6.5 41.5,6.5 Z M41.5,8.5 C39.5670034,8.5 38,10.0670034 38,12 C38,13.9329966 39.5670034,15.5 41.5,15.5 C43.4329966,15.5 45,13.9329966 45,12 C45,10.0670034 43.4329966,8.5 41.5,8.5 Z M34,11 L34,13 L29.5,13 L29.5,11 L34,11 Z M53.5,11 L53.5,13 L49,13 L49,11 L53.5,11 Z M33.7218254,2.80761184 L36.9038059,5.98959236 L35.4895924,7.40380592 L32.3076118,4.22182541 L33.7218254,2.80761184 Z M49.2781746,2.80761184 L50.6923882,4.22182541 L47.5104076,7.40380592 L46.0961941,5.98959236 L49.2781746,2.80761184 Z M42.5,0 L42.5,4.5 L40.5,4.5 L40.5,0 L42.5,0 Z" id="Combined-Shape"></path>
                </g>
            </g>
        </g>
    </g>
</svg>