<?xml version="1.0" encoding="UTF-8"?>
<svg width="70px" height="70px" viewBox="0 0 70 70" version="1.1" xmlns="http://www.w3.org/2000/svg" xmlns:xlink="http://www.w3.org/1999/xlink">
    <!-- Generator: Sketch 58 (84663) - https://sketch.com -->
    <title>Icons/70px/snailmail-70</title>
    <desc>Created with Sketch.</desc>
    <g id="Icons/70px/snailmail-70" stroke="none" stroke-width="1" fill="none" fill-rule="evenodd">
        <g id="invisible-70">
            <rect x="0" y="0" width="70" height="70"></rect>
        </g>
        <g id="Icons/70px/pension-mc-70">
            <g transform="translate(-163.000000, 0.000000)">
                <rect id="invisible-70x70" x="163" y="0" width="70" height="70"></rect>
                <g id="lines" transform="translate(0.000000, 8.000000)">
                    <path d="M176.571429,39 L168,54 L228,54 L219.428571,39 L176.571429,39 Z M177.732074,41 L218.267926,41 L224.553641,52 L171.446359,52 L177.732074,41 Z" id="bottom" fill="#FF0000" fill-rule="nonzero"></path>
                    <path d="M186.005808,22 L177.375,37 L218.625,37 L209.994192,22 L186.005808,22 Z M208.837526,24 L215.166785,35 L180.833215,35 L187.162474,24 L208.837526,24 Z" id="middle" fill="#FF0000" fill-rule="nonzero"></path>
                    <path d="M198,0 L186.75,20 L209.25,20 L198,0 Z M205.830305,18 L190.169695,18 L198,4.07945772 L205.830305,18 Z" id="top" fill="#FF0000" fill-rule="nonzero"></path>
                    <g id="lines-occ" transform="translate(0.000000, 1.000000)" stroke-width="2">
                        <path d="M16.9499721,23 L9.8289597,36 L46.402709,36 L39.0615388,23 L16.9499721,23 Z" id="middle" stroke="#E30613"></path>
                        <path d="M28.0028369,2.21640638 L18.8621425,19 L37.2028215,19 L28.0028369,2.21640638 Z" id="top" stroke="#E30613"></path>
                        <path d="M7.73379363,40 L1.69038355,51 L54.2992081,51 L48.1786402,40 L7.73379363,40 Z" id="bottom" stroke="#005AA0"></path>
                    </g>
                </g>
            </g>
        </g>
    </g>
</svg>