<?xml version="1.0" encoding="UTF-8"?>
<svg width="70px" height="70px" viewBox="0 0 70 70" version="1.1" xmlns="http://www.w3.org/2000/svg" xmlns:xlink="http://www.w3.org/1999/xlink">
    <!-- Generator: Sketch 61 (89581) - https://sketch.com -->
    <title>Icons/70px/pin-70</title>
    <desc>Created with Sketch.</desc>
    <g id="Icons/70px/pin-70" stroke="none" stroke-width="1" fill="none" fill-rule="evenodd">
        <g id="outlines">
            <g>
                <rect id="invisible-70" x="0" y="0" width="70" height="70"></rect>
                <path d="M35,6.08520508 C48.7605732,6.08520508 59,15.6160899 59,29.4637942 C59,40.959111 51.1350892,51.7974318 35.5475001,61.9959853 L35.541,61.9992051 L53,62 L53,64 L17,64 L17,62 L34.458,61.9992051 L34.4527908,61.9961756 C18.8650366,51.8052498 11,40.9667555 11,29.4637942 C11,15.6160899 21.2394268,6.08520508 35,6.08520508 Z M35,8.08520508 C22.3132236,8.08520508 13,16.7539775 13,29.4637942 C13,40.0417802 20.287537,50.213242 34.9997944,59.9618907 C49.7122985,50.2058962 57,40.0343283 57,29.4637942 C57,16.7539775 47.6867764,8.08520508 35,8.08520508 Z M35,23 C38.8659932,23 42,26.1340068 42,30 L40,30 C40,27.2385763 37.7614237,25 35,25 C32.2385763,25 30,27.2385763 30,30 C30,32.7614237 32.2385763,35 35,35 L35,37 C31.1340068,37 28,33.8659932 28,30 C28,26.1340068 31.1340068,23 35,23 Z" id="Combined-Shape" fill="#FF0000" fill-rule="nonzero"></path>
            </g>
        </g>
    </g>
</svg>