<?xml version="1.0" encoding="UTF-8"?>
<svg width="70px" height="70px" viewBox="0 0 70 70" version="1.1" xmlns="http://www.w3.org/2000/svg" xmlns:xlink="http://www.w3.org/1999/xlink">
    <!-- Generator: Sketch 63.1 (92452) - https://sketch.com -->
    <title>Icons/70px/pregnant-70</title>
    <desc>Created with Sketch.</desc>
    <g id="Icons/70px/pregnant-70" stroke="none" stroke-width="1" fill="none" fill-rule="evenodd">
        <g>
            <rect id="invisible-70" x="0" y="0" width="70" height="70"></rect>
            <g id="lines" transform="translate(16.000000, 6.000000)" fill="#FF0000" fill-rule="nonzero">
                <path d="M19,0 C22.1340446,0 25.0560618,1.31966183 27.122722,3.58220139 L27.3408476,3.82820713 L25.8249446,5.13282893 C24.1246003,3.15711696 21.657252,2 19,2 C14.0295869,2 10,6.02943158 10,11 C10,14.0437325 11.5112818,16.7347804 13.8243264,18.3636246 L13.8659726,18.3475141 L13.8860108,18.4066793 C15.3383484,19.4114094 17.1004951,20 19,20 C23.9705684,20 28,15.9704131 28,11 C28,10.1132973 27.8720451,9.24519096 27.630271,8.43359233 L27.601,8.344 L21.3076923,8.34475829 C18.9405704,8.34475829 17.1525605,7.70499651 15.8998225,6.60860661 L15.7159209,6.4407463 C14.9923706,5.75202182 14.5898161,5.04626669 14.4102793,4.49270702 L14.3667704,4.34563678 L16.2993008,3.83053828 C16.3638031,4.07253592 16.6011643,4.52218378 17.0948416,4.99209951 C17.9250604,5.78235831 19.176225,6.28644428 20.9830461,6.34001476 L21.3076923,6.34475829 L28.9966756,6.34475829 L29.3998414,7.40797794 C29.7956035,8.55399999 30,9.76366807 30,11 C30,13.8100489 28.9462619,16.3740543 27.212357,18.3183886 C30.5301384,19.3988598 32.8835619,22.2526728 32.9958039,25.7388007 L33,26 L33,41 C33,43.8431304 30.2944085,45.9001264 27.2251918,45.9964668 L27,46 L16,46 C13.7942611,46 11.9590126,44.1806574 12.0001677,41.9816853 C12.038609,39.8831079 13.7317917,38.1138059 15.798839,38.0052739 L16,38 L25,38 L25,28 L27,28 L27,40 L16,40 C14.9444213,40 14.0197478,40.9310895 13.9998249,42.0187123 C13.9807486,43.037987 14.8194784,43.9166378 15.851348,43.9944093 L16,44 L27,44 C29.0937643,44 30.8773621,42.7399141 30.9939422,41.1641025 L31,41 L31,26 C31,22.9993685 28.7727899,20.565413 25.6691255,19.9835099 L25.4223031,19.9414414 L25.4252011,19.9293941 C23.6176018,21.2323651 21.3984468,22 19,22 C17.0616083,22 15.240262,21.4985272 13.6586274,20.618248 C11.6692985,21.6764688 10.3444381,23.7266217 10.2529319,26.0419971 L10.2478687,26.2985458 L10.2471743,30.6333804 C11.2800054,30.3413084 12.365085,30.1736876 13.4851903,30.1477422 L13.7920479,30.1441917 L13.7920479,32.1441917 C7.71689195,32.1441917 2.79204792,37.0691439 2.79204792,43.1441917 C2.79204792,45.8980917 3.80572175,48.490519 5.60929795,50.4961159 C7.60921113,52.7205608 10.4191837,54.0471569 13.4539557,54.1390765 L13.7920479,54.1441917 L13.7920479,56.1441917 C12.4855627,56.1441917 11.2100335,55.9502749 9.99883747,55.5816128 L10,58 L8,58 L7.99890752,54.7855866 C6.54380888,54.0608074 5.22759949,53.0629824 4.12209354,51.8333605 C1.99146004,49.4640723 0.792047917,46.3966272 0.792047917,43.1441917 C0.792047917,37.9479748 3.84075625,33.4637272 8.2470628,31.3827044 L8.24786875,26.2985458 C8.24786875,23.473556 9.64967296,20.9152957 11.8664584,19.3730539 C9.50050941,17.3558329 8,14.3530284 8,11 C8,4.92484481 12.9250347,0 19,0 Z M29,48 L29,58 L27,58 L27,48 L29,48 Z M21.6860807,14.2928932 L23.1002943,15.7071068 C21.9186255,16.8887755 20.3380826,17.5285417 18.6968958,17.5285417 C17.1517654,17.5285417 15.6607902,16.9618885 14.5055063,15.910002 L14.2928932,15.7071068 L15.7071068,14.2928932 C16.5095579,15.0953443 17.5799008,15.5285417 18.6968958,15.5285417 C19.7336012,15.5285417 20.7305361,15.15498 21.5101167,14.4591634 L21.6860807,14.2928932 Z" id="Combined-Shape"></path>
            </g>
        </g>
    </g>
</svg>