<?xml version="1.0" encoding="UTF-8"?>
<svg width="70px" height="70px" viewBox="0 0 70 70" version="1.1" xmlns="http://www.w3.org/2000/svg" xmlns:xlink="http://www.w3.org/1999/xlink">
    <!-- Generator: Sketch 61 (89581) - https://sketch.com -->
    <title>Icons/70px/radio-enclosed-70</title>
    <desc>Created with Sketch.</desc>
    <defs>
        <path d="M35,6 C51.0162577,6 64,18.9837423 64,35 C64,51.0162577 51.0162577,64 35,64 C18.9837423,64 6,51.0162577 6,35 C6,18.9837423 18.9837423,6 35,6 Z M35,8 C20.0883118,8 8,20.0883118 8,35 C8,49.9116882 20.0883118,62 35,62 C49.9116882,62 62,49.9116882 62,35 C62,20.0883118 49.9116882,8 35,8 Z M35,30 C37.7614237,30 40,32.2385763 40,35 C40,37.7614237 37.7614237,40 35,40 C32.2385763,40 30,37.7614237 30,35 C30,32.2385763 32.2385763,30 35,30 Z" id="path-1"></path>
    </defs>
    <g id="Icons/70px/radio-enclosed-70" stroke="none" stroke-width="1" fill="none" fill-rule="evenodd">
        <g id="outlines">
            <g>
                <rect id="invisible-70" x="0" y="0" width="70" height="70"></rect>
                <mask id="mask-2" fill="white">
                    <use xlink:href="#path-1"></use>
                </mask>
                <use id="Combined-Shape" fill="#FF0000" fill-rule="nonzero" xlink:href="#path-1"></use>
            </g>
        </g>
    </g>
</svg>