<?xml version="1.0" encoding="UTF-8"?>
<svg width="70px" height="70px" viewBox="0 0 70 70" version="1.1" xmlns="http://www.w3.org/2000/svg" xmlns:xlink="http://www.w3.org/1999/xlink">
    <!-- Generator: Sketch 61 (89581) - https://sketch.com -->
    <title>Icons/70px/phone-70</title>
    <desc>Created with Sketch.</desc>
    <defs>
        <path d="M12.688946,0.896906868 C14.2812454,0.896906868 15.7952351,1.56254025 17.0612437,2.8154972 C17.6268145,3.33756259 20.0370164,5.74776451 24.2918494,10.0461029 C27.0326927,12.7869463 27.0326927,16.336991 24.2918494,19.0778343 C23.9264036,19.4432801 21.2377668,22.1841234 20.1675328,23.162996 C19.514951,24.2019061 23.5218742,30.6849013 26.8878573,33.6043039 C30.2538403,36.5237065 36.170991,40.2754396 36.7300575,39.7255207 L40.8543741,35.6142557 C42.1725892,34.2960406 43.7126821,33.6043039 45.3180332,33.6043039 C46.936436,33.6043039 48.4634772,34.3090922 49.7294858,35.6273073 L56.8948334,42.8187582 C58.2130485,44.1239217 58.9047852,45.6770662 58.9047852,47.2954689 C58.9047852,48.90082 58.2261001,50.4670162 56.9339883,51.8113346 C56.372768,52.3986582 52.9140847,55.8964963 52.9010331,55.9225996 C50.9171846,58.0761194 48.3851674,59.1594051 45.3702398,59.1594051 C45.1092071,59.1594051 44.8220711,59.1463534 44.5479868,59.1333018 C40.071276,58.8461658 36.0644241,57.1625049 33.0625481,55.7398767 C25.2054638,51.941851 18.3272523,46.5515257 12.6106362,39.7255207 C7.89899597,34.0611111 4.74050033,28.775199 2.62613547,23.0716346 C1.76472757,20.7484435 0.64228697,17.1983989 0.955526208,13.3873215 C1.16435237,11.0249755 2.11712171,8.98892051 3.78773098,7.31831124 C6.75480265,4.3251363 8.24268903,2.82419829 8.25139012,2.8154972 C9.55655361,1.56254025 11.0966465,0.896906868 12.688946,0.896906868 Z M12.688946,2.89690687 C11.6321706,2.89690687 10.5813115,3.35120838 9.66560368,4.22971076 C9.66050501,4.23480943 7.99969648,5.91018646 5.20194454,8.7325248 C3.86149444,10.0729749 3.11499971,11.6715033 2.94880475,13.5511526 C2.71681232,16.3737272 3.29959926,19.1351569 4.50142585,22.3764468 C6.53970404,27.8747651 9.58976028,32.9662691 14.1439501,38.4414069 C19.683854,45.0564062 26.3380991,50.2679449 33.9190585,53.9325611 C37.9791886,55.8567096 41.2084541,56.9149946 44.6431171,57.1355655 C45.0043782,57.1527684 45.1924162,57.1594051 45.3702398,57.1594051 C47.8303915,57.1594051 49.8223427,56.3066775 51.4189651,54.5795437 C51.5694277,54.4212891 51.5694277,54.4212891 51.6506666,54.3380637 C51.7592829,54.226912 51.9139644,54.0692724 52.1209146,53.8587666 C52.4009814,53.5738879 52.762859,53.2063149 53.5304725,52.4267198 C54.4550946,51.4874468 55.0341957,50.8977461 55.3320455,50.5911205 L44.8625698,40.1213987 L46.2767834,38.7071851 L56.5252507,48.953284 C56.7785275,48.4085596 56.9047852,47.8512733 56.9047852,47.2954689 C56.9047852,46.2261833 56.4352095,45.1781448 55.4780509,44.2303981 L48.3127033,37.0389473 C47.3822992,36.0706637 46.3670183,35.6043039 45.3180332,35.6043039 C44.2648468,35.6043039 43.2246762,36.0723807 42.2663447,37.0307087 L38.132558,41.151351 C37.0590423,42.2073016 36.2643863,42.0079552 34.5841436,41.2240855 C33.8260712,40.8704282 32.8695289,40.3309734 31.7997475,39.6607746 C29.6508159,38.3145076 27.2746604,36.5872422 25.5774279,35.1151894 C23.8354229,33.6043043 21.8807292,31.1934165 20.3314797,28.7491765 C18.3577795,25.6352836 17.5132452,23.6285878 18.4739311,22.0991758 L18.6179382,21.8699166 L18.8177143,21.6871945 C19.1862238,21.3501431 19.8111742,20.7413938 20.6199555,19.9356289 C21.1986007,19.3585457 22.2492896,18.2991703 22.6873684,17.8565366 L11.3006144,6.71474454 L12.6993856,5.28525546 L23.9208721,16.2636569 C24.732782,14.6671633 24.383734,12.9664062 22.8704609,11.4531049 C18.6566411,7.19619906 16.2358979,4.77545589 15.6543765,4.23701921 C14.7506495,3.34260896 13.7354392,2.89690687 12.688946,2.89690687 Z" id="path-1"></path>
    </defs>
    <g id="Icons/70px/phone-70" stroke="none" stroke-width="1" fill="none" fill-rule="evenodd">
        <g>
            <rect id="invisible-70" x="0" y="0" width="70" height="70"></rect>
            <g id="outlines" transform="translate(5.000000, 5.000000)">
                <mask id="mask-2" fill="white">
                    <use xlink:href="#path-1"></use>
                </mask>
                <use id="Combined-Shape" fill="#FF0000" fill-rule="nonzero" xlink:href="#path-1"></use>
            </g>
        </g>
    </g>
</svg>