<?xml version="1.0" encoding="UTF-8"?>
<svg width="70px" height="70px" viewBox="0 0 70 70" version="1.1" xmlns="http://www.w3.org/2000/svg" xmlns:xlink="http://www.w3.org/1999/xlink">
    <!-- Generator: Sketch 63.1 (92452) - https://sketch.com -->
    <title>Icons/70px/RV-70</title>
    <desc>Created with Sketch.</desc>
    <g id="Icons/70px/RV-70" stroke="none" stroke-width="1" fill="none" fill-rule="evenodd">
        <g>
            <rect id="invisible-70" x="0" y="0" width="70" height="70"></rect>
            <g id="lines" transform="translate(5.000000, 20.000000)" fill="#FF0000" fill-rule="nonzero">
                <path d="M20.9998218,20 C23.2090358,20 25,21.7908578 25,24 C25,24.6196999 24.8583789,25.2210706 24.5895616,25.7669511 C23.9210099,27.1224773 22.5387233,28 20.9998218,28 C18.7908907,28 17,26.2090687 17,24 C17,21.7909313 18.7908907,20 20.9998218,20 Z M44.9998218,20 C47.2090358,20 49,21.7908578 49,24 C49,24.6194772 48.8581419,25.2208278 48.5893329,25.766692 C47.9212075,27.122341 46.538839,28 44.9998218,28 C42.7908907,28 41,26.2090687 41,24 C41,21.7909313 42.7908907,20 44.9998218,20 Z M20.9998218,22 C19.8954704,22 19,22.8954907 19,24 C19,25.1045093 19.8954704,26 20.9998218,26 C21.7698982,26 22.4609764,25.5612799 22.7955886,24.8828353 C22.9295201,24.6108639 23,24.3115827 23,24 C23,22.8954539 22.1044929,22 20.9998218,22 Z M44.9998218,22 C43.8954704,22 43,22.8954907 43,24 C43,25.1045093 43.8954704,26 44.9998218,26 C45.7698858,26 46.4608484,25.5613112 46.7952322,24.8828353 C46.9293956,24.6103928 47,24.3110936 47,24 C47,22.8954539 46.1044929,22 44.9998218,22 Z M52.6930005,0 L59.1011847,17.0884912 L54.5803225,25 L50,25 L50,23 L53.418,23 L56.898,16.911 L51.306,2 L6.792,2 L3.26165916,17 L9,17 L9,19 L3.61765916,19 L5.618,23 L16,23 L16,25 L4.38196601,25 L0.943659156,18.1233863 L5.20798534,0 L52.6930005,0 Z M40,23 L40,25 L26,25 L26,23 L40,23 Z M37,5 L37,21 L35,21 L35,7 L30,7 L30,21 L28,21 L28,5 L37,5 Z M48.7543014,5 L51.32573,14 L42,14 L42,5 L48.7543014,5 Z M47.245,7 L44,7 L44,12 L48.674,12 L47.245,7 Z M21,5 L21,12 L9,12 L9,5 L21,5 Z M19,7 L11,7 L11,10 L19,10 L19,7 Z" id="Combined-Shape"></path>
            </g>
        </g>
    </g>
</svg>