<?xml version="1.0" encoding="UTF-8"?>
<svg width="70px" height="70px" viewBox="0 0 70 70" version="1.1" xmlns="http://www.w3.org/2000/svg" xmlns:xlink="http://www.w3.org/1999/xlink">
    <!-- Generator: Sketch 61 (89581) - https://sketch.com -->
    <title>Icons/70px/save-70</title>
    <desc>Created with Sketch.</desc>
    <defs>
        <path d="M44.2892628,10.7363081 L41.8262491,22.386613 C43.2489717,25.1324232 44,28.1590176 44,31.2857143 C44,35.8903507 42.3684701,40.254008 39.4138155,43.8078226 L41.9139157,58.0008377 L30.9020744,57.9930996 L28.3790893,50.8035711 C26.4832768,51.3109623 24.5098856,51.5714286 22.5,51.5714286 C20.5148488,51.5714286 18.5681609,51.3173669 16.6868354,50.8195711 L14.0904508,57.9935976 L3.08822427,57.9935976 L5.56649535,43.7874803 C2.62869542,40.2503495 1,35.8857718 1,31.2857143 C1,28.1467768 1.75692886,25.1088048 3.19033435,22.3546762 L0.709124052,10.744596 L13.1041377,13.0345038 C16.0059737,11.7022801 19.2008277,11 22.5,11 C25.8364907,11 29.0660754,11.7182833 31.9933485,13.079545 L44.2892628,10.7363081 Z M22.5,13 C19.3866983,13 16.3803512,13.6842455 13.66844,14.9785811 L13.3753707,15.1184567 L3.29087595,13.255404 L5.2998216,22.6556633 L5.12268058,22.9808649 C3.73372799,25.5307521 3,28.3581019 3,31.2857143 C3,35.5551447 4.56449645,39.5990521 7.38646989,42.8405802 L7.69921741,43.1998252 L5.46733129,55.9935976 L12.687327,55.9935976 L15.4492188,48.362261 L16.3611376,48.6454415 C18.3331445,49.257814 20.3913387,49.5714286 22.5,49.5714286 C24.6368891,49.5714286 26.7258333,49.2493152 28.7088726,48.6250955 L29.6321886,48.3344547 L32.3201478,55.9940956 L39.5305287,55.9991623 L37.2797035,43.2212763 L37.5933408,42.8612242 C40.4331721,39.6011295 42,35.5588466 42,31.2857143 C42,28.369787 41.2721287,25.553273 39.8937843,23.0111614 L39.7183929,22.6876831 L41.7107372,13.2636919 L31.7221958,15.1672118 L31.424472,15.0232211 C28.6888179,13.7001531 25.6492201,13 22.5,13 Z M22,29 C25.8659932,29 29,32.1340068 29,36 C29,39.8659932 25.8659932,43 22,43 C18.1340068,43 15,39.8659932 15,36 C15,32.1340068 18.1340068,29 22,29 Z M22,31 C19.2385763,31 17,33.2385763 17,36 C17,38.7614237 19.2385763,41 22,41 C24.7614237,41 27,38.7614237 27,36 C27,33.2385763 24.7614237,31 22,31 Z M21,35 L21,37 L19,37 L19,35 L21,35 Z M25,35 L25,37 L23,37 L23,35 L25,35 Z M29.9341204,23.0379806 C32.4130663,23.4750857 33.9722562,26.051042 33.4975144,28.7434362 L31.5278989,28.3961398 C31.8203831,26.7373796 30.9151384,25.2418138 29.5868241,25.0075961 C28.2585098,24.7733785 26.8963444,25.8691387 26.6038602,27.5278989 L24.6342447,27.1806026 C25.1089864,24.4882084 27.4551746,22.6008756 29.9341204,23.0379806 Z M19.3657553,27.1806026 L17.3961398,27.5278989 C17.1036556,25.8691387 15.7414902,24.7733785 14.4131759,25.0075961 C13.0848616,25.2418138 12.1796169,26.7373796 12.4721011,28.3961398 L10.5024856,28.7434362 C10.0277438,26.051042 11.5869337,23.4750857 14.0658796,23.0379806 C16.5448254,22.6008756 18.8910136,24.4882084 19.3657553,27.1806026 Z M22.437477,0.192680492 C29.2898333,0.192680492 35.0420353,5.30321461 35.8898777,12.0437314 L33.9055138,12.2933306 C33.1830975,6.54997655 28.2787086,2.19268049 22.437477,2.19268049 C16.6549893,2.19268049 11.7830819,6.46466017 10.9903713,12.1356867 L9.00962871,11.8588135 C9.93998094,5.20310266 15.6540327,0.192680492 22.437477,0.192680492 Z M25.8065,5.93 C26.3278359,5.93 26.8179977,6.02066576 27.277,6.202 C27.7360023,6.38333424 28.1354983,6.64966491 28.4755,7.001 C28.8155017,7.35233509 29.0846657,7.77733084 29.283,8.276 C29.4813343,8.77466916 29.5805,9.34699677 29.5805,9.993 L29.5805,11.5152944 C28.8627699,11.3000107 28.1378675,11.0911346 27.3117233,10.9727058 L27.277,9.90233456 C27.2493164,9.27754143 27.1361254,8.12561676 25.8065,8.12561676 C24.9166387,8.08783872 24.3194172,8.50624224 24.2623216,9.7666211 L24.2778957,10.5232212 C23.567357,10.4380331 22.8174725,10.3918945 22.0108443,10.4020726 L22.0155,9.993 C22.0155,9.34699677 22.1146657,8.77466916 22.313,8.276 C22.5113343,7.77733084 22.7833316,7.35233509 23.129,7.001 C23.4746684,6.64966491 23.8769977,6.38333424 24.336,6.202 C24.7950023,6.02066576 25.2851641,5.93 25.8065,5.93 Z M19.1595,6.1 L19.1595,10.6037027 C18.371979,10.6730581 17.6008856,10.800941 16.8475,10.9919133 L16.8475,8.089 L15.4195,8.089 L15.4195,6.1 L19.1595,6.1 Z" id="path-1"></path>
    </defs>
    <g id="Icons/70px/save-70" stroke="none" stroke-width="1" fill="none" fill-rule="evenodd">
        <g>
            <rect id="invisible-70" x="0" y="0" width="70" height="70"></rect>
            <g id="outlines" transform="translate(13.000000, 6.000000)">
                <mask id="mask-2" fill="white">
                    <use xlink:href="#path-1"></use>
                </mask>
                <use id="Combined-Shape" fill="#FF0000" fill-rule="nonzero" xlink:href="#path-1"></use>
            </g>
        </g>
    </g>
</svg>