<?xml version="1.0" encoding="UTF-8"?>
<svg width="70px" height="70px" viewBox="0 0 70 70" version="1.1" xmlns="http://www.w3.org/2000/svg" xmlns:xlink="http://www.w3.org/1999/xlink">
    <!-- Generator: Sketch 61.2 (89653) - https://sketch.com -->
    <title>Icons/70px/shield-70</title>
    <desc>Created with Sketch.</desc>
    <defs>
        <path d="M9.75481103,2 C8.86362839,5.6560041 5.6560041,8.86362839 2,9.75481103 L2,26 C2,34.2197307 8.53033441,41.5070278 22,47.7979628 C35.4696656,41.5070278 42,34.2197307 42,26 L42,9.75481103 C38.3439959,8.86362839 35.1363716,5.6560041 34.245189,2 L9.75481103,2 Z M36,0 C36,4 40,8 44,8 L44,26 C44,35.3333333 36.6666667,43.3333333 22,50 C7.33333333,43.3333333 0,35.3333333 0,26 L0,8 C4,8 8,4 8,0 L36,0 Z M28.2928932,15.5365778 L22,21.829 L15.7071068,15.5365778 L14.2928932,16.9507913 L20.585,23.243 L14.2928932,29.5365778 L15.7071068,30.9507913 L22,24.658 L28.2928932,30.9507913 L29.7071068,29.5365778 L23.414,23.243 L29.7071068,16.9507913 L28.2928932,15.5365778 Z" id="path-1"></path>
    </defs>
    <g id="Icons/70px/shield-70" stroke="none" stroke-width="1" fill="none" fill-rule="evenodd">
        <g>
            <rect id="invisible-70" x="0" y="0" width="70" height="70"></rect>
            <g id="outlines" transform="translate(13.000000, 10.000000)">
                <mask id="mask-2" fill="white">
                    <use xlink:href="#path-1"></use>
                </mask>
                <use id="Combined-Shape" fill="#FF0000" fill-rule="nonzero" xlink:href="#path-1"></use>
            </g>
        </g>
    </g>
</svg>