<?xml version="1.0" encoding="UTF-8"?>
<svg width="70px" height="70px" viewBox="0 0 70 70" version="1.1" xmlns="http://www.w3.org/2000/svg" xmlns:xlink="http://www.w3.org/1999/xlink">
    <!-- Generator: Sketch 63.1 (92452) - https://sketch.com -->
    <title>Icons/70px/smalltruck-70</title>
    <desc>Created with Sketch.</desc>
    <g id="Icons/70px/smalltruck-70" stroke="none" stroke-width="1" fill="none" fill-rule="evenodd">
        <g>
            <rect id="invisible-70" x="0" y="0" width="70" height="70"></rect>
            <g id="lines" transform="translate(6.000000, 17.000000)" fill="#FF0000" fill-rule="nonzero">
                <path d="M14.9997569,24 C17.7612046,24 20,26.2386594 20,29 C20,29.7750193 19.8229699,30.5266562 19.4870617,31.208384 C18.6514851,32.9030945 16.9236013,34 14.9997569,34 C12.2387014,34 10,31.7612467 10,29 C10,26.2387533 12.2387014,24 14.9997569,24 Z M44.9997569,24 C47.7612046,24 50,26.2386594 50,29 C50,29.7750193 49.8229699,30.5266562 49.4870617,31.208384 C48.6514851,32.9030945 46.9236013,34 44.9997569,34 C42.2387014,34 40,31.7612467 40,29 C40,26.2387533 42.2387014,24 44.9997569,24 Z M14.9997569,26 C13.3432813,26 12,27.3433124 12,29 C12,30.6566876 13.3432813,32 14.9997569,32 C16.1547406,32 17.1913195,31.3419528 17.6931347,30.3241749 C17.8941567,29.9161994 18,29.4668085 18,29 C18,27.3432561 16.6566623,26 14.9997569,26 Z M44.9997569,26 C43.3432813,26 42,27.3433124 42,29 C42,30.6566876 43.3432813,32 44.9997569,32 C46.1547406,32 47.1913195,31.3419528 47.6931347,30.3241749 C47.8941567,29.9161994 48,29.4668085 48,29 C48,27.3432561 46.6566623,26 44.9997569,26 Z M42,0 L42,23 L3.416,23 L5.206,28.044 L8.63584,28.04448 L8.63584,30.04448 L3.79384045,30.04448 L1.293,23 L0,23 L0,0 L42,0 Z M51.677033,7 L58,22.8074176 L58,30 L51,30 L51,28 L56,28 L56,23.194 L50.323,9 L46,9 L46,7 L51.677033,7 Z M39,28 L39,30 L21,30 L21,28 L39,28 Z M45,7 L45,23 L43,23 L43,7 L45,7 Z M40,2 L2,2 L2,21 L40,21 L40,2 Z M49.6593962,11 L53.516539,20 L46,20 L46,11 L49.6593962,11 Z M21,17 L21,19 L19,19 L19,17 L21,17 Z M32,17 L32,19 L30,19 L30,17 L32,17 Z M10,17 L10,19 L8,19 L8,17 L10,17 Z M48.34,13 L48,13 L48,18 L50.483,18 L48.34,13 Z" id="Combined-Shape"></path>
            </g>
        </g>
    </g>
</svg>