<?xml version="1.0" encoding="UTF-8"?>
<svg width="70px" height="70px" viewBox="0 0 70 70" version="1.1" xmlns="http://www.w3.org/2000/svg" xmlns:xlink="http://www.w3.org/1999/xlink">
    <!-- Generator: Sketch 61 (89581) - https://sketch.com -->
    <title>Icons/70px/snailmail-70</title>
    <desc>Created with Sketch.</desc>
    <g id="Icons/70px/snailmail-70" stroke="none" stroke-width="1" fill="none" fill-rule="evenodd">
        <g>
            <rect id="invisible-70" x="0" y="0" width="70" height="70"></rect>
            <g id="lines" transform="translate(6.000000, 6.000000)" fill="#FF0000" fill-rule="nonzero">
                <path d="M41,-1.36779477e-13 L41,6 L35,6 L35,21.6386056 L33,21.6386056 L33,15 L18.4230493,14.9997113 C20.6031779,16.679655 22,19.2665463 22,22.1682914 L22,22.1682914 L22,48.897 L56,48.897 L56,22.1591263 C56,18.2494879 53.0418589,15.1296504 49.2387739,15.0039385 L49,15 L38,15 L38,13 L49,13 C54.0342983,13 58,17.0755079 58,22.1591263 L58,22.1591263 L58,50.8975093 L32,50.897 L32,57.8975093 L30,57.8975093 L30,50.897 L28,50.897 L28,57.8975093 L26,57.8975093 L26,50.897 L0,50.8975093 L0,48.8975093 L20,48.897 L20,47 L7,47 L7,25 L20,25 L20,22.1682914 C20,18.2896153 16.7356264,15.1306394 12.7451976,15.0058318 L12.5,15.0020013 C8.39897296,15.0020013 5,18.2104587 5,22.1682914 L5,22.1682914 L5,47.0340223 L3,47.0340223 L3,22.1682914 C3,17.2430778 7.0241367,13.2249338 12.0723975,13.0091217 L12.072998,13 L33,13 L33,-1.36779477e-13 L41,-1.36779477e-13 Z M19.8176679,37.2893851 L9,28.153 L9,43.584 L14.2928932,38.2928932 L15.7071068,39.7071068 L10.414,45 L20,45 L20,37.072 L19.8176679,37.2893851 Z M20,27 L10.734,27 L20,34.825 L20,27 Z M39,2 L35,2 L35,4 L39,4 L39,2 Z" id="Combined-Shape"></path>
            </g>
        </g>
    </g>
</svg>