<?xml version="1.0" encoding="UTF-8"?>
<svg width="70px" height="70px" viewBox="0 0 70 70" version="1.1" xmlns="http://www.w3.org/2000/svg" xmlns:xlink="http://www.w3.org/1999/xlink">
    <!-- Generator: Sketch 63.1 (92452) - https://sketch.com -->
    <title>Icons/70px/snowmobile-70</title>
    <desc>Created with Sketch.</desc>
    <g id="Icons/70px/snowmobile-70" stroke="none" stroke-width="1" fill="none" fill-rule="evenodd">
        <g>
            <rect id="invisible-70" x="0" y="0" width="70" height="70"></rect>
            <g id="lines" transform="translate(6.000000, 20.000000)" fill="#FF0000" fill-rule="nonzero">
                <path d="M27.5058329,19 C30.0203715,19 32,21.2661516 32,23.9997329 C32,26.7337487 30.020467,29 27.5058329,29 L27.5058329,29 L4.49416706,29 C1.97986179,29 0,26.7335813 0,23.9997329 C0,21.2663189 1.97995728,19 4.49416706,19 L4.49416706,19 Z M33.7071068,0.292893219 L50.4248363,17.0106227 L46.2088787,21.1024987 C46.1217012,21.1899968 46.0338572,21.2754328 45.9453595,21.3588238 C45.6739754,21.6145476 45.3980537,21.8498565 45.1180571,22.0655737 L50.2732585,26.8857039 C50.6766994,26.812512 50.9483613,26.696556 51.2259226,26.5172657 C51.7024762,26.2094367 54.5718489,23.1559296 55.7761861,21.8575892 L56.28,21.309 L57.7210324,22.6929014 C57.3891745,23.0382323 57.0725637,23.3717826 56.7571618,23.7079678 L55.8005443,24.7388438 C55.5700998,24.9896169 54.6243337,26.0261411 54.4010808,26.267731 L54.0147748,26.6810086 C53.2883097,27.447438 52.8218246,27.867361 52.3111099,28.1972564 C51.3595577,28.8119099 50.5560467,28.9733586 48.5934202,28.9967889 L48,29 L36,29 L36,27 L47.466,26.9998932 L43.3499101,23.1517533 C42.876745,23.374733 42.3955229,23.5515713 41.9081588,23.6856743 C41.0583597,23.919505 40.3708642,23.9972767 39.5758113,24.0031046 L32.9985274,23.9999989 L33.0014726,22.0000011 L39.2590016,22.0016876 C41.0926005,22.0303862 42.64428,21.6266103 44.3413998,20.1161338 L44.6472504,19.8332378 L44.8039896,19.6791202 L47.574,16.989 L38.494,7.90889322 L32.08771,14 L8.45990315,14 C6.88433735,14 6.38689469,14.1785243 6.07214524,15.1605181 L5.56232901,16.977342 L3.63544579,16.4415052 L4.10882333,14.744408 C4.71989697,12.6034201 5.9372134,12.0371787 8.21993971,12.0018081 L31.288,12 L31.785,11.5268932 L30.528,10 L27,10 L27,8 L31.4719571,8 L33.239,10.1458932 L37.08,6.49489322 L32.2928932,1.70710678 L33.7071068,0.292893219 Z M27.5058329,21 L4.49416706,21 C3.14912275,21 2,22.3153206 2,23.9997329 C2,25.6846139 3.14907392,27 4.49416706,27 L4.49416706,27 L27.5058329,27 C28.8512082,27 30,25.6848156 30,23.9997329 C30,22.315119 28.8511594,21 27.5058329,21 L27.5058329,21 Z M26,16 L26,18 L8,18 L8,16 L26,16 Z M47.7071068,9.29289322 L50.7071068,12.2928932 L49.2928932,13.7071068 L46.2928932,10.7071068 L47.7071068,9.29289322 Z" id="Combined-Shape"></path>
            </g>
        </g>
    </g>
</svg>