<?xml version="1.0" encoding="UTF-8"?>
<svg width="70px" height="70px" viewBox="0 0 70 70" version="1.1" xmlns="http://www.w3.org/2000/svg" xmlns:xlink="http://www.w3.org/1999/xlink">
    <!-- Generator: Sketch 61 (89581) - https://sketch.com -->
    <title>Icons/70px/sustainability-70</title>
    <desc>Created with Sketch.</desc>
    <g id="Icons/70px/sustainability-70" stroke="none" stroke-width="1" fill="none" fill-rule="evenodd">
        <g>
            <rect id="invisible-70" x="0" y="0" width="70" height="70"></rect>
            <g id="outlines" transform="translate(10.000000, 6.000000)" fill="#FF0000" fill-rule="nonzero">
                <path d="M49.116459,0.546623916 L49.35466,1.81549636 C51.1231277,11.2359414 51.6721336,19.3285397 50.9950372,26.0995037 C50.096504,35.0848353 44.4569237,39 36.9746257,39 C33.8003039,39 31.0725174,38.0281716 28.8350192,36.0949863 L14.8374668,57.5464882 L13.1625332,56.4535118 L19.8878024,46.1466239 L9.17595808,30.5665288 L10.8240419,29.4334712 L14.5399537,34.8363667 C17.2936739,32.1235125 17.9678471,30.0864012 15.7504566,26.9274706 C13.8098253,24.1628158 9.35758968,22.1970006 2.37500861,21.1334882 C1.53725899,27.7852447 2.1109777,32.5188029 4.01739992,35.3196736 C5.1821196,37.0308524 6.92977883,37.4458097 9.54878145,36.5269754 L10.2108837,38.4142011 C6.79384319,39.6130139 4.08209715,38.9691476 2.36404942,36.4450323 C0.022000897,33.0041497 -0.559545791,27.4809439 0.528482467,19.8586888 L0.668817559,18.8755619 L1.6528936,19.0090791 C9.70693272,20.1018329 14.9589365,22.3187484 17.3874244,25.7784118 C19.0893679,28.2030281 19.3946228,30.5223402 18.544235,32.6760756 C17.9776038,34.1111548 17.1869506,35.0767438 15.6902197,36.5074954 L21.0688024,44.3346239 L31.2208024,28.7786239 L28.0429756,18.2900074 L29.9570244,17.7099926 L32.6478024,26.5916239 L39.5154743,16.0688965 L41.190408,17.1618728 L34.5268024,27.3726239 L43.7398852,24.8915652 L44.2601148,26.8227206 L32.8868024,29.8866239 L29.9410523,34.4029675 C31.8495969,36.1381949 34.1779417,37 36.9746257,37 C43.5213268,37 48.2212985,33.7371396 49.0049628,25.9004963 C49.6308885,19.6412399 49.1717692,12.1583344 47.621843,3.45717059 C37.3422061,8.29781683 30.6404407,11.764543 27.5566279,13.830762 C22.5638349,17.1760375 20.6646263,25.0992551 24.6581303,29.1128516 L23.2403724,30.523512 C18.2550718,25.5131288 20.4989145,16.1521488 26.4433721,12.169238 C29.7563291,9.94948773 36.9094295,6.26781372 47.9474463,1.09451668 L49.116459,0.546623916 Z" id="Combined-Shape"></path>
            </g>
        </g>
    </g>
</svg>