<?xml version="1.0" encoding="UTF-8"?>
<svg width="70px" height="70px" viewBox="0 0 70 70" version="1.1" xmlns="http://www.w3.org/2000/svg" xmlns:xlink="http://www.w3.org/1999/xlink">
    <!-- Generator: Sketch 61 (89581) - https://sketch.com -->
    <title>Icons/70px/tag-70</title>
    <desc>Created with Sketch.</desc>
    <g id="Icons/70px/tag-70" stroke="none" stroke-width="1" fill="none" fill-rule="evenodd">
        <g id="outlines">
            <g>
                <polygon id="invisible-70" points="-8.6458618e-14 7.03603842e-14 70 7.03603842e-14 70 70 -8.6458618e-14 70"></polygon>
                <path d="M8.06260676,40.3666223 L28.8791183,61.1831338 L60.9342175,29.1280346 L61.1847908,18.572612 L50.6731286,8.0609498 L40.117706,8.31152308 L8.06260676,40.3666223 Z M39.2542957,6.29508631 L51.4964968,6.0044709 L63.2412697,17.7492438 L62.9506543,29.9914449 L28.8791183,64.0629809 L5.18275966,40.3666223 L39.2542957,6.29508631 Z M53.3959069,27.2509119 C50.2913194,30.3554995 45.2246361,30.3123021 42.0790373,27.1667033 C38.9334385,24.0211045 38.8902411,18.9544212 41.9948287,15.8498337 C45.0994162,12.7452461 50.1660996,12.7884435 53.3116983,15.9340423 C56.4572971,19.0796411 56.5004945,24.1463244 53.3959069,27.2509119 Z M51.9559834,25.8109884 C54.2597754,23.5071964 54.2275698,19.7297609 51.8717748,17.3739658 C49.5159797,15.0181708 45.7385442,14.9859652 43.4347522,17.2897572 C41.1309602,19.5935492 41.1631658,23.3709847 43.5189608,25.7267798 C45.8747559,28.0825748 49.6521914,28.1147804 51.9559834,25.8109884 Z M50.7856957,24.6407007 C49.0983146,26.3280817 46.3491356,26.3046428 44.6451167,24.6006239 C42.9410978,22.896605 42.9176589,20.147426 44.6050399,18.4600449 C46.292421,16.7726639 49.0416,16.7961028 50.7456189,18.5001217 C52.4496378,20.2041406 52.4730767,22.9533196 50.7856957,24.6407007 Z M49.3457721,23.2007771 C50.2323576,22.3141916 50.2199106,20.8542604 49.3056954,19.9400452 C48.3914802,19.02583 46.931549,19.013383 46.0449635,19.8999685 C45.158378,20.786554 45.170825,22.2464852 46.0850402,23.1607004 C46.9992554,24.0749156 48.4591866,24.0873626 49.3457721,23.2007771 Z" id="Shape" fill="#FF0000" fill-rule="nonzero"></path>
            </g>
        </g>
    </g>
</svg>