<?xml version="1.0" encoding="UTF-8"?>
<svg width="70px" height="70px" viewBox="0 0 70 70" version="1.1" xmlns="http://www.w3.org/2000/svg" xmlns:xlink="http://www.w3.org/1999/xlink">
    <!-- Generator: Sketch 63.1 (92452) - https://sketch.com -->
    <title>Icons/70px/tractor-70</title>
    <desc>Created with Sketch.</desc>
    <g id="Icons/70px/tractor-70" stroke="none" stroke-width="1" fill="none" fill-rule="evenodd">
        <g id="Icons/70px/truck-70">
            <rect id="invisible-70" x="0" y="0" width="70" height="70"></rect>
            <g id="outlines" transform="translate(7.000000, 9.000000)" fill="#FF0000" fill-rule="nonzero">
                <path d="M15,30 C20.5228475,30 25,34.4771525 25,40 C25,45.5228475 20.5228475,50 15,50 C9.4771525,50 5,45.5228475 5,40 C5,34.4771525 9.4771525,30 15,30 Z M46.4773862,36.4 C50.1997854,36.4 53.2173862,39.4176008 53.2173862,43.14 C53.2173862,46.8623992 50.1997854,49.88 46.4773862,49.88 C42.754987,49.88 39.7373862,46.8623992 39.7373862,43.14 C39.7373862,39.4176008 42.754987,36.4 46.4773862,36.4 Z M15,32 C10.581722,32 7,35.581722 7,40 C7,44.418278 10.581722,48 15,48 C19.418278,48 23,44.418278 23,40 C23,35.581722 19.418278,32 15,32 Z M46.4773862,38.4 C43.8595565,38.4 41.7373862,40.5221703 41.7373862,43.14 C41.7373862,45.7578297 43.8595565,47.88 46.4773862,47.88 C49.0952159,47.88 51.2173862,45.7578297 51.2173862,43.14 C51.2173862,40.5221703 49.0952159,38.4 46.4773862,38.4 Z M15,36 C17.209139,36 19,37.790861 19,40 C19,42.209139 17.209139,44 15,44 C12.790861,44 11,42.209139 11,40 C11,37.790861 12.790861,36 15,36 Z M15,38 C13.8954305,38 13,38.8954305 13,40 C13,41.1045695 13.8954305,42 15,42 C16.1045695,42 17,41.1045695 17,40 C17,38.8954305 16.1045695,38 15,38 Z M28.8652098,-6.75015599e-14 L35.2537933,21.64 L40.7477634,21.64 L40.7487575,8.25475117 C40.7487575,8.16287204 40.7388784,8.06070955 40.7205463,7.95765209 L40.6868866,7.80356821 C40.4916409,7.05294324 39.8098106,6.51851852 39.0221045,6.51851852 L39.0221045,6.51851852 L39.0221045,4.51851852 C40.7259712,4.51851852 42.1993479,5.67336446 42.6224794,7.3000995 C42.7033386,7.61096389 42.7487575,7.93985103 42.7487575,8.25475117 L42.7487575,8.25475117 L42.7477634,21.64 L50.2853137,21.64 L50.3853268,33.4386069 C51.2695605,33.7681991 52.1069831,34.2171262 52.8767004,34.7754607 L52.8767004,34.7754607 L51.7023662,36.3943922 C50.2632869,35.3505186 48.5346459,34.78 46.7173862,34.78 C43.0427662,34.78 39.7833839,37.2230669 38.6389494,40.711703 L38.6389494,40.711703 L38.413156,41.4 L35.7373862,41.4 L35.7373862,39.4 L36.9909233,39.4 C38.5861267,35.4725511 42.4120832,32.78 46.7173862,32.78 C47.2797704,32.78 47.8356309,32.8243915 48.3809083,32.9112457 L48.302213,23.64 L33.7589004,23.64 L27.3703169,2 L18.7767634,1.999 L18.7773862,23 L16.7773862,23 L16.7767634,1.999 L7.59998505,2 L5.574013,22.5410233 L7.28656599,28.2237197 C9.56077811,26.7414042 12.2766749,25.88 15.1937634,25.88 C22.8026114,25.88 28.7836275,31.7942652 29.2682735,39.3999628 L29.2682735,39.3999628 L32.7374247,39.3998294 L32.7374247,41.3998294 L27.3,41.4000385 L27.3,40.4 C27.3,33.4047767 22.0086723,27.88 15.1937634,27.88 C8.29020399,27.88 2.69376336,33.4764406 2.69376336,40.38 L2.69376336,40.38 L0.693763365,40.38 C0.693763365,36.0560281 2.58642732,32.1741115 5.58850223,29.5175033 L3.54478431,22.7389767 L5.78754168,-6.75015599e-14 L28.8652098,-6.75015599e-14 Z" id="Combined-Shape"></path>
            </g>
        </g>
    </g>
</svg>