<?xml version="1.0" encoding="UTF-8"?>
<svg width="70px" height="70px" viewBox="0 0 70 70" version="1.1" xmlns="http://www.w3.org/2000/svg" xmlns:xlink="http://www.w3.org/1999/xlink">
    <!-- Generator: Sketch 63.1 (92452) - https://sketch.com -->
    <title>Icons/70px/trailer-70</title>
    <desc>Created with Sketch.</desc>
    <g id="Icons/70px/trailer-70" stroke="none" stroke-width="1" fill="none" fill-rule="evenodd">
        <g>
            <rect id="invisible-70" x="0" y="0" width="70" height="70"></rect>
            <g id="lines" transform="translate(6.000000, 28.000000)" fill="#FF0000" fill-rule="nonzero">
                <path d="M13.9997932,5 C17.3135845,5 20,7.68621962 20,11 C20,14.3137804 17.3135845,17 13.9997932,17 C11.6912747,17 9.61802346,15.683789 8.6152504,13.6496824 C8.2124748,12.8319074 8,11.9301447 8,11 C8,7.68616632 10.6860552,5 13.9997932,5 Z M13.9997932,7 C11.7906433,7 10,8.79071731 10,11 C10,11.6219242 10.1412882,12.2215645 10.4092751,12.7656715 C11.0782564,14.1226876 12.4601693,15 13.9997932,15 C16.2090477,15 18,13.2091782 18,11 C18,8.79082176 16.2090477,7 13.9997932,7 Z M14,8 C15.6569624,8 17,9.34321503 17,11 C17,12.6570649 15.6570649,14 14,14 C12.343215,14 11,12.6569624 11,11 C11,10.125863 11.3776152,9.31014088 12.0224284,8.74386348 C12.5656511,8.26788003 13.2633085,8 14,8 Z M14,10 C13.7531882,10 13.5225747,10.0885489 13.3413207,10.2473667 C13.1251918,10.4371721 13,10.7076108 13,11 C13,11.5523337 13.4477254,12 14,12 C14.5524954,12 15,11.5524954 15,11 C15,10.4477254 14.5523337,10 14,10 Z M58,1.79412041e-13 L58,4 L56,4 L56,2 L43,2 L43,12 L21,12 L21,10 L41,10 L41,2 L5,2 L5,10 L7,10 L7,12 L3,12 L3,1.79412041e-13 L58,1.79412041e-13 Z M2,8.61533067e-14 L2,4 L-2.2182256e-12,4 L-2.2182256e-12,8.61533067e-14 L2,8.61533067e-14 Z" id="Combined-Shape"></path>
            </g>
        </g>
    </g>
</svg>