<?xml version="1.0" encoding="UTF-8"?>
<svg width="70px" height="70px" viewBox="0 0 70 70" version="1.1" xmlns="http://www.w3.org/2000/svg" xmlns:xlink="http://www.w3.org/1999/xlink">
    <!-- Generator: Sketch 61 (89581) - https://sketch.com -->
    <title>Icons/70px/travel-70</title>
    <desc>Created with Sketch.</desc>
    <defs>
        <path d="M45.3793575,32.2591767 L52.8470538,33.4684103 L52.9752726,34.1609187 C53.390536,36.4037524 52.5079351,38.2805861 50.4480533,39.6263445 L50.3194843,39.710341 L38.6060369,43.001807 L31.1447781,50.9465534 L22.5754437,53.6352868 L24.2438839,47.0638484 L22.120073,47.7231108 L8.39605351,46.2225128 L0.965560348,39.9498816 L10.1408301,37.3145022 L16.3277669,40.6975399 L21.6257681,39.1582626 L16.4294311,35.2808941 L24.7382975,32.8316941 L33.6997681,35.6502626 L45.3793575,32.2591767 Z M45.5044894,34.3054903 L16.0927055,42.8484758 L9.90270424,39.4637625 L5.11812489,40.8380198 L9.21995473,44.3006791 L21.924193,45.6897732 L24.8210596,44.7905427 L25.1210793,43.6088638 L27.0595758,44.1010339 L25.3957644,50.6542405 L30.045806,49.1952331 L37.5291752,41.2269436 L49.4773606,37.8695165 C50.5650088,37.1228352 51.0767294,36.2640859 51.0751496,35.2075389 L45.5044894,34.3054903 Z M24.7193139,34.9223693 L20.8296833,36.0689136 L24.0327681,38.4592626 L30.2347681,36.6572626 L24.7193139,34.9223693 Z M32.3390967,25.4157276 C34.3077156,25.4157276 35.9035965,27.0116085 35.9035965,28.9802274 C35.9035965,30.9488462 34.3077156,32.5447272 32.3390967,32.5447272 C30.3704778,32.5447272 28.7745969,30.9488462 28.7745969,28.9802274 C28.7745969,27.0116085 30.3704778,25.4157276 32.3390967,25.4157276 Z M32.3390967,27.4157276 C31.4750473,27.4157276 30.7745969,28.116178 30.7745969,28.9802274 C30.7745969,29.8442767 31.4750473,30.5447272 32.3390967,30.5447272 C33.2031461,30.5447272 33.9035965,29.8442767 33.9035965,28.9802274 C33.9035965,28.116178 33.2031461,27.4157276 32.3390967,27.4157276 Z M24.3961899,15.9992958 C27.3511283,15.9992958 29.7465792,18.3947466 29.7465792,21.349685 C29.7465792,24.3046234 27.3511283,26.7000743 24.3961899,26.7000743 C21.4412515,26.7000743 19.0458006,24.3046234 19.0458006,21.349685 C19.0458006,18.3947466 21.4412515,15.9992958 24.3961899,15.9992958 Z M16.7772022,0.487262632 C21.5950464,0.487262632 25.5604533,4.13698057 26.059434,8.82242746 C30.7345087,8.82242746 34.4475318,12.5354506 34.4475318,17.1156967 C34.4475318,18.705812 33.9982602,20.2320491 33.165157,21.5475397 L31.4754951,20.4774731 C32.1073485,19.4797608 32.4475318,18.3241117 32.4475318,17.1156967 C32.4475318,13.6400201 29.6299392,10.8224275 26.1542626,10.8224275 L24.112367,10.8224275 L24.112367,9.82242746 C24.112367,5.77132779 20.8283018,2.48726263 16.7772022,2.48726263 C12.7261025,2.48726263 9.44203733,5.77132779 9.44203733,9.82242746 L9.44203733,10.8249283 L8.43953961,10.8224243 C4.96673655,10.8137502 2.1487681,13.6290336 2.1487681,17.105636 C2.1487681,20.5813126 4.96636071,23.3989052 8.44203733,23.3989052 L16.7772022,23.3989052 L16.7772022,25.3989052 L8.44203733,25.3989052 C3.86179121,25.3989052 0.148768104,21.6858821 0.148768104,17.105636 C0.148768104,12.8463281 3.35897473,9.33884108 7.48956653,8.87455413 C7.96457601,4.16407789 11.941506,0.487262632 16.7772022,0.487262632 Z M24.3961899,17.9992958 C22.545821,17.9992958 21.0458006,19.4993161 21.0458006,21.349685 C21.0458006,23.2000539 22.545821,24.7000743 24.3961899,24.7000743 C26.2465588,24.7000743 27.7465792,23.2000539 27.7465792,21.349685 C27.7465792,19.4993161 26.2465588,17.9992958 24.3961899,17.9992958 Z" id="path-1"></path>
    </defs>
    <g id="Icons/70px/travel-70" stroke="none" stroke-width="1" fill="none" fill-rule="evenodd">
        <g>
            <rect id="invisible-70" x="0" y="0" width="70" height="70"></rect>
            <g id="outlines" transform="translate(8.299630, 8.051048)">
                <mask id="mask-2" fill="white">
                    <use xlink:href="#path-1"></use>
                </mask>
                <use id="Combined-Shape" fill="#FF0000" fill-rule="nonzero" xlink:href="#path-1"></use>
            </g>
        </g>
    </g>
</svg>