<?xml version="1.0" encoding="UTF-8"?>
<svg width="70px" height="70px" viewBox="0 0 70 70" version="1.1" xmlns="http://www.w3.org/2000/svg" xmlns:xlink="http://www.w3.org/1999/xlink">
    <!-- Generator: Sketch 54.1 (76490) - https://sketchapp.com -->
    <title>Icons/70px/truck-70</title>
    <desc>Created with Sketch.</desc>
    <g id="Icons/70px/truck-70" stroke="none" stroke-width="1" fill="none" fill-rule="evenodd">
        <g>
            <rect id="invisible-70" x="0" y="0" width="70" height="70"></rect>
            <g id="lines" transform="translate(8.000000, 9.000000)" fill="#FF0000" fill-rule="nonzero">
                <path d="M14,50 C19.5228475,50 24,45.5228475 24,40 C24,34.4771525 19.5228475,30 14,30 C8.4771525,30 4,34.4771525 4,40 C4,45.5228475 8.4771525,50 14,50 Z M14,48 C9.581722,48 6,44.418278 6,40 C6,35.581722 9.581722,32 14,32 C18.418278,32 22,35.581722 22,40 C22,44.418278 18.418278,48 14,48 Z" id="Oval"></path>
                <path d="M14,44 C16.209139,44 18,42.209139 18,40 C18,37.790861 16.209139,36 14,36 C11.790861,36 10,37.790861 10,40 C10,42.209139 11.790861,44 14,44 Z M14,42 C12.8954305,42 12,41.1045695 12,40 C12,38.8954305 12.8954305,38 14,38 C15.1045695,38 16,38.8954305 16,40 C16,41.1045695 15.1045695,42 14,42 Z" id="Oval"></path>
                <path d="M14.1937634,25.88 C6.18563449,25.88 -0.306236635,32.3718711 -0.306236635,40.38 L1.69376336,40.38 C1.69376336,33.4764406 7.29020399,27.88 14.1937634,27.88 C21.0086723,27.88 26.3,33.4047767 26.3,40.4 L26.3,41.4000385 L31.7374247,41.3998294 L31.7373478,39.3998294 L28.2682735,39.3999628 C27.7836275,31.7942652 21.8026114,25.88 14.1937634,25.88 Z" id="Oval"></path>
                <path d="M45.4773862,49.88 C49.1997854,49.88 52.2173862,46.8623992 52.2173862,43.14 C52.2173862,39.4176008 49.1997854,36.4 45.4773862,36.4 C41.754987,36.4 38.7373862,39.4176008 38.7373862,43.14 C38.7373862,46.8623992 41.754987,49.88 45.4773862,49.88 Z M45.4773862,47.88 C42.8595565,47.88 40.7373862,45.7578297 40.7373862,43.14 C40.7373862,40.5221703 42.8595565,38.4 45.4773862,38.4 C48.0952159,38.4 50.2173862,40.5221703 50.2173862,43.14 C50.2173862,45.7578297 48.0952159,47.88 45.4773862,47.88 Z" id="Oval-Copy"></path>
                <path d="M34.7373862,39.4 L34.7373862,41.4 L37.413156,41.4 L37.6389494,40.711703 C38.7833839,37.2230669 42.0427662,34.78 45.7173862,34.78 C47.5346459,34.78 49.2632869,35.3505186 50.7023662,36.3943922 L51.8767004,34.7754607 C50.0989506,33.4859236 47.9600396,32.78 45.7173862,32.78 C41.4120832,32.78 37.5861267,35.4725511 35.9909233,39.4 L34.7373862,39.4 Z" id="Oval-Copy"></path>
                <polygon id="Path-3" points="27.8652098 0 4.78754168 0 2.54478431 22.7389767 4.73632371 30.0086335 6.65120302 29.4313665 4.574013 22.5410233 6.59998505 2 26.3703169 2 32.7589004 23.64 47.302213 23.64 47.390536 34.0484854 49.390464 34.0315146 49.2853137 21.64 34.2537933 21.64"></polygon>
                <polygon id="Path-4" points="15.7773862 1 15.7773862 23 17.7773862 23 17.7773862 1"></polygon>
                <path d="M41.7487575,23.195801 L41.7487575,8.25475117 C41.7487575,7.93985103 41.7033386,7.61096389 41.6224794,7.3000995 C41.1993479,5.67336446 39.7259712,4.51851852 38.0221045,4.51851852 L38.0221045,6.51851852 C38.8098106,6.51851852 39.4916409,7.05294324 39.6868866,7.80356821 C39.7265296,7.95597622 39.7487575,8.11693247 39.7487575,8.25475117 L39.7487575,23.195801 L41.7487575,23.195801 Z" id="Oval"></path>
            </g>
        </g>
    </g>
</svg>