<?xml version="1.0" encoding="UTF-8"?>
<svg width="70px" height="70px" viewBox="0 0 70 70" version="1.1" xmlns="http://www.w3.org/2000/svg" xmlns:xlink="http://www.w3.org/1999/xlink">
    <!-- Generator: Sketch 61 (89581) - https://sketch.com -->
    <title>Icons/70px/umbrella-70</title>
    <desc>Created with Sketch.</desc>
    <defs>
        <path d="M28,0 L28.0008015,4.0138422 C42.6156294,4.41909597 54,13.6779348 54,25.8831533 L54,27 C54,28.3333333 52,28.3333333 52,27 C52,25.4718187 49.6082946,24 46.5,24 C43.3917054,24 41,25.4718187 41,27 C41,28.3333333 39,28.3333333 39,27 C39,25.4718187 36.6082946,24 33.5,24 C30.3917054,24 28,25.4718187 28,27 L28,51.3486513 C28,54.4625382 25.5451038,57 22.5,57 C19.4548962,57 17,54.4625382 17,51.3486513 C17,50.7963666 17.4477153,50.3486513 18,50.3486513 C18.5522847,50.3486513 19,50.7963666 19,51.3486513 C19,53.3725023 20.5745411,55 22.5,55 C24.4254589,55 26,53.3725023 26,51.3486513 L26,27 L26,27 C26,25.4718187 23.6082946,24 20.5,24 C17.3917054,24 15,25.4718187 15,27 C15,28.3333333 13,28.3333333 13,27 C13,25.4718187 10.6082946,24 7.5,24 C4.56254295,24 2.26506969,25.3144771 2.02139649,26.7487709 L2.02564965,26.8829266 C2.02819705,26.9834773 2.01555984,27.0838369 1.98816466,27.1806172 L1.96219425,27.2723642 C1.64596796,28.3895123 0,28.1610422 0,27 C0,26.8792194 0.0059880497,26.7598014 0.0177608194,26.6418431 L0,25.8831533 C0,13.6776562 11.3848904,4.41867324 26.0001995,4.01381446 L26,0 L28,0 Z M23.7055848,6.16018314 L23.695286,6.16154748 C12.2323642,7.2950376 3.48129797,14.2779969 2.1699331,23.4512373 C3.54032334,22.5413507 5.43769629,22 7.5,22 C9.81890857,22 11.9292895,22.6844484 13.3164312,23.8076628 C14.5801203,16.6590735 17.8407227,10.8627948 23.7055848,6.16018314 Z M31.0434872,6.24315002 L31.1468833,6.31623819 C36.5404258,10.2322121 39.5488967,16.0222579 40.7237101,23.7755698 C42.1103562,22.6716567 44.2028629,22 46.5,22 C48.5605579,22 50.4564641,22.5404346 51.8265855,23.4489274 C50.5329673,14.4667493 42.1328573,7.59674442 31.0434872,6.24315002 Z M28.0008555,6.66184487 L28,10.816202 L26,10.816202 L25.9998088,6.91786444 C20.1187241,11.2622093 16.8218773,16.5951995 15.451912,23.2742701 C16.7946659,22.4714108 18.5755217,22 20.5,22 C22.649955,22 24.6206617,22.5883452 26.0019149,23.5692363 L26,22 L28,22 L27.9990823,23.5685283 C29.3802867,22.5880621 31.3505623,22 33.5,22 C35.4611941,22 37.2732332,22.4895698 38.6247489,23.3200868 C37.3016069,15.5632671 33.9878812,10.102417 28.0008555,6.66184487 Z M28,13 L28,16 L26,16 L26,13 L28,13 Z" id="path-1"></path>
    </defs>
    <g id="Icons/70px/umbrella-70" stroke="none" stroke-width="1" fill="none" fill-rule="evenodd">
        <g>
            <rect id="invisible-70" x="0" y="0" width="70" height="70"></rect>
            <g id="outlines" transform="translate(8.000000, 7.000000)">
                <mask id="mask-2" fill="white">
                    <use xlink:href="#path-1"></use>
                </mask>
                <use id="Combined-Shape" fill="#FF0000" fill-rule="nonzero" xlink:href="#path-1"></use>
            </g>
        </g>
    </g>
</svg>