<?xml version="1.0" encoding="UTF-8"?>
<svg width="70px" height="70px" viewBox="0 0 70 70" version="1.1" xmlns="http://www.w3.org/2000/svg" xmlns:xlink="http://www.w3.org/1999/xlink">
    <!-- Generator: Sketch 61 (89581) - https://sketch.com -->
    <title>Icons/70px/user-70</title>
    <desc>Created with Sketch.</desc>
    <defs>
        <path d="M22.8281123,9.92186924 C29.2948342,9.92186924 35.3298808,12.6262551 39.6248499,17.2904334 L38.1536049,18.6452169 C34.2334701,14.3880948 28.7298967,11.9218692 22.8281123,11.9218692 C11.3250635,11.9218692 2,21.2469328 2,32.7499816 C2,44.2530304 11.3250635,53.5780939 22.8281123,53.5780939 C34.3311611,53.5780939 43.6562247,44.2530304 43.6562247,32.7499816 C43.6562247,30.2910037 43.2303539,27.8925239 42.4090528,25.6334535 L26.4661311,25.6334535 C21.0637208,25.6334535 15.2497033,22.5032684 13.696027,18.2636062 L15.5739036,17.5754352 C16.8021335,20.9270211 21.8290711,23.6334535 26.4661311,23.6334535 L43.7738751,23.6334535 L44.0255656,24.2614216 C45.0981482,26.9375163 45.6562247,29.8058413 45.6562247,32.7499816 C45.6562247,45.3575999 35.4357306,55.5780939 22.8281123,55.5780939 C10.220494,55.5780939 0,45.3575999 0,32.7499816 C0,20.1423633 10.220494,9.92186924 22.8281123,9.92186924 Z M29.1237622,41.9116248 L30.4230794,43.4320769 C28.2435174,45.294643 25.5897946,46.3219992 22.7971779,46.3219992 C20.0336625,46.3219992 17.4057645,45.3159921 15.2382973,43.4889598 L16.5273104,41.9597622 C18.3420609,43.4894776 20.5167791,44.3219992 22.7971779,44.3219992 C25.1017281,44.3219992 27.2982315,43.4716499 29.1237622,41.9116248 Z M30.7656077,29.7656077 C33.5097713,29.7656077 35.7343554,31.9901919 35.7343554,34.7343554 L33.7343554,34.7343554 C33.7343554,33.0947614 32.4052018,31.7656077 30.7656077,31.7656077 C29.1260137,31.7656077 27.79686,33.0947614 27.79686,34.7343554 L25.79686,34.7343554 C25.79686,31.9901919 28.0214442,29.7656077 30.7656077,29.7656077 Z M14.8906169,29.7656077 C17.6347805,29.7656077 19.8593646,31.9901919 19.8593646,34.7343554 L17.8593646,34.7343554 C17.8593646,33.0947614 16.530211,31.7656077 14.8906169,31.7656077 C13.2510229,31.7656077 11.9218692,33.0947614 11.9218692,34.7343554 L9.92186924,34.7343554 C9.92186924,31.9901919 12.1464534,29.7656077 14.8906169,29.7656077 Z M53.9343486,14.0821503 L54.7449693,15.9105086 L47.1258618,19.288515 L46.3152412,17.4601567 L53.9343486,14.0821503 Z M47.9435558,6.22122572 L49.3063889,7.68501737 L43.4332204,13.1531101 L42.0703873,11.6893185 L47.9435558,6.22122572 Z M39.7677503,0.600946898 L41.5408662,1.52618201 L37.6852402,8.91508413 L35.9121243,7.98984902 L39.7677503,0.600946898 Z" id="path-1"></path>
    </defs>
    <g id="Icons/70px/user-70" stroke="none" stroke-width="1" fill="none" fill-rule="evenodd">
        <g>
            <rect id="invisible-70" x="0" y="0" width="70" height="70"></rect>
            <g id="outlines" transform="translate(7.000000, 6.827291)">
                <mask id="mask-2" fill="white">
                    <use xlink:href="#path-1"></use>
                </mask>
                <use id="Combined-Shape" fill="#FF0000" fill-rule="nonzero" xlink:href="#path-1"></use>
            </g>
        </g>
    </g>
</svg>