<?xml version="1.0" encoding="UTF-8"?>
<svg width="70px" height="70px" viewBox="0 0 70 70" version="1.1" xmlns="http://www.w3.org/2000/svg" xmlns:xlink="http://www.w3.org/1999/xlink">
    <!-- Generator: Sketch 61.2 (89653) - https://sketch.com -->
    <title>Icons/70px/user-happy-70</title>
    <desc>Created with Sketch.</desc>
    <defs>
        <path d="M26,0 C33.3653683,0 40.2387651,3.08006196 45.130611,8.3924264 L43.6593661,9.74720988 C39.1423544,4.84190164 32.8004308,2 26,2 C12.745166,2 2,12.745166 2,26 C2,39.254834 12.745166,50 26,50 C39.254834,50 50,39.254834 50,26 C50,23.1319601 49.4971541,20.3351374 48.5278433,17.7040426 L30.1666667,17.7040426 C22.7763436,17.7040426 17.6064137,14.6225922 15.6773517,9.35858001 L17.5552283,8.67040902 C19.1737119,13.0869168 23.5646173,15.7040426 30.1666667,15.7040426 L49.8911266,15.7040426 L50.1428171,16.3320107 C51.3643972,19.3798545 52,22.6466388 52,26 C52,40.3594035 40.3594035,52 26,52 C11.6405965,52 0,40.3594035 0,26 C0,11.6405965 11.6405965,0 26,0 Z M35.2296956,35.3623236 L36.7703044,36.6376764 C33.9549376,40.0386009 30.1103665,42 25.992124,42 C21.8822737,42 18.044799,40.046614 15.2306811,36.6578633 L16.7693189,35.3801333 C19.2173316,38.3280214 22.5019744,40 25.992124,40 C29.4894669,40 32.780381,38.3210621 35.2296956,35.3623236 Z M36.5,22 C38.9540065,22 41,23.7537087 41,26 L39,26 C39,24.9325828 37.9119867,24 36.5,24 C35.0880133,24 34,24.9325828 34,26 L32,26 C32,23.7537087 34.0459935,22 36.5,22 Z M15.5,22 C17.9540065,22 20,23.7537087 20,26 L18,26 C18,24.9325828 16.9119867,24 15.5,24 C14.0880133,24 13,24.9325828 13,26 L11,26 C11,23.7537087 13.0459935,22 15.5,22 Z" id="path-1"></path>
    </defs>
    <g id="Icons/70px/user-happy-70" stroke="none" stroke-width="1" fill="none" fill-rule="evenodd">
        <g>
            <rect id="invisible-70" x="0" y="0" width="70" height="70"></rect>
            <g id="outlines" transform="translate(9.000000, 10.000000)">
                <mask id="mask-2" fill="white">
                    <use xlink:href="#path-1"></use>
                </mask>
                <use id="Combined-Shape" fill="#FF0000" fill-rule="nonzero" xlink:href="#path-1"></use>
            </g>
        </g>
    </g>
</svg>