<?xml version="1.0" encoding="UTF-8"?>
<svg width="70px" height="70px" viewBox="0 0 70 70" version="1.1" xmlns="http://www.w3.org/2000/svg" xmlns:xlink="http://www.w3.org/1999/xlink">
    <!-- Generator: Sketch 61.2 (89653) - https://sketch.com -->
    <title>Icons/70px/wallet-70</title>
    <desc>Created with Sketch.</desc>
    <defs>
        <path d="M57.1428571,11 L57.1428571,13 L9,13 C8.44771525,13 8,13.4477153 8,14 L8,51 C8,53.7614237 10.2385763,56 13,56 L58,56 L58,44 L50,44 L50,42 L61,42 C61.5522847,42 62,41.5522847 62,41 L62,31 C62,30.4477153 61.5522847,30 61,30 L50,30 L50,28 L58,28 L58,18 L13,18 L13,16 L60,16 L60,28 L61,28 C62.6568542,28 64,29.3431458 64,31 L64,41 C64,42.6568542 62.6568542,44 61,44 L60,44 L60,58 L13,58 C9.13400675,58 6,54.8659932 6,51 L6,14 C6,12.3431458 7.34314575,11 9,11 L57.1428571,11 Z M56,33 C57.6568542,33 59,34.3431458 59,36 C59,37.6568542 57.6568542,39 56,39 C54.3431458,39 53,37.6568542 53,36 C53,34.3431458 54.3431458,33 56,33 Z M56,35 C55.4477153,35 55,35.4477153 55,36 C55,36.5522847 55.4477153,37 56,37 C56.5522847,37 57,36.5522847 57,36 C57,35.4477153 56.5522847,35 56,35 Z" id="path-1"></path>
    </defs>
    <g id="Icons/70px/wallet-70" stroke="none" stroke-width="1" fill="none" fill-rule="evenodd">
        <g id="outlines">
            <g>
                <rect id="invisible-70" x="0" y="0" width="70" height="70"></rect>
                <mask id="mask-2" fill="white">
                    <use xlink:href="#path-1"></use>
                </mask>
                <use id="Combined-Shape" fill="#FF0000" fill-rule="nonzero" xlink:href="#path-1"></use>
            </g>
        </g>
    </g>
</svg>