<?xml version="1.0" encoding="UTF-8"?>
<svg width="16px" height="18px" viewBox="0 0 16 18" version="1.1" xmlns="http://www.w3.org/2000/svg" xmlns:xlink="http://www.w3.org/1999/xlink">
    <!-- Generator: Sketch 53.1 (72631) - https://sketchapp.com -->
    <title>Icons/20px/attach-20</title>
    <desc>Created with Sketch.</desc>
    <defs>
        <path d="M6.84649531,13.1900462 C8.02596525,15.3937616 9.37965536,15.9345984 11.2804949,15.0482224 C13.1813345,14.1618463 13.6371647,12.7772164 12.7290654,10.5077151 L9.64978207,3.90417066 L11.4623976,3.05893414 L14.563577,9.71302458 C15.8708503,12.9742627 15.0385072,15.5025883 12.1257314,16.8608379 C9.21295568,18.2190876 6.74112604,17.231523 5.05852578,14.0845464 L1.18217347,5.77168207 L1.14138385,5.67001007 C0.458135117,3.65377496 1.20808186,2.01062253 3.19979526,1.08187131 C5.18769224,0.154899728 6.93215282,0.627977479 8.0579727,2.4314683 L8.11599441,2.53838827 L11.9923467,10.8512526 L12.0365373,10.9631414 C12.5045014,12.3946088 12.1236707,13.5994388 10.876175,14.1811556 C9.6292369,14.7626124 8.46132436,14.280927 7.66386147,13.0037543 L7.60578176,12.8967414 L4.52649844,6.29319705 L6.33911402,5.44796053 L9.39157933,11.9939935 C9.67192478,12.4325489 9.79778929,12.4772593 10.0309385,12.36854 C10.2636415,12.2600288 10.3097661,12.1359256 10.1532418,11.6396826 L6.33062222,3.44204841 C5.75869066,2.55588933 5.11538554,2.39537274 4.04503178,2.89448689 C2.976591,3.39270901 2.69549352,3.97917396 3.01933556,4.9791086 L6.84649531,13.1900462 Z" id="path-1"></path>
    </defs>
    <g id="Ikoner---Export" stroke="none" stroke-width="1" fill="none" fill-rule="evenodd">
        <g id="attach" transform="translate(-18.000000, -25.000000)">
            <g id="🔴-Red-icons" transform="translate(16.000000, 24.000000)">
                <g id="Icons/20px/attach-20">
                    <g>
                        <rect id="invisible-20" x="0" y="0" width="20" height="20"></rect>
                        <g id="lines" transform="translate(2.000000, 1.000000)">
                            <mask id="mask-2" fill="white">
                                <use xlink:href="#path-1"></use>
                            </mask>
                            <use id="Path" fill="#FF0000" fill-rule="nonzero" xlink:href="#path-1"></use>
                        </g>
                    </g>
                </g>
            </g>
        </g>
    </g>
</svg>