<?xml version="1.0" encoding="UTF-8"?>
<svg width="20px" height="20px" viewBox="0 0 20 20" version="1.1" xmlns="http://www.w3.org/2000/svg" xmlns:xlink="http://www.w3.org/1999/xlink">
    <!-- Generator: Sketch 50.2 (55047) - http://www.bohemiancoding.com/sketch -->
    <title>bankid-20</title>
    <desc>Created with Sketch.</desc>
    <defs></defs>
    <g id="bankid-20" stroke="none" stroke-width="1" fill="none" fill-rule="evenodd">
        <g id="bankid-20-crop" transform="translate(1.000000, 2.000000)" fill="#FF0000">
            <path d="M14.6270286,13.8524752 L16.1602275,13.8524752 C17.3434571,13.8524752 17.6934264,14.7277228 17.57677,15.4514851 C17.4767787,16.1584158 16.9101618,16.9663366 15.876919,16.9663366 L14.1604029,16.9663366 L14.6270286,13.8524752 L14.6270286,13.8524752 Z M15.6269409,16.2257426 C16.1435623,16.2257426 16.443536,15.9732673 16.526862,15.4178218 C16.5935229,15.0138614 16.4602012,14.609901 15.8935842,14.609901 L15.5936105,14.609901 L15.3436325,16.2425743 L15.6269409,16.2257426 L15.6269409,16.2257426 L15.6269409,16.2257426 Z" id="Shape"></path>
            <polygon id="Shape" points="13.0271689 13.8524752 14.1104073 13.8524752 13.6271163 16.949505 12.543878 16.949505"></polygon>
            <polygon id="Shape" points="9.72745826 13.8524752 10.6607098 13.8524752 10.4273969 15.3841584 11.327318 14.5594059 12.4772171 14.5594059 11.327318 15.5861386 12.2439043 16.9663366 11.0606747 16.9663366 10.3440709 15.8554455 10.3274057 15.8554455 10.1607536 16.9663366 9.2275021 16.9663366"></polygon>
            <path d="M6.61106487,14.5594059 L7.54431636,14.5594059 L7.49432075,14.8792079 C7.79429444,14.6267327 8.01094211,14.5257426 8.31091581,14.5257426 C8.82753717,14.5257426 9.07751525,14.8455446 8.99418923,15.3841584 L8.74421115,16.9663366 L7.81095965,16.9663366 L8.01094211,15.6534653 C8.04427252,15.4178218 7.9776117,15.3 7.79429444,15.3 C7.6443076,15.3 7.51098595,15.3841584 7.37766431,15.5524752 L7.16101664,16.949505 L6.22776514,16.949505 L6.61106487,14.5594059 L6.61106487,14.5594059 Z" id="Shape"></path>
            <path d="M5.72780898,16.9831683 C5.26118324,17.0168317 5.02787036,16.9663366 4.92787913,16.7643564 C4.67790105,16.9158416 4.41125776,17 4.11128407,17 C3.5779975,17 3.39468024,16.7306931 3.44467586,16.4108911 C3.46134106,16.2594059 3.54466709,16.1247525 3.69465393,16.0069307 C3.97796243,15.7544554 4.71123146,15.7207921 4.99453995,15.5188119 C5.01120516,15.3 4.92787913,15.2158416 4.66123584,15.2158416 C4.34459694,15.2158416 4.09461886,15.3168317 3.64465832,15.619802 L3.74464955,14.9128713 C4.12794927,14.6267327 4.49458379,14.5089109 4.92787913,14.5089109 C5.4778309,14.5089109 5.96112186,14.7277228 5.86113063,15.3336634 L5.76113939,16.0237624 C5.72780898,16.2594059 5.72780898,16.3435644 5.99445227,16.3435644 L5.72780898,16.9831683 L5.72780898,16.9831683 Z M4.92787913,15.9227723 C4.67790105,16.0742574 4.2112753,16.0574257 4.16127968,16.3772277 C4.14461448,16.5287129 4.22794051,16.6465347 4.37792735,16.6465347 C4.5279142,16.6465347 4.71123146,16.5792079 4.8445531,16.4782178 C4.8278879,16.4277228 4.8445531,16.360396 4.86121831,16.2594059 L4.92787913,15.9227723 L4.92787913,15.9227723 Z" id="Shape"></path>
            <path d="M0.57826054,13.8524752 L2.37810271,13.8524752 C3.14470216,13.8524752 3.32801942,14.239604 3.2780238,14.609901 C3.22802819,14.8960396 3.04471093,15.1148515 2.69474162,15.249505 C3.12803695,15.4178218 3.29468901,15.670297 3.22802819,16.0742574 C3.14470216,16.5792079 2.71140682,16.949505 2.14478984,16.949505 L0.0949695857,16.949505 L0.57826054,13.8524752 L0.57826054,13.8524752 Z M1.76149012,15.1485149 C2.11145943,15.1485149 2.27811148,14.9633663 2.31144189,14.7445545 C2.3447723,14.5089109 2.24478107,14.3405941 1.89481176,14.3405941 L1.57817286,14.3405941 L1.44485122,15.1485149 L1.76149012,15.1485149 L1.76149012,15.1485149 Z M1.56150765,16.4950495 C1.92814217,16.4950495 2.12812463,16.3435644 2.17812025,16.0405941 C2.21145066,15.7881188 2.07812902,15.619802 1.72815971,15.619802 L1.3781904,15.619802 L1.24486875,16.4950495 L1.56150765,16.4950495 L1.56150765,16.4950495 Z" id="Shape"></path>
            <path d="M11.5939613,0 L7.12768623,0 L6.52773884,3.82079208 L7.29433828,3.82079208 C7.71096842,3.82079208 8.11093334,3.63564356 8.2775854,3.34950495 C8.32758101,3.26534653 8.36091142,3.18118812 8.36091142,3.11386139 C8.36091142,2.96237624 8.26092019,2.82772277 8.14426376,2.76039604 C7.84429006,2.54158416 7.79429444,2.30594059 7.79429444,2.13762376 L7.79429444,2.05346535 C7.86095527,1.64950495 8.39424184,1.21188119 9.11084566,1.21188119 C9.544141,1.21188119 9.8607799,1.31287129 10.0607624,1.4980198 C10.2274144,1.66633663 10.3107404,1.9019802 10.2607448,2.13762376 C10.194084,2.42376238 9.91077552,2.65940594 9.74412347,2.77722772 C9.31082813,3.08019802 9.36082374,3.34950495 9.39415415,3.43366337 C9.47748018,3.66930693 9.82744949,3.82079208 10.0940928,3.82079208 L11.2606572,3.82079208 L11.2606572,3.82079208 C12.8438517,3.83762376 13.6937771,4.56138614 13.4104686,6.27821782 C13.1604906,7.86039604 11.9605958,8.55049505 10.5273881,8.56732673 L9.92744072,12.219802 L10.760701,12.219802 C14.3103897,12.219802 17.1934702,9.91386139 17.7767524,6.2950495 C18.4933563,1.8009901 15.6602714,0 11.5939613,0 L11.5939613,0 Z" id="Shape"></path>
            <path d="M6.44441281,4.14059406 L5.64448296,4.14059406 C5.27784844,4.14059406 4.79455749,3.93861386 4.64457064,3.55148515 C4.59457502,3.41683168 4.49458379,2.96237624 5.11119639,2.52475248 C5.32784406,2.37326733 5.4778309,2.2049505 5.49449611,2.07029703 C5.52782652,1.93564356 5.49449611,1.81782178 5.39450488,1.71683168 C5.27784844,1.5990099 5.01120516,1.51485149 4.67790105,1.51485149 C4.11128407,1.51485149 3.71131914,1.85148515 3.67798873,2.08712871 C3.64465832,2.27227723 3.79464517,2.40693069 3.9113016,2.49108911 C4.26127092,2.76039604 4.34459694,3.14752475 4.12794927,3.51782178 C3.8946364,3.88811881 3.41134544,4.14059406 2.89472408,4.14059406 L2.07812902,4.14059406 C2.0114682,4.5950495 0.911564646,11.6643564 0.82823862,12.219802 L5.22785282,12.219802 C5.24451803,11.9841584 5.44450049,10.6376238 5.71114378,8.87029703 L6.44441281,4.14059406 Z" id="Shape"></path>
        </g>
    </g>
</svg>