<?xml version="1.0" encoding="UTF-8"?>
<svg width="20px" height="20px" viewBox="0 0 20 20" version="1.1" xmlns="http://www.w3.org/2000/svg" xmlns:xlink="http://www.w3.org/1999/xlink">
    <!-- Generator: Sketch 50.2 (55047) - http://www.bohemiancoding.com/sketch -->
    <title>boat-20</title>
    <desc>Created with Sketch.</desc>
    <defs></defs>
    <g id="boat-20" stroke="none" stroke-width="1" fill="none" fill-rule="evenodd">
        <g id="boat-20-crop" transform="translate(1.000000, 1.000000)" fill="#FF0000" fill-rule="nonzero">
            <path d="M5.23663216,4.47954127 C4.88407891,5.38335961 4.13671619,7.6749894 4.08191368,7.81580541 L2.21808651,7.09044459 C2.24575997,7.01933716 2.99344339,4.72672403 3.38585495,3.72221935 C3.40941337,3.66844594 3.40941337,3.66844594 3.43923129,3.60383946 C3.48767594,3.50336168 3.54205281,3.41008104 3.60480157,3.31770364 C3.7734096,3.06853844 3.99247629,2.85852409 4.25718058,2.68835778 C4.96688524,2.23323656 6.06066266,2.04060441 7.85056651,2.00113874 L10.1782785,2.00034428 C11.9533145,2.03634685 13.0505282,2.22924544 13.7627632,2.69119919 C14.0227085,2.86050569 14.2389333,3.06952295 14.4052167,3.31525561 C14.4698209,3.41036738 14.5246253,3.50627505 14.5828115,3.63000018 L14.5700016,3.60232303 C14.5812036,3.62590258 14.5812036,3.62590258 14.5902036,3.64563513 C14.6107901,3.69198054 14.6107901,3.69198054 14.6159215,3.70377397 L14.670938,3.83672258 C15.2328145,5.49209168 15.6154317,6.58173582 15.8132205,7.09123419 L13.9487795,7.81501581 C13.7414476,7.28093471 13.3644802,6.20855884 12.8126503,4.58435305 C12.8100038,4.58281811 12.8063755,4.57311481 12.7991833,4.54470815 C12.7968883,4.53795103 12.7945904,4.53118447 12.7922896,4.52440846 C12.7752588,4.4863812 12.7752588,4.4863812 12.7684446,4.47097995 C12.7671963,4.46825916 12.7671963,4.46825916 12.7551884,4.44227711 L12.7649277,4.46351826 C12.7606905,4.45455487 12.7572791,4.44858492 12.7498016,4.43757366 C12.7351754,4.41595942 12.7122261,4.39377508 12.6728409,4.36812072 C12.3688679,4.17096552 11.5601309,4.02878336 10.1584334,4.00013855 L7.87317567,4.00089274 C6.45289076,4.03239628 5.64416061,4.17482693 5.33775757,4.37131712 C5.29655917,4.3978018 5.27443716,4.41900969 5.26021667,4.44002168 C5.25006146,4.45497241 5.24505115,4.46356257 5.24794253,4.45723365 C5.23258658,4.49083136 5.23258805,4.49082726 5.23663216,4.47954127 Z M0.105500369,16.2568997 L1.19449958,14.5793776 C1.58997176,14.8361067 2.06103447,14.839608 2.43696999,14.601336 C4.23405669,13.4208486 6.50436445,13.4122775 8.31102909,14.5807215 C8.70545551,14.837126 9.17694929,14.8407764 9.55204823,14.6039422 C11.3471448,13.4219251 13.6189435,13.4130053 15.4254996,14.5813776 C15.8217382,14.8386043 16.292374,14.8413667 16.6915272,14.5889529 L17.7604727,16.2793244 C16.7012567,16.9491441 15.3878953,16.9414352 14.3379379,16.2598312 C13.1986934,15.5230372 11.7844943,15.5285898 10.6362138,16.284488 C9.58405872,16.9493916 8.2695648,16.9392143 7.22293793,16.2588312 C6.08370607,15.5220454 4.67001355,15.5273825 3.52158286,16.2816213 C2.47041369,16.9482877 1.15547677,16.9385143 0.105500369,16.2568997 Z M2.90722677,8.99495332 L2.78147822,9.00409373 C2.71268705,9.00474578 2.6428008,9.04567282 2.59516572,9.1244933 C2.54698679,9.20397743 2.53986425,9.31233242 2.56310761,9.36762755 L4.1875,12.78125 L2.38328474,13.6442722 C1.69789163,12.2114044 1.83593867,12.4822992 0.743589302,10.1970804 C0.447631997,9.51478364 0.499663748,8.72322654 0.884148602,8.08891681 C1.27277246,7.4458576 1.94724692,7.03778425 2.6898658,7.00607787 L9.00006777,6.14485892 L15.3646003,7.01436384 C16.0963074,7.0577535 16.7558621,7.46880009 17.1210042,8.09216981 C17.5060013,8.72965346 17.5534419,9.51526877 17.2367681,10.2513587 L15.625,13.6442722 L13.8214637,12.7798321 C14.5094906,11.3443577 14.3520466,11.6426641 15.4159715,9.42494751 C15.463869,9.31327785 15.457407,9.20626757 15.4021923,9.11467101 C15.3643,9.04999907 15.3026443,9.01257171 15.2414623,9.01064121 L15.1376401,9.00193515 L8.99993219,8.16341838 L2.90722677,8.99495332 Z" id="Page-1"></path>
            <path d="M8,1 C8,0.44771525 8.44771525,0 9,0 C9.55228475,0 10,0.44771525 10,1 L10,3 C10,3.55228475 9.55228475,4 9,4 C8.44771525,4 8,3.55228475 8,3 L8,1 Z" id="Line"></path>
            <polygon id="Line" points="8 8 10 8 10 13 8 13"></polygon>
        </g>
    </g>
</svg>