<?xml version="1.0" encoding="UTF-8"?>
<svg width="20px" height="20px" viewBox="0 0 20 20" version="1.1" xmlns="http://www.w3.org/2000/svg" xmlns:xlink="http://www.w3.org/1999/xlink">
    <!-- Generator: Sketch 50.2 (55047) - http://www.bohemiancoding.com/sketch -->
    <title>breifcase-first-aid-20</title>
    <desc>Created with Sketch.</desc>
    <defs></defs>
    <g id="breifcase-first-aid-20" stroke="none" stroke-width="1" fill="none" fill-rule="evenodd">
        <g id="breifcase-first-aid-20-crop" transform="translate(0.600000, 1.000000)" fill="#FF0000">
            <g id="Page-1" transform="translate(0.400000, 0.000000)">
                <polygon id="Fill-1" points="10 7 8 7 8 9 6 9 6 11 8 11 8 13 10 13 10 11 12 11 12 9 10 9"></polygon>
                <path d="M16,14.5 C16,14.771 15.771,15 15.5,15 L15,15 L15,5 L15.5,5 C15.771,5 16,5.229 16,5.5 L16,14.5 Z M13,15 L5,15 L5,5 L7,5 L11,5 L13,5 L13,15 Z M3,15 L2.5,15 C2.229,15 2,14.771 2,14.5 L2,5.5 C2,5.229 2.229,5 2.5,5 L3,5 L3,15 Z M7,3 L11,3 L11,2 L7,2 L7,3 Z M15.5,3 L13,3 L13,0 L5,0 L5,3 L2.5,3 C1.121,3 0,4.122 0,5.5 L0,14.5 C0,15.878 1.121,17 2.5,17 L15.5,17 C16.879,17 18,15.878 18,14.5 L18,5.5 C18,4.122 16.879,3 15.5,3 L15.5,3 Z" id="Fill-2"></path>
            </g>
        </g>
    </g>
</svg>