<?xml version="1.0" encoding="UTF-8"?>
<svg width="20px" height="20px" viewBox="0 0 20 20" version="1.1" xmlns="http://www.w3.org/2000/svg" xmlns:xlink="http://www.w3.org/1999/xlink">
    <!-- Generator: Sketch 57.1 (83088) - https://sketch.com -->
    <title>Icons/20px/briefcase-20</title>
    <desc>Created with Sketch.</desc>
    <g id="Icons/20px/briefcase-20" stroke="none" stroke-width="1" fill="none" fill-rule="evenodd">
        <g id="outlines">
            <g>
                <rect id="invisible-20" x="0" y="0" width="20" height="20"></rect>
                <path d="M14,2 L14,5 L16.5,5 C17.8807119,5 19,6.11928813 19,7.5 L19,15.5 C19,16.8807119 17.8807119,18 16.5,18 L3.5,18 C2.11928813,18 1,16.8807119 1,15.5 L1,7.5 C1,6.11928813 2.11928813,5 3.5,5 L6,5 L6,2 L14,2 Z M17,9.999 L14.3333333,12 L5.66666667,12 L3,10.001 L3,15.5 C3,15.7761424 3.22385763,16 3.5,16 L16.5,16 C16.7761424,16 17,15.7761424 17,15.5 L17,9.999 Z M16.5,7 L3.5,7 C3.22385763,7 3,7.22385763 3,7.5 L3,7.501 L6.33333333,10 L13.6666667,10 L17,7.5 C17,7.22385763 16.7761424,7 16.5,7 Z M12,4 L8,4 L8,5 L12,5 L12,4 Z" id="Combined-Shape" fill="#FF0000" fill-rule="nonzero"></path>
            </g>
        </g>
    </g>
</svg>