<?xml version="1.0" encoding="UTF-8"?>
<svg width="20px" height="20px" viewBox="0 0 20 20" version="1.1" xmlns="http://www.w3.org/2000/svg" xmlns:xlink="http://www.w3.org/1999/xlink">
    <!-- Generator: Sketch 50.2 (55047) - http://www.bohemiancoding.com/sketch -->
    <title>calendar-cross-20</title>
    <desc>Created with Sketch.</desc>
    <defs></defs>
    <g id="calendar-cross-20" stroke="none" stroke-width="1" fill="none" fill-rule="evenodd">
        <g id="calendar-cross-20-crop" transform="translate(2.000000, 0.500000)" fill="#FF0000">
            <g id="Page-1" transform="translate(0.000000, 0.500000)">
                <path d="M14,5 L2,5 L2,3.33 C2,3.149 2.161,3.004 2.346,3 L4,3 L4,4 L6,4 L6,3 L10,3 L10,4 L12,4 L12,3 L13.634,3 C13.839,3.004 14,3.149 14,3.33 L14,5 Z M14,14.662 C14,14.858 13.854,15 13.654,15 L2.346,15 C2.146,15 2,14.858 2,14.662 L2,7 L14,7 L14,14.662 Z M13.654,1 L12,1 L12,0 L10,0 L10,1 L6,1 L6,0 L4,0 L4,1 L2.325,1 C1.021,1.026 0,2.05 0,3.33 L0,14.662 C0,15.973 1.03,17 2.346,17 L13.654,17 C14.97,17 16,15.973 16,14.662 L16,3.33 C16,2.05 14.979,1.026 13.654,1 L13.654,1 Z" id="Fill-1"></path>
                <polygon id="Fill-3" points="5.9648 14.4497 7.9998 12.4147 10.0348 14.4497 11.4488 13.0357 9.4138 11.0007 11.4138 8.9997 9.9998 7.5857 7.9998 9.5857 5.9998 7.5857 4.5858 8.9997 6.5858 11.0007 4.5508 13.0357"></polygon>
            </g>
        </g>
    </g>
</svg>