<?xml version="1.0" encoding="UTF-8"?>
<svg width="20px" height="20px" viewBox="0 0 20 20" version="1.1" xmlns="http://www.w3.org/2000/svg" xmlns:xlink="http://www.w3.org/1999/xlink">
    <!-- Generator: Sketch 50.2 (55047) - http://www.bohemiancoding.com/sketch -->
    <title>calendar-check-20</title>
    <desc>Created with Sketch.</desc>
    <defs></defs>
    <g id="calendar-check-20" stroke="none" stroke-width="1" fill="none" fill-rule="evenodd">
        <g id="calendar-check-20-crop" transform="translate(2.000000, 0.500000)" fill="#FF0000">
            <path d="M14,5.5 L2,5.5 L2,3.83 C2,3.649 2.161,3.504 2.346,3.5 L4,3.5 L4,4.5 L6,4.5 L6,3.5 L10,3.5 L10,4.5 L12,4.5 L12,3.5 L13.634,3.5 C13.839,3.504 14,3.649 14,3.83 L14,5.5 Z M14,15.162 C14,15.358 13.854,15.5 13.654,15.5 L2.346,15.5 C2.146,15.5 2,15.358 2,15.162 L2,7.5 L14,7.5 L14,15.162 Z M13.654,1.5 L12,1.5 L12,0.5 L10,0.5 L10,1.5 L6,1.5 L6,0.5 L4,0.5 L4,1.5 L2.325,1.5 C1.021,1.526 0,2.55 0,3.83 L0,15.162 C0,16.473 1.03,17.5 2.346,17.5 L13.654,17.5 C14.97,17.5 16,16.473 16,15.162 L16,3.83 C16,2.55 14.979,1.526 13.654,1.5 L13.654,1.5 Z" id="Fill-1"></path>
            <polygon id="Fill-3" points="12.4844 9.209 11.0744 7.791 7.1604 11.683 5.7124 10.203 4.2884 11.608 7.1464 14.516"></polygon>
        </g>
    </g>
</svg>