<?xml version="1.0" encoding="UTF-8"?>
<svg width="20px" height="20px" viewBox="0 0 20 20" version="1.1" xmlns="http://www.w3.org/2000/svg" xmlns:xlink="http://www.w3.org/1999/xlink">
    <!-- Generator: Sketch 50.2 (55047) - http://www.bohemiancoding.com/sketch -->
    <title>card-block-20</title>
    <desc>Created with Sketch.</desc>
    <defs></defs>
    <g id="card-block-20" stroke="none" stroke-width="1" fill="none" fill-rule="evenodd">
        <g id="card-block-20-crop" transform="translate(1.000000, 2.000000)" fill="#FF0000">
            <path d="M9.00798298,10 L1.99201702,10 C2.00428573,10 2,2.0085302 2,2.0085302 C2,2.00195089 14.0059397,2 14.0059397,2 C13.9993414,2 14,7.06259261 14,7.06259261 L16,7.06259261 L16,2.00496412 C16,0.897653011 15.1054862,0 14.0059397,0 L1.99406028,0 C0.892771196,0 0,0.901950359 0,2.0085302 L0,9.9914698 C0,11.1007504 0.900176167,12 1.99201702,12 L9.00798298,12 L9.00798298,10 Z M9.00798298,10 L1.99201702,10 C2.00428573,10 2,2.0085302 2,2.0085302 C2,2.00195089 14.0059397,2 14.0059397,2 C13.9993414,2 14,7.06259261 14,7.06259261 L16,7.06259261 L16,2.00496412 C16,0.897653011 15.1054862,0 14.0059397,0 L1.99406028,0 C0.892771196,0 0,0.901950359 0,2.0085302 L0,9.9914698 C0,11.1007504 0.900176167,12 1.99201702,12 L9.00798298,12 L9.00798298,10 Z" id="Rectangle" fill-rule="nonzero"></path>
            <polygon id="Fill-4" points="2.996 8 5.996 8 5.996 6 2.996 6"></polygon>
            <path d="M13.5,15 C15.4329966,15 17,13.4329966 17,11.5 C17,9.56700338 15.4329966,8 13.5,8 C11.5670034,8 10,9.56700338 10,11.5 C10,13.4329966 11.5670034,15 13.5,15 Z M13.5,17 C10.4624339,17 8,14.5375661 8,11.5 C8,8.46243388 10.4624339,6 13.5,6 C16.5375661,6 19,8.46243388 19,11.5 C19,14.5375661 16.5375661,17 13.5,17 Z" id="Oval" fill-rule="nonzero"></path>
            <polygon id="Line" fill-rule="nonzero" points="9.08578644 8.5 16.5 15.9142136 17.9142136 14.5 10.5 7.08578644"></polygon>
            <polygon id="Line" fill-rule="nonzero" points="0.5 5 15.5 5 15.5 3 0.5 3"></polygon>
        </g>
    </g>
</svg>