<?xml version="1.0" encoding="UTF-8"?>
<svg width="20px" height="20px" viewBox="0 0 20 20" version="1.1" xmlns="http://www.w3.org/2000/svg" xmlns:xlink="http://www.w3.org/1999/xlink">
    <!-- Generator: Sketch 50.2 (55047) - http://www.bohemiancoding.com/sketch -->
    <title>card-20</title>
    <desc>Created with Sketch.</desc>
    <defs></defs>
    <g id="card-20" stroke="none" stroke-width="1" fill="none" fill-rule="evenodd">
        <g id="card-20-crop" transform="translate(1.000000, 3.000000)" fill="#FF0000">
            <path d="M15.6966,11.0002 L2.3176,11.0002 C2.1546,11.0002 1.9996,10.8462 1.9996,10.7272 L1.9996,5.0002 L15.9966,5.0002 L15.9966,10.7602 C15.9986,10.8282 15.9646,10.8782 15.9346,10.9092 C15.9016,10.9432 15.8276,11.0002 15.6966,11.0002 Z M15.6966,2.0002 C15.7796,2.0002 15.8676,2.0382 15.9296,2.1032 C15.9736,2.1482 15.9976,2.1992 15.9966,2.2722 L15.9966,3.0002 L1.9996,3.0002 L1.9996,2.2722 C1.9996,2.1532 2.1546,2.0002 2.3176,2.0002 L15.6966,2.0002 Z M17.9956,2.3052 C18.0156,1.7172 17.7916,1.1522 17.3676,0.7132 C16.9286,0.2602 16.3196,0.0002 15.6966,0.0002 L2.3176,0.0002 C1.0616,0.0002 -0.0004,1.0402 -0.0004,2.2722 L-0.0004,10.7272 C-0.0004,11.9592 1.0616,13.0002 2.3176,13.0002 L15.6966,13.0002 C16.3396,13.0002 16.9346,12.7512 17.3716,12.3002 C17.7936,11.8642 18.0156,11.2932 17.9966,10.7272 L17.9956,2.3052 Z" id="Fill-1"></path>
            <polygon id="Fill-4" points="2.996 8 6.996 8 6.996 6 2.996 6"></polygon>
        </g>
    </g>
</svg>