<?xml version="1.0" encoding="UTF-8"?>
<svg width="20px" height="20px" viewBox="0 0 20 20" version="1.1" xmlns="http://www.w3.org/2000/svg" xmlns:xlink="http://www.w3.org/1999/xlink">
    <!-- Generator: Sketch 50.2 (55047) - http://www.bohemiancoding.com/sketch -->
    <title>chat-20</title>
    <desc>Created with Sketch.</desc>
    <defs></defs>
    <g id="chat-20" stroke="none" stroke-width="1" fill="none" fill-rule="evenodd">
        <g id="chat-20-crop" transform="translate(0.000000, 2.000000)" fill="#FF0000">
            <path d="M12.998,0 L6.998,0 C3.415,0 0.5,2.915 0.5,6.498 C0.5,10.081 3.415,12.996 6.998,12.996 L7.802,12.996 L11.998,17.15 L11.998,11 L9.998,11 L9.998,12.356 L8.624,10.996 L6.998,10.996 C4.518,10.996 2.5,8.978 2.5,6.498 C2.5,4.018 4.518,2 6.998,2 L12.998,2 C15.478,2 17.496,4.018 17.496,6.498 C17.496,8.978 15.478,10.996 12.998,10.996 L12.998,12.996 C16.581,12.996 19.496,10.081 19.496,6.498 C19.496,2.915 16.581,0 12.998,0" id="Fill-1"></path>
        </g>
    </g>
</svg>