<?xml version="1.0" encoding="UTF-8"?>
<svg width="20px" height="20px" viewBox="0 0 20 20" version="1.1" xmlns="http://www.w3.org/2000/svg" xmlns:xlink="http://www.w3.org/1999/xlink">
    <!-- Generator: Sketch 50.2 (55047) - http://www.bohemiancoding.com/sketch -->
    <title>check-enclosed-20</title>
    <desc>Created with Sketch.</desc>
    <defs></defs>
    <g id="check-enclosed-20" stroke="none" stroke-width="1" fill="none" fill-rule="evenodd">
        <g id="check-enclosed-20-crop" transform="translate(1.000000, 1.000000)" fill="#FF0000" fill-rule="nonzero">
            <path d="M9,2 C5.141,2 2,5.14 2,9 C2,12.86 5.141,16 9,16 C12.859,16 16,12.86 16,9 C16,5.14 12.859,2 9,2 M9,18 C4.037,18 0,13.962 0,9 C0,4.038 4.037,0 9,0 C13.963,0 18,4.038 18,9 C18,13.962 13.963,18 9,18" id="Fill-1"></path>
            <polygon id="Fill-3" points="7.854 13.2470002 4.29475 9.64250019 5.71875 8.23750019 7.868 10.4140002 12.507 5.80000019 13.917 7.21800019"></polygon>
        </g>
    </g>
</svg>