<?xml version="1.0" encoding="UTF-8"?>
<svg width="20px" height="20px" viewBox="0 0 20 20" version="1.1" xmlns="http://www.w3.org/2000/svg" xmlns:xlink="http://www.w3.org/1999/xlink">
    <!-- Generator: Sketch 50.2 (55047) - http://www.bohemiancoding.com/sketch -->
    <title>clipboard-20</title>
    <desc>Created with Sketch.</desc>
    <defs></defs>
    <g id="clipboard-20" stroke="none" stroke-width="1" fill="none" fill-rule="evenodd">
        <g id="clipboard-20-crop" transform="translate(2.000000, 1.000000)" fill="#FF0000">
            <path d="M14,15.6616 C14,15.8576 13.854,15.9996 13.654,15.9996 L2.346,15.9996 C2.146,15.9996 2,15.8576 2,15.6616 L2,3.3296 C2,3.1486 2.161,3.0036 2.346,2.9996 L7,2.9996 L7,3.9996 L5,3.9996 L5,5.9996 L11,5.9996 L11,3.9996 L9,3.9996 L9,2.9996 L13.634,2.9996 C13.839,3.0036 14,3.1486 14,3.3296 L14,15.6616 Z M9,0.9996 L9,-0.0004 L7,-0.0004 L7,0.9996 L2.325,0.9996 C1.021,1.0266 0,2.0496 0,3.3296 L0,15.6616 C0,16.9726 1.03,17.9996 2.346,17.9996 L13.654,17.9996 C14.97,17.9996 16,16.9726 16,15.6616 L16,3.3296 C16,2.0496 14.979,1.0266 13.654,0.9996 L9,0.9996 Z" id="Fill-1"></path>
            <polygon id="Fill-4" points="4 10 12 10 12 8 4 8"></polygon>
            <polygon id="Fill-6" points="4 14 12 14 12 12 4 12"></polygon>
        </g>
    </g>
</svg>