<?xml version="1.0" encoding="UTF-8"?>
<svg width="20px" height="20px" viewBox="0 0 20 20" version="1.1" xmlns="http://www.w3.org/2000/svg" xmlns:xlink="http://www.w3.org/1999/xlink">
    <!-- Generator: Sketch 50.2 (55047) - http://www.bohemiancoding.com/sketch -->
    <title>clock-20</title>
    <desc>Created with Sketch.</desc>
    <defs></defs>
    <g id="clock-20" stroke="none" stroke-width="1" fill="none" fill-rule="evenodd">
        <g id="clock-20-crop" transform="translate(1.000000, 1.000000)" fill="#FF0000" fill-rule="nonzero">
            <path d="M9,0 C4.03872003,0 0,4.0387203 0,9 C0,13.9612797 4.03872003,18 9,18 C13.96128,18 18,13.9612797 18,9 C18,4.0387203 13.96128,0 9,0 Z M9,2 C12.8733333,2 16,5.12666667 16,9 C16,12.8733333 12.8733333,16 9,16 C5.12666667,16 2,12.8733333 2,9 C2,5.12666667 5.12666667,2 9,2 Z" id="Page-1"></path>
            <polygon id="Line" points="10 8.46482176 13.3046376 10.6679545 12.1952229 12.3320455 8 9.53517824 8 4 10 4"></polygon>
        </g>
    </g>
</svg>