<?xml version="1.0" encoding="UTF-8"?>
<svg width="20px" height="20px" viewBox="0 0 20 20" version="1.1" xmlns="http://www.w3.org/2000/svg" xmlns:xlink="http://www.w3.org/1999/xlink">
    <!-- Generator: Sketch 57.1 (83088) - https://sketch.com -->
    <title>Icons/20px/coins-20</title>
    <desc>Created with Sketch.</desc>
    <g id="Icons/20px/coins-20" stroke="none" stroke-width="1" fill="none" fill-rule="evenodd">
        <g>
            <rect id="invisible-20" x="0" y="0" width="20" height="20"></rect>
            <g id="outlines" transform="translate(1.000000, 2.000000)" fill="#FF0000" fill-rule="nonzero">
                <path d="M8,15 L8,17 L8.8817842e-16,17 L8.8817842e-16,15 L8,15 Z M18,15 L18,17 L10,17 L10,15 L18,15 Z M8,12 L8,14 L8.8817842e-16,14 L8.8817842e-16,12 L8,12 Z M18,12 L18,14 L10,14 L10,12 L18,12 Z M14,4 C16.209139,4 18,5.790861 18,8 C18,10.209139 16.209139,12 14,12 C11.790861,12 10,10.209139 10,8 C10,5.790861 11.790861,4 14,4 Z M8,9 L8,11 L8.8817842e-16,11 L8.8817842e-16,9 L8,9 Z M14,6 C12.8954305,6 12,6.8954305 12,8 C12,9.1045695 12.8954305,10 14,10 C15.1045695,10 16,9.1045695 16,8 C16,6.8954305 15.1045695,6 14,6 Z M8,6 L8,8 L8.8817842e-16,8 L8.8817842e-16,6 L8,6 Z M10,3 L10,5 L2,5 L2,3 L10,3 Z M8,0 L8,2 L8.8817842e-16,2 L8.8817842e-16,0 L8,0 Z" id="Combined-Shape"></path>
            </g>
        </g>
    </g>
</svg>