<?xml version="1.0" encoding="UTF-8"?>
<svg width="20px" height="20px" viewBox="0 0 20 20" version="1.1" xmlns="http://www.w3.org/2000/svg" xmlns:xlink="http://www.w3.org/1999/xlink">
    <!-- Generator: Sketch 58 (84663) - https://sketch.com -->
    <title>Icons/20px/contentcard-20</title>
    <desc>Created with Sketch.</desc>
    <g id="Icons/20px/contentcard-20" stroke="none" stroke-width="1" fill="none" fill-rule="evenodd">
        <g>
            <rect id="invisible-20" x="0" y="0" width="20" height="20"></rect>
            <g id="outlines" transform="translate(1.000000, 3.000000)" fill="#FF0000" fill-rule="nonzero">
                <path d="M18,0 L18,14 L0,14 L0,0 L18,0 Z M16,2 L2,2 L2,12 L16,12 L16,2 Z M9,4 C10.6568542,4 12,5.34314575 12,7 L12,7 L10,7 C10,6.44771525 9.55228475,6 9,6 C8.44771525,6 8,6.44771525 8,7 C8,7.55228475 8.44771525,8 9,8 L9,8 L9,10 C7.34314575,10 6,8.65685425 6,7 C6,5.34314575 7.34314575,4 9,4 Z" id="Combined-Shape"></path>
            </g>
        </g>
    </g>
</svg>