<?xml version="1.0" encoding="UTF-8"?>
<svg width="20px" height="20px" viewBox="0 0 20 20" version="1.1" xmlns="http://www.w3.org/2000/svg" xmlns:xlink="http://www.w3.org/1999/xlink">
    <!-- Generator: Sketch 50.2 (55047) - http://www.bohemiancoding.com/sketch -->
    <title>dog-20</title>
    <desc>Created with Sketch.</desc>
    <defs></defs>
    <g id="dog-20" stroke="none" stroke-width="1" fill="none" fill-rule="evenodd">
        <g id="dog-20-crop" transform="translate(1.850000, 1.000000)" fill="#FF0000" fill-rule="nonzero">
            <path d="M8.68803385,13.6286522 L8.22936615,15.5753478 C6.83928482,15.2478259 5.8327,14.0192829 5.8327,12.57 C5.8327,10.8597195 7.22131541,9.483 8.9197,9.483 C9.56860633,9.483 10.1979599,9.69665786 10.7343039,10.0673886 L9.59709607,11.7126114 C9.38194561,11.5638955 9.14365859,11.483 8.9197,11.483 C8.32205136,11.483 7.8327,11.9681592 7.8327,12.57 C7.8327,13.0772602 8.18793036,13.5108211 8.68803385,13.6286522 Z" id="Stroke-1"></path>
            <path d="M5.6914,16 L5.6914,18 L1.1500001,18 L1.1500001,14.7608125 C1.1500001,13.7833862 1.92485635,13.0078125 2.9030001,13.0078125 L5.1500001,13.0078125 L5.1500001,15.0078125 L3.1500001,15.0078125 L3.1500001,16 L5.6914,16 Z" id="Stroke-3"></path>
            <path d="M2.0326276,3.4086 L2.0102509,3.5218379 C1.97177217,3.8125003 2.03795102,4.13735008 2.2178606,4.43647877 C2.62545684,5.15555685 3.54873365,5.39838774 4.29277877,4.9766394 L5.27902123,6.7165606 C3.58367527,7.67753641 1.4358351,7.11263329 0.491486269,5.44589015 C0.0892193194,4.77861626 -0.0700665174,3.99673543 0.0374827888,3.19871395 L0.387484701,1.4086 L3.0081214,1.4086 C3.86602183,0.521244246 5.06558092,-0.0004 6.3469,-0.0004 C8.77436977,-0.0004 10.9362437,1.87781128 11.1500001,4.3406 L11.1500001,4.8966 C11.1500001,6.19017658 10.1102983,7.3125 8.6500001,7.3125 C7.18970188,7.3125 6.1500001,6.19017658 6.1500001,4.8966 L6.1500001,4 L8.1500001,4 L8.1500001,4.8966 C8.1500001,5.11832342 8.32988205,5.3125 8.6500001,5.3125 C8.97011814,5.3125 9.1500001,5.11832342 9.1500001,4.8966 L9.15388262,4.42863395 C9.03728981,3.10936865 7.75991494,1.9996 6.3469,1.9996 C5.51319585,1.9996 4.74402743,2.38418421 4.25669691,3.01808589 L3.95647774,3.4086 L2.0326276,3.4086 Z" id="Stroke-5"></path>
            <polygon id="Stroke-7" points="3.1500001 8 5.1500001 8 5.1500001 13.44 3.1500001 13.44"></polygon>
            <path d="M15.1640005,11 L17.1640005,11 C17.1640005,13.1563687 15.4062014,14.915 13.2500005,14.915 L13.2500005,12.915 C14.30142,12.915 15.1640005,12.0520111 15.1640005,11 Z" id="Stroke-9"></path>
            <path d="M7.99911402,7.18305841 L8.86338617,5.37944159 L9.48683607,5.67819151 L9.59908153,5.74116219 C12.3857332,7.54961887 14.1247,10.6563089 14.1247,14.0249999 C14.1247,15.192266 13.9407881,16.3146077 13.5766045,17.3358809 L13.3397812,18 L6.3797,18 L5.6257,18 L5.6257,16 L11.8924441,16 C12.0462048,15.3799481 12.1247,14.7154851 12.1247,14.0249999 C12.1247,11.3646633 10.7582749,8.9026025 8.56268649,7.45311577 L7.99911402,7.18305841 Z" id="Stroke-13"></path>
        </g>
    </g>
</svg>