<?xml version="1.0" encoding="UTF-8"?>
<svg width="20px" height="20px" viewBox="0 0 20 20" version="1.1" xmlns="http://www.w3.org/2000/svg" xmlns:xlink="http://www.w3.org/1999/xlink">
    <!-- Generator: Sketch 50.2 (55047) - http://www.bohemiancoding.com/sketch -->
    <title>ellipsis-enclosed-20</title>
    <desc>Created with Sketch.</desc>
    <defs></defs>
    <g id="ellipsis-enclosed-20" stroke="none" stroke-width="1" fill="none" fill-rule="evenodd">
        <g id="ellipsis-enclosed-20-crop" transform="translate(1.000000, 1.000000)" fill="#FF0000">
            <g id="Page-1">
                <g id="Group-3">
                    <path d="M11.75,15.4356 L11.75,15.4396 L11.741,15.4396 C10.899,15.7996 9.972,15.9996 9,15.9996 C8.028,15.9996 7.101,15.7996 6.259,15.4396 L6.16,15.4396 L6.16,15.3926 C4.548,14.6726 3.254,13.3656 2.56,11.7406 C2.2,10.8986 2,9.9726 2,8.9996 C2,8.0276 2.2,7.1016 2.56,6.2596 C3.254,4.6336 4.548,3.3266 6.16,2.6076 L6.16,2.5596 L6.259,2.5596 C7.102,2.2006 8.028,1.9996 9,1.9996 C9.972,1.9996 10.898,2.2006 11.741,2.5596 L11.75,2.5596 L11.75,2.5646 C13.405,3.2746 14.733,4.6036 15.44,6.2596 C15.8,7.1016 16,8.0276 16,8.9996 C16,9.9726 15.8,10.8986 15.44,11.7406 C14.733,13.3966 13.405,14.7256 11.75,15.4356 M15.44,2.7266 C15.385,2.6696 15.33,2.6146 15.274,2.5596 C13.651,0.9786 11.439,-0.0004 9,-0.0004 C6.561,-0.0004 4.349,0.9786 2.726,2.5596 C2.67,2.6146 2.615,2.6696 2.56,2.7266 C0.979,4.3486 0,6.5606 0,8.9996 C0,11.4386 0.979,13.6516 2.56,15.2736 C2.615,15.3296 2.67,15.3856 2.726,15.4396 C4.349,17.0216 6.561,17.9996 9,17.9996 C11.439,17.9996 13.651,17.0216 15.274,15.4396 C15.33,15.3856 15.385,15.3296 15.44,15.2736 C17.021,13.6516 18,11.4386 18,8.9996 C18,6.5606 17.021,4.3486 15.44,2.7266" id="Fill-1"></path>
                </g>
                <path d="M6.16,7.8014 C5.933,7.6484 5.647,7.5604 5.31,7.5604 C4.41,7.5604 3.78,8.1904 3.78,9.0004 C3.78,9.8104 4.5,10.4404 5.31,10.4404 C5.632,10.4404 5.923,10.3374 6.16,10.1664 C6.519,9.9074 6.75,9.4874 6.75,9.0004 C6.75,8.4934 6.539,8.0574 6.16,7.8014" id="Fill-4"></path>
                <path d="M9,7.5599 C8.19,7.5599 7.56,8.1899 7.56,8.9999 C7.56,9.8099 8.19,10.4399 9,10.4399 C9.81,10.4399 10.44,9.8099 10.44,8.9999 C10.44,8.1899 9.81,7.5599 9,7.5599" id="Fill-6"></path>
                <path d="M12.69,7.5599 C12.322,7.5599 12.003,7.6689 11.75,7.8489 C11.384,8.1089 11.16,8.5209 11.16,8.9999 C11.16,9.4619 11.398,9.8599 11.75,10.1219 C12.015,10.3189 12.342,10.4399 12.69,10.4399 C13.5,10.4399 14.22,9.8099 14.22,8.9999 C14.22,8.1899 13.5,7.5599 12.69,7.5599" id="Fill-8"></path>
            </g>
        </g>
    </g>
</svg>