<?xml version="1.0" encoding="UTF-8"?>
<svg width="20px" height="20px" viewBox="0 0 20 20" version="1.1" xmlns="http://www.w3.org/2000/svg" xmlns:xlink="http://www.w3.org/1999/xlink">
    <!-- Generator: Sketch 50.2 (55047) - http://www.bohemiancoding.com/sketch -->
    <title>family-20</title>
    <desc>Created with Sketch.</desc>
    <defs></defs>
    <g id="family-20" stroke="none" stroke-width="1" fill="none" fill-rule="evenodd">
        <g id="family-20-crop" transform="translate(0.600000, 0.100000)" fill="#FF0000" fill-rule="nonzero">
            <path d="M2.39999998,18.9000001 L0.399999976,18.9000001 L0.399999976,13.4312501 C0.399999976,11.115188 1.85368232,9.28572881 4.2456231,8.91198806 L4.55437686,10.8880121 C3.16790983,11.1046476 2.39999998,12.0710622 2.39999998,13.4312501 L2.39999998,18.9000001 Z" id="Stroke-1"></path>
            <path d="M7.93790684,5.9007865 C6.29220858,5.9007865 5.18091841,5.08037525 4.58105716,3.87304015 L6.37216452,2.98313319 C6.65784563,3.55812088 7.12200424,3.9007865 7.93790684,3.9007865 L12.0850023,3.9007865 L12.26222,4.67865308 C12.3535733,5.07963265 12.4,5.49163906 12.4,5.90945077 C12.4,8.94687306 9.93765302,11.4099014 6.90045065,11.4099014 C3.86251732,11.4099014 1.39999998,8.94704342 1.39999998,5.90945077 C1.39999998,2.87123713 3.86223701,0.409000095 6.90045065,0.409000095 C8.52302428,0.409000095 10.0325346,1.11707845 11.0708165,2.32311768 L9.55512237,3.62798216 C8.89275756,2.85859771 7.93428702,2.4090001 6.90045065,2.4090001 C4.96680651,2.4090001 3.39999998,3.97580663 3.39999998,5.90945077 C3.39999998,7.84253585 4.96714876,9.40990145 6.90045065,9.40990145 C8.83295961,9.40990145 10.4,7.84242742 10.4,5.90945077 C10.4,5.90752498 9.57930226,5.90463688 7.93790684,5.9007865 Z" id="Stroke-3"></path>
            <path d="M18.418,18.9000001 L16.418,18.9000001 L16.418,17.5250001 C16.418,16.7082033 15.6052674,15.9117808 14.3137144,15.5888926 L14.7987856,13.6486076 C16.8968765,14.1731303 18.418,15.6637274 18.418,17.5250001 L18.418,18.9000001 Z" id="Stroke-9"></path>
            <path d="M11.5042856,18.9000001 L9.5042856,18.9000001 L9.5042856,17.5250001 C9.5042856,16.7082033 8.69155298,15.9117808 7.39999998,15.5888926 L7.88507123,13.6486076 C9.98316212,14.1731303 11.5042856,15.6637274 11.5042856,17.5250001 L11.5042856,18.9000001 Z" id="Stroke-9" transform="translate(9.452143, 16.274304) scale(-1, 1) translate(-9.452143, -16.274304) "></path>
            <path d="M12.9,15.9000001 C10.9670034,15.9000001 9.39999998,14.3329967 9.39999998,12.4000001 C9.39999998,10.4670035 10.9670034,8.9000001 12.9,8.9000001 C14.8329966,8.9000001 16.4,10.4670035 16.4,12.4000001 C16.4,14.3329967 14.8329966,15.9000001 12.9,15.9000001 Z M12.9,13.9000001 C13.7284271,13.9000001 14.4,13.2284272 14.4,12.4000001 C14.4,11.571573 13.7284271,10.9000001 12.9,10.9000001 C12.0715729,10.9000001 11.4,11.571573 11.4,12.4000001 C11.4,13.2284272 12.0715729,13.9000001 12.9,13.9000001 Z" id="Oval-7"></path>
        </g>
    </g>
</svg>