<?xml version="1.0" encoding="UTF-8"?>
<svg width="20px" height="20px" viewBox="0 0 20 20" version="1.1" xmlns="http://www.w3.org/2000/svg" xmlns:xlink="http://www.w3.org/1999/xlink">
    <!-- Generator: Sketch 50.2 (55047) - http://www.bohemiancoding.com/sketch -->
    <title>gear-20</title>
    <desc>Created with Sketch.</desc>
    <defs></defs>
    <g id="gear-20" stroke="none" stroke-width="1" fill="none" fill-rule="evenodd">
        <g id="gear-20-crop" transform="translate(1.000000, 0.000000)" fill="#FF0000">
            <path d="M9.001,11.3096 C8.402,11.3096 7.914,10.8216 7.914,10.2226 C7.914,9.6226 8.402,9.1356 9.001,9.1356 C9.601,9.1356 10.088,9.6226 10.088,10.2226 C10.088,10.8216 9.601,11.3096 9.001,11.3096 M9.001,7.1356 C7.299,7.1356 5.914,8.5196 5.914,10.2226 C5.914,11.9246 7.299,13.3096 9.001,13.3096 C10.704,13.3096 12.088,11.9246 12.088,10.2226 C12.088,8.5196 10.704,7.1356 9.001,7.1356" id="Fill-1"></path>
            <path d="M14.123,10.861 L13.879,11.51 C13.628,12.179 13.242,12.833 12.76,13.402 L12.305,13.94 L13.252,15.576 L11.749,16.455 L10.791,14.801 L10.076,14.96 C9.268,15.139 8.561,15.118 7.952,14.966 L7.221,14.783 L6.253,16.455 L4.75,15.576 L5.714,13.911 L5.213,13.369 C4.672,12.783 4.332,12.214 4.146,11.579 L3.935,10.861 L2,10.861 L2,9.13399995 L3.879,9.13399995 L4.123,8.48499995 C4.373,7.81699995 4.761,7.16199995 5.242,6.59299995 L5.697,6.05599995 L4.749,4.41999995 L6.253,3.53999995 L7.211,5.19399995 L7.926,5.03499995 C8.32,4.94699995 8.641,4.90999995 9.001,4.90999995 C9.377,4.90999995 9.74,4.95099995 10.05,5.02899995 L10.781,5.21199995 L11.749,3.53999995 L13.253,4.41999995 L12.289,6.08399995 L12.789,6.62599995 C13.331,7.21299995 13.67,7.78099995 13.856,8.41599995 L14.068,9.13399995 L16.002,9.13399995 L16.002,10.861 L14.123,10.861 Z M18.002,12.861 L18.002,7.13399995 L15.512,7.13399995 C15.314,6.68699995 15.059,6.25799995 14.74,5.84099995 L15.981,3.69799995 L11.024,0.799999952 L9.778,2.95299995 C9.269,2.89499995 8.74,2.89399995 8.226,2.95499995 L6.978,0.799999952 L2.021,3.69799995 L3.276,5.86599995 C2.99,6.26899995 2.737,6.69499995 2.527,7.13399995 L0,7.13399995 L0,12.861 L2.49,12.861 C2.688,13.308 2.944,13.737 3.262,14.154 L2.02,16.297 L6.978,19.195 L8.225,17.042 C8.732,17.1 9.262,17.102 9.777,17.04 L11.024,19.195 L15.982,16.297 L14.726,14.129 C15.013,13.726 15.265,13.299 15.475,12.861 L18.002,12.861 Z" id="Fill-3"></path>
        </g>
    </g>
</svg>