<?xml version="1.0" encoding="UTF-8"?>
<svg width="20px" height="20px" viewBox="0 0 20 20" version="1.1" xmlns="http://www.w3.org/2000/svg" xmlns:xlink="http://www.w3.org/1999/xlink">
    <!-- Generator: Sketch 50.2 (55047) - http://www.bohemiancoding.com/sketch -->
    <title>globe-20</title>
    <desc>Created with Sketch.</desc>
    <defs></defs>
    <g id="globe-20" stroke="none" stroke-width="1" fill="none" fill-rule="evenodd">
        <g id="globe-20-crop" transform="translate(1.000000, 0.000000)" fill="#FF0000">
            <polygon id="Line-3" fill-rule="nonzero" points="1.29289322 1.70710678 2.70710678 0.292893219 6.74264069 4.32842712 5.32842712 5.74264069"></polygon>
            <polygon id="Line-3" fill-rule="nonzero" points="10.7928932 11.2071068 12.2071068 9.79289322 16.2446865 13.8304729 14.8304729 15.2446865"></polygon>
            <polygon id="Line-4" fill-rule="nonzero" points="8 15 10 15 10 18 8 18"></polygon>
            <polygon id="Line-4" fill-rule="nonzero" points="6 19 6 17 12 17 12 19"></polygon>
            <path d="M12.4994497,7.56108317 C12.533185,5.62839044 10.9937758,4.03428559 9.06108316,4.00055031 C7.12839043,3.96681504 5.53428559,5.50622418 5.50055031,7.43891685 C5.46681504,9.37160956 7.00622419,10.9657144 8.93891684,10.9994497 C10.8716096,11.033185 12.4657144,9.49377579 12.4994497,7.56108317 Z M14.4991451,7.59598797 C14.4461324,10.6330819 11.941106,13.0521577 8.90401204,12.9991451 C5.8669181,12.9461324 3.44784225,10.441106 3.50085492,7.40401204 C3.55386759,4.3669181 6.05889397,1.94784225 9.09598797,2.00085492 C12.1330819,2.05386759 14.5521577,4.55889397 14.4991451,7.59598797 Z" id="Oval" fill-rule="nonzero"></path>
            <path d="M13.5155551,12.19 C10.9815551,14.636 6.8955551,14.602 4.4065551,12.113 L4.3245551,12.03 C1.8345551,9.45199998 1.9065551,5.32899998 4.4845551,2.83799998 L3.0955551,1.39999998 C-0.281444896,4.66099998 -0.375444896,10.042 2.8855551,13.419 C2.9205551,13.456 2.9555551,13.492 2.9915551,13.527 C6.2625551,16.797 11.5635551,16.855 14.9045551,13.628 L13.5155551,12.19 Z" id="Fill-1"></path>
        </g>
    </g>
</svg>