<?xml version="1.0" encoding="UTF-8"?>
<svg width="20px" height="20px" viewBox="0 0 20 20" version="1.1" xmlns="http://www.w3.org/2000/svg" xmlns:xlink="http://www.w3.org/1999/xlink">
    <!-- Generator: Sketch 50.2 (55047) - http://www.bohemiancoding.com/sketch -->
    <title>gravestones-20</title>
    <desc>Created with Sketch.</desc>
    <defs></defs>
    <g id="gravestones-20" stroke="none" stroke-width="1" fill="none" fill-rule="evenodd">
        <g id="gravestones-20-crop" transform="translate(1.000000, 0.000000)" fill="#FF0000" fill-rule="nonzero">
            <path d="M4,12.4365044 C4,10.3553946 5.02811416,8.75715728 6.68548312,7.62366036 C7.64324208,6.96863613 8.59069012,6.59561925 9.25873993,6.4295396 L9.5,6.36956145 L9.74126007,6.4295396 C10.4093099,6.59561925 11.3567579,6.96863613 12.3145169,7.62366036 C13.9718858,8.75715728 15,10.3553946 15,12.4365044 L15,19 L4,19 L4,12.4365044 Z M9.16321228,8.56649714 C8.70148792,8.74828123 8.23980955,8.98364004 7.81451688,9.27450341 C6.65938584,10.0645131 6,11.0895501 6,12.4365044 L6,17 L13,17 L13,12.4365044 C13,11.0895501 12.3406142,10.0645131 11.1854831,9.27450341 C10.7601905,8.98364004 10.2985121,8.74828123 9.83678772,8.56649714 C9.70812663,8.51584237 9.59458966,8.47491828 9.5,8.44319539 C9.40541034,8.47491828 9.29187337,8.51584237 9.16321228,8.56649714 Z" id="Fill-1"></path>
            <path d="M2,13.0040001 L4.5,13.0040001 L4.5,15.0040001 L0,15.0040001 L0,9.08813056 C0,6.99423167 1.01692925,5.3833523 2.65911023,4.23909855 C3.61025609,3.57635051 4.55171738,3.19879506 5.21619548,3.03058083 L5.46281443,2.96814864 L5.7092865,3.03115816 C6.37256136,3.2007215 7.31224267,3.58018963 8.26146319,4.24482234 C8.55886018,4.4530561 8.83889871,4.67984481 9.09832679,4.92639636 C9.74187875,5.53800605 10.2397745,6.25199547 10.5519277,7.07334552 L8.68239098,7.78386108 C8.48249647,7.25789072 8.15657422,6.79051366 7.72054923,6.37613047 C7.53561275,6.20037318 7.3326597,6.03601202 7.11433193,5.88314156 C6.69431365,5.58904984 6.23856243,5.35097862 5.782875,5.16696001 C5.66022763,5.11743176 5.55157694,5.07710546 5.46034119,5.04550474 C5.36881228,5.07695404 5.25978407,5.11711735 5.136696,5.16647951 C4.6800434,5.3496115 4.22334652,5.58678991 3.80249605,5.88003391 C2.6561731,6.67877921 2,7.71819833 2,9.08813056 L2,13.0040001 Z" id="Stroke-3"></path>
            <path d="M12.6517091,3.13977488 C12.2401228,3.29508116 11.8287773,3.49592671 11.450914,3.7432981 C11.0850354,3.98282365 10.7714008,4.25313542 10.5232734,4.55250777 L8.98342235,3.27624027 C9.36751135,2.81282657 9.83116539,2.41321778 10.3554634,2.0699817 C11.2289963,1.49811598 12.0908564,1.17290527 12.7008264,1.02732091 L12.9318809,0.972174065 L13.1630529,1.02682655 C13.7740091,1.17126566 14.6373281,1.49485911 15.5124469,2.06512581 C17.0427556,3.06234368 18,4.48108037 18,6.33900151 L18,12.3830455 L13.685007,12.3830455 L13.685007,10.3830455 L16,10.3830455 L16,6.33900151 C16,5.24161224 15.432112,4.39994255 14.4205333,3.74075248 C14.0419849,3.49407332 13.6298573,3.29396357 13.2174724,3.13939146 C13.1102443,3.0991997 13.0148564,3.06624028 12.9341298,3.04015189 C12.853648,3.06636189 12.7585731,3.09945127 12.6517091,3.13977488 Z" id="Stroke-5"></path>
        </g>
    </g>
</svg>