<?xml version="1.0" encoding="UTF-8"?>
<svg width="20px" height="20px" viewBox="0 0 20 20" version="1.1" xmlns="http://www.w3.org/2000/svg" xmlns:xlink="http://www.w3.org/1999/xlink">
    <!-- Generator: Sketch 50.2 (55047) - http://www.bohemiancoding.com/sketch -->
    <title>heartbeat-20</title>
    <desc>Created with Sketch.</desc>
    <defs></defs>
    <g id="heartbeat-20" stroke="none" stroke-width="1" fill="none" fill-rule="evenodd">
        <g id="heartbeat-20-crop" transform="translate(0.284832, 0.600997)" fill="#FF0000">
            <g id="Page-1" transform="translate(0.715168, 0.399003)">
                <path d="M2.395,2.3916 C2.641,2.1396 2.971,1.9996 3.325,1.9996 C3.679,1.9996 4.009,2.1396 4.255,2.3916 L5.503,3.6756 L6.752,2.3916 C7.243,1.8876 8.121,1.8876 8.611,2.3916 C9.137,2.9316 9.137,3.8446 8.612,4.3846 L5.503,7.5806 L2.395,4.3846 L2.395,4.3846 C1.87,3.8446 1.87,2.9316 2.395,2.3916 L2.395,2.3916 Z M5.503,10.4506 L10.046,5.7786 C11.327,4.4606 11.327,2.3156 10.045,0.9966 C8.855,-0.2274 6.769,-0.2994 5.503,0.8206 C4.902,0.2896 4.138,-0.0004 3.326,-0.0004 L3.325,-0.0004 C2.426,-0.0004 1.587,0.3536 0.961,0.9976 C-0.32,2.3156 -0.32,4.4606 0.961,5.7786 L5.503,10.4506 Z" id="Fill-1"></path>
                <polygon id="Fill-4" points="17.5698 12 14.0208 6.085 9.0998 13.959 7.1118 9.989 4.5138 14 0.0038 14 0.0038 16 5.6008 16 6.8888 14.011 8.9068 18.041 13.9858 9.915 16.4368 14 18.0038 14 18.0038 12"></polygon>
            </g>
        </g>
    </g>
</svg>