<?xml version="1.0" encoding="UTF-8"?>
<svg width="20px" height="20px" viewBox="0 0 20 20" version="1.1" xmlns="http://www.w3.org/2000/svg" xmlns:xlink="http://www.w3.org/1999/xlink">
    <!-- Generator: Sketch 50.2 (55047) - http://www.bohemiancoding.com/sketch -->
    <title>house-sun-20</title>
    <desc>Created with Sketch.</desc>
    <defs></defs>
    <g id="house-sun-20" stroke="none" stroke-width="1" fill="none" fill-rule="evenodd">
        <g id="house-sun-20-crop" transform="translate(1.000000, 1.000000)" fill="#FF0000">
            <path d="M15,0 L13,0 C13,2.757 15.243,5 18,5 L18,3 C16.318,3 15,1.682 15,0 L15,0 Z" id="Fill-1"></path>
            <polygon id="Fill-3" points="10.6729 5.9131 12.0869 7.3271 14.2069 5.2071 12.7929 3.7931"></polygon>
            <polygon id="Fill-5" points="9 2 12 2 12 0 9 0"></polygon>
            <polygon id="Fill-7" points="16 9 18 9 18 6 16 6"></polygon>
            <polygon id="Fill-8" points="7.0015 4.7412 0.0005 10.0942 0.0005 18.0002 2.0005 18.0002 2.0005 11.0822 7.0015 7.2592 12.0005 11.0822 12.0005 18.0002 14.0005 18.0002 14.0005 10.0942"></polygon>
            <polygon id="Fill-9" points="4 18 6 18 6 14 8 14 8 18 10 18 10 12 4 12"></polygon>
        </g>
    </g>
</svg>