<?xml version="1.0" encoding="UTF-8"?>
<svg width="20px" height="20px" viewBox="0 0 20 20" version="1.1" xmlns="http://www.w3.org/2000/svg" xmlns:xlink="http://www.w3.org/1999/xlink">
    <!-- Generator: Sketch 50.2 (55047) - http://www.bohemiancoding.com/sketch -->
    <title>id-card-20</title>
    <desc>Created with Sketch.</desc>
    <defs></defs>
    <g id="id-card-20" stroke="none" stroke-width="1" fill="none" fill-rule="evenodd">
        <g id="id-card-20-crop" transform="translate(1.000000, 3.000000)" fill="#FF0000" fill-rule="nonzero">
            <path d="M16,11.1997 C16,11.59375 15.65625,11.9997 15.2,11.9997 C7.48333333,12.0207333 3.35,12.0207333 2.8,11.9997 C2.453125,11.9997 2,11.609375 2,11.1997 L2,2.8447 L2,2.7997 C2,2.3587 2.359,1.9997 2.8,1.9997 L15.2,1.9997 C15.641,1.9997 16,2.3587 16,2.7997 L16,11.1997 Z M2.8,-0.0003 C1.533,-0.0003 0.472,0.8507 0.128,2.0077 C0.053,2.2607 0,2.5227 0,2.7997 L0,2.8447 L0,11.1997 C0,12.8125 1.3125,13.9997 2.8,13.9997 L15.2,13.9997 C16.8125,13.9997 18,12.75 18,11.1997 L18,2.7997 C18,1.2557 16.744,-0.0003 15.2,-0.0003 L2.8,-0.0003 Z" id="Fill-1"></path>
            <path d="M6.5,4 L6.5,5 C5.94959596,5 5.5,5.44959596 5.5,6.00057208 C5.5,6.55102052 5.94964033,7.00057208 6.5,7.00057208 C7.05069008,7.00057208 7.5,6.55126216 7.5,6.00057208 C7.5,5.44935429 7.05073442,5 6.5,5 L6.5,4 Z M6.5,4 L6.5,3 C8.15539234,3 9.5,4.34487319 9.5,6.00057208 C9.5,7.65583166 8.15525958,9.00057208 6.5,9.00057208 C4.84515923,9.00057208 3.5,7.65567843 3.5,6.00057208 C3.5,4.34502646 4.84502646,3 6.5,3 L6.5,4 Z" id="Fill-7"></path>
            <path d="M11.5,12 L9.5,12 C9.5,10.3431458 8.15685425,9 6.5,9 C4.84314575,9 3.5,10.3431458 3.5,12 L1.5,12 C1.5,9.23857625 3.73857625,7 6.5,7 C9.26142375,7 11.5,9.23857625 11.5,12 Z" id="Oval-5"></path>
            <polygon id="Fill-4" points="11 6 15 6 15 4 11 4"></polygon>
            <polygon id="Fill-6" points="11 9 15 9 15 7 11 7"></polygon>
        </g>
    </g>
</svg>