<?xml version="1.0" encoding="UTF-8"?>
<svg width="20px" height="20px" viewBox="0 0 20 20" version="1.1" xmlns="http://www.w3.org/2000/svg" xmlns:xlink="http://www.w3.org/1999/xlink">
    <!-- Generator: Sketch 50.2 (55047) - http://www.bohemiancoding.com/sketch -->
    <title>minpension-20</title>
    <desc>Created with Sketch.</desc>
    <defs></defs>
    <g id="minpension-20" stroke="none" stroke-width="1" fill="none" fill-rule="evenodd">
        <g id="minpension-20-crop" transform="translate(1.000000, 1.000000)" fill="#FF0000">
            <g id="Layer_1">
                <path d="M17.9346714,7.83596215 L11.8810126,13.9684543 L11.0889451,13.7981073 L13.4651476,6.98422713 L7.80752255,13.9684543 L7.01545505,13.7413249 L9.16535256,6.58675079 L2.82881252,13.9684543 L2.26305002,13.5141956 L4.97871003,6.18927445 L0.0565762504,10.9022082 C0.961796257,14.9337539 4.58267628,18 8.88247131,18 C13.8611813,18 17.9346714,13.9684543 17.9346714,9.02839117 C18.0478239,8.63091483 17.9912476,8.23343849 17.9346714,7.83596215 L17.9346714,7.83596215 Z M4.52610003,10.6750789 L10.2968776,3.74763407 L11.0323688,4.03154574 L8.93904756,11.0157729 L14.7098251,3.8044164 L15.4453164,4.08832808 L12.9559613,11.4700315 L17.7083664,6.47318612 C16.6334176,2.72555205 13.1256901,-3.28626015e-14 9.05220006,-3.28626015e-14 C4.07349003,-3.28626015e-14 0,4.03154574 0,8.97160883 C0,9.14195584 0,9.36908517 0.0565762504,9.53943218 L6.22338754,3.74763407 L6.9588788,3.97476341 L4.52610003,10.6750789 L4.52610003,10.6750789 Z" id="Shape"></path>
            </g>
        </g>
    </g>
</svg>