<?xml version="1.0" encoding="UTF-8"?>
<svg width="20px" height="20px" viewBox="0 0 20 20" version="1.1" xmlns="http://www.w3.org/2000/svg" xmlns:xlink="http://www.w3.org/1999/xlink">
    <!-- Generator: Sketch 50.2 (55047) - http://www.bohemiancoding.com/sketch -->
    <title>bills-coins-20</title>
    <desc>Created with Sketch.</desc>
    <defs></defs>
    <g id="bills-coins-20" stroke="none" stroke-width="1" fill="none" fill-rule="evenodd">
        <g id="bills-coins-20-crop" transform="translate(1.000000, 1.000000)" fill="#FF0000">
            <path d="M13.5176,10.1973 L9.6066,9.3483 C9.4326,7.5793 7.9546,6.1873 6.1406,6.1873 C4.8416,6.1873 3.7176,6.9083 3.1146,7.9623 L2.3806,7.8113 L3.5566,2.3753 L14.6586,4.7573 L13.5176,10.1973 Z M6.1406,11.1873 C5.3136,11.1873 4.6406,10.5143 4.6406,9.6873 C4.6406,8.8603 5.3136,8.1873 6.1406,8.1873 C6.9676,8.1873 7.6406,8.8603 7.6406,9.6873 C7.6406,10.5143 6.9676,11.1873 6.1406,11.1873 L6.1406,11.1873 Z M2.0236,0.0003 L-0.0004,9.3643 L2.6636,9.9113 C2.7806,11.7353 4.2876,13.1873 6.1406,13.1873 C7.4816,13.1873 8.6346,12.4213 9.2226,11.3113 L15.0626,12.5783 L17.0236,3.2193 L2.0236,0.0003 Z" id="Fill-1"></path>
            <path d="M9.79,16.0879 C9.507,16.0879 9.3,15.9929 9.065,15.7249 C9.047,15.7049 9.017,15.6589 9.008,15.6379 L8.955,15.5089 C8.94,15.4799 8.94,15.3219 8.94,15.2379 C8.94,14.7769 9.329,14.3879 9.79,14.3879 C10.251,14.3879 10.641,14.7769 10.641,15.2379 C10.641,15.6989 10.251,16.0879 9.79,16.0879 M9.79,12.3879 C8.219,12.3879 6.94,13.6659 6.94,15.2379 C6.94,15.5249 6.94,15.9119 7.135,16.3379 C7.243,16.6279 7.426,16.9119 7.599,17.0819 C8.161,17.7399 8.919,18.0879 9.79,18.0879 C11.362,18.0879 12.641,16.8099 12.641,15.2379 C12.641,13.6659 11.362,12.3879 9.79,12.3879" id="Fill-4"></path>
        </g>
    </g>
</svg>