<?xml version="1.0" encoding="UTF-8"?>
<svg width="20px" height="20px" viewBox="0 0 20 20" version="1.1" xmlns="http://www.w3.org/2000/svg" xmlns:xlink="http://www.w3.org/1999/xlink">
    <!-- Generator: Sketch 50.2 (55047) - http://www.bohemiancoding.com/sketch -->
    <title>notification-swish-20</title>
    <desc>Created with Sketch.</desc>
    <defs></defs>
    <g id="notification-swish-20" stroke="none" stroke-width="1" fill="none" fill-rule="evenodd">
        <path d="M7.041,17.452 L7.382,17.032 C9.7,17.684 12.251,16.839 13.807,14.937 C15.889,12.379 15.532,8.513 12.915,6.371 L12.439,6.014 L14.603,3.479 L15.041,3.808 C16.904,5.288 18,7.534 18,10 C18,14.438 14.438,18 10,18 C9.014,18 8.027,17.836 7.041,17.452 L7.041,17.452 Z M5.014,16.247 C3.096,14.712 2,12.411 2,10 C2,5.562 5.562,2 10,2 C11.151,2 12.246,2.219 13.233,2.712 L12.872,3.11 C10.384,2.336 7.75,3.042 6.133,5.062 C4.051,7.68 4.468,11.428 7.085,13.629 L7.561,13.986 L5.397,16.575 L5.014,16.247 Z" id="notification-swish-20-crop" fill="#FF0000"></path>
    </g>
</svg>