<?xml version="1.0" encoding="UTF-8"?>
<svg width="20px" height="20px" viewBox="0 0 20 20" version="1.1" xmlns="http://www.w3.org/2000/svg" xmlns:xlink="http://www.w3.org/1999/xlink">
    <!-- Generator: Sketch 50.2 (55047) - http://www.bohemiancoding.com/sketch -->
    <title>pdf-doc-20</title>
    <desc>Created with Sketch.</desc>
    <defs></defs>
    <g id="pdf-doc-20" stroke="none" stroke-width="1" fill="none" fill-rule="evenodd">
        <g id="pdf-doc-20-crop" transform="translate(2.000000, 1.000000)" fill="#FF0000">
            <polygon id="Stroke-1" fill-rule="nonzero" points="2 16 2 2 9.58578644 2 12 4.41421356 12 6 14 6 14 3.58578644 10.4142136 0 0 0 0 18 14.002322 18 13.9930393 13.9976834 11.9930447 14.002322 11.997678 16"></polygon>
            <path d="M4,7.05 L4,12.9915 L5.207,12.9915 L5.207,11.3085 L6.0825,11.3085 C7.2215,11.3085 8.012,10.467 8.012,9.209 C8.012,7.917 7.2045,7.05 6.0315,7.05 L4,7.05 Z M5.1815,10.2205 L5.1815,8.155 L6.0825,8.155 C6.533,8.155 6.856,8.563 6.856,9.175 C6.856,9.804 6.533,10.2205 6.0825,10.2205 L5.1815,10.2205 Z M8.743,7.05 L8.743,13 L10.647,13 C12.1515,13 13.1545,11.8015 13.1545,10.008 C13.1545,8.2315 12.1515,7.05 10.647,7.05 L8.743,7.05 Z M9.9415,11.8525 L9.9415,8.1975 L10.63,8.1975 C11.429,8.1975 11.956,8.9285 11.956,10.0165 C11.956,11.1215 11.429,11.8525 10.63,11.8525 L9.9415,11.8525 Z M15.2115,10.8835 L16.9285,10.8835 L16.9285,9.77 L15.2115,9.77 L15.2115,8.1635 L17.141,8.1635 L17.141,7.05 L14.013,7.05 L14.013,13 L15.2115,13 L15.2115,10.8835 Z" id="PDF"></path>
        </g>
    </g>
</svg>