<?xml version="1.0" encoding="UTF-8"?>
<svg width="20px" height="20px" viewBox="0 0 20 20" version="1.1" xmlns="http://www.w3.org/2000/svg" xmlns:xlink="http://www.w3.org/1999/xlink">
    <!-- Generator: Sketch 50.2 (55047) - http://www.bohemiancoding.com/sketch -->
    <title>percent-20</title>
    <desc>Created with Sketch.</desc>
    <defs></defs>
    <g id="percent-20" stroke="none" stroke-width="1" fill="none" fill-rule="evenodd">
        <g id="percent-20-crop" transform="translate(2.000000, 2.000000)" fill="#FF0000" fill-rule="nonzero">
            <path d="M12.5,16 C14.4329966,16 16,14.4329966 16,12.5 C16,10.5670034 14.4329966,9 12.5,9 C10.5670034,9 9,10.5670034 9,12.5 C9,14.4329966 10.5670034,16 12.5,16 Z M12.5,14 C11.6715729,14 11,13.3284271 11,12.5 C11,11.6715729 11.6715729,11 12.5,11 C13.3284271,11 14,11.6715729 14,12.5 C14,13.3284271 13.3284271,14 12.5,14 Z" id="Oval-2"></path>
            <path d="M3.5,7 C5.43299662,7 7,5.43299662 7,3.5 C7,1.56700338 5.43299662,0 3.5,0 C1.56700338,0 0,1.56700338 0,3.5 C0,5.43299662 1.56700338,7 3.5,7 Z M3.5,5 C2.67157288,5 2,4.32842712 2,3.5 C2,2.67157288 2.67157288,2 3.5,2 C4.32842712,2 5,2.67157288 5,3.5 C5,4.32842712 4.32842712,5 3.5,5 Z" id="Oval-2"></path>
            <polygon id="Line" points="12.7136817 0.382178448 1.71368166 14.3821784 3.28631834 15.6178216 14.2863183 1.61782155"></polygon>
        </g>
    </g>
</svg>