<?xml version="1.0" encoding="UTF-8"?>
<svg width="20px" height="20px" viewBox="0 0 20 20" version="1.1" xmlns="http://www.w3.org/2000/svg" xmlns:xlink="http://www.w3.org/1999/xlink">
    <!-- Generator: Sketch 50.2 (55047) - http://www.bohemiancoding.com/sketch -->
    <title>phone-20</title>
    <desc>Created with Sketch.</desc>
    <defs></defs>
    <g id="phone-20" stroke="none" stroke-width="1" fill="none" fill-rule="evenodd">
        <g id="phone-20-crop" transform="translate(9.913750, 10.113750) rotate(-73.000000) translate(-9.913750, -10.113750) translate(1.413750, 1.613750)" fill="#FF0000">
            <path d="M12.189035,2.36111111 C11.3069239,2.36111111 8.91936832,2.69355556 5.80553499,5.7715 C3.63331277,7.91727778 2.82675721,9.71455556 2.53209055,10.8441111 C2.15997944,12.2683333 2.47542388,13.0522222 2.69359055,13.2685 L4.05547944,14.6152778 C4.08570166,14.6445556 4.24909055,14.6511667 4.28592388,14.6133889 L6.61775721,12.308 C6.64986832,12.2758889 6.65742388,12.2371667 6.65742388,12.2116667 C6.65742388,12.1852222 6.64986832,12.1465 6.61586832,12.1125 L5.1236461,10.6382222 L5.05281277,10.4087222 C4.88470166,9.8515 4.88847944,8.63411111 6.81136832,6.73388889 C8.75031277,4.81855556 9.9686461,4.82894444 10.5220905,5.00555556 L10.7374239,5.0745 L12.2220905,6.54027778 C12.2608128,6.57711111 12.4223128,6.56955556 12.4487572,6.54216667 L14.7843683,4.23488889 C14.8136461,4.20655556 14.8268683,4.17538889 14.8268683,4.13761111 C14.8268683,4.10077778 14.8136461,4.06961111 14.7872017,4.04411111 L13.4234239,2.69544444 C13.260035,2.53394444 12.8501461,2.36111111 12.189035,2.36111111 M2.72475721,15.9563889 L1.3666461,14.6124444 C0.483590547,13.7407222 0.237090547,12.1540556 0.704590547,10.3662222 C1.05875721,9.00905556 2.00131277,6.87555556 4.4776461,4.42755556 C8.0901461,0.857555556 11.0736461,0.472222222 12.189035,0.472222222 C13.268535,0.472222222 14.1770905,0.784833333 14.7513128,1.35244444 L16.1122572,2.69733333 C16.5004239,3.07794444 16.7157572,3.59077778 16.7157572,4.13761111 C16.7157572,4.6835 16.5004239,5.19538889 16.1103683,5.57977778 L13.7794794,7.88422222 C13.0343128,8.62277778 11.6440905,8.62466667 10.8951461,7.88422222 L9.8411461,6.8425 C9.61636832,6.92088889 9.05253499,7.17494444 8.13925721,8.07783333 C7.2656461,8.94011111 6.99647944,9.48977778 6.91336832,9.75138889 L7.94470166,10.7695 C8.33286832,11.1548333 8.54631277,11.6667222 8.54631277,12.2107222 C8.54631277,12.7547222 8.33381277,13.2666111 7.94659055,13.6500556 L5.61192388,15.9573333 C5.23603499,16.3285 4.70997944,16.5400556 4.16881277,16.5400556 C3.62575721,16.5400556 3.09970166,16.3275556 2.72475721,15.9563889 Z" id="Fill-1"></path>
        </g>
    </g>
</svg>