<?xml version="1.0" encoding="UTF-8"?>
<svg width="20px" height="20px" viewBox="0 0 20 20" version="1.1" xmlns="http://www.w3.org/2000/svg" xmlns:xlink="http://www.w3.org/1999/xlink">
    <!-- Generator: Sketch 50.2 (55047) - http://www.bohemiancoding.com/sketch -->
    <title>phone-broken-20</title>
    <desc>Created with Sketch.</desc>
    <defs></defs>
    <g id="phone-broken-20" stroke="none" stroke-width="1" fill="none" fill-rule="evenodd">
        <g id="phone-broken-20-crop" transform="translate(1.000000, 0.300000)" fill="#FF0000" fill-rule="nonzero">
            <path d="M2,4.01855468 C2,3.32752105 2.62456025,2.70000005 3.3076153,2.70000005 L9.6923847,2.70000005 C10.3754398,2.70000005 11,3.32752105 11,4.01855468 L11,15.3814454 C11,16.0722922 10.375624,16.7 9.6923847,16.7 L3.3076153,16.7 C2.57651007,16.7 2,16.1061572 2,15.3814454 L2,4.01855468 Z M3.3076153,18.7 L9.6923847,18.7 C11.4825832,18.7 13,17.174486 13,15.3814454 L13,4.01855468 C13,2.22506339 11.4821322,0.700000048 9.6923847,0.700000048 L3.3076153,0.700000048 C1.51786784,0.700000048 0,2.22506339 0,4.01855468 L0,15.3814454 C0,17.1976859 1.45846537,18.7 3.3076153,18.7 Z" id="Shape"></path>
            <polygon id="Polygon" points="10.0204736 5.70162375 5.62110878 5.70162375 4.58725368 3.71912322 2.8499999 4.70000005 4.40847258 7.70162375 8.02047358 7.70162375 8.02047358 9.50088395 12.0810591 12.5499998 12.0667126 10.03814 10.0204736 8.50160792"></polygon>
            <path d="M8,14.1990007 C8,15.0284477 7.328,15.7 6.5,15.7 C5.669,15.7 5,15.0284477 5,14.1990007 C5,13.3715523 5.67,12.7 6.5,12.7 C7.328,12.7 8,13.3715523 8,14.1990007 Z" id="Shape"></path>
            <polygon id="Line-3" points="15 10.7 15 8.70000005 18 8.70000005 18 10.7"></polygon>
            <polygon id="Line-3" points="14.5793406 7.74592251 13.6097213 5.99668309 16.2335805 4.54225423 17.2031997 6.29149365"></polygon>
            <polygon id="Line-3" points="13.6056715 13.2286986 14.6357476 11.514364 17.2072495 13.0594782 16.1771734 14.7738128"></polygon>
        </g>
    </g>
</svg>