<?xml version="1.0" encoding="UTF-8"?>
<svg width="20px" height="20px" viewBox="0 0 20 20" version="1.1" xmlns="http://www.w3.org/2000/svg" xmlns:xlink="http://www.w3.org/1999/xlink">
    <!-- Generator: Sketch 50.2 (55047) - http://www.bohemiancoding.com/sketch -->
    <title>pin-20</title>
    <desc>Created with Sketch.</desc>
    <defs></defs>
    <g id="pin-20" stroke="none" stroke-width="1" fill="none" fill-rule="evenodd">
        <g id="pin-20-crop" transform="translate(3.000000, 1.000000)" fill="#FF0000">
            <g id="Page-1" transform="translate(0.500000, 0.000000)">
                <g id="Group-3">
                    <path d="M2,6.5381 C2,4.0361 4.019,2.0001 6.5,2.0001 C8.981,2.0001 11,4.0361 11,6.5381 C11,7.7151 10.527,8.8631 9.685,9.7541 L6.5,12.9601 L3.333,9.7711 C2.473,8.8631 2,7.7151 2,6.5381 L2,6.5381 Z M11.121,11.1451 C12.333,9.8641 13,8.2281 13,6.5381 C13,2.9331 10.084,0.0001 6.5,0.0001 C2.916,0.0001 0,2.9331 0,6.5381 C0,8.2281 0.667,9.8641 1.896,11.1631 L5.707,15.0001 L0.5,15.0001 L0.5,17.0001 L12.5,17.0001 L12.5,15.0001 L7.293,15.0001 L11.121,11.1451 Z" id="Fill-1"></path>
                </g>
                <path d="M6.5,7.501 C5.93,7.501 5.5,7.071 5.5,6.501 C5.5,5.93 5.93,5.5 6.5,5.5 C7.07,5.5 7.5,5.93 7.5,6.501 L9.5,6.501 C9.5,4.818 8.182,3.5 6.5,3.5 C4.818,3.5 3.5,4.818 3.5,6.501 C3.5,8.183 4.818,9.501 6.5,9.501 L6.5,7.501 Z" id="Fill-4"></path>
            </g>
        </g>
    </g>
</svg>