<?xml version="1.0" encoding="UTF-8"?>
<svg width="20px" height="20px" viewBox="0 0 20 20" version="1.1" xmlns="http://www.w3.org/2000/svg" xmlns:xlink="http://www.w3.org/1999/xlink">
    <!-- Generator: Sketch 56.3 (81716) - https://sketch.com -->
    <title>Icons/20px/save-20</title>
    <desc>Created with Sketch.</desc>
    <g id="Icons/20px/save-20" stroke="none" stroke-width="1" fill="none" fill-rule="evenodd">
        <g id="Icons/20px/print-20">
            <g>
                <rect id="invisible-20" x="0" y="0" width="20" height="20"></rect>
                <g id="outlines" transform="translate(1.000000, 1.000000)" fill="#FF0000" fill-rule="nonzero">
                    <path d="M4,14 L0,14 L0,8.5 C0,6.56700338 1.56700338,5 3.5,5 L4,5 L4,0 L14,0 L14,5 L14.5,5 C16.4329966,5 18,6.56700338 18,8.5 L18,14 L14,14 L14,18 L4,18 L4,14 Z M4,12 L4,10 L14,10 L14,12 L16,12 L16,8.5 C16,7.67157288 15.3284271,7 14.5,7 L3.5,7 C2.67157288,7 2,7.67157288 2,8.5 L2,12 L4,12 Z M6,5 L12,5 L12,2 L6,2 L6,5 Z M6,12 L6,16 L12,16 L12,12 L6,12 Z" id="Combined-Shape"></path>
                </g>
            </g>
        </g>
    </g>
</svg>