<?xml version="1.0" encoding="UTF-8"?>
<svg width="20px" height="20px" viewBox="0 0 20 20" version="1.1" xmlns="http://www.w3.org/2000/svg" xmlns:xlink="http://www.w3.org/1999/xlink">
    <!-- Generator: Sketch 50.2 (55047) - http://www.bohemiancoding.com/sketch -->
    <title>radio-enclosed-20</title>
    <desc>Created with Sketch.</desc>
    <defs></defs>
    <g id="radio-enclosed-20" stroke="none" stroke-width="1" fill="none" fill-rule="evenodd">
        <g id="radio-enclosed-20-crop" transform="translate(1.000000, 1.000000)" fill="#FF0000">
            <g id="Page-1">
                <path d="M9,2 C5.141,2 2,5.14 2,9 C2,12.86 5.141,16 9,16 C12.859,16 16,12.86 16,9 C16,5.14 12.859,2 9,2 M9,18 C4.037,18 0,13.962 0,9 C0,4.038 4.037,0 9,0 C13.963,0 18,4.038 18,9 C18,13.962 13.963,18 9,18" id="Fill-1"></path>
                <path d="M9,10.4399 C8.19,10.4399 7.56,9.8099 7.56,8.9999 C7.56,8.1899 8.19,7.5599 9,7.5599 C9.81,7.5599 10.44,8.1899 10.44,8.9999 C10.44,9.8099 9.81,10.4399 9,10.4399" id="Fill-3"></path>
            </g>
        </g>
    </g>
</svg>