<?xml version="1.0" encoding="UTF-8"?>
<svg width="20px" height="20px" viewBox="0 0 20 20" version="1.1" xmlns="http://www.w3.org/2000/svg" xmlns:xlink="http://www.w3.org/1999/xlink">
    <!-- Generator: Sketch 50.2 (55047) - http://www.bohemiancoding.com/sketch -->
    <title>radio-round-20</title>
    <desc>Created with Sketch.</desc>
    <defs></defs>
    <g id="radio-round-20" stroke="none" stroke-width="1" fill="none" fill-rule="evenodd">
        <g id="radio-round-20-crop" transform="translate(1.000000, 1.000000)" fill="#FF0000">
            <g id="Page-1">
                <path d="M9,16 C5.141,16 2,12.86 2,9 C2,5.14 5.141,2 9,2 C12.859,2 16,5.14 16,9 C16,12.86 12.859,16 9,16 M9,0 C4.037,0 0,4.038 0,9 C0,13.962 4.037,18 9,18 C13.963,18 18,13.962 18,9 C18,4.038 13.963,0 9,0" id="Fill-1"></path>
                <path d="M9,10.5601 C8.154,10.5601 7.44,9.8461 7.44,9.0001 C7.44,8.1541 8.154,7.4401 9,7.4401 C9.846,7.4401 10.56,8.1541 10.56,9.0001 C10.56,9.8461 9.846,10.5601 9,10.5601 M9,4.5601 C6.552,4.5601 4.56,6.5521 4.56,9.0001 C4.56,11.4481 6.552,13.4401 9,13.4401 C11.448,13.4401 13.44,11.4481 13.44,9.0001 C13.44,6.5521 11.448,4.5601 9,4.5601" id="Fill-3"></path>
            </g>
        </g>
    </g>
</svg>