<?xml version="1.0" encoding="UTF-8"?>
<svg width="20px" height="20px" viewBox="0 0 20 20" version="1.1" xmlns="http://www.w3.org/2000/svg" xmlns:xlink="http://www.w3.org/1999/xlink">
    <!-- Generator: Sketch 50.2 (55047) - http://www.bohemiancoding.com/sketch -->
    <title>screen-20</title>
    <desc>Created with Sketch.</desc>
    <defs></defs>
    <g id="screen-20" stroke="none" stroke-width="1" fill="none" fill-rule="evenodd">
        <g id="screen-20-crop" transform="translate(1.000000, 2.000000)" fill="#FF0000">
            <path d="M16,10.5 C16,10.771 15.771,11 15.5,11 L10,11 L8,11 L2.5,11 C2.229,11 2,10.771 2,10.5 L2,2.5 C2,2.229 2.229,2 2.5,2 L15.5,2 C15.771,2 16,2.229 16,2.5 L16,10.5 Z M2.5,0 C1.122,0 0,1.122 0,2.5 L0,10.5 C0,11.878 1.122,13 2.5,13 L8,13 L8,14 L4,14 L4,16 L8,16 L10,16 L14,16 L14,14 L10,14 L10,13 L15.5,13 C16.878,13 18,11.878 18,10.5 L18,2.5 C18,1.122 16.878,0 15.5,0 L2.5,0 Z" id="Page-1"></path>
        </g>
    </g>
</svg>