<?xml version="1.0" encoding="UTF-8"?>
<svg width="20px" height="20px" viewBox="0 0 20 20" version="1.1" xmlns="http://www.w3.org/2000/svg" xmlns:xlink="http://www.w3.org/1999/xlink">
    <!-- Generator: Sketch 57.1 (83088) - https://sketch.com -->
    <title>Icons/20px/share-20</title>
    <desc>Created with Sketch.</desc>
    <g id="Icons/20px/share-20" stroke="none" stroke-width="1" fill="none" fill-rule="evenodd">
        <g>
            <rect id="invisible-20" x="0" y="0" width="20" height="20"></rect>
            <g id="outlines" transform="translate(2.000000, 1.000000)" fill="#FF0000" fill-rule="nonzero">
                <path d="M13,0 C14.6568542,0 16,1.34314575 16,3 C16,4.65685425 14.6568542,6 13,6 C12.2738245,6 11.6079105,5.74198927 11.0889289,5.3126384 L5.94037685,8.40191325 C5.97947752,8.59518603 6,8.79519637 6,9 C6,9.20480363 5.97947752,9.40481397 5.94037685,9.59808675 L11.0889289,12.6873616 C11.6079105,12.2580107 12.2738245,12 13,12 C14.6568542,12 16,13.3431458 16,15 C16,16.6568542 14.6568542,18 13,18 C11.3431458,18 10,16.6568542 10,15 C10,14.7955507 10.0204515,14.5958781 10.0594204,14.4029165 L4.91005599,11.3134779 C4.39122123,11.7423255 3.72570216,12 3,12 C1.34314575,12 0,10.6568542 0,9 C0,7.34314575 1.34314575,6 3,6 C3.72570216,6 4.39122123,6.25767445 4.91005599,6.68652214 L10.0596232,3.59808675 C10.0205225,3.40481397 10,3.20480363 10,3 C10,1.34314575 11.3431458,0 13,0 Z M13,14 C12.4477153,14 12,14.4477153 12,15 C12,15.5522847 12.4477153,16 13,16 C13.5522847,16 14,15.5522847 14,15 C14,14.4477153 13.5522847,14 13,14 Z M3,8 C2.44771525,8 2,8.44771525 2,9 C2,9.55228475 2.44771525,10 3,10 C3.55228475,10 4,9.55228475 4,9 C4,8.44771525 3.55228475,8 3,8 Z M13,2 C12.4477153,2 12,2.44771525 12,3 C12,3.55228475 12.4477153,4 13,4 C13.5522847,4 14,3.55228475 14,3 C14,2.44771525 13.5522847,2 13,2 Z" id="Combined-Shape"></path>
            </g>
        </g>
    </g>
</svg>