<?xml version="1.0" encoding="UTF-8"?>
<svg width="20px" height="20px" viewBox="0 0 20 20" version="1.1" xmlns="http://www.w3.org/2000/svg" xmlns:xlink="http://www.w3.org/1999/xlink">
    <!-- Generator: Sketch 50.2 (55047) - http://www.bohemiancoding.com/sketch -->
    <title>shield-20</title>
    <desc>Created with Sketch.</desc>
    <defs></defs>
    <g id="shield-20" stroke="none" stroke-width="1" fill="none" fill-rule="evenodd">
        <g id="shield-20-crop" transform="translate(2.000000, 1.000000)" fill="#FF0000">
            <path d="M12.9997,-3.55271368e-15 L2.9997,-3.55271368e-15 C2.9997,1.53 1.5617,3 -0.0003,3 L-0.0003,9.794 C-0.0003,14.438 7.9997,18.1 7.9997,18.1 C7.9997,18.1 15.9997,14.563 15.9997,9.794 L15.9997,3 C14.5307,3 12.9997,1.5 12.9997,-3.55271368e-15 M11.4827,2 C12.0107,3.075 12.9247,3.989 13.9997,4.517 L13.9997,9.794 C13.9997,12.108 10.3757,14.644 8.0107,15.873 C5.6367,14.614 1.9997,12.051 1.9997,9.794 L1.9997,4.55 C3.1127,4.034 4.0337,3.113 4.5507,2 L11.4827,2" id="Fill-1"></path>
            <polygon id="Line" fill-rule="nonzero" points="4.5 6.41421356 5.91421356 5 11.5710678 10.6568542 10.1568542 12.0710678"></polygon>
            <polygon id="Line" fill-rule="nonzero" points="10.1568542 5 11.5710678 6.41421356 5.91421356 12.0710678 4.5 10.6568542"></polygon>
        </g>
    </g>
</svg>