<?xml version="1.0" encoding="UTF-8"?>
<svg width="20px" height="20px" viewBox="0 0 20 20" version="1.1" xmlns="http://www.w3.org/2000/svg" xmlns:xlink="http://www.w3.org/1999/xlink">
    <!-- Generator: Sketch 50.2 (55047) - http://www.bohemiancoding.com/sketch -->
    <title>star-20</title>
    <desc>Created with Sketch.</desc>
    <defs>
        <polygon id="path-1" points="18 17.4934469 18 0.0004 9.05236816e-05 0.0004 9.05236816e-05 17.4934469"></polygon>
    </defs>
    <g id="star-20" stroke="none" stroke-width="1" fill="none" fill-rule="evenodd">
        <g id="star-20-crop" transform="translate(1.000000, 1.000000)">
            <g id="Page-1" transform="translate(0.000000, 0.100000)">
                <mask id="mask-2" fill="white">
                    <use xlink:href="#path-1"></use>
                </mask>
                <g id="Clip-2"></g>
                <path d="M9.0002,11.8194 C9.2102,11.8194 9.4192,11.8854 9.5972,12.0164 L12.0382,13.8314 L11.0882,10.8764 C10.9562,10.4674 11.1012,10.0204 11.4472,9.7654 L13.9462,7.9244 L10.8812,7.9314 L10.8792,7.9314 C10.4432,7.9314 10.0582,7.6494 9.9262,7.2334 L9.0002,4.3114 L8.0742,7.2334 C7.9422,7.6504 7.5562,7.9234 7.1192,7.9314 L4.0542,7.9244 L6.5532,9.7654 C6.8992,10.0204 7.0442,10.4674 6.9122,10.8764 L5.9622,13.8314 L8.4032,12.0164 C8.5812,11.8854 8.7902,11.8194 9.0002,11.8194 M13.9442,17.4934 C13.7342,17.4934 13.5242,17.4274 13.3482,17.2964 L9.0002,14.0654 L4.6522,17.2964 C4.3042,17.5544 3.8252,17.5604 3.4742,17.3064 C3.1202,17.0534 2.9712,16.6014 3.1042,16.1874 L4.7882,10.9494 L0.4072,7.7234 C0.0592,7.4664 -0.0848,7.0154 0.0502,6.6054 C0.1862,6.1944 0.5682,5.9184 1.0002,5.9184 L1.0022,5.9184 L6.3902,5.9304 L8.0472,0.6984 C8.1792,0.2824 8.5642,0.0004 9.0002,0.0004 C9.4362,0.0004 9.8212,0.2824 9.9532,0.6984 L11.6102,5.9304 L16.9982,5.9184 L17.0002,5.9184 C17.4322,5.9184 17.8142,6.1944 17.9502,6.6054 C18.0852,7.0154 17.9412,7.4664 17.5932,7.7234 L13.2122,10.9494 L14.8962,16.1874 C15.0292,16.6014 14.8802,17.0534 14.5262,17.3064 C14.3532,17.4314 14.1482,17.4934 13.9442,17.4934" id="Fill-1" fill="#FF0000" mask="url(#mask-2)"></path>
            </g>
        </g>
    </g>
</svg>