<?xml version="1.0" encoding="UTF-8"?>
<svg width="20px" height="20px" viewBox="0 0 20 20" version="1.1" xmlns="http://www.w3.org/2000/svg" xmlns:xlink="http://www.w3.org/1999/xlink">
    <!-- Generator: Sketch 50.2 (55047) - http://www.bohemiancoding.com/sketch -->
    <title>suitcase-20</title>
    <desc>Created with Sketch.</desc>
    <defs></defs>
    <g id="suitcase-20" stroke="none" stroke-width="1" fill="none" fill-rule="evenodd">
        <g id="suitcase-20-crop" transform="translate(1.000000, 1.000000)" fill="#FF0000">
            <path d="M2.5,5 C2.22603826,5 2,5.22610068 2,5.5 L2,14.5 C2,14.7738993 2.22603826,15 2.5,15 L15.5,15 C15.7739617,15 16,14.7738993 16,14.5 L16,5.5 C16,5.22610068 15.7739617,5 15.5,5 L2.5,5 Z M2.5,3 L15.5,3 C16.879,3 18,4.122 18,5.5 L18,14.5 C18,15.878 16.879,17 15.5,17 L2.5,17 C1.121,17 0,15.878 0,14.5 L0,5.5 C0,4.122 1.121,3 2.5,3 Z" id="Page-1" fill-rule="nonzero"></path>
            <polygon id="Line" fill-rule="nonzero" points="3.44291399 9.29986737 2.70013263 7.44291399 7.05708601 5.70013263 7.79986737 7.55708601"></polygon>
            <circle id="Oval-3" cx="7.5" cy="10.5" r="1.5"></circle>
            <circle id="Oval-3" cx="13" cy="8" r="2"></circle>
            <polygon id="Line-2" fill-rule="nonzero" points="0.0857864376 11.5 1.5 10.0857864 6.91421356 15.5 5.5 16.9142136"></polygon>
            <polygon id="Line-2" fill-rule="nonzero" points="12.5 16.9142136 11.0857864 15.5 16.5 10.0857864 17.9142136 11.5"></polygon>
            <path d="M14,4.5 L12,4.5 C12,3.15119434 10.6843493,2 9,2 C7.31565068,2 6,3.15119434 6,4.5 L4,4.5 C4,1.98281241 6.26607132,0 9,0 C11.7339287,0 14,1.98281241 14,4.5 Z" id="Oval-4" fill-rule="nonzero"></path>
        </g>
    </g>
</svg>