<?xml version="1.0" encoding="UTF-8"?>
<svg width="20px" height="20px" viewBox="0 0 20 20" version="1.1" xmlns="http://www.w3.org/2000/svg" xmlns:xlink="http://www.w3.org/1999/xlink">
    <!-- Generator: Sketch 57 (83077) - https://sketch.com -->
    <title>Icons/20px/sustainability-20</title>
    <desc>Created with Sketch.</desc>
    <g id="Icons/20px/sustainability-20" stroke="none" stroke-width="1" fill="none" fill-rule="evenodd">
        <g>
            <rect id="invisible-20" x="0" y="0" width="20" height="20"></rect>
            <g id="lines" transform="translate(0.000000, 2.000000)" fill="#FF0000" fill-rule="nonzero">
                <polygon id="Path-5" points="8.65998436 17.6436537 15.8599844 5.51032039 14.1400156 4.48967961 6.94001564 16.6230129"></polygon>
                <path d="M17,8 C17,9.93417094 15.1341137,12 13.9576424,12 C13.2240287,12 12.6481994,11.7513619 12.1647659,11.2295061 L10.697572,12.5886757 C11.5615911,13.5213653 12.6700774,14 13.9576424,14 C16.2866531,14 19,10.995899 19,8 C19,6.1440167 18.8315905,3.44946518 18.495534,-0.0944040826 L18.3898838,-1.20853278 L17.2946154,-0.978681332 C13.9889239,-0.284953732 11.3598833,0.766662487 9.40970834,2.19280996 C6.4729818,4.34041473 6.86891901,8.45572871 9.18168797,10.9523121 L10.6488818,9.59314244 C9.05454295,7.87208858 8.7901134,5.12364609 10.5902917,3.80719004 C12.0774789,2.71962184 14.0831862,1.85659184 16.6089058,1.22931456 C16.8698135,4.15878296 17,6.41819109 17,8 Z" id="Path-9"></path>
                <polygon id="Path" points="11.9230769 4.61538462 10.0769231 5.38461538 12 10 16 10 16 8 13.3333333 8"></polygon>
                <polygon id="Path-3" points="9.77735213 14.5137914 6.30917367 10.2280771 4.75446942 11.4862086 8.22264787 15.7719229"></polygon>
                <path d="M5.50718299,9.34509243 C6.24190353,10.3013402 6.14034018,11.0902594 5.64478408,11.520241 L6.95551463,13.0308651 C8.23281852,11.9225807 8.48782059,9.94178701 7.09311572,8.12656161 C6.14092287,6.88727098 4.78084992,5.90054309 3.03048595,5.1600556 L2.1575361,4.79075615 L1.74205787,5.64269592 C0.00289622524,9.20885376 -0.43435169,11.6886099 0.689547022,13.1971314 C1.5232428,14.3161361 2.91741169,14.5619657 4.67686483,14.079015 L4.14746795,12.1503525 C3.0985504,12.4382689 2.54557818,12.340765 2.29336243,12.0022355 C1.83588194,11.3881952 2.05046033,9.83146273 3.1223835,7.41435341 C4.14162163,7.95406496 4.93368402,8.59867652 5.50718299,9.34509243 Z" id="Path-4" transform="translate(4.050869, 9.552397) rotate(-10.000000) translate(-4.050869, -9.552397) "></path>
            </g>
        </g>
    </g>
</svg>