<?xml version="1.0" encoding="UTF-8"?>
<svg width="20px" height="20px" viewBox="0 0 20 20" version="1.1" xmlns="http://www.w3.org/2000/svg" xmlns:xlink="http://www.w3.org/1999/xlink">
    <!-- Generator: Sketch 50.2 (55047) - http://www.bohemiancoding.com/sketch -->
    <title>tag-20</title>
    <desc>Created with Sketch.</desc>
    <defs></defs>
    <g id="tag-20" stroke="none" stroke-width="1" fill="none" fill-rule="evenodd">
        <g id="tag-20-crop" transform="translate(1.000000, 1.000000)" fill="#FF0000">
            <path d="M2.4141,10.0039 L8.0001,15.5899 L16.0041,7.5869 L16.0001,4.4189 L13.5851,2.0039 L10.4181,2.0009 L2.4141,10.0039 Z M8.0001,18.0039 C7.7441,18.0039 7.4881,17.9059 7.2931,17.7109 L0.2931,10.7109 C-0.0979,10.3199 -0.0979,9.6879 0.2931,9.2969 L9.2971,0.2929 C9.4841,0.1059 9.7381,-0.0001 10.0041,-0.0001 L10.0051,-0.0001 L14.0011,0.0039 C14.2661,0.0039 14.5191,0.1089 14.7071,0.2969 L17.7071,3.2969 C17.8941,3.4839 18.0001,3.7379 18.0001,4.0029 L18.0041,7.9989 C18.0041,8.2649 17.8981,8.5199 17.7111,8.7069 L8.7071,17.7109 C8.5121,17.9059 8.2561,18.0039 8.0001,18.0039 L8.0001,18.0039 Z" id="Fill-1"></path>
            <path d="M12,7.5 C11.51625,7.5 11.12925,7.3065 10.839,6.9675 C10.74225,6.87075 10.64475,6.726 10.59675,6.5805 C10.5,6.387 10.5,6.1935 10.5,6 C10.5,5.17725 11.17725,4.5 12,4.5 C12.82275,4.5 13.5,5.17725 13.5,6 C13.5,6.82275 12.82275,7.5 12,7.5" id="Fill-4"></path>
        </g>
    </g>
</svg>