<?xml version="1.0" encoding="UTF-8"?>
<svg width="20px" height="20px" viewBox="0 0 20 20" version="1.1" xmlns="http://www.w3.org/2000/svg" xmlns:xlink="http://www.w3.org/1999/xlink">
    <!-- Generator: Sketch 50.2 (55047) - http://www.bohemiancoding.com/sketch -->
    <title>text-3-round-20</title>
    <desc>Created with Sketch.</desc>
    <defs></defs>
    <g id="text-3-round-20" stroke="none" stroke-width="1" fill="none" fill-rule="evenodd">
        <g id="text-3-round-20-crop" transform="translate(1.000000, 1.000000)" fill="#FF0000">
            <g id="Page-1">
                <path d="M9,2 C5.14,2 2,5.14 2,9 C2,12.86 5.14,16 9,16 C12.86,16 16,12.86 16,9 C16,5.14 12.86,2 9,2 M9,18 C4.038,18 0,13.962 0,9 C0,4.038 4.038,0 9,0 C13.962,0 18,4.038 18,9 C18,13.962 13.962,18 9,18" id="Fill-1"></path>
                <path d="M8.083,10.6411 C8.107,11.2651 8.503,11.6731 9.079,11.6731 C9.642,11.6731 10.026,11.1691 10.026,10.4021 C10.002,9.0581 8.911,8.8671 8.035,9.0581 L8.035,8.8061 L9.223,6.1321 L6.872,6.1321 L6.872,4.7041 L11.417,4.7041 L11.417,4.9561 L9.99,7.8951 C11.118,8.1221 11.633,9.2261 11.633,10.3891 C11.633,12.0921 10.626,13.2201 9.103,13.2201 C7.627,13.2201 6.632,12.1891 6.596,10.6411 L8.083,10.6411 Z" id="Fill-3"></path>
            </g>
        </g>
    </g>
</svg>