<?xml version="1.0" encoding="UTF-8"?>
<svg width="20px" height="20px" viewBox="0 0 20 20" version="1.1" xmlns="http://www.w3.org/2000/svg" xmlns:xlink="http://www.w3.org/1999/xlink">
    <!-- Generator: Sketch 50.2 (55047) - http://www.bohemiancoding.com/sketch -->
    <title>text-2-round-20</title>
    <desc>Created with Sketch.</desc>
    <defs></defs>
    <g id="text-2-round-20" stroke="none" stroke-width="1" fill="none" fill-rule="evenodd">
        <g id="text-2-round-crop-20" transform="translate(1.000000, 1.000000)" fill="#FF0000">
            <g id="Page-1">
                <path d="M9,2 C5.14,2 2,5.14 2,9 C2,12.86 5.14,16 9,16 C12.86,16 16,12.86 16,9 C16,5.14 12.86,2 9,2 M9,18 C4.038,18 0,13.962 0,9 C0,4.038 4.038,0 9,0 C13.962,0 18,4.038 18,9 C18,13.962 13.962,18 9,18" id="Fill-1"></path>
                <path d="M8.3066,7.1753 L6.8796,7.1753 C6.8676,5.5323 7.7306,4.5843 9.1466,4.5843 C11.1136,4.5843 12.0366,6.9713 10.6696,9.2023 L9.2426,11.5403 L11.4256,11.5403 L11.4256,13.1003 L6.7956,13.1003 L6.7956,12.7163 L9.2786,8.5303 C9.5176,8.1223 9.7936,7.6433 9.7936,7.1513 C9.7936,6.4673 9.5416,6.1193 9.0746,6.1193 C8.5706,6.1193 8.3066,6.4803 8.3066,7.1753" id="Fill-3"></path>
            </g>
        </g>
    </g>
</svg>