<?xml version="1.0" encoding="UTF-8"?>
<svg width="20px" height="20px" viewBox="0 0 20 20" version="1.1" xmlns="http://www.w3.org/2000/svg" xmlns:xlink="http://www.w3.org/1999/xlink">
    <!-- Generator: Sketch 57.1 (83088) - https://sketch.com -->
    <title>Icons/20px/thumbup-20</title>
    <desc>Created with Sketch.</desc>
    <g id="Icons/20px/thumbup-20" stroke="none" stroke-width="1" fill="none" fill-rule="evenodd">
        <g>
            <rect id="invisible-20" x="0" y="0" width="20" height="20"></rect>
            <g id="outlines" transform="translate(1.000000, 1.000000)" fill="#FF0000" fill-rule="nonzero">
                <path d="M8.82643584,0.332927423 C9.15620533,-0.0353621578 9.70559716,-0.107422199 10.1191901,0.163365512 C10.6344436,0.500712385 11.0441761,1.08904628 11.4149708,1.92981331 C11.5091154,2.1432836 11.5256562,2.38295311 11.4617299,2.60733267 L11.4617299,2.60733267 L10.4318385,6.22222222 L17,6.22222222 C17.5522847,6.22222222 18,6.66993747 18,7.22222222 L18,7.22222222 L18,9.88888889 C18,10.0323337 17.9691394,10.1740998 17.9095129,10.3045647 L17.9095129,10.3045647 L14.6595129,17.4156758 C14.4968181,17.7716575 14.1413982,18 13.75,18 L13.75,18 L4,18 C3.44771525,18 3,17.5522847 3,17 L3,17 L3,7.22222222 C3,6.97605701 3.0907972,6.73854094 3.25500726,6.55514964 L3.25500726,6.55514964 Z M0.0110493805,17.9899628 L0.0160020173,12.4979672 L0.0220967438,6.99799139 L2.02209271,7.00601996 L2.01104938,17.9979914 L2.00000202,17.9979672 L0.0110493805,17.9899628 Z M9.33904213,2.75861855 L5,7.60450036 L5,16 L13.1075416,16 L16,9.67120206 L16,8.22222222 L9.10714286,8.22222222 C8.44307626,8.22222222 7.96345917,7.58687557 8.14541298,6.94822288 L8.14541298,6.94822288 L9.33904213,2.75861855 Z M9.53827012,2.05933399 L9.43512007,2.42138773 C9.45914801,2.46807046 9.48359949,2.51744059 9.50838387,2.56949615 L9.8784149,2.15624212 L9.53827012,2.05933399 Z" id="Combined-Shape"></path>
            </g>
        </g>
    </g>
</svg>