<?xml version="1.0" encoding="UTF-8"?>
<svg width="20px" height="20px" viewBox="0 0 20 20" version="1.1" xmlns="http://www.w3.org/2000/svg" xmlns:xlink="http://www.w3.org/1999/xlink">
    <!-- Generator: Sketch 50.2 (55047) - http://www.bohemiancoding.com/sketch -->
    <title>umbrella-20</title>
    <desc>Created with Sketch.</desc>
    <defs></defs>
    <g id="umbrella-20" stroke="none" stroke-width="1" fill="none" fill-rule="evenodd">
        <g id="umbrella-20-crop" transform="translate(2.000000, 1.000000)" fill="#FF0000">
            <path d="M8,7.8141 C7.071,6.9031 5.819,6.3711 4.5,6.3711 C3.843,6.3711 3.203,6.5031 2.611,6.7471 C3.583,4.7281 5.613,3.3351 7.954,3.3351 C10.274,3.3351 12.34,4.7371 13.349,6.7311 C12.768,6.4971 12.142,6.3711 11.5,6.3711 C10.181,6.3711 8.929,6.9031 8,7.8141 Z M9,0.0001 L7,0.0001 L7,1.3991 C3.063,1.8821 5.32907052e-15,5.3021 5.32907052e-15,9.4421 C5.32907052e-15,9.8961 7.10542736e-15,10.4091 7.10542736e-15,10.4091 L1.68852459,10.4091 C1.68852459,10.4091 1.69,10.2531 1.871,9.9341 C2.407,8.9841 3.439,8.3711 4.5,8.3711 C5.522,8.3711 6.432,8.8961 7,9.7601 L7,15.0001 C7,15.2931 6.776,15.5311 6.5,15.5311 C6.224,15.5311 6,15.2931 6,15.0001 L4,15.0001 C4,16.3951 5.122,17.5311 6.5,17.5311 C7.825,17.5311 8.902,16.4781 8.984,15.1571 L9,9.7371 C9.562,8.9031 10.516,8.3711 11.5,8.3711 C12.594,8.3711 13.577,8.9551 14.129,9.9331 C14.228397,10.1088197 14.2999992,10.4091 14.2999992,10.4091 L16,10.4091 C16,10.4091 16,9.8961 16,9.4421 C16,5.3301 12.943,1.9311 9,1.4121 L9,0.0001 Z" id="Fill-1"></path>
        </g>
    </g>
</svg>