<svg width="20" height="20" viewBox="0 0 20 20" fill="none" xmlns="http://www.w3.org/2000/svg">
<path fill-rule="evenodd" clip-rule="evenodd" d="M6 8C6 5.79086 7.79086 4 10 4C10.8654 4 11.9838 4.39802 12.7929 5.20711L14.2071 3.79289C13.0162 2.60198 11.3862 2 10 2C6.68629 2 4 4.68629 4 8C4 9.36293 4.45443 10.6197 5.22005 11.6271C4.74167 11.8968 4.32591 12.2323 3.98509 12.637C3.31115 13.4373 3 14.426 3 15.4999V17.9999H5V15.4999C5 14.8239 5.18885 14.3125 5.51491 13.9253C5.78956 13.5992 6.20926 13.305 6.82616 13.0928C7.7468 13.6677 8.8346 14 10 14C11.1654 14 12.2532 13.6677 13.1738 13.0928C13.7907 13.305 14.2104 13.5992 14.4851 13.9253C14.8112 14.3125 15 14.8239 15 15.4999V17.9999H17V15.4999C17 14.426 16.6888 13.4373 16.0149 12.637C15.6741 12.2323 15.2583 11.8968 14.78 11.6271C15.5456 10.6197 16 9.36293 16 8C16 7.59035 15.9588 7.18928 15.88 6.80107L15.7174 6H11L10.9107 6.00002H10.9107C10.3792 6.0002 10.2276 6.00025 10.0758 5.93384C9.98148 5.89257 9.74532 5.75457 9.39443 5.05279L7.60557 5.94721C8.05468 6.84543 8.56852 7.45743 9.27418 7.76616C9.84029 8.01383 10.4456 8.00631 10.8517 8.00127L10.8517 8.00127C10.9047 8.00062 10.9543 8 11 8H14C14 10.2091 12.2091 12 10 12C7.79086 12 6 10.2091 6 8Z" fill="#FF0000"/>
</svg>
