<?xml version="1.0" encoding="UTF-8"?>
<svg width="20px" height="20px" viewBox="0 0 20 20" version="1.1" xmlns="http://www.w3.org/2000/svg" xmlns:xlink="http://www.w3.org/1999/xlink">
    <!-- Generator: Sketch 50.2 (55047) - http://www.bohemiancoding.com/sketch -->
    <title>user-20</title>
    <desc>Created with Sketch.</desc>
    <defs></defs>
    <g id="user-20" stroke="none" stroke-width="1" fill="none" fill-rule="evenodd">
        <g id="user-20-crop" transform="translate(1.500789, 0.250000)" fill="#FF0000">
            <path d="M8.51291068,15.6001 C4.90291068,15.6001 3.21891068,15.1181 2.56591068,14.8551 C2.73391068,13.4721 3.42491068,10.0071 6.08291068,8.7161 C6.81391068,9.2931 7.71591068,9.6501 8.70591068,9.6501 C9.62091068,9.6501 10.4679107,9.3531 11.1679107,8.8531 C13.6249107,10.2271 14.2949107,13.5001 14.4589107,14.8471 C13.7759107,15.1261 12.0899107,15.6001 8.51291068,15.6001 L8.51291068,15.6001 Z M8.70591068,2.7501 C9.99191068,2.7501 11.0369107,3.8491 11.0369107,5.2001 C11.0369107,6.5511 9.99191068,7.6501 8.70591068,7.6501 C7.42091068,7.6501 6.37491068,6.5511 6.37491068,5.2001 C6.37491068,3.8491 7.42091068,2.7501 8.70591068,2.7501 L8.70591068,2.7501 Z M16.5119107,15.3671 C16.5039107,15.1211 16.2769107,9.6931 12.5059107,7.2901 C12.8339107,6.6641 13.0369107,5.9591 13.0369107,5.2001 C13.0369107,2.7461 11.0939107,0.7501 8.70591068,0.7501 C6.31891068,0.7501 4.37491068,2.7461 4.37491068,5.2001 C4.37491068,5.8921 4.54291068,6.5401 4.81891068,7.1251 C0.769910681,9.4281 0.521910681,15.1151 0.513910681,15.3671 L0.498910681,15.8021 L0.807910681,16.1091 C1.15891068,16.4591 2.75491068,17.6001 8.51291068,17.6001 C14.2709107,17.6001 15.8669107,16.4591 16.2179107,16.1091 L16.5269107,15.8021 L16.5119107,15.3671 Z" id="Fill-1"></path>
        </g>
    </g>
</svg>