<?xml version="1.0" encoding="UTF-8"?>
<svg width="20px" height="20px" viewBox="0 0 20 20" version="1.1" xmlns="http://www.w3.org/2000/svg" xmlns:xlink="http://www.w3.org/1999/xlink">
    <!-- Generator: Sketch 50.2 (55047) - http://www.bohemiancoding.com/sketch -->
    <title>wallet-20</title>
    <desc>Created with Sketch.</desc>
    <defs></defs>
    <g id="wallet-20" stroke="none" stroke-width="1" fill="none" fill-rule="evenodd">
        <g id="wallet-20-crop" transform="translate(1.000000, 3.000000)" fill="#FF0000">
            <path d="M17,6 L16,6 L16,3 L3,3 L3,5 L14,5 L14,6 L13,6 L13,8 L15,8 L15,9 L13,9 L13,11 L14,11 L14,12 L2.89,12 C2.399,12 2,11.601 2,11.11 L2,2.89 C2,2.399 2.399,2 2.89,2 L15,2 L15,0 L2.89,0 C1.296,0 0,1.296 0,2.89 L0,11.11 C0,12.704 1.296,14 2.89,14 L16,14 L16,11 L17,11 L17,6 Z" id="Page-1"></path>
        </g>
    </g>
</svg>