<?xml version="1.0" encoding="UTF-8"?>
<svg width="20px" height="20px" viewBox="0 0 20 20" version="1.1" xmlns="http://www.w3.org/2000/svg" xmlns:xlink="http://www.w3.org/1999/xlink">
    <!-- Generator: Sketch 50.2 (55047) - http://www.bohemiancoding.com/sketch -->
    <title>wallet-minus-20</title>
    <desc>Created with Sketch.</desc>
    <defs></defs>
    <g id="wallet-minus-20" stroke="none" stroke-width="1" fill="none" fill-rule="evenodd">
        <g id="wallet-minus-20-crop" transform="translate(-0.800000, 1.000000)" fill="#FF0000">
            <path d="M6.79999995,16 C4.59399995,16 2.79999995,14.206 2.79999995,12 C2.79999995,9.794 4.59399995,8 6.79999995,8 C9.00599995,8 10.8,9.794 10.8,12 C10.8,14.206 9.00599995,16 6.79999995,16 L6.79999995,16 Z M19.8,6 L18.8,6 L18.8,3 L6.79999995,3 L6.79999995,5 L16.8,5 L16.8,6 L15.8,6 L15.8,8 L17.8,8 L17.8,9 L15.8,9 L15.8,11 L16.8,11 L16.8,12 L12.8,12 C12.8,8.691 10.109,6 6.79999995,6 C6.45899995,6 6.12599995,6.035 5.79999995,6.09 L5.79999995,2.89 C5.79999995,2.399 6.19899995,2 6.68999995,2 L17.8,2 L17.8,0 L6.68999995,0 C5.09599995,0 3.79999995,1.296 3.79999995,2.89 L3.79999995,6.812 C2.00999995,7.851 0.799999952,9.785 0.799999952,12 C0.799999952,15.309 3.49099995,18 6.79999995,18 C9.40699995,18 11.624,16.327 12.45,14 L18.8,14 L18.8,11 L19.8,11 L19.8,6 Z" id="Fill-1"></path>
            <polygon id="Fill-3" points="3.79999995 13 9.79999995 13 9.79999995 11 3.79999995 11"></polygon>
        </g>
    </g>
</svg>