<?xml version="1.0" encoding="UTF-8"?>
<svg width="20px" height="20px" viewBox="0 0 20 20" version="1.1" xmlns="http://www.w3.org/2000/svg" xmlns:xlink="http://www.w3.org/1999/xlink">
    <!-- Generator: Sketch 50.2 (55047) - http://www.bohemiancoding.com/sketch -->
    <title>world-20</title>
    <desc>Created with Sketch.</desc>
    <defs></defs>
    <g id="world-20" stroke="none" stroke-width="1" fill="none" fill-rule="evenodd">
        <g id="world-20-crop" transform="translate(1.000000, 1.000000)" fill="#FF0000">
            <path d="M8.9996,0.0005 C4.0286,0.0005 -0.0004,4.0295 -0.0004,9.0005 C-0.0004,13.9705 4.0286,18.0005 8.9996,18.0005 C13.9706,18.0005 17.9996,13.9705 17.9996,9.0005 C17.9996,4.0295 13.9706,0.0005 8.9996,0.0005 M8.9996,2.0005 C12.8596,2.0005 15.9996,5.1405 15.9996,9.0005 C15.9996,12.8595 12.8596,16.0005 8.9996,16.0005 C5.1406,16.0005 1.9996,12.8595 1.9996,9.0005 C1.9996,5.1405 5.1406,2.0005 8.9996,2.0005" id="Fill-1"></path>
            <path d="M9.2535,15.645 C9.1635,15.645 9.0735,15.638 8.9845,15.624 C8.4175,15.53 7.4475,15.064 7.3215,12.985 C7.2295,11.457 6.6785,11.217 5.9145,10.884 C5.2435,10.592 4.1185,10.102 4.1525,8.548 C4.1675,7.863 4.3935,7.31 4.8225,6.905 C5.6295,6.143 6.8355,6.188 8.0015,6.229 C9.7035,6.291 10.0145,6.164 10.0845,5.753 C10.1155,5.575 10.0915,5.507 10.0915,5.506 C9.8535,5.263 8.4715,5.353 8.0165,5.382 C7.1035,5.441 6.5015,5.481 6.0625,5.016 C5.8575,4.799 5.7325,4.415 5.7705,4.119 C5.8645,3.364 6.5015,2.882 7.1755,2.373 C7.6065,2.047 8.0955,1.677 8.2805,1.346 C8.5505,0.865 9.1555,0.691 9.6425,0.963 C10.1235,1.233 10.2955,1.842 10.0245,2.325 C9.8055,2.716 9.4985,3.046 9.1675,3.34 C10.0715,3.357 10.9965,3.526 11.5855,4.18 C11.8925,4.521 12.2225,5.129 12.0555,6.094 C11.6635,8.363 9.3205,8.284 7.9295,8.227 C7.3535,8.208 6.3935,8.172 6.1955,8.359 C6.1885,8.367 6.1555,8.429 6.1525,8.591 C6.1495,8.722 6.1705,8.765 6.1705,8.766 C6.2205,8.836 6.5285,8.97 6.7135,9.051 C7.6255,9.448 9.1505,10.113 9.3175,12.864 C9.3355,13.152 9.3705,13.354 9.4055,13.491 C9.5995,13.302 9.8715,12.946 10.1015,12.381 L10.2445,12.044 C10.5225,11.403 10.9025,10.524 10.9025,9.445 C10.9025,8.597 11.6315,7.821 12.7585,7.465 C14.0925,7.045 16.1305,7.243 17.4895,9.184 C17.8065,9.636 17.6965,10.26 17.2435,10.577 C16.7935,10.893 16.1675,10.784 15.8515,10.331 C15.2465,9.467 14.5165,9.281 14.0095,9.277 L13.9925,9.277 C13.4535,9.277 13.0495,9.478 12.9005,9.603 C12.8665,11.023 12.3765,12.154 12.0795,12.839 L11.9545,13.134 C11.3205,14.693 10.2835,15.645 9.2535,15.645" id="Fill-4"></path>
        </g>
    </g>
</svg>