<?xml version="1.0" encoding="utf-8"?><svg xmlns="http://www.w3.org/2000/svg" xmlns:xlink="http://www.w3.org/1999/xlink"><symbol viewBox="0 0 32 16" id="icon-arrow_large_left" xmlns="http://www.w3.org/2000/svg"><g fill="currentColor"><path d="M32 7H3v2h29z"/><path d="M9.278 2.35L7.864.936.793 8.006l7.071 7.072 1.414-1.414-5.657-5.657z"/></g></symbol><symbol viewBox="0 0 32 16" id="icon-arrow_large_right" xmlns="http://www.w3.org/2000/svg"><g fill="currentColor"><path d="M0 9h29V7H0z"/><path d="M22.743 13.664l1.414 1.414 7.07-7.071-7.07-7.071-1.414 1.414 5.656 5.657z"/></g></symbol><symbol viewBox="0 0 21 12" id="icon-arrow_small_left" xmlns="http://www.w3.org/2000/svg"><g fill="currentColor"><path d="M21 5H3v2h18z"/><path d="M7.279 1.76L5.865.346.208 6.003l5.657 5.657 1.414-1.415-4.243-4.242z"/></g></symbol><symbol viewBox="0 0 21 12" id="icon-arrow_small_right" xmlns="http://www.w3.org/2000/svg"><g fill="currentColor"><path d="M0 7h18V5H0z"/><path d="M13.728 10.245l1.415 1.415L20.8 6.003 15.143.346 13.728 1.76l4.243 4.243z"/></g></symbol><symbol viewBox="0 0 28 16" id="icon-arrow_standard_left" xmlns="http://www.w3.org/2000/svg"><g fill="currentColor"><path d="M28 7H3v2h25z"/><path d="M9.028 2.7L7.614 1.286.896 8.003l6.718 6.718 1.414-1.414-5.303-5.304z"/></g></symbol><symbol viewBox="0 0 28 16" id="icon-arrow_standard_right" xmlns="http://www.w3.org/2000/svg"><g fill="currentColor"><path d="M0 9h25V7H0z"/><path d="M18.99 13.307l1.413 1.414 6.718-6.718-6.718-6.717L18.99 2.7l5.303 5.303z"/></g></symbol></svg>