<?xml version="1.0" encoding="UTF-8"?>
<svg width="32px" height="32px" viewBox="0 0 32 32" version="1.1" xmlns="http://www.w3.org/2000/svg" xmlns:xlink="http://www.w3.org/1999/xlink">
    <!-- Generator: Sketch 49.3 (51167) - http://www.bohemiancoding.com/sketch -->
    <title>apply_job-32</title>
    <desc>Created with Sketch.</desc>
    <defs></defs>
    <g id="apply_job-32" stroke="none" stroke-width="1" fill="none" fill-rule="evenodd">
        <g transform="translate(4.000000, 4.000000)" fill="#FF0000" fill-rule="nonzero">
            <path d="M14.538976,8.97928 C11.8298139,8.97928 9.82274048,8.21286073 8.45644807,6.91237525 C7.60290624,6.09994392 7.16333767,5.26723863 6.99998561,4.65432969 L8.93252639,4.13927031 C8.94387093,4.18183588 8.99160356,4.30793552 9.08757089,4.48973309 C9.26044475,4.81722005 9.5055241,5.14977056 9.83534393,5.46370475 C10.8214015,6.40226927 12.3324581,6.97928 14.538976,6.97928 L22.9270618,6.97928 L23.1720378,7.62416288 L23.3451689,8.08121172 C23.7771571,9.33124094 24.000176,10.6507292 24.000176,12 C24.000176,18.6269247 18.6271007,24 12.000176,24 C5.3726628,24 0.000176,18.6272163 0.000176,12 C0.000176,5.37219525 5.37237125,0 12.000176,0 C15.5411818,0 18.8338393,1.54416046 21.0996055,4.17652024 L19.5837865,5.48123976 C17.6940014,3.28569348 14.9524804,2 12.000176,2 C6.47694075,2 2.000176,6.47676475 2.000176,12 C2.000176,17.5226716 6.47725704,22 12.000176,22 C17.5225313,22 22.000176,17.5223553 22.000176,12 C22.000176,10.9535556 21.8398391,9.93081072 21.5369357,8.97928 L14.538976,8.97928 Z" id="Stroke-1"></path>
            <path d="M7.941408,12.26192 L5.941408,12.26192 C5.941408,11.0126753 6.95408325,10 8.203328,10 C9.45257275,10 10.465248,11.0126753 10.465248,12.26192 L8.465248,12.26192 C8.465248,12.1172447 8.34800325,12 8.203328,12 C8.05865275,12 7.941408,12.1172447 7.941408,12.26192 Z" id="Stroke-3"></path>
            <path d="M15.535104,12.26192 L13.535104,12.26192 C13.535104,11.0126753 14.5477793,10 15.797024,10 C17.0463168,10 18.058064,11.0127229 18.058064,12.26192 L16.058064,12.26192 C16.058064,12.1168611 15.9413155,12 15.797024,12 C15.6523487,12 15.535104,12.1172447 15.535104,12.26192 Z" id="Stroke-5"></path>
            <path d="M15.0974852,16.1287572 L16.5116988,17.5429708 C15.3011746,18.7534949 13.6811832,19.409304 12.000352,19.409304 C10.3187712,19.409304 8.69874775,18.7535933 7.48812522,17.5429708 L8.90233878,16.1287572 C9.73368773,16.9601062 10.8434928,17.409304 12.000352,17.409304 C13.1564208,17.409304 14.2662035,16.960039 15.0974852,16.1287572 Z" id="Stroke-7"></path>
        </g>
    </g>
</svg>