<?xml version="1.0" encoding="UTF-8"?>
<svg width="32px" height="32px" viewBox="0 0 32 32" version="1.1" xmlns="http://www.w3.org/2000/svg" xmlns:xlink="http://www.w3.org/1999/xlink">
    <!-- Generator: Sketch 49.3 (51167) - http://www.bohemiancoding.com/sketch -->
    <title>card_payment-32</title>
    <desc>Created with Sketch.</desc>
    <defs></defs>
    <g id="card_payment-32" stroke="none" stroke-width="1" fill="none" fill-rule="evenodd">
        <g transform="translate(3.000000, 6.000000)" fill="#FF0000" fill-rule="nonzero" id="Shape">
            <path d="M2,16 L2,3 C2,2.55228475 2.55228475,2 3,2 L23,2 C23.4477153,2 24,2.55228475 24,3 L24,16 C24,16.4477153 23.4477153,17 23,17 L3,17 C2.55228475,17 2,16.4477153 2,16 Z M23,19 C24.5522847,19 26,17.5522847 26,16 L26,3 C26,1.44771525 24.5522847,0 23,0 L3,0 C1.44771525,0 0,1.44771525 0,3 L0,16 C0,17.5522847 1.44771525,19 3,19 L23,19 Z"></path>
            <polygon points="2 4 2 6 24 6 24 4"></polygon>
            <polygon points="9.99999998 11 9.99999998 9 3.99999998 9 3.99999998 11"></polygon>
        </g>
    </g>
</svg>