<?xml version="1.0" encoding="UTF-8"?>
<svg width="32px" height="32px" viewBox="0 0 32 32" version="1.1" xmlns="http://www.w3.org/2000/svg" xmlns:xlink="http://www.w3.org/1999/xlink">
    <!-- Generator: Sketch 49.3 (51167) - http://www.bohemiancoding.com/sketch -->
    <title>economy-32</title>
    <desc>Created with Sketch.</desc>
    <defs></defs>
    <g id="economy-32" stroke="none" stroke-width="1" fill="none" fill-rule="evenodd">
        <g transform="translate(3.000000, 3.000000)" fill="#FF0000" fill-rule="nonzero">
            <polygon id="Shape" points="22.7910623 0.460093179 9.07091276 3.12729877 9.45256918 5.09054567 21.2889408 2.82812492 22.2727252 7.17889534 24.2226098 6.73397935"></polygon>
            <path d="M3.3364868,13.134888 L5.32286237,4.33881041 L23.2144165,7.99999987 L21.3043289,16.7864487 C21.3043289,16.7864487 12.8542167,14.8778059 11.845026,14.673733 L11.4486205,16.634055 C12.4392434,16.8343733 22.7911042,19.1849017 22.7911042,19.1849017 L25.5817729,6.47354404 L3.79054971,1.98239838 L0.918352113,14.6562811 L6.18572884,15.7973311 L6.60915934,13.8426683 L3.3364868,13.134888 Z" id="Shape"></path>
            <path d="M15.5,22 C15.5,20.2050746 14.0449254,18.75 12.25,18.75 C10.4550746,18.75 9,20.2050746 9,22 C9,23.7949254 10.4550746,25.25 12.25,25.25 C14.0449254,25.25 15.5,23.7949254 15.5,22 Z M11,22 C11,21.3096441 11.5596441,20.75 12.25,20.75 C12.9403559,20.75 13.5,21.3096441 13.5,22 C13.5,22.6903559 12.9403559,23.25 12.25,23.25 C11.5596441,23.25 11,22.6903559 11,22 Z" id="Oval"></path>
            <path d="M12.5,14.25 C12.5,12.1789322 10.8210678,10.5 8.75,10.5 C6.67893219,10.5 5,12.1789322 5,14.25 C5,16.3210678 6.67893219,18 8.75,18 C10.8210678,18 12.5,16.3210678 12.5,14.25 Z M7,14.25 C7,13.2835017 7.78350169,12.5 8.75,12.5 C9.71649831,12.5 10.5,13.2835017 10.5,14.25 C10.5,15.2164983 9.71649831,16 8.75,16 C7.78350169,16 7,15.2164983 7,14.25 Z" id="Oval"></path>
        </g>
    </g>
</svg>