<?xml version="1.0" encoding="UTF-8"?>
<svg width="32px" height="32px" viewBox="0 0 32 32" version="1.1" xmlns="http://www.w3.org/2000/svg" xmlns:xlink="http://www.w3.org/1999/xlink">
    <!-- Generator: Sketch 49.3 (51167) - http://www.bohemiancoding.com/sketch -->
    <title>insurance_animal-32</title>
    <desc>Created with Sketch.</desc>
    <defs></defs>
    <g id="insurance_animal-32" stroke="none" stroke-width="1" fill="none" fill-rule="evenodd">
        <g transform="translate(5.000000, 2.000000)" fill="#FF0000" fill-rule="nonzero">
            <path d="M12.3079094,21.2813369 L11.8497073,23.2281422 C9.96906219,22.7855117 8.60999966,21.1261663 8.60999966,19.1687287 C8.60999966,16.8592782 10.4854624,15 12.7787283,15 C13.6545928,15 14.5103848,15.2900673 15.2399174,15.7948778 L14.1018793,17.4395265 C13.6940575,17.1573284 13.2298881,17 12.7787283,17 C11.5861702,17 10.6099997,17.9677466 10.6099997,19.1687287 C10.6099997,20.1842205 11.3176939,21.0482788 12.3079094,21.2813369 Z" id="Stroke-1"></path>
            <path d="M7.96922199,25 L7.96922199,27 L4.19156325,27 L2,27 L2,23.2999992 C2,21.9984421 2.93684885,21 4.19156325,21 L8,21 L8,23 L4.19156325,23 C4.07088819,23 4,23.0755487 4,23.2999992 L4,25 L7.96922199,25 Z" id="Stroke-3"></path>
            <path d="M2.15569096,5.015625 L2.02180762,5.70056764 C1.94334507,6.29011656 2.07455199,6.93671316 2.41820745,7.50936596 C3.2238421,8.92871706 5.04001308,9.40662223 6.49207114,8.58283087 L7.4789653,10.3223825 C5.07549647,11.6859346 2.03501429,10.8858656 0.69132078,8.51795534 C0.125261533,7.57567379 -0.0985752575,6.47259093 0.0488983349,5.37794866 L0.507798104,3.015625 L3.97998072,3.015625 C5.2370447,1.61772205 7.05533405,0.789033473 9.00529383,0.789033473 C12.5463247,0.789033473 15.6923047,3.5329002 16,7.07042888 L16,8.16188097 C16,9.74999637 14.5154647,11.0260703 12.9163677,11.0260703 C11.3263967,11.0260703 10,9.74916599 10,8.16188097 L10,7 L12,7 L12,8.16188097 C12,8.62722195 12.4143076,9.02607029 12.9163677,9.02607029 C13.4724208,9.02607029 14,8.57257481 14,8.16188097 L14,7.79947877 L14.0038561,7.15816383 C13.7928583,4.76249068 11.5301911,2.78903347 9.00529383,2.78903347 C7.50563628,2.78903347 6.12070641,3.4813927 5.24025353,4.62549769 L4.9400287,5.015625 L2.15569096,5.015625 Z" id="Stroke-5"></path>
            <polygon id="Stroke-7" points="5 12 7 12 7 22.910818 5 22.910818"></polygon>
            <path d="M22.3316813,16.7187685 L24.3316813,16.7187685 C24.3316813,19.8079853 21.8128443,22.3275378 18.7238607,22.3275378 L18.7238607,20.3275378 C20.7081476,20.3275378 22.3316813,18.7035429 22.3316813,16.7187685 Z" id="Stroke-9"></path>
            <path d="M17.7234812,21.3272532 C17.7234812,17.2387378 15.7781731,13.4260872 12.5591732,10.970061 L13.7723391,9.38002058 C17.4801679,12.2090125 19.7234812,16.6057298 19.7234812,21.3272532 C19.7234812,23.1014337 19.4451874,24.7803558 18.8891333,26.3364926 L18.6520423,27 L9.05728242,27 L7.86571917,27 L7.86571917,25 L17.2206095,25 C17.5550729,23.8514719 17.7234812,22.6237228 17.7234812,21.3272532 Z" id="Stroke-13"></path>
        </g>
    </g>
</svg>