<?xml version="1.0" encoding="UTF-8"?>
<svg width="32px" height="32px" viewBox="0 0 32 32" version="1.1" xmlns="http://www.w3.org/2000/svg" xmlns:xlink="http://www.w3.org/1999/xlink">
    <!-- Generator: Sketch 49.3 (51167) - http://www.bohemiancoding.com/sketch -->
    <title>investment-32</title>
    <desc>Created with Sketch.</desc>
    <defs></defs>
    <g id="investment-32" stroke="none" stroke-width="1" fill="none" fill-rule="evenodd">
        <g transform="translate(4.000000, 6.000000)" fill="#FF0000">
            <polygon id="growth-arrow-32-crop" points="17.0169999 0 17.0169999 2 20.6029999 2 13.0169999 9.586 9.01699994 5.585 0.309999943 14.293 1.72399994 15.707 9.01699994 8.414 13.0169999 12.414 22.0169999 3.414 22.0169999 7 24.0169999 7 24.0169999 0"></polygon>
            <polygon id="Rectangle-2" points="3 17 5 15 5 20 3 20"></polygon>
            <polygon id="Rectangle-2" points="7 13 9 11 9 20 7 20"></polygon>
            <polygon id="Rectangle-2" points="11 13 13 15 13 20 11 20"></polygon>
            <polygon id="Rectangle-2" points="15 13 17 11 17 20 15 20"></polygon>
            <polygon id="Rectangle-2" points="19 9 21 7 21 20 19 20"></polygon>
        </g>
    </g>
</svg>