<?xml version="1.0" encoding="UTF-8"?>
<svg width="32px" height="32px" viewBox="0 0 32 32" version="1.1" xmlns="http://www.w3.org/2000/svg" xmlns:xlink="http://www.w3.org/1999/xlink">
    <!-- Generator: Sketch 50.2 (55047) - http://www.bohemiancoding.com/sketch -->
    <title>pension_mega-32</title>
    <desc>Created with Sketch.</desc>
    <defs></defs>
    <g id="pension_mega-32" stroke="none" stroke-width="1" fill="none" fill-rule="evenodd">
        <g id="pension-mega-32-crop" transform="translate(2.500000, 4.000000)" fill="#FF0000">
            <path d="M13.5020004,-0.0001 L8.31000042,8.9999 L18.6950004,8.9999 L13.5020004,-0.0001 Z M13.5020004,4.0019 L15.2320004,6.9999 L11.7720004,6.9999 L13.5020004,4.0019 Z" id="Fill-1"></path>
            <path d="M7.73299998,13.9998 L8.88599998,12.0008 L18.114,12.0008 L19.268,13.9998 L7.73299998,13.9998 Z M19.271,9.9998 L7.73099998,9.9998 L4.26999998,15.9998 L22.732,15.9998 L19.271,9.9998 Z" id="Fill-2"></path>
            <path d="M3.69300002,17 L0.230000019,23.003 L26.772,23.003 L23.309,17 L3.69300002,17 Z M4.84700002,19.001 L22.152,19.001 L23.309,21.003 L3.69200002,21.003 L4.84700002,19.001 Z" id="Fill-3"></path>
        </g>
    </g>
</svg>