<?xml version="1.0" encoding="UTF-8"?>
<svg width="32px" height="32px" viewBox="0 0 32 32" version="1.1" xmlns="http://www.w3.org/2000/svg" xmlns:xlink="http://www.w3.org/1999/xlink">
    <!-- Generator: Sketch 49.3 (51167) - http://www.bohemiancoding.com/sketch -->
    <title>subsidiaries-32</title>
    <desc>Created with Sketch.</desc>
    <defs></defs>
    <g id="subsidiaries-32" stroke="none" stroke-width="1" fill="none" fill-rule="evenodd">
        <g transform="translate(4.000000, 5.000000)" fill="#FF0000" fill-rule="nonzero">
            <path d="M8,2 L8,8 L16,8 L16,2 L8,2 Z M6,0 L18,0 L18,10 L6,10 L6,0 Z" id="Rectangle"></path>
            <path d="M11,18 L11,20 L13,20 L13,18 L11,18 Z M9,16 L15,16 L15,22 L9,22 L9,16 Z" id="Rectangle"></path>
            <path d="M20,18 L20,20 L22,20 L22,18 L20,18 Z M18,16 L24,16 L24,22 L18,22 L18,16 Z" id="Rectangle"></path>
            <path d="M2,18 L2,20 L4,20 L4,18 L2,18 Z M0,16 L6,16 L6,22 L0,22 L0,16 Z" id="Rectangle"></path>
            <polygon id="Line" points="4 14 4 17 2 17 2 12 22 12 22 17 20 17 20 14"></polygon>
            <polygon id="Line-2" points="11 8.5 13 8.5 13 17 11 17"></polygon>
        </g>
    </g>
</svg>