<svg xmlns="http://www.w3.org/2000/svg" xmlns:xlink="http://www.w3.org/1999/xlink"><symbol id="accident-20" viewBox="0 0 20 20"><path d="M5 0v5H0v6h5v5h5.999v-5H16V5h-5.001V0H5zM1.999 7H7V2h2v5h5v2H9v5H7V9H1.999V7z" transform="translate(2 2)" fill="currentColor" fill-rule="evenodd"/></symbol><symbol id="arrow-enclosed-20" viewBox="0 0 20 20"><g fill="currentColor" fill-rule="evenodd"><path d="M9 16c-3.86 0-7-3.14-7-7s3.14-7 7-7 7 3.14 7 7-3.14 7-7 7M9 0C4.038 0 0 4.038 0 9s4.038 9 9 9 9-4.038 9-9-4.038-9-9-9" transform="translate(1 1)"/><path d="M8.783 6.697L10.049 8H4v2h6.049l-1.266 1.304 1.434 1.393L13.81 9l-3.593-3.696z" transform="translate(1 1)"/></g></symbol><symbol id="arrows-apart-20" viewBox="0 0 20 20"><path d="M8.071.83L.48 7.461 8.071 14.3V11h5.933v-.799l2.487 2.301-2.487 2.32v-.796H9.003v2h3.001v3.247l7.512-6.784-7.512-6.69V9H6.07v.855L3.527 7.488 6.07 5.17V6h4.934V4H8.071z" fill="currentColor" fill-rule="evenodd"/></symbol><symbol id="attach-20" viewBox="0 0 16 18"><defs><path d="M6.846 13.19c1.18 2.204 2.534 2.745 4.434 1.858 1.901-.886 2.357-2.27 1.45-4.54L9.65 3.904l1.812-.845 3.102 6.654c1.307 3.261.475 5.79-2.438 7.148-2.913 1.358-5.385.37-7.067-2.776L1.182 5.772l-.04-.102C.457 3.654 1.207 2.01 3.2 1.082 5.188.155 6.932.628 8.058 2.432l.058.106 3.876 8.313.045.112c.468 1.432.087 2.636-1.16 3.218-1.248.582-2.416.1-3.213-1.177l-.058-.107-3.08-6.604 1.813-.845 3.053 6.546c.28.439.406.483.639.375.233-.109.279-.233.122-.73L6.331 3.443c-.572-.886-1.216-1.047-2.286-.548-1.068.499-1.35 1.085-1.026 2.085l3.827 8.211z" id="a"/></defs><g fill="none" fill-rule="evenodd"><path d="M0 0h20v20H0z" transform="translate(-2 -1)"/><use fill="currentColor" fill-rule="nonzero" xmlns:xlink="http://www.w3.org/1999/xlink" xlink:href="#a"/></g></symbol><symbol id="bankid-20" viewBox="0 0 20 20"><path d="M14.627 13.852h1.533c1.183 0 1.533.876 1.417 1.6-.1.706-.667 1.514-1.7 1.514H14.16l.467-3.114zm1 2.374c.517 0 .817-.253.9-.808.067-.404-.067-.808-.633-.808h-.3l-.25 1.633.283-.017zm-2.6-2.374h1.083l-.483 3.098h-1.083zm-3.3 0h.934l-.234 1.532.9-.825h1.15l-1.15 1.027.917 1.38H11.06l-.717-1.11h-.017l-.166 1.11h-.933zm-3.116.708h.933l-.05.32c.3-.253.517-.354.817-.354.517 0 .767.32.683.858l-.25 1.582h-.933l.2-1.313c.033-.235-.033-.353-.217-.353-.15 0-.283.084-.416.252L7.16 16.95h-.933l.383-2.39zm-.883 2.423c-.467.034-.7-.017-.8-.219A1.54 1.54 0 014.11 17c-.533 0-.716-.27-.666-.59.016-.15.1-.285.25-.403.283-.253 1.016-.286 1.3-.488.016-.219-.067-.303-.334-.303-.316 0-.566.1-1.016.404l.1-.707c.383-.286.75-.404 1.183-.404.55 0 1.033.219.933.825l-.1.69c-.033.235-.033.32.233.32l-.266.64zm-.8-1.06c-.25.151-.717.134-.767.454-.016.152.067.27.217.27s.333-.068.467-.169c-.017-.05 0-.118.016-.219l.067-.336zm-4.35-2.071h1.8c.767 0 .95.388.9.758-.05.286-.233.505-.583.64.433.168.6.42.533.824-.083.505-.517.876-1.083.876H.095l.483-3.098zm1.183 1.297c.35 0 .517-.186.55-.404.034-.236-.066-.404-.416-.404h-.317l-.133.808h.316zm-.2 1.346c.367 0 .567-.151.617-.454.033-.253-.1-.421-.45-.421h-.35l-.133.875h.317zM11.594 0H7.128l-.6 3.82h.766c.417 0 .817-.184.984-.47a.505.505 0 00.083-.236c0-.152-.1-.286-.217-.354-.3-.218-.35-.454-.35-.622v-.085c.067-.403.6-.841 1.317-.841.433 0 .75.1.95.286.166.168.25.404.2.64-.067.286-.35.521-.517.64-.433.302-.383.572-.35.656.083.235.433.387.7.387h1.167c1.583.017 2.433.74 2.15 2.457-.25 1.582-1.45 2.272-2.884 2.29l-.6 3.652h.834c3.55 0 6.432-2.306 7.016-5.925C18.493 1.801 15.66 0 11.594 0zm-5.15 4.14h-.8c-.366 0-.85-.201-1-.589-.05-.134-.15-.589.467-1.026.217-.152.367-.32.383-.455a.353.353 0 00-.1-.353c-.116-.118-.383-.202-.716-.202-.567 0-.967.336-1 .572-.033.185.117.32.233.404.35.27.434.657.217 1.027-.233.37-.717.623-1.233.623h-.817c-.067.454-1.166 7.523-1.25 8.079h4.4c.017-.236.217-1.582.483-3.35l.733-4.73z" transform="translate(1 2)" fill="currentColor" fill-rule="evenodd"/></symbol><symbol id="bills-coins-20" viewBox="0 0 20 20"><g fill="currentColor" fill-rule="evenodd"><path d="M13.518 10.197l-3.911-.849c-.174-1.769-1.652-3.16-3.466-3.16a3.488 3.488 0 00-3.026 1.774l-.734-.15 1.176-5.437 11.102 2.382-1.141 5.44zm-7.377.99c-.827 0-1.5-.673-1.5-1.5s.673-1.5 1.5-1.5 1.5.673 1.5 1.5-.673 1.5-1.5 1.5zM2.024 0L0 9.364l2.664.547c.117 1.824 1.624 3.276 3.477 3.276 1.34 0 2.494-.766 3.082-1.876l5.84 1.267 1.96-9.359L2.024 0z" transform="translate(1 1)"/><path d="M9.79 16.088c-.283 0-.49-.095-.725-.363a.448.448 0 01-.057-.087l-.053-.13c-.015-.028-.015-.186-.015-.27 0-.461.389-.85.85-.85.461 0 .851.389.851.85 0 .46-.39.85-.851.85m0-3.7a2.853 2.853 0 00-2.85 2.85c0 .287 0 .674.195 1.1.108.29.291.574.464.744a2.802 2.802 0 002.191 1.006 2.853 2.853 0 002.851-2.85 2.853 2.853 0 00-2.851-2.85" transform="translate(1 1)"/></g></symbol><symbol id="boat-20" viewBox="0 0 20 20"><g fill="currentColor" fill-rule="nonzero"><path d="M5.237 4.48c-.353.903-1.1 3.195-1.155 3.336L2.218 7.09c.028-.07.775-2.363 1.168-3.368.023-.054.023-.054.053-.118a2.22 2.22 0 01.818-.916c.71-.455 1.804-.647 3.594-.687h2.327c1.775.035 2.873.228 3.585.69a2.249 2.249 0 01.82.939l-.013-.028.02.044.026.058.055.133c.562 1.655.944 2.745 1.142 3.254l-1.864.724c-.208-.534-.585-1.606-1.136-3.23a263.09 263.09 0 01-.02-.06l-.025-.054c0-.003 0-.003-.013-.029l.01.022a.17.17 0 00-.015-.026.26.26 0 00-.077-.07c-.304-.197-1.113-.34-2.515-.368H7.873c-1.42.032-2.229.175-2.535.371a.254.254 0 00-.078.069c-.01.015-.015.024-.012.017-.015.034-.015.034-.011.023zM.106 16.257l1.088-1.678c.396.257.867.26 1.243.022a5.337 5.337 0 015.874-.02c.394.256.866.26 1.241.023a5.333 5.333 0 015.873-.023c.397.258.867.26 1.267.008l1.068 1.69a3.143 3.143 0 01-3.422-.02c-1.14-.736-2.554-.73-3.702.025a3.14 3.14 0 01-3.413-.025c-1.14-.737-2.553-.732-3.701.023a3.138 3.138 0 01-3.416-.025zm2.801-7.262l-.126.01c-.068 0-.138.04-.186.12a.307.307 0 00-.032.243l1.624 3.413-1.804.863c-.685-1.433-.547-1.162-1.64-3.447A2.31 2.31 0 01.885 8.09 2.224 2.224 0 012.69 7.006L9 6.145l6.365.87a2.192 2.192 0 011.756 1.077c.385.638.432 1.423.116 2.16l-1.612 3.392-1.804-.864c.688-1.436.531-1.137 1.595-3.355a.329.329 0 00-.014-.31.199.199 0 00-.16-.104L15.137 9 9 8.164l-6.093.832z" transform="translate(1 1)"/><path d="M8 1a1 1 0 112 0v2a1 1 0 11-2 0V1zm0 7h2v5H8z" transform="translate(1 1)"/></g></symbol><symbol id="breifcase-first-aid-20" viewBox="0 0 20 20"><g fill="currentColor" fill-rule="evenodd"><path d="M10 7H8v2H6v2h2v2h2v-2h2V9h-2z" transform="translate(1 1)"/><path d="M16 14.5c0 .271-.229.5-.5.5H15V5h.5c.271 0 .5.229.5.5v9zm-3 .5H5V5h8v10zM3 15h-.5a.507.507 0 01-.5-.5v-9c0-.271.229-.5.5-.5H3v10zM7 3h4V2H7v1zm8.5 0H13V0H5v3H2.5A2.503 2.503 0 000 5.5v9C0 15.878 1.121 17 2.5 17h13c1.379 0 2.5-1.122 2.5-2.5v-9C18 4.122 16.879 3 15.5 3z" transform="translate(1 1)"/></g></symbol><symbol id="briefcase-20" viewBox="0 0 20 20"><g fill="none" fill-rule="evenodd"><path d="M0 0h20v20H0z"/><path d="M14 2v3h2.5A2.5 2.5 0 0119 7.5v8a2.5 2.5 0 01-2.5 2.5h-13A2.5 2.5 0 011 15.5v-8A2.5 2.5 0 013.5 5H6V2h8zm3 7.999L14.333 12H5.667L3 10.001V15.5a.5.5 0 00.5.5h13a.5.5 0 00.5-.5V9.999zM16.5 7h-13a.5.5 0 00-.5.5v.001L6.333 10h7.334L17 7.5a.5.5 0 00-.5-.5zM12 4H8v1h4V4z" fill="currentColor" fill-rule="nonzero"/></g></symbol><symbol id="calendar-20" viewBox="0 0 20 20"><path d="M14 5.5H2V3.83c0-.181.161-.326.345-.33H4v1h2v-1h4v1h2v-1h1.634c.205.004.366.149.366.33V5.5zm0 9.662a.331.331 0 01-.346.338H2.345A.33.33 0 012 15.162V7.5h12v7.662zM13.654 1.5H12v-1h-2v1H6v-1H4v1H2.325C1.021 1.526 0 2.55 0 3.83v11.332A2.317 2.317 0 002.345 17.5h11.309A2.317 2.317 0 0016 15.162V3.83c0-1.28-1.021-2.304-2.346-2.33z" transform="translate(2 .5)" fill="currentColor" fill-rule="evenodd"/></symbol><symbol id="calendar-check-20" viewBox="0 0 20 20"><g fill="currentColor" fill-rule="evenodd"><path d="M14 5.5H2V3.83c0-.181.161-.326.346-.33H4v1h2v-1h4v1h2v-1h1.634c.205.004.366.149.366.33V5.5zm0 9.662a.331.331 0 01-.346.338H2.346A.331.331 0 012 15.162V7.5h12v7.662zM13.654 1.5H12v-1h-2v1H6v-1H4v1H2.325C1.021 1.526 0 2.55 0 3.83v11.332A2.317 2.317 0 002.346 17.5h11.308A2.317 2.317 0 0016 15.162V3.83c0-1.28-1.021-2.304-2.346-2.33z" transform="translate(2 .5)"/><path d="M12.484 9.209l-1.41-1.418-3.914 3.892-1.448-1.48-1.424 1.405 2.858 2.908z" transform="translate(2 .5)"/></g></symbol><symbol id="calendar-cross-20" viewBox="0 0 20 20"><g fill="currentColor" fill-rule="evenodd"><path d="M14 5H2V3.33c0-.181.161-.326.346-.33H4v1h2V3h4v1h2V3h1.634c.205.004.366.149.366.33V5zm0 9.662a.331.331 0 01-.346.338H2.346A.331.331 0 012 14.662V7h12v7.662zM13.654 1H12V0h-2v1H6V0H4v1H2.325C1.021 1.026 0 2.05 0 3.33v11.332A2.317 2.317 0 002.346 17h11.308A2.317 2.317 0 0016 14.662V3.33c0-1.28-1.021-2.304-2.346-2.33z" transform="translate(2 1)"/><path d="M5.965 14.45L8 12.415l2.035 2.035 1.414-1.414L9.414 11l2-2.001L10 7.586l-2 2-2-2L4.586 9l2 2-2.035 2.036z" transform="translate(2 1)"/></g></symbol><symbol id="car-20" viewBox="0 0 20 20"><g transform="translate(0 1)" fill="currentColor" fill-rule="evenodd"><path d="M3 9.066l.992-3.094 1.524-2.997a.697.697 0 01.063-.063c.111-.1.28-.209.525-.32C6.908 2.23 8.18 2.002 10 2c1.819-.001 3.09.228 3.894.591.246.111.415.22.527.321a.59.59 0 01.063.063l1.519 2.988L17 9.07V15h2V8.758l-1.142-3.559-1.631-3.21C15.882 1.39 14.623-.003 9.999 0 5.375.003 4.12 1.387 3.774 1.988l-1.638 3.22L1 8.754V15h2V9.066z" fill-rule="nonzero"/><path fill-rule="nonzero" d="M11.978 5.003l-.396-.916 1.836-.794 1.604 3.71H6v-2zM2 16.003v-2h16v2zm0-3v-2h10v2zm11 0v-2h5v2zM1 7a1 1 0 110-2h1.5a1 1 0 110 2H1zm16.5 0a1 1 0 010-2H19a1 1 0 010 2h-1.5z"/><circle cx="5.5" cy="8.75" r="1.25"/><circle cx="14.5" cy="8.75" r="1.25"/><path d="M17 17.5a1 1 0 01-1-1v-2h3v2a1 1 0 01-1 1h-1zm-15 0a1 1 0 01-1-1v-2h3v2a1 1 0 01-1 1H2z" fill-rule="nonzero"/></g></symbol><symbol id="card-20" viewBox="0 0 20 20"><g fill="currentColor" fill-rule="evenodd"><path d="M15.697 11H2.317C2.156 11 2 10.846 2 10.727V5h13.997v5.76a.205.205 0 01-.062.15.32.32 0 01-.238.09zm0-9c.083 0 .17.038.233.103a.22.22 0 01.067.17V3H2v-.728C2 2.153 2.155 2 2.318 2h13.379zm2.299.305a2.175 2.175 0 00-.628-1.592A2.342 2.342 0 0015.697 0H2.317C1.063 0 0 1.04 0 2.272v8.455C0 11.96 1.062 13 2.318 13h13.379a2.31 2.31 0 001.675-.7 2.171 2.171 0 00.625-1.573l-.001-8.422z" transform="translate(1 3)"/><path d="M2.996 8h4V6h-4z" transform="translate(1 3)"/></g></symbol><symbol id="card-block-20" viewBox="0 0 20 20"><g fill="currentColor" fill-rule="evenodd"><path d="M9.008 10H1.992C2.004 10 2 2.009 2 2.009 2 2.002 14.006 2 14.006 2 13.999 2 14 7.063 14 7.063h2V2.005A2 2 0 0014.006 0H1.994A2.003 2.003 0 000 2.009V9.99C0 11.101.9 12 1.992 12h7.016v-2zm0 0H1.992C2.004 10 2 2.009 2 2.009 2 2.002 14.006 2 14.006 2 13.999 2 14 7.063 14 7.063h2V2.005A2 2 0 0014.006 0H1.994A2.003 2.003 0 000 2.009V9.99C0 11.101.9 12 1.992 12h7.016v-2z" fill-rule="nonzero" transform="translate(1 2)"/><path d="M2.996 8h3V6h-3z" transform="translate(1 2)"/><path d="M13.5 15a3.5 3.5 0 100-7 3.5 3.5 0 000 7zm0 2a5.5 5.5 0 110-11 5.5 5.5 0 010 11z" fill-rule="nonzero" transform="translate(1 2)"/><path fill-rule="nonzero" d="M9.086 8.5l7.414 7.414 1.414-1.414L10.5 7.086zM.5 5h15V3H.5z" transform="translate(1 2)"/></g></symbol><symbol id="chat-20" viewBox="0 0 20 20"><path d="M12.998 0h-6A6.505 6.505 0 00.5 6.498a6.505 6.505 0 006.498 6.498h.804l4.196 4.154V11h-2v1.356l-1.374-1.36H6.998A4.503 4.503 0 012.5 6.498 4.503 4.503 0 016.998 2h6a4.503 4.503 0 014.498 4.498 4.503 4.503 0 01-4.498 4.498v2a6.505 6.505 0 006.498-6.498A6.505 6.505 0 0012.998 0" transform="translate(0 2)" fill="currentColor" fill-rule="evenodd"/></symbol><symbol id="check-20" viewBox="0 0 20 20"><path d="M11.007 0l-6.64 6.614-2.943-2.98L0 5.037l4.353 4.41 8.063-8.03z" transform="translate(3.9 5.1)" fill="currentColor" fill-rule="evenodd"/></symbol><symbol id="check-enclosed-20" viewBox="0 0 20 20"><g fill="currentColor" fill-rule="nonzero"><path d="M9 2C5.141 2 2 5.14 2 9s3.141 7 7 7 7-3.14 7-7-3.141-7-7-7m0 16c-4.963 0-9-4.038-9-9s4.037-9 9-9 9 4.038 9 9-4.037 9-9 9" transform="translate(1 1)"/><path d="M7.854 13.247l-3.56-3.604L5.72 8.238l2.149 2.176L12.507 5.8l1.41 1.418z" transform="translate(1 1)"/></g></symbol><symbol id="chevron-20" viewBox="0 0 20 20"><path d="M1.414 0L0 1.414l4 4-4 4 1.414 1.414 4.001-4 1.413-1.415L5.415 4z" transform="translate(6.6 4.6)" fill="currentColor" fill-rule="evenodd"/></symbol><symbol id="chevron-down-20" viewBox="0 0 20 20"><path d="M1.414 0L0 1.414l4 4-4 4 1.414 1.414 4.001-4 1.413-1.415L5.415 4z" transform="rotate(90 4.5 11.1)" fill="currentColor" fill-rule="evenodd"/></symbol><symbol id="chevron-left-20" viewBox="0 0 20 20"><path d="M1.414 0L0 1.414l4 4-4 4 1.414 1.414 4.001-4 1.413-1.415L5.415 4z" transform="rotate(180 6.8 7.8)" fill="currentColor" fill-rule="evenodd"/></symbol><symbol id="chevron-right-20" viewBox="0 0 20 20"><path d="M1.414 0L0 1.414l4 4-4 4 1.414 1.414 4.001-4 1.413-1.415L5.415 4z" transform="translate(6.6 4.6)" fill="currentColor" fill-rule="evenodd"/></symbol><symbol id="chevron-up-20" viewBox="0 0 20 20"><path d="M1.414 0L0 1.414l4 4-4 4 1.414 1.414 4.001-4 1.413-1.415L5.415 4z" transform="rotate(-90 9.1 4.5)" fill="currentColor" fill-rule="evenodd"/></symbol><symbol id="clipboard-20" viewBox="0 0 20 20"><g fill="currentColor" fill-rule="evenodd"><path d="M14 15.662a.331.331 0 01-.346.338H2.346A.331.331 0 012 15.662V3.33c0-.181.161-.326.346-.33H7v1H5v2h6V4H9V3h4.634c.205.004.366.149.366.33v12.332zM9 1V0H7v1H2.325C1.021 1.027 0 2.05 0 3.33v12.332A2.317 2.317 0 002.346 18h11.308A2.317 2.317 0 0016 15.662V3.33c0-1.28-1.021-2.303-2.346-2.33H9z" transform="translate(2 1)"/><path d="M4 10h8V8H4zm0 4h8v-2H4z" transform="translate(2 1)"/></g></symbol><symbol id="clock-20" viewBox="0 0 20 20"><g fill="currentColor" fill-rule="nonzero"><path d="M9 0C4.039 0 0 4.039 0 9s4.039 9 9 9 9-4.039 9-9-4.039-9-9-9zm0 2c3.873 0 7 3.127 7 7s-3.127 7-7 7a6.99 6.99 0 01-7-7c0-3.873 3.127-7 7-7z" transform="translate(1 1)"/><path d="M10 8.465l3.305 2.203-1.11 1.664L8 9.535V4h2z" transform="translate(1 1)"/></g></symbol><symbol id="coins-20" viewBox="0 0 20 20"><g fill="none" fill-rule="evenodd"><path d="M0 0h20v20H0z"/><path d="M8 15v2H0v-2h8zm10 0v2h-8v-2h8zM8 12v2H0v-2h8zm10 0v2h-8v-2h8zm-4-8a4 4 0 110 8 4 4 0 010-8zM8 9v2H0V9h8zm6-3a2 2 0 100 4 2 2 0 000-4zM8 6v2H0V6h8zm2-3v2H2V3h8zM8 0v2H0V0h8z" transform="translate(1 2)" fill="currentColor" fill-rule="nonzero"/></g></symbol><symbol id="contentcard-20" viewBox="0 0 20 20"><g fill="none" fill-rule="evenodd"><path d="M0 0h20v20H0z"/><path d="M18 0v14H0V0h18zm-2 2H2v10h14V2zM9 4a3 3 0 013 3h-2a1 1 0 10-1 1v2a3 3 0 110-6z" transform="translate(1 3)" fill="currentColor" fill-rule="nonzero"/></g></symbol><symbol id="cross-20" viewBox="0 0 20 20"><path d="M9.414 0l-4 4-4-4L0 1.414l3.999 4-3.999 4 1.414 1.414 4-4 4 4 1.414-1.414-4-4 4-4z" transform="translate(4.6 4.6)" fill="currentColor" fill-rule="evenodd"/></symbol><symbol id="cross-enclosed-20" viewBox="0 0 20 20"><g fill="currentColor" fill-rule="evenodd"><path d="M9 2C5.141 2 2 5.14 2 9s3.141 7 7 7 7-3.14 7-7-3.141-7-7-7m0 16c-4.963 0-9-4.038-9-9s4.037-9 9-9 9 4.038 9 9-4.037 9-9 9" transform="translate(1 1)"/><path d="M13.425 12.01L10.414 9l3-3L12 4.586l-3 3-3-3L4.586 6l3 3-3.011 3.01 1.414 1.415 3.01-3.011 3.012 3.01z" transform="translate(1 1)"/></g></symbol><symbol id="document-20" viewBox="0 0 20 20"><g fill="currentColor" fill-rule="evenodd"><path d="M0 0v18h14l-.005-14.414L10.415 0H0zm2 2h7.585l2.41 2.415L12 16H2V2z" transform="translate(3 1)"/><path d="M4 7h6V5H4zm0 3h6V8H4zm0 3h6v-2H4z" transform="translate(3 1)"/></g></symbol><symbol id="dog-20" viewBox="0 0 20 20"><g fill="currentColor" fill-rule="nonzero"><path d="M8.688 13.629l-.459 1.946a3.092 3.092 0 01-2.396-3.005A3.088 3.088 0 018.92 9.483a3.2 3.2 0 011.814.584l-1.137 1.646a1.212 1.212 0 00-.677-.23c-.598 0-1.087.485-1.087 1.087 0 .507.355.94.855 1.059zM5.691 16v2H1.15v-3.24a1.74 1.74 0 011.753-1.752H5.15v2h-2V16h2.541zM2.033 3.409l-.023.113c-.038.29.028.615.208.914.407.72 1.33.962 2.075.54l.986 1.74c-1.695.962-3.843.397-4.788-1.27a3.432 3.432 0 01-.454-2.247l.35-1.79h2.621a4.64 4.64 0 013.339-1.41c2.427 0 4.59 1.879 4.803 4.342v.556c0 1.293-1.04 2.415-2.5 2.415s-2.5-1.122-2.5-2.415V4h2v.897c0 .221.18.415.5.415s.5-.194.5-.415l.004-.468c-.117-1.32-1.394-2.43-2.807-2.43a2.63 2.63 0 00-2.09 1.02l-.3.39H2.032z" transform="translate(1.85 1)"/><path d="M3.15 8h2v5.44h-2zm12.014 3h2a3.922 3.922 0 01-3.914 3.915v-2A1.922 1.922 0 0015.164 11z" transform="translate(1.85 1)"/><path d="M8 7.183l.863-1.804.624.3.112.062c2.787 1.809 4.526 4.915 4.526 8.284 0 1.167-.184 2.29-.548 3.31L13.34 18H5.626v-2h6.266c.154-.62.233-1.285.233-1.975 0-2.66-1.367-5.122-3.562-6.572l-.564-.27z" transform="translate(1.85 1)"/></g></symbol><symbol id="ellipsis-enclosed-20" viewBox="0 0 20 20"><g fill="currentColor" fill-rule="evenodd"><path d="M11.75 15.436v.004h-.009C10.899 15.8 9.972 16 9 16c-.972 0-1.899-.2-2.741-.56H6.16v-.047a7.042 7.042 0 01-3.6-3.652A6.954 6.954 0 012 9c0-.972.2-1.898.56-2.74a7.034 7.034 0 013.6-3.652V2.56h.099a6.98 6.98 0 015.482 0h.009v.005a7.038 7.038 0 013.69 3.695c.36.842.56 1.768.56 2.74 0 .973-.2 1.899-.56 2.74a7.038 7.038 0 01-3.69 3.696m3.69-12.71a8.967 8.967 0 00-12.88 0 8.963 8.963 0 000 12.548c.055.056.11.112.166.166A8.962 8.962 0 009 18a8.962 8.962 0 006.274-2.56c.056-.054.111-.11.166-.166a8.965 8.965 0 000-12.547" transform="translate(1 1)"/><path d="M6.16 7.801a1.497 1.497 0 00-.85-.24c-.9 0-1.53.63-1.53 1.44 0 .81.72 1.44 1.53 1.44.322 0 .613-.104.85-.275.359-.259.59-.679.59-1.166 0-.507-.211-.943-.59-1.199M9 7.56c-.81 0-1.44.63-1.44 1.44 0 .81.63 1.44 1.44 1.44.81 0 1.44-.63 1.44-1.44 0-.81-.63-1.44-1.44-1.44m3.69 0c-.368 0-.687.109-.94.289a1.39 1.39 0 00-.59 1.15c0 .463.238.86.59 1.123.265.197.592.318.94.318.81 0 1.53-.63 1.53-1.44 0-.81-.72-1.44-1.53-1.44" transform="translate(1 1)"/></g></symbol><symbol id="external-link-20" viewBox="0 0 20 20"><g fill="currentColor" fill-rule="evenodd"><path d="M9 0v2h2.586L7.293 6.295l1.414 1.414L13 3.415V6h2V0z" transform="translate(3 2)"/><path d="M0 1v14h14.001l-.007-7.001-2 .002.005 5H2V3h5V1z" transform="translate(3 2)"/></g></symbol><symbol id="external-link-inline-20" viewBox="0 0 20 20"><g fill="currentColor" fill-rule="evenodd"><path d="M6.005 0L6 1.75h2.84L4.1 6.5l1.4 1.4 4.75-4.74v2.835H12V0z" transform="translate(4 4)"/><path d="M0 1v11h11V8H9v2H2V3h2V1z" transform="translate(4 4)"/></g></symbol><symbol id="family-20" viewBox="0 0 20 20"><g fill="currentColor" fill-rule="nonzero"><path d="M2.4 18.9h-2v-5.469c0-2.316 1.454-4.145 3.846-4.519l.308 1.976c-1.386.217-2.154 1.183-2.154 2.543V18.9z" transform="translate(.6 .1)"/><path d="M7.938 5.9c-1.646 0-2.757-.82-3.357-2.027l1.791-.89c.286.575.75.918 1.566.918h4.147l.177.778a5.5 5.5 0 11-1.191-2.356L9.555 3.628a3.5 3.5 0 10.845 2.281c0-.001-.82-.004-2.462-.008zm10.48 13h-2v-1.375c0-.817-.813-1.613-2.104-1.936l.485-1.94c2.098.524 3.619 2.015 3.619 3.876V18.9zM7.4 18.9h2v-1.375c0-.817.813-1.613 2.104-1.936l-.485-1.94c-2.098.524-3.619 2.015-3.619 3.876V18.9z" transform="translate(.6 .1)"/><path d="M12.9 15.9a3.5 3.5 0 110-7 3.5 3.5 0 010 7zm0-2a1.5 1.5 0 100-3 1.5 1.5 0 000 3z" transform="translate(.6 .1)"/></g></symbol><symbol id="flag-20" viewBox="0 0 20 20"><path d="M12 10.588c-1.655.159-2.846-.291-4.195-.804C6.273 9.202 4.547 8.56 2 8.74v-5.9c2.12-.338 3.55.233 5.052.847C8.428 4.25 9.966 4.875 12 4.727v5.86zm.795-7.991c-2.067.43-3.42-.12-4.986-.76C6.253 1.2 4.501.499 2 .82V0H0v18.033h2v-7.287c2.184-.186 3.605.343 5.094.908 1.26.478 2.55.969 4.223.969.577 0 1.199-.058 1.88-.195l.803-.162V2.344l-1.205.253z" transform="translate(3 1)" fill="currentColor" fill-rule="evenodd"/></symbol><symbol id="gear-20" viewBox="0 0 20 20"><g fill="currentColor" fill-rule="evenodd"><path d="M9.001 11.31a1.088 1.088 0 111.087-1.087c0 .599-.487 1.087-1.087 1.087m0-4.174a3.09 3.09 0 00-3.087 3.087 3.09 3.09 0 003.087 3.087 3.09 3.09 0 003.087-3.087 3.09 3.09 0 00-3.087-3.087" transform="translate(1)"/><path d="M14.123 10.861l-.244.649a6.495 6.495 0 01-1.119 1.892l-.455.538.947 1.636-1.503.879-.958-1.654-.715.159c-.808.179-1.515.158-2.124.006l-.731-.183-.968 1.672-1.503-.879.964-1.665-.501-.542c-.541-.586-.881-1.155-1.067-1.79l-.211-.718H2V9.134h1.879l.244-.649a6.508 6.508 0 011.119-1.892l.455-.537-.948-1.636 1.504-.88.958 1.654.715-.159a4.688 4.688 0 012.124-.006l.731.183.968-1.672 1.504.88-.964 1.664.5.542c.542.587.881 1.155 1.067 1.79l.212.718h1.934v1.727h-1.879zm3.879 2V7.134h-2.49a6.358 6.358 0 00-.772-1.293l1.241-2.143L11.024.8 9.778 2.953a6.77 6.77 0 00-1.552.002L6.978.8 2.021 3.698l1.255 2.168a8.648 8.648 0 00-.749 1.268H0v5.727h2.49c.198.447.454.876.772 1.293L2.02 16.297l4.958 2.898 1.247-2.153c.507.058 1.037.06 1.552-.002l1.247 2.155 4.958-2.898-1.256-2.168c.287-.403.539-.83.749-1.268h2.527z" transform="translate(1)"/></g></symbol><symbol id="globe-20" viewBox="0 0 20 20"><g fill="currentColor" fill-rule="evenodd"><path fill-rule="nonzero" d="M1.293 1.707L2.707.293l4.036 4.035-1.415 1.415zm9.5 9.5l1.414-1.414 4.038 4.037-1.415 1.415zM8 15h2v3H8z" transform="translate(1)"/><path fill-rule="nonzero" d="M6 19v-2h6v2zm6.5-11.439a3.5 3.5 0 10-7-.122 3.5 3.5 0 007 .122zm2 .035a5.5 5.5 0 11-11-.192 5.5 5.5 0 0111 .192z" transform="translate(1)"/><path d="M13.516 12.19c-2.534 2.446-6.62 2.412-9.11-.077l-.081-.083a6.509 6.509 0 01.16-9.192L3.095 1.4a8.5 8.5 0 1011.81 12.228l-1.39-1.438z" transform="translate(1)"/></g></symbol><symbol id="gravestones-20" viewBox="0 0 20 20"><g fill="currentColor" fill-rule="nonzero"><path d="M4 12.437c0-2.082 1.028-3.68 2.685-4.813.958-.655 1.906-1.028 2.574-1.194l.241-.06.241.06c.668.166 1.616.539 2.574 1.194C13.972 8.757 15 10.355 15 12.437V19H4v-6.563zm5.163-3.87a6.834 6.834 0 00-1.348.708C6.659 10.065 6 11.09 6 12.437V17h7v-4.563c0-1.347-.66-2.372-1.815-3.162A6.834 6.834 0 009.5 8.443a7.026 7.026 0 00-.337.123z" transform="translate(1)"/><path d="M2 13.004h2.5v2H0V9.088C0 6.994 1.017 5.383 2.66 4.24c.95-.663 1.892-1.04 2.556-1.208l.247-.063.246.063c.664.17 1.603.55 2.552 1.214.298.208.578.435.837.681a5.79 5.79 0 011.454 2.147l-1.87.71a3.804 3.804 0 00-.961-1.407 5.249 5.249 0 00-.607-.493 6.714 6.714 0 00-1.654-.837 6.715 6.715 0 00-1.658.835C2.656 6.678 2 7.717 2 9.087v3.916zM12.652 3.14a6.199 6.199 0 00-1.201.603c-.366.24-.68.51-.928.81l-1.54-1.277a6.118 6.118 0 011.372-1.206c.874-.572 1.736-.897 2.346-1.043l.23-.055.232.055c.611.144 1.474.468 2.35 1.038C17.042 3.062 18 4.481 18 6.34v6.044h-4.315v-2H16V6.339c0-1.097-.568-1.94-1.58-2.598a6.202 6.202 0 00-1.486-.7c-.08.025-.175.058-.282.099z" transform="translate(1)"/></g></symbol><symbol id="growth-arrow-20" viewBox="0 0 20 20"><path d="M11.007 0v2.001h2.586L9.006 6.586 6.007 3.587.3 9.293l1.414 1.414 4.293-4.293 2.999 3 6.001-5.999V6h1.999V0z" transform="translate(1 5)" fill="currentColor" fill-rule="evenodd"/></symbol><symbol id="heart-20" viewBox="0 0 20 20"><path d="M5.127 2.015c-.809 0-1.618.3-2.22.902A3.115 3.115 0 002 5.137c0 .848.322 1.636.907 2.22L9 13.452l6.093-6.093A3.112 3.112 0 0016 5.138c0-.847-.322-1.636-.907-2.221-1.204-1.204-3.238-1.203-4.441 0L9 4.572 7.348 2.917a3.135 3.135 0 00-2.221-.902zM9 16.279L1.493 8.772A5.097 5.097 0 010 5.138a5.1 5.1 0 011.493-3.635 5.147 5.147 0 017.269 0L9 1.742l.238-.24a5.146 5.146 0 017.269 0A5.1 5.1 0 0118 5.139c0 1.38-.53 2.672-1.493 3.634L9 16.279z" transform="translate(1 2)" fill="currentColor" fill-rule="evenodd"/></symbol><symbol id="heartbeat-20" viewBox="0 0 20 20"><path d="M2.395 2.392A1.29 1.29 0 013.325 2c.354 0 .684.14.93.392l1.248 1.284 1.249-1.284c.491-.504 1.369-.504 1.859 0 .526.54.526 1.453.001 1.993L5.503 7.58 2.395 4.385a1.458 1.458 0 010-1.993zm3.108 8.059l4.543-4.672c1.281-1.318 1.281-3.463-.001-4.782C8.855-.227 6.769-.3 5.503.82A3.266 3.266 0 003.326 0h-.001C2.426 0 1.587.354.961.998-.32 2.316-.32 4.46.961 5.778l4.542 4.673zM17.57 12l-3.55-5.915-4.92 7.874-1.988-3.97L4.514 14H.004v2H5.6l1.288-1.989 2.018 4.03 5.079-8.126L16.436 14h1.568v-2z" transform="translate(1 1)" fill="currentColor" fill-rule="evenodd"/></symbol><symbol id="house-20" viewBox="0 0 20 20"><g fill="currentColor" fill-rule="evenodd"><path d="M8.002 0L0 6.117v9.142h2V7.105l6.002-4.588L14 7.105v8.154h2V6.117z" transform="translate(2 1.75)"/><path d="M5 8.259v7h2v-5h2v5h2v-7z" transform="translate(2 1.75)"/></g></symbol><symbol id="house-sun-20" viewBox="0 0 20 20"><g fill="currentColor" fill-rule="evenodd"><path d="M15 0h-2c0 2.757 2.243 5 5 5V3c-1.682 0-3-1.318-3-3zm-4.327 5.913l1.414 1.414 2.12-2.12-1.414-1.414zM9 2h3V0H9zm7 7h2V6h-2zM7.002 4.741L0 10.094V18h2v-6.918L7.002 7.26 12 11.082V18h2v-7.906z" transform="translate(1 1)"/><path d="M4 18h2v-4h2v4h2v-6H4z" transform="translate(1 1)"/></g></symbol><symbol id="id-card-20" viewBox="0 0 20 20"><g fill="currentColor" fill-rule="nonzero"><path d="M16 11.2c0 .394-.344.8-.8.8-7.717.02-11.85.02-12.4 0-.347 0-.8-.39-.8-.8V2.8c0-.441.359-.8.8-.8h12.4c.441 0 .8.359.8.8v8.4zM2.8 0A2.794 2.794 0 00.128 2.008 2.77 2.77 0 000 2.8v8.4C0 12.813 1.313 14 2.8 14h12.4c1.613 0 2.8-1.25 2.8-2.8V2.8C18 1.256 16.744 0 15.2 0H2.8z" transform="translate(1 3)"/><path d="M6.5 4v1c-.55 0-1 .45-1 1 0 .551.45 1 1 1s1-.449 1-1c0-.55-.45-1-1-1V4zm0 0V3c1.655 0 3 1.345 3 3 0 1.656-1.345 3-3 3s-3-1.344-3-3c0-1.655 1.345-3 3-3v1z" transform="translate(1 3)"/><path d="M11.5 12h-2a3 3 0 00-6 0h-2a5 5 0 1110 0zM11 6h4V4h-4zm0 3h4V7h-4z" transform="translate(1 3)"/></g></symbol><symbol id="info-enclosed-20" viewBox="0 0 20 20"><g fill="currentColor" fill-rule="evenodd"><path d="M9 16c-3.859 0-7-3.14-7-7 0-1.128.274-2.19.75-3.135C3.903 3.577 6.268 2 9 2s5.097 1.577 6.25 3.865C15.726 6.81 16 7.872 16 9c0 3.86-3.141 7-7 7m6.25-13.462a8.96 8.96 0 00-12.5 0A8.97 8.97 0 000 9c0 4.962 4.037 9 9 9s9-4.038 9-9a8.97 8.97 0 00-2.75-6.462" transform="translate(1 1)"/><path d="M8 7.8V14h2V7.8zm1-4.05a1.25 1.25 0 100 2.5 1.25 1.25 0 000-2.5" transform="translate(1 1)"/></g></symbol><symbol id="institution-20" viewBox="0 0 20 20"><path d="M2 16h2V8H2zm-2 3h18v-2H0zM9 .848L1.721 5H0v2h2.252L9 3.151 15.789 7H18V5.022h-1.693zM6 16h2V8H6zm4 0h2V8h-2zm4 0h2V8h-2z" transform="translate(1)" fill="currentColor" fill-rule="evenodd"/></symbol><symbol id="letter-20" viewBox="0 0 20 20"><g fill="currentColor" fill-rule="nonzero"><path d="M2 12h14V2H2v10zM18 0v14H0V0h18z" transform="translate(1 3)"/><path d="M9.038 6.375L2.678 1 1.322 2.472l7.72 6.625 7.636-6.627-1.358-1.468zm7.695 5.125l-3.5-4-1.466 1.36 3.5 4zm-14 1.36l3.5-4L4.767 7.5l-3.5 4z" transform="translate(1 3)"/></g></symbol><symbol id="login-device-20" viewBox="0 0 20 20"><g fill="none" fill-rule="evenodd"><path d="M0 0h20v20H0z"/><g transform="translate(4 2)" fill="currentColor"><path d="M2-1h8a3 3 0 013 3v12a3 3 0 01-3 3H2a3 3 0 01-3-3V2a3 3 0 013-3zm0 2a1 1 0 00-1 1v12a1 1 0 001 1h8a1 1 0 001-1V2a1 1 0 00-1-1H2z" fill-rule="nonzero"/><circle cx="3.5" cy="8.5" r="1.5"/><circle cx="3.5" cy="12.5" r="1.5"/><circle cx="8.5" cy="8.5" r="1.5"/><circle cx="8.5" cy="12.5" r="1.5"/><path fill-rule="nonzero" d="M2 5h8V3H2z"/></g></g></symbol><symbol id="logout-20" viewBox="0 0 20 20"><g fill="currentColor" fill-rule="evenodd"><path d="M13.782 5.697L15.047 7h-6.05v2h6.05l-1.265 1.303 1.434 1.394L18.808 8l-3.592-3.696-1.434 1.393zm2.217 2.282l.02.02-.02.023v-.043z" transform="translate(1 2)"/><path d="M7.907 14a5.83 5.83 0 01-4.176-1.75c-2.313-2.344-2.313-6.157 0-8.5A5.83 5.83 0 017.909 2a5.83 5.83 0 014.176 1.75l1.424-1.405A7.818 7.818 0 007.908 0a7.818 7.818 0 00-5.6 2.345c-3.077 3.118-3.077 8.191 0 11.31A7.818 7.818 0 007.907 16a7.818 7.818 0 005.6-2.345l-1.424-1.405A5.83 5.83 0 017.908 14" transform="translate(1 2)"/></g></symbol><symbol id="menu-20" viewBox="0 0 20 20"><path d="M0 2h14V0H0zm0 5h14V5H0zm0 5h14v-2H0z" transform="translate(3 4)" fill="currentColor" fill-rule="evenodd"/></symbol><symbol id="minpension-20" viewBox="0 0 20 20"><path d="M17.935 7.836l-6.054 6.132-.792-.17 2.376-6.814-5.657 6.984-.793-.227 2.15-7.154-6.336 7.381-.566-.454L4.98 6.19.057 10.902C.962 14.934 4.583 18 8.882 18c4.98 0 9.053-4.032 9.053-8.972.113-.397.056-.795 0-1.192zm-13.409 2.84l5.77-6.928.736.284-2.093 6.984 5.77-7.212.736.284-2.489 7.382 4.752-4.997C16.633 2.726 13.126 0 9.052 0 4.073 0 0 4.032 0 8.972c0 .17 0 .397.057.567l6.166-5.791.736.227-2.433 6.7z" transform="translate(1 1)" fill="currentColor" fill-rule="evenodd"/></symbol><symbol id="notification-envelope-20" viewBox="0 0 20 20"><g fill="currentColor" fill-rule="nonzero"><path d="M2 12h14V2H2v10zM18 0v14H0V0h18z" transform="translate(1 3)"/><path d="M9.038 6.375L2.678 1 1.322 2.472l7.72 6.625 7.636-6.627-1.358-1.468zm7.695 5.125l-3.5-4-1.466 1.36 3.5 4zm-14 1.36l3.5-4L4.767 7.5l-3.5 4z" transform="translate(1 3)"/></g></symbol><symbol id="notification-flag-20" viewBox="0 0 20 20"><path d="M12 10.588c-1.655.159-2.846-.291-4.195-.804C6.273 9.202 4.547 8.56 2 8.74v-5.9c2.12-.338 3.55.233 5.052.847C8.428 4.25 9.966 4.875 12 4.727v5.86zm.795-7.991c-2.067.43-3.42-.12-4.986-.76C6.253 1.2 4.501.499 2 .82V0H0v18.033h2v-7.287c2.184-.186 3.605.343 5.094.908 1.26.478 2.55.969 4.223.969.577 0 1.199-.058 1.88-.195l.803-.162V2.344l-1.205.253z" transform="translate(3 1)" fill="currentColor" fill-rule="evenodd"/></symbol><symbol id="notification-swish-20" viewBox="0 0 20 20"><path d="M7.041 17.452l.341-.42c2.318.652 4.869-.193 6.425-2.095 2.082-2.558 1.725-6.424-.892-8.566l-.476-.357 2.164-2.535.438.329C16.904 5.288 18 7.534 18 10c0 4.438-3.562 8-8 8a8.063 8.063 0 01-2.959-.548zm-2.027-1.205A8.002 8.002 0 012 10c0-4.438 3.562-8 8-8 1.151 0 2.246.219 3.233.712l-.361.398c-2.488-.774-5.122-.068-6.739 1.952-2.082 2.618-1.665 6.366.952 8.567l.476.357-2.164 2.589-.383-.328z" fill="currentColor" fill-rule="evenodd"/></symbol><symbol id="paper-20" viewBox="0 0 20 20"><path d="M0 0v18h14l-.005-12.414L8.414 0H0zm2 2h4v6h5.996L12 16H2V2zm6 .415L11.581 6H8V2.415z" transform="translate(3 1)" fill="currentColor" fill-rule="evenodd"/></symbol><symbol id="pdf-doc-20" viewBox="0 0 20 20"><g fill="currentColor" fill-rule="evenodd"><path fill-rule="nonzero" d="M2 16V2h7.586L12 4.414V6h2V3.586L10.414 0H0v18h14.002l-.009-4.002-2 .004.005 1.998z" transform="translate(2 1)"/><path d="M4 7.05v5.942h1.207v-1.684h.875c1.14 0 1.93-.841 1.93-2.099 0-1.292-.808-2.159-1.98-2.159H4zm1.181 3.17V8.155h.901c.451 0 .774.408.774 1.02 0 .629-.323 1.045-.774 1.045h-.9zm3.562-3.17V13h1.904c1.505 0 2.508-1.198 2.508-2.992 0-1.776-1.003-2.958-2.508-2.958H8.743zm1.198 4.802V8.197h.689c.799 0 1.326.732 1.326 1.82 0 1.104-.527 1.835-1.326 1.835h-.689zm5.27-.969h1.717V9.77h-1.717V8.164h1.93V7.05h-3.128V13h1.198v-2.117z" transform="translate(2 1)"/></g></symbol><symbol id="pencil-20" viewBox="0 0 20 20"><g fill="currentColor" fill-rule="nonzero"><path d="M0 .87v18h14.001l-.007-6.001-2 .002.005 4H2v-14h9V.87z" transform="translate(2 .13)"/><path d="M14.432 6.187l-.739-.739L8 11.142v.739h.739l5.693-5.694zm-4.865 7.694H6v-3.568l7.693-7.693 3.568 3.567-7.694 7.694z" transform="translate(2 .13)"/></g></symbol><symbol id="pension-20" viewBox="0 0 20 20"><g fill="currentColor" fill-rule="nonzero"><path d="M9 4.275L3.321 15h11.356L8.999 4.275zM9 0l9 17H0L9 0z" transform="translate(1 1)"/><path d="M6 9V7h6v2zm-2.5 4v-2h11v2z" transform="translate(1 1)"/></g></symbol><symbol id="pension-capital-20" viewBox="0 0 20 20"><path d="M13.619 13l1.058 2H3.32l1.059-2H2.118L0 17h18l-2.118-4zm1.733-1l-2.117-4h-8.47l-2.118 4zM9 0L5.293 7h7.412z" transform="translate(1 1)" fill="currentColor" fill-rule="evenodd"/></symbol><symbol id="pension-occupational-20" viewBox="0 0 20 20"><path d="M15.353 12l-2.118-4h-8.47l-2.118 4zm-1.734 1l1.059 2H3.322l1.058-2H2.118L0 17h18l-2.118-4zM9 0L5.294 7h2.262L9 4.274 10.442 7h2.263z" transform="translate(1 1)" fill="currentColor" fill-rule="evenodd"/></symbol><symbol id="pension-private-20" viewBox="0 0 20 20"><g fill="currentColor" fill-rule="evenodd"><path d="M4.297 12h9.406v-2H4.297zm.997-5h7.412L8.999.001z" transform="translate(1 1)"/><path d="M4.91 12l2.117-4H4.764l-2.118 4zm10.443 0l-2.118-4H10.97l2.118 4zm-1.734 1l1.059 2H3.322l1.059-2H2.118L0 17h18l-2.118-4z" transform="translate(1 1)"/></g></symbol><symbol id="pension-state-20" viewBox="0 0 20 20"><path d="M4.764 8l-2.117 4H4.91l1.06-2h6.06l1.06 2h2.262l-2.118-4zm.53-1h2.263l1.442-2.724L10.442 7h2.264L8.999 0zm-3.177 6L0 17h18l-2.118-4z" transform="translate(1 1)" fill="currentColor" fill-rule="evenodd"/></symbol><symbol id="percent-20" viewBox="0 0 20 20"><path d="M12.5 16a3.5 3.5 0 100-7 3.5 3.5 0 000 7zm0-2a1.5 1.5 0 110-3 1.5 1.5 0 010 3zm-9-7a3.5 3.5 0 100-7 3.5 3.5 0 000 7zm0-2a1.5 1.5 0 110-3 1.5 1.5 0 010 3zM12.714.382l-11 14 1.572 1.236 11-14z" transform="translate(2 2)" fill="currentColor" fill-rule="nonzero"/></symbol><symbol id="phone-20" viewBox="0 0 20 20"><path d="M12.189 2.361c-.882 0-3.27.333-6.383 3.41-2.173 2.146-2.98 3.944-3.274 5.073-.372 1.424-.057 2.208.162 2.425l1.361 1.346c.03.03.194.036.23-.002l2.333-2.305a.138.138 0 00-.002-.195l-1.492-1.475-.071-.23c-.168-.556-.165-1.774 1.758-3.674 1.94-1.915 3.158-1.905 3.711-1.728l.215.068 1.485 1.466c.039.037.2.03.227.002l2.335-2.307a.128.128 0 00.043-.097.125.125 0 00-.04-.094l-1.364-1.349c-.163-.161-.573-.334-1.234-.334M2.725 15.956l-1.358-1.344c-.883-.871-1.13-2.458-.662-4.246C1.059 9.01 2 6.876 4.478 4.428 8.09.858 11.074.472 12.189.472c1.08 0 1.988.313 2.562.88l1.361 1.345c.388.38.604.894.604 1.44a2.01 2.01 0 01-.606 1.443l-2.33 2.304c-.746.739-2.136.74-2.885 0L9.841 6.842c-.225.079-.788.333-1.702 1.236-.873.862-1.143 1.412-1.226 1.673l1.032 1.019c.388.385.601.897.601 1.44 0 .545-.212 1.057-.6 1.44l-2.334 2.307a2.064 2.064 0 01-1.443.583c-.543 0-1.07-.212-1.444-.584z" transform="rotate(-73 10.297 8.352)" fill="currentColor" fill-rule="evenodd"/></symbol><symbol id="phone-broken-20" viewBox="0 0 20 20"><g fill="currentColor" fill-rule="nonzero"><path d="M2 4.019C2 3.328 2.625 2.7 3.308 2.7h6.384c.683 0 1.308.628 1.308 1.319V15.38c0 .691-.624 1.319-1.308 1.319H3.308A1.31 1.31 0 012 15.381V4.02zM3.308 18.7h6.384c1.79 0 3.308-1.526 3.308-3.319V4.02C13 2.225 11.482.7 9.692.7H3.308C1.518.7 0 2.225 0 4.019V15.38a3.31 3.31 0 003.308 3.32z" transform="translate(1 .3)"/><path d="M10.02 5.702H5.621L4.587 3.719 2.85 4.7l1.558 3.002H8.02V9.5l4.061 3.049-.014-2.512-2.047-1.536zM8 14.199a1.5 1.5 0 11-3 .001 1.5 1.5 0 013-.001zm7-3.499v-2h3v2zm-.42-2.954l-.97-1.75 2.624-1.454.97 1.75zm-.974 5.483l1.03-1.715 2.571 1.545-1.03 1.715z" transform="translate(1 .3)"/></g></symbol><symbol id="pin-20" viewBox="0 0 20 20"><g fill="currentColor" fill-rule="evenodd"><path d="M2 6.538C2 4.036 4.019 2 6.5 2S11 4.036 11 6.538c0 1.177-.473 2.325-1.315 3.216L6.5 12.96 3.333 9.771C2.473 8.863 2 7.715 2 6.538zm9.121 4.607C12.333 9.865 13 8.228 13 6.538 13 2.933 10.084 0 6.5 0S0 2.933 0 6.538c0 1.69.667 3.326 1.896 4.625L5.707 15H.5v2h12v-2H7.293l3.828-3.855z" transform="translate(3.5 1)"/><path d="M6.5 7.501c-.57 0-1-.43-1-1a.978.978 0 011-1.001c.57 0 1 .43 1 1.001h2a2.969 2.969 0 00-3-3.001c-1.682 0-3 1.318-3 3.001 0 1.682 1.318 3 3 3v-2z" transform="translate(3.5 1)"/></g></symbol><symbol id="plus-20" viewBox="0 0 20 20"><path d="M5.5.5v5h-5v2h5v5h2.001v-5H12.5v-2H7.501v-5z" transform="translate(3.5 3.5)" fill="currentColor" fill-rule="evenodd"/></symbol><symbol id="print-20" viewBox="0 0 20 20"><g fill="none" fill-rule="evenodd"><path d="M0 0h20v20H0z"/><path d="M4 14H0V8.5A3.5 3.5 0 013.5 5H4V0h10v5h.5A3.5 3.5 0 0118 8.5V14h-4v4H4v-4zm0-2v-2h10v2h2V8.5A1.5 1.5 0 0014.5 7h-11A1.5 1.5 0 002 8.5V12h2zm2-7h6V2H6v3zm0 7v4h6v-4H6z" transform="translate(1 1)" fill="currentColor" fill-rule="nonzero"/></g></symbol><symbol id="radio-enclosed-20" viewBox="0 0 20 20"><g fill="currentColor" fill-rule="evenodd"><path d="M9 2C5.141 2 2 5.14 2 9s3.141 7 7 7 7-3.14 7-7-3.141-7-7-7m0 16c-4.963 0-9-4.038-9-9s4.037-9 9-9 9 4.038 9 9-4.037 9-9 9" transform="translate(1 1)"/><path d="M9 10.44c-.81 0-1.44-.63-1.44-1.44 0-.81.63-1.44 1.44-1.44.81 0 1.44.63 1.44 1.44 0 .81-.63 1.44-1.44 1.44" transform="translate(1 1)"/></g></symbol><symbol id="radio-round-20" viewBox="0 0 20 20"><g fill="currentColor" fill-rule="evenodd"><path d="M9 16c-3.859 0-7-3.14-7-7s3.141-7 7-7 7 3.14 7 7-3.141 7-7 7M9 0C4.037 0 0 4.038 0 9s4.037 9 9 9 9-4.038 9-9-4.037-9-9-9" transform="translate(1 1)"/><path d="M9 10.56A1.58 1.58 0 017.44 9c0-.846.714-1.56 1.56-1.56.846 0 1.56.714 1.56 1.56A1.58 1.58 0 019 10.56m0-6A4.445 4.445 0 004.56 9 4.445 4.445 0 009 13.44 4.445 4.445 0 0013.44 9 4.445 4.445 0 009 4.56" transform="translate(1 1)"/></g></symbol><symbol id="screen-20" viewBox="0 0 20 20"><path d="M16 10.5c0 .271-.229.5-.5.5h-13a.507.507 0 01-.5-.5v-8c0-.271.229-.5.5-.5h13c.271 0 .5.229.5.5v8zM2.5 0A2.503 2.503 0 000 2.5v8C0 11.878 1.122 13 2.5 13H8v1H4v2h10v-2h-4v-1h5.5c1.378 0 2.5-1.122 2.5-2.5v-8C18 1.122 16.878 0 15.5 0h-13z" transform="translate(1 2)" fill="currentColor" fill-rule="evenodd"/></symbol><symbol id="search-20" viewBox="0 0 20 20"><path d="M16.638 17.954l-3.804-3.803 1.317-1.316 3.803 3.803zM7.354 1.862a5.499 5.499 0 00-5.492 5.493 5.499 5.499 0 005.492 5.492 5.499 5.499 0 005.493-5.492 5.499 5.499 0 00-5.493-5.493m0 12.847C3.3 14.71 0 11.41 0 7.355 0 3.299 3.3 0 7.354 0c4.056 0 7.355 3.3 7.355 7.355 0 4.055-3.3 7.354-7.355 7.354" transform="translate(1 1)" fill="currentColor" fill-rule="evenodd"/></symbol><symbol id="share-20" viewBox="0 0 20 20"><g fill="none" fill-rule="evenodd"><path d="M0 0h20v20H0z"/><path d="M13 0a3 3 0 11-1.911 5.313L5.94 8.402a3.014 3.014 0 010 1.196l5.149 3.09a3 3 0 11-1.03 1.716l-5.149-3.09a3 3 0 110-4.627l5.15-3.089A3 3 0 0113 0zm0 14a1 1 0 100 2 1 1 0 000-2zM3 8a1 1 0 100 2 1 1 0 000-2zm10-6a1 1 0 100 2 1 1 0 000-2z" transform="translate(2 1)" fill="currentColor" fill-rule="nonzero"/></g></symbol><symbol id="shield-20" viewBox="0 0 20 20"><g fill="currentColor" fill-rule="evenodd"><path d="M13 0H3c0 1.53-1.438 3-3 3v6.794C0 14.438 8 18.1 8 18.1s8-3.537 8-8.306V3c-1.47 0-3-1.5-3-3m-1.517 2A5.605 5.605 0 0014 4.517v5.277c0 2.314-3.624 4.85-5.99 6.079C5.638 14.614 2 12.051 2 9.794V4.55A5.299 5.299 0 004.55 2h6.933" transform="translate(2 1)"/><path fill-rule="nonzero" d="M4.5 6.414L5.914 5l5.657 5.657-1.414 1.414z" transform="translate(2 1)"/><path fill-rule="nonzero" d="M10.157 5l1.414 1.414-5.657 5.657L4.5 10.657z" transform="translate(2 1)"/></g></symbol><symbol id="star-20" viewBox="0 0 20 20"><defs><path id="a" d="M18 17.493V0H0v17.493z"/></defs><g transform="translate(1 1.1)" fill="none" fill-rule="evenodd"><mask id="b" fill="#fff"><use xlink:href="#a"/></mask><path d="M9 11.82c.21 0 .42.065.597.196l2.441 1.815-.95-2.955a.999.999 0 01.36-1.11l2.498-1.842-3.065.007h-.002a1 1 0 01-.953-.698L9 4.311l-.926 2.922a1.01 1.01 0 01-.955.698l-3.065-.007 2.5 1.841a.999.999 0 01.358 1.111l-.95 2.955 2.441-1.815c.178-.13.387-.197.597-.197m4.944 5.674a.998.998 0 01-.596-.197L9 14.066l-4.348 3.23a1 1 0 01-1.548-1.109l1.684-5.238-4.38-3.226A1.001 1.001 0 011 5.918h.002l5.388.012L8.047.698a1 1 0 011.906 0L11.61 5.93l5.388-.012H17a1 1 0 01.593 1.805l-4.38 3.226 1.683 5.238a.999.999 0 01-.952 1.306" fill="currentColor" mask="url(#b)"/></g></symbol><symbol id="suitcase-20" viewBox="0 0 20 20"><g transform="translate(1 1)" fill="currentColor" fill-rule="evenodd"><path d="M2.5 5c-.274 0-.5.226-.5.5v9c0 .274.226.5.5.5h13c.274 0 .5-.226.5-.5v-9c0-.274-.226-.5-.5-.5h-13zm0-2h13C16.879 3 18 4.122 18 5.5v9c0 1.378-1.121 2.5-2.5 2.5h-13A2.503 2.503 0 010 14.5v-9C0 4.122 1.121 3 2.5 3z" fill-rule="nonzero"/><path fill-rule="nonzero" d="M3.443 9.3L2.7 7.443 7.057 5.7 7.8 7.557z"/><circle cx="7.5" cy="10.5" r="1.5"/><circle cx="13" cy="8" r="2"/><path fill-rule="nonzero" d="M.086 11.5L1.5 10.086 6.914 15.5 5.5 16.914zM12.5 16.914L11.086 15.5l5.414-5.414 1.414 1.414zM14 4.5h-2C12 3.151 10.684 2 9 2S6 3.151 6 4.5H4C4 1.983 6.266 0 9 0s5 1.983 5 4.5z"/></g></symbol><symbol id="sustainability-20" viewBox="0 0 20 20"><g fill="none" fill-rule="evenodd"><path d="M0 0h20v20H0z"/><g fill="currentColor" fill-rule="nonzero"><path d="M8.66 17.644l7.2-12.134-1.72-1.02-7.2 12.133z" transform="translate(0 2)"/><path d="M17 8c0 1.934-1.866 4-3.042 4-.734 0-1.31-.249-1.793-.77l-1.467 1.359c.864.932 1.972 1.411 3.26 1.411C16.287 14 19 10.996 19 8c0-1.856-.168-4.55-.504-8.094L18.39-1.21l-1.095.23C13.989-.285 11.36.767 9.41 2.193c-2.937 2.147-2.541 6.263-.228 8.76l1.467-1.36c-1.594-1.72-1.859-4.47-.059-5.786 1.487-1.087 3.493-1.95 6.019-2.578C16.869 4.16 17 6.42 17 8z" transform="translate(0 2)"/><path d="M11.923 4.615l-1.846.77L12 10h4V8h-2.667zm-2.146 9.899L6.31 10.228l-1.555 1.258 3.469 4.286z" transform="translate(0 2)"/><path d="M5.45 9.095c.889.814.926 1.61.512 2.119l1.553 1.26c1.066-1.314.973-3.309-.716-4.854-1.153-1.055-2.663-1.79-4.516-2.216l-.924-.212-.26.911c-1.094 3.814-1.094 6.332.275 7.622 1.015.958 2.43.958 4.08.177l-.857-1.808c-.983.466-1.544.466-1.852.176-.557-.525-.616-2.095.02-4.662 1.098.355 1.99.852 2.684 1.487z" transform="translate(0 2)"/></g></g></symbol><symbol id="tag-20" viewBox="0 0 20 20"><g fill="currentColor" fill-rule="evenodd"><path d="M2.414 10.004L8 15.59l8.004-8.003L16 4.419l-2.415-2.415L10.418 2l-8.004 8.003zm5.586 8a.997.997 0 01-.707-.293l-7-7a.999.999 0 010-1.414L9.297.293A1 1 0 0110.004 0h.001l3.996.004c.265 0 .518.105.706.293l3 3a1 1 0 01.293.706l.004 3.996c0 .266-.106.52-.293.708L8.707 17.71a.997.997 0 01-.707.293z" transform="translate(1 1)"/><path d="M12 7.5c-.484 0-.87-.194-1.161-.532a1.046 1.046 0 01-.242-.388C10.5 6.388 10.5 6.194 10.5 6c0-.823.677-1.5 1.5-1.5s1.5.677 1.5 1.5-.677 1.5-1.5 1.5" transform="translate(1 1)"/></g></symbol><symbol id="text-1-round-20" viewBox="0 0 20 20"><g fill="currentColor" fill-rule="evenodd"><path d="M9 16c-3.86 0-7-3.14-7-7s3.14-7 7-7 7 3.14 7 7-3.14 7-7 7M9 0C4.038 0 0 4.038 0 9s4.038 9 9 9 9-4.038 9-9-4.038-9-9-9" transform="translate(1 1)"/><path d="M9.926 4.705H7.288v1.403h1.007v5.614h-1.15V13.1h3.968v-1.38H9.926z" transform="translate(1 1)"/></g></symbol><symbol id="text-2-round-20" viewBox="0 0 20 20"><g fill="currentColor" fill-rule="evenodd"><path d="M9 2C5.14 2 2 5.14 2 9s3.14 7 7 7 7-3.14 7-7-3.14-7-7-7m0 16c-4.962 0-9-4.038-9-9s4.038-9 9-9 9 4.038 9 9-4.038 9-9 9" transform="translate(1 1)"/><path d="M8.307 7.175H6.88c-.012-1.643.85-2.59 2.267-2.59 1.967 0 2.89 2.386 1.523 4.617L9.243 11.54h2.183v1.56h-4.63v-.384L9.279 8.53c.239-.408.515-.887.515-1.379 0-.684-.252-1.032-.72-1.032-.503 0-.767.361-.767 1.056" transform="translate(1 1)"/></g></symbol><symbol id="text-3-round-20" viewBox="0 0 20 20"><g fill="currentColor" fill-rule="evenodd"><path d="M9 2C5.14 2 2 5.14 2 9s3.14 7 7 7 7-3.14 7-7-3.14-7-7-7m0 16c-4.962 0-9-4.038-9-9s4.038-9 9-9 9 4.038 9 9-4.038 9-9 9" transform="translate(1 1)"/><path d="M8.083 10.641c.024.624.42 1.032.996 1.032.563 0 .947-.504.947-1.27-.024-1.345-1.115-1.536-1.991-1.345v-.252l1.188-2.674H6.872V4.704h4.545v.252L9.99 7.896c1.128.226 1.643 1.33 1.643 2.493 0 1.703-1.007 2.831-2.53 2.831-1.476 0-2.471-1.03-2.507-2.579h1.487z" transform="translate(1 1)"/></g></symbol><symbol id="thumbs-up-20" viewBox="0 0 20 20"><g fill="none" fill-rule="evenodd"><path d="M0 0h20v20H0z"/><path d="M8.826.333a1 1 0 011.293-.17c.515.338.925.926 1.296 1.767a1 1 0 01.047.677l-1.03 3.615H17a1 1 0 011 1V9.89a1 1 0 01-.09.416l-3.25 7.11a1 1 0 01-.91.585H4a1 1 0 01-1-1V7.222a1 1 0 01.255-.667zM.011 17.99l.005-5.492.006-5.5 2 .008-.011 10.992H2L.011 17.99zM9.339 2.759L5 7.605V16h8.108L16 9.671V8.222H9.107a1 1 0 01-.962-1.274l1.194-4.19zm.2-.7l-.104.362c.024.047.049.096.073.148l.37-.413-.34-.097z" transform="translate(1 1)" fill="currentColor" fill-rule="nonzero"/></g></symbol><symbol id="thumbup-20" viewBox="0 0 20 20"><g fill="none" fill-rule="evenodd"><path d="M0 0h20v20H0z"/><path d="M8.826.333a1 1 0 011.293-.17c.515.338.925.926 1.296 1.767a1 1 0 01.047.677l-1.03 3.615H17a1 1 0 011 1V9.89a1 1 0 01-.09.416l-3.25 7.11a1 1 0 01-.91.585H4a1 1 0 01-1-1V7.222a1 1 0 01.255-.667zM.011 17.99l.005-5.492.006-5.5 2 .008-.011 10.992H2L.011 17.99zM9.339 2.759L5 7.605V16h8.108L16 9.671V8.222H9.107a1 1 0 01-.962-1.274l1.194-4.19zm.2-.7l-.104.362c.024.047.049.096.073.148l.37-.413-.34-.097z" transform="translate(1 1)" fill="currentColor" fill-rule="nonzero"/></g></symbol><symbol id="trash-20" viewBox="0 0 20 20"><path d="M.5 5l1 12h10l1-12H.5zm2.174 2h7.652l-.666 8H3.34l-.666-8zm5.672-5H.5v2h12V2zM4.5 2h4V0h-4z" transform="translate(3.5 1)" fill="currentColor" fill-rule="evenodd"/></symbol><symbol id="triangle-20" viewBox="0 0 20 20"><path d="M2.7 4.25v8.509l7.025-4.255L2.7 4.25zM.7.7l12.886 7.804L.7 16.308V.7z" transform="translate(3.3 1.5)" fill="currentColor" fill-rule="nonzero"/></symbol><symbol id="umbrella-20" viewBox="0 0 20 20"><path d="M8 7.814a5.007 5.007 0 00-3.5-1.443c-.657 0-1.297.132-1.889.376.972-2.019 3.002-3.412 5.343-3.412 2.32 0 4.386 1.402 5.395 3.396a4.946 4.946 0 00-1.849-.36A5.007 5.007 0 008 7.814zM9 0H7v1.4c-3.937.482-7 3.902-7 8.042v.967h1.689s.001-.156.182-.475c.536-.95 1.568-1.563 2.629-1.563 1.022 0 1.932.525 2.5 1.39V15c0 .292-.224.53-.5.53S6 15.292 6 15H4c0 1.394 1.122 2.53 2.5 2.53 1.325 0 2.402-1.053 2.484-2.374L9 9.737c.562-.834 1.516-1.366 2.5-1.366 1.094 0 2.077.584 2.629 1.562.1.176.171.476.171.476H16v-.967c0-4.112-3.057-7.51-7-8.03V0z" transform="translate(2 1)" fill="currentColor" fill-rule="evenodd"/></symbol><symbol id="user-20" viewBox="0 0 20 20"><path d="M8.513 15.6c-3.61 0-5.294-.482-5.947-.745.168-1.383.859-4.848 3.517-6.139.73.577 1.633.934 2.623.934a4.22 4.22 0 002.462-.797c2.457 1.374 3.127 4.647 3.29 5.994-.682.28-2.368.753-5.945.753zm.193-12.85c1.286 0 2.33 1.1 2.33 2.45 0 1.351-1.044 2.45-2.33 2.45-1.285 0-2.331-1.099-2.331-2.45 0-1.35 1.046-2.45 2.33-2.45zm7.806 12.617c-.008-.246-.235-5.674-4.006-8.077a4.485 4.485 0 00.53-2.09c0-2.454-1.942-4.45-4.33-4.45-2.387 0-4.331 1.996-4.331 4.45 0 .692.168 1.34.444 1.925C.769 9.428.522 15.115.514 15.367l-.015.435.309.307c.35.35 1.947 1.491 7.705 1.491s7.354-1.14 7.705-1.49l.309-.308-.015-.435z" transform="translate(1.5 .25)" fill="currentColor" fill-rule="evenodd"/></symbol><symbol id="wallet-20" viewBox="0 0 20 20"><path d="M17 6h-1V3H3v2h11v1h-1v2h2v1h-2v2h1v1H2.89a.89.89 0 01-.89-.89V2.89A.89.89 0 012.89 2H15V0H2.89A2.893 2.893 0 000 2.89v8.22A2.893 2.893 0 002.89 14H16v-3h1V6z" transform="translate(1 3)" fill="currentColor" fill-rule="evenodd"/></symbol><symbol id="wallet-minus-20" viewBox="0 0 20 20"><g fill="currentColor" fill-rule="evenodd"><path d="M6.8 16c-2.206 0-4-1.794-4-4s1.794-4 4-4 4 1.794 4 4-1.794 4-4 4zm13-10h-1V3h-12v2h10v1h-1v2h2v1h-2v2h1v1h-4c0-3.309-2.691-6-6-6-.341 0-.674.035-1 .09v-3.2A.89.89 0 016.69 2H17.8V0H6.69A2.893 2.893 0 003.8 2.89v3.922A5.999 5.999 0 00.8 12c0 3.309 2.691 6 6 6 2.607 0 4.824-1.673 5.65-4h6.35v-3h1V6z" transform="translate(-.8 1)"/><path d="M3.8 13h6v-2h-6z" transform="translate(-.8 1)"/></g></symbol><symbol id="wallet-plus-20" viewBox="0 0 20 20"><g fill="currentColor" fill-rule="evenodd"><path d="M6.8 16c-2.206 0-4-1.794-4-4s1.794-4 4-4 4 1.794 4 4-1.794 4-4 4zm13-10h-1V3h-12v2h10v1h-1v2h2v1h-2v2h1v1h-4c0-3.309-2.691-6-6-6-.341 0-.674.035-1 .09v-3.2A.89.89 0 016.69 2H17.8V0H6.69A2.893 2.893 0 003.8 2.89v3.922A5.999 5.999 0 00.8 12c0 3.309 2.691 6 6 6 2.607 0 4.824-1.673 5.65-4h6.35v-3h1V6z" transform="translate(-.8 1)"/><path d="M7.8 9h-2v2h-2v2h2v2h2v-2h2v-2h-2z" transform="translate(-.8 1)"/></g></symbol><symbol id="world-20" viewBox="0 0 20 20"><g fill="currentColor" fill-rule="evenodd"><path d="M9 0a9 9 0 100 18A9 9 0 009 0m0 2c3.86 0 7 3.14 7 7s-3.14 7-7 7-7-3.14-7-7 3.14-7 7-7" transform="translate(1 1)"/><path d="M9.254 15.645c-.09 0-.18-.007-.27-.021-.566-.094-1.537-.56-1.662-2.639-.093-1.528-.644-1.768-1.407-2.101-.671-.292-1.796-.782-1.763-2.336.016-.685.242-1.238.67-1.643.808-.762 2.013-.717 3.18-.676 1.701.062 2.012-.065 2.082-.476.032-.178.008-.246.008-.247-.239-.243-1.62-.153-2.075-.124-.913.059-1.515.099-1.954-.366a1.209 1.209 0 01-.292-.897c.093-.755.73-1.237 1.405-1.746.43-.326.92-.696 1.104-1.027a1 1 0 111.744.979c-.219.391-.526.721-.857 1.015.905.017 1.83.186 2.418.84.307.341.637.949.47 1.914-.391 2.269-2.735 2.19-4.125 2.133-.576-.019-1.536-.055-1.734.132-.007.008-.04.07-.043.232-.003.131.018.174.018.175.05.07.357.204.542.285.912.397 2.437 1.062 2.605 3.813.018.288.053.49.088.627.194-.189.465-.545.695-1.11l.143-.337c.279-.641.659-1.52.659-2.599 0-.848.729-1.624 1.855-1.98 1.335-.42 3.373-.222 4.732 1.719a1 1 0 11-1.638 1.147c-.606-.864-1.335-1.05-1.843-1.054h-.017c-.539 0-.943.201-1.092.326-.034 1.42-.524 2.551-.82 3.236l-.126.295c-.634 1.559-1.67 2.511-2.7 2.511" transform="translate(1 1)"/></g></symbol></svg>