<svg width="24" height="24" xmlns="http://www.w3.org/2000/svg"><g fill="none" fill-rule="evenodd"><path d="M0 0h24v24H0z"/><g fill-rule="nonzero"><path d="M8.21 12.557L9 7.694h-.844c-.396 0-.905-.216-1.054-.613-.048-.135-.162-.596.49-1.046.234-.158.384-.334.414-.468a.357.357 0 00-.108-.357C7.754 5.076 7.473 5 7.114 5c-.605 0-1.03.339-1.072.584-.03.182.114.328.24.421.377.275.467.672.233 1.047-.24.385-.76.637-1.317.642h-.863C4.263 8.168 3.09 15.427 3 16h4.677c.042-.257.257-1.63.55-3.443H8.21z" fill="#479CBE"/><path d="M14.807 3H9.683L9 7.07h.87c.477 0 .928-.206 1.121-.503a.465.465 0 00.09-.26c0-.169-.122-.296-.244-.38-.335-.236-.406-.484-.406-.66 0-.036 0-.066.006-.096.071-.43.69-.895 1.508-.895.49 0 .864.109 1.09.308.2.176.277.423.219.683-.071.309-.4.563-.587.69-.496.326-.432.61-.4.695.104.254.497.417.8.417h1.32v.006c1.805.012 2.772.792 2.47 2.606-.284 1.687-1.664 2.413-3.307 2.425L12.9 16h.96c4.053 0 7.366-2.443 8.017-6.3.805-4.79-2.43-6.7-7.07-6.7z" fill="#00A5C3"/><path d="M14.807 3H9.683L9 7.07h.87c.477 0 .928-.206 1.121-.503a.465.465 0 00.09-.26c0-.169-.122-.296-.244-.38-.335-.236-.406-.484-.406-.66 0-.036 0-.066.006-.096.071-.43.69-.895 1.508-.895.49 0 .864.109 1.09.308.2.176.277.423.219.683-.071.309-.4.563-.587.69-.496.326-.432.61-.4.695.104.254.497.417.8.417h1.32v.006c1.805.012 2.772.792 2.47 2.606-.284 1.687-1.664 2.413-3.307 2.425L12.9 16h.96c4.053 0 7.366-2.443 8.017-6.3.805-4.79-2.43-6.7-7.07-6.7z" fill="#235971"/><g fill="#235971"><path d="M2.54 18.012h1.98c.843 0 1.048.42.986.805-.05.31-.267.542-.64.695.472.177.659.45.59.884-.087.542-.564.945-1.191.945H2.012l.528-3.329zm1.31 1.378c.384 0 .564-.201.601-.439.037-.256-.08-.433-.465-.433h-.342l-.136.872h.341zm-.212 1.439c.397 0 .627-.159.683-.482.043-.28-.118-.445-.503-.445h-.39l-.15.933h.36v-.006zM8.23 21.365c-.515.037-.763-.018-.887-.238-.273.165-.577.25-.9.25-.583 0-.788-.298-.732-.628a.742.742 0 01.267-.439c.322-.274 1.117-.31 1.427-.518.025-.231-.068-.317-.36-.317-.341 0-.627.11-1.117.44l.118-.757c.422-.298.831-.439 1.303-.439.602 0 1.136.244 1.036.89l-.118.732c-.043.256-.03.335.261.341l-.298.683zm-.893-1.146c-.273.17-.782.14-.838.494-.025.164.08.286.248.286a.99.99 0 00.521-.177.656.656 0 01.013-.237l.056-.366zM9.192 18.762h1.03l-.056.335c.33-.274.577-.378.9-.378.577 0 .844.348.75.915l-.266 1.7h-1.03l.223-1.408c.044-.256-.037-.378-.235-.378-.162 0-.31.086-.453.275l-.236 1.505h-1.03l.403-2.566zM12.617 18.012h1.03l-.26 1.634.986-.884h1.273l-1.266 1.097 1.017 1.476H14.1l-.781-1.19h-.013l-.186 1.19h-1.03z"/></g><g fill="#479CBE"><path d="M16.558 18.012h1.198l-.527 3.383h-1.198zM18.34 18.012h1.712c1.324 0 1.706.95 1.58 1.738-.118.77-.733 1.645-1.894 1.645h-1.932l.534-3.383zm1.11 2.576c.583 0 .903-.285.997-.887.07-.447-.069-.888-.715-.888h-.32l-.276 1.775h.314z"/></g></g></g></svg>