<svg width="24" height="24" xmlns="http://www.w3.org/2000/svg"><g transform="translate(0 2)" fill="none" fill-rule="evenodd"><path d="M20 7l-2.5-4s-.438-1.003-5.5-1c-5.063.003-5.5 1-5.5 1L4 7l-1 4v5.5c0 .75.5 1 1 1s1-.406 1-1V15h14v1.5c0 .531.5 1 1 1s1-.438 1-1l.044-5.5L20 7zm3 9.5c0 1.666-1.392 3-3 3-1.439 0-2.707-1.095-2.956-2.499l-10.086.004A3.009 3.009 0 014 19.5c-1.632 0-3-1.14-3-3v-5.746l1.136-4.546 2.638-4.22c.346-.6 1-1.067 1.944-1.384C7.881.214 9.588 0 11.998 0c2.418-.001 4.13.212 5.294.605.939.318 1.59.785 1.935 1.384l2.631 4.21 1.19 4.559-.004.271L23 16.5z" fill="#005AA0" fill-rule="nonzero"/><path fill="#005AA0" fill-rule="nonzero" d="M14.491 3.951l1.782-.908L18.29 7H7V5h8.026zM2 14v-2h7v2zM15 14v-2h7v2z"/><path fill="#E30613" fill-rule="nonzero" d="M10 14v-2h4v2z"/><path d="M1 8a1 1 0 110-2h1.5a1 1 0 110 2H1zM21.5 8a1 1 0 010-2H23a1 1 0 010 2h-1.5z" fill="#005AA0" fill-rule="nonzero"/><circle fill="#005AA0" cx="6.5" cy="9.5" r="1.5"/><circle fill="#005AA0" cx="17.5" cy="9.5" r="1.5"/></g></svg>