<svg width="24" height="24" xmlns="http://www.w3.org/2000/svg"><g fill-rule="nonzero" fill="none"><path d="M19.697 17H4.317C4.156 17 4 16.846 4 16.727V11h15.997v5.76a.205.205 0 01-.062.15.32.32 0 01-.238.09zm0-10c.083 0 .17.038.233.103a.22.22 0 01.067.17V9H4V7.272C4 7.153 4.155 7 4.318 7h15.379zm2.299.305a2.175 2.175 0 00-.628-1.592A2.342 2.342 0 0019.697 5H4.317C3.063 5 2 6.04 2 7.272v9.455C2 17.96 3.062 19 4.318 19h15.379a2.31 2.31 0 001.675-.7 2.171 2.171 0 00.625-1.573l-.001-9.422z" fill="#005AA0"/><path fill="#E30613" d="M5.996 14h4v-2h-4z"/></g></svg>