<svg width="32" height="32" xmlns="http://www.w3.org/2000/svg"><g fill="currentColor" fill-rule="nonzero"><path d="M29 21.584c0-1.745-1.351-3.146-3-3.146s-3 1.4-3 3.146c0 1.745 1.351 3.146 3 3.146s3-1.4 3-3.146zm2 0c0 2.834-2.23 5.146-5 5.146s-5-2.312-5-5.146 2.23-5.146 5-5.146 5 2.312 5 5.146zM9 21.584c0-1.745-1.351-3.146-3-3.146s-3 1.4-3 3.146c0 1.745 1.351 3.146 3 3.146s3-1.4 3-3.146zm2 0c0 2.834-2.23 5.146-5 5.146s-5-2.312-5-5.146 2.23-5.146 5-5.146 5 2.312 5 5.146z"/><path d="M19.8 22.244h-2c0-4.905 3.675-8.916 8.253-8.916 1.313 0 2.582.332 3.727.958l-.96 1.755a5.735 5.735 0 00-2.767-.713c-3.433 0-6.253 3.078-6.253 6.916z"/><path d="M24.27 18.35l-1.44 1.388-2.55-2.642 1.44-1.389zM9.139 19.771l-1.44-1.389 1.581-1.638 1.44 1.388z"/><path d="M19 19.547v2h-5.148l-5.719-5.77 1.42-1.408 5.133 5.178zM13.444 13.487l-.888-1.792 7.63-3.784 2.361 2.657h3.358l1.952 3.245-1.714 1.03-1.369-2.275h-3.125l-1.943-2.187z"/><path d="M16.085 6.145l-1.896.572-.578-1.915 3.138-.947 4.907 5.673-1.512 1.309zM3 13.328h3.983v2H1V9.182h11.071l2.174 3.841-1.74.985-1.6-2.826H3z"/></g></svg>