<?xml version="1.0" encoding="UTF-8" standalone="no"?>
<svg width="56px" height="56px" viewBox="0 0 56 56" version="1.1" xmlns="http://www.w3.org/2000/svg" xmlns:xlink="http://www.w3.org/1999/xlink">
    <!-- Generator: Sketch 41.2 (35397) - http://www.bohemiancoding.com/sketch -->
    <title>icon_linkedin-56</title>
    <desc>Created with Sketch.</desc>
    <defs></defs>
    <g id="Page-1" stroke="none" stroke-width="1" fill="none" fill-rule="evenodd">
        <g id="icon_linkedin-56" fill="#FF0000">
            <g id="icon_linkedin-56-crop">
                <path d="M0,56 L56,56 L56,0 L0,0 L0,56 Z M2.887,53.113 L53.113,53.113 L53.113,2.887 L2.887,2.887 L2.887,53.113 Z" id="Fill-1"></path>
                <path d="M18.7986,15.4297 C17.2016,15.4297 15.9106,16.7247 15.9106,18.3187 C15.9106,19.9147 17.2016,21.2087 18.7986,21.2087 C20.3926,21.2087 21.6876,19.9147 21.6876,18.3187 C21.6876,16.7247 20.3926,15.4297 18.7986,15.4297 Z" id="Fill-2"></path>
                <path d="M24.4176,23.4014 L24.4176,39.4364 L29.3996,39.4364 L29.3996,31.5044 C29.3996,29.4124 29.7956,27.3874 32.3886,27.3874 C34.9426,27.3874 34.9786,29.7784 34.9786,31.6384 L34.9786,39.4364 L39.9576,39.4364 L39.9576,30.6414 C39.9576,26.3224 39.0256,23.0014 33.9826,23.0014 C31.5586,23.0014 29.9326,24.3314 29.2666,25.5924 L29.1986,25.5924 L29.1986,23.4014 L24.4176,23.4014 Z" id="Fill-4"></path>
                <polygon id="Fill-6" points="16.306 39.436 21.292 39.436 21.292 23.401 16.306 23.401"></polygon>
            </g>
        </g>
    </g>
</svg>