<?xml version="1.0" encoding="UTF-8"?>
<svg width="70px" height="70px" viewBox="0 0 70 70" version="1.1" xmlns="http://www.w3.org/2000/svg" xmlns:xlink="http://www.w3.org/1999/xlink">
    <!-- Generator: Sketch 53.2 (72643) - https://sketchapp.com -->
    <title>Icons/70px/bankid-mc-70</title>
    <desc>Created with Sketch.</desc>
    <g id="Icons/70px/bankid-mc-70" stroke="none" stroke-width="1" fill="none" fill-rule="evenodd">
        <rect id="invisible-70" x="0" y="0" width="70" height="70"></rect>
        <g id="bankid_vector_rgb" transform="translate(6.000000, 8.000000)" fill-rule="nonzero">
            <path d="M18.3676487,29.2023114 L20.7056714,13.5715235 C19.7846322,13.5715235 18.208238,13.5715235 18.208238,13.5715235 C17.0392266,13.5715235 15.5336817,12.8764043 15.0908743,11.598888 C14.949176,11.1667869 14.6126424,9.68261348 16.5432824,8.23601412 C17.2340619,7.72876499 17.6768692,7.16515485 17.7654307,6.73305374 C17.8539921,6.28216563 17.7477184,5.88763853 17.4466094,5.58704646 C17.0215143,5.15494535 16.1890365,4.91071429 15.1262989,4.91071429 C13.3373572,4.91071429 12.0797844,6.00036056 11.9557983,6.78941476 C11.8672368,7.3718119 12.2923319,7.84148702 12.6642901,8.1420791 C13.7801646,9.02506832 14.045849,10.3025846 13.3550695,11.5049529 C12.6465778,12.7448952 11.1056082,13.5527365 9.45836489,13.5715235 C9.45836489,13.5715235 7.82883386,13.5715235 6.90779458,13.5715235 C6.69524705,15.0932708 3.22363747,38.4267307 2.95795306,40.2678571 L16.7912545,40.2678571 C16.9152406,39.4412289 17.5528832,35.0262828 18.4207855,29.2023114 L18.3676487,29.2023114 Z" id="Path" fill="#479CBE"></path>
            <path d="M37.4415087,0 L22.6745935,0 L20.7056714,12.6047757 L23.2132608,12.6047757 C24.5877913,12.6047757 25.8880228,11.9679817 26.4452649,11.0502492 C26.6310123,10.7505814 26.7053112,10.4883721 26.7053112,10.244892 C26.7053112,9.72047342 26.3523912,9.32715947 25.9994712,9.06495017 C25.033585,8.33450997 24.8292629,7.5666113 24.8292629,7.02346346 C24.8292629,6.91108804 24.8292629,6.81744186 24.8478376,6.72379568 C25.0521597,5.39401993 26.8353344,3.95186877 29.1943258,3.95186877 C30.6060058,3.95186877 31.6833405,4.28899502 32.3334562,4.9070598 C32.9092731,5.45020764 33.1321699,6.21810631 32.9649973,7.02346346 C32.7606752,7.97865449 31.8133636,8.76528239 31.2746963,9.15859635 C29.8444416,10.1699751 30.030189,11.0502492 30.1230626,11.3124585 C30.4202584,12.0990864 31.5533173,12.6047757 32.4263299,12.6047757 L36.2341508,12.6047757 C36.2341508,12.6047757 36.2341508,12.6047757 36.2341508,12.623505 C41.4350769,12.6609635 44.2212873,15.0770349 43.3482747,20.6958056 C42.5309864,25.9212625 38.5559928,28.1687708 33.8194351,28.2062292 L31.9433868,40.2678571 L34.7110225,40.2678571 C46.3945315,40.2678571 55.9419458,32.7012458 57.8179942,20.7519934 C60.1398362,5.91843854 50.8153187,0 37.4415087,0 Z" id="Path" fill="#00A5C3"></path>
            <path d="M37.4415087,0 L22.6745935,0 L20.7056714,12.6047757 L23.2132608,12.6047757 C24.5877913,12.6047757 25.8880228,11.9679817 26.4452649,11.0502492 C26.6310123,10.7505814 26.7053112,10.4883721 26.7053112,10.244892 C26.7053112,9.72047342 26.3523912,9.32715947 25.9994712,9.06495017 C25.033585,8.33450997 24.8292629,7.5666113 24.8292629,7.02346346 C24.8292629,6.91108804 24.8292629,6.81744186 24.8478376,6.72379568 C25.0521597,5.39401993 26.8353344,3.95186877 29.1943258,3.95186877 C30.6060058,3.95186877 31.6833405,4.28899502 32.3334562,4.9070598 C32.9092731,5.45020764 33.1321699,6.21810631 32.9649973,7.02346346 C32.7606752,7.97865449 31.8133636,8.76528239 31.2746963,9.15859635 C29.8444416,10.1699751 30.030189,11.0502492 30.1230626,11.3124585 C30.4202584,12.0990864 31.5533173,12.6047757 32.4263299,12.6047757 L36.2341508,12.6047757 C36.2341508,12.6047757 36.2341508,12.6047757 36.2341508,12.623505 C41.4350769,12.6609635 44.2212873,15.0770349 43.3482747,20.6958056 C42.5309864,25.9212625 38.5559928,28.1687708 33.8194351,28.2062292 L31.9433868,40.2678571 L34.7110225,40.2678571 C46.3945315,40.2678571 55.9419458,32.7012458 57.8179942,20.7519934 C60.1398362,5.91843854 50.8153187,0 37.4415087,0 Z" id="Path" fill="#235971"></path>
            <g id="Group" transform="translate(0.000000, 44.196429)" fill="#235971">
                <path d="M1.59863918,0.0385841837 L7.46031617,0.0385841837 C9.95933833,0.0385841837 10.5657187,1.36973852 10.3819671,2.58514031 C10.2349658,3.56903699 9.59183507,4.30213648 8.48932529,4.78443878 C9.88583768,5.34390944 10.4370926,6.21205357 10.2349658,7.58179209 C9.97771349,9.29878827 8.56282595,10.5720663 6.70693449,10.5720663 L0.0367503259,10.5720663 L1.59863918,0.0385841837 Z M5.47579857,4.39859694 C6.61505867,4.39859694 7.1479384,3.76195791 7.25818937,3.00956633 C7.36844035,2.19929847 7.01931226,1.63982781 5.88005215,1.63982781 L4.86941819,1.63982781 L4.4651646,4.39859694 L5.47579857,4.39859694 L5.47579857,4.39859694 Z M4.85104302,8.95153061 C6.02705346,8.95153061 6.70693449,8.44993622 6.87231095,7.42745536 C7.00093709,6.54001913 6.52318286,6.01913265 5.38392275,6.01913265 L4.22628748,6.01913265 L3.78528357,8.9708227 L4.85104302,8.9708227 L4.85104302,8.95153061 Z" id="Shape"></path>
                <path d="M18.4486636,10.6492347 C16.9235251,10.7649872 16.1885186,10.5913584 15.8210153,9.89684311 C15.0125081,10.4177296 14.1121252,10.6878189 13.1566167,10.6878189 C11.4293514,10.6878189 10.822971,9.74250638 10.9883475,8.70073342 C11.0618481,8.19913903 11.3374756,7.71683673 11.7784795,7.31170281 C12.7339879,6.44355867 15.0860088,6.32780612 16.0047669,5.671875 C16.0782676,4.93877551 15.8026402,4.66868622 14.9390075,4.66868622 C13.9283735,4.66868622 13.083116,5.01594388 11.6314782,6.05771684 L11.9806063,3.66549745 C13.2301173,2.72018495 14.4428781,2.27646684 15.8393905,2.27646684 C17.6217813,2.27646684 19.2020453,3.04815051 18.9080427,5.09311224 L18.5589146,7.40816327 C18.4302885,8.21843112 18.4670388,8.46922832 19.3306714,8.48852041 L18.4486636,10.6492347 Z M15.8026402,7.02232143 C14.994133,7.5625 13.4873696,7.46603954 13.3219932,8.58498087 C13.2484925,9.10586735 13.5608703,9.49170918 14.0569997,9.49170918 C14.5347539,9.49170918 15.1227591,9.27949617 15.6005134,8.93223852 C15.563763,8.7393176 15.5821382,8.54639668 15.6372637,8.17984694 L15.8026402,7.02232143 Z" id="Shape"></path>
                <path d="M21.2968139,2.41151148 L24.3470909,2.41151148 L24.1817145,3.47257653 C25.1555981,2.6044324 25.8906046,2.27646684 26.8461131,2.27646684 C28.5550033,2.27646684 29.3451353,3.37611607 29.0695078,5.17028061 L28.2793758,10.5527742 L25.2290988,10.5527742 L25.8906046,6.09630102 C26.0192308,5.28603316 25.7803537,4.90019133 25.1923484,4.90019133 C24.7145942,4.90019133 24.2735903,5.17028061 23.8509615,5.76833546 L23.1527053,10.5334821 L20.1024283,10.5334821 L21.2968139,2.41151148 Z" id="Path"></path>
                <polygon id="Path" points="31.4399038 0.0385841837 34.4901809 0.0385841837 33.7184241 5.2088648 36.640075 2.41151148 40.4069834 2.41151148 36.6584501 5.88408801 39.6719769 10.5527742 35.8315678 10.5527742 33.5162973 6.79081633 33.4795469 6.79081633 32.928292 10.5527742 29.878015 10.5527742"></polygon>
            </g>
            <g id="Group" transform="translate(41.411343, 44.196429)" fill="#479CBE">
                <polygon id="Path" points="1.54290299 0.0392857143 4.85407682 0.0392857143 3.39785378 10.7446429 0.0866799433 10.7446429"></polygon>
                <path d="M6.46632377,0.0392857143 L11.1990487,0.0392857143 C14.8569423,0.0392857143 15.9144376,3.04464286 15.5677178,5.53928571 C15.238334,7.975 13.5394071,10.7446429 10.3322492,10.7446429 L4.99276473,10.7446429 L6.46632377,0.0392857143 Z M9.53479376,8.19107143 C11.1470407,8.19107143 12.0311761,7.2875 12.291216,5.38214286 C12.4819118,3.96785714 12.1005201,2.57321429 10.3149132,2.57321429 L9.43077783,2.57321429 L8.66799433,8.19107143 L9.53479376,8.19107143 L9.53479376,8.19107143 Z" id="Shape"></path>
            </g>
        </g>
    </g>
</svg>