<?xml version="1.0" encoding="UTF-8"?>
<svg width="70px" height="70px" viewBox="0 0 70 70" version="1.1" xmlns="http://www.w3.org/2000/svg" xmlns:xlink="http://www.w3.org/1999/xlink">
    <!-- Generator: Sketch 50.2 (55047) - http://www.bohemiancoding.com/sketch -->
    <title>tab-loan-70</title>
    <desc>Created with Sketch.</desc>
    <defs></defs>
    <g id="tab-loan-70" stroke="none" stroke-width="1" fill="none" fill-rule="evenodd">
        <g id="tab-loan-70-crop" transform="translate(10.000000, 5.000000)" fill-rule="nonzero">
            <polygon id="Shape" fill="#005AA0" points="46.5453168 21.1316512 48.5055923 20.7350154 44.4752805 0.816183049 20.4163384 5.82095865 18.7217096 6.17691169 19.1328358 8.13419942 20.8255631 7.77864386 42.9138104 3.18381687"></polygon>
            <polygon id="Shape" fill="#005AA0" points="3.17831858 11.3977285 13.6971453 9.2011059 13.2883092 7.24333854 0.821681423 9.84671597 4.58372216 28.3327529 4.61516885 28.4502077 4.70425976 28.7168744 6.60119479 28.0831256 6.53140422 27.8742287"></polygon>
            <polygon id="Shape" fill="#005AA0" points="26.8558688 8.41876688 27.8358688 13.3076558 29.7968585 12.9145665 28.8168585 8.02567757"></polygon>
            <path d="M33.4959056,12.2285567 C32.0397372,12.5282643 30.6157844,11.5927314 30.3162993,10.1376439 C30.0168142,8.68255633 30.9555772,7.26073097 32.4117456,6.9610234 C33.8679141,6.66131584 35.2918669,7.59684869 35.591352,9.05193625 C35.8908371,10.5070238 34.9520741,11.9288492 33.4959056,12.2285567 Z M33.0927056,10.2695567 C33.4679425,10.1923257 33.7089507,9.82730119 33.632352,9.45513625 C33.5557533,9.08297131 33.1901825,8.84279241 32.8149456,8.9200234 C32.4397087,8.9972544 32.1987005,9.36227894 32.2752993,9.73444389 C32.351898,10.1066088 32.7174687,10.3467877 33.0927056,10.2695567 Z" id="Oval" fill="#005AA0"></path>
            <path d="M39.2868147,11.0729578 C37.8306463,11.3726653 36.4066935,10.4371325 36.1072084,8.98204493 C35.8077233,7.52695737 36.7464863,6.10513201 38.2026547,5.80542444 C39.6588232,5.50571688 41.082776,6.44124973 41.3822611,7.89633729 C41.6817462,9.35142485 40.7429832,10.7732502 39.2868147,11.0729578 Z M38.8836147,9.11395778 C39.2588516,9.03672678 39.4998598,8.67170224 39.4232611,8.29953729 C39.3466624,7.92737235 38.9810916,7.68719345 38.6058547,7.76442444 C38.2306178,7.84165544 37.9896096,8.20667999 38.0662084,8.57884493 C38.1428071,8.95100987 38.5083778,9.19118877 38.8836147,9.11395778 Z" id="Oval" fill="#E30613"></path>
            <polygon id="Shape" fill="#005AA0" points="9.54046328 13.8520026 49.1002946 22.237287 44.5289317 43.6576835 25.1051473 39.510927 24.6875799 41.4668507 46.0674319 46.0312053 51.4742508 20.6960463 8.0013549 11.4813307 2.59520668 36.8133469 9.80910706 38.3556774 10.2272566 36.3998781 4.96842968 35.275542"></polygon>
            <polygon id="Shape" fill="#005AA0" points="32.2912118 20.4666096 31.3111248 25.2666096 33.2706933 25.6667237 34.2507803 20.8667237"></polygon>
            <path d="M40.0470062,24.5629178 C39.7376355,26.0170049 38.3096553,26.9462577 36.8566475,26.6371165 C35.4036397,26.3279754 34.477631,24.8978894 34.7870018,23.4438022 C35.0963725,21.9897151 36.5243527,21.0604623 37.9773605,21.3696035 C39.4303683,21.6787446 40.356377,23.1088306 40.0470062,24.5629178 Z M38.0908062,24.1467178 C38.1705273,23.7720172 37.9327936,23.4048719 37.5611605,23.3258035 C37.1895275,23.246735 36.8229229,23.4853016 36.7432018,23.8600022 C36.6634807,24.2347028 36.9012144,24.6018481 37.2728475,24.6809165 C37.6444805,24.759985 38.0110851,24.5214184 38.0908062,24.1467178 Z" id="Oval" fill="#005AA0"></path>
            <path d="M42.6475565,27.9704499 C41.1945487,27.6613088 40.2685401,26.2312227 40.5779109,24.7771356 C40.8872816,23.3230484 42.3152618,22.3937957 43.7682696,22.7029368 C45.2212774,23.0120779 46.1472861,24.442164 45.8379153,25.8962511 C45.5285446,27.3503383 44.1005643,28.279591 42.6475565,27.9704499 Z M43.3520696,24.6591368 C42.9804366,24.5800684 42.613832,24.818635 42.5341109,25.1933356 C42.4543898,25.5680361 42.6921235,25.9351815 43.0637565,26.0142499 C43.4353896,26.0933183 43.8019942,25.8547517 43.8817153,25.4800511 C43.9614364,25.1053505 43.7237026,24.7382052 43.3520696,24.6591368 Z" id="Oval" fill="#005AA0"></path>
            <path d="M34,51.9579832 C34,49.7564562 32.2171969,48 30,48 C27.8041667,48 26,49.8193277 26,52.0420168 C26,52.5367066 26.1202204,53.0735854 26.346208,53.6060719 C26.4751076,53.9310289 26.675169,54.2672666 26.93271,54.5925052 C27.6690447,55.4700317 28.810761,56 30,56 C32.1958333,56 34,54.1806723 34,51.9579832 Z M36,51.9579832 C36,55.2815126 33.3041667,58 30,58 C28.2208482,58 26.5177886,57.2094641 25.3832567,55.8567994 C24.9914977,55.3629855 24.6915591,54.858887 24.4963357,54.3659306 C24.179022,53.6193099 24,52.819836 24,52.0420168 C24,48.7184874 26.6958333,46 30,46 C33.315156,46 36,48.6451665 36,51.9579832 Z" id="Shape" fill="#E30613"></path>
            <path d="M14.5,49 C10.3578644,49 7,45.6421356 7,41.5 C7,37.3578644 10.3578644,34 14.5,34 C18.6421356,34 22,37.3578644 22,41.5 C22,45.6421356 18.6421356,49 14.5,49 Z M14.5,47 C17.5375661,47 20,44.5375661 20,41.5 C20,38.4624339 17.5375661,36 14.5,36 C11.4624339,36 9,38.4624339 9,41.5 C9,44.5375661 11.4624339,47 14.5,47 Z" id="Oval" fill="#005AA0"></path>
        </g>
    </g>
</svg>