<?xml version="1.0" encoding="UTF-8"?>
<svg width="70px" height="70px" viewBox="0 0 70 70" version="1.1" xmlns="http://www.w3.org/2000/svg" xmlns:xlink="http://www.w3.org/1999/xlink">
    <!-- Generator: Sketch 50.2 (55047) - http://www.bohemiancoding.com/sketch -->
    <title>tab-offer-70</title>
    <desc>Created with Sketch.</desc>
    <defs></defs>
    <g id="tab-offer-70" stroke="none" stroke-width="1" fill="none" fill-rule="evenodd">
        <g id="tab-offer-70-crop" transform="translate(7.000000, 7.000000)" fill-rule="nonzero">
            <polygon id="Stroke-1" fill="#005AA0" points="10 31 10 43 12 43 12 31"></polygon>
            <polygon id="Stroke-2" fill="#E30613" points="31 31 31 43 33 43 33 31"></polygon>
            <polygon id="Stroke-3" fill="#005AA0" points="2 45 2 19 30 19 30 17 0 17 1.52100554e-14 47 43 47 43 33.004951 41 33.004951 41 45"></polygon>
            <path d="M14,19 L14,11 L29,11 L29,19 L14,19 Z M27,17 L27,13 L16,13 L16,17 L27,17 Z" id="Stroke-5" fill="#005AA0"></path>
            <polygon id="Stroke-7" fill="#005AA0" points="9.17551964 27 4.92246434 20.3171973 3.23518285 21.3910135 8.07767812 29 35.8163916 29 38.5153607 25.1989552 36.8846408 24.0410465 34.7836069 27"></polygon>
            <path d="M47.5498625,5.58426913 L43.7864551,10.9134904 L37.5559271,8.95086013 L40.3041681,14.8585449 L35.4851457,19.2518519 L41.9901049,19.8340072 L43.4007375,26.1970824 L47.1641449,20.8678612 L53.3947554,22.8305174 L50.6467047,16.9228067 L55.4655185,12.5295054 L48.9604951,11.9473444 L47.5498625,5.58426913 Z M48.5239875,0.737724992 L50.5963549,10.0857509 L60.1743315,10.942923 L53.0796453,17.4111318 L57.1220946,26.1015176 L47.9557051,23.2140844 L42.4266125,31.0436266 L40.3542451,21.6956006 L30.7762043,20.8384228 L37.8711819,14.3702198 L33.8284229,5.67980798 L42.9948949,8.56726717 L48.5239875,0.737724992 Z" id="Stroke-1" fill="#005AA0"></path>
        </g>
    </g>
</svg>