<?xml version="1.0" encoding="UTF-8"?>
<svg width="70px" height="70px" viewBox="0 0 70 70" version="1.1" xmlns="http://www.w3.org/2000/svg" xmlns:xlink="http://www.w3.org/1999/xlink">
    <!-- Generator: Sketch 56.3 (81716) - https://sketch.com -->
    <title>Icons/70px/pension-occupational-in-mc-70</title>
    <desc>Created with Sketch.</desc>
    <g id="Icons/70px/pension-occupational-in-mc-70" stroke="none" stroke-width="1" fill="none" fill-rule="evenodd">
        <g>
            <rect id="invisible-70x70" x="0" y="0" width="70" height="70"></rect>
            <g id="lines" transform="translate(7.000000, 9.000000)">
                <path d="M15.7531034,27 L13.4731445,27 L16.2097168,22 L39.5008545,22 L47.9748535,37 L8,37 L10.7365723,32 L13.0165311,32 L11.3745878,35 L44.5479022,35 L38.3336363,24 L17.3950468,24 L15.7531034,27 Z" id="Combined-Shape" fill="#E30613" fill-rule="nonzero"></path>
                <polygon id="Fill-3" fill="#E30613" fill-rule="nonzero" points="18.322 27.1358449 19.757 28.524381 8 28.524381 8 28.631583 8 30.5112554 19.757 30.5112554 18.322 31.9560547 19.757 33.3418996 23.518 29.5178182 19.757 25.75"></polygon>
                <path d="M28.0028411,2.09616565 L18.8568804,19 L37.2081262,19 L28.0028411,2.09616565 Z" id="top" stroke="#005AA0" stroke-width="2"></path>
                <path d="M7.73379363,40 L1.69038355,51 L54.2992081,51 L48.1786402,40 L7.73379363,40 Z" id="bottom" stroke="#005AA0" stroke-width="2"></path>
            </g>
        </g>
    </g>
</svg>