<?xml version="1.0" encoding="UTF-8"?>
<svg width="70px" height="70px" viewBox="0 0 70 70" version="1.1" xmlns="http://www.w3.org/2000/svg" xmlns:xlink="http://www.w3.org/1999/xlink">
    <!-- Generator: Sketch 56.3 (81716) - https://sketch.com -->
    <title>Icons/70px/pension-private-out-mc-70</title>
    <desc>Created with Sketch.</desc>
    <g id="Icons/70px/pension-private-out-mc-70" stroke="none" stroke-width="1" fill="none" fill-rule="evenodd">
        <g>
            <rect id="invisible-70x70" x="0" y="0" width="70" height="70"></rect>
            <g id="lines" transform="translate(7.000000, 9.000000)">
                <path d="M7.14221191,39 L0,51.8936648 L56,51.8936648 L48.7666016,39 L7.14221191,39 Z M47.59538,41 L52.5847622,49.8936648 L3.39420626,49.8936648 L8.32069068,41 L47.59538,41 Z" id="bottom" fill="#005AA0" fill-rule="nonzero"></path>
                <path d="M16.8089809,23 L9.68796849,36 L46.2617178,36 L38.9205475,23 L16.8089809,23 Z" id="middle" stroke="#005AA0" stroke-width="2"></path>
                <path d="M36.25,15 L39,20 L17,20 L19.5453603,15.3821598 L21.2198122,12.3228366 L22.8271535,9.38612833 L28,0 L33.5,10 L31.1631256,10 L27.9701912,4.20391448 L20.4085318,18.019516 L35.5808984,18.019516 L33.9175143,15 L36.25,15 Z" id="Combined-Shape" fill="#E30613" fill-rule="nonzero"></path>
                <polygon id="Fill-3" fill="#E30613" fill-rule="nonzero" points="38.143167 10.0050212 39.578167 11.3935574 27.821167 11.3935574 27.821167 11.5007594 27.821167 13.3804318 39.578167 13.3804318 38.143167 14.825231 39.578167 16.2110759 43.339167 12.3869946 39.578167 8.61917635"></polygon>
            </g>
        </g>
    </g>
</svg>