<?xml version="1.0" encoding="UTF-8"?>
<svg width="70px" height="70px" viewBox="0 0 70 70" version="1.1" xmlns="http://www.w3.org/2000/svg" xmlns:xlink="http://www.w3.org/1999/xlink">
    <!-- Generator: Sketch 56.3 (81716) - https://sketch.com -->
    <title>Icons/70px/pension-private-in-mc-70</title>
    <desc>Created with Sketch.</desc>
    <g id="Icons/70px/pension-private-in-mc-70" stroke="none" stroke-width="1" fill="none" fill-rule="evenodd">
        <g>
            <rect id="invisible-70x70" x="0" y="0" width="70" height="70"></rect>
            <g id="lines" transform="translate(7.000000, 9.000000)">
                <path d="M22.6338107,10 L22.9298427,9.4555556 L28,-1.40304435e-13 L38.8913574,20 L17.178833,20 L19.6909329,15.4123659 L19.9151495,15 L22.1916774,15 L20.5428253,18.0324707 L35.5169335,18.0324707 L28.0056759,4.30723955 L24.9103385,10 L22.6338107,10 Z" id="Combined-Shape" fill="#E30613" fill-rule="nonzero"></path>
                <path d="M7.14221191,39 L0,51.8936648 L56,51.8936648 L48.7666016,39 L7.14221191,39 Z M47.59538,41 L52.5847622,49.8936648 L3.39420626,49.8936648 L8.32069068,41 L47.59538,41 Z" id="bottom" fill="#005AA0" fill-rule="nonzero"></path>
                <path d="M16.8089809,23 L9.68796849,36 L46.2617178,36 L38.9205475,23 L16.8089809,23 Z" id="middle" stroke="#005AA0" stroke-width="2"></path>
                <polygon id="Fill-3" fill="#E30613" fill-rule="nonzero" points="26.322 10.1358449 27.757 11.524381 16 11.524381 16 11.631583 16 13.5112554 27.757 13.5112554 26.322 14.9560547 27.757 16.3418996 31.518 12.5178182 27.757 8.75"></polygon>
            </g>
        </g>
    </g>
</svg>