<?xml version="1.0" encoding="UTF-8"?>
<svg width="70px" height="70px" viewBox="0 0 70 70" version="1.1" xmlns="http://www.w3.org/2000/svg" xmlns:xlink="http://www.w3.org/1999/xlink">
    <!-- Generator: Sketch 50.2 (55047) - http://www.bohemiancoding.com/sketch -->
    <title>tab-car-70</title>
    <desc>Created with Sketch.</desc>
    <defs></defs>
    <g id="tab-car-70" stroke="none" stroke-width="1" fill="none" fill-rule="evenodd">
        <g id="tab-car-70-crop" transform="translate(0.000000, 19.000000)" fill-rule="nonzero">
            <path d="M47.0930235,6.96305368 C46.1456428,6.23972561 45.2812167,5.62073486 44.3651565,5.02621793 C42.5727314,3.86294607 40.7673654,2.92091586 38.8835336,2.22574372 C34.410191,0.574989538 28.8188313,0.64221567 21.6340086,2.09347836 C20.407787,2.3467822 19.1088681,2.70695351 17.7421988,3.16464656 C15.7157145,3.84330944 13.5782879,4.7228081 11.3800182,5.75547107 C9.49839018,6.6393879 7.67665075,7.58557893 5.98289924,8.53194586 C5.38964938,8.86341836 4.85439651,9.17146209 4.38573596,9.44830356 C4.10285115,9.61540583 3.90388365,9.73569027 3.79745423,9.80137764 L3.44895332,10.0164696 L0.90022198,20.4118405 L4.79372786,24.5950822 L6.25773159,23.232477 L3.09977802,19.8395238 L5.19504772,11.293662 C5.2576893,11.256311 5.32704943,11.2151362 5.40293771,11.1703084 C5.85816863,10.9013999 6.37957971,10.6013223 6.95843098,10.2778948 C8.61353985,9.3531191 10.3943862,8.42816747 12.2303872,7.56568449 C14.3631505,6.56379393 16.4308156,5.71300039 18.3773221,5.06112181 C19.6723324,4.62742712 20.8955099,4.28825782 22.034309,4.05300386 C28.8840717,2.66942986 34.1376958,2.6062644 38.191133,4.10206496 C39.9242841,4.74163287 41.6006843,5.61636943 43.2763673,6.70387647 C44.144762,7.2674588 44.9694286,7.85797888 45.8793302,8.55269151 C46.18698,8.78758308 47.4824376,9.79927053 47.7669955,10.0110311 C48.0802192,10.2483317 54.8170696,11.2769262 56.7221172,11.6513742 C59.9748015,12.2907078 62.3889216,12.9749094 63.6934883,13.6935716 C66.2792294,15.0809846 67.5533333,16.9331702 67.5533333,19.2234599 L67.5533333,22.8560633 C67.5533333,23.7471119 67.5533333,24.1627252 67.5533333,24.4285764 L63,24 L63,26 L69.5533333,26 L69.5533333,19.2234599 C69.5533333,16.1427934 67.8363076,13.6467251 64.648784,11.9365038 C63.1162585,11.0921931 60.5571988,10.3669132 57.107848,9.68892372 C55.3524491,9.34389009 53.698722,9.06925245 51.3067576,8.70404299 C51.3705816,8.71378776 50.4384648,8.57177674 50.2157888,8.5375277 C49.85185,8.48155152 49.5856325,8.4395469 49.3670438,8.40331874 C49.1256157,8.36330526 48.947742,8.3311343 48.8285934,8.30591171 C48.4012015,7.97910024 47.3778976,7.18055589 47.0930235,6.96305368 Z" id="Shape" fill="#005AA0"></path>
            <polygon id="Shape" fill="#005AA0" points="46 24 23 24 23 26 46 26"></polygon>
            <path d="M7,23.5 C7,19.3216702 10.2805737,16 14.4545455,16 C18.6416399,16 22,19.3350382 22,23.5 C22,27.6649618 18.6416399,31 14.4545455,31 C11.5787807,31 9.02628088,29.3869619 7.70878434,26.7625152 C7.25301193,25.6309969 7,24.5506009 7,23.5 Z M9,23.5 C9,24.2639825 9.19648302,25.1029923 9.52953814,25.9391786 C10.4767494,27.8204455 12.3432972,29 14.4545455,29 C17.5401783,29 20,26.5572604 20,23.5 C20,20.4427396 17.5401783,18 14.4545455,18 C11.390755,18 9,20.4207046 9,23.5 Z" id="Shape" fill="#005AA0"></path>
            <path d="M14.5,20 C16.4232525,20 18,21.5767475 18,23.5 C18,25.4232525 16.4232525,27 14.5,27 C12.5767475,27 11,25.4232525 11,23.5 C11,22.4742063 11.4537425,21.4779291 12.2383027,20.8812296 C12.8349746,20.3146343 13.6348555,20 14.5,20 Z M13,23.5 C13,24.318683 13.681317,25 14.5,25 C15.318683,25 16,24.318683 16,23.5 C16,22.681317 15.318683,22 14.5,22 C14.1326533,22 13.8184718,22.1279999 13.5942036,22.3522681 L13.468335,22.4588948 C13.1918346,22.656395 13,23.0656422 13,23.5 Z" id="Shape" fill="#005AA0"></path>
            <path d="M47,23.5 C47,19.3216702 50.2805737,16 54.4545455,16 C58.6416399,16 62,19.3350382 62,23.5 C62,27.6649618 58.6416399,31 54.4545455,31 C51.5787807,31 49.0262809,29.3869619 47.7087843,26.7625152 C47.2530119,25.6309969 47,24.5506009 47,23.5 Z M49,23.5 C49,24.2639825 49.196483,25.1029923 49.5295381,25.9391786 C50.4767494,27.8204455 52.3432972,29 54.4545455,29 C57.5401783,29 60,26.5572604 60,23.5 C60,20.4427396 57.5401783,18 54.4545455,18 C51.390755,18 49,20.4207046 49,23.5 Z" id="Shape" fill="#005AA0"></path>
            <path d="M54.5,20 C56.4232525,20 58,21.5767475 58,23.5 C58,25.4232525 56.4232525,27 54.5,27 C52.5767475,27 51,25.4232525 51,23.5 C51,22.4742063 51.4537425,21.4779291 52.2383027,20.8812296 C52.8349746,20.3146343 53.6348555,20 54.5,20 Z M53,23.5 C53,24.318683 53.681317,25 54.5,25 C55.318683,25 56,24.318683 56,23.5 C56,22.681317 55.318683,22 54.5,22 C54.1326533,22 53.8184718,22.1279999 53.5942036,22.3522681 L53.468335,22.4588948 C53.1918346,22.656395 53,23.0656422 53,23.5 Z" id="Shape" fill="#005AA0"></path>
            <polygon id="Shape" fill="#005AA0" points="45 9 21 9 21 11 45 11"></polygon>
            <polygon id="Shape" fill="#005AA0" points="31 5 31 10 33 10 33 5"></polygon>
            <polygon id="Shape" fill="#E30613" points="27.0133333 15 32 15 32 13 27.0133333 13"></polygon>
        </g>
    </g>
</svg>