<?xml version="1.0" encoding="UTF-8"?>
<svg width="70px" height="70px" viewBox="0 0 70 70" version="1.1" xmlns="http://www.w3.org/2000/svg" xmlns:xlink="http://www.w3.org/1999/xlink">
    <!-- Generator: Sketch 50.2 (55047) - http://www.bohemiancoding.com/sketch -->
    <title>tab-damage-70</title>
    <desc>Created with Sketch.</desc>
    <defs></defs>
    <g id="tab-damage-70" stroke="none" stroke-width="1" fill="none" fill-rule="evenodd">
        <g id="tab-damage-70-crop" transform="translate(12.000000, 10.000000)" fill-rule="nonzero">
            <polygon id="Rectangle-4" fill="#005AA0" points="44 2 2 2 2 47 11 47 11 49 0 49 0 0 46 0 46 49 22.0588235 49 22.0588235 47 44 47"></polygon>
            <path d="M6,43 L40,43 L40,6 L6,6 L6,43 Z M4,4 L42,4 L42,45 L4,45 L4,4 Z" id="Rectangle-4" fill="#005AA0"></path>
            <polygon id="Polygon" fill="#005AA0" points="17.8770558 32.018498 15.9791573 37.4714048 21.6385821 39.7076936 21.6385821 44.4137745 23.6385821 44.4137745 23.6385821 38.347504 18.4987881 36.3165443 20.3367561 31.0358255 14.9903605 28.2816481 11.5745244 29.5705532 5 29.5705532 5 31.5705532 11.9393043 31.5705532 14.8647156 30.4667012"></polygon>
            <polygon id="Polygon" fill="#005AA0" points="33.1930376 13.6023657 26.3885819 13.6002763 24.6337675 10.5590205 21.1613 9.66165565 20.9993908 5.02518374 19.0006092 5.09498273 19.2146496 11.2242999 23.3208624 12.285439 25.2333296 15.5999216 31.1936461 15.6017518 31.1952314 20.8097378 40.0031744 27.1639306 41.1732962 25.5419518 33.1949199 19.786222"></polygon>
            <polygon id="Line" fill="#E30613" points="13 49 20 49 20 47 13 47"></polygon>
        </g>
    </g>
</svg>