<?xml version="1.0" encoding="UTF-8"?>
<svg width="70px" height="70px" viewBox="0 0 70 70" version="1.1" xmlns="http://www.w3.org/2000/svg" xmlns:xlink="http://www.w3.org/1999/xlink">
    <!-- Generator: Sketch 50.2 (55047) - http://www.bohemiancoding.com/sketch -->
    <title>tab-save-70</title>
    <desc>Created with Sketch.</desc>
    <defs></defs>
    <g id="tab-save-70" stroke="none" stroke-width="1" fill="none" fill-rule="evenodd">
        <g id="tab-save-70-crop" transform="translate(16.000000, 6.000000)" fill-rule="nonzero">
            <path d="M13.3437328,11.5080094 C12.2189225,8.97241667 12.7584443,5.98226567 14.7687184,3.98890493 C17.4430828,1.33704116 21.7816862,1.33704116 24.4555617,3.9888481 C26.4157943,5.9325883 26.9808279,8.82586 25.9576213,11.3280689 L27.8088252,12.0850657 C29.1358062,8.83998931 28.4027306,5.08625376 25.8638457,2.56872969 C22.4103603,-0.8562527 16.8145346,-0.8562527 13.3604918,2.56872969 C10.7564521,5.15086035 10.0565225,9.03002727 11.5155429,12.3190098 L13.3437328,11.5080094 Z" id="Stroke-1" fill="#005AA0"></path>
            <polygon id="Stroke-3" fill="#E30613" points="15 5.5 15 11.3021136 17 11.3021136 17 5.5"></polygon>
            <path d="M20,10.4143312 L20,7.85904808 C20,7.38644241 20.5149804,7 21,7 C21.4853424,7 22,7.38620253 22,7.85904808 L22,10.4143312 L24,10.4143312 L24,7.85904808 C24,6.27783269 22.5861469,5 21,5 C19.414268,5 18,6.27797874 18,7.85904808 L18,10.4143312 L20,10.4143312 Z" id="Stroke-5" fill="#E30613"></path>
            <polygon id="Stroke-7" fill="#E30613" points="16.6909091 31.5272727 16.6909091 33.3818182 18.6909091 33.3818182 18.6909091 31.5272727"></polygon>
            <polygon id="Stroke-7" fill="#E30613" points="20.4 31.5272727 20.4 33.3818182 22.4 33.3818182 22.4 31.5272727"></polygon>
            <path d="M4.26210644,20.7203448 C4.9902769,19.36005 5.90050943,18.1018138 6.9658824,16.9799272 L5.51561288,15.6027132 C4.32733157,16.854028 3.31172324,18.2579277 2.49884505,19.7764649 L4.26210644,20.7203448 Z" id="Stroke-11" fill="#005AA0"></path>
            <path d="M36.9371691,20.1830839 C36.0918664,18.5086136 35.0030596,16.965447 33.7089719,15.6027132 L32.2587023,16.9799272 C33.4188945,18.2016628 34.3946523,19.5846049 35.1517688,21.0843861 L36.9371691,20.1830839 Z" id="Stroke-13" fill="#005AA0"></path>
            <path d="M38.9773615,28.774551 C38.9773615,33.6551093 37.1304791,38.248713 33.8719013,41.7656787 L35.4267301,52.989849 L26.2464362,52.989849 L24.13359,47.4535218 C22.6584063,47.804897 21.1450948,47.9849837 19.612416,47.9849837 C18.0796819,47.9849837 16.5660672,47.8048803 15.0912274,47.45356 L12.9783958,52.989849 L3.79810194,52.989849 L5.35293072,41.7656787 C2.09435293,38.248713 0.247470545,33.6551093 0.247470545,28.774551 C0.247470545,25.3327911 1.16285918,22.0215326 2.87206174,19.1130671 L2.41886751,9.2863406 L11.356687,11.3966975 C13.9187543,10.196376 16.7218341,9.56411827 19.612416,9.56411827 C22.5029979,9.56411827 25.3060777,10.196376 27.868145,11.3966975 L36.8060397,9.28632285 L36.3522946,19.1130247 C38.0618553,22.0212974 38.9773615,25.3325669 38.9773615,28.774551 Z M31.7576051,41.0784515 L32.0991804,40.7280019 C35.2094643,37.5369117 36.9773615,33.2947857 36.9773615,28.774551 C36.9773615,25.597551 36.1076413,22.5488865 34.4856393,19.888567 L34.326412,19.627411 L34.685905,11.8419137 L27.6349227,13.5067593 L27.3130919,13.3486126 C24.9360479,12.1805406 22.3186257,11.5641183 19.612416,11.5641183 C16.9062063,11.5641183 14.2887841,12.1805406 11.9117401,13.3486126 L11.5899093,13.5067593 L4.53885177,11.8418959 L4.89790622,19.6273655 L4.73876653,19.8884549 C3.11708587,22.5490333 2.24747055,25.5977488 2.24747055,28.774551 C2.24747055,33.2947857 4.01536767,37.5369117 7.12565156,40.7280019 L7.46722691,41.0784515 L6.09425006,50.989849 L11.6009671,50.989849 L13.870582,45.0427378 L14.7539934,45.2973457 C16.3289972,45.7512774 17.958143,45.9849837 19.612416,45.9849837 C21.2665158,45.9849837 22.8951713,45.7513309 24.4709161,45.2973234 L25.3542765,45.0428073 L27.6238649,50.989849 L33.1305819,50.989849 L31.7576051,41.0784515 Z" id="Stroke-15" fill="#005AA0"></path>
            <path d="M24,32.5002322 C24,30.0149436 21.9850564,28 19.4997678,28 C17.0148848,28 15,30.0150024 15,32.5002322 C15,34.9853474 17.0147701,37 19.4997678,37 C21.9851711,37 24,34.9854061 24,32.5002322 Z M26,32.5002322 C26,36.0900278 23.0896884,39 19.4997678,39 C15.9102268,39 13,36.089943 13,32.5002322 C13,28.910459 15.9102892,26 19.4997678,26 C23.0896259,26 26,28.9103741 26,32.5002322 Z" id="Stroke-17" fill="#005AA0"></path>
            <path d="M13,23.4789663 C13,22.6641461 13.6697813,22 14.5,22 C15.3302187,22 16,22.6641461 16,23.4789663 L18,23.4789663 C18,21.5557762 16.4310232,20 14.5,20 C12.5689768,20 11,21.5557762 11,23.4789663 L13,23.4789663 Z" id="Stroke-19" fill="#005AA0"></path>
            <path d="M23,23.4789663 C23,22.6641461 23.6697813,22 24.5,22 C25.3302187,22 26,22.6641461 26,23.4789663 L28,23.4789663 C28,21.5557762 26.4310232,20 24.5,20 C22.5689768,20 21,21.5557762 21,23.4789663 L23,23.4789663 Z" id="Stroke-21" fill="#005AA0"></path>
        </g>
    </g>
</svg>