<?xml version="1.0" encoding="UTF-8"?>
<svg width="70px" height="70px" viewBox="0 0 70 70" version="1.1" xmlns="http://www.w3.org/2000/svg" xmlns:xlink="http://www.w3.org/1999/xlink">
    <!-- Generator: Sketch 54.1 (76490) - https://sketchapp.com -->
    <title>Icons/70px/travel-mc-70</title>
    <desc>Created with Sketch.</desc>
    <g id="Icons/70px/travel-mc-70" stroke="none" stroke-width="1" fill="none" fill-rule="evenodd">
        <g>
            <rect id="invisible-70" x="0" y="0" width="70" height="70"></rect>
            <g id="lines" transform="translate(9.299630, 9.051048)" fill-rule="nonzero">
                <path d="M15.7772022,-0.512737368 C10.941506,-0.512737368 6.96457601,3.16407789 6.48956653,7.87455413 C2.35897473,8.33884108 -0.851231896,11.8463281 -0.851231896,16.105636 C-0.851231896,20.6858821 2.86179121,24.3989052 7.44203733,24.3989052 L15.7772022,24.3989052 L15.7772022,22.3989052 L7.44203733,22.3989052 C3.96636071,22.3989052 1.1487681,19.5813126 1.1487681,16.105636 C1.1487681,12.6290336 3.96673655,9.81375024 7.43953961,9.82242435 L8.44203733,9.82492831 L8.44203733,8.82242746 C8.44203733,4.77132779 11.7261025,1.48726263 15.7772022,1.48726263 C19.8283018,1.48726263 23.112367,4.77132779 23.112367,8.82242746 L23.112367,9.82242746 L25.1542626,9.82242746 C28.6299392,9.82242746 31.4475318,12.6400201 31.4475318,16.1156967 C31.4475318,17.3241117 31.1073485,18.4797608 30.4754951,19.4774731 L32.165157,20.5475397 C32.9982602,19.2320491 33.4475318,17.705812 33.4475318,16.1156967 C33.4475318,11.5354506 29.7345087,7.82242746 25.1542626,7.82242746 L25.059434,7.82242746 C24.5604533,3.13698057 20.5950464,-0.512737368 15.7772022,-0.512737368 Z" id="Oval-2" fill="#005AA0"></path>
                <path d="M23.3961899,25.7000743 C26.3511283,25.7000743 28.7465792,23.3046234 28.7465792,20.349685 C28.7465792,17.3947466 26.3511283,14.9992958 23.3961899,14.9992958 C20.4412515,14.9992958 18.0458006,17.3947466 18.0458006,20.349685 C18.0458006,23.3046234 20.4412515,25.7000743 23.3961899,25.7000743 Z M23.3961899,23.7000743 C21.545821,23.7000743 20.0458006,22.2000539 20.0458006,20.349685 C20.0458006,18.4993161 21.545821,16.9992958 23.3961899,16.9992958 C25.2465588,16.9992958 26.7465792,18.4993161 26.7465792,20.349685 C26.7465792,22.2000539 25.2465588,23.7000743 23.3961899,23.7000743 Z" id="Oval-2" fill="#E30613"></path>
                <path d="M31.3390967,31.5447272 C33.3077156,31.5447272 34.9035965,29.9488462 34.9035965,27.9802274 C34.9035965,26.0116085 33.3077156,24.4157276 31.3390967,24.4157276 C29.3704778,24.4157276 27.7745969,26.0116085 27.7745969,27.9802274 C27.7745969,29.9488462 29.3704778,31.5447272 31.3390967,31.5447272 Z M31.3390967,29.5447272 C30.4750473,29.5447272 29.7745969,28.8442767 29.7745969,27.9802274 C29.7745969,27.116178 30.4750473,26.4157276 31.3390967,26.4157276 C32.2031461,26.4157276 32.9035965,27.116178 32.9035965,27.9802274 C32.9035965,28.8442767 32.2031461,29.5447272 31.3390967,29.5447272 Z" id="Oval-2" fill="#005AA0"></path>
                <path d="M21.5754437,52.6352868 L30.1447781,49.9465534 L37.6060369,42.001807 L49.3194843,38.710341 L49.4480533,38.6263445 C51.5079351,37.2805861 52.390536,35.4037524 51.9752726,33.1609187 L51.8470538,32.4684103 L44.3793575,31.2591767 L15.3277669,39.6975399 L9.14083009,36.3145022 L-0.0344396518,38.9498816 L7.39605351,45.2225128 L21.120073,46.7231108 L23.2438839,46.0638484 L21.5754437,52.6352868 Z M20.924193,44.6897732 L8.21995473,43.3006791 L4.11812489,39.8380198 L8.90270424,38.4637625 L15.0927055,41.8484758 L44.5044894,33.3054903 L50.0751459,34.2075389 C50.0767294,35.2640859 49.5650088,36.1228352 48.4773606,36.8695165 L36.5291752,40.2269436 L29.045806,48.1952331 L24.3957644,49.6542405 L26.0595758,43.1010339 L24.1210793,42.6088638 L23.8210596,43.7905427 L20.924193,44.6897732 Z" id="Path-3" fill="#005AA0"></path>
                <polygon id="Path-4" fill="#005AA0" points="23.7193139 33.9223693 32.2578588 36.6087281 32.8580847 34.7009207 23.7382975 31.8316941 15.4294311 34.2808941 22.0673102 39.2340768 23.2634079 37.6311575 19.8296833 35.0689136"></polygon>
            </g>
        </g>
    </g>
</svg>