<?xml version="1.0" encoding="UTF-8"?>
<svg width="64px" height="64px" viewBox="0 0 64 64" version="1.1" xmlns="http://www.w3.org/2000/svg" xmlns:xlink="http://www.w3.org/1999/xlink">
    <!-- Generator: Sketch 40.2 (33826) - http://www.bohemiancoding.com/sketch -->
    <title>multicolor-dog-left-64</title>
    <desc>Created with Sketch.</desc>
    <defs></defs>
    <g id="Page-1" stroke="none" stroke-width="1" fill="none" fill-rule="evenodd">
        <g id="multicolor-dog-left-64" stroke-width="2">
            <g id="multicolor-dog-left-64-crop" transform="translate(5.000000, 2.000000)">
                <path d="M25.3160136,53 C20.6537683,51.9683248 17.5316092,47.7149081 18.0577178,43.1117924 C18.5838263,38.5086767 22.5909305,35.0193857 27.3733058,35 C29.3909673,35.0258812 31.3530044,35.6441655 33,36.7731046" id="Shape" stroke="#E30613"></path>
                <path d="M13,54.0003298 L5.62522712,54.0003298 C4.92589096,53.9884416 4.25212247,54.2983772 3.75756163,54.8594617 C3.26300078,55.4205462 2.98981199,56.1849437 3.00029071,56.9783479 L3.00029071,60 L15,60" id="Shape" stroke="#005AA0"></path>
                <path d="M14,16.7814716 C11.8647355,17.9827111 9.32236286,18.3121543 6.93519176,17.6969365 C4.54802066,17.0817188 2.51276864,15.5725377 1.27958282,13.5031868 C0.249006262,11.8519144 -0.1778093,9.91384813 0.0676295376,8" id="Shape" stroke="#005AA0"></path>
                <circle id="Oval" stroke="#005AA0" cx="0.5" cy="5.5" r="0.5"></circle>
                <path d="M22.2932862,11.406444 L22.2932862,14.4849127 C22.2932862,16.9785265 24.2423505,19 26.6466431,19 C29.0509357,19 31,16.9785265 31,14.4849127 L31,12.4326002 C30.5379121,6.85829439 26.830663,2.14663245 21.657846,0.559357031 C16.4850291,-1.02791839 10.9028049,0.833274846 7.59081272,5.24950675 L3,5.24950675" id="Shape" stroke="#005AA0"></path>
                <path d="M11,22 L11,52" id="Shape" stroke="#005AA0" fill="#000000"></path>
                <path d="M54,39 C53.9828667,45.0680212 49.0680212,49.9828667 43,50" id="Shape" stroke="#005AA0"></path>
                <path d="M20.6774076,54.5503049 L17.7050997,54.5503049 C16.9844863,54.5395064 16.2902183,54.821031 15.7806105,55.3306822 C15.2710026,55.8403335 14.989502,56.2793252 15.0002996,57 L15.0002996,60 L40.2252859,60 C45.4265245,44.9737827 38.8713652,29.4013332 24.7990079,22" id="Shape" stroke="#005AA0"></path>
            </g>
        </g>
    </g>
</svg>