<?xml version="1.0" encoding="UTF-8"?>
<svg width="64px" height="64px" viewBox="0 0 64 64" version="1.1" xmlns="http://www.w3.org/2000/svg" xmlns:xlink="http://www.w3.org/1999/xlink">
    <!-- Generator: Sketch 42 (36781) - http://www.bohemiancoding.com/sketch -->
    <title>multicolor-happy-accepted-64</title>
    <desc>Created with Sketch.</desc>
    <defs>
        <polygon id="path-1" points="34.5034 0.2504 31.1724 0.2504 31.1724 7.1573 34.5034 7.1573"></polygon>
    </defs>
    <g id="Page-1" stroke="none" stroke-width="1" fill="none" fill-rule="evenodd">
        <g id="multicolor-happy-accepted-64">
            <g id="multicolor-happy-accepted-64-crop" transform="translate(8.000000, 1.000000)">
                <path d="M23,54.9854 C10.318,54.9854 0,44.6684 0,31.9854 C0,19.3024 10.318,8.9854 23,8.9854 C29.694,8.9854 36.07,11.9124 40.493,17.0144 L38.981,18.3254 C34.939,13.6604 29.114,10.9854 23,10.9854 C11.42,10.9854 2,20.4064 2,31.9854 C2,43.5644 11.42,52.9854 23,52.9854 C34.58,52.9854 44,43.5644 44,31.9854 C44,29.6484 43.628,27.3464 42.894,25.1444 L42.834,24.9854 L28.158,24.9854 C16.262,24.9854 14.119,17.4064 14.033,17.0844 L15.965,16.5664 C16.038,16.8284 17.871,22.9854 28.158,22.9854 L44.219,22.9854 L44.779,24.4774 C45.593,26.9184 46,29.4324 46,31.9854 C46,44.6684 35.682,54.9854 23,54.9854" id="Fill-1" fill="#005AA0" fill-rule="nonzero"></path>
                <path d="M19.2749,31.3877 L17.2749,31.3877 C17.2749,30.5547 16.5459,29.8247 15.7159,29.8247 C14.8859,29.8247 14.1579,30.5547 14.1579,31.3877 L12.1579,31.3877 C12.1579,29.4557 13.7879,27.8247 15.7159,27.8247 C17.6459,27.8247 19.2749,29.4557 19.2749,31.3877" id="Fill-3" fill="#005AA0" fill-rule="nonzero"></path>
                <path d="M34.1294,31.3877 L32.1294,31.3877 C32.1294,30.5547 31.4004,29.8247 30.5704,29.8247 C29.7404,29.8247 29.0124,30.5547 29.0124,31.3877 L27.0124,31.3877 C27.0124,29.4557 28.6424,27.8247 30.5704,27.8247 C32.5004,27.8247 34.1294,29.4557 34.1294,31.3877" id="Fill-5" fill="#005AA0" fill-rule="nonzero"></path>
                <path d="M23.8042,44.9336 C20.6492,44.9336 17.6722,43.6916 15.4212,41.4366 L16.8362,40.0246 C18.7102,41.9006 21.1842,42.9336 23.8042,42.9336 C26.4242,42.9336 28.8992,41.9006 30.7722,40.0246 L32.1872,41.4366 C29.9362,43.6916 26.9592,44.9336 23.8042,44.9336" id="Fill-7" fill="#005AA0" fill-rule="nonzero"></path>
                <polygon id="Fill-12" fill="#E30613" fill-rule="nonzero" points="41.2915 11.0499 39.6915 9.8489 43.6805 4.5369 45.2805 5.7379"></polygon>
                <polygon id="Fill-14" fill="#E30613" fill-rule="nonzero" points="46.0649 18.1915 45.1259 16.4255 50.9819 13.3105 51.9209 15.0765"></polygon>
                <mask id="mask-2" fill="white">
                    <use xlink:href="#path-1"></use>
                </mask>
                <g id="path-1"></g>
                <polygon id="Fill-9" fill="#E30613" fill-rule="nonzero" mask="url(#mask-2)" points="33.1294 7.1573 31.1724 6.7433 32.5464 0.2503 34.5034 0.6643"></polygon>
            </g>
        </g>
    </g>
</svg>