<?xml version="1.0" encoding="UTF-8"?>
<svg width="64px" height="64px" viewBox="0 0 64 64" version="1.1" xmlns="http://www.w3.org/2000/svg" xmlns:xlink="http://www.w3.org/1999/xlink">
    <!-- Generator: Sketch 41.2 (35397) - http://www.bohemiancoding.com/sketch -->
    <title>multicolor-chat-heart-64</title>
    <desc>Created with Sketch.</desc>
    <defs></defs>
    <g id="Page-1" stroke="none" stroke-width="1" fill="none" fill-rule="evenodd">
        <g id="multicolor-chat-heart-64">
            <g id="multicolor-chat-heart-64-crop" transform="translate(5.000000, 8.000000)">
                <path d="M21.127,17.0146 C20.318,17.0146 19.509,17.3156 18.907,17.9166 C18.322,18.5016 18,19.2906 18,20.1376 C18,20.9846 18.322,21.7726 18.907,22.3576 L25,28.4506 L31.093,22.3576 C31.678,21.7726 32,20.9846 32,20.1376 C32,19.2906 31.678,18.5016 31.093,17.9166 C29.889,16.7126 27.855,16.7136 26.652,17.9176 L25,19.5706 L23.348,17.9166 C22.746,17.3156 21.937,17.0146 21.127,17.0146 L21.127,17.0146 Z M25,31.2786 L17.493,23.7716 C16.53,22.8096 16,21.5186 16,20.1376 C16,18.7566 16.53,17.4656 17.493,16.5026 C19.497,14.4986 22.758,14.4996 24.762,16.5026 L25,16.7416 L25.238,16.5026 C27.242,14.4986 30.503,14.4986 32.507,16.5026 C33.47,17.4656 34,18.7566 34,20.1376 C34,21.5186 33.47,22.8096 32.507,23.7716 L25,31.2786 Z" id="Fill-1" fill="#E30613"></path>
                <path d="M33.2215205,7 L16.8598547,7 C7.44962019,7 0.042854958,13.6370713 0,22.1253329 C0.042854958,30.7395829 6.75404282,37.0377197 16,37.0377197 L21.9973145,37.0377197 L33,47.9539795 L33,35.0185505 L31,35.0185505 L31,43.0906982 L23,35.0185505 L16,35.0185505 C8.66287407,35.0185505 2.03571246,28.928709 2,22.1253329 C2.03571246,15.417708 8.31958008,8.87268066 17,9.00048828 L33.3133545,9.00048828 C37.0988758,9.00048828 41.2579346,10.539917 44,13.2169189 C46.7420654,15.8939209 48.0571399,19.0108985 48,22.1471709 C48.0589256,25.2481665 46.267335,29.1542083 43.9942366,31.3296088 C41.6407851,33.5839621 39.3642445,35.0185505 35.9572754,35.0185505 L36,37.0377197 C40.3587063,37.0377197 42.5210464,35.5758594 45.5423209,32.6848445 C48.4903849,29.8593436 50.0724471,26.0964887 49.9974509,22.1471709 C50.0706615,18.2045725 48.513598,14.5038718 45.6119603,11.7254066 C42.4746202,8.72184209 37.958779,7 33.2215205,7 Z" id="Fill-1" fill="#005AA0"></path>
                <path d="M39.4243164,0.466064453 C39.4243164,0.466064453 40,5.10595703 40,5.10595703" id="Path-4" stroke="#005AA0" stroke-width="2"></path>
                <path d="M45,7.49072266 L48.5925293,3" id="Path-5" stroke="#005AA0" stroke-width="2"></path>
                <path d="M54,8 L50,10.697998" id="Path-7" stroke="#005AA0" stroke-width="2"></path>
            </g>
        </g>
    </g>
</svg>
