<svg xmlns="http://www.w3.org/2000/svg" xmlns:xlink="http://www.w3.org/1999/xlink"><symbol id="apartment-40" viewBox="0 0 40 40"><g fill="none" fill-rule="evenodd"><path d="M0 0h40v40H0z"/><path d="M34 0v34h2v2H11v-2h3V24h8v10h10V2H4v32h4v2H0v-2h2V0h32zM20 26h-4v8h4v-8zm10-2v6h-6v-6h6zm-18 0v6H6v-6h6zm16 2h-2v2h2v-2zm-18 0H8v2h2v-2zm20-12v6h-6v-6h6zm-9 0v6h-6v-6h6zm-9 0v6H6v-6h6zm16 2h-2v2h2v-2zm-9 0h-2v2h2v-2zm-9 0H8v2h2v-2zM30 4v6h-6V4h6zm-9 0v6h-6V4h6zm-9 0v6H6V4h6zm16 2h-2v2h2V6zm-9 0h-2v2h2V6zm-9 0H8v2h2V6z" transform="translate(2 2)" fill="currentColor" fill-rule="nonzero"/></g></symbol><symbol id="arrows-apart-40" viewBox="0 0 40 40"><g fill="none" fill-rule="evenodd"><path d="M0 0h40v40H0z"/><path d="M11-2.245V4h6v2H9V2.244L1.494 9 9 15.755V12h12V5.755L33.495 17 21 28.245V22h-6v-2h8v3.754l7.505-6.755L23 10.245V14H11v6.245L-1.495 9z" transform="translate(4 7)" fill="currentColor" fill-rule="nonzero"/></g></symbol><symbol id="atv-40" viewBox="0 0 40 40"><g fill="none" fill-rule="evenodd"><path d="M0 0h40v40H0z"/><path d="M19.331.835L24.47 7h4.066l2.157 3.232a9.425 9.425 0 013.072.807l.33.157-.897 1.788a7.444 7.444 0 00-3.347-.789 7.45 7.45 0 00-4.136 1.247l1.22 1.4a6 6 0 11-1.525 1.295l-1.2-1.375a7.449 7.449 0 00-1.835 4.67l-.004.243h-2c0-.572.05-1.132.148-1.675h-5.932l-2.524-2.524-1.12 1.122c.628.909 1.01 2 1.054 3.177L12 20a6 6 0 11-2.451-4.838l1.099-1.1-2.355-2.355 1.414-1.414 5.707 5.706h5.695a9.493 9.493 0 017.232-5.684L27.464 9h-3.932l-1.538-1.846-7.308 4.177L12.464 8H2v2h5v2H0V6h13.535l1.779 2.668 5.379-3.074-2.025-2.43-2.352.785-.632-1.898L19.33.835zM6 16a4 4 0 103.492 2.049l-2.535 2.533-1.414-1.414L8.109 16.6A3.981 3.981 0 006 16zm24 0c-.615 0-1.197.139-1.717.386l2.47 2.831-1.506 1.316-2.499-2.863A4 4 0 1030 16z" transform="translate(2 6)" fill="currentColor" fill-rule="nonzero"/></g></symbol><symbol id="baby-40" viewBox="0 0 40 40"><g fill="none" fill-rule="evenodd"><path d="M0 0h40v40H0z"/><path d="M19.74.365l.174.045.157.049a4.013 4.013 0 012.6 4.706l-.052.2a4.013 4.013 0 01-4.484 2.853l-.008.03a12.684 12.684 0 00-3.303-.436c-6.996 0-12.668 5.672-12.668 12.668 0 6.996 5.672 12.668 12.668 12.668 6.996 0 12.667-5.672 12.667-12.668 0-4.01-1.875-7.703-4.995-10.08l-.287-.213 1.167-1.624A14.647 14.647 0 0129.49 20.48c0 8.1-6.567 14.668-14.667 14.668S.156 28.58.156 20.48 6.723 5.812 14.824 5.812c1.14 0 2.265.131 3.357.387l.02.004.004-.014a2.013 2.013 0 001.258-3.824l-.107-.035-.09-.019c-.37-.056-.735.107-.846.302l-.026.059c-.127.443.059.722.814.595l.148-.029.423 1.955c-2.47.535-3.833-1.244-3.307-3.075C16.85.808 18.347.07 19.74.365zm-3.76 26.5l1.413 1.415a6.262 6.262 0 01-4.438 1.836 6.258 6.258 0 01-4.224-1.632l-.215-.204 1.415-1.414a4.258 4.258 0 003.024 1.25 4.262 4.262 0 002.846-1.082l.178-.169zm-4.353-6.69l.013.172-1.998.093a.916.916 0 00-1.829-.021v.107l-1.999.093a2.916 2.916 0 015.813-.443zm8.215-.306l.013.17-1.998.093a.916.916 0 00-1.828-.021l-.002.107-1.997.094a2.915 2.915 0 015.812-.443z" transform="translate(5 2)" fill="currentColor" fill-rule="nonzero"/></g></symbol><symbol id="bank-40" viewBox="0 0 40 40"><g fill="none" fill-rule="evenodd"><path d="M0 0h40v40H0z"/><path d="M31 16v15h5v5H0v-5h5V16H3v-3.874H0V7h6.418L18 .869 29.582 7H36v5.126h-3V16h-2zm3 17H2v1h32v-1zm-9-17h-4v15h4V16zm-10 0h-4v15h4V16zm-6 0H7v15h2V16zm10 0h-2v15h2V16zm10 0h-2v15h2V16zM18 3.131L6.915 9H2v1.126h6.696l9.325-4.693 8.523 4.693H34V9h-4.915L18 3.131zm13 8.995h-4.97l-8.05-4.433-8.81 4.433H5V14h26v-1.874z" transform="translate(2 2)" fill="currentColor" fill-rule="nonzero"/></g></symbol><symbol id="bankid-40" viewBox="0 0 40 40"><g fill="none" fill-rule="evenodd"><path d="M0 0h40v40H0z"/><g fill="currentColor" fill-rule="nonzero"><path d="M11.367 18.094l1.447-9.685h-1.546c-.723 0-1.655-.43-1.93-1.222-.087-.268-.295-1.187.9-2.084.427-.314.701-.663.756-.931.055-.28-.01-.524-.197-.71-.263-.268-.779-.42-1.436-.42-1.107 0-1.886.676-1.962 1.165-.055.36.208.652.438.838.69.547.855 1.339.428 2.084-.439.768-1.392 1.269-2.412 1.28H4.275c-.132.943-2.28 15.4-2.444 16.542h8.56c.077-.513.471-3.248 1.009-6.857h-.033zM23.17 0h-9.138l-1.218 7.81h1.551c.851 0 1.656-.394 2-.963a.938.938 0 00.161-.5c0-.324-.218-.568-.436-.73-.598-.453-.725-.929-.725-1.265 0-.07 0-.128.012-.186.126-.824 1.23-1.717 2.69-1.717.873 0 1.54.209 1.942.591.357.337.495.813.391 1.312-.126.592-.713 1.08-1.046 1.323-.885.626-.77 1.172-.713 1.334.184.488.886.801 1.426.801h2.356v.012c3.219.023 4.943 1.52 4.403 5.001-.506 3.238-2.966 4.63-5.897 4.654l-1.161 7.474h1.713c7.23 0 13.138-4.689 14.3-12.093C37.216 3.668 31.446 0 23.17 0z" transform="translate(2 3)"/><path d="M23.17 0h-9.138l-1.218 7.81h1.551c.851 0 1.656-.394 2-.963a.938.938 0 00.161-.5c0-.324-.218-.568-.436-.73-.598-.453-.725-.929-.725-1.265 0-.07 0-.128.012-.186.126-.824 1.23-1.717 2.69-1.717.873 0 1.54.209 1.942.591.357.337.495.813.391 1.312-.126.592-.713 1.08-1.046 1.323-.885.626-.77 1.172-.713 1.334.184.488.886.801 1.426.801h2.356v.012c3.219.023 4.943 1.52 4.403 5.001-.506 3.238-2.966 4.63-5.897 4.654l-1.161 7.474h1.713c7.23 0 13.138-4.689 14.3-12.093C37.216 3.668 31.446 0 23.17 0z" transform="translate(2 3)"/><path d="M.99.024h3.627c1.546 0 1.922.825 1.808 1.578-.091.61-.49 1.064-1.171 1.363.864.346 1.205.884 1.08 1.733C6.174 5.762 5.299 6.55 4.15 6.55H.023L.989.024zm2.399 2.701c.705 0 1.034-.394 1.103-.86.068-.502-.148-.849-.853-.849h-.626l-.25 1.71h.626zm-.387 2.822c.728 0 1.149-.311 1.25-.945.08-.55-.215-.872-.92-.872h-.717l-.273 1.828h.66v-.011zm8.415 1.051c-.944.072-1.399-.035-1.626-.466-.5.323-1.058.49-1.65.49-1.068 0-1.443-.585-1.34-1.23.045-.312.215-.61.488-.862.591-.537 2.047-.61 2.615-1.016.046-.454-.125-.621-.66-.621-.625 0-1.148.215-2.046.86l.216-1.482c.773-.586 1.524-.86 2.388-.86 1.103 0 2.081.478 1.9 1.745l-.217 1.434c-.08.502-.057.658.478.67l-.546 1.338zM9.779 4.351c-.5.335-1.432.275-1.535.968-.045.323.148.562.455.562.296 0 .66-.131.955-.346-.022-.12-.011-.24.023-.467l.102-.717zm3.401-2.857h1.887l-.102.658c.602-.538 1.057-.741 1.649-.741 1.057 0 1.546.68 1.375 1.793L17.5 6.539h-1.887l.41-2.762c.079-.502-.069-.74-.433-.74-.296 0-.568.167-.83.537l-.432 2.953H12.44l.74-5.033zm6.276-1.47h1.888l-.478 3.204 1.808-1.734h2.332l-2.32 2.152 1.865 2.893h-2.377l-1.433-2.331h-.022l-.342 2.33H18.49z" transform="translate(2 30.385)"/><path d="M.955.024h2.049l-.901 6.634H.053zm3.047 0H6.93c2.264 0 2.919 1.863 2.704 3.408-.204 1.51-1.255 3.226-3.24 3.226H3.09L4.002.024zM5.9 5.075c.997 0 1.544-.56 1.705-1.74.118-.876-.118-1.74-1.223-1.74h-.547l-.472 3.48H5.9z" transform="translate(27.627 30.385)"/></g></g></symbol><symbol id="bike-40" viewBox="0 0 40 40"><g fill="none" fill-rule="evenodd"><path d="M0 0h40v40H0z"/><g fill="currentColor" fill-rule="nonzero"><path d="M7 10a8 8 0 105.467 2.16L11.1 13.62A6 6 0 117 12v-2zm14.07 10.865C22.283 23.937 25.327 26 28.763 26 33.305 26 37 22.426 37 18s-3.695-8-8.237-8a8.45 8.45 0 00-.916.049l.214 1.988c.232-.024.466-.037.702-.037C32.215 12 35 14.694 35 18s-2.785 6-6.237 6c-2.616 0-4.922-1.563-5.833-3.87l-1.86.735z" transform="translate(2 7)"/><path d="M22.024 7l5.312 10h-7.319L12.868 4.503l-1.736.994L18.858 19h11.806L23.226 5H16.25v2z" transform="translate(2 7)"/><path d="M14.263 1H18v-2h-5.136L6.06 17.657l1.878.686zm7.343 2.5h5.227a1 1 0 100-2h-5.227a1 1 0 100 2zm-.636 14.743l3-12-1.94-.486-3 12z" transform="translate(2 7)"/></g></g></symbol><symbol id="bills-coins-40" viewBox="0 0 40 40"><g fill="none" fill-rule="evenodd"><path d="M0 0h40v40H0z"/><g fill="currentColor" fill-rule="nonzero"><path d="M30.006 1.898l1.213 6.456 1.965-.37-1.59-8.466-18.286 3.859.413 1.957zM17 19.5a5.5 5.5 0 10-11 0 5.5 5.5 0 0011 0zm-9 0a3.5 3.5 0 117 0 3.5 3.5 0 01-7 0zm13 11a4.5 4.5 0 10-9 0 4.5 4.5 0 009 0zm-7 0a2.5 2.5 0 115 0 2.5 2.5 0 01-5 0z" transform="translate(3 3)"/><path d="M1.946 17.05L4.867 3.424 32.24 9.18l-2.92 13.625-13.45-2.828-.412 1.957 15.398 3.238 3.76-17.536L3.329 1.058-.43 18.593l6.979 1.468.411-1.958z" transform="translate(3 3)"/></g></g></symbol><symbol id="block-card-40" viewBox="0 0 40 40"><g fill="currentColor" fill-rule="nonzero"><path d="M19 23l.002-2H3.863c-.99 0-1.855-.813-1.855-1.685V3.685C2.008 2.813 2.873 2 3.863 2h25.32c1.05 0 1.881.79 1.822 1.613l-.003 7.372h2v-7.3C33.147 1.715 31.34 0 29.182 0H3.864C1.795 0 .008 1.68.008 3.685v15.63C.008 21.32 1.795 23 3.863 23h15.139v-2L19 23z" transform="translate(2 7)"/><path d="M31.731 6H1.281v2h30.45zM5 13h12v-2H5zm0 3h6v-2H5zm23.5 9a5.5 5.5 0 100-11 5.5 5.5 0 000 11zm0 2a7.5 7.5 0 110-15 7.5 7.5 0 010 15z" transform="translate(2 7)"/><path d="M23.086 15.5l9.765 9.765 1.414-1.414-9.765-9.765z" transform="translate(2 7)"/></g></symbol><symbol id="boat-40" viewBox="0 0 40 40"><g fill="none" fill-rule="evenodd"><path d="M0 0h40v40H0z"/><g fill="currentColor"><path d="M-.319 29.922l2.107.708a6 6 0 004.156-.123l3.003-1.211a4 4 0 012.77-.082l4.372 1.469a6 6 0 003.822 0l4.371-1.47a4 4 0 012.77.083l3.004 1.21a6 6 0 004.156.124l2.107-.708-.638-1.896-2.106.708a4 4 0 01-2.77-.082L27.8 27.441a6 6 0 00-4.156-.123l-4.37 1.469a4 4 0 01-2.55 0l-4.37-1.47a6 6 0 00-4.156.124l-3.003 1.211a4 4 0 01-2.77.082l-2.107-.708-.638 1.896zM18 13.005l13.075 1.26-4.756 11.348 1.845.774 4.756-11.349a2 2 0 00-1.653-2.764l-13.17-1.27h-.193l-13.17 1.27a2 2 0 00-1.653 2.764l4.756 11.349 1.844-.774-4.756-11.348L18 13.005z" fill-rule="nonzero" transform="translate(2 4)"/><path fill-rule="nonzero" d="M17 15v10h2V15zm-8.058-3.664l2.026-5.672A1 1 0 0111.909 5h12.182a1 1 0 01.941.664l2.026 5.672 1.884-.672-2.026-5.673A3 3 0 0024.09 3H11.909a3 3 0 00-2.825 1.991l-2.026 5.673 1.884.672z" transform="translate(2 4)"/><path d="M17 0h2a1 1 0 011 1v2h-4V1a1 1 0 011-1z" transform="translate(2 4)"/></g></g></symbol><symbol id="briefcase-40" viewBox="0 0 40 40"><g fill="none" fill-rule="evenodd"><path d="M0 0h40v40H0z"/><path d="M26 0v5h7.5A2.5 2.5 0 0136 7.5v20a2.5 2.5 0 01-2.5 2.5h-31A2.5 2.5 0 010 27.5v-20A2.5 2.5 0 012.5 5H10V0h16zm8 10.134L29.362 14H6.638L2 10.135V27.5a.5.5 0 00.5.5h31a.5.5 0 00.5-.5V10.134zM28 16v10h-2V16h2zm-18 0v10H8V16h2zm7-2v2h2v-2h2v4h-6v-4h2zm16.5-7h-31a.5.5 0 00-.5.5v.031L7.362 12h21.276L34 7.53V7.5a.5.5 0 00-.5-.5zM24 2H12v3h12V2z" transform="translate(2 5)" fill="currentColor" fill-rule="nonzero"/></g></symbol><symbol id="briefcase-first-aid-40" viewBox="0 0 40 40"><g fill="currentColor" fill-rule="nonzero"><path d="M32.183 29c1.111 0 1.884-.753 1.819-1.688l.003-18.696C34.065 7.79 33.232 7 32.183 7H3.863c-.99 0-1.855.814-1.855 1.688v18.624c0 .874.865 1.688 1.855 1.688h28.32zM.008 27.312V8.688C.008 6.682 1.794 5 3.863 5h28.32c2.157 0 3.964 1.716 3.819 3.688l-.003 18.552c.15 2.07-1.587 3.76-3.816 3.76H3.863C1.794 31 .008 29.318.008 27.312z" transform="translate(2 3)"/><path d="M5 6.5v24h2v-24zm24 0v24h2v-24zm-15.992-.188V3.688c0-.874.865-1.688 1.855-1.688h6.32c1.049 0 1.881.79 1.822 1.616l-.003 2.696h2V3.688C25.147 1.716 23.34 0 21.182 0h-6.319c-2.069 0-3.855 1.682-3.855 3.688v2.624h2zM23 17v2h-4v2h6v-6h-6v2zm-10 2v-2h4v-2h-6v6h6v-2z" transform="translate(2 3)"/><path d="M19 13v4h2v-6h-6v6h2v-4zm0 10h-2v-4h-2v6h6v-6h-2z" transform="translate(2 3)"/></g></symbol><symbol id="car-40" viewBox="0 0 40 40"><g fill="none" fill-rule="evenodd"><path d="M0 0h40v40H0z"/><path d="M19 0c6.02 0 9.086.873 10.78 2.642l.634.65c.295.312.56.62.833.971.565.73 1.118 1.607 1.686 2.706l.176.348 3.197.85c.938.196 1.615 1.003 1.688 1.954l.006.169v1.377c0 1.187-.938 2.166-2.118 2.166l.1-.004.07.289c.377 1.615.625 3.636.694 5.452l.015.539.004.443v3.781c0 .775-.4 1.46-1.004 1.844l-.114.066v1.59c0 1.136-.858 2.081-1.965 2.162l-.153.005h-3.47c-1.18 0-2.118-.98-2.117-2.199l.025-.801H9.968l-.033.994c-.076 1.063-.905 1.924-1.96 2l-.15.006H4.47c-1.18 0-2.118-.98-2.118-2.167l-.001-1.59-.113-.066a2.177 2.177 0 01-.998-1.69l-.006-.154v-3.781c0-2.038.267-4.52.712-6.434l.07-.289-.052-.001C.91 13.75.08 12.886.005 11.82L0 11.667V10.29c0-1.023.701-1.916 1.642-2.11l3.248-.863.177-.348c.505-.977.998-1.778 1.498-2.457l.188-.249c.272-.352.538-.659.833-.97l.76-.78C10.065.832 13.126 0 19 0zm0 2l-.41.001c-5.246.036-7.718.763-8.927 2.024C8.126 5.63 7.685 6.167 6.767 8.03l-.476.986-4.188 1.11c-.052.01-.103.075-.103.165v1.377c0 .101.063.166.118.166h2.604l-.56 1.751c-.559 1.753-.927 4.684-.927 6.968V21H12v2H3.235v1.333c0 .081.04.14.085.16l.033.007h1v3.333c0 .102.062.167.118.167h3.353c.055 0 .117-.065.118-.199L8.032 25h22l-.09 2.833c0 .102.062.167.117.167h3.47c.056 0 .118-.065.118-.167V24.5h1c.055 0 .118-.065.118-.167L34.764 23H26v-2h8.764v-.448c0-2.15-.325-4.873-.83-6.647l-.097-.32-.559-1.752h2.604c.055 0 .118-.065.118-.166V10.29c0-.09-.05-.155-.155-.178L31.71 9.015l-.341-.711c-.875-1.804-1.298-2.43-2.435-3.65l-.596-.629C27.097 2.731 24.528 2 19 2zm5 19v2H14v-2h10zm5-8a3 3 0 110 6 3 3 0 010-6zM9 13a3 3 0 110 6 3 3 0 010-6zm20 2a1 1 0 100 2 1 1 0 000-2zM9 15a1 1 0 100 2 1 1 0 000-2zm18.622-9.49L30.71 11H11V9h16.29l-1.412-2.51 1.744-.98z" transform="translate(1 5)" fill="currentColor" fill-rule="nonzero"/></g></symbol><symbol id="car-damage-40" viewBox="0 0 40 40"><g fill="none" fill-rule="evenodd"><path d="M0 0h40v40H0z"/><path d="M19 0c6.02 0 9.086.873 10.78 2.642l.634.65c.295.312.56.62.833.971.565.73 1.118 1.607 1.686 2.706l.176.348 3.197.85c.938.196 1.615 1.003 1.688 1.954l.006.169v1.377c0 1.187-.938 2.166-2.118 2.166l.1-.004.07.289c.377 1.615.625 3.636.694 5.452l.015.539.004.443v3.781c0 .775-.4 1.46-1.004 1.844l-.114.066v1.59c0 1.136-.858 2.081-1.965 2.162l-.153.005h-3.47c-1.18 0-2.118-.98-2.117-2.199l.025-.801H9.968l-.033.994c-.076 1.063-.905 1.924-1.96 2l-.15.006H4.47c-1.18 0-2.118-.98-2.118-2.167l-.001-1.59-.113-.066a2.177 2.177 0 01-.998-1.69l-.006-.154v-3.781c0-2.038.267-4.52.712-6.434l.07-.289-.052-.001C.91 13.75.08 12.886.005 11.82L0 11.667V10.29c0-1.023.701-1.916 1.642-2.11l3.248-.863.177-.348c.505-.977.998-1.778 1.498-2.457l.188-.249c.272-.352.538-.659.833-.97l.76-.78C10.065.832 13.126 0 19 0zm0 2l-.41.001c-5.246.036-7.718.763-8.927 2.024C8.126 5.63 7.685 6.167 6.767 8.03l-.476.986-4.188 1.11c-.052.01-.103.075-.103.165v1.377c0 .101.063.166.118.166h2.604l-.56 1.751c-.559 1.753-.927 4.684-.927 6.968V21h18.986v2H3.235v1.333c0 .081.04.14.085.16l.033.007h1v3.333c0 .102.062.167.118.167h3.353c.055 0 .117-.065.118-.199L8.032 25h22l-.09 2.833c0 .102.062.167.117.167h3.47c.056 0 .118-.065.118-.167V24.5h1c.055 0 .118-.065.118-.167v-3.781c0-2.284-.368-5.215-.928-6.968l-.559-1.75h2.604c.055 0 .118-.066.118-.167V10.29c0-.09-.05-.155-.155-.178L31.71 9.015l-.341-.711c-.875-1.804-1.298-2.43-2.435-3.65l-.596-.629C27.097 2.731 24.528 2 19 2zm12.368 19l2.122 1.808-1.297 1.523L30.632 23H24.37v-2h6.998zM29 13v2a1 1 0 10.993 1.117L30 16h2a3 3 0 11-3.176-2.995L29 13zM9 13a3 3 0 110 6 3 3 0 010-6zm0 2a1 1 0 100 2 1 1 0 000-2zM20.494 2.56l.865.812H25.6l-.544 2.604 2.927-.408L31.976 11H8V9l20.023-.001-.946-1.285-4.558.637.621-2.979h-2.571L19.126 4.02l1.368-1.46z" transform="translate(1 5)" fill="currentColor" fill-rule="nonzero"/></g></symbol><symbol id="caravan-40" viewBox="0 0 40 40"><g fill="none" fill-rule="evenodd"><path d="M0 0h40v40H0z"/><path d="M18 15a4 4 0 110 8 4 4 0 010-8zm0 2a2 2 0 100 4 2 2 0 000-4zM31.72 0l4.334 13-1.667 5H37v2H23v-2h9.279l1.667-5-3.667-11H4.973l-1.78 10H5v2H3.387l1.333 4H13v2H3.28L.97 13.075 3.299 0H31.72zM13 4v13h-2V6H8v11H6V4h7zm9 7v2h-6v-2h6zm5-7v6H16V4h11zm-2 2h-7v2h7V6z" transform="translate(1 9)" fill="currentColor" fill-rule="nonzero"/></g></symbol><symbol id="card-40" viewBox="0 0 40 40"><g fill="currentColor" fill-rule="nonzero"><path d="M32.183 22c1.111 0 1.884-.753 1.819-1.688l.003-16.696C34.065 2.79 33.232 2 32.183 2H3.863c-.99 0-1.855.814-1.855 1.688v16.624c0 .874.865 1.688 1.855 1.688h28.32zM.008 20.312V3.688C.008 1.682 1.794 0 3.863 0h28.32c2.157 0 3.964 1.716 3.819 3.688l-.003 16.552c.15 2.07-1.587 3.76-3.816 3.76H3.863C1.794 24 .008 22.318.008 20.312z" transform="translate(2 8)"/><path d="M34.731 6H1.281v2h33.45zM28 11h-2v5h5v-2h-3zM5 14h12v-2H5zm0 3h6v-2H5z" transform="translate(2 8)"/></g></symbol><symbol id="chat-40" viewBox="0 0 40 40"><g fill="none" fill-rule="evenodd"><path d="M0 0h40v40H0z"/><path d="M17.133 26.188l-4.191-5.148H11.02C5.486 21.04 1 16.554 1 11.02S5.486 1 11.02 1h11.96C28.514 1 33 5.486 33 11.02s-4.486 10.02-10.02 10.02h-1.447v2h1.447c6.638 0 12.02-5.382 12.02-12.02S29.618-1 22.98-1H11.02C4.382-1-1 4.382-1 11.02s5.382 12.02 12.02 12.02h.971l7.142 8.772V20.88h-2v5.308z" transform="translate(3 6)" fill="currentColor" fill-rule="nonzero"/></g></symbol><symbol id="check-40" viewBox="0 0 40 40"><path d="M28.49.8L10.481 18.768l-8.557-8.615L.5 11.557l9.967 10.045L29.899 2.218z" transform="translate(6 8)" fill="currentColor" fill-rule="evenodd"/></symbol><symbol id="circle-40" viewBox="0 0 40 40"><path d="M18 36C8.059 36 0 27.941 0 18S8.059 0 18 0s18 8.059 18 18-8.059 18-18 18zm0-2c8.837 0 16-7.163 16-16S26.837 2 18 2 2 9.163 2 18s7.163 16 16 16z" transform="translate(2 2)" fill="currentColor" fill-rule="nonzero"/></symbol><symbol id="circlediagram-40" viewBox="0 0 40 40"><g fill="currentColor" fill-rule="nonzero"><path d="M16 5C7.163 5 0 12.163 0 21s7.163 16 16 16 16-7.163 16-16h-2c0 7.732-6.268 14-14 14S2 28.732 2 21 8.268 7 16 7V5z" transform="matrix(-1 0 0 1 38 1)"/><path d="M36 16.97l.03 1.03H19V.964L20.036 1C28.746 1.31 35.74 8.3 36 16.97zM21 3.073V16h12.933C33.245 9.21 27.83 3.798 21 3.073z" transform="matrix(-1 0 0 1 38 1)"/><path d="M17 5h-2v17h17v-2H17z" transform="matrix(-1 0 0 1 38 1)"/></g></symbol><symbol id="clipboard-40" viewBox="0 0 40 40"><g fill="currentColor" fill-rule="nonzero"><path d="M19.055 6h4.258C24.2 6 25 6.8 25 7.688v23.624C25 32.2 24.2 33 23.313 33H4.659c-.943 0-1.713-.777-1.656-1.62l.003-23.692C2.944 6.74 3.658 6 4.659 6h4.333V4H4.659C2.516 4 .87 5.704 1.01 7.756l-.003 23.556C.87 33.27 2.584 35 4.659 35h18.654C25.305 35 27 33.304 27 31.312V7.688C27 5.696 25.305 4 23.313 4h-4.258v2z" transform="translate(6 2)"/><path d="M13 2v3h-3v2h8V5h-3V2h-2zm-2-2h6v3h3v6H8V3h3V0zM2 13h25v-2H2zm5 6h14v-2H7zm0 4h14v-2H7zm0 4h9v-2H7z" transform="translate(6 2)"/></g></symbol><symbol id="clock-40" viewBox="0 0 40 40"><g fill="none" fill-rule="evenodd"><path d="M0 0h40v40H0z"/><path d="M18 0c9.941 0 18 8.059 18 18s-8.059 18-18 18S0 27.941 0 18 8.059 0 18 0zm0 2C9.163 2 2 9.163 2 18s7.163 16 16 16 16-7.163 16-16S26.837 2 18 2zm1 7v9.052l6.734 7.268-1.468 1.36L17 18.836V9h2z" transform="translate(2 2)" fill="currentColor" fill-rule="nonzero"/></g></symbol><symbol id="coins-40" viewBox="0 0 40 40"><g fill="none" fill-rule="evenodd"><path d="M0 0h40v40H0z"/><path d="M19 30v2H2v-2h17zm7.5-17a9.5 9.5 0 110 19 9.5 9.5 0 010-19zm0 2a7.5 7.5 0 100 15 7.5 7.5 0 000-15zM15.846 27v2H2v-2h13.846zM33 23a6 6 0 01-6 6v-2a4 4 0 004-4h2zm-18 1v2H2v-2h13zm0-3v2H2v-2h13zm.846-3v2H2v-2h13.846zM17 15v2H2v-2h15zm2-3v2H2v-2h17zm2-3v2H4V9h17zm0-3v2H4V6h17zm-4-3v2H0V3h17zm0-3v2H0V0h17z" transform="translate(2 6)" fill="currentColor" fill-rule="nonzero"/></g></symbol><symbol id="common-camera-40" viewBox="0 0 40 40"><g fill="none" fill-rule="evenodd"><path d="M0 0h40v40H0z"/><g fill="currentColor" fill-rule="nonzero"><path d="M26.987 4.8H32.5A2.5 2.5 0 0135 7.3v20.2a2.5 2.5 0 01-2.5 2.5h-31A2.5 2.5 0 01-1 27.5V7.3a2.5 2.5 0 012.5-2.5h5.513L10.052.136A2.5 2.5 0 0112.146-1h9.708A2.5 2.5 0 0123.948.136L26.987 4.8zM1.5 6.8a.5.5 0 00-.5.5v20.2a.5.5 0 00.5.5h31a.5.5 0 00.5-.5V7.3a.5.5 0 00-.5-.5h-6.598l-3.63-5.573A.5.5 0 0021.855 1h-9.708a.5.5 0 00-.419.227L8.097 6.8H1.5z" transform="translate(3 6)"/><path d="M26 16a9 9 0 10-18 0 9 9 0 0018 0zm-16 0a7 7 0 1114 0 7 7 0 01-14 0z" transform="translate(3 6)"/></g></g></symbol><symbol id="computer-40" viewBox="0 0 40 40"><g fill="currentColor" fill-rule="nonzero"><path d="M0 19V0h28v19H0zm26-2V2H2v15h24zM7 25h14v-2H7z" transform="translate(2 3)"/><path d="M11 18.342V23h2v-4.658zm4 0V23h2v-4.658zM10.788 3.803l-6.495 6.49 1.414 1.414 6.495-6.49zm-4.363-1L3.403 5.824l1.415 1.414 3.02-3.02zM28 31v-2c0-2.204 1.793-4 4-4s4 1.796 4 4v2c0 2.204-1.793 4-4 4s-4-1.795-4-4zm2 0c0 1.1.898 2 2 2 1.102 0 2-.9 2-2v-2c0-1.1-.898-2-2-2-1.102 0-2 .9-2 2v2z" transform="translate(2 3)"/><path d="M31 28v2h2v-2zm-9-9.583v.231C22 21.07 23.961 23 26.39 23h2.23A2.38 2.38 0 0131 25.39h2A4.38 4.38 0 0028.62 21h-2.23C25.059 21 24 19.958 24 18.648v-.231h-2z" transform="translate(2 3)"/></g></symbol><symbol id="contract-40" viewBox="0 0 40 40"><g fill="none" fill-rule="evenodd"><path d="M0 0h40v40H0z"/><path d="M27 0v8h-2V2H2v32h23v-5h2v7H0V0h27zM9.524 23.492c1.562.886 1.6 2.326.822 4.339-.078.2-.159.398-.274.67-.352.836-.483 1.16-.546 1.41.203-.15.538-.492 1.024-1.116.084-.11.133-.172.316-.413 1.373-1.796 2.012-2.403 3.192-2.403 1.411 0 1.792.783 2.047 2.481l.004.028c.061.408.101.618.147.75H21v2h-4.873c-1.387 0-1.741-.753-1.996-2.453l-.004-.028c-.062-.413-.105-.628-.154-.763-.26.085-.707.541-1.517 1.602l-.328.427c-1.256 1.614-2.107 2.276-3.386 1.892-1.012-.305-1.395-1.153-1.226-2.16.09-.526.189-.788.713-2.03.108-.257.183-.438.251-.615.459-1.186.446-1.658.057-1.879-1.181-.67-2.008.366-2.546 4.315l-1.982-.27c.7-5.13 2.56-7.46 5.515-5.784zM30.599 7.574l5.8 6.013L23.097 27H17.04l-.042-5.85L30.599 7.574zm-2.811 5.629l-8.785 8.77.022 3.027h3.24l8.623-8.697-3.1-3.1zM14 13v2H5v-2h9zm16.571-2.574l-1.366 1.364 3.092 3.092 1.304-1.314-3.03-3.142zM20 9v2H5V9h15zm0-4v2H5V5h15z" transform="translate(2 2)" fill="currentColor" fill-rule="nonzero"/></g></symbol><symbol id="cross-40" viewBox="0 0 40 40"><path d="M20.546 0l-9.54 9.541L1.465 0 .011 1.454l9.542 9.542L0 20.549l1.454 1.454 9.552-9.553 9.54 9.542L22 20.538l-9.541-9.542L22 1.454z" transform="translate(9 9)" fill="currentColor" fill-rule="evenodd"/></symbol><symbol id="cup-40" viewBox="0 0 40 40"><g fill="currentColor" fill-rule="nonzero"><path d="M7.694 2v11c0 4.937 4.049 9 9 9 4.952 0 9-4.063 9-9V2h-18zm20 11c0 6.04-4.941 11-11 11-6.057 0-11-4.96-11-11V0h22v13z" transform="translate(3.306 3)"/><path d="M6.288 5h9.906V3H6.288zm11.406 18v5.222a5.775 5.775 0 005.776 5.775v-2a3.775 3.775 0 01-3.776-3.775V23h-2zM15.7 23v5.222a5.775 5.775 0 01-5.776 5.775v-2a3.775 3.775 0 003.776-3.775V23h2z" transform="translate(3.306 3)"/><path d="M6.694 34h20v-2h-20zM27.1 5c2.288 0 4.132 1.797 4.132 4 0 2.203-1.844 4-4.132 4v2c3.38 0 6.132-2.68 6.132-6S30.48 3 27.1 3v2zM6.288 3C2.908 3 .158 5.68.158 9s2.75 6 6.13 6v-2c-2.287 0-4.13-1.797-4.13-4 0-2.203 1.843-4 4.13-4V3z" transform="translate(3.306 3)"/></g></symbol><symbol id="damage-40" viewBox="0 0 40 40"><g fill="currentColor" fill-rule="nonzero"><path d="M15 33v2H6v-2h9zM1 33h3v2h-5V-1h30v36H17v-2h10V1H1v32z" transform="translate(6 3)"/><path d="M13.45 7.25l1.476 2.893h5.15v4.915l7.307 5.729 1.234-1.574-6.54-5.128V8.143H16.15l-1.294-2.537L11 4.346V1H9v4.797zm2.089 14.148l-1.46 4.598L20 29.104V33h2v-5.104l-5.508-2.892 1.398-4.402-5.336-3.735L9.802 18H1v2h9.198l2.105-.867 3.236 2.265z" transform="translate(6 3)"/></g></symbol><symbol id="digital-services-40" viewBox="0 0 40 40"><g fill="none" fill-rule="evenodd"><path d="M0 0h40v40H0z"/><path d="M31 16h-5c-.764 0-1 .254-1 1.154v9.692c0 .9.236 1.154 1 1.154h5c.764 0 1-.254 1-1.154v-9.692c0-.9-.236-1.154-1-1.154zm-17 6H4.111c-2.544 0-4.02-1.383-4.107-3.843L0 17.923V4.077C0 1.55 1.398.09 3.876.004L4.11 0h21.78c2.544 0 4.02 1.383 4.107 3.843l.004.234V14h1c1.835 0 2.92 1.099 2.996 2.946l.004.208v9.692C34 28.818 32.903 30 31 30h-5c-1.903 0-3-1.182-3-3.154V22h-7v4h4v2H10v-2h4v-4zm14.5 2a1.5 1.5 0 110 3 1.5 1.5 0 010-3zM25.889 2H4.11c-1.463 0-2.063.535-2.108 1.902L2 4.077v13.846c0 1.437.54 2.03 1.933 2.074L4.11 20H23v-2.846c0-1.902 1.02-3.069 2.8-3.15L26 14h2V4.077c0-1.437-.54-2.03-1.933-2.074L25.89 2z" transform="translate(3 5)" fill="currentColor" fill-rule="nonzero"/></g></symbol><symbol id="document-40" viewBox="0 0 40 40"><g fill="none" fill-rule="evenodd"><path d="M0 0h40v40H0z"/><path d="M18.77 0L27 8.09V36H0V0h18.77zM2 2v32h23l-.001-24H17V2H2zm17 16v2H5v-2h14zm0-5v2H5v-2h14zm-6-5v2H5V8h8zm11.055 0L19 3.031V8h5.055z" transform="translate(7 2)" fill="currentColor" fill-rule="nonzero"/></g></symbol><symbol id="dog-40" viewBox="0 0 40 40"><g fill="none" fill-rule="evenodd"><path d="M0 0h40v40H0z"/><g fill="currentColor" fill-rule="nonzero"><path d="M6 14v14h2V14z" transform="translate(5 3)"/><path d="M3 33v-3a1 1 0 011-1h6v-2H4a3 3 0 00-3 3v5h22.346l.228-.684C24.522 31.473 25 29.08 25 27.125c0-5.361-2.646-10.73-7.873-16.096l-1.433 1.396c4.892 5.022 7.306 9.92 7.306 14.7 0 1.562-.365 3.524-1.102 5.875H3z" transform="translate(5 3)"/><path d="M24 28c5.238 0 8-2.155 8-7h-2c0 3.617-1.773 5-6 5v2zm-4.42-7.123A4.674 4.674 0 0016.858 20C14.16 20 12 22.302 12 25.11c0 2.187 1.32 4.12 3.266 4.83l.685-1.88C14.803 27.642 14 26.465 14 25.11c0-1.73 1.294-3.11 2.858-3.11.563 0 1.1.176 1.562.506l1.16-1.63zM6.568 4l.29-.488c1.358-2.276 3.608-2.999 7.018-2.15 2.216.551 3.61 1.875 4.401 3.793.543 1.319.723 2.647.723 4.001C19 10.345 18.451 11 17.143 11c-1.378 0-1.857-.764-1.857-3.265h-2c0 3.467 1.13 5.265 3.857 5.265C19.642 13 21 11.379 21 9.156c0-1.592-.211-3.155-.874-4.763-1.02-2.477-2.898-4.258-5.767-4.972C10.38-1.569 7.336-.715 5.455 2H-1v4.196c0 4.7 5.145 7.701 9.666 5.546l-.861-1.806C4.579 11.475 1 9.387 1 6.196V4h5.568z" transform="translate(5 3)"/></g></g></symbol><symbol id="e-invoice-40" viewBox="0 0 40 40"><g fill="none" fill-rule="evenodd"><path d="M0 0h40v40H0z"/><path d="M34 0v34.592l-9.629-4.638L17 34.151l-7.372-4.197L0 34.592V0h34zm-2 2H2v29.409l7.705-3.711L17 31.849l7.295-4.151L32 31.409V2zm-6 20v2h-6v-2h6zm0-4v2H8v-2h18zM16.924 5c2.74 0 3.87 2.114 3.278 5.232h-4.82c.126 1.254.825 1.791 1.954 1.791.842 0 1.791-.25 2.544-.573l.25 1.774c-.877.483-1.88.77-2.884.77-2.454 0-4.246-1.72-4.246-4.604C13 6.38 15.007 5 16.924 5zm.018 1.81c-.896 0-1.541.734-1.577 1.88h2.92c.072-1.164-.376-1.88-1.343-1.88z" transform="translate(3 3)" fill="currentColor" fill-rule="nonzero"/></g></symbol><symbol id="envelope-40" viewBox="0 0 40 40"><g fill="none" fill-rule="evenodd"><path d="M0 0h40v40H0z"/><g fill="currentColor" fill-rule="nonzero"><path d="M0 0h36v26H0V0zm2 2v22h32V2H2z" transform="translate(2 7)"/><path d="M18 13.705L1.636.228.364 1.772 18 16.295 35.636 1.772 34.364.228zm17.669 10.552l-10-9-1.338 1.486 10 9zm-34 1.486l10-9-1.338-1.486-10 9z" transform="translate(2 7)"/></g></g></symbol><symbol id="facebook-40" viewBox="0 0 40 40"><g fill="currentColor" fill-rule="evenodd"><path d="M2 2v30h30V2H2zM0 0h34v34H0V0z" fill-rule="nonzero" transform="translate(3 3)"/><path d="M15.012 24.984V16.97H13v-2.91h2.012v-2.146c0-2.49 1.521-3.846 3.743-3.846 1.063 0 1.978.079 2.245.114v2.603h-1.54c-1.21 0-1.443.575-1.443 1.417v1.858h2.881l-.375 2.91h-2.506v8.015h-3.005z" transform="translate(3 3)"/></g></symbol><symbol id="family-40" viewBox="0 0 40 40"><g fill="none" fill-rule="evenodd"><path d="M0 0h40v40H0z"/><g fill="currentColor" fill-rule="nonzero"><path d="M20.942 8.815c0 4.314-3.528 7.815-7.884 7.815-4.357 0-7.885-3.501-7.885-7.815S8.701 1 13.058 1a7.892 7.892 0 015.987 2.73l1.513-1.309A9.892 9.892 0 0013.058-1C7.6-1 3.173 3.392 3.173 8.815c0 5.422 4.427 9.815 9.885 9.815 5.457 0 9.884-4.393 9.884-9.815 0-.631-.06-1.255-.178-1.866l-.157-.81h-7.749c-1.307 0-2.788-1.073-3.523-2.597l-1.801.869c1.049 2.174 3.192 3.728 5.324 3.728h6.055c.02.224.03.45.03.676zm8.428 16.39C31.585 25.948 33 27.77 33 30v4h2v-4c0-3.12-1.991-5.684-4.993-6.691l-.636 1.896zM17 34v-4c0-2.155 1.557-4.02 3.856-4.794l-.638-1.895C17.154 24.34 15 26.922 15 30v4h2z" transform="translate(3 4)"/><path d="M25.115 27.444c3.705 0 6.712-2.983 6.712-6.666 0-3.684-3.007-6.667-6.712-6.667-3.705 0-6.711 2.983-6.711 6.667 0 3.683 3.006 6.666 6.711 6.666zm0-2c-2.603 0-4.711-2.09-4.711-4.666 0-2.576 2.108-4.667 4.711-4.667 2.604 0 4.712 2.091 4.712 4.667 0 2.575-2.108 4.666-4.712 4.666zM1 34V22c0-2.296 1.744-4.33 5.432-6.098l-.864-1.804C1.256 16.165-1 18.798-1 22v12h2z" transform="translate(3 4)"/></g></g></symbol><symbol id="farm-40" viewBox="0 0 40 40"><g fill="none" fill-rule="evenodd"><path d="M0 0h40v40H0z"/><path d="M22 .677l15.655 13.567-1.31 1.512L35 14.588V32h2v2H1v-2h3.999v-2.806a5.51 5.51 0 01-2.62-1.22l-.207-.184a5.478 5.478 0 01-1.747-4.015c0-3.039 2.472-5.5 5.52-5.5A5.52 5.52 0 019 19.193v-4.604l-1.344 1.167-1.31-1.512L22 .677zM9 28.357a5.51 5.51 0 01-2 .817L6.999 32h2zM22 3.323l-11.001 9.534L11 32h3.999L15 20h14l-.001 12H33l-.001-15H13v-2h19.999v-2.145L22 3.322zm2.499 26.279L23.5 32h1.999l-1-2.4zm-5 0L18.5 32h1.999l-1-2.4zm-2.5-6.002v6.8l1.417-3.4-1.417-3.4zm5.001 0L20.583 27l1.416 3.399 1.417-3.4L22 23.6zm4.999.003L25.583 27l1.416 3.398v-6.795zM5.945 20.275c-1.945 0-3.52 1.568-3.52 3.5 0 .98.406 1.894 1.111 2.552a3.537 3.537 0 005.141-.344L9 25.62v-3.366l-.443-.823-.082-.089a3.513 3.513 0 00-2.307-1.06zM25.5 22h-2l.999 2.399 1-2.4zm-5 0h-2l.999 2.399 1-2.4zM22 7a5 5 0 015 5v1H17v-1a5 5 0 015-5zm0 2c-1.302 0-2.41.83-2.825 1.988L19.17 11h5.659l-.076-.193a3.002 3.002 0 00-2.577-1.802z" transform="translate(1 2)" fill="currentColor" fill-rule="nonzero"/></g></symbol><symbol id="fund-assortment-40" viewBox="0 0 40 40"><g fill="none" fill-rule="evenodd"><path d="M0 0h40v40H0z"/><path d="M2 0v34h34v2H0V0h2zm21.907 21.928l10.38 3.114-.574 1.916-9.62-2.887-10 5-10.38-3.113.574-1.916 9.619 2.886 10.001-5zm9.386-18.635l1.414 1.414L24.285 15.13l-10.149-3.045-9.622 5.773-1.028-1.714 10.378-6.228 9.85 2.955 9.579-9.577z" transform="translate(2 2)" fill="currentColor" fill-rule="nonzero"/></g></symbol><symbol id="gear-40" viewBox="0 0 40 40"><g fill="none" fill-rule="evenodd"><path d="M0 0h40v40H0z"/><path d="M23.59 0l6.82 3.925-2.384 4.116.137.146.135.148.133.15.13.152.128.154.126.156.124.157.122.16.119.16.117.164.115.165.112.166.11.168.107.17.105.172.103.173.1.175.098.176.095.178.092.18.09.18.088.183.085.184.082.185.08.187.076.188.074.19.071.19.069.193.065.193.063.195.06.196H36v7.85h-4.762l-.06.196-.064.195-.065.193-.069.193-.07.19-.075.19-.077.188-.08.187-.081.185-.085.184-.088.183-.09.18-.092.18-.095.178-.098.176-.1.175-.103.173-.105.172-.107.17-.11.168-.112.166-.115.165-.117.163-.12.161-.12.16-.125.157-.126.156-.128.154-.13.152-.133.15-.135.148-.137.146 2.384 4.116L23.59 35l-2.382-4.11-.193.043-.195.042-.195.04-.197.036-.197.033-.2.03-.198.029-.2.025-.202.022-.202.02-.203.016-.203.013-.205.01-.205.008-.206.005-.207.001-.207-.001-.206-.005-.205-.007-.205-.01-.203-.014-.203-.017-.202-.019-.201-.022-.2-.025-.2-.028-.199-.03-.197-.034-.197-.036-.195-.04-.195-.042-.193-.044L12.41 35l-6.82-3.925 2.384-4.116-.137-.146-.135-.148-.133-.15-.13-.152-.128-.154-.126-.156-.124-.157-.122-.16-.119-.16-.117-.164-.115-.165-.112-.166-.11-.168-.107-.17-.105-.172-.103-.173-.1-.175-.098-.176-.095-.178-.092-.18-.09-.18-.088-.183-.085-.184-.082-.185-.08-.187-.076-.188-.074-.19-.071-.19-.069-.193-.065-.193-.063-.195-.06-.196H0v-7.85h4.762l.06-.196.064-.195.065-.193.069-.193.07-.19.075-.19.077-.188.08-.187.081-.185.085-.184.088-.183.09-.18.092-.18.095-.178.098-.176.1-.175.103-.173.105-.172.107-.17.11-.168.112-.166.115-.165.117-.163.12-.161.12-.16.125-.157.126-.156.128-.154.13-.152.133-.15.135-.148.137-.146L5.59 3.925 12.41 0l2.382 4.11.193-.043.195-.042.195-.04.197-.036.197-.033.2-.03.198-.029.2-.025.202-.022.202-.02.203-.016.203-.013.205-.01.205-.008.206-.005.207-.001.207.001.206.005.205.007.205.01.203.014.203.017.202.019.201.022.2.025.2.028.199.03.197.034.197.036.195.04.195.042.193.044L23.59 0zm.773 2.891l-2.105 3.635-1.52-.347-.168-.038-.166-.036-.164-.034-.165-.03-.165-.029-.173-.026-.167-.024-.169-.021-.17-.02-.176-.016-.166-.014-.173-.012-.18-.009-.169-.007-.175-.004-.177-.001h-.176l-.17.004-.18.007-.174.009-.168.01-.176.015-.171.016-.17.018-.168.02-.173.025-.166.025-.166.028-.165.03-.168.034-.168.036-1.714.39-2.105-3.634-3.148 1.812 2.108 3.64-1.08 1.151-.115.122-.113.123-.113.128-.111.13-.11.13-.105.13-.108.137-.1.13-.104.14-.097.136-.098.14-.096.142-.093.143-.09.141-.088.143-.089.15-.084.146-.083.15-.08.147-.08.157-.075.15-.074.155-.072.154-.07.156-.066.157-.067.163-.061.155-.061.163-.057.16-.057.168-.053.162-.52 1.694h-4.21v3.608h4.21l.46 1.498.05.164.054.168.054.162.059.164.058.156.064.165.064.158.067.157.069.157.072.156.072.151.079.159.076.148.08.152.082.147.086.151.086.145.087.144.091.144.094.143.096.143.094.136.103.143.096.131.106.139.103.132.108.133.109.131.11.13.111.125.112.124 1.218 1.297-2.108 3.64 3.148 1.812 2.105-3.635 1.52.347.168.038.166.036.164.034.165.03.165.029.173.026.167.024.169.021.17.02.176.016.166.014.173.012.18.009.169.007.175.004.177.001h.176l.17-.004.18-.007.174-.009.168-.01.176-.015.171-.016.17-.018.168-.02.173-.025.166-.025.166-.028.165-.03.168-.034.168-.036 1.714-.39 2.105 3.634 3.148-1.812-2.108-3.64 1.08-1.151.115-.122.113-.123.113-.128.111-.13.11-.13.105-.13.108-.137.1-.13.104-.14.097-.136.098-.14.096-.142.093-.143.09-.141.088-.143.089-.15.084-.146.083-.15.08-.147.08-.157.075-.15.074-.155.072-.154.07-.156.066-.157.067-.163.061-.155.061-.163.057-.16.057-.168.053-.162.52-1.694h4.21v-3.608h-4.21l-.46-1.498-.05-.164-.054-.168-.054-.162-.059-.164-.058-.156-.064-.165-.064-.158-.067-.157-.069-.157-.072-.156-.072-.151-.079-.159-.076-.148-.08-.152-.082-.147-.086-.151-.086-.145-.087-.144-.091-.144-.094-.143-.096-.143-.094-.136-.103-.143-.096-.131-.106-.139-.103-.132-.108-.133-.109-.131-.11-.13-.111-.125-.112-.124-1.218-1.297 2.108-3.64-3.148-1.812zM18 11a6 6 0 110 12 6 6 0 010-12zm0 2a4 4 0 100 8 4 4 0 000-8z" transform="translate(2 3)" fill="currentColor" fill-rule="nonzero"/></g></symbol><symbol id="glasses-40" viewBox="0 0 40 40"><g fill="none" fill-rule="evenodd"><path d="M0 0h40v40H0z"/><g fill="currentColor" fill-rule="nonzero"><path d="M15 16.5a7.5 7.5 0 11-15 0 7.5 7.5 0 0115-.002zm-2 0a5.5 5.5 0 10-11 .002 5.5 5.5 0 0011-.003zm21 0a7.5 7.5 0 11-15 .001 7.5 7.5 0 0115-.002zm-2 0a5.5 5.5 0 10-11 .002 5.5 5.5 0 0011-.003z" transform="translate(3 7)"/><path d="M14.508 15.083a4.9 4.9 0 012.493-.662c.907 0 1.767.234 2.49.661a1 1 0 001.018-1.721A6.888 6.888 0 0017 12.42a6.9 6.9 0 00-3.509.94 1 1 0 001.016 1.722zm16.817-11.57c.263 1.261.53 2.89.794 4.798a214.02 214.02 0 01.905 7.783l1.99-.188c-.011-.124-.034-.355-.066-.678-.054-.538-.116-1.137-.187-1.782-.2-1.843-.423-3.686-.661-5.409-.632-4.564-1.205-7.309-1.936-8.185a1.427 1.427 0 00-.467-.377c-.617-.304-1.44-.44-2.453-.47-.663-.018-1.364.01-2.053.07-.325.027-.576.056-.723.075l.264 1.983c.118-.016.338-.04.63-.066a16.18 16.18 0 011.823-.062c.65.019 1.173.093 1.494.208.15.287.4 1.123.646 2.3zM4.835 1.005a16.18 16.18 0 011.822.062c.292.025.512.05.63.066L7.551-.85a16.61 16.61 0 00-.723-.076 18.104 18.104 0 00-2.051-.068c-1.014.03-1.836.165-2.453.468a1.434 1.434 0 00-.477.39C1.122.746.55 3.492-.08 8.036a190.192 190.192 0 00-.662 5.41 216.03 216.03 0 00-.254 2.46l1.992.187c.01-.12.033-.348.065-.666a194.538 194.538 0 01.84-7.117c.515-3.722 1.074-6.458 1.438-7.097.32-.115.844-.19 1.496-.209zm4.458 12.288l-5 5 1.414 1.414 5-5zm-4.586 3.414l3-3-1.414-1.414-3 3zm23.586-3.414l-5 5 1.414 1.414 5-5zm-4.586 3.414l3-3-1.414-1.414-3 3z" transform="translate(3 7)"/></g></g></symbol><symbol id="gravestones-40" viewBox="0 0 40 40"><g fill="none" fill-rule="evenodd"><path d="M0 0h40v40H0z"/><path d="M25.655.92l.376.162C32.601 3.928 36 7.608 36 12.142V24h-7v13H9l-.001-8H0V16c0-4.469 3.267-8.103 9.582-10.914l.407-.18.407.18c5.264 2.343 8.75 5.415 9.467 8.208 5.075 2.342 8.085 5.242 8.906 8.706H34v-9.858c0-3.503-2.725-6.528-8.386-9.058-3.118 1.271-5.505 3.105-6.823 4.81L17.21 6.671c1.591-2.06 4.415-4.196 8.065-5.604l.381-.147zM19 15.097c-5.401 2.487-8 5.458-8 8.903v11h16V24c0-3.445-2.599-6.416-8-8.903zm-9.011-8C4.595 9.585 2 12.555 2 16v11h6.999L9 24c0-4.284 3.005-7.8 8.821-10.56-.708-1.904-3.51-4.348-7.832-6.342z" transform="translate(2 1)" fill="currentColor" fill-rule="nonzero"/></g></symbol><symbol id="growth-arrow-40" viewBox="0 0 40 40"><g fill="none" fill-rule="evenodd"><path d="M0 0h40v40H0z"/><path d="M36.999 0L37 10h-2l-.001-6.636-14.217 13.799-6.6-6.231L1.685 22.727.314 21.273 14.18 8.18l6.581 6.213L33.534 2H27V0h9.999z" transform="translate(1 8)" fill="currentColor" fill-rule="nonzero"/></g></symbol><symbol id="guide-40" viewBox="0 0 40 40"><g fill="none" fill-rule="evenodd"><path d="M0 0h40v40H0z"/><path d="M11 36h12v-2H11zm7-2V0h-2v34zM1.44 12.467l2.49-2.4H16v-2H3.122l-4.563 4.4 4.563 4.4H14v-2H3.93zm28.63-6.934l2.49 2.4-2.49 2.4H20v2h10.878l4.563-4.4-4.563-4.4H18v2z" transform="translate(3 2)" fill="currentColor" fill-rule="nonzero"/></g></symbol><symbol id="heart-40" viewBox="0 0 40 40"><path d="M29.893 14.402c2.81-2.81 2.81-7.485 0-10.295-2.81-2.81-7.486-2.81-10.295 0L17 6.705l-2.598-2.598c-2.81-2.81-7.485-2.81-10.295 0-2.81 2.81-2.81 7.486 0 10.295L17 27.295l12.893-12.893zm-11.71-11.71c3.591-3.59 9.534-3.59 13.124 0 3.59 3.591 3.59 9.534 0 13.124L17 30.123 2.693 15.816c-3.59-3.59-3.59-9.533 0-13.123s9.533-3.59 13.123 0L17 3.877l1.184-1.184z" transform="translate(3 5)" fill="currentColor" fill-rule="nonzero"/></symbol><symbol id="heartbeat-40" viewBox="0 0 40 40"><g fill="none" fill-rule="evenodd"><path d="M0 0h40v40H0z"/><path d="M28.017 15.124l5.941 9.626H37v2h-4.158l-4.86-7.874L18.905 33l-3.627-7.051-2.95 4.302H1v-2h10.273l4.25-6.198 3.573 6.949 8.921-13.877zM19.374 1.607a5.357 5.357 0 010 7.717L11 17.388 2.626 9.324a5.357 5.357 0 010-7.717 5.698 5.698 0 017.904 0l.47.452.47-.452a5.698 5.698 0 017.904 0zm-6.517 1.44L11 4.837 9.143 3.048a3.698 3.698 0 00-5.22.089 3.357 3.357 0 00.09 4.746L11 14.612l6.987-6.729a3.357 3.357 0 000-4.835 3.698 3.698 0 00-5.13 0z" transform="translate(1 4)" fill="currentColor" fill-rule="nonzero"/></g></symbol><symbol id="house-40" viewBox="0 0 40 40"><g fill="none" fill-rule="evenodd"><path d="M0 0h40v40H0z"/><g fill="currentColor" fill-rule="nonzero"><path d="M4 35V12H2v23zm28-23v23h2V12zM20 22h8v11h2V20H18v13h2zm3.36-10.232l1.28-1.536L18 4.698l-6.64 5.534 1.28 1.536L18 7.302z" transform="translate(2 3)"/><path d="M18 1.302l17.36 14.466 1.28-1.536L18-1.302-.64 14.232l1.28 1.536zM16 35h20v-2H16zM0 35h11v-2H0zm16-15v9H7v-9h9zm-7 2v5h5v-5H9z" transform="translate(2 3)"/></g></g></symbol><symbol id="house-sun-40" viewBox="0 0 40 40"><g fill="none" fill-rule="evenodd"><path d="M0 0h40v40H0z"/><g fill="currentColor" fill-rule="nonzero"><path d="M24 0c0 6.075 4.925 11 11 11V9a9 9 0 01-9-9h-2zm-2 0h-5v2h5zm11 13v5h2v-5zM4 36V23H2v13zm20-13v13h2V23zm-12 6h4v7h2v-9h-8v9h2z" transform="translate(3 2)"/><path d="M27.382 25.786l1.236-1.572L14 12.728-.618 24.214l1.236 1.572L14 15.272zM24.293 9.293l-4 4 1.414 1.414 4-4z" transform="translate(3 2)"/></g></g></symbol><symbol id="id-sign-40" viewBox="0 0 40 40"><g fill="currentColor" fill-rule="evenodd"><path d="M20 29v1.681c0 .691-.624 1.32-1.308 1.32H3.308A1.31 1.31 0 012 30.68V3.318C2 2.628 2.625 2 3.308 2h15.384C19.375 2 20 2.627 20 3.318V19h2V3.318C22 1.525 20.482 0 18.692 0H3.308C1.518 0 0 1.525 0 3.318v27.363a3.31 3.31 0 003.308 3.32h15.384C20.483 34 22 32.473 22 30.68V29h-2z" transform="translate(9 3)"/><path d="M15.598 17.553C14.592 17.83 13.088 18 11 18c-2.089 0-3.592-.17-4.598-.447a7.346 7.346 0 01-.308-.09c.021-.117.046-.243.074-.378.169-.803.412-1.605.738-2.345.614-1.39 1.442-2.374 2.487-2.82l-.786-1.84c-1.583.677-2.73 2.04-3.53 3.853a13.83 13.83 0 00-.866 2.741c-.118.56-.181 1.001-.207 1.268l-.046.49.36.335c.256.24.749.494 1.556.715C7.066 19.81 8.744 20 11 20c2.256 0 3.934-.19 5.126-.518.807-.22 1.3-.476 1.556-.715l.36-.335-.046-.49a12.073 12.073 0 00-.207-1.268 13.874 13.874 0 00-.865-2.741c-.8-1.813-1.948-3.176-3.53-3.852l-.787 1.838c1.045.447 1.873 1.43 2.487 2.821.326.74.57 1.542.738 2.345.028.135.053.261.074.377-.087.028-.19.059-.308.091z" fill-rule="nonzero" transform="translate(9 3)"/><path d="M11 13a4 4 0 110-8 4 4 0 010 8zm0-2a2 2 0 100-4 2 2 0 000 4z" fill-rule="nonzero" transform="translate(9 3)"/><path d="M26.49 16.8l-10.009 9.968-4.557-4.615-1.424 1.404 5.967 6.045 11.432-11.384z" transform="translate(9 3)"/></g></symbol><symbol id="letter-40" viewBox="0 0 40 40"><g fill="currentColor" fill-rule="nonzero"><path d="M2 26h32V2H2v24zM36 0v28H0V0h36z" transform="translate(2 6)"/><path d="M1.682.688L.318 2.15l17.737 16.54 17.63-16.54-1.37-1.46-16.263 15.26zM35.646 25.94l-9.915-10.622-1.462 1.364 9.915 10.622zM11.293 15.293l-10 10 1.414 1.414 10-10z" transform="translate(2 6)"/></g></symbol><symbol id="mc-40" viewBox="0 0 40 40"><g fill="none" fill-rule="evenodd"><path d="M0 0h40v40H0z"/><path d="M23.797.396l7.25 9.57h-2.013a6.007 6.007 0 00-3.552 1.156l1.013 1.005a5.994 5.994 0 11-1.407 1.422l-1.006-.998a6.003 6.003 0 00-1.078 3.223L23 16v.494l-3.525 2.695-7.35.08L8.31 15.1l-2.607 2.587-1.408-1.42 2.663-2.643L4.558 11H2V9h3.44l7.556 8.258 5.793-.062 2.227-1.703.018-.238a8.04 8.04 0 016.058-7.053l.093-.022-4.982-6.576L23.797.396zM3.56 11.385l.812 1.828a3.995 3.995 0 105.227 5.375l.096-.22 1.854.75a5.95 5.95 0 01-1.317 1.984 5.994 5.994 0 11-6.954-9.583l.282-.134zM29.994 13c-.75 0-1.45.206-2.05.565l2.214 2.195-1.408 1.42-2.21-2.192A3.994 3.994 0 1029.994 13zM20 13v2h-4v-2h4zM8.236 5l5.979 2.989 6.897-.318c1.278-.13 1.834-.513 1.884-1.516L23 6h2c0 2.259-1.344 3.357-3.513 3.639l-.228.026-7.473.346L7.764 7H1V5h7.236zM22 4v2h-3V4h3z" transform="translate(2 8)" fill="currentColor" fill-rule="nonzero"/></g></symbol><symbol id="mobile-phone-40" viewBox="0 0 40 40"><g fill="none" fill-rule="evenodd"><path d="M0 0h40v40H0z"/><g transform="translate(10 3)" fill="currentColor"><path d="M2-1h16a3 3 0 013 3v30a3 3 0 01-3 3H2a3 3 0 01-3-3V2a3 3 0 013-3zm0 2a1 1 0 00-1 1v30a1 1 0 001 1h16a1 1 0 001-1V2a1 1 0 00-1-1H2z" fill-rule="nonzero"/><circle cx="10" cy="30.5" r="1.5"/><path fill-rule="nonzero" d="M0 28h19v-2H0zM0 5h19V3H0z"/></g></g></symbol><symbol id="mobile-phone-broken-40" viewBox="0 0 40 40"><g fill="none" fill-rule="evenodd"><path d="M0 0h40v40H0z"/><g transform="translate(7 3)" fill="currentColor"><path d="M2-1h16a3 3 0 013 3v30a3 3 0 01-3 3H2a3 3 0 01-3-3V2a3 3 0 013-3zm0 2a1 1 0 00-1 1v30a1 1 0 001 1h16a1 1 0 001-1V2a1 1 0 00-1-1H2z" fill-rule="nonzero"/><circle cx="10.5" cy="30.5" r="1.5"/><path fill-rule="nonzero" d="M1 28h18v-2H1zM8.27 8.086l-3.704 6.2h8.411l-2.184 4.063 8.746 4.539.922-1.776-6.946-3.604 2.808-5.222H8.091l2.953-4.943-7.557-4.216-.974 1.746zm20.283 1.02l-4 2 .894 1.788 4-2zM24.4 21.8l4 3 1.2-1.6-4-3zM31 16h-5v2h5z"/></g></g></symbol><symbol id="moped-40" viewBox="0 0 40 40"><g fill="none" fill-rule="evenodd"><path d="M0 0h40v40H0z"/><path d="M31 13a5 5 0 110 10 5 5 0 010-10zm-29.265.255l1.334 1.49a3.205 3.205 0 104.546 4.505l.124-.152 1.58 1.227a5.205 5.205 0 11-7.773-6.893l.189-.177zM31 15a3 3 0 100 6 3 3 0 000-6zM23.578 0l5.841 10.141c.43-.078.872-.124 1.323-.137L31 10c.732 0 1.687.15 2.886.448l.333.084-.504 1.936C32.509 12.154 31.595 12 31 12c-3.257 0-5.849 2.257-5.97 4.83l-.005.19v3.01H10.604L0 10.111v-6.04l16-.077V5c0 2.94-2.103 5.39-4.923 6.444a5.62 5.62 0 005.383 4.01c3.045 0 5.422-2.26 5.536-5.23L22 10V6h2v4c0 4.193-3.322 7.454-7.54 7.454a7.618 7.618 0 01-7.326-5.528 8.773 8.773 0 01-.886.07L8 12v-2c2.742 0 5.192-1.665 5.836-3.862l.034-.133L2 6.062v3.181l9.393 8.786h11.632v-1.01c0-2.705 1.809-5.11 4.433-6.276l-5.037-8.744L20 2V0h3.578zM8 7v2H3V7h5zm20.868-3.497l1.827 3.189-1.735.994-1.828-3.189 1.736-.994z" transform="translate(2 9)" fill="currentColor" fill-rule="nonzero"/></g></symbol><symbol id="mortgage-40" viewBox="0 0 40 40"><g fill="none" fill-rule="evenodd"><path d="M0 0h40v40H0z"/><path d="M11 20.712l9 7.312V35h-2v-6.024l-7-5.688-7 5.688V35H2v-6.976l9-7.312zM14 30v5h-2v-3h-2v3H8v-5h6zm12-10a4 4 0 110 8 4 4 0 010-8zm0 2a2 2 0 100 4 2 2 0 000-4zM25.117-.49l3.162 14.624-5.285 1.115a5 5 0 01-9.463 1.995L2.883 19.49-.279 4.866 25.117-.49zM18 12a3 3 0 100 6 3 3 0 000-6zm5.583-10.122L2.1 6.408l2.316 10.714 8.593-1.811a5 5 0 019.682-2.043l3.207-.676-2.316-10.714z" transform="translate(5 3)" fill="currentColor" fill-rule="nonzero"/></g></symbol><symbol id="notification-swish-40" viewBox="0 0 40 40"><defs><path d="M10 32.83l.747-.897c5.076 1.392 10.663-.412 14.07-4.472 4.56-5.46 3.778-13.714-1.953-18.287l-1.042-.762L26.56 3l.959.702C31.6 6.862 34 11.657 34 16.922 34 26.395 26.2 34 16.48 34c-2.16 0-4.32-.35-6.48-1.17zm-3.56-2.528C2.342 27.038 0 22.143 0 17.015 0 7.576 7.61 0 17.092 0c2.46 0 4.8.466 6.908 1.514l-.771.847C17.913.715 12.285 2.216 8.83 6.513c-4.448 5.568-3.557 13.54 2.034 18.221l1.017.76L7.258 31l-.818-.698z" id="a"/></defs><g fill="none" fill-rule="evenodd"><path d="M0 0h40v40H0z"/><use fill="currentColor" fill-rule="nonzero" xmlns:xlink="http://www.w3.org/1999/xlink" xlink:href="#a" transform="translate(3 3)"/></g></symbol><symbol id="padlock-40" viewBox="0 0 40 40"><g fill="currentColor" fill-rule="nonzero"><path d="M0 35V15h26v20H0zm24-2V17H2v16h22z" transform="translate(7 2)"/><path d="M23 15.226V9.781C23 4.373 18.518 0 13 0 7.483 0 3 4.373 3 9.78v5.446h2V9.781C5 5.489 8.576 2 13 2c4.424 0 8 3.489 8 7.78v5.446h2z" transform="translate(7 2)"/><path d="M19 15.678v-5.8C19 6.626 16.308 4 13 4S7 6.626 7 9.878v5.8h2v-5.8C9 7.742 10.786 6 13 6c2.215 0 4 1.742 4 3.878v5.8h2zm-3.728 12.347l-1.277-3.86c.526-.315.879-.88.879-1.527 0-.99-.823-1.793-1.838-1.793-1.015 0-1.838.803-1.838 1.793 0 .647.353 1.212.88 1.528l-1.278 3.86h4.472zm-6.074-5.387c0-2.106 1.73-3.793 3.838-3.793 2.109 0 3.838 1.687 3.838 3.793 0 .742-.218 1.445-.603 2.04l1.77 5.347H8.031l1.77-5.347a3.745 3.745 0 01-.603-2.04z" transform="translate(7 2)"/></g></symbol><symbol id="payment-40" viewBox="0 0 40 40"><g fill="none" fill-rule="evenodd"><path d="M0 0h40v40H0z"/><path d="M11.732 26.153a4.5 4.5 0 110 9 4.5 4.5 0 010-9zm23.794-4.708l1.412 1.416-11.834 11.8-5.547-5.08 1.35-1.475 4.138 3.789 10.481-10.45zm-23.794 6.708a2.5 2.5 0 100 5 2.5 2.5 0 000-5zM27.627-.417l2.178 7.477.952.204-3.702 17.628-12.833-3.06a5.502 5.502 0 01-9.812-1.787l-4.697-1.003L3.41 1.438l8.249 1.757L27.627-.417zM4.955 3.813L2.08 17.501l2.194.468a5.501 5.501 0 1110.798 2.008L25.52 22.47l2.87-13.666-16.72-3.56-.283.064-.03-.132-6.402-1.364zm4.777 11.34a3.5 3.5 0 100 7 3.5 3.5 0 000-7zM26.233 1.949l-9.905 2.24 11.256 2.398-1.35-4.638z" transform="translate(1.768 1.847)" fill="currentColor" fill-rule="nonzero"/></g></symbol><symbol id="pension-40" viewBox="0 0 40 40"><g fill="currentColor" fill-rule="nonzero"><path d="M23 7h-3v2h3zm13 0h-3v2h3zm-7-4V0h-2v3zm0 13v-3h-2v3zm3.243-10.828l2.121-2.122-1.414-1.414-2.122 2.121zm-9.193 9.192l2.122-2.121-1.415-1.415-2.121 2.122zm7.778-2.121l2.122 2.121 1.414-1.414-2.121-2.122zM21.636 3.05l2.121 2.122 1.415-1.415-2.122-2.121zM30 8a2 2 0 10-4 0 2 2 0 004 0zm2 0a4 4 0 11-8 0 4 4 0 018 0z" transform="translate(2 2)"/><path d="M14.134 7.912l1.99.207c-.037.351.606 1.285 1.094 1.335l2.525.273c.1.01.252-.123.269-.28l.116-1.111-8.425-5.997-9.482 4.114-.128 1.216c-.014.14.031.199.15.21l2.566.27c.498.052 1.325-.715 1.368-1.07l1.988.224c-.035.34.616 1.265 1.107 1.316l3.492.367c.488.049 1.335-.738 1.37-1.074zm-1.575 3.063l-3.494-.367c-.827-.085-1.586-.618-2.12-1.302-.663.556-1.514.918-2.343.833l-2.566-.27C.806 9.743-.024 8.688.104 7.462l.25-2.379L11.944.054l10.294 7.33-.06.58L22 9.653c-.127 1.222-1.23 2.19-2.468 2.062l-2.524-.273c-.829-.085-1.583-.62-2.113-1.308-.665.559-1.517.924-2.337.84z" transform="rotate(-6 128.881 -13.493)"/><path d="M9.82 10.687l-1.15 10.94 1.99.21 1.15-10.94z" transform="rotate(-6 128.881 -13.493)"/><path d="M35 33c-2.16 0-3.183-.387-5.175-1.646-2.283-1.441-3.638-1.954-6.243-1.954-2.606 0-3.963.512-6.253 1.954-2 1.258-3.027 1.646-5.188 1.646H1v2h11.141c2.606 0 3.963-.512 6.253-1.953 2-1.26 3.027-1.647 5.188-1.647 2.159 0 3.182.387 5.175 1.645C31.04 34.487 32.395 35 35 35v-2z" transform="translate(2 2)"/></g></symbol><symbol id="pension-occupational-40" viewBox="0 0 40 40"><g fill="none" fill-rule="evenodd"><path d="M0 0h40v40H0z"/><path d="M32 23.813l5.119 9H.849l5.151-9h26zm-1.163 2H7.16l-2.861 5H33.68l-2.843-5zM26.37 13.816l5.093 8.98H6.476l5.209-8.98H26.37zM19 0l6.961 12.82H12.137L19 0zm.013 4.214l-3.537 6.606H22.6l-3.587-6.606z" transform="translate(1 3.202)" fill="currentColor" fill-rule="nonzero"/></g></symbol><symbol id="pension-private-40" viewBox="0 0 40 40"><g fill="none" fill-rule="evenodd"><path d="M0 0h40v40H0z"/><path d="M32 23.813l5.119 9H.849l5.151-9h26zm-1.163 2H7.16l-2.861 5H33.68l-2.843-5zM26.37 13.816l5.093 8.98H6.476l5.209-8.98H26.37zm-1.165 2H12.837l-2.888 4.98h18.08l-2.824-4.98zM19 0l6.961 12.82H12.137L19 0z" transform="translate(1 3.197)" fill="currentColor" fill-rule="nonzero"/></g></symbol><symbol id="pension-state-40" viewBox="0 0 40 40"><g fill="none" fill-rule="evenodd"><path d="M0 0h40v40H0z"/><path d="M32 23.813l5.119 9H.849l5.151-9h26zm-5.63-9.996l5.093 8.98H6.476l5.209-8.98H26.37zm-1.165 2H12.837l-2.888 4.98h18.08l-2.824-4.98zM19 0l6.961 12.82H12.137L19 0zm.013 4.214l-3.537 6.606H22.6l-3.587-6.606z" transform="translate(1 3.186)" fill="currentColor" fill-rule="nonzero"/></g></symbol><symbol id="percent-40" viewBox="0 0 40 40"><g fill="none" fill-rule="evenodd"><path d="M0 0h40v40H0z"/><path d="M26.164.45l1.672 1.1-23 35-1.672-1.1 23-35zM24 22a7 7 0 110 14 7 7 0 010-14zm0 2a5 5 0 100 10 5 5 0 000-10zM7 0a7 7 0 110 14A7 7 0 017 0zm0 2a5 5 0 100 10A5 5 0 007 2z" transform="translate(4 2)" fill="currentColor" fill-rule="nonzero"/></g></symbol><symbol id="phone-40" viewBox="0 0 40 40"><g fill="currentColor" fill-rule="evenodd"><path d="M2 3.319C2 2.628 2.625 2 3.308 2h15.384C19.375 2 20 2.628 20 3.319V30.68c0 .691-.624 1.319-1.308 1.319H3.308A1.31 1.31 0 012 30.681V3.32zM3.308 34h15.384C20.482 34 22 32.474 22 30.681V3.32C22 1.525 20.482 0 18.692 0H3.308C1.518 0 0 1.525 0 3.319V30.68A3.31 3.31 0 003.308 34z" fill-rule="nonzero" transform="translate(9 3)"/><path fill-rule="nonzero" d="M20 9V7H2v2zm0 18v-2H2v2z" transform="translate(9 3)"/><path d="M12.5 29.499a1.5 1.5 0 11-3 .001 1.5 1.5 0 013-.001z" transform="translate(9 3)"/></g></symbol><symbol id="pin-40" viewBox="0 0 40 40"><g fill="currentColor" fill-rule="nonzero"><path d="M2 35h24v-2H2z" transform="translate(6 2)"/><path d="M14 0c7.68 0 14 6.192 14 13.737 0 3.622-1.491 7.052-4.097 9.732L14 33.172l-.7-.685-9.22-9.035C1.49 20.789 0 17.359 0 13.737 0 6.192 6.32 0 14 0zm8.486 22.058C24.723 19.756 26 16.82 26 13.738 26 7.305 20.585 2 14 2S2 7.306 2 13.737c0 3.083 1.277 6.02 3.496 8.304L14 30.372l8.486-8.314z" transform="translate(6 2)"/><path d="M14 17.503c-1.972 0-3.5-1.529-3.5-3.502 0-1.973 1.528-3.501 3.5-3.501s3.5 1.528 3.5 3.501h2c0-3.077-2.423-5.501-5.5-5.501s-5.5 2.424-5.5 5.501c0 3.078 2.423 5.502 5.5 5.502v-2z" transform="translate(6 2)"/></g></symbol><symbol id="pregnant-40" viewBox="0 0 40 40"><g fill="none" fill-rule="evenodd"><path d="M0 0h40v40H0z"/><path d="M12.032 0c1.63 0 3.177.55 4.424 1.538l.23.19-1.306 1.515a5.13 5.13 0 101.66 2.762l-.03-.117h-3.563c-1.513 0-2.645-.366-3.418-1.018l-.15-.135c-.469-.446-.711-.919-.804-1.315l-.025-.13 1.975-.314c.003.018.062.148.233.31.352.335.967.568 1.954.6l.235.003h4.98l.345.912a7.12 7.12 0 01.39 2.328c0 1.61-.534 3.095-1.434 4.288 1.907.747 3.177 2.295 3.267 4.348L21 16v9c0 1.988-1.834 3.882-3.814 3.995L17 29h-7c-1.566 0-3.03-1.452-3-3.018.027-1.482 1.364-2.879 2.836-2.977L10 23h4.999L15 17.258h2V25h-7c-.434 0-.992.561-1 1.019-.008.404.466.904.9.973L10 27h7c.902 0 1.904-.96 1.994-1.87L19 25v-9c0-1.537-1.093-2.628-2.873-2.97l-.075-.012a7.096 7.096 0 01-4.02 1.24 7.098 7.098 0 01-3.267-.791 3.553 3.553 0 00-1.704 2.842l-.006.197v1.72a8.509 8.509 0 011.688-.222L9 18v2c-3.715 0-7 3.264-7 6.83 0 1.579.62 3.067 1.728 4.225 1.123 1.173 2.934 1.873 4.952 1.94L9 33v2c-.683 0-1.353-.06-2-.176V36H5v-1.753c-1.05-.43-1.978-1.038-2.717-1.81C.825 30.915 0 28.934 0 26.83c0-3.318 2.109-6.375 5.055-7.87v-2.454c0-1.694.764-3.241 2.002-4.272A7.13 7.13 0 0112.032 0zM19 30v6h-2v-6h2zM13.824 8.324l1.414 1.415a4.192 4.192 0 01-2.972 1.23 4.193 4.193 0 01-2.798-1.065l-.175-.165 1.414-1.415c.419.419.976.644 1.559.644.518 0 1.016-.178 1.414-.511l.144-.133z" transform="translate(8 2)" fill="currentColor" fill-rule="nonzero"/></g></symbol><symbol id="radio-enclosed-40" viewBox="0 0 40 40"><g fill="currentColor" fill-rule="evenodd"><path d="M18 36C8.059 36 0 27.941 0 18S8.059 0 18 0s18 8.059 18 18-8.059 18-18 18zm0-2c8.837 0 16-7.163 16-16S26.837 2 18 2 2 9.163 2 18s7.163 16 16 16z" fill-rule="nonzero" transform="translate(2 2)"/><path d="M18.06 20c-1.09 0-2.06-.875-2.06-2s.848-2 2.06-2c1.213 0 1.94.875 1.94 2s-.848 2-1.94 2z" transform="translate(2 2)"/></g></symbol><symbol id="retro-phone-40" viewBox="0 0 37 37"><g fill="none" fill-rule="evenodd"><path d="M0 0h40v40H0z" transform="translate(-1 -1)"/><path d="M31.647 33.566c.02-.022.02-.022.039-.04l.09-.093.293-.298.873-.887c.697-.708 1.079-1.096 1.208-1.232.453-.47.662-.95.662-1.408 0-.45-.205-.906-.661-1.358l-4.436-4.45-.026-.026c-.421-.439-.855-.638-1.289-.638-.441 0-.895.204-1.352.66l-2.563 2.554c-1.653 1.626-5.273-.64-8.805-3.703-2.772-2.403-5.756-7.108-4.544-9.036l.144-.23.2-.182c.218-.199.599-.57 1.092-1.061l.049-.049c.43-.43 1.44-1.448 1.348-1.356.915-.915.915-1.845-.007-2.767-2.593-2.619-4.096-4.12-4.462-4.46-.421-.417-.86-.61-1.3-.61-.451 0-.916.202-1.334.603L4.102 6.285A3.901 3.901 0 002.928 8.79c-.132 1.612.208 3.223.917 5.133 1.23 3.317 3.074 6.394 5.839 9.716 3.36 4.012 7.394 7.17 11.985 9.387 2.434 1.153 4.352 1.781 6.35 1.91.211.01.32.014.413.014 1.31 0 2.338-.439 3.18-1.346.043-.06.04-.053.035-.038zm-.516-11.178l4.436 4.45c.816.808 1.245 1.769 1.245 2.77 0 .994-.42 1.963-1.22 2.795-.348.363-2.49 2.528-2.497 2.544-1.228 1.332-2.796 2.003-4.663 2.003-.161 0-.339-.008-.509-.017-2.771-.177-5.252-1.22-7.11-2.1-4.865-2.35-9.123-5.685-12.662-9.909-2.917-3.505-4.873-6.776-6.182-10.305C1.436 13.18.741 10.984.935 8.626A5.907 5.907 0 012.69 4.87l2.763-2.786C6.26 1.31 7.213.897 8.199.897s1.923.412 2.707 1.187c.35.323 1.843 1.815 4.477 4.474 1.697 1.696 1.697 3.893 0 5.59-.227.225-1.891 1.921-2.554 2.527-.404.643 2.077 4.655 4.16 6.461 2.085 1.807 5.748 4.128 6.094 3.788l2.554-2.544c.816-.816 1.77-1.244 2.763-1.244 1.002 0 1.947.436 2.731 1.252z" fill="currentColor" fill-rule="nonzero"/></g></symbol><symbol id="rv-40" viewBox="0 0 40 40"><g fill="none" fill-rule="evenodd"><path d="M0 0h40v40H0z"/><path d="M13 14a3 3 0 110 6 3 3 0 010-6zm15 0a3 3 0 110 6 3 3 0 010-6zm5.744-14l3.305 11.016L34.72 18H32v-2h1.279l1.672-5.017L32.256 2H4.819l-1.6 8H6v2H3.386l1.334 4H9v2H3.28L.966 11.064 3.18 0h30.564zM13 16a1 1 0 100 2 1 1 0 000-2zm15 0a1 1 0 100 2 1 1 0 000-2zm-4 0v2h-7v-2h7zm0-12v11h-2V6h-3v9h-2V4h7zm7.244 0l2.1 7H26V4h5.244zm-1.488 2H28v3h2.656l-.9-3zM14 4v5H6V4h8zm-2 2H8v1h4V6z" transform="translate(1 10)" fill="currentColor" fill-rule="nonzero"/></g></symbol><symbol id="save-40" viewBox="0 0 40 40"><g fill="currentColor" fill-rule="nonzero"><path d="M5.419 8.697a1.675 1.675 0 01-2.481 0c-.723-.764-.723-2.025 0-2.789L1.483 4.534c-1.451 1.535-1.451 4.002 0 5.537a3.675 3.675 0 005.388 0L5.42 8.697z" transform="translate(1.6 5)"/><path d="M25.4 22.721l.698-.221c2.646-.838 4.41-2.692 5.264-5.767l.203-.733H34.4v-3h-3l-.249-.637c-.985-2.527-2.723-4.246-5.107-5.156l-.644-.245V2.47a5.668 5.668 0 00-3.062 1.465 6.062 6.062 0 00-.918 1.062 3.71 3.71 0 00-.258.429l-.27.574h-6.635C9.515 6 5.4 10.105 5.4 14.853c0 3.416 1.508 5.673 4.508 7.44l.492.29V27h3v-4h9v4h3v-4.279zm2 1.438V29h-7v-4h-5v4h-7v-5.285c-3.254-2.075-5-4.875-5-8.862C3.4 9 8.412 4 14.257 4h5.416a7.927 7.927 0 011.311-1.537C22.384 1.175 24.19.397 26.4.397h1v5.21c2.388 1.078 4.214 2.898 5.346 5.393H36.4v7h-3.336c-1.03 3.047-2.958 5.096-5.664 6.16z" transform="translate(1.6 5)"/><path d="M21.4 8h-7v2h7z" transform="translate(1.6 5)"/></g></symbol><symbol id="shield-40" viewBox="0 0 40 40"><g fill="none" fill-rule="evenodd"><path d="M0 0h40v40H0z"/><path d="M24.545 0c0 2.88 2.728 5.76 5.455 5.76v12.96C30 25.44 25 31.2 15 36 5 31.2 0 25.44 0 18.72V5.76c2.727 0 5.455-2.88 5.455-5.76h19.09zm-1.7 2H7.154C6.417 4.479 4.39 6.624 2 7.425V18.72c0 5.625 4.21 10.651 13 15.053 8.79-4.402 13-9.428 13-15.053V7.425C25.611 6.624 23.584 4.479 22.844 2zm-3.865 9.293l1.415 1.414-3.793 3.793 3.793 3.793-1.415 1.414-3.793-3.793-3.792 3.793-1.415-1.414 3.793-3.793-3.793-3.793 1.415-1.414 3.792 3.792 3.793-3.792z" transform="translate(5 2)" fill="currentColor" fill-rule="nonzero"/></g></symbol><symbol id="smalltruck-40" viewBox="0 0 40 40"><g fill="none" fill-rule="evenodd"><path d="M0 0h40v40H0z"/><path d="M9.071 19.071a4 4 0 110 8 4 4 0 010-8zM28 19a4 4 0 110 8 4 4 0 010-8zM9.07 21.071a2 2 0 100 4 2 2 0 000-4zM28 21a2 2 0 100 4 2 2 0 000-4zm3.677-14L36 17.807V24h-3v-2h1v-3.806L30.323 9H28V7h3.677zM27 0v18H2.387l1.333 4H4v2H2.28L.278 18H0V0h27zm-4 22v2h-9v-2h9zm2-20H2v14h23V2zm-5 11v2h-2v-2h2zm-7 0v2h-2v-2h2zm-6 0v2H5v-2h2z" transform="translate(2 6)" fill="currentColor" fill-rule="nonzero"/></g></symbol><symbol id="snailmail-40" viewBox="0 0 40 40"><g fill="none" fill-rule="evenodd"><path d="M0 0h40v40H0z"/><g fill="currentColor" fill-rule="nonzero"><path d="M.915 31h36v-2h-36zm26-30v-2h-5v13.98h2V1z" transform="translate(1.085 3)"/><path d="M23.915 5H8.697v2h15.218zm-6 25v5h2v-5z" transform="translate(1.085 3)"/><path d="M15.177 29.091v-17.96a6.131 6.131 0 00-12.262 0V27h2V11.131a4.131 4.131 0 018.262 0v17.96h2zm21.718 0v-17.96A6.131 6.131 0 0030.763 5h-4.848v2h4.848a4.131 4.131 0 014.132 4.131v17.96h2z" transform="translate(1.085 3)"/><path d="M8.915 15h5v-2h-7v14h6.867v-2H8.915z" transform="translate(1.085 3)"/></g></g></symbol><symbol id="snowmobile-40" viewBox="0 0 40 40"><g fill="none" fill-rule="evenodd"><path d="M0 0h40v40H0z"/><path d="M17.787 13C19.591 13 21 14.592 21 16.5S19.59 20 17.787 20H3.213C1.41 20 0 18.408 0 16.5S1.41 13 3.213 13zM20.707.293L32.425 12.01l-2.904 2.818-.141.136 2.648 2.648.012-.007c.205-.143.439-.35.764-.677l.73-.769 1.745-1.853 1.442 1.386-2.167 2.304c-.651.683-1.071 1.065-1.528 1.355-.748.475-1.453.628-2.74.646L30 20h-7v-2h6.585l-1.81-1.81a6.54 6.54 0 01-1.069.493 5.076 5.076 0 01-1.48.308l-.2.009c-.046 0-.184.002-.406.002L21.998 17l.004-2h2.971a3.153 3.153 0 001.065-.202c.603-.214 1.226-.59 1.865-1.186l1.671-1.623L24 6.415 20.414 10H6c-.623 0-1.319.422-1.494 1.036l-.293 1.05-1.927-.536.296-1.063C3.01 8.99 4.428 8.078 5.82 8.005L6 8h13.584v-.001L18.585 7H16V5h3.414L21 6.584l1.585-1.585-3.291-3.292L20.707.293zM17.787 15H3.213C2.573 15 2 15.646 2 16.5S2.572 18 3.213 18h14.574c.641 0 1.213-.646 1.213-1.5s-.572-1.5-1.213-1.5z" transform="translate(2 10)" fill="currentColor" fill-rule="nonzero"/></g></symbol><symbol id="star-40" viewBox="0 0 40 40"><g fill="none" fill-rule="evenodd"><path d="M0 .833h40v39.024H0z"/><path d="M28.729 32.934l-5.402-11.698.692-.478 8.483-5.86H21.843l-.229-.682-3.147-9.352-3.212 10.033H4.615l9.191 6.285-.372.774-5.257 10.926 10.234-6.351 10.318 6.403zm-2.881-11.009l5.93 12.841a1.11 1.11 0 01-.036 1.06 1.104 1.104 0 01-1.535.38l-11.796-7.321-11.786 7.314c-.339.21-.765.222-1.114.03-.53-.293-.725-.954-.462-1.457l6.21-12.909L1.051 14.88a1.11 1.11 0 01.679-1.983h12.065L17.393 1.66a1.105 1.105 0 012.1-.017l3.787 11.255h12.08c.35 0 .677.166.885.445.358.48.27 1.162-.253 1.572l-10.144 7.011z" transform="translate(1.375 1.472)" fill="currentColor" fill-rule="nonzero"/></g></symbol><symbol id="sustainability-40" viewBox="0 0 40 40"><path d="M31.576 2.72l-.5.033.5-.04-.015-.183c-.035-.432-.064-.79-.082-1.058L31.375 0l-2.262.998C25.936 2.38 18.497 5.616 15.966 7.932a9.557 9.557 0 00-2.532 10.333l.17.47 1.947-.704-.17-.47a7.49 7.49 0 011.981-8.101c2.18-1.995 8.89-4.96 12.165-6.385.277 3.454.87 11.063.13 13.92a7.431 7.431 0 01-3.469 4.58 7.508 7.508 0 01-5.742.787 7.97 7.97 0 01-1.331-.504L20.77 19.2l6.127-1.496-.49-2.011-4.07.994 3.157-5.067-1.756-1.094-3.262 5.23-1.003-4.114-2.01.49 1.482 6.083-5.926 9.507-3.027-4.161a4.64 4.64 0 00.316-.353 6.005 6.005 0 001.269-4.4c-.164-1.45-.858-2.73-1.957-3.6-1.359-1.08-4.786-2.198-7.13-2.963-.449-.146-.81-.263-1.032-.343L.072 11.4l.002 1.476c0 .233-.01.602-.023 1.06-.084 3.023-.121 6.104.395 7.642.686 2.047 2.684 3.48 5.09 3.65l.5.035.144-2.066-.498-.036c-1.285-.09-2.796-.818-3.273-2.242-.418-1.247-.345-4.81-.297-6.62 1.802.589 5.191 1.713 6.223 2.532.664.527 1.085 1.312 1.187 2.21a3.918 3.918 0 01-.78 2.799l-2.256-3.102-1.675 1.217 7.029 9.663-3.56 5.712 1.757 1.094 7.979-12.801a10.09 10.09 0 001.904.74c2.456.65 5.113.29 7.316-1a9.493 9.493 0 004.427-5.846c.843-3.248.215-11.05-.086-14.797" transform="translate(4 2)" fill="currentColor" fill-rule="evenodd"/></symbol><symbol id="tablet-40" viewBox="0 0 40 40"><g fill="none" fill-rule="evenodd"><path d="M0 0h40v40H0z"/><g transform="translate(6 3)" fill="currentColor"><path d="M2-1h24a3 3 0 013 3v30a3 3 0 01-3 3H2a3 3 0 01-3-3V2a3 3 0 013-3zm0 2a1 1 0 00-1 1v30a1 1 0 001 1h24a1 1 0 001-1V2a1 1 0 00-1-1H2z" fill-rule="nonzero"/><circle cx="14" cy="30.5" r="1.5"/><path fill-rule="nonzero" d="M9.293 3.293l-6 6 1.414 1.414 6-6zM3.707 6.707l3-3-1.414-1.414-3 3z"/></g></g></symbol><symbol id="tag-40" viewBox="0 0 40 40"><g fill="currentColor" fill-rule="nonzero"><path d="M2.527 8.192v24.12h17.66V8.191l-5.221-5.228H7.758L2.527 8.191zM15.795.964l6.393 6.4v26.947H.527V7.364l6.402-6.4h8.866z" transform="rotate(45 16.355 30.73)"/><path d="M12.759 13.495a2.015 2.015 0 000-2.829 2.015 2.015 0 00-2.828 0 2.015 2.015 0 000 2.829c.305.305.418.393.567.443l.13.054c.118.058.303.1.52.102.627.049 1.153-.141 1.611-.6zm-4.243 1.414a4.015 4.015 0 010-5.657 4.015 4.015 0 015.657 0 4.015 4.015 0 010 5.657c-.874.874-1.974 1.272-3.102 1.182-.418 0-.88-.097-1.27-.278-.496-.176-.79-.409-1.285-.904z" transform="rotate(45 16.355 30.73)"/></g></symbol><symbol id="thumbup-40" viewBox="0 0 40 40"><g fill="none" fill-rule="evenodd"><path d="M0 0h40v40H0z"/><path d="M20.231.36a1 1 0 011.355-.17c.86.622 1.454 1.86 1.898 3.731a1 1 0 01-.009.497L21.113 13h13.91a1 1 0 011 1v6a1 1 0 01-.073.373l-6.022 15A1 1 0 0129 36H13a1 1 0 01-.555-.168l-3-2A1 1 0 019 33V14.222a1 1 0 01.231-.64zm.733 2.247L11 14.584v17.88L13.303 34h15.02l5.7-14.193V15H19.8a1 1 0 01-.964-1.265l2.642-9.597a9.146 9.146 0 00-.514-1.53zM7.022 15v19h-7V15h7zm-2 2h-3v15h3V17z" transform="translate(2 2)" fill="currentColor" fill-rule="nonzero"/></g></symbol><symbol id="tractor-40" viewBox="0 0 40 40"><g fill="none" fill-rule="evenodd"><path d="M0 0h40v40H0z"/><path d="M10.163 17.479a6.44 6.44 0 110 12.88 6.44 6.44 0 010-12.88zM19.464.149l4.177 13.249h3.108V6.254c0-.138-.022-.299-.062-.451a1.721 1.721 0 00-1.519-1.28l-.146-.005v-2a3.721 3.721 0 013.6 2.781c.061.233.102.477.118.716l.009.239v7.143h4.165l.068 7.413a5.08 5.08 0 11-7.487 4.108h-6.812v-1a8.52 8.52 0 00-8.52-8.52 8.524 8.524 0 00-8.125 5.947l-.076.252-1.924-.543a10.504 10.504 0 013.685-5.456V.15h15.741zm-9.301 19.33a4.44 4.44 0 100 8.88 4.44 4.44 0 000-8.88zm20.4 2.72a3.08 3.08 0 100 6.16 3.08 3.08 0 000-6.16zM10.423 2.147l-4.701.001.001 12.232a10.495 10.495 0 014.44-.981c5.429 0 9.897 4.112 10.46 9.392l.012.127h5.428a5.08 5.08 0 014.914-2.703l-.046-4.817h-8.756l-4.177-13.25h-5.575v8.926h-2V2.147z" transform="translate(2 5)" fill="currentColor" fill-rule="nonzero"/></g></symbol><symbol id="trailer-40" viewBox="0 0 40 40"><g fill="none" fill-rule="evenodd"><path d="M0 0h40v40H0z"/><path d="M9 4a4 4 0 110 8 4 4 0 010-8zm0 2a2 2 0 100 4 2 2 0 000-4zm27-6v3h-2V2h-7v7H14V7l11-.001V2h-2v-.001H3v5L4 7v2H1V3H0V0h36z" transform="translate(2 15)" fill="currentColor" fill-rule="nonzero"/></g></symbol><symbol id="travel-40" viewBox="0 0 40 40"><g fill="currentColor" fill-rule="nonzero"><path d="M16.102 24.996l5.253 1.136.422-1.955-5.748-1.243-5.994 1.752 3.424 3.213 1.368-1.459-.87-.817z" transform="translate(3 2)"/><path d="M14.142 33.328l-9.115-1.036-4.804-4.513 6.264-1.763 3.16 1.701 2.348-.686 16.75-4.894 5.648 1.214.167.572a3.346 3.346 0 01-2.273 4.15l-7.302 2.135-5.04 5.37-6.013 1.758 1.078-4.248-.868.24zm1.618-3.195l1.939.492-.967 3.809 2.127-.622 5.04-5.37.263-.077 7.564-2.211c.531-.155.894-.609.959-1.124l-3.866-.831-16.263 4.752-3.135.916-3.17-1.707-2.078.585 1.74 1.634 8.07.918 1.594-.44.183-.724zM20.989 19a.995.995 0 00-.752.354 1 1 0 10.752-.354zm.046 4a3 3 0 11-.07-6 3 3 0 01.07 6zM16.92 4.733C16.448 2.037 13.966 0 11.001 0c-2.966 0-5.448 2.037-5.92 4.733C2.214 5.15 0 7.485 0 10.333 0 13.479 2.7 16 6 16h1.965v-2H6c-2.224 0-4-1.658-4-3.667s1.776-3.666 4-3.666h1v-1C7 3.657 8.776 2 11.001 2c2.224 0 4 1.658 4 3.667v1h1c2.224 0 4 1.657 4 3.666 0 .971-.414 1.884-1.147 2.57l1.364 1.46c1.131-1.055 1.783-2.492 1.783-4.03 0-2.847-2.214-5.183-5.08-5.6z" transform="translate(3 2)"/><path d="M16 15a2 2 0 10-4 0 2 2 0 004 0zm2 0a4 4 0 11-8 0 4 4 0 018 0z" transform="translate(3 2)"/></g></symbol><symbol id="twitter-40" viewBox="0 0 40 40"><g fill="currentColor" fill-rule="evenodd"><path d="M2 2v30h30V2H2zM0 0h34v34H0V0z" fill-rule="nonzero" transform="translate(3 3)"/><path d="M13.764 23.797c6.407 0 9.91-5.307 9.91-9.91l-.003-.288a.31.31 0 01.121-.257c.52-.394.986-.86 1.378-1.382.07-.092-.024-.218-.132-.177a6.992 6.992 0 01-1.526.385c-.025.003-.038-.031-.016-.045a3.504 3.504 0 001.295-1.497.141.141 0 00-.195-.183 6.996 6.996 0 01-1.709.623.307.307 0 01-.279-.08 3.484 3.484 0 00-5.866 3.076.173.173 0 01-.181.201 9.884 9.884 0 01-6.75-3.383.213.213 0 00-.354.047 3.478 3.478 0 001.136 4.297c.026.019.012.06-.02.059a3.453 3.453 0 01-1.26-.325.141.141 0 00-.2.138 3.487 3.487 0 002.664 3.188.03.03 0 010 .058 3.487 3.487 0 01-1.258.06.116.116 0 00-.125.156 3.49 3.49 0 002.886 2.214c.103.01.14.142.055.203a6.988 6.988 0 01-4.079 1.306h-.071c-.192 0-.256.256-.088.346a9.849 9.849 0 004.667 1.17" transform="translate(3 3)"/></g></symbol><symbol id="umbrella-40" viewBox="0 0 40 40"><g fill="currentColor" fill-rule="nonzero"><path d="M23.5 14.478c2.3 0 4.44.804 6.125 2.194-1.477-6.124-7.136-10.769-13.724-10.769-6.609 0-12.145 4.606-13.554 10.812 1.705-1.408 3.88-2.237 6.153-2.237a9.603 9.603 0 017.503 3.588c1.806-2.214 4.572-3.588 7.497-3.588zm0 2c-2.723 0-5.292 1.519-6.634 3.847h-1.732c-1.362-2.362-3.849-3.847-6.634-3.847-2.723 0-5.292 1.519-6.634 3.847L0 19.826c0-8.82 7.125-15.923 15.901-15.923C24.678 3.903 32 11.104 32 19.826l-1.866.5c-1.362-2.363-3.849-3.848-6.634-3.848zM15.004 31.43c0 1.227-.978 2.215-2.182 2.215s-2.182-.988-2.182-2.216h-2c0 2.327 1.869 4.216 4.182 4.216 2.313 0 4.182-1.889 4.182-4.216h-2z" transform="translate(4 2)"/><path d="M15 19.336v12.34h2v-12.34zM17 4.95V0h-2v4.95z" transform="translate(4 2)"/></g></symbol><symbol id="user-40" viewBox="0 0 40 40"><g fill="currentColor" fill-rule="nonzero"><path d="M28 22.5c0 7.194-5.825 13-13 13-7.151 0-13-5.849-13-13 0-7.194 5.825-13 13-13 3.83 0 7.405 1.671 9.895 4.545l1.511-1.31C23.54 9.428 19.417 7.5 15 7.5c-8.278 0-15 6.7-15 15 0 8.256 6.744 15 15 15 8.278 0 15-6.7 15-15a15.43 15.43 0 00-.788-4.871l-.173-.472-.24-.655H18.282c-2.885 0-4.879-.76-6.185-2.002a5.08 5.08 0 01-1.003-1.307 2.776 2.776 0 01-.218-.502l-1.934.512c.195.735.73 1.751 1.777 2.746 1.687 1.604 4.177 2.553 7.563 2.553h9.111c.395 1.26.607 2.619.607 3.998z" transform="translate(3 .5)"/><path d="M10 22.11c0-.335.256-.61.5-.61s.5.275.5.61h2c0-1.41-1.119-2.61-2.5-2.61S8 20.7 8 22.11h2zm9 0c0-.335.256-.61.5-.61s.5.275.5.61h2c0-1.41-1.119-2.61-2.5-2.61S17 20.7 17 22.11h2zm.305 5.284A6.176 6.176 0 0115 29.126a6.176 6.176 0 01-4.305-1.732l-1.39 1.439A8.175 8.175 0 0015 31.126a8.175 8.175 0 005.695-2.293l-1.39-1.439z" transform="translate(3 .5)"/><path d="M1.987 5.26l.656-4.102L.668.842.013 4.944zm5.247 2.318L9.588 4.13 7.936 3.002 5.582 6.451zm3.149 4.416l3.612-2.138-1.019-1.72-3.612 2.137z" transform="rotate(3 -9.592 452.216)"/></g></symbol><symbol id="user-happy-40" viewBox="0 0 40 40"><g fill="none" fill-rule="evenodd"><path d="M0 0h40v40H0z"/><path d="M18 0c5.099 0 9.858 2.133 13.244 5.81l-1.471 1.355A15.952 15.952 0 0018 2C9.163 2 2 9.163 2 18s7.163 16 16 16 16-7.163 16-16c0-1.836-.31-3.629-.906-5.321h-12.26c-4.293 0-8.908-2.485-10.154-5.885l1.878-.688c.92 2.512 4.749 4.573 8.275 4.573h13.63l.251.628A17.953 17.953 0 0136 18c0 9.941-8.059 18-18 18S0 27.941 0 18 8.059 0 18 0zm6.28 25.305l1.44 1.39C23.69 28.795 20.934 30 17.993 30c-2.934 0-5.685-1.2-7.712-3.293l1.436-1.391C13.374 27.025 15.61 28 17.994 28c2.39 0 4.63-.98 6.287-2.695zM24 15a3 3 0 013 3h-2a1 1 0 00-2 0h-2a3 3 0 013-3zm-12 0a3 3 0 013 3h-2a1 1 0 00-2 0H9a3 3 0 013-3z" transform="translate(2 2)" fill="currentColor" fill-rule="nonzero"/></g></symbol><symbol id="wallet-40" viewBox="0 0 40 40"><g fill="none" fill-rule="evenodd"><path d="M0 0h40v40H0z"/><path d="M31.857 0v2H3a1 1 0 00-1 1v25a1 1 0 001 1h29v-5.96h2V31H3a3 3 0 01-3-3V3a3 3 0 013-3h28.857zM34 4v8h2v11h-8v-2h6v-7h-6v-2h4V6H4V4h30z" transform="translate(2 5)" fill="currentColor" fill-rule="nonzero"/></g></symbol><symbol id="world-40" viewBox="0 0 40 40"><g fill="none" fill-rule="evenodd"><path d="M0 0h40v40H0z"/><g fill="currentColor"><path d="M18 36c9.941 0 18-8.059 18-18S27.941 0 18 0 0 8.059 0 18s8.059 18 18 18zm0-2C9.163 34 2 26.837 2 18S9.163 2 18 2s16 7.163 16 16-7.163 16-16 16z" fill-rule="nonzero" transform="translate(2 2)"/><path fill-rule="nonzero" d="M16.102 2.927l-4.287 1.8-1.97 3.247 1.827 3.311 3.241-1.435H18v-2h-3.51l-1.952.865-.383-.693 1.033-1.701 4.914-2.065V1h-2zM10.737 14.18l.126-.112-.068.05-.058.062zm-1.908 1.417l2.058 6.352H14.5l.646-.163v.612l1.365 1.692-.687 1.94 2.189 6.25 4.493-1.6.666-2.25 2.127-1.96v-3.14l3.347-4.04-3.605-1.436-1.992-4.358-3.476-1.64-1.223.808-1.895-.615-.618 1.902 2.811.913 1.09-.72 1.796.849 2.022 4.422 1.796.716-2.053 2.478v2.984l-1.888 1.74-.534 1.804-1.641.584-1.291-3.687.824-2.33-1.623-2.012V19.22l-2.894.73H12.34l-1.17-3.612.894-.672.126-.112 1.764-1.867-1.454-1.374-1.706 1.806-1.966 1.478zm17.215-.074l3.52-1.515.442-1.225.344-.137 3.86 4.968 1.58-1.228-4.782-6.154-2.577 1.026-.454 1.256-.915.394-1.604-3.57-3.972-2.212-.972 1.748 3.392 1.888z" transform="translate(2 2)"/><path d="M26 29.157l.56-1.866L28 25v2.712L27 30z" transform="translate(2 2)"/><path fill-rule="nonzero" d="M9 25.34v-3.184l-2.93-1.444-2.866-1.82-2.545.923.682 1.88 1.62-.587 2.083 1.322.094.052L7 23.4v1.536l-1.15 2.731V31h2v-2.929zM4.943 10.368l-1.613 4.01-2.575.653.49 1.938 3.562-.9 2.25-5.597L5.96 6.719l-1.92.562z" transform="translate(2 2)"/></g></g></symbol><symbol id="wristwatch-40" viewBox="0 0 40 40"><g fill="none" fill-rule="evenodd"><path d="M0 0h40v40H0z"/><path d="M4.067 8.996L5.567 0h12.917l1.45 8.998A11.971 11.971 0 0124 18c0 3.582-1.57 6.797-4.057 8.996l-1.495 8.96H5.53l-1.44-8.93A11.972 11.972 0 010 18c0-3.586 1.573-6.805 4.067-9.004zm2.293-1.59A11.947 11.947 0 0112 6c2.044 0 3.969.511 5.654 1.413L16.78 2H7.26l-.9 5.405zM6.371 28.6l.864 5.355h9.519l.895-5.366A11.938 11.938 0 0112 30a11.94 11.94 0 01-5.629-1.4zM12 28c5.523 0 10-4.477 10-10S17.523 8 12 8 2 12.477 2 18s4.477 10 10 10zm5.724-7.1l-1.172 1.622L11 18.512V9.5h2v7.989l4.724 3.412z" transform="translate(8 2)" fill="currentColor" fill-rule="nonzero"/></g></symbol></svg>