<?xml version="1.0" encoding="UTF-8"?>
<svg width="48px" height="48px" viewBox="0 0 48 48" version="1.1" xmlns="http://www.w3.org/2000/svg" xmlns:xlink="http://www.w3.org/1999/xlink">
    <!-- Generator: Sketch 50.2 (55047) - http://www.bohemiancoding.com/sketch -->
    <title>multicolor-car-damaged-48</title>
    <desc>Created with Sketch.</desc>
    <defs></defs>
    <g id="multicolor-car-damaged-48" stroke="none" stroke-width="1" fill="none" fill-rule="evenodd">
        <g transform="translate(5.000000, 9.000000)" fill-rule="nonzero">
            <polygon id="Fill-1" fill="#E30613" points="31.3595318 10.8331667 8.26095217 10.8331667 8.26095217 9.1665 30.1918896 9.1665"></polygon>
            <polygon id="Path-2" fill="#E30613" points="25.6539525 3.7219987 21.1080003 3.55197309 20.5771761 2.80335193 19.2333849 3.7729827 20.2361459 5.18717622 23.2984225 5.30171007 22.0978463 8.51629167 27.3743695 7.90233887 29.0896569 10.4787225 30.4612092 9.54948925 28.1848187 6.13032172 24.5986551 6.5475918"></polygon>
            <path d="M8.67391304,14.9998333 C7.99073913,14.9998333 7.43478261,15.5581667 7.43478261,16.244 C7.43478261,16.9298333 7.99073913,17.4881667 8.67391304,17.4881667 C9.35708696,17.4881667 9.91304348,16.9298333 9.91304348,16.244 C9.91304348,15.5581667 9.35708696,14.9998333 8.67391304,14.9998333 M8.67391304,19.1548333 C7.07956522,19.1548333 5.7826087,17.849 5.7826087,16.244 C5.7826087,14.639 7.07956522,13.3331667 8.67391304,13.3331667 C10.2682609,13.3331667 11.5652174,14.639 11.5652174,16.244 C11.5652174,17.849 10.2682609,19.1548333 8.67391304,19.1548333" id="Fill-2" fill="#005AA0"></path>
            <path d="M30.5646391,16.2501333 C30.5613348,16.9334667 30.0070304,17.4884667 29.3263348,17.4884667 C28.6431609,17.4884667 28.0872043,16.9301333 28.0872043,16.2443 C28.0872043,15.5584667 28.6431609,15.0001333 29.3263348,15.0001333 L29.3263348,13.3334667 C27.731987,13.3334667 26.4350304,14.6393 26.4350304,16.2443 C26.4350304,17.8493 27.731987,19.1551333 29.3263348,19.1551333 C30.9182043,19.1551333 32.2135087,17.8526333 32.216813,16.2501333 L30.5646391,16.2501333 Z" id="Fill-1" fill="#005AA0"></path>
            <path d="M36.3479087,11.6666667 C36.3479087,11.6875 36.0728217,11.6941667 35.705213,11.6941667 C34.9708217,11.6941667 33.8696478,11.6666667 33.8696478,11.6666667 L34.7320826,15 L34.6957348,20.8333333 L34.6957348,22.5 L34.6957348,25 L33.8696478,25 L33.8696478,28.3333333 L30.5653,28.3333333 L30.5653,25 L7.43486522,25 L7.43486522,28.3333333 L4.13051739,28.3333333 L4.13051739,25 L3.30443043,25 L3.30443043,22.5 L22.3044304,22.5 L22.3044304,20.8333333 L3.30443043,20.8333333 L3.30443043,15 L4.13051739,11.6666667 C4.13051739,11.6666667 3.02934348,11.6941667 2.29495217,11.6941667 C1.92734348,11.6941667 1.65225652,11.6875 1.65225652,11.6666667 L1.65225652,10 C1.65225652,9.19333333 5.7826913,9.16666667 5.7826913,9.16666667 L9.08703913,4.16666667 C9.08703913,4.16666667 9.89082174,1.67166667 18.5870391,1.66666667 C27.2857348,1.66666667 28.9131261,4.16666667 28.9131261,4.16666667 L32.2174739,9.16666667 C32.2174739,9.16666667 36.3479087,9.19333333 36.3479087,10 L36.3479087,11.6666667 Z M30.2877348,3.2425 C29.9407783,2.70916667 27.7161261,0 18.6143,0 C10.3468217,0.005 8.18908261,2.175 7.62651739,3.3725 L4.88803913,7.51583333 C2.25034348,7.60083333 8.26086957e-05,8.05083333 8.26086957e-05,10 L8.26086957e-05,11.6666667 C8.26086957e-05,12.2266667 0.370995652,13.3008333 1.7736913,13.3541667 C1.83977826,13.3566667 1.91908261,13.3583333 2.0083,13.3591667 L1.70182174,14.5958333 L1.65225652,14.795 L1.65225652,15 L1.65225652,20.8333333 L1.65225652,22.5 L1.65225652,25 C1.65225652,25.6174409 1.98466915,26.1562013 2.47890211,26.4441926 L2.47834348,28.3333333 C2.47834348,29.2541667 3.2176913,30 4.13051739,30 L7.43486522,30 C8.3476913,30 9.08703913,29.2541667 9.08703913,28.3333333 L9.08703913,26.6666667 L28.9131261,26.6666667 L28.9131261,28.3333333 C28.9131261,29.2541667 29.6524739,30 30.5653,30 L33.8696478,30 C34.7824739,30 35.5218217,29.2541667 35.5218217,28.3333333 L35.5203959,26.4446976 C36.0151072,26.1568314 36.3479087,25.617802 36.3479087,25 L36.3479087,22.5 C36.3479087,22.4666667 36.3396478,22.435 36.3379957,22.4016667 L36.3479087,20.8441667 L36.3478261,15.0108333 L36.3478261,14.7908333 L36.3065224,14.5791667 L35.9918652,13.3591667 C36.0810826,13.3583333 36.160387,13.3566667 36.2264739,13.3541667 C37.6291696,13.3008333 38.0000826,12.2266667 38.0000826,11.6666667 L38.0000826,10 C38.0000826,8.05083333 35.7498217,7.60083333 33.1121261,7.51583333 L30.2877348,3.2425 Z" id="Fill-6" fill="#005AA0"></path>
            <polygon id="Line" fill="#E30613" points="32.3609716 24.1960151 33.5160401 23.0043418 31.3150147 20.8333333 24.3695652 20.8333333 24.3695652 22.5 30.641507 22.5"></polygon>
        </g>
    </g>
</svg>