<?xml version="1.0" encoding="UTF-8"?>
<svg width="48px" height="48px" viewBox="0 0 48 48" version="1.1" xmlns="http://www.w3.org/2000/svg" xmlns:xlink="http://www.w3.org/1999/xlink">
    <!-- Generator: Sketch 50.2 (55047) - http://www.bohemiancoding.com/sketch -->
    <title>multicolor-travel-48</title>
    <desc>Created with Sketch.</desc>
    <defs></defs>
    <g id="multicolor-travel-48" stroke="none" stroke-width="1" fill="none" fill-rule="evenodd">
        <g id="icon-damage-travel-48-crop" transform="translate(6.000000, 4.000000)" fill-rule="nonzero">
            <path d="M11.500525,0 C8.387989,0 5.79294097,2.18758914 5.32494492,5.06565236 C2.31909227,5.49396745 0,7.97833118 0,10.9996429 C0,14.32453 2.80846554,17 6.24973751,17 L9,17 L9,15 L6.24973751,15 C3.89191588,15 2,13.1976763 2,10.9996429 C2,8.80188354 3.89163882,7.00035714 6.24973751,7.00035714 L7.24973751,7.00035714 L7.24973751,6.00035714 C7.24973751,3.80191299 9.14202494,2 11.500525,2 C13.8581082,2 15.7502625,3.8020351 15.7502625,6.00035714 L15.7502625,7.00035714 L16.7502625,7.00035714 C19.107703,7.00035714 21,8.80226139 21,10.9996429 C21,12.065155 20.5560128,13.064372 19.772011,13.8113723 L21.1516428,15.2593419 C22.3250474,14.1413168 23,12.6223 23,10.9996429 C23,7.9786709 20.6804012,5.49411057 17.6750586,5.06568305 C17.2070938,2.18773548 14.6122799,0 11.500525,0 Z" id="Stroke-1" fill="#075BA0"></path>
            <path d="M17,16 C17,14.8951817 16.1046122,14 14.999,14 C14.4111425,14 13.866849,14.2540154 13.4871732,14.6916755 C13.1744976,15.0507746 13,15.5100425 13,16 C13,17.1046121 13.8951817,18 14.999,18 C16.1046122,18 17,17.1048183 17,16 Z M19,16 C19,18.2094909 17.2090786,20 14.999,20 C12.7905091,20 11,18.2090786 11,16 C11,15.0237422 11.3513802,14.0989291 11.9776255,13.3797067 C12.7319709,12.5101521 13.8251033,12 14.999,12 C17.2090786,12 19,13.7905091 19,16 Z" id="Stroke-3" fill="#E30613"></path>
            <polygon id="Stroke-1" fill="#005AA0" points="17.0154354 26.3882467 22.6011876 27.5958551 23.0238124 25.641018 16.9418301 24.3261274 10.7010537 26.149612 14.2554719 29.4849377 15.624022 28.0264896 14.6230969 27.0872611"></polygon>
            <path d="M14.9338104,35.2257265 L5.29755556,34.1300546 L0.296071317,29.4317283 L6.81207031,27.5972578 L10.1638162,29.4015358 L12.6786292,28.6666701 L30.4278549,23.4804542 L36.3691289,24.7575974 L36.5362771,25.3295186 C37.0767331,27.1787652 36.015576,29.1159663 34.1665529,29.6559536 L26.4054756,31.9249701 L21.0595149,37.6207687 L14.8005452,39.4499864 L15.9436049,34.9465263 L14.9338104,35.2257265 Z M16.5100393,32.7148716 L16.7134742,31.9133728 L18.6520052,32.4054071 L17.6005375,36.5480102 L19.9746827,35.8541534 L25.3205736,30.1584292 L25.5824127,30.0818783 L33.6056114,27.7362284 C34.2112886,27.5593469 34.6187881,27.0311103 34.6710208,26.4382566 L30.502669,25.5422229 L13.2395804,30.5863924 L9.9377821,31.5512269 L6.57590593,29.7414957 L4.24538562,30.3976146 L6.18307533,32.217854 L14.7745229,33.1947281 L16.5100393,32.7148716 Z M15.9436049,34.9465263 L16.5100393,32.7148716 L15.9436049,34.9465263 Z" id="Stroke-2" fill="#005AA0"></path>
            <path d="M21.9889354,20.0303668 C21.6922257,20.0338536 21.4210596,20.163137 21.2341918,20.3821569 C21.0807869,20.561699 20.9974068,20.7868992 21.0000509,21.0260298 C21.0065811,21.5688598 21.4579109,22.0064898 22.011992,21.9999201 C22.5654396,21.9936311 23.0061861,21.5459141 22.9999327,21.0037662 C22.9936809,20.4617497 22.5423926,20.0240778 21.9889354,20.0303668 Z M22.035211,23.9997852 C20.3803587,24.0194073 19.0200485,22.7003884 19.0001844,21.0491174 C18.9921244,20.3203211 19.248848,19.6269396 19.7131773,19.0834982 C20.271081,18.4296018 21.0865042,18.0408337 21.9658221,18.0305004 C23.6205841,18.0116969 24.9807697,19.3308425 24.9997997,20.980699 C25.0188316,22.6307156 23.6895831,23.9809863 22.035211,23.9997852 Z" id="Stroke-8" fill="#005AA0"></path>
        </g>
    </g>
</svg>