<?xml version="1.0" encoding="UTF-8"?>
<svg width="48px" height="48px" viewBox="0 0 48 48" version="1.1" xmlns="http://www.w3.org/2000/svg" xmlns:xlink="http://www.w3.org/1999/xlink">
    <!-- Generator: Sketch 50.2 (55047) - http://www.bohemiancoding.com/sketch -->
    <title>multicolor-house-48</title>
    <desc>Created with Sketch.</desc>
    <defs></defs>
    <g id="multicolor-house-48" stroke="none" stroke-width="1" fill="none" fill-rule="evenodd">
        <g id="icon-damage-house-48-crop" transform="translate(5.000000, 7.000000)" fill-rule="nonzero">
            <polygon id="Shape" fill="#005AA0" points="19.004777 3.25888616 36.3924383 16.5592049 37.6075617 14.97066 19.0051107 0.74111384 0.392648848 14.9704989 1.60735115 16.5593659"></polygon>
            <polygon id="Shape" fill="#E30613" points="19.0008219 8.25888616 21.9924383 10.547259 23.2075617 8.95871401 19.0011556 5.74111384 14.7926488 8.95855299 16.0073512 10.54742"></polygon>
            <polygon id="Shape" fill="#005AA0" points="26 18 26 29 28 29 28 16 20 16 20 29 22 29 22 18"></polygon>
            <path d="M16,22 L16,18 L12,18 L12,22 L16,22 Z M10,16 L18,16 L18,24 L10,24 L10,16 Z" id="Shape" fill="#005AA0"></path>
            <polygon id="Line" fill="#005AA0" points="5 12 5 30 7 30 7 12"></polygon>
            <polygon id="Line" fill="#005AA0" points="31 12 31 30 33 30 33 12"></polygon>
            <polygon id="Path-2" fill="#005AA0" points="0 31 12 31 12 29 0 29"></polygon>
            <polygon id="Path-2-Copy" fill="#005AA0" points="17 31 38 31 38 29 17 29"></polygon>
        </g>
    </g>
</svg>